G75*
%MOIN*%
%OFA0B0*%
%FSLAX25Y25*%
%IPPOS*%
%LPD*%
%AMOC8*
5,1,8,0,0,1.08239X$1,22.5*
%
%ADD10C,0.00600*%
%ADD11C,0.01200*%
%ADD12C,0.00800*%
D10*
X0004769Y0051450D02*
X0006237Y0051450D01*
X0006971Y0052184D01*
X0004035Y0055120D01*
X0004035Y0052184D01*
X0004769Y0051450D01*
X0006971Y0052184D02*
X0006971Y0055120D01*
X0006237Y0055854D01*
X0004769Y0055854D01*
X0004035Y0055120D01*
X0008639Y0055120D02*
X0008639Y0054386D01*
X0009373Y0053652D01*
X0008639Y0052918D01*
X0008639Y0052184D01*
X0009373Y0051450D01*
X0010841Y0051450D01*
X0011575Y0052184D01*
X0010107Y0053652D02*
X0009373Y0053652D01*
X0008639Y0055120D02*
X0009373Y0055854D01*
X0010841Y0055854D01*
X0011575Y0055120D01*
X0011575Y0061450D02*
X0008639Y0061450D01*
X0006971Y0062184D02*
X0006237Y0061450D01*
X0004769Y0061450D01*
X0004035Y0062184D01*
X0004035Y0065120D01*
X0004769Y0065854D01*
X0006237Y0065854D01*
X0006971Y0065120D01*
X0006971Y0064386D01*
X0006237Y0063652D01*
X0004035Y0063652D01*
X0004769Y0071450D02*
X0006237Y0071450D01*
X0006971Y0072184D01*
X0006971Y0072918D01*
X0006237Y0073652D01*
X0004769Y0073652D01*
X0004035Y0072918D01*
X0004035Y0072184D01*
X0004769Y0071450D01*
X0004769Y0073652D02*
X0004035Y0074386D01*
X0004035Y0075120D01*
X0004769Y0075854D01*
X0006237Y0075854D01*
X0006971Y0075120D01*
X0006971Y0074386D01*
X0006237Y0073652D01*
X0008639Y0074386D02*
X0008639Y0075120D01*
X0009373Y0075854D01*
X0010841Y0075854D01*
X0011575Y0075120D01*
X0008639Y0074386D02*
X0011575Y0071450D01*
X0008639Y0071450D01*
X0009373Y0065854D02*
X0010841Y0065854D01*
X0011575Y0065120D01*
X0009373Y0065854D02*
X0008639Y0065120D01*
X0008639Y0064386D01*
X0011575Y0061450D01*
X0011575Y0081450D02*
X0008639Y0081450D01*
X0006971Y0081450D02*
X0006971Y0082184D01*
X0004035Y0085120D01*
X0004035Y0085854D01*
X0006971Y0085854D01*
X0008639Y0085120D02*
X0009373Y0085854D01*
X0010841Y0085854D01*
X0011575Y0085120D01*
X0008639Y0085120D02*
X0008639Y0084386D01*
X0011575Y0081450D01*
X0011575Y0091450D02*
X0008639Y0094386D01*
X0008639Y0095120D01*
X0009373Y0095854D01*
X0010841Y0095854D01*
X0011575Y0095120D01*
X0011575Y0091450D02*
X0008639Y0091450D01*
X0006971Y0092184D02*
X0006237Y0091450D01*
X0004769Y0091450D01*
X0004035Y0092184D01*
X0004035Y0092918D01*
X0004769Y0093652D01*
X0006971Y0093652D01*
X0006971Y0092184D01*
X0006971Y0093652D02*
X0005503Y0095120D01*
X0004035Y0095854D01*
X0004769Y0101450D02*
X0006237Y0101450D01*
X0006971Y0102184D01*
X0006971Y0103652D02*
X0005503Y0104386D01*
X0004769Y0104386D01*
X0004035Y0103652D01*
X0004035Y0102184D01*
X0004769Y0101450D01*
X0006971Y0103652D02*
X0006971Y0105854D01*
X0004035Y0105854D01*
X0008639Y0105120D02*
X0009373Y0105854D01*
X0010841Y0105854D01*
X0011575Y0105120D01*
X0008639Y0105120D02*
X0008639Y0104386D01*
X0011575Y0101450D01*
X0008639Y0101450D01*
X0008639Y0111450D02*
X0011575Y0111450D01*
X0008639Y0114386D01*
X0008639Y0115120D01*
X0009373Y0115854D01*
X0010841Y0115854D01*
X0011575Y0115120D01*
X0006971Y0113652D02*
X0004035Y0113652D01*
X0004769Y0111450D02*
X0004769Y0115854D01*
X0006971Y0113652D01*
X0006237Y0121450D02*
X0004769Y0121450D01*
X0004035Y0122184D01*
X0004035Y0122918D01*
X0004769Y0123652D01*
X0005503Y0123652D01*
X0004769Y0123652D02*
X0004035Y0124386D01*
X0004035Y0125120D01*
X0004769Y0125854D01*
X0006237Y0125854D01*
X0006971Y0125120D01*
X0008639Y0125120D02*
X0009373Y0125854D01*
X0010841Y0125854D01*
X0011575Y0125120D01*
X0008639Y0125120D02*
X0008639Y0124386D01*
X0011575Y0121450D01*
X0008639Y0121450D01*
X0006971Y0122184D02*
X0006237Y0121450D01*
X0006971Y0131450D02*
X0004035Y0134386D01*
X0004035Y0135120D01*
X0004769Y0135854D01*
X0006237Y0135854D01*
X0006971Y0135120D01*
X0008639Y0135120D02*
X0008639Y0134386D01*
X0011575Y0131450D01*
X0008639Y0131450D01*
X0006971Y0131450D02*
X0004035Y0131450D01*
X0008639Y0135120D02*
X0009373Y0135854D01*
X0010841Y0135854D01*
X0011575Y0135120D01*
X0011575Y0141450D02*
X0008639Y0141450D01*
X0006971Y0141450D02*
X0004035Y0141450D01*
X0005503Y0141450D02*
X0005503Y0145854D01*
X0006971Y0144386D01*
X0008639Y0144386D02*
X0008639Y0145120D01*
X0009373Y0145854D01*
X0010841Y0145854D01*
X0011575Y0145120D01*
X0008639Y0144386D02*
X0011575Y0141450D01*
X0011575Y0151450D02*
X0008639Y0154386D01*
X0008639Y0155120D01*
X0009373Y0155854D01*
X0010841Y0155854D01*
X0011575Y0155120D01*
X0011575Y0151450D02*
X0008639Y0151450D01*
X0006971Y0152184D02*
X0006971Y0155120D01*
X0006237Y0155854D01*
X0004769Y0155854D01*
X0004035Y0155120D01*
X0006971Y0152184D01*
X0006237Y0151450D01*
X0004769Y0151450D01*
X0004035Y0152184D01*
X0004035Y0155120D01*
X0004769Y0161450D02*
X0004035Y0162184D01*
X0004035Y0165120D01*
X0004769Y0165854D01*
X0006237Y0165854D01*
X0006971Y0165120D01*
X0006971Y0164386D01*
X0006237Y0163652D01*
X0004035Y0163652D01*
X0004769Y0161450D02*
X0006237Y0161450D01*
X0006971Y0162184D01*
X0008639Y0161450D02*
X0011575Y0161450D01*
X0010107Y0161450D02*
X0010107Y0165854D01*
X0011575Y0164386D01*
X0011575Y0171450D02*
X0008639Y0171450D01*
X0010107Y0171450D02*
X0010107Y0175854D01*
X0011575Y0174386D01*
X0006971Y0174386D02*
X0006971Y0175120D01*
X0006237Y0175854D01*
X0004769Y0175854D01*
X0004035Y0175120D01*
X0004035Y0174386D01*
X0004769Y0173652D01*
X0006237Y0173652D01*
X0006971Y0174386D01*
X0006237Y0173652D02*
X0006971Y0172918D01*
X0006971Y0172184D01*
X0006237Y0171450D01*
X0004769Y0171450D01*
X0004035Y0172184D01*
X0004035Y0172918D01*
X0004769Y0173652D01*
X0006971Y0181450D02*
X0006971Y0182184D01*
X0004035Y0185120D01*
X0004035Y0185854D01*
X0006971Y0185854D01*
X0010107Y0185854D02*
X0010107Y0181450D01*
X0011575Y0181450D02*
X0008639Y0181450D01*
X0011575Y0184386D02*
X0010107Y0185854D01*
X0010107Y0191450D02*
X0010107Y0195854D01*
X0011575Y0194386D01*
X0011575Y0191450D02*
X0008639Y0191450D01*
X0006971Y0192184D02*
X0006237Y0191450D01*
X0004769Y0191450D01*
X0004035Y0192184D01*
X0004035Y0192918D01*
X0004769Y0193652D01*
X0006971Y0193652D01*
X0006971Y0192184D01*
X0006971Y0193652D02*
X0005503Y0195120D01*
X0004035Y0195854D01*
X0004769Y0201450D02*
X0006237Y0201450D01*
X0006971Y0202184D01*
X0006971Y0203652D02*
X0005503Y0204386D01*
X0004769Y0204386D01*
X0004035Y0203652D01*
X0004035Y0202184D01*
X0004769Y0201450D01*
X0006971Y0203652D02*
X0006971Y0205854D01*
X0004035Y0205854D01*
X0004769Y0211450D02*
X0004769Y0215854D01*
X0006971Y0213652D01*
X0004035Y0213652D01*
X0008639Y0211450D02*
X0011575Y0211450D01*
X0010107Y0211450D02*
X0010107Y0215854D01*
X0011575Y0214386D01*
X0011575Y0221450D02*
X0008639Y0221450D01*
X0010107Y0221450D02*
X0010107Y0225854D01*
X0011575Y0224386D01*
X0006971Y0225120D02*
X0006237Y0225854D01*
X0004769Y0225854D01*
X0004035Y0225120D01*
X0004035Y0224386D01*
X0004769Y0223652D01*
X0004035Y0222918D01*
X0004035Y0222184D01*
X0004769Y0221450D01*
X0006237Y0221450D01*
X0006971Y0222184D01*
X0005503Y0223652D02*
X0004769Y0223652D01*
X0004035Y0231450D02*
X0006971Y0231450D01*
X0004035Y0234386D01*
X0004035Y0235120D01*
X0004769Y0235854D01*
X0006237Y0235854D01*
X0006971Y0235120D01*
X0010107Y0235854D02*
X0010107Y0231450D01*
X0011575Y0231450D02*
X0008639Y0231450D01*
X0011575Y0234386D02*
X0010107Y0235854D01*
X0010107Y0241450D02*
X0010107Y0245854D01*
X0011575Y0244386D01*
X0011575Y0241450D02*
X0008639Y0241450D01*
X0006971Y0241450D02*
X0004035Y0241450D01*
X0005503Y0241450D02*
X0005503Y0245854D01*
X0006971Y0244386D01*
X0006237Y0251450D02*
X0004769Y0251450D01*
X0004035Y0252184D01*
X0004035Y0255120D01*
X0006971Y0252184D01*
X0006237Y0251450D01*
X0006971Y0252184D02*
X0006971Y0255120D01*
X0006237Y0255854D01*
X0004769Y0255854D01*
X0004035Y0255120D01*
X0008639Y0251450D02*
X0011575Y0251450D01*
X0010107Y0251450D02*
X0010107Y0255854D01*
X0011575Y0254386D01*
X0010841Y0261450D02*
X0009373Y0261450D01*
X0008639Y0262184D01*
X0008639Y0265120D01*
X0009373Y0265854D01*
X0010841Y0265854D01*
X0011575Y0265120D01*
X0011575Y0264386D01*
X0010841Y0263652D01*
X0008639Y0263652D01*
X0010841Y0261450D02*
X0011575Y0262184D01*
X0010841Y0271450D02*
X0011575Y0272184D01*
X0011575Y0272918D01*
X0010841Y0273652D01*
X0009373Y0273652D01*
X0008639Y0272918D01*
X0008639Y0272184D01*
X0009373Y0271450D01*
X0010841Y0271450D01*
X0010841Y0273652D02*
X0011575Y0274386D01*
X0011575Y0275120D01*
X0010841Y0275854D01*
X0009373Y0275854D01*
X0008639Y0275120D01*
X0008639Y0274386D01*
X0009373Y0273652D01*
X0011575Y0281450D02*
X0011575Y0282184D01*
X0008639Y0285120D01*
X0008639Y0285854D01*
X0011575Y0285854D01*
X0010841Y0291450D02*
X0009373Y0291450D01*
X0008639Y0292184D01*
X0008639Y0292918D01*
X0009373Y0293652D01*
X0011575Y0293652D01*
X0011575Y0292184D01*
X0010841Y0291450D01*
X0011575Y0293652D02*
X0010107Y0295120D01*
X0008639Y0295854D01*
X0009373Y0301450D02*
X0010841Y0301450D01*
X0011575Y0302184D01*
X0011575Y0303652D02*
X0010107Y0304386D01*
X0009373Y0304386D01*
X0008639Y0303652D01*
X0008639Y0302184D01*
X0009373Y0301450D01*
X0011575Y0303652D02*
X0011575Y0305854D01*
X0008639Y0305854D01*
X0009373Y0311450D02*
X0009373Y0315854D01*
X0011575Y0313652D01*
X0008639Y0313652D01*
X0009373Y0321450D02*
X0010841Y0321450D01*
X0011575Y0322184D01*
X0010107Y0323652D02*
X0009373Y0323652D01*
X0008639Y0322918D01*
X0008639Y0322184D01*
X0009373Y0321450D01*
X0009373Y0323652D02*
X0008639Y0324386D01*
X0008639Y0325120D01*
X0009373Y0325854D01*
X0010841Y0325854D01*
X0011575Y0325120D01*
X0011575Y0331450D02*
X0008639Y0331450D01*
X0011575Y0331450D02*
X0008639Y0334386D01*
X0008639Y0335120D01*
X0009373Y0335854D01*
X0010841Y0335854D01*
X0011575Y0335120D01*
X0011575Y0341450D02*
X0008639Y0341450D01*
X0010107Y0341450D02*
X0010107Y0345854D01*
X0011575Y0344386D01*
X0027389Y0351450D02*
X0030325Y0351450D01*
X0027389Y0354386D01*
X0027389Y0355120D01*
X0028123Y0355854D01*
X0029591Y0355854D01*
X0030325Y0355120D01*
X0037389Y0355120D02*
X0037389Y0354386D01*
X0038123Y0353652D01*
X0037389Y0352918D01*
X0037389Y0352184D01*
X0038123Y0351450D01*
X0039591Y0351450D01*
X0040325Y0352184D01*
X0038857Y0353652D02*
X0038123Y0353652D01*
X0037389Y0355120D02*
X0038123Y0355854D01*
X0039591Y0355854D01*
X0040325Y0355120D01*
X0047389Y0353652D02*
X0050325Y0353652D01*
X0048123Y0355854D01*
X0048123Y0351450D01*
X0057389Y0352184D02*
X0058123Y0351450D01*
X0059591Y0351450D01*
X0060325Y0352184D01*
X0060325Y0353652D02*
X0058857Y0354386D01*
X0058123Y0354386D01*
X0057389Y0353652D01*
X0057389Y0352184D01*
X0060325Y0353652D02*
X0060325Y0355854D01*
X0057389Y0355854D01*
X0067389Y0355854D02*
X0068857Y0355120D01*
X0070325Y0353652D01*
X0068123Y0353652D01*
X0067389Y0352918D01*
X0067389Y0352184D01*
X0068123Y0351450D01*
X0069591Y0351450D01*
X0070325Y0352184D01*
X0070325Y0353652D01*
X0077389Y0355120D02*
X0080325Y0352184D01*
X0080325Y0351450D01*
X0080325Y0355854D02*
X0077389Y0355854D01*
X0077389Y0355120D01*
X0087389Y0355120D02*
X0087389Y0354386D01*
X0088123Y0353652D01*
X0089591Y0353652D01*
X0090325Y0354386D01*
X0090325Y0355120D01*
X0089591Y0355854D01*
X0088123Y0355854D01*
X0087389Y0355120D01*
X0088123Y0353652D02*
X0087389Y0352918D01*
X0087389Y0352184D01*
X0088123Y0351450D01*
X0089591Y0351450D01*
X0090325Y0352184D01*
X0090325Y0352918D01*
X0089591Y0353652D01*
X0097389Y0353652D02*
X0099591Y0353652D01*
X0100325Y0354386D01*
X0100325Y0355120D01*
X0099591Y0355854D01*
X0098123Y0355854D01*
X0097389Y0355120D01*
X0097389Y0352184D01*
X0098123Y0351450D01*
X0099591Y0351450D01*
X0100325Y0352184D01*
X0104972Y0352184D02*
X0105706Y0351450D01*
X0107174Y0351450D01*
X0107908Y0352184D01*
X0104972Y0355120D01*
X0104972Y0352184D01*
X0107908Y0352184D02*
X0107908Y0355120D01*
X0107174Y0355854D01*
X0105706Y0355854D01*
X0104972Y0355120D01*
X0109576Y0351450D02*
X0112512Y0351450D01*
X0111044Y0351450D02*
X0111044Y0355854D01*
X0112512Y0354386D01*
X0114972Y0351450D02*
X0117908Y0351450D01*
X0116440Y0351450D02*
X0116440Y0355854D01*
X0117908Y0354386D01*
X0119576Y0351450D02*
X0122512Y0351450D01*
X0121044Y0351450D02*
X0121044Y0355854D01*
X0122512Y0354386D01*
X0124972Y0354386D02*
X0124972Y0355120D01*
X0125706Y0355854D01*
X0127174Y0355854D01*
X0127908Y0355120D01*
X0124972Y0354386D02*
X0127908Y0351450D01*
X0124972Y0351450D01*
X0129576Y0351450D02*
X0132512Y0351450D01*
X0131044Y0351450D02*
X0131044Y0355854D01*
X0132512Y0354386D01*
X0154972Y0353652D02*
X0154972Y0352184D01*
X0155706Y0351450D01*
X0157174Y0351450D01*
X0157908Y0352184D01*
X0157908Y0353652D02*
X0156440Y0354386D01*
X0155706Y0354386D01*
X0154972Y0353652D01*
X0154972Y0355854D02*
X0157908Y0355854D01*
X0157908Y0353652D01*
X0159576Y0351450D02*
X0162512Y0351450D01*
X0161044Y0351450D02*
X0161044Y0355854D01*
X0162512Y0354386D01*
X0164972Y0352918D02*
X0165706Y0353652D01*
X0167908Y0353652D01*
X0167908Y0352184D01*
X0167174Y0351450D01*
X0165706Y0351450D01*
X0164972Y0352184D01*
X0164972Y0352918D01*
X0166440Y0355120D02*
X0167908Y0353652D01*
X0166440Y0355120D02*
X0164972Y0355854D01*
X0171044Y0355854D02*
X0171044Y0351450D01*
X0172512Y0351450D02*
X0169576Y0351450D01*
X0172512Y0354386D02*
X0171044Y0355854D01*
X0174972Y0355854D02*
X0174972Y0355120D01*
X0177908Y0352184D01*
X0177908Y0351450D01*
X0179576Y0351450D02*
X0182512Y0351450D01*
X0181044Y0351450D02*
X0181044Y0355854D01*
X0182512Y0354386D01*
X0184972Y0354386D02*
X0185706Y0353652D01*
X0187174Y0353652D01*
X0187908Y0354386D01*
X0187908Y0355120D01*
X0187174Y0355854D01*
X0185706Y0355854D01*
X0184972Y0355120D01*
X0184972Y0354386D01*
X0185706Y0353652D02*
X0184972Y0352918D01*
X0184972Y0352184D01*
X0185706Y0351450D01*
X0187174Y0351450D01*
X0187908Y0352184D01*
X0187908Y0352918D01*
X0187174Y0353652D01*
X0189576Y0351450D02*
X0192512Y0351450D01*
X0191044Y0351450D02*
X0191044Y0355854D01*
X0192512Y0354386D01*
X0194972Y0353652D02*
X0197174Y0353652D01*
X0197908Y0354386D01*
X0197908Y0355120D01*
X0197174Y0355854D01*
X0195706Y0355854D01*
X0194972Y0355120D01*
X0194972Y0352184D01*
X0195706Y0351450D01*
X0197174Y0351450D01*
X0197908Y0352184D01*
X0199576Y0351450D02*
X0202512Y0351450D01*
X0201044Y0351450D02*
X0201044Y0355854D01*
X0202512Y0354386D01*
X0204972Y0355120D02*
X0204972Y0352184D01*
X0205706Y0351450D01*
X0207174Y0351450D01*
X0207908Y0352184D01*
X0204972Y0355120D01*
X0205706Y0355854D01*
X0207174Y0355854D01*
X0207908Y0355120D01*
X0207908Y0352184D01*
X0209576Y0351450D02*
X0212512Y0351450D01*
X0209576Y0354386D01*
X0209576Y0355120D01*
X0210310Y0355854D01*
X0211778Y0355854D01*
X0212512Y0355120D01*
X0214972Y0351450D02*
X0217908Y0351450D01*
X0216440Y0351450D02*
X0216440Y0355854D01*
X0217908Y0354386D01*
X0219576Y0354386D02*
X0219576Y0355120D01*
X0220310Y0355854D01*
X0221778Y0355854D01*
X0222512Y0355120D01*
X0224972Y0355120D02*
X0225706Y0355854D01*
X0227174Y0355854D01*
X0227908Y0355120D01*
X0229576Y0355120D02*
X0230310Y0355854D01*
X0231778Y0355854D01*
X0232512Y0355120D01*
X0234972Y0355120D02*
X0234972Y0354386D01*
X0235706Y0353652D01*
X0234972Y0352918D01*
X0234972Y0352184D01*
X0235706Y0351450D01*
X0237174Y0351450D01*
X0237908Y0352184D01*
X0239576Y0351450D02*
X0242512Y0351450D01*
X0239576Y0354386D01*
X0239576Y0355120D01*
X0240310Y0355854D01*
X0241778Y0355854D01*
X0242512Y0355120D01*
X0244972Y0353652D02*
X0247908Y0353652D01*
X0245706Y0355854D01*
X0245706Y0351450D01*
X0249576Y0351450D02*
X0252512Y0351450D01*
X0249576Y0354386D01*
X0249576Y0355120D01*
X0250310Y0355854D01*
X0251778Y0355854D01*
X0252512Y0355120D01*
X0254972Y0355854D02*
X0257908Y0355854D01*
X0257908Y0353652D01*
X0256440Y0354386D01*
X0255706Y0354386D01*
X0254972Y0353652D01*
X0254972Y0352184D01*
X0255706Y0351450D01*
X0257174Y0351450D01*
X0257908Y0352184D01*
X0259576Y0351450D02*
X0262512Y0351450D01*
X0259576Y0354386D01*
X0259576Y0355120D01*
X0260310Y0355854D01*
X0261778Y0355854D01*
X0262512Y0355120D01*
X0281357Y0345854D02*
X0281357Y0341450D01*
X0282825Y0341450D02*
X0279889Y0341450D01*
X0282825Y0344386D02*
X0281357Y0345854D01*
X0280623Y0335854D02*
X0282091Y0335854D01*
X0282825Y0335120D01*
X0280623Y0335854D02*
X0279889Y0335120D01*
X0279889Y0334386D01*
X0282825Y0331450D01*
X0279889Y0331450D01*
X0280623Y0325854D02*
X0279889Y0325120D01*
X0279889Y0324386D01*
X0280623Y0323652D01*
X0279889Y0322918D01*
X0279889Y0322184D01*
X0280623Y0321450D01*
X0282091Y0321450D01*
X0282825Y0322184D01*
X0281357Y0323652D02*
X0280623Y0323652D01*
X0280623Y0325854D02*
X0282091Y0325854D01*
X0282825Y0325120D01*
X0280623Y0315854D02*
X0282825Y0313652D01*
X0279889Y0313652D01*
X0280623Y0311450D02*
X0280623Y0315854D01*
X0279889Y0305854D02*
X0282825Y0305854D01*
X0282825Y0303652D01*
X0281357Y0304386D01*
X0280623Y0304386D01*
X0279889Y0303652D01*
X0279889Y0302184D01*
X0280623Y0301450D01*
X0282091Y0301450D01*
X0282825Y0302184D01*
X0279889Y0295854D02*
X0281357Y0295120D01*
X0282825Y0293652D01*
X0280623Y0293652D01*
X0279889Y0292918D01*
X0279889Y0292184D01*
X0280623Y0291450D01*
X0282091Y0291450D01*
X0282825Y0292184D01*
X0282825Y0293652D01*
X0282825Y0285854D02*
X0279889Y0285854D01*
X0279889Y0285120D01*
X0282825Y0282184D01*
X0282825Y0281450D01*
X0282091Y0275854D02*
X0280623Y0275854D01*
X0279889Y0275120D01*
X0279889Y0274386D01*
X0280623Y0273652D01*
X0282091Y0273652D01*
X0282825Y0274386D01*
X0282825Y0275120D01*
X0282091Y0275854D01*
X0282091Y0273652D02*
X0282825Y0272918D01*
X0282825Y0272184D01*
X0282091Y0271450D01*
X0280623Y0271450D01*
X0279889Y0272184D01*
X0279889Y0272918D01*
X0280623Y0273652D01*
X0280623Y0265854D02*
X0282091Y0265854D01*
X0282825Y0265120D01*
X0282825Y0264386D01*
X0282091Y0263652D01*
X0279889Y0263652D01*
X0279889Y0262184D02*
X0279889Y0265120D01*
X0280623Y0265854D01*
X0279889Y0262184D02*
X0280623Y0261450D01*
X0282091Y0261450D01*
X0282825Y0262184D01*
X0281357Y0255854D02*
X0281357Y0251450D01*
X0282825Y0251450D02*
X0279889Y0251450D01*
X0278221Y0252184D02*
X0278221Y0255120D01*
X0277487Y0255854D01*
X0276019Y0255854D01*
X0275285Y0255120D01*
X0278221Y0252184D01*
X0277487Y0251450D01*
X0276019Y0251450D01*
X0275285Y0252184D01*
X0275285Y0255120D01*
X0281357Y0255854D02*
X0282825Y0254386D01*
X0281357Y0245854D02*
X0281357Y0241450D01*
X0282825Y0241450D02*
X0279889Y0241450D01*
X0278221Y0241450D02*
X0275285Y0241450D01*
X0276753Y0241450D02*
X0276753Y0245854D01*
X0278221Y0244386D01*
X0281357Y0245854D02*
X0282825Y0244386D01*
X0281357Y0235854D02*
X0281357Y0231450D01*
X0282825Y0231450D02*
X0279889Y0231450D01*
X0278221Y0231450D02*
X0275285Y0234386D01*
X0275285Y0235120D01*
X0276019Y0235854D01*
X0277487Y0235854D01*
X0278221Y0235120D01*
X0281357Y0235854D02*
X0282825Y0234386D01*
X0278221Y0231450D02*
X0275285Y0231450D01*
X0276019Y0225854D02*
X0275285Y0225120D01*
X0275285Y0224386D01*
X0276019Y0223652D01*
X0275285Y0222918D01*
X0275285Y0222184D01*
X0276019Y0221450D01*
X0277487Y0221450D01*
X0278221Y0222184D01*
X0279889Y0221450D02*
X0282825Y0221450D01*
X0281357Y0221450D02*
X0281357Y0225854D01*
X0282825Y0224386D01*
X0278221Y0225120D02*
X0277487Y0225854D01*
X0276019Y0225854D01*
X0276019Y0223652D02*
X0276753Y0223652D01*
X0276019Y0215854D02*
X0278221Y0213652D01*
X0275285Y0213652D01*
X0276019Y0211450D02*
X0276019Y0215854D01*
X0281357Y0215854D02*
X0281357Y0211450D01*
X0282825Y0211450D02*
X0279889Y0211450D01*
X0282825Y0214386D02*
X0281357Y0215854D01*
X0281357Y0205854D02*
X0281357Y0201450D01*
X0282825Y0201450D02*
X0279889Y0201450D01*
X0278221Y0202184D02*
X0277487Y0201450D01*
X0276019Y0201450D01*
X0275285Y0202184D01*
X0275285Y0203652D01*
X0276019Y0204386D01*
X0276753Y0204386D01*
X0278221Y0203652D01*
X0278221Y0205854D01*
X0275285Y0205854D01*
X0281357Y0205854D02*
X0282825Y0204386D01*
X0281357Y0195854D02*
X0281357Y0191450D01*
X0282825Y0191450D02*
X0279889Y0191450D01*
X0278221Y0192184D02*
X0277487Y0191450D01*
X0276019Y0191450D01*
X0275285Y0192184D01*
X0275285Y0192918D01*
X0276019Y0193652D01*
X0278221Y0193652D01*
X0278221Y0192184D01*
X0278221Y0193652D02*
X0276753Y0195120D01*
X0275285Y0195854D01*
X0281357Y0195854D02*
X0282825Y0194386D01*
X0281357Y0185854D02*
X0281357Y0181450D01*
X0282825Y0181450D02*
X0279889Y0181450D01*
X0278221Y0181450D02*
X0278221Y0182184D01*
X0275285Y0185120D01*
X0275285Y0185854D01*
X0278221Y0185854D01*
X0281357Y0185854D02*
X0282825Y0184386D01*
X0281357Y0175854D02*
X0281357Y0171450D01*
X0282825Y0171450D02*
X0279889Y0171450D01*
X0278221Y0172184D02*
X0278221Y0172918D01*
X0277487Y0173652D01*
X0276019Y0173652D01*
X0275285Y0172918D01*
X0275285Y0172184D01*
X0276019Y0171450D01*
X0277487Y0171450D01*
X0278221Y0172184D01*
X0277487Y0173652D02*
X0278221Y0174386D01*
X0278221Y0175120D01*
X0277487Y0175854D01*
X0276019Y0175854D01*
X0275285Y0175120D01*
X0275285Y0174386D01*
X0276019Y0173652D01*
X0281357Y0175854D02*
X0282825Y0174386D01*
X0281357Y0165854D02*
X0281357Y0161450D01*
X0282825Y0161450D02*
X0279889Y0161450D01*
X0278221Y0162184D02*
X0277487Y0161450D01*
X0276019Y0161450D01*
X0275285Y0162184D01*
X0275285Y0165120D01*
X0276019Y0165854D01*
X0277487Y0165854D01*
X0278221Y0165120D01*
X0278221Y0164386D01*
X0277487Y0163652D01*
X0275285Y0163652D01*
X0281357Y0165854D02*
X0282825Y0164386D01*
X0282091Y0155854D02*
X0280623Y0155854D01*
X0279889Y0155120D01*
X0279889Y0154386D01*
X0282825Y0151450D01*
X0279889Y0151450D01*
X0278221Y0152184D02*
X0278221Y0155120D01*
X0277487Y0155854D01*
X0276019Y0155854D01*
X0275285Y0155120D01*
X0278221Y0152184D01*
X0277487Y0151450D01*
X0276019Y0151450D01*
X0275285Y0152184D01*
X0275285Y0155120D01*
X0282091Y0155854D02*
X0282825Y0155120D01*
X0282091Y0145854D02*
X0280623Y0145854D01*
X0279889Y0145120D01*
X0279889Y0144386D01*
X0282825Y0141450D01*
X0279889Y0141450D01*
X0278221Y0141450D02*
X0275285Y0141450D01*
X0276753Y0141450D02*
X0276753Y0145854D01*
X0278221Y0144386D01*
X0282091Y0145854D02*
X0282825Y0145120D01*
X0282091Y0135854D02*
X0280623Y0135854D01*
X0279889Y0135120D01*
X0279889Y0134386D01*
X0282825Y0131450D01*
X0279889Y0131450D01*
X0278221Y0131450D02*
X0275285Y0134386D01*
X0275285Y0135120D01*
X0276019Y0135854D01*
X0277487Y0135854D01*
X0278221Y0135120D01*
X0278221Y0131450D02*
X0275285Y0131450D01*
X0276019Y0125854D02*
X0275285Y0125120D01*
X0275285Y0124386D01*
X0276019Y0123652D01*
X0275285Y0122918D01*
X0275285Y0122184D01*
X0276019Y0121450D01*
X0277487Y0121450D01*
X0278221Y0122184D01*
X0279889Y0121450D02*
X0282825Y0121450D01*
X0279889Y0124386D01*
X0279889Y0125120D01*
X0280623Y0125854D01*
X0282091Y0125854D01*
X0282825Y0125120D01*
X0278221Y0125120D02*
X0277487Y0125854D01*
X0276019Y0125854D01*
X0276019Y0123652D02*
X0276753Y0123652D01*
X0276019Y0115854D02*
X0278221Y0113652D01*
X0275285Y0113652D01*
X0276019Y0111450D02*
X0276019Y0115854D01*
X0279889Y0115120D02*
X0280623Y0115854D01*
X0282091Y0115854D01*
X0282825Y0115120D01*
X0279889Y0115120D02*
X0279889Y0114386D01*
X0282825Y0111450D01*
X0279889Y0111450D01*
X0280623Y0105854D02*
X0282091Y0105854D01*
X0282825Y0105120D01*
X0280623Y0105854D02*
X0279889Y0105120D01*
X0279889Y0104386D01*
X0282825Y0101450D01*
X0279889Y0101450D01*
X0278221Y0102184D02*
X0277487Y0101450D01*
X0276019Y0101450D01*
X0275285Y0102184D01*
X0275285Y0103652D01*
X0276019Y0104386D01*
X0276753Y0104386D01*
X0278221Y0103652D01*
X0278221Y0105854D01*
X0275285Y0105854D01*
X0275285Y0095854D02*
X0276753Y0095120D01*
X0278221Y0093652D01*
X0276019Y0093652D01*
X0275285Y0092918D01*
X0275285Y0092184D01*
X0276019Y0091450D01*
X0277487Y0091450D01*
X0278221Y0092184D01*
X0278221Y0093652D01*
X0279889Y0094386D02*
X0279889Y0095120D01*
X0280623Y0095854D01*
X0282091Y0095854D01*
X0282825Y0095120D01*
X0279889Y0094386D02*
X0282825Y0091450D01*
X0279889Y0091450D01*
X0280623Y0085854D02*
X0282091Y0085854D01*
X0282825Y0085120D01*
X0280623Y0085854D02*
X0279889Y0085120D01*
X0279889Y0084386D01*
X0282825Y0081450D01*
X0279889Y0081450D01*
X0278221Y0081450D02*
X0278221Y0082184D01*
X0275285Y0085120D01*
X0275285Y0085854D01*
X0278221Y0085854D01*
X0277487Y0075854D02*
X0276019Y0075854D01*
X0275285Y0075120D01*
X0275285Y0074386D01*
X0276019Y0073652D01*
X0277487Y0073652D01*
X0278221Y0074386D01*
X0278221Y0075120D01*
X0277487Y0075854D01*
X0277487Y0073652D02*
X0278221Y0072918D01*
X0278221Y0072184D01*
X0277487Y0071450D01*
X0276019Y0071450D01*
X0275285Y0072184D01*
X0275285Y0072918D01*
X0276019Y0073652D01*
X0279889Y0074386D02*
X0279889Y0075120D01*
X0280623Y0075854D01*
X0282091Y0075854D01*
X0282825Y0075120D01*
X0279889Y0074386D02*
X0282825Y0071450D01*
X0279889Y0071450D01*
X0280623Y0065854D02*
X0282091Y0065854D01*
X0282825Y0065120D01*
X0280623Y0065854D02*
X0279889Y0065120D01*
X0279889Y0064386D01*
X0282825Y0061450D01*
X0279889Y0061450D01*
X0278221Y0062184D02*
X0277487Y0061450D01*
X0276019Y0061450D01*
X0275285Y0062184D01*
X0275285Y0065120D01*
X0276019Y0065854D01*
X0277487Y0065854D01*
X0278221Y0065120D01*
X0278221Y0064386D01*
X0277487Y0063652D01*
X0275285Y0063652D01*
X0276019Y0055854D02*
X0275285Y0055120D01*
X0278221Y0052184D01*
X0277487Y0051450D01*
X0276019Y0051450D01*
X0275285Y0052184D01*
X0275285Y0055120D01*
X0276019Y0055854D02*
X0277487Y0055854D01*
X0278221Y0055120D01*
X0278221Y0052184D01*
X0279889Y0052184D02*
X0280623Y0051450D01*
X0282091Y0051450D01*
X0282825Y0052184D01*
X0281357Y0053652D02*
X0280623Y0053652D01*
X0279889Y0052918D01*
X0279889Y0052184D01*
X0280623Y0053652D02*
X0279889Y0054386D01*
X0279889Y0055120D01*
X0280623Y0055854D01*
X0282091Y0055854D01*
X0282825Y0055120D01*
X0282825Y0135120D02*
X0282091Y0135854D01*
X0232512Y0351450D02*
X0229576Y0351450D01*
X0227908Y0351450D02*
X0224972Y0354386D01*
X0224972Y0355120D01*
X0224972Y0351450D02*
X0227908Y0351450D01*
X0229576Y0354386D02*
X0229576Y0355120D01*
X0229576Y0354386D02*
X0232512Y0351450D01*
X0234972Y0355120D02*
X0235706Y0355854D01*
X0237174Y0355854D01*
X0237908Y0355120D01*
X0236440Y0353652D02*
X0235706Y0353652D01*
X0222512Y0351450D02*
X0219576Y0354386D01*
X0219576Y0351450D02*
X0222512Y0351450D01*
X0177908Y0355854D02*
X0174972Y0355854D01*
X0011575Y0204386D02*
X0010107Y0205854D01*
X0010107Y0201450D01*
X0011575Y0201450D02*
X0008639Y0201450D01*
D11*
X0027496Y0036750D02*
X0031900Y0036750D01*
X0031900Y0045558D01*
X0027496Y0045558D01*
X0026028Y0044090D01*
X0026028Y0042622D01*
X0027496Y0041154D01*
X0031900Y0041154D01*
X0036028Y0038218D02*
X0037496Y0036750D01*
X0040432Y0036750D01*
X0041900Y0038218D01*
X0041900Y0044090D01*
X0040432Y0045558D01*
X0037496Y0045558D01*
X0036028Y0044090D01*
X0027496Y0041154D02*
X0026028Y0039686D01*
X0026028Y0038218D01*
X0027496Y0036750D01*
X0046028Y0038218D02*
X0046028Y0044090D01*
X0047496Y0045558D01*
X0051900Y0045558D01*
X0051900Y0036750D01*
X0047496Y0036750D01*
X0046028Y0038218D01*
X0056028Y0036750D02*
X0061900Y0036750D01*
X0061900Y0045558D01*
X0056028Y0045558D01*
X0058964Y0041154D02*
X0061900Y0041154D01*
X0066028Y0045558D02*
X0071900Y0045558D01*
X0071900Y0036750D01*
X0076028Y0038218D02*
X0076028Y0041154D01*
X0078964Y0041154D01*
X0081900Y0038218D02*
X0080432Y0036750D01*
X0077496Y0036750D01*
X0076028Y0038218D01*
X0071900Y0041154D02*
X0068964Y0041154D01*
X0076028Y0044090D02*
X0077496Y0045558D01*
X0080432Y0045558D01*
X0081900Y0044090D01*
X0081900Y0038218D01*
X0086028Y0036750D02*
X0086028Y0045558D01*
X0086028Y0041154D02*
X0091900Y0041154D01*
X0091900Y0036750D02*
X0091900Y0045558D01*
X0097714Y0045558D02*
X0100650Y0045558D01*
X0099182Y0045558D02*
X0099182Y0036750D01*
X0100650Y0036750D02*
X0097714Y0036750D01*
X0106028Y0045558D02*
X0108964Y0045558D01*
X0107496Y0045558D02*
X0107496Y0038218D01*
X0108964Y0036750D01*
X0110432Y0036750D01*
X0111900Y0038218D01*
X0116028Y0036750D02*
X0120432Y0041154D01*
X0121900Y0039686D02*
X0116028Y0045558D01*
X0121900Y0045558D02*
X0121900Y0036750D01*
X0126028Y0036750D02*
X0131900Y0036750D01*
X0131900Y0045558D01*
X0136028Y0045558D02*
X0136028Y0036750D01*
X0138964Y0042622D02*
X0136028Y0045558D01*
X0138964Y0042622D02*
X0141900Y0045558D01*
X0141900Y0036750D01*
X0146028Y0036750D02*
X0146028Y0045558D01*
X0151900Y0045558D02*
X0146028Y0036750D01*
X0151900Y0036750D02*
X0151900Y0045558D01*
X0156028Y0044090D02*
X0156028Y0038218D01*
X0157496Y0036750D01*
X0160432Y0036750D01*
X0161900Y0038218D01*
X0161900Y0044090D01*
X0160432Y0045558D01*
X0157496Y0045558D01*
X0156028Y0044090D01*
X0166028Y0044090D02*
X0166028Y0041154D01*
X0167496Y0039686D01*
X0171900Y0039686D01*
X0171900Y0036750D02*
X0171900Y0045558D01*
X0167496Y0045558D01*
X0166028Y0044090D01*
X0176028Y0044090D02*
X0176028Y0038218D01*
X0177496Y0036750D01*
X0180432Y0036750D01*
X0181900Y0038218D01*
X0181900Y0044090D01*
X0180432Y0045558D01*
X0177496Y0045558D01*
X0176028Y0044090D01*
X0178964Y0039686D02*
X0176028Y0036750D01*
X0186028Y0036750D02*
X0188964Y0039686D01*
X0187496Y0039686D02*
X0191900Y0039686D01*
X0191900Y0036750D02*
X0191900Y0045558D01*
X0187496Y0045558D01*
X0186028Y0044090D01*
X0186028Y0041154D01*
X0187496Y0039686D01*
X0196028Y0039686D02*
X0196028Y0038218D01*
X0197496Y0036750D01*
X0200432Y0036750D01*
X0201900Y0038218D01*
X0200432Y0041154D02*
X0197496Y0041154D01*
X0196028Y0039686D01*
X0200432Y0041154D02*
X0201900Y0042622D01*
X0201900Y0044090D01*
X0200432Y0045558D01*
X0197496Y0045558D01*
X0196028Y0044090D01*
X0206028Y0045558D02*
X0211900Y0045558D01*
X0208964Y0045558D02*
X0208964Y0036750D01*
X0216028Y0038218D02*
X0216028Y0045558D01*
X0221900Y0045558D02*
X0221900Y0038218D01*
X0220432Y0036750D01*
X0217496Y0036750D01*
X0216028Y0038218D01*
X0226028Y0039686D02*
X0226028Y0045558D01*
X0231900Y0045558D02*
X0231900Y0039686D01*
X0228964Y0036750D01*
X0226028Y0039686D01*
X0236028Y0036750D02*
X0236028Y0045558D01*
X0241900Y0045558D02*
X0241900Y0036750D01*
X0238964Y0039686D01*
X0236028Y0036750D01*
X0246028Y0036750D02*
X0251900Y0045558D01*
X0256028Y0045558D02*
X0256028Y0044090D01*
X0258964Y0041154D01*
X0258964Y0036750D01*
X0258964Y0041154D02*
X0261900Y0044090D01*
X0261900Y0045558D01*
X0251900Y0036750D02*
X0246028Y0045558D01*
X0150312Y0354900D02*
X0144687Y0354900D01*
X0142812Y0354900D02*
X0137187Y0354900D01*
X0137187Y0356775D02*
X0137187Y0358650D01*
X0140937Y0358650D01*
X0140937Y0356775D01*
X0137187Y0356775D01*
X0137187Y0360525D02*
X0137187Y0362400D01*
X0137187Y0360525D02*
X0140937Y0360525D01*
X0140937Y0362400D01*
X0139062Y0362400D02*
X0139062Y0361150D01*
X0140937Y0364275D02*
X0137187Y0364275D01*
X0142812Y0364275D02*
X0142812Y0354900D01*
X0144687Y0356775D02*
X0146562Y0356775D01*
X0146562Y0358650D01*
X0144687Y0358650D01*
X0146562Y0358650D02*
X0148437Y0358650D01*
X0148437Y0356775D01*
X0146562Y0356775D01*
X0150312Y0354900D02*
X0150312Y0364275D01*
X0148437Y0364275D02*
X0144687Y0364275D01*
X0144687Y0362400D02*
X0148437Y0362400D01*
X0148437Y0364275D01*
X0148437Y0362400D02*
X0148437Y0360525D01*
X0144687Y0360525D01*
D12*
X0146250Y0348650D02*
X0143750Y0346150D01*
X0141250Y0348650D01*
X0136250Y0348650D01*
X0133750Y0346150D01*
X0131250Y0348650D01*
X0126250Y0348650D01*
X0123750Y0346150D01*
X0121250Y0348650D01*
X0116250Y0348650D01*
X0113750Y0346150D01*
X0111250Y0348650D01*
X0106250Y0348650D01*
X0103750Y0346150D01*
X0101250Y0348650D01*
X0096250Y0348650D01*
X0093750Y0346150D01*
X0091250Y0348650D01*
X0086250Y0348650D01*
X0083750Y0346150D01*
X0081250Y0348650D01*
X0076250Y0348650D01*
X0073750Y0346150D01*
X0071250Y0348650D01*
X0066250Y0348650D01*
X0063750Y0346150D01*
X0061250Y0348650D01*
X0056250Y0348650D01*
X0053750Y0346150D01*
X0051250Y0348650D01*
X0046250Y0348650D01*
X0043750Y0346150D01*
X0041250Y0348650D01*
X0036250Y0348650D01*
X0033750Y0346150D01*
X0031250Y0348650D01*
X0026250Y0348650D01*
X0023750Y0346150D01*
X0021250Y0348650D01*
X0016250Y0348650D01*
X0013750Y0346150D01*
X0013750Y0341150D01*
X0016250Y0338650D01*
X0013750Y0336150D01*
X0013750Y0331150D01*
X0016250Y0328650D01*
X0013750Y0326150D01*
X0013750Y0321150D01*
X0016250Y0318650D01*
X0013750Y0316150D01*
X0013750Y0311150D01*
X0016250Y0308650D01*
X0013750Y0306150D01*
X0013750Y0301150D01*
X0016250Y0298650D01*
X0013750Y0296150D01*
X0013750Y0291150D01*
X0016250Y0288650D01*
X0013750Y0286150D01*
X0013750Y0281150D01*
X0016250Y0278650D01*
X0013750Y0276150D01*
X0013750Y0271150D01*
X0016250Y0268650D01*
X0013750Y0266150D01*
X0013750Y0261150D01*
X0016250Y0258650D01*
X0013750Y0256150D01*
X0013750Y0251150D01*
X0016250Y0248650D01*
X0013750Y0246150D01*
X0013750Y0241150D01*
X0016250Y0238650D01*
X0013750Y0236150D01*
X0013750Y0231150D01*
X0016250Y0228650D01*
X0013750Y0226150D01*
X0013750Y0221150D01*
X0016250Y0218650D01*
X0013750Y0216150D01*
X0013750Y0211150D01*
X0016250Y0208650D01*
X0013750Y0206150D01*
X0013750Y0201150D01*
X0016250Y0198650D01*
X0013750Y0196150D01*
X0013750Y0191150D01*
X0016250Y0188650D01*
X0013750Y0186150D01*
X0013750Y0181150D01*
X0016250Y0178650D01*
X0013750Y0176150D01*
X0013750Y0171150D01*
X0016250Y0168650D01*
X0013750Y0166150D01*
X0013750Y0161150D01*
X0016250Y0158650D01*
X0013750Y0156150D01*
X0013750Y0151150D01*
X0016250Y0148650D01*
X0013750Y0146150D01*
X0013750Y0141150D01*
X0016250Y0138650D01*
X0013750Y0136150D01*
X0013750Y0131150D01*
X0016250Y0128650D01*
X0013750Y0126150D01*
X0013750Y0121150D01*
X0016250Y0118650D01*
X0013750Y0116150D01*
X0013750Y0111150D01*
X0016250Y0108650D01*
X0013750Y0106150D01*
X0013750Y0101150D01*
X0016250Y0098650D01*
X0013750Y0096150D01*
X0013750Y0091150D01*
X0016250Y0088650D01*
X0013750Y0086150D01*
X0013750Y0081150D01*
X0016250Y0078650D01*
X0013750Y0076150D01*
X0013750Y0071150D01*
X0016250Y0068650D01*
X0013750Y0066150D01*
X0013750Y0061150D01*
X0016250Y0058650D01*
X0013750Y0056150D01*
X0013750Y0051150D01*
X0016250Y0048650D01*
X0021250Y0048650D01*
X0023750Y0051150D01*
X0026250Y0048650D01*
X0031250Y0048650D01*
X0033750Y0051150D01*
X0036250Y0048650D01*
X0041250Y0048650D01*
X0043750Y0051150D01*
X0046250Y0048650D01*
X0051250Y0048650D01*
X0053750Y0051150D01*
X0056250Y0048650D01*
X0061250Y0048650D01*
X0063750Y0051150D01*
X0066250Y0048650D01*
X0071250Y0048650D01*
X0073750Y0051150D01*
X0076250Y0048650D01*
X0081250Y0048650D01*
X0083750Y0051150D01*
X0086250Y0048650D01*
X0091250Y0048650D01*
X0093750Y0051150D01*
X0096250Y0048650D01*
X0101250Y0048650D01*
X0103750Y0051150D01*
X0106250Y0048650D01*
X0111250Y0048650D01*
X0113750Y0051150D01*
X0116250Y0048650D01*
X0121250Y0048650D01*
X0123750Y0051150D01*
X0126250Y0048650D01*
X0131250Y0048650D01*
X0133750Y0051150D01*
X0136250Y0048650D01*
X0141250Y0048650D01*
X0143750Y0051150D01*
X0146250Y0048650D01*
X0151250Y0048650D01*
X0153750Y0051150D01*
X0156250Y0048650D01*
X0161250Y0048650D01*
X0163750Y0051150D01*
X0166250Y0048650D01*
X0171250Y0048650D01*
X0173750Y0051150D01*
X0176250Y0048650D01*
X0181250Y0048650D01*
X0183750Y0051150D01*
X0186250Y0048650D01*
X0191250Y0048650D01*
X0193750Y0051150D01*
X0196250Y0048650D01*
X0201250Y0048650D01*
X0203750Y0051150D01*
X0206250Y0048650D01*
X0211250Y0048650D01*
X0213750Y0051150D01*
X0216250Y0048650D01*
X0221250Y0048650D01*
X0223750Y0051150D01*
X0226250Y0048650D01*
X0231250Y0048650D01*
X0233750Y0051150D01*
X0236250Y0048650D01*
X0241250Y0048650D01*
X0243750Y0051150D01*
X0246250Y0048650D01*
X0251250Y0048650D01*
X0253750Y0051150D01*
X0256250Y0048650D01*
X0261250Y0048650D01*
X0263750Y0051150D01*
X0266250Y0048650D01*
X0271250Y0048650D01*
X0273750Y0051150D01*
X0273750Y0056150D01*
X0271250Y0058650D01*
X0266250Y0058650D01*
X0263750Y0056150D01*
X0261250Y0058650D01*
X0256250Y0058650D01*
X0253750Y0056150D01*
X0251250Y0058650D01*
X0246250Y0058650D01*
X0243750Y0056150D01*
X0241250Y0058650D01*
X0236250Y0058650D01*
X0233750Y0056150D01*
X0231250Y0058650D01*
X0226250Y0058650D01*
X0223750Y0056150D01*
X0221250Y0058650D01*
X0216250Y0058650D01*
X0213750Y0056150D01*
X0211250Y0058650D01*
X0206250Y0058650D01*
X0203750Y0056150D01*
X0201250Y0058650D01*
X0196250Y0058650D01*
X0193750Y0056150D01*
X0191250Y0058650D01*
X0186250Y0058650D01*
X0183750Y0056150D01*
X0181250Y0058650D01*
X0176250Y0058650D01*
X0173750Y0056150D01*
X0171250Y0058650D01*
X0166250Y0058650D01*
X0163750Y0056150D01*
X0161250Y0058650D01*
X0156250Y0058650D01*
X0153750Y0056150D01*
X0151250Y0058650D01*
X0146250Y0058650D01*
X0143750Y0056150D01*
X0141250Y0058650D01*
X0136250Y0058650D01*
X0133750Y0056150D01*
X0131250Y0058650D01*
X0126250Y0058650D01*
X0123750Y0056150D01*
X0121250Y0058650D01*
X0116250Y0058650D01*
X0113750Y0056150D01*
X0111250Y0058650D01*
X0106250Y0058650D01*
X0103750Y0056150D01*
X0101250Y0058650D01*
X0096250Y0058650D01*
X0093750Y0056150D01*
X0091250Y0058650D01*
X0086250Y0058650D01*
X0083750Y0056150D01*
X0081250Y0058650D01*
X0076250Y0058650D01*
X0073750Y0056150D01*
X0071250Y0058650D01*
X0066250Y0058650D01*
X0063750Y0056150D01*
X0061250Y0058650D01*
X0056250Y0058650D01*
X0053750Y0056150D01*
X0051250Y0058650D01*
X0046250Y0058650D01*
X0043750Y0056150D01*
X0041250Y0058650D01*
X0036250Y0058650D01*
X0033750Y0056150D01*
X0031250Y0058650D01*
X0026250Y0058650D01*
X0023750Y0056150D01*
X0021250Y0058650D01*
X0016250Y0058650D01*
X0021250Y0058650D01*
X0023750Y0061150D01*
X0026250Y0058650D01*
X0031250Y0058650D01*
X0033750Y0061150D01*
X0036250Y0058650D01*
X0041250Y0058650D01*
X0043750Y0061150D01*
X0046250Y0058650D01*
X0051250Y0058650D01*
X0053750Y0061150D01*
X0056250Y0058650D01*
X0061250Y0058650D01*
X0063750Y0061150D01*
X0066250Y0058650D01*
X0071250Y0058650D01*
X0073750Y0061150D01*
X0076250Y0058650D01*
X0081250Y0058650D01*
X0083750Y0061150D01*
X0086250Y0058650D01*
X0091250Y0058650D01*
X0093750Y0061150D01*
X0096250Y0058650D01*
X0101250Y0058650D01*
X0103750Y0061150D01*
X0106250Y0058650D01*
X0111250Y0058650D01*
X0113750Y0061150D01*
X0116250Y0058650D01*
X0121250Y0058650D01*
X0123750Y0061150D01*
X0126250Y0058650D01*
X0131250Y0058650D01*
X0133750Y0061150D01*
X0136250Y0058650D01*
X0141250Y0058650D01*
X0143750Y0061150D01*
X0146250Y0058650D01*
X0151250Y0058650D01*
X0153750Y0061150D01*
X0156250Y0058650D01*
X0161250Y0058650D01*
X0163750Y0061150D01*
X0166250Y0058650D01*
X0171250Y0058650D01*
X0173750Y0061150D01*
X0176250Y0058650D01*
X0181250Y0058650D01*
X0183750Y0061150D01*
X0186250Y0058650D01*
X0191250Y0058650D01*
X0193750Y0061150D01*
X0196250Y0058650D01*
X0201250Y0058650D01*
X0203750Y0061150D01*
X0206250Y0058650D01*
X0211250Y0058650D01*
X0213750Y0061150D01*
X0216250Y0058650D01*
X0221250Y0058650D01*
X0223750Y0061150D01*
X0226250Y0058650D01*
X0231250Y0058650D01*
X0233750Y0061150D01*
X0236250Y0058650D01*
X0241250Y0058650D01*
X0243750Y0061150D01*
X0246250Y0058650D01*
X0251250Y0058650D01*
X0253750Y0061150D01*
X0256250Y0058650D01*
X0261250Y0058650D01*
X0263750Y0061150D01*
X0266250Y0058650D01*
X0271250Y0058650D01*
X0273750Y0061150D01*
X0273750Y0066150D01*
X0271250Y0068650D01*
X0266250Y0068650D01*
X0263750Y0066150D01*
X0261250Y0068650D01*
X0256250Y0068650D01*
X0253750Y0066150D01*
X0251250Y0068650D01*
X0246250Y0068650D01*
X0243750Y0066150D01*
X0241250Y0068650D01*
X0236250Y0068650D01*
X0233750Y0066150D01*
X0231250Y0068650D01*
X0226250Y0068650D01*
X0223750Y0066150D01*
X0221250Y0068650D01*
X0216250Y0068650D01*
X0213750Y0066150D01*
X0211250Y0068650D01*
X0206250Y0068650D01*
X0203750Y0066150D01*
X0201250Y0068650D01*
X0196250Y0068650D01*
X0193750Y0066150D01*
X0191250Y0068650D01*
X0186250Y0068650D01*
X0183750Y0066150D01*
X0181250Y0068650D01*
X0176250Y0068650D01*
X0173750Y0066150D01*
X0171250Y0068650D01*
X0166250Y0068650D01*
X0163750Y0066150D01*
X0161250Y0068650D01*
X0156250Y0068650D01*
X0153750Y0066150D01*
X0151250Y0068650D01*
X0146250Y0068650D01*
X0143750Y0066150D01*
X0141250Y0068650D01*
X0136250Y0068650D01*
X0133750Y0066150D01*
X0131250Y0068650D01*
X0126250Y0068650D01*
X0123750Y0066150D01*
X0121250Y0068650D01*
X0116250Y0068650D01*
X0113750Y0066150D01*
X0111250Y0068650D01*
X0106250Y0068650D01*
X0103750Y0066150D01*
X0101250Y0068650D01*
X0096250Y0068650D01*
X0093750Y0066150D01*
X0091250Y0068650D01*
X0086250Y0068650D01*
X0083750Y0066150D01*
X0081250Y0068650D01*
X0076250Y0068650D01*
X0073750Y0066150D01*
X0071250Y0068650D01*
X0066250Y0068650D01*
X0063750Y0066150D01*
X0061250Y0068650D01*
X0056250Y0068650D01*
X0053750Y0066150D01*
X0051250Y0068650D01*
X0046250Y0068650D01*
X0043750Y0066150D01*
X0041250Y0068650D01*
X0036250Y0068650D01*
X0033750Y0066150D01*
X0031250Y0068650D01*
X0026250Y0068650D01*
X0023750Y0066150D01*
X0021250Y0068650D01*
X0016250Y0068650D01*
X0021250Y0068650D01*
X0023750Y0071150D01*
X0026250Y0068650D01*
X0031250Y0068650D01*
X0033750Y0071150D01*
X0036250Y0068650D01*
X0041250Y0068650D01*
X0043750Y0071150D01*
X0046250Y0068650D01*
X0051250Y0068650D01*
X0053750Y0071150D01*
X0056250Y0068650D01*
X0061250Y0068650D01*
X0063750Y0071150D01*
X0066250Y0068650D01*
X0071250Y0068650D01*
X0073750Y0071150D01*
X0076250Y0068650D01*
X0081250Y0068650D01*
X0083750Y0071150D01*
X0086250Y0068650D01*
X0091250Y0068650D01*
X0093750Y0071150D01*
X0096250Y0068650D01*
X0101250Y0068650D01*
X0103750Y0071150D01*
X0106250Y0068650D01*
X0111250Y0068650D01*
X0113750Y0071150D01*
X0116250Y0068650D01*
X0121250Y0068650D01*
X0123750Y0071150D01*
X0126250Y0068650D01*
X0131250Y0068650D01*
X0133750Y0071150D01*
X0136250Y0068650D01*
X0141250Y0068650D01*
X0143750Y0071150D01*
X0146250Y0068650D01*
X0151250Y0068650D01*
X0153750Y0071150D01*
X0156250Y0068650D01*
X0161250Y0068650D01*
X0163750Y0071150D01*
X0166250Y0068650D01*
X0171250Y0068650D01*
X0173750Y0071150D01*
X0176250Y0068650D01*
X0181250Y0068650D01*
X0183750Y0071150D01*
X0186250Y0068650D01*
X0191250Y0068650D01*
X0193750Y0071150D01*
X0196250Y0068650D01*
X0201250Y0068650D01*
X0203750Y0071150D01*
X0206250Y0068650D01*
X0211250Y0068650D01*
X0213750Y0071150D01*
X0216250Y0068650D01*
X0221250Y0068650D01*
X0223750Y0071150D01*
X0226250Y0068650D01*
X0231250Y0068650D01*
X0233750Y0071150D01*
X0236250Y0068650D01*
X0241250Y0068650D01*
X0243750Y0071150D01*
X0246250Y0068650D01*
X0251250Y0068650D01*
X0253750Y0071150D01*
X0256250Y0068650D01*
X0261250Y0068650D01*
X0263750Y0071150D01*
X0266250Y0068650D01*
X0271250Y0068650D01*
X0273750Y0071150D01*
X0273750Y0076150D01*
X0271250Y0078650D01*
X0266250Y0078650D01*
X0263750Y0076150D01*
X0261250Y0078650D01*
X0256250Y0078650D01*
X0253750Y0076150D01*
X0251250Y0078650D01*
X0246250Y0078650D01*
X0243750Y0076150D01*
X0241250Y0078650D01*
X0236250Y0078650D01*
X0233750Y0076150D01*
X0231250Y0078650D01*
X0226250Y0078650D01*
X0223750Y0076150D01*
X0221250Y0078650D01*
X0216250Y0078650D01*
X0213750Y0076150D01*
X0211250Y0078650D01*
X0206250Y0078650D01*
X0203750Y0076150D01*
X0201250Y0078650D01*
X0196250Y0078650D01*
X0193750Y0076150D01*
X0191250Y0078650D01*
X0186250Y0078650D01*
X0183750Y0076150D01*
X0181250Y0078650D01*
X0176250Y0078650D01*
X0173750Y0076150D01*
X0171250Y0078650D01*
X0166250Y0078650D01*
X0163750Y0076150D01*
X0161250Y0078650D01*
X0156250Y0078650D01*
X0153750Y0076150D01*
X0151250Y0078650D01*
X0146250Y0078650D01*
X0143750Y0076150D01*
X0141250Y0078650D01*
X0136250Y0078650D01*
X0133750Y0076150D01*
X0131250Y0078650D01*
X0126250Y0078650D01*
X0123750Y0076150D01*
X0121250Y0078650D01*
X0116250Y0078650D01*
X0113750Y0076150D01*
X0111250Y0078650D01*
X0106250Y0078650D01*
X0103750Y0076150D01*
X0101250Y0078650D01*
X0096250Y0078650D01*
X0093750Y0076150D01*
X0091250Y0078650D01*
X0086250Y0078650D01*
X0083750Y0076150D01*
X0081250Y0078650D01*
X0076250Y0078650D01*
X0073750Y0076150D01*
X0071250Y0078650D01*
X0066250Y0078650D01*
X0063750Y0076150D01*
X0061250Y0078650D01*
X0056250Y0078650D01*
X0053750Y0076150D01*
X0051250Y0078650D01*
X0046250Y0078650D01*
X0043750Y0076150D01*
X0041250Y0078650D01*
X0036250Y0078650D01*
X0033750Y0076150D01*
X0031250Y0078650D01*
X0026250Y0078650D01*
X0023750Y0076150D01*
X0021250Y0078650D01*
X0016250Y0078650D01*
X0021250Y0078650D01*
X0023750Y0081150D01*
X0026250Y0078650D01*
X0031250Y0078650D01*
X0033750Y0081150D01*
X0036250Y0078650D01*
X0041250Y0078650D01*
X0043750Y0081150D01*
X0046250Y0078650D01*
X0051250Y0078650D01*
X0053750Y0081150D01*
X0056250Y0078650D01*
X0061250Y0078650D01*
X0063750Y0081150D01*
X0066250Y0078650D01*
X0071250Y0078650D01*
X0073750Y0081150D01*
X0076250Y0078650D01*
X0081250Y0078650D01*
X0083750Y0081150D01*
X0086250Y0078650D01*
X0091250Y0078650D01*
X0093750Y0081150D01*
X0096250Y0078650D01*
X0101250Y0078650D01*
X0103750Y0081150D01*
X0106250Y0078650D01*
X0111250Y0078650D01*
X0113750Y0081150D01*
X0116250Y0078650D01*
X0121250Y0078650D01*
X0123750Y0081150D01*
X0126250Y0078650D01*
X0131250Y0078650D01*
X0133750Y0081150D01*
X0136250Y0078650D01*
X0141250Y0078650D01*
X0143750Y0081150D01*
X0146250Y0078650D01*
X0151250Y0078650D01*
X0153750Y0081150D01*
X0156250Y0078650D01*
X0161250Y0078650D01*
X0163750Y0081150D01*
X0166250Y0078650D01*
X0171250Y0078650D01*
X0173750Y0081150D01*
X0176250Y0078650D01*
X0181250Y0078650D01*
X0183750Y0081150D01*
X0186250Y0078650D01*
X0191250Y0078650D01*
X0193750Y0081150D01*
X0196250Y0078650D01*
X0201250Y0078650D01*
X0203750Y0081150D01*
X0206250Y0078650D01*
X0211250Y0078650D01*
X0213750Y0081150D01*
X0216250Y0078650D01*
X0221250Y0078650D01*
X0223750Y0081150D01*
X0226250Y0078650D01*
X0231250Y0078650D01*
X0233750Y0081150D01*
X0236250Y0078650D01*
X0241250Y0078650D01*
X0243750Y0081150D01*
X0246250Y0078650D01*
X0251250Y0078650D01*
X0253750Y0081150D01*
X0256250Y0078650D01*
X0261250Y0078650D01*
X0263750Y0081150D01*
X0266250Y0078650D01*
X0271250Y0078650D01*
X0273750Y0081150D01*
X0273750Y0086150D01*
X0271250Y0088650D01*
X0266250Y0088650D01*
X0263750Y0086150D01*
X0261250Y0088650D01*
X0256250Y0088650D01*
X0253750Y0086150D01*
X0251250Y0088650D01*
X0246250Y0088650D01*
X0243750Y0086150D01*
X0241250Y0088650D01*
X0236250Y0088650D01*
X0233750Y0086150D01*
X0231250Y0088650D01*
X0226250Y0088650D01*
X0223750Y0086150D01*
X0221250Y0088650D01*
X0216250Y0088650D01*
X0213750Y0086150D01*
X0211250Y0088650D01*
X0206250Y0088650D01*
X0203750Y0086150D01*
X0201250Y0088650D01*
X0196250Y0088650D01*
X0193750Y0086150D01*
X0191250Y0088650D01*
X0186250Y0088650D01*
X0183750Y0086150D01*
X0181250Y0088650D01*
X0176250Y0088650D01*
X0173750Y0086150D01*
X0171250Y0088650D01*
X0166250Y0088650D01*
X0163750Y0086150D01*
X0161250Y0088650D01*
X0156250Y0088650D01*
X0153750Y0086150D01*
X0151250Y0088650D01*
X0146250Y0088650D01*
X0143750Y0086150D01*
X0141250Y0088650D01*
X0136250Y0088650D01*
X0133750Y0086150D01*
X0131250Y0088650D01*
X0126250Y0088650D01*
X0123750Y0086150D01*
X0121250Y0088650D01*
X0116250Y0088650D01*
X0113750Y0086150D01*
X0111250Y0088650D01*
X0106250Y0088650D01*
X0103750Y0086150D01*
X0101250Y0088650D01*
X0096250Y0088650D01*
X0093750Y0086150D01*
X0091250Y0088650D01*
X0086250Y0088650D01*
X0083750Y0086150D01*
X0081250Y0088650D01*
X0076250Y0088650D01*
X0073750Y0086150D01*
X0071250Y0088650D01*
X0066250Y0088650D01*
X0063750Y0086150D01*
X0061250Y0088650D01*
X0056250Y0088650D01*
X0053750Y0086150D01*
X0051250Y0088650D01*
X0046250Y0088650D01*
X0043750Y0086150D01*
X0041250Y0088650D01*
X0036250Y0088650D01*
X0033750Y0086150D01*
X0031250Y0088650D01*
X0026250Y0088650D01*
X0023750Y0086150D01*
X0021250Y0088650D01*
X0016250Y0088650D01*
X0021250Y0088650D01*
X0023750Y0091150D01*
X0026250Y0088650D01*
X0031250Y0088650D01*
X0033750Y0091150D01*
X0036250Y0088650D01*
X0041250Y0088650D01*
X0043750Y0091150D01*
X0046250Y0088650D01*
X0051250Y0088650D01*
X0053750Y0091150D01*
X0056250Y0088650D01*
X0061250Y0088650D01*
X0063750Y0091150D01*
X0066250Y0088650D01*
X0071250Y0088650D01*
X0073750Y0091150D01*
X0076250Y0088650D01*
X0081250Y0088650D01*
X0083750Y0091150D01*
X0086250Y0088650D01*
X0091250Y0088650D01*
X0093750Y0091150D01*
X0096250Y0088650D01*
X0101250Y0088650D01*
X0103750Y0091150D01*
X0106250Y0088650D01*
X0111250Y0088650D01*
X0113750Y0091150D01*
X0116250Y0088650D01*
X0121250Y0088650D01*
X0123750Y0091150D01*
X0126250Y0088650D01*
X0131250Y0088650D01*
X0133750Y0091150D01*
X0136250Y0088650D01*
X0141250Y0088650D01*
X0143750Y0091150D01*
X0146250Y0088650D01*
X0151250Y0088650D01*
X0153750Y0091150D01*
X0156250Y0088650D01*
X0161250Y0088650D01*
X0163750Y0091150D01*
X0166250Y0088650D01*
X0171250Y0088650D01*
X0173750Y0091150D01*
X0176250Y0088650D01*
X0181250Y0088650D01*
X0183750Y0091150D01*
X0186250Y0088650D01*
X0191250Y0088650D01*
X0193750Y0091150D01*
X0196250Y0088650D01*
X0201250Y0088650D01*
X0203750Y0091150D01*
X0206250Y0088650D01*
X0211250Y0088650D01*
X0213750Y0091150D01*
X0216250Y0088650D01*
X0221250Y0088650D01*
X0223750Y0091150D01*
X0226250Y0088650D01*
X0231250Y0088650D01*
X0233750Y0091150D01*
X0236250Y0088650D01*
X0241250Y0088650D01*
X0243750Y0091150D01*
X0246250Y0088650D01*
X0251250Y0088650D01*
X0253750Y0091150D01*
X0256250Y0088650D01*
X0261250Y0088650D01*
X0263750Y0091150D01*
X0266250Y0088650D01*
X0271250Y0088650D01*
X0273750Y0091150D01*
X0273750Y0096150D01*
X0271250Y0098650D01*
X0266250Y0098650D01*
X0263750Y0096150D01*
X0261250Y0098650D01*
X0256250Y0098650D01*
X0253750Y0096150D01*
X0251250Y0098650D01*
X0246250Y0098650D01*
X0243750Y0096150D01*
X0241250Y0098650D01*
X0236250Y0098650D01*
X0233750Y0096150D01*
X0231250Y0098650D01*
X0226250Y0098650D01*
X0223750Y0096150D01*
X0221250Y0098650D01*
X0216250Y0098650D01*
X0213750Y0096150D01*
X0211250Y0098650D01*
X0206250Y0098650D01*
X0203750Y0096150D01*
X0201250Y0098650D01*
X0196250Y0098650D01*
X0193750Y0096150D01*
X0191250Y0098650D01*
X0186250Y0098650D01*
X0183750Y0096150D01*
X0181250Y0098650D01*
X0176250Y0098650D01*
X0173750Y0096150D01*
X0171250Y0098650D01*
X0166250Y0098650D01*
X0163750Y0096150D01*
X0161250Y0098650D01*
X0156250Y0098650D01*
X0153750Y0096150D01*
X0151250Y0098650D01*
X0146250Y0098650D01*
X0143750Y0096150D01*
X0141250Y0098650D01*
X0136250Y0098650D01*
X0133750Y0096150D01*
X0131250Y0098650D01*
X0126250Y0098650D01*
X0123750Y0096150D01*
X0121250Y0098650D01*
X0116250Y0098650D01*
X0113750Y0096150D01*
X0111250Y0098650D01*
X0106250Y0098650D01*
X0103750Y0096150D01*
X0101250Y0098650D01*
X0096250Y0098650D01*
X0093750Y0096150D01*
X0091250Y0098650D01*
X0086250Y0098650D01*
X0083750Y0096150D01*
X0081250Y0098650D01*
X0076250Y0098650D01*
X0073750Y0096150D01*
X0071250Y0098650D01*
X0066250Y0098650D01*
X0063750Y0096150D01*
X0061250Y0098650D01*
X0056250Y0098650D01*
X0053750Y0096150D01*
X0051250Y0098650D01*
X0046250Y0098650D01*
X0043750Y0096150D01*
X0041250Y0098650D01*
X0036250Y0098650D01*
X0033750Y0096150D01*
X0031250Y0098650D01*
X0026250Y0098650D01*
X0023750Y0096150D01*
X0021250Y0098650D01*
X0016250Y0098650D01*
X0021250Y0098650D01*
X0023750Y0101150D01*
X0026250Y0098650D01*
X0031250Y0098650D01*
X0033750Y0101150D01*
X0036250Y0098650D01*
X0041250Y0098650D01*
X0043750Y0101150D01*
X0046250Y0098650D01*
X0051250Y0098650D01*
X0053750Y0101150D01*
X0056250Y0098650D01*
X0061250Y0098650D01*
X0063750Y0101150D01*
X0066250Y0098650D01*
X0071250Y0098650D01*
X0073750Y0101150D01*
X0076250Y0098650D01*
X0081250Y0098650D01*
X0083750Y0101150D01*
X0086250Y0098650D01*
X0091250Y0098650D01*
X0093750Y0101150D01*
X0096250Y0098650D01*
X0101250Y0098650D01*
X0103750Y0101150D01*
X0106250Y0098650D01*
X0111250Y0098650D01*
X0113750Y0101150D01*
X0116250Y0098650D01*
X0121250Y0098650D01*
X0123750Y0101150D01*
X0126250Y0098650D01*
X0131250Y0098650D01*
X0133750Y0101150D01*
X0136250Y0098650D01*
X0141250Y0098650D01*
X0143750Y0101150D01*
X0146250Y0098650D01*
X0151250Y0098650D01*
X0153750Y0101150D01*
X0156250Y0098650D01*
X0161250Y0098650D01*
X0163750Y0101150D01*
X0166250Y0098650D01*
X0171250Y0098650D01*
X0173750Y0101150D01*
X0176250Y0098650D01*
X0181250Y0098650D01*
X0183750Y0101150D01*
X0186250Y0098650D01*
X0191250Y0098650D01*
X0193750Y0101150D01*
X0196250Y0098650D01*
X0201250Y0098650D01*
X0203750Y0101150D01*
X0206250Y0098650D01*
X0211250Y0098650D01*
X0213750Y0101150D01*
X0216250Y0098650D01*
X0221250Y0098650D01*
X0223750Y0101150D01*
X0226250Y0098650D01*
X0231250Y0098650D01*
X0233750Y0101150D01*
X0236250Y0098650D01*
X0241250Y0098650D01*
X0243750Y0101150D01*
X0246250Y0098650D01*
X0251250Y0098650D01*
X0253750Y0101150D01*
X0256250Y0098650D01*
X0261250Y0098650D01*
X0263750Y0101150D01*
X0266250Y0098650D01*
X0271250Y0098650D01*
X0273750Y0101150D01*
X0273750Y0106150D01*
X0271250Y0108650D01*
X0266250Y0108650D01*
X0263750Y0106150D01*
X0261250Y0108650D01*
X0256250Y0108650D01*
X0253750Y0106150D01*
X0251250Y0108650D01*
X0246250Y0108650D01*
X0243750Y0106150D01*
X0241250Y0108650D01*
X0236250Y0108650D01*
X0233750Y0106150D01*
X0231250Y0108650D01*
X0226250Y0108650D01*
X0223750Y0106150D01*
X0221250Y0108650D01*
X0216250Y0108650D01*
X0213750Y0106150D01*
X0211250Y0108650D01*
X0206250Y0108650D01*
X0203750Y0106150D01*
X0201250Y0108650D01*
X0196250Y0108650D01*
X0193750Y0106150D01*
X0191250Y0108650D01*
X0186250Y0108650D01*
X0183750Y0106150D01*
X0181250Y0108650D01*
X0176250Y0108650D01*
X0173750Y0106150D01*
X0171250Y0108650D01*
X0166250Y0108650D01*
X0163750Y0106150D01*
X0161250Y0108650D01*
X0156250Y0108650D01*
X0153750Y0106150D01*
X0151250Y0108650D01*
X0146250Y0108650D01*
X0143750Y0106150D01*
X0141250Y0108650D01*
X0136250Y0108650D01*
X0133750Y0106150D01*
X0131250Y0108650D01*
X0126250Y0108650D01*
X0123750Y0106150D01*
X0121250Y0108650D01*
X0116250Y0108650D01*
X0113750Y0106150D01*
X0111250Y0108650D01*
X0106250Y0108650D01*
X0103750Y0106150D01*
X0101250Y0108650D01*
X0096250Y0108650D01*
X0093750Y0106150D01*
X0091250Y0108650D01*
X0086250Y0108650D01*
X0083750Y0106150D01*
X0081250Y0108650D01*
X0076250Y0108650D01*
X0073750Y0106150D01*
X0071250Y0108650D01*
X0066250Y0108650D01*
X0063750Y0106150D01*
X0061250Y0108650D01*
X0056250Y0108650D01*
X0053750Y0106150D01*
X0051250Y0108650D01*
X0046250Y0108650D01*
X0043750Y0106150D01*
X0041250Y0108650D01*
X0036250Y0108650D01*
X0033750Y0106150D01*
X0031250Y0108650D01*
X0026250Y0108650D01*
X0023750Y0106150D01*
X0021250Y0108650D01*
X0016250Y0108650D01*
X0021250Y0108650D01*
X0023750Y0111150D01*
X0026250Y0108650D01*
X0031250Y0108650D01*
X0033750Y0111150D01*
X0036250Y0108650D01*
X0041250Y0108650D01*
X0043750Y0111150D01*
X0046250Y0108650D01*
X0051250Y0108650D01*
X0053750Y0111150D01*
X0056250Y0108650D01*
X0061250Y0108650D01*
X0063750Y0111150D01*
X0066250Y0108650D01*
X0071250Y0108650D01*
X0073750Y0111150D01*
X0076250Y0108650D01*
X0081250Y0108650D01*
X0083750Y0111150D01*
X0086250Y0108650D01*
X0091250Y0108650D01*
X0093750Y0111150D01*
X0096250Y0108650D01*
X0101250Y0108650D01*
X0103750Y0111150D01*
X0106250Y0108650D01*
X0111250Y0108650D01*
X0113750Y0111150D01*
X0116250Y0108650D01*
X0121250Y0108650D01*
X0123750Y0111150D01*
X0126250Y0108650D01*
X0131250Y0108650D01*
X0133750Y0111150D01*
X0136250Y0108650D01*
X0141250Y0108650D01*
X0143750Y0111150D01*
X0146250Y0108650D01*
X0151250Y0108650D01*
X0153750Y0111150D01*
X0156250Y0108650D01*
X0161250Y0108650D01*
X0163750Y0111150D01*
X0166250Y0108650D01*
X0171250Y0108650D01*
X0173750Y0111150D01*
X0176250Y0108650D01*
X0181250Y0108650D01*
X0183750Y0111150D01*
X0186250Y0108650D01*
X0191250Y0108650D01*
X0193750Y0111150D01*
X0196250Y0108650D01*
X0201250Y0108650D01*
X0203750Y0111150D01*
X0206250Y0108650D01*
X0211250Y0108650D01*
X0213750Y0111150D01*
X0216250Y0108650D01*
X0221250Y0108650D01*
X0223750Y0111150D01*
X0226250Y0108650D01*
X0231250Y0108650D01*
X0233750Y0111150D01*
X0236250Y0108650D01*
X0241250Y0108650D01*
X0243750Y0111150D01*
X0246250Y0108650D01*
X0251250Y0108650D01*
X0253750Y0111150D01*
X0256250Y0108650D01*
X0261250Y0108650D01*
X0263750Y0111150D01*
X0266250Y0108650D01*
X0271250Y0108650D01*
X0273750Y0111150D01*
X0273750Y0116150D01*
X0271250Y0118650D01*
X0266250Y0118650D01*
X0263750Y0116150D01*
X0261250Y0118650D01*
X0256250Y0118650D01*
X0253750Y0116150D01*
X0251250Y0118650D01*
X0246250Y0118650D01*
X0243750Y0116150D01*
X0241250Y0118650D01*
X0236250Y0118650D01*
X0233750Y0116150D01*
X0231250Y0118650D01*
X0226250Y0118650D01*
X0223750Y0116150D01*
X0221250Y0118650D01*
X0216250Y0118650D01*
X0213750Y0116150D01*
X0211250Y0118650D01*
X0206250Y0118650D01*
X0203750Y0116150D01*
X0201250Y0118650D01*
X0196250Y0118650D01*
X0193750Y0116150D01*
X0191250Y0118650D01*
X0186250Y0118650D01*
X0183750Y0116150D01*
X0181250Y0118650D01*
X0176250Y0118650D01*
X0173750Y0116150D01*
X0171250Y0118650D01*
X0166250Y0118650D01*
X0163750Y0116150D01*
X0161250Y0118650D01*
X0156250Y0118650D01*
X0153750Y0116150D01*
X0151250Y0118650D01*
X0146250Y0118650D01*
X0143750Y0116150D01*
X0141250Y0118650D01*
X0136250Y0118650D01*
X0133750Y0116150D01*
X0131250Y0118650D01*
X0126250Y0118650D01*
X0123750Y0116150D01*
X0121250Y0118650D01*
X0116250Y0118650D01*
X0113750Y0116150D01*
X0111250Y0118650D01*
X0106250Y0118650D01*
X0103750Y0116150D01*
X0101250Y0118650D01*
X0096250Y0118650D01*
X0093750Y0116150D01*
X0091250Y0118650D01*
X0086250Y0118650D01*
X0083750Y0116150D01*
X0081250Y0118650D01*
X0076250Y0118650D01*
X0073750Y0116150D01*
X0071250Y0118650D01*
X0066250Y0118650D01*
X0063750Y0116150D01*
X0061250Y0118650D01*
X0056250Y0118650D01*
X0053750Y0116150D01*
X0051250Y0118650D01*
X0046250Y0118650D01*
X0043750Y0116150D01*
X0041250Y0118650D01*
X0036250Y0118650D01*
X0033750Y0116150D01*
X0031250Y0118650D01*
X0026250Y0118650D01*
X0023750Y0116150D01*
X0021250Y0118650D01*
X0016250Y0118650D01*
X0021250Y0118650D01*
X0023750Y0121150D01*
X0026250Y0118650D01*
X0031250Y0118650D01*
X0033750Y0121150D01*
X0036250Y0118650D01*
X0041250Y0118650D01*
X0043750Y0121150D01*
X0046250Y0118650D01*
X0051250Y0118650D01*
X0053750Y0121150D01*
X0056250Y0118650D01*
X0061250Y0118650D01*
X0063750Y0121150D01*
X0066250Y0118650D01*
X0071250Y0118650D01*
X0073750Y0121150D01*
X0076250Y0118650D01*
X0081250Y0118650D01*
X0083750Y0121150D01*
X0086250Y0118650D01*
X0091250Y0118650D01*
X0093750Y0121150D01*
X0096250Y0118650D01*
X0101250Y0118650D01*
X0103750Y0121150D01*
X0106250Y0118650D01*
X0111250Y0118650D01*
X0113750Y0121150D01*
X0116250Y0118650D01*
X0121250Y0118650D01*
X0123750Y0121150D01*
X0126250Y0118650D01*
X0131250Y0118650D01*
X0133750Y0121150D01*
X0136250Y0118650D01*
X0141250Y0118650D01*
X0143750Y0121150D01*
X0146250Y0118650D01*
X0151250Y0118650D01*
X0153750Y0121150D01*
X0156250Y0118650D01*
X0161250Y0118650D01*
X0163750Y0121150D01*
X0166250Y0118650D01*
X0171250Y0118650D01*
X0173750Y0121150D01*
X0176250Y0118650D01*
X0181250Y0118650D01*
X0183750Y0121150D01*
X0186250Y0118650D01*
X0191250Y0118650D01*
X0193750Y0121150D01*
X0196250Y0118650D01*
X0201250Y0118650D01*
X0203750Y0121150D01*
X0206250Y0118650D01*
X0211250Y0118650D01*
X0213750Y0121150D01*
X0216250Y0118650D01*
X0221250Y0118650D01*
X0223750Y0121150D01*
X0226250Y0118650D01*
X0231250Y0118650D01*
X0233750Y0121150D01*
X0236250Y0118650D01*
X0241250Y0118650D01*
X0243750Y0121150D01*
X0246250Y0118650D01*
X0251250Y0118650D01*
X0253750Y0121150D01*
X0256250Y0118650D01*
X0261250Y0118650D01*
X0263750Y0121150D01*
X0266250Y0118650D01*
X0271250Y0118650D01*
X0273750Y0121150D01*
X0273750Y0126150D01*
X0271250Y0128650D01*
X0266250Y0128650D01*
X0263750Y0126150D01*
X0261250Y0128650D01*
X0256250Y0128650D01*
X0253750Y0126150D01*
X0251250Y0128650D01*
X0246250Y0128650D01*
X0243750Y0126150D01*
X0241250Y0128650D01*
X0236250Y0128650D01*
X0233750Y0126150D01*
X0231250Y0128650D01*
X0226250Y0128650D01*
X0223750Y0126150D01*
X0221250Y0128650D01*
X0216250Y0128650D01*
X0213750Y0126150D01*
X0211250Y0128650D01*
X0206250Y0128650D01*
X0203750Y0126150D01*
X0201250Y0128650D01*
X0196250Y0128650D01*
X0193750Y0126150D01*
X0191250Y0128650D01*
X0186250Y0128650D01*
X0183750Y0126150D01*
X0181250Y0128650D01*
X0176250Y0128650D01*
X0173750Y0126150D01*
X0171250Y0128650D01*
X0166250Y0128650D01*
X0163750Y0126150D01*
X0161250Y0128650D01*
X0156250Y0128650D01*
X0153750Y0126150D01*
X0151250Y0128650D01*
X0146250Y0128650D01*
X0143750Y0126150D01*
X0141250Y0128650D01*
X0136250Y0128650D01*
X0133750Y0126150D01*
X0131250Y0128650D01*
X0126250Y0128650D01*
X0123750Y0126150D01*
X0121250Y0128650D01*
X0116250Y0128650D01*
X0113750Y0126150D01*
X0111250Y0128650D01*
X0106250Y0128650D01*
X0103750Y0126150D01*
X0101250Y0128650D01*
X0096250Y0128650D01*
X0093750Y0126150D01*
X0091250Y0128650D01*
X0086250Y0128650D01*
X0083750Y0126150D01*
X0081250Y0128650D01*
X0076250Y0128650D01*
X0073750Y0126150D01*
X0071250Y0128650D01*
X0066250Y0128650D01*
X0063750Y0126150D01*
X0061250Y0128650D01*
X0056250Y0128650D01*
X0053750Y0126150D01*
X0051250Y0128650D01*
X0046250Y0128650D01*
X0043750Y0126150D01*
X0041250Y0128650D01*
X0036250Y0128650D01*
X0033750Y0126150D01*
X0031250Y0128650D01*
X0026250Y0128650D01*
X0023750Y0126150D01*
X0021250Y0128650D01*
X0016250Y0128650D01*
X0021250Y0128650D01*
X0023750Y0131150D01*
X0026250Y0128650D01*
X0031250Y0128650D01*
X0033750Y0131150D01*
X0036250Y0128650D01*
X0041250Y0128650D01*
X0043750Y0131150D01*
X0046250Y0128650D01*
X0051250Y0128650D01*
X0053750Y0131150D01*
X0056250Y0128650D01*
X0061250Y0128650D01*
X0063750Y0131150D01*
X0066250Y0128650D01*
X0071250Y0128650D01*
X0073750Y0131150D01*
X0076250Y0128650D01*
X0081250Y0128650D01*
X0083750Y0131150D01*
X0086250Y0128650D01*
X0091250Y0128650D01*
X0093750Y0131150D01*
X0096250Y0128650D01*
X0101250Y0128650D01*
X0103750Y0131150D01*
X0106250Y0128650D01*
X0111250Y0128650D01*
X0113750Y0131150D01*
X0116250Y0128650D01*
X0121250Y0128650D01*
X0123750Y0131150D01*
X0126250Y0128650D01*
X0131250Y0128650D01*
X0133750Y0131150D01*
X0136250Y0128650D01*
X0141250Y0128650D01*
X0143750Y0131150D01*
X0146250Y0128650D01*
X0151250Y0128650D01*
X0153750Y0131150D01*
X0156250Y0128650D01*
X0161250Y0128650D01*
X0163750Y0131150D01*
X0166250Y0128650D01*
X0171250Y0128650D01*
X0173750Y0131150D01*
X0176250Y0128650D01*
X0181250Y0128650D01*
X0183750Y0131150D01*
X0186250Y0128650D01*
X0191250Y0128650D01*
X0193750Y0131150D01*
X0196250Y0128650D01*
X0201250Y0128650D01*
X0203750Y0131150D01*
X0206250Y0128650D01*
X0211250Y0128650D01*
X0213750Y0131150D01*
X0216250Y0128650D01*
X0221250Y0128650D01*
X0223750Y0131150D01*
X0226250Y0128650D01*
X0231250Y0128650D01*
X0233750Y0131150D01*
X0236250Y0128650D01*
X0241250Y0128650D01*
X0243750Y0131150D01*
X0246250Y0128650D01*
X0251250Y0128650D01*
X0253750Y0131150D01*
X0256250Y0128650D01*
X0261250Y0128650D01*
X0263750Y0131150D01*
X0266250Y0128650D01*
X0271250Y0128650D01*
X0273750Y0131150D01*
X0273750Y0136150D01*
X0271250Y0138650D01*
X0266250Y0138650D01*
X0263750Y0136150D01*
X0261250Y0138650D01*
X0256250Y0138650D01*
X0253750Y0136150D01*
X0251250Y0138650D01*
X0246250Y0138650D01*
X0243750Y0136150D01*
X0241250Y0138650D01*
X0236250Y0138650D01*
X0233750Y0136150D01*
X0231250Y0138650D01*
X0226250Y0138650D01*
X0223750Y0136150D01*
X0221250Y0138650D01*
X0216250Y0138650D01*
X0213750Y0136150D01*
X0211250Y0138650D01*
X0206250Y0138650D01*
X0203750Y0136150D01*
X0201250Y0138650D01*
X0196250Y0138650D01*
X0193750Y0136150D01*
X0191250Y0138650D01*
X0186250Y0138650D01*
X0183750Y0136150D01*
X0181250Y0138650D01*
X0176250Y0138650D01*
X0173750Y0136150D01*
X0171250Y0138650D01*
X0166250Y0138650D01*
X0163750Y0136150D01*
X0161250Y0138650D01*
X0156250Y0138650D01*
X0153750Y0136150D01*
X0151250Y0138650D01*
X0146250Y0138650D01*
X0143750Y0136150D01*
X0141250Y0138650D01*
X0136250Y0138650D01*
X0133750Y0136150D01*
X0131250Y0138650D01*
X0126250Y0138650D01*
X0123750Y0136150D01*
X0121250Y0138650D01*
X0116250Y0138650D01*
X0113750Y0136150D01*
X0111250Y0138650D01*
X0106250Y0138650D01*
X0103750Y0136150D01*
X0101250Y0138650D01*
X0096250Y0138650D01*
X0093750Y0136150D01*
X0091250Y0138650D01*
X0086250Y0138650D01*
X0083750Y0136150D01*
X0081250Y0138650D01*
X0076250Y0138650D01*
X0073750Y0136150D01*
X0071250Y0138650D01*
X0066250Y0138650D01*
X0063750Y0136150D01*
X0061250Y0138650D01*
X0056250Y0138650D01*
X0053750Y0136150D01*
X0051250Y0138650D01*
X0046250Y0138650D01*
X0043750Y0136150D01*
X0041250Y0138650D01*
X0036250Y0138650D01*
X0033750Y0136150D01*
X0031250Y0138650D01*
X0026250Y0138650D01*
X0023750Y0136150D01*
X0021250Y0138650D01*
X0016250Y0138650D01*
X0021250Y0138650D01*
X0023750Y0141150D01*
X0026250Y0138650D01*
X0031250Y0138650D01*
X0033750Y0141150D01*
X0036250Y0138650D01*
X0041250Y0138650D01*
X0043750Y0141150D01*
X0046250Y0138650D01*
X0051250Y0138650D01*
X0053750Y0141150D01*
X0056250Y0138650D01*
X0061250Y0138650D01*
X0063750Y0141150D01*
X0066250Y0138650D01*
X0071250Y0138650D01*
X0073750Y0141150D01*
X0076250Y0138650D01*
X0081250Y0138650D01*
X0083750Y0141150D01*
X0086250Y0138650D01*
X0091250Y0138650D01*
X0093750Y0141150D01*
X0096250Y0138650D01*
X0101250Y0138650D01*
X0103750Y0141150D01*
X0106250Y0138650D01*
X0111250Y0138650D01*
X0113750Y0141150D01*
X0116250Y0138650D01*
X0121250Y0138650D01*
X0123750Y0141150D01*
X0126250Y0138650D01*
X0131250Y0138650D01*
X0133750Y0141150D01*
X0136250Y0138650D01*
X0141250Y0138650D01*
X0143750Y0141150D01*
X0146250Y0138650D01*
X0151250Y0138650D01*
X0153750Y0141150D01*
X0156250Y0138650D01*
X0161250Y0138650D01*
X0163750Y0141150D01*
X0166250Y0138650D01*
X0171250Y0138650D01*
X0173750Y0141150D01*
X0176250Y0138650D01*
X0181250Y0138650D01*
X0183750Y0141150D01*
X0186250Y0138650D01*
X0191250Y0138650D01*
X0193750Y0141150D01*
X0196250Y0138650D01*
X0201250Y0138650D01*
X0203750Y0141150D01*
X0206250Y0138650D01*
X0211250Y0138650D01*
X0213750Y0141150D01*
X0216250Y0138650D01*
X0221250Y0138650D01*
X0223750Y0141150D01*
X0226250Y0138650D01*
X0231250Y0138650D01*
X0233750Y0141150D01*
X0236250Y0138650D01*
X0241250Y0138650D01*
X0243750Y0141150D01*
X0246250Y0138650D01*
X0251250Y0138650D01*
X0253750Y0141150D01*
X0256250Y0138650D01*
X0261250Y0138650D01*
X0263750Y0141150D01*
X0266250Y0138650D01*
X0271250Y0138650D01*
X0273750Y0141150D01*
X0273750Y0146150D01*
X0271250Y0148650D01*
X0266250Y0148650D01*
X0263750Y0146150D01*
X0261250Y0148650D01*
X0256250Y0148650D01*
X0253750Y0146150D01*
X0251250Y0148650D01*
X0246250Y0148650D01*
X0243750Y0146150D01*
X0241250Y0148650D01*
X0236250Y0148650D01*
X0233750Y0146150D01*
X0231250Y0148650D01*
X0226250Y0148650D01*
X0223750Y0146150D01*
X0221250Y0148650D01*
X0216250Y0148650D01*
X0213750Y0146150D01*
X0211250Y0148650D01*
X0206250Y0148650D01*
X0203750Y0146150D01*
X0201250Y0148650D01*
X0196250Y0148650D01*
X0193750Y0146150D01*
X0191250Y0148650D01*
X0186250Y0148650D01*
X0183750Y0146150D01*
X0181250Y0148650D01*
X0176250Y0148650D01*
X0173750Y0146150D01*
X0171250Y0148650D01*
X0166250Y0148650D01*
X0163750Y0146150D01*
X0161250Y0148650D01*
X0156250Y0148650D01*
X0153750Y0146150D01*
X0151250Y0148650D01*
X0146250Y0148650D01*
X0143750Y0146150D01*
X0141250Y0148650D01*
X0136250Y0148650D01*
X0133750Y0146150D01*
X0131250Y0148650D01*
X0126250Y0148650D01*
X0123750Y0146150D01*
X0121250Y0148650D01*
X0116250Y0148650D01*
X0113750Y0146150D01*
X0111250Y0148650D01*
X0106250Y0148650D01*
X0103750Y0146150D01*
X0101250Y0148650D01*
X0096250Y0148650D01*
X0093750Y0146150D01*
X0091250Y0148650D01*
X0086250Y0148650D01*
X0083750Y0146150D01*
X0081250Y0148650D01*
X0076250Y0148650D01*
X0073750Y0146150D01*
X0071250Y0148650D01*
X0066250Y0148650D01*
X0063750Y0146150D01*
X0061250Y0148650D01*
X0056250Y0148650D01*
X0053750Y0146150D01*
X0051250Y0148650D01*
X0046250Y0148650D01*
X0043750Y0146150D01*
X0041250Y0148650D01*
X0036250Y0148650D01*
X0033750Y0146150D01*
X0031250Y0148650D01*
X0026250Y0148650D01*
X0023750Y0146150D01*
X0021250Y0148650D01*
X0016250Y0148650D01*
X0021250Y0148650D01*
X0023750Y0151150D01*
X0026250Y0148650D01*
X0031250Y0148650D01*
X0033750Y0151150D01*
X0036250Y0148650D01*
X0041250Y0148650D01*
X0043750Y0151150D01*
X0046250Y0148650D01*
X0051250Y0148650D01*
X0053750Y0151150D01*
X0056250Y0148650D01*
X0061250Y0148650D01*
X0063750Y0151150D01*
X0066250Y0148650D01*
X0071250Y0148650D01*
X0073750Y0151150D01*
X0076250Y0148650D01*
X0081250Y0148650D01*
X0083750Y0151150D01*
X0086250Y0148650D01*
X0091250Y0148650D01*
X0093750Y0151150D01*
X0096250Y0148650D01*
X0101250Y0148650D01*
X0103750Y0151150D01*
X0106250Y0148650D01*
X0111250Y0148650D01*
X0113750Y0151150D01*
X0116250Y0148650D01*
X0121250Y0148650D01*
X0123750Y0151150D01*
X0126250Y0148650D01*
X0131250Y0148650D01*
X0133750Y0151150D01*
X0136250Y0148650D01*
X0141250Y0148650D01*
X0143750Y0151150D01*
X0146250Y0148650D01*
X0151250Y0148650D01*
X0153750Y0151150D01*
X0156250Y0148650D01*
X0161250Y0148650D01*
X0163750Y0151150D01*
X0166250Y0148650D01*
X0171250Y0148650D01*
X0173750Y0151150D01*
X0176250Y0148650D01*
X0181250Y0148650D01*
X0183750Y0151150D01*
X0186250Y0148650D01*
X0191250Y0148650D01*
X0193750Y0151150D01*
X0196250Y0148650D01*
X0201250Y0148650D01*
X0203750Y0151150D01*
X0206250Y0148650D01*
X0211250Y0148650D01*
X0213750Y0151150D01*
X0216250Y0148650D01*
X0221250Y0148650D01*
X0223750Y0151150D01*
X0226250Y0148650D01*
X0231250Y0148650D01*
X0233750Y0151150D01*
X0236250Y0148650D01*
X0241250Y0148650D01*
X0243750Y0151150D01*
X0246250Y0148650D01*
X0251250Y0148650D01*
X0253750Y0151150D01*
X0256250Y0148650D01*
X0261250Y0148650D01*
X0263750Y0151150D01*
X0266250Y0148650D01*
X0271250Y0148650D01*
X0273750Y0151150D01*
X0273750Y0156150D01*
X0271250Y0158650D01*
X0266250Y0158650D01*
X0263750Y0156150D01*
X0261250Y0158650D01*
X0256250Y0158650D01*
X0253750Y0156150D01*
X0251250Y0158650D01*
X0246250Y0158650D01*
X0243750Y0156150D01*
X0241250Y0158650D01*
X0236250Y0158650D01*
X0233750Y0156150D01*
X0231250Y0158650D01*
X0226250Y0158650D01*
X0223750Y0156150D01*
X0221250Y0158650D01*
X0216250Y0158650D01*
X0213750Y0156150D01*
X0211250Y0158650D01*
X0206250Y0158650D01*
X0203750Y0156150D01*
X0201250Y0158650D01*
X0196250Y0158650D01*
X0193750Y0156150D01*
X0191250Y0158650D01*
X0186250Y0158650D01*
X0183750Y0156150D01*
X0181250Y0158650D01*
X0176250Y0158650D01*
X0173750Y0156150D01*
X0171250Y0158650D01*
X0166250Y0158650D01*
X0163750Y0156150D01*
X0161250Y0158650D01*
X0156250Y0158650D01*
X0153750Y0156150D01*
X0151250Y0158650D01*
X0146250Y0158650D01*
X0143750Y0156150D01*
X0141250Y0158650D01*
X0136250Y0158650D01*
X0133750Y0156150D01*
X0131250Y0158650D01*
X0126250Y0158650D01*
X0123750Y0156150D01*
X0121250Y0158650D01*
X0116250Y0158650D01*
X0113750Y0156150D01*
X0111250Y0158650D01*
X0106250Y0158650D01*
X0103750Y0156150D01*
X0101250Y0158650D01*
X0096250Y0158650D01*
X0093750Y0156150D01*
X0091250Y0158650D01*
X0086250Y0158650D01*
X0083750Y0156150D01*
X0081250Y0158650D01*
X0076250Y0158650D01*
X0073750Y0156150D01*
X0071250Y0158650D01*
X0066250Y0158650D01*
X0063750Y0156150D01*
X0061250Y0158650D01*
X0056250Y0158650D01*
X0053750Y0156150D01*
X0051250Y0158650D01*
X0046250Y0158650D01*
X0043750Y0156150D01*
X0041250Y0158650D01*
X0036250Y0158650D01*
X0033750Y0156150D01*
X0031250Y0158650D01*
X0026250Y0158650D01*
X0023750Y0156150D01*
X0021250Y0158650D01*
X0016250Y0158650D01*
X0021250Y0158650D01*
X0023750Y0161150D01*
X0026250Y0158650D01*
X0031250Y0158650D01*
X0033750Y0161150D01*
X0036250Y0158650D01*
X0041250Y0158650D01*
X0043750Y0161150D01*
X0046250Y0158650D01*
X0051250Y0158650D01*
X0053750Y0161150D01*
X0056250Y0158650D01*
X0061250Y0158650D01*
X0063750Y0161150D01*
X0066250Y0158650D01*
X0071250Y0158650D01*
X0073750Y0161150D01*
X0076250Y0158650D01*
X0081250Y0158650D01*
X0083750Y0161150D01*
X0086250Y0158650D01*
X0091250Y0158650D01*
X0093750Y0161150D01*
X0096250Y0158650D01*
X0101250Y0158650D01*
X0103750Y0161150D01*
X0106250Y0158650D01*
X0111250Y0158650D01*
X0113750Y0161150D01*
X0116250Y0158650D01*
X0121250Y0158650D01*
X0123750Y0161150D01*
X0126250Y0158650D01*
X0131250Y0158650D01*
X0133750Y0161150D01*
X0136250Y0158650D01*
X0141250Y0158650D01*
X0143750Y0161150D01*
X0146250Y0158650D01*
X0151250Y0158650D01*
X0153750Y0161150D01*
X0156250Y0158650D01*
X0161250Y0158650D01*
X0163750Y0161150D01*
X0166250Y0158650D01*
X0171250Y0158650D01*
X0173750Y0161150D01*
X0176250Y0158650D01*
X0181250Y0158650D01*
X0183750Y0161150D01*
X0186250Y0158650D01*
X0191250Y0158650D01*
X0193750Y0161150D01*
X0196250Y0158650D01*
X0201250Y0158650D01*
X0203750Y0161150D01*
X0206250Y0158650D01*
X0211250Y0158650D01*
X0213750Y0161150D01*
X0216250Y0158650D01*
X0221250Y0158650D01*
X0223750Y0161150D01*
X0226250Y0158650D01*
X0231250Y0158650D01*
X0233750Y0161150D01*
X0236250Y0158650D01*
X0241250Y0158650D01*
X0243750Y0161150D01*
X0246250Y0158650D01*
X0251250Y0158650D01*
X0253750Y0161150D01*
X0256250Y0158650D01*
X0261250Y0158650D01*
X0263750Y0161150D01*
X0266250Y0158650D01*
X0271250Y0158650D01*
X0273750Y0161150D01*
X0273750Y0166150D01*
X0271250Y0168650D01*
X0266250Y0168650D01*
X0263750Y0166150D01*
X0261250Y0168650D01*
X0256250Y0168650D01*
X0253750Y0166150D01*
X0251250Y0168650D01*
X0246250Y0168650D01*
X0243750Y0166150D01*
X0241250Y0168650D01*
X0236250Y0168650D01*
X0233750Y0166150D01*
X0231250Y0168650D01*
X0226250Y0168650D01*
X0223750Y0166150D01*
X0221250Y0168650D01*
X0216250Y0168650D01*
X0213750Y0166150D01*
X0211250Y0168650D01*
X0206250Y0168650D01*
X0203750Y0166150D01*
X0201250Y0168650D01*
X0196250Y0168650D01*
X0193750Y0166150D01*
X0191250Y0168650D01*
X0186250Y0168650D01*
X0183750Y0166150D01*
X0181250Y0168650D01*
X0176250Y0168650D01*
X0173750Y0166150D01*
X0171250Y0168650D01*
X0166250Y0168650D01*
X0163750Y0166150D01*
X0161250Y0168650D01*
X0156250Y0168650D01*
X0153750Y0166150D01*
X0151250Y0168650D01*
X0146250Y0168650D01*
X0143750Y0166150D01*
X0141250Y0168650D01*
X0136250Y0168650D01*
X0133750Y0166150D01*
X0131250Y0168650D01*
X0126250Y0168650D01*
X0123750Y0166150D01*
X0121250Y0168650D01*
X0116250Y0168650D01*
X0113750Y0166150D01*
X0111250Y0168650D01*
X0106250Y0168650D01*
X0103750Y0166150D01*
X0101250Y0168650D01*
X0096250Y0168650D01*
X0093750Y0166150D01*
X0091250Y0168650D01*
X0086250Y0168650D01*
X0083750Y0166150D01*
X0081250Y0168650D01*
X0076250Y0168650D01*
X0073750Y0166150D01*
X0071250Y0168650D01*
X0066250Y0168650D01*
X0063750Y0166150D01*
X0061250Y0168650D01*
X0056250Y0168650D01*
X0053750Y0166150D01*
X0051250Y0168650D01*
X0046250Y0168650D01*
X0043750Y0166150D01*
X0041250Y0168650D01*
X0036250Y0168650D01*
X0033750Y0166150D01*
X0031250Y0168650D01*
X0026250Y0168650D01*
X0023750Y0166150D01*
X0021250Y0168650D01*
X0016250Y0168650D01*
X0021250Y0168650D01*
X0023750Y0171150D01*
X0026250Y0168650D01*
X0031250Y0168650D01*
X0033750Y0171150D01*
X0036250Y0168650D01*
X0041250Y0168650D01*
X0043750Y0171150D01*
X0046250Y0168650D01*
X0051250Y0168650D01*
X0053750Y0171150D01*
X0056250Y0168650D01*
X0061250Y0168650D01*
X0063750Y0171150D01*
X0066250Y0168650D01*
X0071250Y0168650D01*
X0073750Y0171150D01*
X0076250Y0168650D01*
X0081250Y0168650D01*
X0083750Y0171150D01*
X0086250Y0168650D01*
X0091250Y0168650D01*
X0093750Y0171150D01*
X0096250Y0168650D01*
X0101250Y0168650D01*
X0103750Y0171150D01*
X0106250Y0168650D01*
X0111250Y0168650D01*
X0113750Y0171150D01*
X0116250Y0168650D01*
X0121250Y0168650D01*
X0123750Y0171150D01*
X0126250Y0168650D01*
X0131250Y0168650D01*
X0133750Y0171150D01*
X0136250Y0168650D01*
X0141250Y0168650D01*
X0143750Y0171150D01*
X0146250Y0168650D01*
X0151250Y0168650D01*
X0153750Y0171150D01*
X0156250Y0168650D01*
X0161250Y0168650D01*
X0163750Y0171150D01*
X0166250Y0168650D01*
X0171250Y0168650D01*
X0173750Y0171150D01*
X0176250Y0168650D01*
X0181250Y0168650D01*
X0183750Y0171150D01*
X0186250Y0168650D01*
X0191250Y0168650D01*
X0193750Y0171150D01*
X0196250Y0168650D01*
X0201250Y0168650D01*
X0203750Y0171150D01*
X0206250Y0168650D01*
X0211250Y0168650D01*
X0213750Y0171150D01*
X0216250Y0168650D01*
X0221250Y0168650D01*
X0223750Y0171150D01*
X0226250Y0168650D01*
X0231250Y0168650D01*
X0233750Y0171150D01*
X0236250Y0168650D01*
X0241250Y0168650D01*
X0243750Y0171150D01*
X0246250Y0168650D01*
X0251250Y0168650D01*
X0253750Y0171150D01*
X0256250Y0168650D01*
X0261250Y0168650D01*
X0263750Y0171150D01*
X0266250Y0168650D01*
X0271250Y0168650D01*
X0273750Y0171150D01*
X0273750Y0176150D01*
X0271250Y0178650D01*
X0266250Y0178650D01*
X0263750Y0176150D01*
X0261250Y0178650D01*
X0256250Y0178650D01*
X0253750Y0176150D01*
X0251250Y0178650D01*
X0246250Y0178650D01*
X0243750Y0176150D01*
X0241250Y0178650D01*
X0236250Y0178650D01*
X0233750Y0176150D01*
X0231250Y0178650D01*
X0226250Y0178650D01*
X0223750Y0176150D01*
X0221250Y0178650D01*
X0216250Y0178650D01*
X0213750Y0176150D01*
X0211250Y0178650D01*
X0206250Y0178650D01*
X0203750Y0176150D01*
X0201250Y0178650D01*
X0196250Y0178650D01*
X0193750Y0176150D01*
X0191250Y0178650D01*
X0186250Y0178650D01*
X0183750Y0176150D01*
X0181250Y0178650D01*
X0176250Y0178650D01*
X0173750Y0176150D01*
X0171250Y0178650D01*
X0166250Y0178650D01*
X0163750Y0176150D01*
X0161250Y0178650D01*
X0156250Y0178650D01*
X0153750Y0176150D01*
X0151250Y0178650D01*
X0146250Y0178650D01*
X0143750Y0176150D01*
X0141250Y0178650D01*
X0136250Y0178650D01*
X0133750Y0176150D01*
X0131250Y0178650D01*
X0126250Y0178650D01*
X0123750Y0176150D01*
X0121250Y0178650D01*
X0116250Y0178650D01*
X0113750Y0176150D01*
X0111250Y0178650D01*
X0106250Y0178650D01*
X0103750Y0176150D01*
X0101250Y0178650D01*
X0096250Y0178650D01*
X0093750Y0176150D01*
X0091250Y0178650D01*
X0086250Y0178650D01*
X0083750Y0176150D01*
X0081250Y0178650D01*
X0076250Y0178650D01*
X0073750Y0176150D01*
X0071250Y0178650D01*
X0066250Y0178650D01*
X0063750Y0176150D01*
X0061250Y0178650D01*
X0056250Y0178650D01*
X0053750Y0176150D01*
X0051250Y0178650D01*
X0046250Y0178650D01*
X0043750Y0176150D01*
X0041250Y0178650D01*
X0036250Y0178650D01*
X0033750Y0176150D01*
X0031250Y0178650D01*
X0026250Y0178650D01*
X0023750Y0176150D01*
X0021250Y0178650D01*
X0016250Y0178650D01*
X0021250Y0178650D01*
X0023750Y0181150D01*
X0026250Y0178650D01*
X0031250Y0178650D01*
X0033750Y0181150D01*
X0036250Y0178650D01*
X0041250Y0178650D01*
X0043750Y0181150D01*
X0046250Y0178650D01*
X0051250Y0178650D01*
X0053750Y0181150D01*
X0056250Y0178650D01*
X0061250Y0178650D01*
X0063750Y0181150D01*
X0066250Y0178650D01*
X0071250Y0178650D01*
X0073750Y0181150D01*
X0076250Y0178650D01*
X0081250Y0178650D01*
X0083750Y0181150D01*
X0086250Y0178650D01*
X0091250Y0178650D01*
X0093750Y0181150D01*
X0096250Y0178650D01*
X0101250Y0178650D01*
X0103750Y0181150D01*
X0106250Y0178650D01*
X0111250Y0178650D01*
X0113750Y0181150D01*
X0116250Y0178650D01*
X0121250Y0178650D01*
X0123750Y0181150D01*
X0126250Y0178650D01*
X0131250Y0178650D01*
X0133750Y0181150D01*
X0136250Y0178650D01*
X0141250Y0178650D01*
X0143750Y0181150D01*
X0146250Y0178650D01*
X0151250Y0178650D01*
X0153750Y0181150D01*
X0156250Y0178650D01*
X0161250Y0178650D01*
X0163750Y0181150D01*
X0166250Y0178650D01*
X0171250Y0178650D01*
X0173750Y0181150D01*
X0176250Y0178650D01*
X0181250Y0178650D01*
X0183750Y0181150D01*
X0186250Y0178650D01*
X0191250Y0178650D01*
X0193750Y0181150D01*
X0196250Y0178650D01*
X0201250Y0178650D01*
X0203750Y0181150D01*
X0206250Y0178650D01*
X0211250Y0178650D01*
X0213750Y0181150D01*
X0216250Y0178650D01*
X0221250Y0178650D01*
X0223750Y0181150D01*
X0226250Y0178650D01*
X0231250Y0178650D01*
X0233750Y0181150D01*
X0236250Y0178650D01*
X0241250Y0178650D01*
X0243750Y0181150D01*
X0246250Y0178650D01*
X0251250Y0178650D01*
X0253750Y0181150D01*
X0256250Y0178650D01*
X0261250Y0178650D01*
X0263750Y0181150D01*
X0266250Y0178650D01*
X0271250Y0178650D01*
X0273750Y0181150D01*
X0273750Y0186150D01*
X0271250Y0188650D01*
X0266250Y0188650D01*
X0263750Y0186150D01*
X0261250Y0188650D01*
X0256250Y0188650D01*
X0253750Y0186150D01*
X0251250Y0188650D01*
X0246250Y0188650D01*
X0243750Y0186150D01*
X0241250Y0188650D01*
X0236250Y0188650D01*
X0233750Y0186150D01*
X0231250Y0188650D01*
X0226250Y0188650D01*
X0223750Y0186150D01*
X0221250Y0188650D01*
X0216250Y0188650D01*
X0213750Y0186150D01*
X0211250Y0188650D01*
X0206250Y0188650D01*
X0203750Y0186150D01*
X0201250Y0188650D01*
X0196250Y0188650D01*
X0193750Y0186150D01*
X0191250Y0188650D01*
X0186250Y0188650D01*
X0183750Y0186150D01*
X0181250Y0188650D01*
X0176250Y0188650D01*
X0173750Y0186150D01*
X0171250Y0188650D01*
X0166250Y0188650D01*
X0163750Y0186150D01*
X0161250Y0188650D01*
X0156250Y0188650D01*
X0153750Y0186150D01*
X0151250Y0188650D01*
X0146250Y0188650D01*
X0143750Y0186150D01*
X0141250Y0188650D01*
X0136250Y0188650D01*
X0133750Y0186150D01*
X0131250Y0188650D01*
X0126250Y0188650D01*
X0123750Y0186150D01*
X0121250Y0188650D01*
X0116250Y0188650D01*
X0113750Y0186150D01*
X0111250Y0188650D01*
X0106250Y0188650D01*
X0103750Y0186150D01*
X0101250Y0188650D01*
X0096250Y0188650D01*
X0093750Y0186150D01*
X0091250Y0188650D01*
X0086250Y0188650D01*
X0083750Y0186150D01*
X0081250Y0188650D01*
X0076250Y0188650D01*
X0073750Y0186150D01*
X0071250Y0188650D01*
X0066250Y0188650D01*
X0063750Y0186150D01*
X0061250Y0188650D01*
X0056250Y0188650D01*
X0053750Y0186150D01*
X0051250Y0188650D01*
X0046250Y0188650D01*
X0043750Y0186150D01*
X0041250Y0188650D01*
X0036250Y0188650D01*
X0033750Y0186150D01*
X0031250Y0188650D01*
X0026250Y0188650D01*
X0023750Y0186150D01*
X0021250Y0188650D01*
X0016250Y0188650D01*
X0021250Y0188650D01*
X0023750Y0191150D01*
X0026250Y0188650D01*
X0031250Y0188650D01*
X0033750Y0191150D01*
X0036250Y0188650D01*
X0041250Y0188650D01*
X0043750Y0191150D01*
X0046250Y0188650D01*
X0051250Y0188650D01*
X0053750Y0191150D01*
X0056250Y0188650D01*
X0061250Y0188650D01*
X0063750Y0191150D01*
X0066250Y0188650D01*
X0071250Y0188650D01*
X0073750Y0191150D01*
X0076250Y0188650D01*
X0081250Y0188650D01*
X0083750Y0191150D01*
X0086250Y0188650D01*
X0091250Y0188650D01*
X0093750Y0191150D01*
X0096250Y0188650D01*
X0101250Y0188650D01*
X0103750Y0191150D01*
X0106250Y0188650D01*
X0111250Y0188650D01*
X0113750Y0191150D01*
X0116250Y0188650D01*
X0121250Y0188650D01*
X0123750Y0191150D01*
X0126250Y0188650D01*
X0131250Y0188650D01*
X0133750Y0191150D01*
X0136250Y0188650D01*
X0141250Y0188650D01*
X0143750Y0191150D01*
X0146250Y0188650D01*
X0151250Y0188650D01*
X0153750Y0191150D01*
X0156250Y0188650D01*
X0161250Y0188650D01*
X0163750Y0191150D01*
X0166250Y0188650D01*
X0171250Y0188650D01*
X0173750Y0191150D01*
X0176250Y0188650D01*
X0181250Y0188650D01*
X0183750Y0191150D01*
X0186250Y0188650D01*
X0191250Y0188650D01*
X0193750Y0191150D01*
X0196250Y0188650D01*
X0201250Y0188650D01*
X0203750Y0191150D01*
X0206250Y0188650D01*
X0211250Y0188650D01*
X0213750Y0191150D01*
X0216250Y0188650D01*
X0221250Y0188650D01*
X0223750Y0191150D01*
X0226250Y0188650D01*
X0231250Y0188650D01*
X0233750Y0191150D01*
X0236250Y0188650D01*
X0241250Y0188650D01*
X0243750Y0191150D01*
X0246250Y0188650D01*
X0251250Y0188650D01*
X0253750Y0191150D01*
X0256250Y0188650D01*
X0261250Y0188650D01*
X0263750Y0191150D01*
X0266250Y0188650D01*
X0271250Y0188650D01*
X0273750Y0191150D01*
X0273750Y0196150D01*
X0271250Y0198650D01*
X0266250Y0198650D01*
X0263750Y0201150D01*
X0261250Y0198650D01*
X0256250Y0198650D01*
X0253750Y0201150D01*
X0251250Y0198650D01*
X0246250Y0198650D01*
X0243750Y0201150D01*
X0241250Y0198650D01*
X0236250Y0198650D01*
X0233750Y0201150D01*
X0231250Y0198650D01*
X0226250Y0198650D01*
X0223750Y0201150D01*
X0221250Y0198650D01*
X0223750Y0196150D01*
X0226250Y0198650D01*
X0231250Y0198650D01*
X0233750Y0196150D01*
X0236250Y0198650D01*
X0241250Y0198650D01*
X0243750Y0196150D01*
X0246250Y0198650D01*
X0251250Y0198650D01*
X0253750Y0196150D01*
X0256250Y0198650D01*
X0261250Y0198650D01*
X0263750Y0196150D01*
X0266250Y0198650D01*
X0271250Y0198650D01*
X0273750Y0201150D01*
X0273750Y0206150D01*
X0271250Y0208650D01*
X0266250Y0208650D01*
X0263750Y0206150D01*
X0261250Y0208650D01*
X0256250Y0208650D01*
X0253750Y0206150D01*
X0251250Y0208650D01*
X0246250Y0208650D01*
X0243750Y0206150D01*
X0241250Y0208650D01*
X0236250Y0208650D01*
X0233750Y0206150D01*
X0231250Y0208650D01*
X0226250Y0208650D01*
X0223750Y0206150D01*
X0221250Y0208650D01*
X0216250Y0208650D01*
X0213750Y0206150D01*
X0211250Y0208650D01*
X0206250Y0208650D01*
X0203750Y0206150D01*
X0201250Y0208650D01*
X0196250Y0208650D01*
X0193750Y0206150D01*
X0191250Y0208650D01*
X0186250Y0208650D01*
X0183750Y0206150D01*
X0181250Y0208650D01*
X0176250Y0208650D01*
X0173750Y0206150D01*
X0171250Y0208650D01*
X0166250Y0208650D01*
X0163750Y0206150D01*
X0161250Y0208650D01*
X0156250Y0208650D01*
X0153750Y0206150D01*
X0151250Y0208650D01*
X0146250Y0208650D01*
X0143750Y0206150D01*
X0141250Y0208650D01*
X0136250Y0208650D01*
X0133750Y0206150D01*
X0131250Y0208650D01*
X0126250Y0208650D01*
X0123750Y0206150D01*
X0121250Y0208650D01*
X0116250Y0208650D01*
X0113750Y0206150D01*
X0111250Y0208650D01*
X0106250Y0208650D01*
X0103750Y0206150D01*
X0101250Y0208650D01*
X0096250Y0208650D01*
X0093750Y0206150D01*
X0091250Y0208650D01*
X0086250Y0208650D01*
X0083750Y0206150D01*
X0081250Y0208650D01*
X0076250Y0208650D01*
X0073750Y0206150D01*
X0071250Y0208650D01*
X0066250Y0208650D01*
X0063750Y0206150D01*
X0061250Y0208650D01*
X0056250Y0208650D01*
X0053750Y0206150D01*
X0051250Y0208650D01*
X0046250Y0208650D01*
X0043750Y0206150D01*
X0041250Y0208650D01*
X0036250Y0208650D01*
X0033750Y0206150D01*
X0031250Y0208650D01*
X0026250Y0208650D01*
X0023750Y0206150D01*
X0021250Y0208650D01*
X0016250Y0208650D01*
X0021250Y0208650D01*
X0023750Y0211150D01*
X0026250Y0208650D01*
X0031250Y0208650D01*
X0033750Y0211150D01*
X0036250Y0208650D01*
X0041250Y0208650D01*
X0043750Y0211150D01*
X0046250Y0208650D01*
X0051250Y0208650D01*
X0053750Y0211150D01*
X0056250Y0208650D01*
X0061250Y0208650D01*
X0063750Y0211150D01*
X0066250Y0208650D01*
X0071250Y0208650D01*
X0073750Y0211150D01*
X0076250Y0208650D01*
X0081250Y0208650D01*
X0083750Y0211150D01*
X0086250Y0208650D01*
X0091250Y0208650D01*
X0093750Y0211150D01*
X0096250Y0208650D01*
X0101250Y0208650D01*
X0103750Y0211150D01*
X0106250Y0208650D01*
X0111250Y0208650D01*
X0113750Y0211150D01*
X0116250Y0208650D01*
X0121250Y0208650D01*
X0123750Y0211150D01*
X0126250Y0208650D01*
X0131250Y0208650D01*
X0133750Y0211150D01*
X0136250Y0208650D01*
X0141250Y0208650D01*
X0143750Y0211150D01*
X0146250Y0208650D01*
X0151250Y0208650D01*
X0153750Y0211150D01*
X0156250Y0208650D01*
X0161250Y0208650D01*
X0163750Y0211150D01*
X0166250Y0208650D01*
X0171250Y0208650D01*
X0173750Y0211150D01*
X0176250Y0208650D01*
X0181250Y0208650D01*
X0183750Y0211150D01*
X0186250Y0208650D01*
X0191250Y0208650D01*
X0193750Y0211150D01*
X0196250Y0208650D01*
X0201250Y0208650D01*
X0203750Y0211150D01*
X0206250Y0208650D01*
X0211250Y0208650D01*
X0213750Y0211150D01*
X0216250Y0208650D01*
X0221250Y0208650D01*
X0223750Y0211150D01*
X0226250Y0208650D01*
X0231250Y0208650D01*
X0233750Y0211150D01*
X0236250Y0208650D01*
X0241250Y0208650D01*
X0243750Y0211150D01*
X0246250Y0208650D01*
X0251250Y0208650D01*
X0253750Y0211150D01*
X0256250Y0208650D01*
X0261250Y0208650D01*
X0263750Y0211150D01*
X0266250Y0208650D01*
X0271250Y0208650D01*
X0273750Y0211150D01*
X0273750Y0216150D01*
X0271250Y0218650D01*
X0266250Y0218650D01*
X0263750Y0216150D01*
X0261250Y0218650D01*
X0256250Y0218650D01*
X0253750Y0216150D01*
X0251250Y0218650D01*
X0246250Y0218650D01*
X0243750Y0216150D01*
X0241250Y0218650D01*
X0236250Y0218650D01*
X0233750Y0216150D01*
X0231250Y0218650D01*
X0226250Y0218650D01*
X0223750Y0216150D01*
X0221250Y0218650D01*
X0216250Y0218650D01*
X0213750Y0216150D01*
X0211250Y0218650D01*
X0206250Y0218650D01*
X0203750Y0216150D01*
X0201250Y0218650D01*
X0196250Y0218650D01*
X0193750Y0216150D01*
X0191250Y0218650D01*
X0186250Y0218650D01*
X0183750Y0216150D01*
X0181250Y0218650D01*
X0176250Y0218650D01*
X0173750Y0216150D01*
X0171250Y0218650D01*
X0166250Y0218650D01*
X0163750Y0216150D01*
X0161250Y0218650D01*
X0156250Y0218650D01*
X0153750Y0216150D01*
X0151250Y0218650D01*
X0146250Y0218650D01*
X0143750Y0216150D01*
X0141250Y0218650D01*
X0136250Y0218650D01*
X0133750Y0216150D01*
X0131250Y0218650D01*
X0126250Y0218650D01*
X0123750Y0216150D01*
X0121250Y0218650D01*
X0116250Y0218650D01*
X0113750Y0216150D01*
X0111250Y0218650D01*
X0106250Y0218650D01*
X0103750Y0216150D01*
X0101250Y0218650D01*
X0096250Y0218650D01*
X0093750Y0216150D01*
X0091250Y0218650D01*
X0086250Y0218650D01*
X0083750Y0216150D01*
X0081250Y0218650D01*
X0076250Y0218650D01*
X0073750Y0216150D01*
X0071250Y0218650D01*
X0066250Y0218650D01*
X0063750Y0216150D01*
X0061250Y0218650D01*
X0056250Y0218650D01*
X0053750Y0216150D01*
X0051250Y0218650D01*
X0046250Y0218650D01*
X0043750Y0216150D01*
X0041250Y0218650D01*
X0036250Y0218650D01*
X0033750Y0216150D01*
X0031250Y0218650D01*
X0026250Y0218650D01*
X0023750Y0216150D01*
X0021250Y0218650D01*
X0016250Y0218650D01*
X0021250Y0218650D01*
X0023750Y0221150D01*
X0026250Y0218650D01*
X0031250Y0218650D01*
X0033750Y0221150D01*
X0036250Y0218650D01*
X0041250Y0218650D01*
X0043750Y0221150D01*
X0046250Y0218650D01*
X0051250Y0218650D01*
X0053750Y0221150D01*
X0056250Y0218650D01*
X0061250Y0218650D01*
X0063750Y0221150D01*
X0066250Y0218650D01*
X0071250Y0218650D01*
X0073750Y0221150D01*
X0076250Y0218650D01*
X0081250Y0218650D01*
X0083750Y0221150D01*
X0086250Y0218650D01*
X0091250Y0218650D01*
X0093750Y0221150D01*
X0096250Y0218650D01*
X0101250Y0218650D01*
X0103750Y0221150D01*
X0106250Y0218650D01*
X0111250Y0218650D01*
X0113750Y0221150D01*
X0116250Y0218650D01*
X0121250Y0218650D01*
X0123750Y0221150D01*
X0126250Y0218650D01*
X0131250Y0218650D01*
X0133750Y0221150D01*
X0136250Y0218650D01*
X0141250Y0218650D01*
X0143750Y0221150D01*
X0146250Y0218650D01*
X0151250Y0218650D01*
X0153750Y0221150D01*
X0156250Y0218650D01*
X0161250Y0218650D01*
X0163750Y0221150D01*
X0166250Y0218650D01*
X0171250Y0218650D01*
X0173750Y0221150D01*
X0176250Y0218650D01*
X0181250Y0218650D01*
X0183750Y0221150D01*
X0186250Y0218650D01*
X0191250Y0218650D01*
X0193750Y0221150D01*
X0196250Y0218650D01*
X0201250Y0218650D01*
X0203750Y0221150D01*
X0206250Y0218650D01*
X0211250Y0218650D01*
X0213750Y0221150D01*
X0216250Y0218650D01*
X0221250Y0218650D01*
X0223750Y0221150D01*
X0226250Y0218650D01*
X0231250Y0218650D01*
X0233750Y0221150D01*
X0236250Y0218650D01*
X0241250Y0218650D01*
X0243750Y0221150D01*
X0246250Y0218650D01*
X0251250Y0218650D01*
X0253750Y0221150D01*
X0256250Y0218650D01*
X0261250Y0218650D01*
X0263750Y0221150D01*
X0266250Y0218650D01*
X0271250Y0218650D01*
X0273750Y0221150D01*
X0273750Y0226150D01*
X0271250Y0228650D01*
X0266250Y0228650D01*
X0263750Y0226150D01*
X0261250Y0228650D01*
X0256250Y0228650D01*
X0253750Y0226150D01*
X0251250Y0228650D01*
X0246250Y0228650D01*
X0243750Y0226150D01*
X0241250Y0228650D01*
X0236250Y0228650D01*
X0233750Y0226150D01*
X0231250Y0228650D01*
X0226250Y0228650D01*
X0223750Y0226150D01*
X0221250Y0228650D01*
X0216250Y0228650D01*
X0213750Y0226150D01*
X0211250Y0228650D01*
X0206250Y0228650D01*
X0203750Y0226150D01*
X0201250Y0228650D01*
X0196250Y0228650D01*
X0193750Y0226150D01*
X0191250Y0228650D01*
X0186250Y0228650D01*
X0183750Y0226150D01*
X0181250Y0228650D01*
X0176250Y0228650D01*
X0173750Y0226150D01*
X0171250Y0228650D01*
X0166250Y0228650D01*
X0163750Y0226150D01*
X0161250Y0228650D01*
X0156250Y0228650D01*
X0153750Y0226150D01*
X0151250Y0228650D01*
X0146250Y0228650D01*
X0143750Y0226150D01*
X0141250Y0228650D01*
X0136250Y0228650D01*
X0133750Y0226150D01*
X0131250Y0228650D01*
X0126250Y0228650D01*
X0123750Y0226150D01*
X0121250Y0228650D01*
X0116250Y0228650D01*
X0113750Y0226150D01*
X0111250Y0228650D01*
X0106250Y0228650D01*
X0103750Y0226150D01*
X0101250Y0228650D01*
X0096250Y0228650D01*
X0093750Y0226150D01*
X0091250Y0228650D01*
X0086250Y0228650D01*
X0083750Y0226150D01*
X0081250Y0228650D01*
X0076250Y0228650D01*
X0073750Y0226150D01*
X0071250Y0228650D01*
X0066250Y0228650D01*
X0063750Y0226150D01*
X0061250Y0228650D01*
X0056250Y0228650D01*
X0053750Y0226150D01*
X0051250Y0228650D01*
X0046250Y0228650D01*
X0043750Y0226150D01*
X0041250Y0228650D01*
X0036250Y0228650D01*
X0033750Y0226150D01*
X0031250Y0228650D01*
X0026250Y0228650D01*
X0023750Y0226150D01*
X0021250Y0228650D01*
X0016250Y0228650D01*
X0021250Y0228650D01*
X0023750Y0231150D01*
X0026250Y0228650D01*
X0031250Y0228650D01*
X0033750Y0231150D01*
X0036250Y0228650D01*
X0041250Y0228650D01*
X0043750Y0231150D01*
X0046250Y0228650D01*
X0051250Y0228650D01*
X0053750Y0231150D01*
X0056250Y0228650D01*
X0061250Y0228650D01*
X0063750Y0231150D01*
X0066250Y0228650D01*
X0071250Y0228650D01*
X0073750Y0231150D01*
X0076250Y0228650D01*
X0081250Y0228650D01*
X0083750Y0231150D01*
X0086250Y0228650D01*
X0091250Y0228650D01*
X0093750Y0231150D01*
X0096250Y0228650D01*
X0101250Y0228650D01*
X0103750Y0231150D01*
X0106250Y0228650D01*
X0111250Y0228650D01*
X0113750Y0231150D01*
X0116250Y0228650D01*
X0121250Y0228650D01*
X0123750Y0231150D01*
X0126250Y0228650D01*
X0131250Y0228650D01*
X0133750Y0231150D01*
X0136250Y0228650D01*
X0141250Y0228650D01*
X0143750Y0231150D01*
X0146250Y0228650D01*
X0151250Y0228650D01*
X0153750Y0231150D01*
X0156250Y0228650D01*
X0161250Y0228650D01*
X0163750Y0231150D01*
X0166250Y0228650D01*
X0171250Y0228650D01*
X0173750Y0231150D01*
X0176250Y0228650D01*
X0181250Y0228650D01*
X0183750Y0231150D01*
X0186250Y0228650D01*
X0191250Y0228650D01*
X0193750Y0231150D01*
X0196250Y0228650D01*
X0201250Y0228650D01*
X0203750Y0231150D01*
X0206250Y0228650D01*
X0211250Y0228650D01*
X0213750Y0231150D01*
X0216250Y0228650D01*
X0221250Y0228650D01*
X0223750Y0231150D01*
X0226250Y0228650D01*
X0231250Y0228650D01*
X0233750Y0231150D01*
X0236250Y0228650D01*
X0241250Y0228650D01*
X0243750Y0231150D01*
X0246250Y0228650D01*
X0251250Y0228650D01*
X0253750Y0231150D01*
X0256250Y0228650D01*
X0261250Y0228650D01*
X0263750Y0231150D01*
X0266250Y0228650D01*
X0271250Y0228650D01*
X0273750Y0231150D01*
X0273750Y0236150D01*
X0271250Y0238650D01*
X0266250Y0238650D01*
X0263750Y0236150D01*
X0261250Y0238650D01*
X0256250Y0238650D01*
X0253750Y0236150D01*
X0251250Y0238650D01*
X0246250Y0238650D01*
X0243750Y0236150D01*
X0241250Y0238650D01*
X0236250Y0238650D01*
X0233750Y0236150D01*
X0231250Y0238650D01*
X0226250Y0238650D01*
X0223750Y0236150D01*
X0221250Y0238650D01*
X0216250Y0238650D01*
X0213750Y0236150D01*
X0211250Y0238650D01*
X0206250Y0238650D01*
X0203750Y0236150D01*
X0201250Y0238650D01*
X0196250Y0238650D01*
X0193750Y0236150D01*
X0191250Y0238650D01*
X0186250Y0238650D01*
X0183750Y0236150D01*
X0181250Y0238650D01*
X0176250Y0238650D01*
X0173750Y0236150D01*
X0171250Y0238650D01*
X0166250Y0238650D01*
X0163750Y0236150D01*
X0161250Y0238650D01*
X0156250Y0238650D01*
X0153750Y0236150D01*
X0151250Y0238650D01*
X0146250Y0238650D01*
X0143750Y0236150D01*
X0141250Y0238650D01*
X0136250Y0238650D01*
X0133750Y0236150D01*
X0131250Y0238650D01*
X0126250Y0238650D01*
X0123750Y0236150D01*
X0121250Y0238650D01*
X0116250Y0238650D01*
X0113750Y0236150D01*
X0111250Y0238650D01*
X0106250Y0238650D01*
X0103750Y0236150D01*
X0101250Y0238650D01*
X0096250Y0238650D01*
X0093750Y0236150D01*
X0091250Y0238650D01*
X0086250Y0238650D01*
X0083750Y0236150D01*
X0081250Y0238650D01*
X0076250Y0238650D01*
X0073750Y0236150D01*
X0071250Y0238650D01*
X0066250Y0238650D01*
X0063750Y0236150D01*
X0061250Y0238650D01*
X0056250Y0238650D01*
X0053750Y0236150D01*
X0051250Y0238650D01*
X0046250Y0238650D01*
X0043750Y0236150D01*
X0041250Y0238650D01*
X0036250Y0238650D01*
X0033750Y0236150D01*
X0031250Y0238650D01*
X0026250Y0238650D01*
X0023750Y0236150D01*
X0021250Y0238650D01*
X0016250Y0238650D01*
X0021250Y0238650D01*
X0023750Y0241150D01*
X0026250Y0238650D01*
X0031250Y0238650D01*
X0033750Y0241150D01*
X0036250Y0238650D01*
X0041250Y0238650D01*
X0043750Y0241150D01*
X0046250Y0238650D01*
X0051250Y0238650D01*
X0053750Y0241150D01*
X0056250Y0238650D01*
X0061250Y0238650D01*
X0063750Y0241150D01*
X0066250Y0238650D01*
X0071250Y0238650D01*
X0073750Y0241150D01*
X0076250Y0238650D01*
X0081250Y0238650D01*
X0083750Y0241150D01*
X0086250Y0238650D01*
X0091250Y0238650D01*
X0093750Y0241150D01*
X0096250Y0238650D01*
X0101250Y0238650D01*
X0103750Y0241150D01*
X0106250Y0238650D01*
X0111250Y0238650D01*
X0113750Y0241150D01*
X0116250Y0238650D01*
X0121250Y0238650D01*
X0123750Y0241150D01*
X0126250Y0238650D01*
X0131250Y0238650D01*
X0133750Y0241150D01*
X0136250Y0238650D01*
X0141250Y0238650D01*
X0143750Y0241150D01*
X0146250Y0238650D01*
X0151250Y0238650D01*
X0153750Y0241150D01*
X0156250Y0238650D01*
X0161250Y0238650D01*
X0163750Y0241150D01*
X0166250Y0238650D01*
X0171250Y0238650D01*
X0173750Y0241150D01*
X0176250Y0238650D01*
X0181250Y0238650D01*
X0183750Y0241150D01*
X0186250Y0238650D01*
X0191250Y0238650D01*
X0193750Y0241150D01*
X0196250Y0238650D01*
X0201250Y0238650D01*
X0203750Y0241150D01*
X0206250Y0238650D01*
X0211250Y0238650D01*
X0213750Y0241150D01*
X0216250Y0238650D01*
X0221250Y0238650D01*
X0223750Y0241150D01*
X0226250Y0238650D01*
X0231250Y0238650D01*
X0233750Y0241150D01*
X0236250Y0238650D01*
X0241250Y0238650D01*
X0243750Y0241150D01*
X0246250Y0238650D01*
X0251250Y0238650D01*
X0253750Y0241150D01*
X0256250Y0238650D01*
X0261250Y0238650D01*
X0263750Y0241150D01*
X0266250Y0238650D01*
X0271250Y0238650D01*
X0273750Y0241150D01*
X0273750Y0246150D01*
X0271250Y0248650D01*
X0266250Y0248650D01*
X0263750Y0246150D01*
X0261250Y0248650D01*
X0256250Y0248650D01*
X0253750Y0246150D01*
X0251250Y0248650D01*
X0246250Y0248650D01*
X0243750Y0246150D01*
X0241250Y0248650D01*
X0236250Y0248650D01*
X0233750Y0246150D01*
X0231250Y0248650D01*
X0226250Y0248650D01*
X0223750Y0246150D01*
X0221250Y0248650D01*
X0216250Y0248650D01*
X0213750Y0246150D01*
X0211250Y0248650D01*
X0206250Y0248650D01*
X0203750Y0246150D01*
X0201250Y0248650D01*
X0196250Y0248650D01*
X0193750Y0246150D01*
X0191250Y0248650D01*
X0186250Y0248650D01*
X0183750Y0246150D01*
X0181250Y0248650D01*
X0176250Y0248650D01*
X0173750Y0246150D01*
X0171250Y0248650D01*
X0166250Y0248650D01*
X0163750Y0246150D01*
X0161250Y0248650D01*
X0156250Y0248650D01*
X0153750Y0246150D01*
X0151250Y0248650D01*
X0146250Y0248650D01*
X0143750Y0246150D01*
X0141250Y0248650D01*
X0136250Y0248650D01*
X0133750Y0246150D01*
X0131250Y0248650D01*
X0126250Y0248650D01*
X0123750Y0246150D01*
X0121250Y0248650D01*
X0116250Y0248650D01*
X0113750Y0246150D01*
X0111250Y0248650D01*
X0106250Y0248650D01*
X0103750Y0246150D01*
X0101250Y0248650D01*
X0096250Y0248650D01*
X0093750Y0246150D01*
X0091250Y0248650D01*
X0086250Y0248650D01*
X0083750Y0246150D01*
X0081250Y0248650D01*
X0076250Y0248650D01*
X0073750Y0246150D01*
X0071250Y0248650D01*
X0066250Y0248650D01*
X0063750Y0246150D01*
X0061250Y0248650D01*
X0056250Y0248650D01*
X0053750Y0246150D01*
X0051250Y0248650D01*
X0046250Y0248650D01*
X0043750Y0246150D01*
X0041250Y0248650D01*
X0036250Y0248650D01*
X0033750Y0246150D01*
X0031250Y0248650D01*
X0026250Y0248650D01*
X0023750Y0246150D01*
X0021250Y0248650D01*
X0016250Y0248650D01*
X0021250Y0248650D01*
X0023750Y0251150D01*
X0026250Y0248650D01*
X0031250Y0248650D01*
X0033750Y0251150D01*
X0036250Y0248650D01*
X0041250Y0248650D01*
X0043750Y0251150D01*
X0046250Y0248650D01*
X0051250Y0248650D01*
X0053750Y0251150D01*
X0056250Y0248650D01*
X0061250Y0248650D01*
X0063750Y0251150D01*
X0066250Y0248650D01*
X0071250Y0248650D01*
X0073750Y0251150D01*
X0076250Y0248650D01*
X0081250Y0248650D01*
X0083750Y0251150D01*
X0086250Y0248650D01*
X0091250Y0248650D01*
X0093750Y0251150D01*
X0096250Y0248650D01*
X0101250Y0248650D01*
X0103750Y0251150D01*
X0106250Y0248650D01*
X0111250Y0248650D01*
X0113750Y0251150D01*
X0116250Y0248650D01*
X0121250Y0248650D01*
X0123750Y0251150D01*
X0126250Y0248650D01*
X0131250Y0248650D01*
X0133750Y0251150D01*
X0136250Y0248650D01*
X0141250Y0248650D01*
X0143750Y0251150D01*
X0146250Y0248650D01*
X0151250Y0248650D01*
X0153750Y0251150D01*
X0156250Y0248650D01*
X0161250Y0248650D01*
X0163750Y0251150D01*
X0166250Y0248650D01*
X0171250Y0248650D01*
X0173750Y0251150D01*
X0176250Y0248650D01*
X0181250Y0248650D01*
X0183750Y0251150D01*
X0186250Y0248650D01*
X0191250Y0248650D01*
X0193750Y0251150D01*
X0196250Y0248650D01*
X0201250Y0248650D01*
X0203750Y0251150D01*
X0206250Y0248650D01*
X0211250Y0248650D01*
X0213750Y0251150D01*
X0216250Y0248650D01*
X0221250Y0248650D01*
X0223750Y0251150D01*
X0226250Y0248650D01*
X0231250Y0248650D01*
X0233750Y0251150D01*
X0236250Y0248650D01*
X0241250Y0248650D01*
X0243750Y0251150D01*
X0246250Y0248650D01*
X0251250Y0248650D01*
X0253750Y0251150D01*
X0256250Y0248650D01*
X0261250Y0248650D01*
X0263750Y0251150D01*
X0266250Y0248650D01*
X0271250Y0248650D01*
X0273750Y0251150D01*
X0273750Y0256150D01*
X0271250Y0258650D01*
X0266250Y0258650D01*
X0263750Y0256150D01*
X0261250Y0258650D01*
X0256250Y0258650D01*
X0253750Y0256150D01*
X0251250Y0258650D01*
X0246250Y0258650D01*
X0243750Y0256150D01*
X0241250Y0258650D01*
X0236250Y0258650D01*
X0233750Y0256150D01*
X0231250Y0258650D01*
X0226250Y0258650D01*
X0223750Y0256150D01*
X0221250Y0258650D01*
X0216250Y0258650D01*
X0213750Y0256150D01*
X0211250Y0258650D01*
X0206250Y0258650D01*
X0203750Y0256150D01*
X0201250Y0258650D01*
X0196250Y0258650D01*
X0193750Y0256150D01*
X0191250Y0258650D01*
X0186250Y0258650D01*
X0183750Y0256150D01*
X0181250Y0258650D01*
X0176250Y0258650D01*
X0173750Y0256150D01*
X0171250Y0258650D01*
X0166250Y0258650D01*
X0163750Y0256150D01*
X0161250Y0258650D01*
X0156250Y0258650D01*
X0153750Y0256150D01*
X0151250Y0258650D01*
X0146250Y0258650D01*
X0143750Y0256150D01*
X0141250Y0258650D01*
X0136250Y0258650D01*
X0133750Y0256150D01*
X0131250Y0258650D01*
X0126250Y0258650D01*
X0123750Y0256150D01*
X0121250Y0258650D01*
X0116250Y0258650D01*
X0113750Y0256150D01*
X0111250Y0258650D01*
X0106250Y0258650D01*
X0103750Y0256150D01*
X0101250Y0258650D01*
X0096250Y0258650D01*
X0093750Y0256150D01*
X0091250Y0258650D01*
X0086250Y0258650D01*
X0083750Y0256150D01*
X0081250Y0258650D01*
X0076250Y0258650D01*
X0073750Y0256150D01*
X0071250Y0258650D01*
X0066250Y0258650D01*
X0063750Y0256150D01*
X0061250Y0258650D01*
X0056250Y0258650D01*
X0053750Y0256150D01*
X0051250Y0258650D01*
X0046250Y0258650D01*
X0043750Y0256150D01*
X0041250Y0258650D01*
X0036250Y0258650D01*
X0033750Y0256150D01*
X0031250Y0258650D01*
X0026250Y0258650D01*
X0023750Y0256150D01*
X0021250Y0258650D01*
X0016250Y0258650D01*
X0021250Y0258650D01*
X0023750Y0261150D01*
X0026250Y0258650D01*
X0031250Y0258650D01*
X0033750Y0261150D01*
X0036250Y0258650D01*
X0041250Y0258650D01*
X0043750Y0261150D01*
X0046250Y0258650D01*
X0051250Y0258650D01*
X0053750Y0261150D01*
X0056250Y0258650D01*
X0061250Y0258650D01*
X0063750Y0261150D01*
X0066250Y0258650D01*
X0071250Y0258650D01*
X0073750Y0261150D01*
X0076250Y0258650D01*
X0081250Y0258650D01*
X0083750Y0261150D01*
X0086250Y0258650D01*
X0091250Y0258650D01*
X0093750Y0261150D01*
X0096250Y0258650D01*
X0101250Y0258650D01*
X0103750Y0261150D01*
X0106250Y0258650D01*
X0111250Y0258650D01*
X0113750Y0261150D01*
X0116250Y0258650D01*
X0121250Y0258650D01*
X0123750Y0261150D01*
X0126250Y0258650D01*
X0131250Y0258650D01*
X0133750Y0261150D01*
X0136250Y0258650D01*
X0141250Y0258650D01*
X0143750Y0261150D01*
X0146250Y0258650D01*
X0151250Y0258650D01*
X0153750Y0261150D01*
X0156250Y0258650D01*
X0161250Y0258650D01*
X0163750Y0261150D01*
X0166250Y0258650D01*
X0171250Y0258650D01*
X0173750Y0261150D01*
X0176250Y0258650D01*
X0181250Y0258650D01*
X0183750Y0261150D01*
X0186250Y0258650D01*
X0191250Y0258650D01*
X0193750Y0261150D01*
X0196250Y0258650D01*
X0201250Y0258650D01*
X0203750Y0261150D01*
X0206250Y0258650D01*
X0211250Y0258650D01*
X0213750Y0261150D01*
X0216250Y0258650D01*
X0221250Y0258650D01*
X0223750Y0261150D01*
X0226250Y0258650D01*
X0231250Y0258650D01*
X0233750Y0261150D01*
X0236250Y0258650D01*
X0241250Y0258650D01*
X0243750Y0261150D01*
X0246250Y0258650D01*
X0251250Y0258650D01*
X0253750Y0261150D01*
X0256250Y0258650D01*
X0261250Y0258650D01*
X0263750Y0261150D01*
X0266250Y0258650D01*
X0271250Y0258650D01*
X0273750Y0261150D01*
X0273750Y0266150D01*
X0271250Y0268650D01*
X0266250Y0268650D01*
X0263750Y0266150D01*
X0261250Y0268650D01*
X0256250Y0268650D01*
X0253750Y0266150D01*
X0251250Y0268650D01*
X0246250Y0268650D01*
X0243750Y0266150D01*
X0241250Y0268650D01*
X0236250Y0268650D01*
X0233750Y0266150D01*
X0231250Y0268650D01*
X0226250Y0268650D01*
X0223750Y0266150D01*
X0221250Y0268650D01*
X0216250Y0268650D01*
X0213750Y0266150D01*
X0211250Y0268650D01*
X0206250Y0268650D01*
X0203750Y0266150D01*
X0201250Y0268650D01*
X0196250Y0268650D01*
X0193750Y0266150D01*
X0191250Y0268650D01*
X0186250Y0268650D01*
X0183750Y0266150D01*
X0181250Y0268650D01*
X0176250Y0268650D01*
X0173750Y0266150D01*
X0171250Y0268650D01*
X0166250Y0268650D01*
X0163750Y0266150D01*
X0161250Y0268650D01*
X0156250Y0268650D01*
X0153750Y0266150D01*
X0151250Y0268650D01*
X0146250Y0268650D01*
X0143750Y0266150D01*
X0141250Y0268650D01*
X0136250Y0268650D01*
X0133750Y0266150D01*
X0131250Y0268650D01*
X0126250Y0268650D01*
X0123750Y0266150D01*
X0121250Y0268650D01*
X0116250Y0268650D01*
X0113750Y0266150D01*
X0111250Y0268650D01*
X0106250Y0268650D01*
X0103750Y0266150D01*
X0101250Y0268650D01*
X0096250Y0268650D01*
X0093750Y0266150D01*
X0091250Y0268650D01*
X0086250Y0268650D01*
X0083750Y0266150D01*
X0081250Y0268650D01*
X0076250Y0268650D01*
X0073750Y0266150D01*
X0071250Y0268650D01*
X0066250Y0268650D01*
X0063750Y0266150D01*
X0061250Y0268650D01*
X0056250Y0268650D01*
X0053750Y0266150D01*
X0051250Y0268650D01*
X0046250Y0268650D01*
X0043750Y0266150D01*
X0041250Y0268650D01*
X0036250Y0268650D01*
X0033750Y0266150D01*
X0031250Y0268650D01*
X0026250Y0268650D01*
X0023750Y0266150D01*
X0021250Y0268650D01*
X0016250Y0268650D01*
X0021250Y0268650D01*
X0023750Y0271150D01*
X0026250Y0268650D01*
X0031250Y0268650D01*
X0033750Y0271150D01*
X0036250Y0268650D01*
X0041250Y0268650D01*
X0043750Y0271150D01*
X0046250Y0268650D01*
X0051250Y0268650D01*
X0053750Y0271150D01*
X0056250Y0268650D01*
X0061250Y0268650D01*
X0063750Y0271150D01*
X0066250Y0268650D01*
X0071250Y0268650D01*
X0073750Y0271150D01*
X0076250Y0268650D01*
X0081250Y0268650D01*
X0083750Y0271150D01*
X0086250Y0268650D01*
X0091250Y0268650D01*
X0093750Y0271150D01*
X0096250Y0268650D01*
X0101250Y0268650D01*
X0103750Y0271150D01*
X0106250Y0268650D01*
X0111250Y0268650D01*
X0113750Y0271150D01*
X0116250Y0268650D01*
X0121250Y0268650D01*
X0123750Y0271150D01*
X0126250Y0268650D01*
X0131250Y0268650D01*
X0133750Y0271150D01*
X0136250Y0268650D01*
X0141250Y0268650D01*
X0143750Y0271150D01*
X0146250Y0268650D01*
X0151250Y0268650D01*
X0153750Y0271150D01*
X0156250Y0268650D01*
X0161250Y0268650D01*
X0163750Y0271150D01*
X0166250Y0268650D01*
X0171250Y0268650D01*
X0173750Y0271150D01*
X0176250Y0268650D01*
X0181250Y0268650D01*
X0183750Y0271150D01*
X0186250Y0268650D01*
X0191250Y0268650D01*
X0193750Y0271150D01*
X0196250Y0268650D01*
X0201250Y0268650D01*
X0203750Y0271150D01*
X0206250Y0268650D01*
X0211250Y0268650D01*
X0213750Y0271150D01*
X0216250Y0268650D01*
X0221250Y0268650D01*
X0223750Y0271150D01*
X0226250Y0268650D01*
X0231250Y0268650D01*
X0233750Y0271150D01*
X0236250Y0268650D01*
X0241250Y0268650D01*
X0243750Y0271150D01*
X0246250Y0268650D01*
X0251250Y0268650D01*
X0253750Y0271150D01*
X0256250Y0268650D01*
X0261250Y0268650D01*
X0263750Y0271150D01*
X0266250Y0268650D01*
X0271250Y0268650D01*
X0273750Y0271150D01*
X0273750Y0276150D01*
X0271250Y0278650D01*
X0266250Y0278650D01*
X0263750Y0276150D01*
X0261250Y0278650D01*
X0256250Y0278650D01*
X0253750Y0276150D01*
X0251250Y0278650D01*
X0246250Y0278650D01*
X0243750Y0276150D01*
X0241250Y0278650D01*
X0236250Y0278650D01*
X0233750Y0276150D01*
X0231250Y0278650D01*
X0226250Y0278650D01*
X0223750Y0276150D01*
X0221250Y0278650D01*
X0216250Y0278650D01*
X0213750Y0276150D01*
X0211250Y0278650D01*
X0206250Y0278650D01*
X0203750Y0276150D01*
X0201250Y0278650D01*
X0196250Y0278650D01*
X0193750Y0276150D01*
X0191250Y0278650D01*
X0186250Y0278650D01*
X0183750Y0276150D01*
X0181250Y0278650D01*
X0176250Y0278650D01*
X0173750Y0276150D01*
X0171250Y0278650D01*
X0166250Y0278650D01*
X0163750Y0276150D01*
X0161250Y0278650D01*
X0156250Y0278650D01*
X0153750Y0276150D01*
X0151250Y0278650D01*
X0146250Y0278650D01*
X0143750Y0276150D01*
X0141250Y0278650D01*
X0136250Y0278650D01*
X0133750Y0276150D01*
X0131250Y0278650D01*
X0126250Y0278650D01*
X0123750Y0276150D01*
X0121250Y0278650D01*
X0116250Y0278650D01*
X0113750Y0276150D01*
X0111250Y0278650D01*
X0106250Y0278650D01*
X0103750Y0276150D01*
X0101250Y0278650D01*
X0096250Y0278650D01*
X0093750Y0276150D01*
X0091250Y0278650D01*
X0086250Y0278650D01*
X0083750Y0276150D01*
X0081250Y0278650D01*
X0076250Y0278650D01*
X0073750Y0276150D01*
X0071250Y0278650D01*
X0066250Y0278650D01*
X0063750Y0276150D01*
X0061250Y0278650D01*
X0056250Y0278650D01*
X0053750Y0276150D01*
X0051250Y0278650D01*
X0046250Y0278650D01*
X0043750Y0276150D01*
X0041250Y0278650D01*
X0036250Y0278650D01*
X0033750Y0276150D01*
X0031250Y0278650D01*
X0026250Y0278650D01*
X0023750Y0276150D01*
X0021250Y0278650D01*
X0016250Y0278650D01*
X0021250Y0278650D01*
X0023750Y0281150D01*
X0026250Y0278650D01*
X0031250Y0278650D01*
X0033750Y0281150D01*
X0036250Y0278650D01*
X0041250Y0278650D01*
X0043750Y0281150D01*
X0046250Y0278650D01*
X0051250Y0278650D01*
X0053750Y0281150D01*
X0056250Y0278650D01*
X0061250Y0278650D01*
X0063750Y0281150D01*
X0066250Y0278650D01*
X0071250Y0278650D01*
X0073750Y0281150D01*
X0076250Y0278650D01*
X0081250Y0278650D01*
X0083750Y0281150D01*
X0086250Y0278650D01*
X0091250Y0278650D01*
X0093750Y0281150D01*
X0096250Y0278650D01*
X0101250Y0278650D01*
X0103750Y0281150D01*
X0106250Y0278650D01*
X0111250Y0278650D01*
X0113750Y0281150D01*
X0116250Y0278650D01*
X0121250Y0278650D01*
X0123750Y0281150D01*
X0126250Y0278650D01*
X0131250Y0278650D01*
X0133750Y0281150D01*
X0136250Y0278650D01*
X0141250Y0278650D01*
X0143750Y0281150D01*
X0146250Y0278650D01*
X0151250Y0278650D01*
X0153750Y0281150D01*
X0156250Y0278650D01*
X0161250Y0278650D01*
X0163750Y0281150D01*
X0166250Y0278650D01*
X0171250Y0278650D01*
X0173750Y0281150D01*
X0176250Y0278650D01*
X0181250Y0278650D01*
X0183750Y0281150D01*
X0186250Y0278650D01*
X0191250Y0278650D01*
X0193750Y0281150D01*
X0196250Y0278650D01*
X0201250Y0278650D01*
X0203750Y0281150D01*
X0206250Y0278650D01*
X0211250Y0278650D01*
X0213750Y0281150D01*
X0216250Y0278650D01*
X0221250Y0278650D01*
X0223750Y0281150D01*
X0226250Y0278650D01*
X0231250Y0278650D01*
X0233750Y0281150D01*
X0236250Y0278650D01*
X0241250Y0278650D01*
X0243750Y0281150D01*
X0246250Y0278650D01*
X0251250Y0278650D01*
X0253750Y0281150D01*
X0256250Y0278650D01*
X0261250Y0278650D01*
X0263750Y0281150D01*
X0266250Y0278650D01*
X0271250Y0278650D01*
X0273750Y0281150D01*
X0273750Y0286150D01*
X0271250Y0288650D01*
X0266250Y0288650D01*
X0263750Y0286150D01*
X0261250Y0288650D01*
X0256250Y0288650D01*
X0253750Y0286150D01*
X0251250Y0288650D01*
X0246250Y0288650D01*
X0243750Y0286150D01*
X0241250Y0288650D01*
X0236250Y0288650D01*
X0233750Y0286150D01*
X0231250Y0288650D01*
X0226250Y0288650D01*
X0223750Y0286150D01*
X0221250Y0288650D01*
X0216250Y0288650D01*
X0213750Y0286150D01*
X0211250Y0288650D01*
X0206250Y0288650D01*
X0203750Y0286150D01*
X0201250Y0288650D01*
X0196250Y0288650D01*
X0193750Y0286150D01*
X0191250Y0288650D01*
X0186250Y0288650D01*
X0183750Y0286150D01*
X0181250Y0288650D01*
X0176250Y0288650D01*
X0173750Y0286150D01*
X0171250Y0288650D01*
X0166250Y0288650D01*
X0163750Y0286150D01*
X0161250Y0288650D01*
X0156250Y0288650D01*
X0153750Y0286150D01*
X0151250Y0288650D01*
X0146250Y0288650D01*
X0143750Y0286150D01*
X0141250Y0288650D01*
X0136250Y0288650D01*
X0133750Y0286150D01*
X0131250Y0288650D01*
X0126250Y0288650D01*
X0123750Y0286150D01*
X0121250Y0288650D01*
X0116250Y0288650D01*
X0113750Y0286150D01*
X0111250Y0288650D01*
X0106250Y0288650D01*
X0103750Y0286150D01*
X0101250Y0288650D01*
X0096250Y0288650D01*
X0093750Y0286150D01*
X0091250Y0288650D01*
X0086250Y0288650D01*
X0083750Y0286150D01*
X0081250Y0288650D01*
X0076250Y0288650D01*
X0073750Y0286150D01*
X0071250Y0288650D01*
X0066250Y0288650D01*
X0063750Y0286150D01*
X0061250Y0288650D01*
X0056250Y0288650D01*
X0053750Y0286150D01*
X0051250Y0288650D01*
X0046250Y0288650D01*
X0043750Y0286150D01*
X0041250Y0288650D01*
X0036250Y0288650D01*
X0033750Y0286150D01*
X0031250Y0288650D01*
X0026250Y0288650D01*
X0023750Y0286150D01*
X0021250Y0288650D01*
X0016250Y0288650D01*
X0021250Y0288650D01*
X0023750Y0291150D01*
X0026250Y0288650D01*
X0031250Y0288650D01*
X0033750Y0291150D01*
X0036250Y0288650D01*
X0041250Y0288650D01*
X0043750Y0291150D01*
X0046250Y0288650D01*
X0051250Y0288650D01*
X0053750Y0291150D01*
X0056250Y0288650D01*
X0061250Y0288650D01*
X0063750Y0291150D01*
X0066250Y0288650D01*
X0071250Y0288650D01*
X0073750Y0291150D01*
X0076250Y0288650D01*
X0081250Y0288650D01*
X0083750Y0291150D01*
X0086250Y0288650D01*
X0091250Y0288650D01*
X0093750Y0291150D01*
X0096250Y0288650D01*
X0101250Y0288650D01*
X0103750Y0291150D01*
X0106250Y0288650D01*
X0111250Y0288650D01*
X0113750Y0291150D01*
X0116250Y0288650D01*
X0121250Y0288650D01*
X0123750Y0291150D01*
X0126250Y0288650D01*
X0131250Y0288650D01*
X0133750Y0291150D01*
X0136250Y0288650D01*
X0141250Y0288650D01*
X0143750Y0291150D01*
X0146250Y0288650D01*
X0151250Y0288650D01*
X0153750Y0291150D01*
X0156250Y0288650D01*
X0161250Y0288650D01*
X0163750Y0291150D01*
X0166250Y0288650D01*
X0171250Y0288650D01*
X0173750Y0291150D01*
X0176250Y0288650D01*
X0181250Y0288650D01*
X0183750Y0291150D01*
X0186250Y0288650D01*
X0191250Y0288650D01*
X0193750Y0291150D01*
X0196250Y0288650D01*
X0201250Y0288650D01*
X0203750Y0291150D01*
X0206250Y0288650D01*
X0211250Y0288650D01*
X0213750Y0291150D01*
X0216250Y0288650D01*
X0221250Y0288650D01*
X0223750Y0291150D01*
X0226250Y0288650D01*
X0231250Y0288650D01*
X0233750Y0291150D01*
X0236250Y0288650D01*
X0241250Y0288650D01*
X0243750Y0291150D01*
X0246250Y0288650D01*
X0251250Y0288650D01*
X0253750Y0291150D01*
X0256250Y0288650D01*
X0261250Y0288650D01*
X0263750Y0291150D01*
X0266250Y0288650D01*
X0271250Y0288650D01*
X0273750Y0291150D01*
X0273750Y0296150D01*
X0271250Y0298650D01*
X0266250Y0298650D01*
X0263750Y0296150D01*
X0261250Y0298650D01*
X0256250Y0298650D01*
X0253750Y0296150D01*
X0251250Y0298650D01*
X0246250Y0298650D01*
X0243750Y0296150D01*
X0241250Y0298650D01*
X0236250Y0298650D01*
X0233750Y0296150D01*
X0231250Y0298650D01*
X0226250Y0298650D01*
X0223750Y0296150D01*
X0221250Y0298650D01*
X0216250Y0298650D01*
X0213750Y0296150D01*
X0211250Y0298650D01*
X0206250Y0298650D01*
X0203750Y0296150D01*
X0201250Y0298650D01*
X0196250Y0298650D01*
X0193750Y0296150D01*
X0191250Y0298650D01*
X0186250Y0298650D01*
X0183750Y0296150D01*
X0181250Y0298650D01*
X0176250Y0298650D01*
X0173750Y0296150D01*
X0171250Y0298650D01*
X0166250Y0298650D01*
X0163750Y0296150D01*
X0161250Y0298650D01*
X0156250Y0298650D01*
X0153750Y0296150D01*
X0151250Y0298650D01*
X0146250Y0298650D01*
X0143750Y0296150D01*
X0141250Y0298650D01*
X0136250Y0298650D01*
X0133750Y0296150D01*
X0131250Y0298650D01*
X0126250Y0298650D01*
X0123750Y0296150D01*
X0121250Y0298650D01*
X0116250Y0298650D01*
X0113750Y0296150D01*
X0111250Y0298650D01*
X0106250Y0298650D01*
X0103750Y0296150D01*
X0101250Y0298650D01*
X0096250Y0298650D01*
X0093750Y0296150D01*
X0091250Y0298650D01*
X0086250Y0298650D01*
X0083750Y0296150D01*
X0081250Y0298650D01*
X0076250Y0298650D01*
X0073750Y0296150D01*
X0071250Y0298650D01*
X0066250Y0298650D01*
X0063750Y0296150D01*
X0061250Y0298650D01*
X0056250Y0298650D01*
X0053750Y0296150D01*
X0051250Y0298650D01*
X0046250Y0298650D01*
X0043750Y0296150D01*
X0041250Y0298650D01*
X0036250Y0298650D01*
X0033750Y0296150D01*
X0031250Y0298650D01*
X0026250Y0298650D01*
X0023750Y0296150D01*
X0021250Y0298650D01*
X0016250Y0298650D01*
X0021250Y0298650D01*
X0023750Y0301150D01*
X0026250Y0298650D01*
X0031250Y0298650D01*
X0033750Y0301150D01*
X0036250Y0298650D01*
X0041250Y0298650D01*
X0043750Y0301150D01*
X0046250Y0298650D01*
X0051250Y0298650D01*
X0053750Y0301150D01*
X0056250Y0298650D01*
X0061250Y0298650D01*
X0063750Y0301150D01*
X0066250Y0298650D01*
X0071250Y0298650D01*
X0073750Y0301150D01*
X0076250Y0298650D01*
X0081250Y0298650D01*
X0083750Y0301150D01*
X0086250Y0298650D01*
X0091250Y0298650D01*
X0093750Y0301150D01*
X0096250Y0298650D01*
X0101250Y0298650D01*
X0103750Y0301150D01*
X0106250Y0298650D01*
X0111250Y0298650D01*
X0113750Y0301150D01*
X0116250Y0298650D01*
X0121250Y0298650D01*
X0123750Y0301150D01*
X0126250Y0298650D01*
X0131250Y0298650D01*
X0133750Y0301150D01*
X0136250Y0298650D01*
X0141250Y0298650D01*
X0143750Y0301150D01*
X0146250Y0298650D01*
X0151250Y0298650D01*
X0153750Y0301150D01*
X0156250Y0298650D01*
X0161250Y0298650D01*
X0163750Y0301150D01*
X0166250Y0298650D01*
X0171250Y0298650D01*
X0173750Y0301150D01*
X0176250Y0298650D01*
X0181250Y0298650D01*
X0183750Y0301150D01*
X0186250Y0298650D01*
X0191250Y0298650D01*
X0193750Y0301150D01*
X0196250Y0298650D01*
X0201250Y0298650D01*
X0203750Y0301150D01*
X0206250Y0298650D01*
X0211250Y0298650D01*
X0213750Y0301150D01*
X0216250Y0298650D01*
X0221250Y0298650D01*
X0223750Y0301150D01*
X0226250Y0298650D01*
X0231250Y0298650D01*
X0233750Y0301150D01*
X0236250Y0298650D01*
X0241250Y0298650D01*
X0243750Y0301150D01*
X0246250Y0298650D01*
X0251250Y0298650D01*
X0253750Y0301150D01*
X0256250Y0298650D01*
X0261250Y0298650D01*
X0263750Y0301150D01*
X0266250Y0298650D01*
X0271250Y0298650D01*
X0273750Y0301150D01*
X0273750Y0306150D01*
X0271250Y0308650D01*
X0266250Y0308650D01*
X0263750Y0306150D01*
X0261250Y0308650D01*
X0256250Y0308650D01*
X0253750Y0306150D01*
X0251250Y0308650D01*
X0246250Y0308650D01*
X0243750Y0306150D01*
X0241250Y0308650D01*
X0236250Y0308650D01*
X0233750Y0306150D01*
X0231250Y0308650D01*
X0226250Y0308650D01*
X0223750Y0306150D01*
X0221250Y0308650D01*
X0216250Y0308650D01*
X0213750Y0306150D01*
X0211250Y0308650D01*
X0206250Y0308650D01*
X0203750Y0306150D01*
X0201250Y0308650D01*
X0196250Y0308650D01*
X0193750Y0306150D01*
X0191250Y0308650D01*
X0186250Y0308650D01*
X0183750Y0306150D01*
X0181250Y0308650D01*
X0176250Y0308650D01*
X0173750Y0306150D01*
X0171250Y0308650D01*
X0166250Y0308650D01*
X0163750Y0306150D01*
X0161250Y0308650D01*
X0156250Y0308650D01*
X0153750Y0306150D01*
X0151250Y0308650D01*
X0146250Y0308650D01*
X0143750Y0306150D01*
X0141250Y0308650D01*
X0136250Y0308650D01*
X0133750Y0306150D01*
X0131250Y0308650D01*
X0126250Y0308650D01*
X0123750Y0306150D01*
X0121250Y0308650D01*
X0116250Y0308650D01*
X0113750Y0306150D01*
X0111250Y0308650D01*
X0106250Y0308650D01*
X0103750Y0306150D01*
X0101250Y0308650D01*
X0096250Y0308650D01*
X0093750Y0306150D01*
X0091250Y0308650D01*
X0086250Y0308650D01*
X0083750Y0306150D01*
X0081250Y0308650D01*
X0076250Y0308650D01*
X0073750Y0306150D01*
X0071250Y0308650D01*
X0066250Y0308650D01*
X0063750Y0306150D01*
X0061250Y0308650D01*
X0056250Y0308650D01*
X0053750Y0306150D01*
X0051250Y0308650D01*
X0046250Y0308650D01*
X0043750Y0306150D01*
X0041250Y0308650D01*
X0036250Y0308650D01*
X0033750Y0306150D01*
X0031250Y0308650D01*
X0026250Y0308650D01*
X0023750Y0306150D01*
X0021250Y0308650D01*
X0016250Y0308650D01*
X0021250Y0308650D01*
X0023750Y0311150D01*
X0026250Y0308650D01*
X0031250Y0308650D01*
X0033750Y0311150D01*
X0036250Y0308650D01*
X0041250Y0308650D01*
X0043750Y0311150D01*
X0046250Y0308650D01*
X0051250Y0308650D01*
X0053750Y0311150D01*
X0056250Y0308650D01*
X0061250Y0308650D01*
X0063750Y0311150D01*
X0066250Y0308650D01*
X0071250Y0308650D01*
X0073750Y0311150D01*
X0076250Y0308650D01*
X0081250Y0308650D01*
X0083750Y0311150D01*
X0086250Y0308650D01*
X0091250Y0308650D01*
X0093750Y0311150D01*
X0096250Y0308650D01*
X0101250Y0308650D01*
X0103750Y0311150D01*
X0106250Y0308650D01*
X0111250Y0308650D01*
X0113750Y0311150D01*
X0116250Y0308650D01*
X0121250Y0308650D01*
X0123750Y0311150D01*
X0126250Y0308650D01*
X0131250Y0308650D01*
X0133750Y0311150D01*
X0136250Y0308650D01*
X0141250Y0308650D01*
X0143750Y0311150D01*
X0146250Y0308650D01*
X0151250Y0308650D01*
X0153750Y0311150D01*
X0156250Y0308650D01*
X0161250Y0308650D01*
X0163750Y0311150D01*
X0166250Y0308650D01*
X0171250Y0308650D01*
X0173750Y0311150D01*
X0176250Y0308650D01*
X0181250Y0308650D01*
X0183750Y0311150D01*
X0186250Y0308650D01*
X0191250Y0308650D01*
X0193750Y0311150D01*
X0196250Y0308650D01*
X0201250Y0308650D01*
X0203750Y0311150D01*
X0206250Y0308650D01*
X0211250Y0308650D01*
X0213750Y0311150D01*
X0216250Y0308650D01*
X0221250Y0308650D01*
X0223750Y0311150D01*
X0226250Y0308650D01*
X0231250Y0308650D01*
X0233750Y0311150D01*
X0236250Y0308650D01*
X0241250Y0308650D01*
X0243750Y0311150D01*
X0246250Y0308650D01*
X0251250Y0308650D01*
X0253750Y0311150D01*
X0256250Y0308650D01*
X0261250Y0308650D01*
X0263750Y0311150D01*
X0266250Y0308650D01*
X0271250Y0308650D01*
X0273750Y0311150D01*
X0273750Y0316150D01*
X0271250Y0318650D01*
X0266250Y0318650D01*
X0263750Y0316150D01*
X0261250Y0318650D01*
X0256250Y0318650D01*
X0253750Y0316150D01*
X0251250Y0318650D01*
X0246250Y0318650D01*
X0243750Y0316150D01*
X0241250Y0318650D01*
X0236250Y0318650D01*
X0233750Y0316150D01*
X0231250Y0318650D01*
X0226250Y0318650D01*
X0223750Y0316150D01*
X0221250Y0318650D01*
X0216250Y0318650D01*
X0213750Y0316150D01*
X0211250Y0318650D01*
X0206250Y0318650D01*
X0203750Y0316150D01*
X0201250Y0318650D01*
X0196250Y0318650D01*
X0193750Y0316150D01*
X0191250Y0318650D01*
X0186250Y0318650D01*
X0183750Y0316150D01*
X0181250Y0318650D01*
X0176250Y0318650D01*
X0173750Y0316150D01*
X0171250Y0318650D01*
X0166250Y0318650D01*
X0163750Y0316150D01*
X0161250Y0318650D01*
X0156250Y0318650D01*
X0153750Y0316150D01*
X0151250Y0318650D01*
X0146250Y0318650D01*
X0143750Y0316150D01*
X0141250Y0318650D01*
X0136250Y0318650D01*
X0133750Y0316150D01*
X0131250Y0318650D01*
X0126250Y0318650D01*
X0123750Y0316150D01*
X0121250Y0318650D01*
X0116250Y0318650D01*
X0113750Y0316150D01*
X0111250Y0318650D01*
X0106250Y0318650D01*
X0103750Y0316150D01*
X0101250Y0318650D01*
X0096250Y0318650D01*
X0093750Y0316150D01*
X0091250Y0318650D01*
X0086250Y0318650D01*
X0083750Y0316150D01*
X0081250Y0318650D01*
X0076250Y0318650D01*
X0073750Y0316150D01*
X0071250Y0318650D01*
X0066250Y0318650D01*
X0063750Y0316150D01*
X0061250Y0318650D01*
X0056250Y0318650D01*
X0053750Y0316150D01*
X0051250Y0318650D01*
X0046250Y0318650D01*
X0043750Y0316150D01*
X0041250Y0318650D01*
X0036250Y0318650D01*
X0033750Y0316150D01*
X0031250Y0318650D01*
X0026250Y0318650D01*
X0023750Y0316150D01*
X0021250Y0318650D01*
X0016250Y0318650D01*
X0021250Y0318650D01*
X0023750Y0321150D01*
X0026250Y0318650D01*
X0031250Y0318650D01*
X0033750Y0321150D01*
X0036250Y0318650D01*
X0041250Y0318650D01*
X0043750Y0321150D01*
X0046250Y0318650D01*
X0051250Y0318650D01*
X0053750Y0321150D01*
X0056250Y0318650D01*
X0061250Y0318650D01*
X0063750Y0321150D01*
X0066250Y0318650D01*
X0071250Y0318650D01*
X0073750Y0321150D01*
X0076250Y0318650D01*
X0081250Y0318650D01*
X0083750Y0321150D01*
X0086250Y0318650D01*
X0091250Y0318650D01*
X0093750Y0321150D01*
X0096250Y0318650D01*
X0101250Y0318650D01*
X0103750Y0321150D01*
X0106250Y0318650D01*
X0111250Y0318650D01*
X0113750Y0321150D01*
X0116250Y0318650D01*
X0121250Y0318650D01*
X0123750Y0321150D01*
X0126250Y0318650D01*
X0131250Y0318650D01*
X0133750Y0321150D01*
X0136250Y0318650D01*
X0141250Y0318650D01*
X0143750Y0321150D01*
X0146250Y0318650D01*
X0151250Y0318650D01*
X0153750Y0321150D01*
X0156250Y0318650D01*
X0161250Y0318650D01*
X0163750Y0321150D01*
X0166250Y0318650D01*
X0171250Y0318650D01*
X0173750Y0321150D01*
X0176250Y0318650D01*
X0181250Y0318650D01*
X0183750Y0321150D01*
X0186250Y0318650D01*
X0191250Y0318650D01*
X0193750Y0321150D01*
X0196250Y0318650D01*
X0201250Y0318650D01*
X0203750Y0321150D01*
X0206250Y0318650D01*
X0211250Y0318650D01*
X0213750Y0321150D01*
X0216250Y0318650D01*
X0221250Y0318650D01*
X0223750Y0321150D01*
X0226250Y0318650D01*
X0231250Y0318650D01*
X0233750Y0321150D01*
X0236250Y0318650D01*
X0241250Y0318650D01*
X0243750Y0321150D01*
X0246250Y0318650D01*
X0251250Y0318650D01*
X0253750Y0321150D01*
X0256250Y0318650D01*
X0261250Y0318650D01*
X0263750Y0321150D01*
X0266250Y0318650D01*
X0271250Y0318650D01*
X0273750Y0321150D01*
X0273750Y0326150D01*
X0271250Y0328650D01*
X0266250Y0328650D01*
X0263750Y0326150D01*
X0261250Y0328650D01*
X0256250Y0328650D01*
X0253750Y0326150D01*
X0251250Y0328650D01*
X0246250Y0328650D01*
X0243750Y0326150D01*
X0241250Y0328650D01*
X0236250Y0328650D01*
X0233750Y0326150D01*
X0231250Y0328650D01*
X0226250Y0328650D01*
X0223750Y0326150D01*
X0221250Y0328650D01*
X0216250Y0328650D01*
X0213750Y0326150D01*
X0211250Y0328650D01*
X0206250Y0328650D01*
X0203750Y0326150D01*
X0201250Y0328650D01*
X0196250Y0328650D01*
X0193750Y0326150D01*
X0191250Y0328650D01*
X0186250Y0328650D01*
X0183750Y0326150D01*
X0181250Y0328650D01*
X0176250Y0328650D01*
X0173750Y0326150D01*
X0171250Y0328650D01*
X0166250Y0328650D01*
X0163750Y0326150D01*
X0161250Y0328650D01*
X0156250Y0328650D01*
X0153750Y0326150D01*
X0151250Y0328650D01*
X0146250Y0328650D01*
X0143750Y0326150D01*
X0141250Y0328650D01*
X0136250Y0328650D01*
X0133750Y0326150D01*
X0131250Y0328650D01*
X0126250Y0328650D01*
X0123750Y0326150D01*
X0121250Y0328650D01*
X0116250Y0328650D01*
X0113750Y0326150D01*
X0111250Y0328650D01*
X0106250Y0328650D01*
X0103750Y0326150D01*
X0101250Y0328650D01*
X0096250Y0328650D01*
X0093750Y0326150D01*
X0091250Y0328650D01*
X0086250Y0328650D01*
X0083750Y0326150D01*
X0081250Y0328650D01*
X0076250Y0328650D01*
X0073750Y0326150D01*
X0071250Y0328650D01*
X0066250Y0328650D01*
X0063750Y0326150D01*
X0061250Y0328650D01*
X0056250Y0328650D01*
X0053750Y0326150D01*
X0051250Y0328650D01*
X0046250Y0328650D01*
X0043750Y0326150D01*
X0041250Y0328650D01*
X0036250Y0328650D01*
X0033750Y0326150D01*
X0031250Y0328650D01*
X0026250Y0328650D01*
X0023750Y0326150D01*
X0021250Y0328650D01*
X0016250Y0328650D01*
X0021250Y0328650D01*
X0023750Y0331150D01*
X0026250Y0328650D01*
X0031250Y0328650D01*
X0033750Y0331150D01*
X0036250Y0328650D01*
X0041250Y0328650D01*
X0043750Y0331150D01*
X0046250Y0328650D01*
X0051250Y0328650D01*
X0053750Y0331150D01*
X0056250Y0328650D01*
X0061250Y0328650D01*
X0063750Y0331150D01*
X0066250Y0328650D01*
X0071250Y0328650D01*
X0073750Y0331150D01*
X0076250Y0328650D01*
X0081250Y0328650D01*
X0083750Y0331150D01*
X0086250Y0328650D01*
X0091250Y0328650D01*
X0093750Y0331150D01*
X0096250Y0328650D01*
X0101250Y0328650D01*
X0103750Y0331150D01*
X0106250Y0328650D01*
X0111250Y0328650D01*
X0113750Y0331150D01*
X0116250Y0328650D01*
X0121250Y0328650D01*
X0123750Y0331150D01*
X0126250Y0328650D01*
X0131250Y0328650D01*
X0133750Y0331150D01*
X0136250Y0328650D01*
X0141250Y0328650D01*
X0143750Y0331150D01*
X0146250Y0328650D01*
X0151250Y0328650D01*
X0153750Y0331150D01*
X0156250Y0328650D01*
X0161250Y0328650D01*
X0163750Y0331150D01*
X0166250Y0328650D01*
X0171250Y0328650D01*
X0173750Y0331150D01*
X0176250Y0328650D01*
X0181250Y0328650D01*
X0183750Y0331150D01*
X0186250Y0328650D01*
X0191250Y0328650D01*
X0193750Y0331150D01*
X0196250Y0328650D01*
X0201250Y0328650D01*
X0203750Y0331150D01*
X0206250Y0328650D01*
X0211250Y0328650D01*
X0213750Y0331150D01*
X0216250Y0328650D01*
X0221250Y0328650D01*
X0223750Y0331150D01*
X0226250Y0328650D01*
X0231250Y0328650D01*
X0233750Y0331150D01*
X0236250Y0328650D01*
X0241250Y0328650D01*
X0243750Y0331150D01*
X0246250Y0328650D01*
X0251250Y0328650D01*
X0253750Y0331150D01*
X0256250Y0328650D01*
X0261250Y0328650D01*
X0263750Y0331150D01*
X0266250Y0328650D01*
X0271250Y0328650D01*
X0273750Y0331150D01*
X0273750Y0336150D01*
X0271250Y0338650D01*
X0266250Y0338650D01*
X0263750Y0336150D01*
X0261250Y0338650D01*
X0256250Y0338650D01*
X0253750Y0336150D01*
X0251250Y0338650D01*
X0246250Y0338650D01*
X0243750Y0336150D01*
X0241250Y0338650D01*
X0236250Y0338650D01*
X0233750Y0336150D01*
X0231250Y0338650D01*
X0226250Y0338650D01*
X0223750Y0336150D01*
X0221250Y0338650D01*
X0216250Y0338650D01*
X0213750Y0336150D01*
X0211250Y0338650D01*
X0206250Y0338650D01*
X0203750Y0336150D01*
X0201250Y0338650D01*
X0196250Y0338650D01*
X0193750Y0336150D01*
X0191250Y0338650D01*
X0186250Y0338650D01*
X0183750Y0336150D01*
X0181250Y0338650D01*
X0176250Y0338650D01*
X0173750Y0336150D01*
X0171250Y0338650D01*
X0166250Y0338650D01*
X0163750Y0336150D01*
X0161250Y0338650D01*
X0156250Y0338650D01*
X0153750Y0336150D01*
X0151250Y0338650D01*
X0146250Y0338650D01*
X0143750Y0336150D01*
X0141250Y0338650D01*
X0136250Y0338650D01*
X0133750Y0336150D01*
X0131250Y0338650D01*
X0126250Y0338650D01*
X0123750Y0336150D01*
X0121250Y0338650D01*
X0116250Y0338650D01*
X0113750Y0336150D01*
X0111250Y0338650D01*
X0106250Y0338650D01*
X0103750Y0336150D01*
X0101250Y0338650D01*
X0096250Y0338650D01*
X0093750Y0336150D01*
X0091250Y0338650D01*
X0086250Y0338650D01*
X0083750Y0336150D01*
X0081250Y0338650D01*
X0076250Y0338650D01*
X0073750Y0336150D01*
X0071250Y0338650D01*
X0066250Y0338650D01*
X0063750Y0336150D01*
X0061250Y0338650D01*
X0056250Y0338650D01*
X0053750Y0336150D01*
X0051250Y0338650D01*
X0046250Y0338650D01*
X0043750Y0336150D01*
X0041250Y0338650D01*
X0036250Y0338650D01*
X0033750Y0336150D01*
X0031250Y0338650D01*
X0026250Y0338650D01*
X0023750Y0336150D01*
X0021250Y0338650D01*
X0016250Y0338650D01*
X0021250Y0338650D01*
X0023750Y0341150D01*
X0026250Y0338650D01*
X0031250Y0338650D01*
X0033750Y0341150D01*
X0036250Y0338650D01*
X0041250Y0338650D01*
X0043750Y0341150D01*
X0046250Y0338650D01*
X0051250Y0338650D01*
X0053750Y0341150D01*
X0056250Y0338650D01*
X0061250Y0338650D01*
X0063750Y0341150D01*
X0066250Y0338650D01*
X0071250Y0338650D01*
X0073750Y0341150D01*
X0076250Y0338650D01*
X0081250Y0338650D01*
X0083750Y0341150D01*
X0086250Y0338650D01*
X0091250Y0338650D01*
X0093750Y0341150D01*
X0096250Y0338650D01*
X0101250Y0338650D01*
X0103750Y0341150D01*
X0106250Y0338650D01*
X0111250Y0338650D01*
X0113750Y0341150D01*
X0116250Y0338650D01*
X0121250Y0338650D01*
X0123750Y0341150D01*
X0126250Y0338650D01*
X0131250Y0338650D01*
X0133750Y0341150D01*
X0136250Y0338650D01*
X0141250Y0338650D01*
X0143750Y0341150D01*
X0146250Y0338650D01*
X0151250Y0338650D01*
X0153750Y0341150D01*
X0156250Y0338650D01*
X0161250Y0338650D01*
X0163750Y0341150D01*
X0166250Y0338650D01*
X0171250Y0338650D01*
X0173750Y0341150D01*
X0176250Y0338650D01*
X0181250Y0338650D01*
X0183750Y0341150D01*
X0186250Y0338650D01*
X0191250Y0338650D01*
X0193750Y0341150D01*
X0196250Y0338650D01*
X0201250Y0338650D01*
X0203750Y0341150D01*
X0206250Y0338650D01*
X0211250Y0338650D01*
X0213750Y0341150D01*
X0216250Y0338650D01*
X0221250Y0338650D01*
X0223750Y0341150D01*
X0226250Y0338650D01*
X0231250Y0338650D01*
X0233750Y0341150D01*
X0236250Y0338650D01*
X0241250Y0338650D01*
X0243750Y0341150D01*
X0246250Y0338650D01*
X0251250Y0338650D01*
X0253750Y0341150D01*
X0256250Y0338650D01*
X0261250Y0338650D01*
X0263750Y0341150D01*
X0266250Y0338650D01*
X0271250Y0338650D01*
X0273750Y0341150D01*
X0273750Y0346150D01*
X0271250Y0348650D01*
X0266250Y0348650D01*
X0263750Y0346150D01*
X0261250Y0348650D01*
X0256250Y0348650D01*
X0253750Y0346150D01*
X0251250Y0348650D01*
X0246250Y0348650D01*
X0243750Y0346150D01*
X0241250Y0348650D01*
X0236250Y0348650D01*
X0233750Y0346150D01*
X0231250Y0348650D01*
X0226250Y0348650D01*
X0223750Y0346150D01*
X0221250Y0348650D01*
X0216250Y0348650D01*
X0213750Y0346150D01*
X0211250Y0348650D01*
X0206250Y0348650D01*
X0203750Y0346150D01*
X0201250Y0348650D01*
X0196250Y0348650D01*
X0193750Y0346150D01*
X0191250Y0348650D01*
X0186250Y0348650D01*
X0183750Y0346150D01*
X0181250Y0348650D01*
X0176250Y0348650D01*
X0173750Y0346150D01*
X0171250Y0348650D01*
X0166250Y0348650D01*
X0163750Y0346150D01*
X0161250Y0348650D01*
X0156250Y0348650D01*
X0153750Y0346150D01*
X0151250Y0348650D01*
X0146250Y0348650D01*
X0143750Y0201150D02*
X0141250Y0198650D01*
X0136250Y0198650D01*
X0133750Y0201150D01*
X0131250Y0198650D01*
X0126250Y0198650D01*
X0123750Y0196150D01*
X0121250Y0198650D01*
X0116250Y0198650D01*
X0113750Y0201150D01*
X0111250Y0198650D01*
X0106250Y0198650D01*
X0103750Y0196150D01*
X0101250Y0198650D01*
X0096250Y0198650D01*
X0093750Y0201150D01*
X0091250Y0198650D01*
X0086250Y0198650D01*
X0083750Y0201150D01*
X0081250Y0198650D01*
X0076250Y0198650D01*
X0073750Y0201150D01*
X0071250Y0198650D01*
X0066250Y0198650D01*
X0063750Y0201150D01*
X0061250Y0198650D01*
X0056250Y0198650D01*
X0053750Y0201150D01*
X0051250Y0198650D01*
X0046250Y0198650D01*
X0043750Y0201150D01*
X0041250Y0198650D01*
X0036250Y0198650D01*
X0033750Y0201150D01*
X0031250Y0198650D01*
X0026250Y0198650D01*
X0023750Y0201150D01*
X0021250Y0198650D01*
X0016250Y0198650D01*
X0021250Y0198650D01*
X0023750Y0196150D01*
X0026250Y0198650D01*
X0031250Y0198650D01*
X0033750Y0196150D01*
X0036250Y0198650D01*
X0041250Y0198650D01*
X0043750Y0196150D01*
X0046250Y0198650D01*
X0051250Y0198650D01*
X0053750Y0196150D01*
X0056250Y0198650D01*
X0061250Y0198650D01*
X0063750Y0196150D01*
X0066250Y0198650D01*
X0071250Y0198650D01*
X0073750Y0196150D01*
X0076250Y0198650D01*
X0081250Y0198650D01*
X0083750Y0196150D01*
X0086250Y0198650D01*
X0091250Y0198650D01*
X0093750Y0196150D01*
X0096250Y0198650D01*
X0101250Y0198650D01*
X0103750Y0201150D01*
X0106250Y0198650D01*
X0111250Y0198650D01*
X0113750Y0196150D01*
X0116250Y0198650D01*
X0121250Y0198650D01*
X0123750Y0201150D01*
X0126250Y0198650D01*
X0131250Y0198650D01*
X0133750Y0196150D01*
X0136250Y0198650D01*
X0141250Y0198650D01*
X0143750Y0196150D01*
X0146250Y0198650D01*
X0151250Y0198650D01*
X0153750Y0196150D01*
X0156250Y0198650D01*
X0153750Y0201150D01*
X0151250Y0198650D01*
X0146250Y0198650D01*
X0143750Y0201150D01*
X0156250Y0198650D02*
X0161250Y0198650D01*
X0163750Y0196150D01*
X0166250Y0198650D01*
X0163750Y0201150D01*
X0161250Y0198650D01*
X0156250Y0198650D01*
X0166250Y0198650D02*
X0171250Y0198650D01*
X0173750Y0196150D01*
X0176250Y0198650D01*
X0173750Y0201150D01*
X0171250Y0198650D01*
X0166250Y0198650D01*
X0176250Y0198650D02*
X0181250Y0198650D01*
X0183750Y0196150D01*
X0186250Y0198650D01*
X0183750Y0201150D01*
X0181250Y0198650D01*
X0176250Y0198650D01*
X0186250Y0198650D02*
X0191250Y0198650D01*
X0193750Y0196150D01*
X0196250Y0198650D01*
X0193750Y0201150D01*
X0191250Y0198650D01*
X0186250Y0198650D01*
X0196250Y0198650D02*
X0201250Y0198650D01*
X0203750Y0196150D01*
X0206250Y0198650D01*
X0203750Y0201150D01*
X0201250Y0198650D01*
X0196250Y0198650D01*
X0206250Y0198650D02*
X0211250Y0198650D01*
X0213750Y0196150D01*
X0216250Y0198650D01*
X0213750Y0201150D01*
X0211250Y0198650D01*
X0206250Y0198650D01*
X0216250Y0198650D02*
X0221250Y0198650D01*
X0216250Y0198650D01*
M02*
