G75*
%MOIN*%
%OFA0B0*%
%FSLAX25Y25*%
%IPPOS*%
%LPD*%
%AMOC8*
5,1,8,0,0,1.08239X$1,22.5*
%
%ADD10C,0.00000*%
%ADD11C,0.01600*%
%ADD12C,0.11811*%
D10*
X0011466Y0008690D02*
X0011468Y0008821D01*
X0011474Y0008953D01*
X0011484Y0009084D01*
X0011498Y0009215D01*
X0011516Y0009345D01*
X0011538Y0009474D01*
X0011563Y0009603D01*
X0011593Y0009731D01*
X0011627Y0009858D01*
X0011664Y0009985D01*
X0011705Y0010109D01*
X0011750Y0010233D01*
X0011799Y0010355D01*
X0011851Y0010476D01*
X0011907Y0010594D01*
X0011967Y0010712D01*
X0012030Y0010827D01*
X0012097Y0010940D01*
X0012167Y0011052D01*
X0012240Y0011161D01*
X0012316Y0011267D01*
X0012396Y0011372D01*
X0012479Y0011474D01*
X0012565Y0011573D01*
X0012654Y0011670D01*
X0012746Y0011764D01*
X0012841Y0011855D01*
X0012938Y0011944D01*
X0013038Y0012029D01*
X0013141Y0012111D01*
X0013246Y0012190D01*
X0013353Y0012266D01*
X0013463Y0012338D01*
X0013575Y0012407D01*
X0013689Y0012473D01*
X0013804Y0012535D01*
X0013922Y0012594D01*
X0014041Y0012649D01*
X0014162Y0012701D01*
X0014285Y0012748D01*
X0014409Y0012792D01*
X0014534Y0012833D01*
X0014660Y0012869D01*
X0014788Y0012902D01*
X0014916Y0012930D01*
X0015045Y0012955D01*
X0015175Y0012976D01*
X0015305Y0012993D01*
X0015436Y0013006D01*
X0015567Y0013015D01*
X0015698Y0013020D01*
X0015830Y0013021D01*
X0015961Y0013018D01*
X0016093Y0013011D01*
X0016224Y0013000D01*
X0016354Y0012985D01*
X0016484Y0012966D01*
X0016614Y0012943D01*
X0016742Y0012917D01*
X0016870Y0012886D01*
X0016997Y0012851D01*
X0017123Y0012813D01*
X0017247Y0012771D01*
X0017371Y0012725D01*
X0017492Y0012675D01*
X0017612Y0012622D01*
X0017731Y0012565D01*
X0017848Y0012505D01*
X0017962Y0012441D01*
X0018075Y0012373D01*
X0018186Y0012302D01*
X0018295Y0012228D01*
X0018401Y0012151D01*
X0018505Y0012070D01*
X0018606Y0011987D01*
X0018705Y0011900D01*
X0018801Y0011810D01*
X0018894Y0011717D01*
X0018985Y0011622D01*
X0019072Y0011524D01*
X0019157Y0011423D01*
X0019238Y0011320D01*
X0019316Y0011214D01*
X0019391Y0011106D01*
X0019463Y0010996D01*
X0019531Y0010884D01*
X0019596Y0010770D01*
X0019657Y0010653D01*
X0019715Y0010535D01*
X0019769Y0010415D01*
X0019820Y0010294D01*
X0019867Y0010171D01*
X0019910Y0010047D01*
X0019949Y0009922D01*
X0019985Y0009795D01*
X0020016Y0009667D01*
X0020044Y0009539D01*
X0020068Y0009410D01*
X0020088Y0009280D01*
X0020104Y0009149D01*
X0020116Y0009018D01*
X0020124Y0008887D01*
X0020128Y0008756D01*
X0020128Y0008624D01*
X0020124Y0008493D01*
X0020116Y0008362D01*
X0020104Y0008231D01*
X0020088Y0008100D01*
X0020068Y0007970D01*
X0020044Y0007841D01*
X0020016Y0007713D01*
X0019985Y0007585D01*
X0019949Y0007458D01*
X0019910Y0007333D01*
X0019867Y0007209D01*
X0019820Y0007086D01*
X0019769Y0006965D01*
X0019715Y0006845D01*
X0019657Y0006727D01*
X0019596Y0006610D01*
X0019531Y0006496D01*
X0019463Y0006384D01*
X0019391Y0006274D01*
X0019316Y0006166D01*
X0019238Y0006060D01*
X0019157Y0005957D01*
X0019072Y0005856D01*
X0018985Y0005758D01*
X0018894Y0005663D01*
X0018801Y0005570D01*
X0018705Y0005480D01*
X0018606Y0005393D01*
X0018505Y0005310D01*
X0018401Y0005229D01*
X0018295Y0005152D01*
X0018186Y0005078D01*
X0018075Y0005007D01*
X0017963Y0004939D01*
X0017848Y0004875D01*
X0017731Y0004815D01*
X0017612Y0004758D01*
X0017492Y0004705D01*
X0017371Y0004655D01*
X0017247Y0004609D01*
X0017123Y0004567D01*
X0016997Y0004529D01*
X0016870Y0004494D01*
X0016742Y0004463D01*
X0016614Y0004437D01*
X0016484Y0004414D01*
X0016354Y0004395D01*
X0016224Y0004380D01*
X0016093Y0004369D01*
X0015961Y0004362D01*
X0015830Y0004359D01*
X0015698Y0004360D01*
X0015567Y0004365D01*
X0015436Y0004374D01*
X0015305Y0004387D01*
X0015175Y0004404D01*
X0015045Y0004425D01*
X0014916Y0004450D01*
X0014788Y0004478D01*
X0014660Y0004511D01*
X0014534Y0004547D01*
X0014409Y0004588D01*
X0014285Y0004632D01*
X0014162Y0004679D01*
X0014041Y0004731D01*
X0013922Y0004786D01*
X0013804Y0004845D01*
X0013689Y0004907D01*
X0013575Y0004973D01*
X0013463Y0005042D01*
X0013353Y0005114D01*
X0013246Y0005190D01*
X0013141Y0005269D01*
X0013038Y0005351D01*
X0012938Y0005436D01*
X0012841Y0005525D01*
X0012746Y0005616D01*
X0012654Y0005710D01*
X0012565Y0005807D01*
X0012479Y0005906D01*
X0012396Y0006008D01*
X0012316Y0006113D01*
X0012240Y0006219D01*
X0012167Y0006328D01*
X0012097Y0006440D01*
X0012030Y0006553D01*
X0011967Y0006668D01*
X0011907Y0006786D01*
X0011851Y0006904D01*
X0011799Y0007025D01*
X0011750Y0007147D01*
X0011705Y0007271D01*
X0011664Y0007395D01*
X0011627Y0007522D01*
X0011593Y0007649D01*
X0011563Y0007777D01*
X0011538Y0007906D01*
X0011516Y0008035D01*
X0011498Y0008165D01*
X0011484Y0008296D01*
X0011474Y0008427D01*
X0011468Y0008559D01*
X0011466Y0008690D01*
X0009498Y0041170D02*
X0009500Y0041328D01*
X0009506Y0041486D01*
X0009516Y0041644D01*
X0009530Y0041802D01*
X0009548Y0041959D01*
X0009569Y0042116D01*
X0009595Y0042272D01*
X0009625Y0042428D01*
X0009658Y0042583D01*
X0009696Y0042736D01*
X0009737Y0042889D01*
X0009782Y0043041D01*
X0009831Y0043192D01*
X0009884Y0043341D01*
X0009940Y0043489D01*
X0010000Y0043635D01*
X0010064Y0043780D01*
X0010132Y0043923D01*
X0010203Y0044065D01*
X0010277Y0044205D01*
X0010355Y0044342D01*
X0010437Y0044478D01*
X0010521Y0044612D01*
X0010610Y0044743D01*
X0010701Y0044872D01*
X0010796Y0044999D01*
X0010893Y0045124D01*
X0010994Y0045246D01*
X0011098Y0045365D01*
X0011205Y0045482D01*
X0011315Y0045596D01*
X0011428Y0045707D01*
X0011543Y0045816D01*
X0011661Y0045921D01*
X0011782Y0046023D01*
X0011905Y0046123D01*
X0012031Y0046219D01*
X0012159Y0046312D01*
X0012289Y0046402D01*
X0012422Y0046488D01*
X0012557Y0046572D01*
X0012693Y0046651D01*
X0012832Y0046728D01*
X0012973Y0046800D01*
X0013115Y0046870D01*
X0013259Y0046935D01*
X0013405Y0046997D01*
X0013552Y0047055D01*
X0013701Y0047110D01*
X0013851Y0047161D01*
X0014002Y0047208D01*
X0014154Y0047251D01*
X0014307Y0047290D01*
X0014462Y0047326D01*
X0014617Y0047357D01*
X0014773Y0047385D01*
X0014929Y0047409D01*
X0015086Y0047429D01*
X0015244Y0047445D01*
X0015401Y0047457D01*
X0015560Y0047465D01*
X0015718Y0047469D01*
X0015876Y0047469D01*
X0016034Y0047465D01*
X0016193Y0047457D01*
X0016350Y0047445D01*
X0016508Y0047429D01*
X0016665Y0047409D01*
X0016821Y0047385D01*
X0016977Y0047357D01*
X0017132Y0047326D01*
X0017287Y0047290D01*
X0017440Y0047251D01*
X0017592Y0047208D01*
X0017743Y0047161D01*
X0017893Y0047110D01*
X0018042Y0047055D01*
X0018189Y0046997D01*
X0018335Y0046935D01*
X0018479Y0046870D01*
X0018621Y0046800D01*
X0018762Y0046728D01*
X0018901Y0046651D01*
X0019037Y0046572D01*
X0019172Y0046488D01*
X0019305Y0046402D01*
X0019435Y0046312D01*
X0019563Y0046219D01*
X0019689Y0046123D01*
X0019812Y0046023D01*
X0019933Y0045921D01*
X0020051Y0045816D01*
X0020166Y0045707D01*
X0020279Y0045596D01*
X0020389Y0045482D01*
X0020496Y0045365D01*
X0020600Y0045246D01*
X0020701Y0045124D01*
X0020798Y0044999D01*
X0020893Y0044872D01*
X0020984Y0044743D01*
X0021073Y0044612D01*
X0021157Y0044478D01*
X0021239Y0044342D01*
X0021317Y0044205D01*
X0021391Y0044065D01*
X0021462Y0043923D01*
X0021530Y0043780D01*
X0021594Y0043635D01*
X0021654Y0043489D01*
X0021710Y0043341D01*
X0021763Y0043192D01*
X0021812Y0043041D01*
X0021857Y0042889D01*
X0021898Y0042736D01*
X0021936Y0042583D01*
X0021969Y0042428D01*
X0021999Y0042272D01*
X0022025Y0042116D01*
X0022046Y0041959D01*
X0022064Y0041802D01*
X0022078Y0041644D01*
X0022088Y0041486D01*
X0022094Y0041328D01*
X0022096Y0041170D01*
X0022094Y0041012D01*
X0022088Y0040854D01*
X0022078Y0040696D01*
X0022064Y0040538D01*
X0022046Y0040381D01*
X0022025Y0040224D01*
X0021999Y0040068D01*
X0021969Y0039912D01*
X0021936Y0039757D01*
X0021898Y0039604D01*
X0021857Y0039451D01*
X0021812Y0039299D01*
X0021763Y0039148D01*
X0021710Y0038999D01*
X0021654Y0038851D01*
X0021594Y0038705D01*
X0021530Y0038560D01*
X0021462Y0038417D01*
X0021391Y0038275D01*
X0021317Y0038135D01*
X0021239Y0037998D01*
X0021157Y0037862D01*
X0021073Y0037728D01*
X0020984Y0037597D01*
X0020893Y0037468D01*
X0020798Y0037341D01*
X0020701Y0037216D01*
X0020600Y0037094D01*
X0020496Y0036975D01*
X0020389Y0036858D01*
X0020279Y0036744D01*
X0020166Y0036633D01*
X0020051Y0036524D01*
X0019933Y0036419D01*
X0019812Y0036317D01*
X0019689Y0036217D01*
X0019563Y0036121D01*
X0019435Y0036028D01*
X0019305Y0035938D01*
X0019172Y0035852D01*
X0019037Y0035768D01*
X0018901Y0035689D01*
X0018762Y0035612D01*
X0018621Y0035540D01*
X0018479Y0035470D01*
X0018335Y0035405D01*
X0018189Y0035343D01*
X0018042Y0035285D01*
X0017893Y0035230D01*
X0017743Y0035179D01*
X0017592Y0035132D01*
X0017440Y0035089D01*
X0017287Y0035050D01*
X0017132Y0035014D01*
X0016977Y0034983D01*
X0016821Y0034955D01*
X0016665Y0034931D01*
X0016508Y0034911D01*
X0016350Y0034895D01*
X0016193Y0034883D01*
X0016034Y0034875D01*
X0015876Y0034871D01*
X0015718Y0034871D01*
X0015560Y0034875D01*
X0015401Y0034883D01*
X0015244Y0034895D01*
X0015086Y0034911D01*
X0014929Y0034931D01*
X0014773Y0034955D01*
X0014617Y0034983D01*
X0014462Y0035014D01*
X0014307Y0035050D01*
X0014154Y0035089D01*
X0014002Y0035132D01*
X0013851Y0035179D01*
X0013701Y0035230D01*
X0013552Y0035285D01*
X0013405Y0035343D01*
X0013259Y0035405D01*
X0013115Y0035470D01*
X0012973Y0035540D01*
X0012832Y0035612D01*
X0012693Y0035689D01*
X0012557Y0035768D01*
X0012422Y0035852D01*
X0012289Y0035938D01*
X0012159Y0036028D01*
X0012031Y0036121D01*
X0011905Y0036217D01*
X0011782Y0036317D01*
X0011661Y0036419D01*
X0011543Y0036524D01*
X0011428Y0036633D01*
X0011315Y0036744D01*
X0011205Y0036858D01*
X0011098Y0036975D01*
X0010994Y0037094D01*
X0010893Y0037216D01*
X0010796Y0037341D01*
X0010701Y0037468D01*
X0010610Y0037597D01*
X0010521Y0037728D01*
X0010437Y0037862D01*
X0010355Y0037998D01*
X0010277Y0038135D01*
X0010203Y0038275D01*
X0010132Y0038417D01*
X0010064Y0038560D01*
X0010000Y0038705D01*
X0009940Y0038851D01*
X0009884Y0038999D01*
X0009831Y0039148D01*
X0009782Y0039299D01*
X0009737Y0039451D01*
X0009696Y0039604D01*
X0009658Y0039757D01*
X0009625Y0039912D01*
X0009595Y0040068D01*
X0009569Y0040224D01*
X0009548Y0040381D01*
X0009530Y0040538D01*
X0009516Y0040696D01*
X0009506Y0040854D01*
X0009500Y0041012D01*
X0009498Y0041170D01*
X0075639Y0025422D02*
X0075641Y0025491D01*
X0075647Y0025559D01*
X0075657Y0025627D01*
X0075671Y0025694D01*
X0075689Y0025761D01*
X0075710Y0025826D01*
X0075736Y0025890D01*
X0075765Y0025952D01*
X0075797Y0026012D01*
X0075833Y0026071D01*
X0075873Y0026127D01*
X0075915Y0026181D01*
X0075961Y0026232D01*
X0076010Y0026281D01*
X0076061Y0026327D01*
X0076115Y0026369D01*
X0076171Y0026409D01*
X0076229Y0026445D01*
X0076290Y0026477D01*
X0076352Y0026506D01*
X0076416Y0026532D01*
X0076481Y0026553D01*
X0076548Y0026571D01*
X0076615Y0026585D01*
X0076683Y0026595D01*
X0076751Y0026601D01*
X0076820Y0026603D01*
X0076889Y0026601D01*
X0076957Y0026595D01*
X0077025Y0026585D01*
X0077092Y0026571D01*
X0077159Y0026553D01*
X0077224Y0026532D01*
X0077288Y0026506D01*
X0077350Y0026477D01*
X0077410Y0026445D01*
X0077469Y0026409D01*
X0077525Y0026369D01*
X0077579Y0026327D01*
X0077630Y0026281D01*
X0077679Y0026232D01*
X0077725Y0026181D01*
X0077767Y0026127D01*
X0077807Y0026071D01*
X0077843Y0026012D01*
X0077875Y0025952D01*
X0077904Y0025890D01*
X0077930Y0025826D01*
X0077951Y0025761D01*
X0077969Y0025694D01*
X0077983Y0025627D01*
X0077993Y0025559D01*
X0077999Y0025491D01*
X0078001Y0025422D01*
X0077999Y0025353D01*
X0077993Y0025285D01*
X0077983Y0025217D01*
X0077969Y0025150D01*
X0077951Y0025083D01*
X0077930Y0025018D01*
X0077904Y0024954D01*
X0077875Y0024892D01*
X0077843Y0024831D01*
X0077807Y0024773D01*
X0077767Y0024717D01*
X0077725Y0024663D01*
X0077679Y0024612D01*
X0077630Y0024563D01*
X0077579Y0024517D01*
X0077525Y0024475D01*
X0077469Y0024435D01*
X0077411Y0024399D01*
X0077350Y0024367D01*
X0077288Y0024338D01*
X0077224Y0024312D01*
X0077159Y0024291D01*
X0077092Y0024273D01*
X0077025Y0024259D01*
X0076957Y0024249D01*
X0076889Y0024243D01*
X0076820Y0024241D01*
X0076751Y0024243D01*
X0076683Y0024249D01*
X0076615Y0024259D01*
X0076548Y0024273D01*
X0076481Y0024291D01*
X0076416Y0024312D01*
X0076352Y0024338D01*
X0076290Y0024367D01*
X0076229Y0024399D01*
X0076171Y0024435D01*
X0076115Y0024475D01*
X0076061Y0024517D01*
X0076010Y0024563D01*
X0075961Y0024612D01*
X0075915Y0024663D01*
X0075873Y0024717D01*
X0075833Y0024773D01*
X0075797Y0024831D01*
X0075765Y0024892D01*
X0075736Y0024954D01*
X0075710Y0025018D01*
X0075689Y0025083D01*
X0075671Y0025150D01*
X0075657Y0025217D01*
X0075647Y0025285D01*
X0075641Y0025353D01*
X0075639Y0025422D01*
X0075639Y0021485D02*
X0075641Y0021554D01*
X0075647Y0021622D01*
X0075657Y0021690D01*
X0075671Y0021757D01*
X0075689Y0021824D01*
X0075710Y0021889D01*
X0075736Y0021953D01*
X0075765Y0022015D01*
X0075797Y0022075D01*
X0075833Y0022134D01*
X0075873Y0022190D01*
X0075915Y0022244D01*
X0075961Y0022295D01*
X0076010Y0022344D01*
X0076061Y0022390D01*
X0076115Y0022432D01*
X0076171Y0022472D01*
X0076229Y0022508D01*
X0076290Y0022540D01*
X0076352Y0022569D01*
X0076416Y0022595D01*
X0076481Y0022616D01*
X0076548Y0022634D01*
X0076615Y0022648D01*
X0076683Y0022658D01*
X0076751Y0022664D01*
X0076820Y0022666D01*
X0076889Y0022664D01*
X0076957Y0022658D01*
X0077025Y0022648D01*
X0077092Y0022634D01*
X0077159Y0022616D01*
X0077224Y0022595D01*
X0077288Y0022569D01*
X0077350Y0022540D01*
X0077410Y0022508D01*
X0077469Y0022472D01*
X0077525Y0022432D01*
X0077579Y0022390D01*
X0077630Y0022344D01*
X0077679Y0022295D01*
X0077725Y0022244D01*
X0077767Y0022190D01*
X0077807Y0022134D01*
X0077843Y0022075D01*
X0077875Y0022015D01*
X0077904Y0021953D01*
X0077930Y0021889D01*
X0077951Y0021824D01*
X0077969Y0021757D01*
X0077983Y0021690D01*
X0077993Y0021622D01*
X0077999Y0021554D01*
X0078001Y0021485D01*
X0077999Y0021416D01*
X0077993Y0021348D01*
X0077983Y0021280D01*
X0077969Y0021213D01*
X0077951Y0021146D01*
X0077930Y0021081D01*
X0077904Y0021017D01*
X0077875Y0020955D01*
X0077843Y0020894D01*
X0077807Y0020836D01*
X0077767Y0020780D01*
X0077725Y0020726D01*
X0077679Y0020675D01*
X0077630Y0020626D01*
X0077579Y0020580D01*
X0077525Y0020538D01*
X0077469Y0020498D01*
X0077411Y0020462D01*
X0077350Y0020430D01*
X0077288Y0020401D01*
X0077224Y0020375D01*
X0077159Y0020354D01*
X0077092Y0020336D01*
X0077025Y0020322D01*
X0076957Y0020312D01*
X0076889Y0020306D01*
X0076820Y0020304D01*
X0076751Y0020306D01*
X0076683Y0020312D01*
X0076615Y0020322D01*
X0076548Y0020336D01*
X0076481Y0020354D01*
X0076416Y0020375D01*
X0076352Y0020401D01*
X0076290Y0020430D01*
X0076229Y0020462D01*
X0076171Y0020498D01*
X0076115Y0020538D01*
X0076061Y0020580D01*
X0076010Y0020626D01*
X0075961Y0020675D01*
X0075915Y0020726D01*
X0075873Y0020780D01*
X0075833Y0020836D01*
X0075797Y0020894D01*
X0075765Y0020955D01*
X0075736Y0021017D01*
X0075710Y0021081D01*
X0075689Y0021146D01*
X0075671Y0021213D01*
X0075657Y0021280D01*
X0075647Y0021348D01*
X0075641Y0021416D01*
X0075639Y0021485D01*
X0075639Y0017548D02*
X0075641Y0017617D01*
X0075647Y0017685D01*
X0075657Y0017753D01*
X0075671Y0017820D01*
X0075689Y0017887D01*
X0075710Y0017952D01*
X0075736Y0018016D01*
X0075765Y0018078D01*
X0075797Y0018138D01*
X0075833Y0018197D01*
X0075873Y0018253D01*
X0075915Y0018307D01*
X0075961Y0018358D01*
X0076010Y0018407D01*
X0076061Y0018453D01*
X0076115Y0018495D01*
X0076171Y0018535D01*
X0076229Y0018571D01*
X0076290Y0018603D01*
X0076352Y0018632D01*
X0076416Y0018658D01*
X0076481Y0018679D01*
X0076548Y0018697D01*
X0076615Y0018711D01*
X0076683Y0018721D01*
X0076751Y0018727D01*
X0076820Y0018729D01*
X0076889Y0018727D01*
X0076957Y0018721D01*
X0077025Y0018711D01*
X0077092Y0018697D01*
X0077159Y0018679D01*
X0077224Y0018658D01*
X0077288Y0018632D01*
X0077350Y0018603D01*
X0077410Y0018571D01*
X0077469Y0018535D01*
X0077525Y0018495D01*
X0077579Y0018453D01*
X0077630Y0018407D01*
X0077679Y0018358D01*
X0077725Y0018307D01*
X0077767Y0018253D01*
X0077807Y0018197D01*
X0077843Y0018138D01*
X0077875Y0018078D01*
X0077904Y0018016D01*
X0077930Y0017952D01*
X0077951Y0017887D01*
X0077969Y0017820D01*
X0077983Y0017753D01*
X0077993Y0017685D01*
X0077999Y0017617D01*
X0078001Y0017548D01*
X0077999Y0017479D01*
X0077993Y0017411D01*
X0077983Y0017343D01*
X0077969Y0017276D01*
X0077951Y0017209D01*
X0077930Y0017144D01*
X0077904Y0017080D01*
X0077875Y0017018D01*
X0077843Y0016957D01*
X0077807Y0016899D01*
X0077767Y0016843D01*
X0077725Y0016789D01*
X0077679Y0016738D01*
X0077630Y0016689D01*
X0077579Y0016643D01*
X0077525Y0016601D01*
X0077469Y0016561D01*
X0077411Y0016525D01*
X0077350Y0016493D01*
X0077288Y0016464D01*
X0077224Y0016438D01*
X0077159Y0016417D01*
X0077092Y0016399D01*
X0077025Y0016385D01*
X0076957Y0016375D01*
X0076889Y0016369D01*
X0076820Y0016367D01*
X0076751Y0016369D01*
X0076683Y0016375D01*
X0076615Y0016385D01*
X0076548Y0016399D01*
X0076481Y0016417D01*
X0076416Y0016438D01*
X0076352Y0016464D01*
X0076290Y0016493D01*
X0076229Y0016525D01*
X0076171Y0016561D01*
X0076115Y0016601D01*
X0076061Y0016643D01*
X0076010Y0016689D01*
X0075961Y0016738D01*
X0075915Y0016789D01*
X0075873Y0016843D01*
X0075833Y0016899D01*
X0075797Y0016957D01*
X0075765Y0017018D01*
X0075736Y0017080D01*
X0075710Y0017144D01*
X0075689Y0017209D01*
X0075671Y0017276D01*
X0075657Y0017343D01*
X0075647Y0017411D01*
X0075641Y0017479D01*
X0075639Y0017548D01*
X0079576Y0017548D02*
X0079578Y0017617D01*
X0079584Y0017685D01*
X0079594Y0017753D01*
X0079608Y0017820D01*
X0079626Y0017887D01*
X0079647Y0017952D01*
X0079673Y0018016D01*
X0079702Y0018078D01*
X0079734Y0018138D01*
X0079770Y0018197D01*
X0079810Y0018253D01*
X0079852Y0018307D01*
X0079898Y0018358D01*
X0079947Y0018407D01*
X0079998Y0018453D01*
X0080052Y0018495D01*
X0080108Y0018535D01*
X0080166Y0018571D01*
X0080227Y0018603D01*
X0080289Y0018632D01*
X0080353Y0018658D01*
X0080418Y0018679D01*
X0080485Y0018697D01*
X0080552Y0018711D01*
X0080620Y0018721D01*
X0080688Y0018727D01*
X0080757Y0018729D01*
X0080826Y0018727D01*
X0080894Y0018721D01*
X0080962Y0018711D01*
X0081029Y0018697D01*
X0081096Y0018679D01*
X0081161Y0018658D01*
X0081225Y0018632D01*
X0081287Y0018603D01*
X0081347Y0018571D01*
X0081406Y0018535D01*
X0081462Y0018495D01*
X0081516Y0018453D01*
X0081567Y0018407D01*
X0081616Y0018358D01*
X0081662Y0018307D01*
X0081704Y0018253D01*
X0081744Y0018197D01*
X0081780Y0018138D01*
X0081812Y0018078D01*
X0081841Y0018016D01*
X0081867Y0017952D01*
X0081888Y0017887D01*
X0081906Y0017820D01*
X0081920Y0017753D01*
X0081930Y0017685D01*
X0081936Y0017617D01*
X0081938Y0017548D01*
X0081936Y0017479D01*
X0081930Y0017411D01*
X0081920Y0017343D01*
X0081906Y0017276D01*
X0081888Y0017209D01*
X0081867Y0017144D01*
X0081841Y0017080D01*
X0081812Y0017018D01*
X0081780Y0016957D01*
X0081744Y0016899D01*
X0081704Y0016843D01*
X0081662Y0016789D01*
X0081616Y0016738D01*
X0081567Y0016689D01*
X0081516Y0016643D01*
X0081462Y0016601D01*
X0081406Y0016561D01*
X0081348Y0016525D01*
X0081287Y0016493D01*
X0081225Y0016464D01*
X0081161Y0016438D01*
X0081096Y0016417D01*
X0081029Y0016399D01*
X0080962Y0016385D01*
X0080894Y0016375D01*
X0080826Y0016369D01*
X0080757Y0016367D01*
X0080688Y0016369D01*
X0080620Y0016375D01*
X0080552Y0016385D01*
X0080485Y0016399D01*
X0080418Y0016417D01*
X0080353Y0016438D01*
X0080289Y0016464D01*
X0080227Y0016493D01*
X0080166Y0016525D01*
X0080108Y0016561D01*
X0080052Y0016601D01*
X0079998Y0016643D01*
X0079947Y0016689D01*
X0079898Y0016738D01*
X0079852Y0016789D01*
X0079810Y0016843D01*
X0079770Y0016899D01*
X0079734Y0016957D01*
X0079702Y0017018D01*
X0079673Y0017080D01*
X0079647Y0017144D01*
X0079626Y0017209D01*
X0079608Y0017276D01*
X0079594Y0017343D01*
X0079584Y0017411D01*
X0079578Y0017479D01*
X0079576Y0017548D01*
X0079576Y0021485D02*
X0079578Y0021554D01*
X0079584Y0021622D01*
X0079594Y0021690D01*
X0079608Y0021757D01*
X0079626Y0021824D01*
X0079647Y0021889D01*
X0079673Y0021953D01*
X0079702Y0022015D01*
X0079734Y0022075D01*
X0079770Y0022134D01*
X0079810Y0022190D01*
X0079852Y0022244D01*
X0079898Y0022295D01*
X0079947Y0022344D01*
X0079998Y0022390D01*
X0080052Y0022432D01*
X0080108Y0022472D01*
X0080166Y0022508D01*
X0080227Y0022540D01*
X0080289Y0022569D01*
X0080353Y0022595D01*
X0080418Y0022616D01*
X0080485Y0022634D01*
X0080552Y0022648D01*
X0080620Y0022658D01*
X0080688Y0022664D01*
X0080757Y0022666D01*
X0080826Y0022664D01*
X0080894Y0022658D01*
X0080962Y0022648D01*
X0081029Y0022634D01*
X0081096Y0022616D01*
X0081161Y0022595D01*
X0081225Y0022569D01*
X0081287Y0022540D01*
X0081347Y0022508D01*
X0081406Y0022472D01*
X0081462Y0022432D01*
X0081516Y0022390D01*
X0081567Y0022344D01*
X0081616Y0022295D01*
X0081662Y0022244D01*
X0081704Y0022190D01*
X0081744Y0022134D01*
X0081780Y0022075D01*
X0081812Y0022015D01*
X0081841Y0021953D01*
X0081867Y0021889D01*
X0081888Y0021824D01*
X0081906Y0021757D01*
X0081920Y0021690D01*
X0081930Y0021622D01*
X0081936Y0021554D01*
X0081938Y0021485D01*
X0081936Y0021416D01*
X0081930Y0021348D01*
X0081920Y0021280D01*
X0081906Y0021213D01*
X0081888Y0021146D01*
X0081867Y0021081D01*
X0081841Y0021017D01*
X0081812Y0020955D01*
X0081780Y0020894D01*
X0081744Y0020836D01*
X0081704Y0020780D01*
X0081662Y0020726D01*
X0081616Y0020675D01*
X0081567Y0020626D01*
X0081516Y0020580D01*
X0081462Y0020538D01*
X0081406Y0020498D01*
X0081348Y0020462D01*
X0081287Y0020430D01*
X0081225Y0020401D01*
X0081161Y0020375D01*
X0081096Y0020354D01*
X0081029Y0020336D01*
X0080962Y0020322D01*
X0080894Y0020312D01*
X0080826Y0020306D01*
X0080757Y0020304D01*
X0080688Y0020306D01*
X0080620Y0020312D01*
X0080552Y0020322D01*
X0080485Y0020336D01*
X0080418Y0020354D01*
X0080353Y0020375D01*
X0080289Y0020401D01*
X0080227Y0020430D01*
X0080166Y0020462D01*
X0080108Y0020498D01*
X0080052Y0020538D01*
X0079998Y0020580D01*
X0079947Y0020626D01*
X0079898Y0020675D01*
X0079852Y0020726D01*
X0079810Y0020780D01*
X0079770Y0020836D01*
X0079734Y0020894D01*
X0079702Y0020955D01*
X0079673Y0021017D01*
X0079647Y0021081D01*
X0079626Y0021146D01*
X0079608Y0021213D01*
X0079594Y0021280D01*
X0079584Y0021348D01*
X0079578Y0021416D01*
X0079576Y0021485D01*
X0079576Y0025422D02*
X0079578Y0025491D01*
X0079584Y0025559D01*
X0079594Y0025627D01*
X0079608Y0025694D01*
X0079626Y0025761D01*
X0079647Y0025826D01*
X0079673Y0025890D01*
X0079702Y0025952D01*
X0079734Y0026012D01*
X0079770Y0026071D01*
X0079810Y0026127D01*
X0079852Y0026181D01*
X0079898Y0026232D01*
X0079947Y0026281D01*
X0079998Y0026327D01*
X0080052Y0026369D01*
X0080108Y0026409D01*
X0080166Y0026445D01*
X0080227Y0026477D01*
X0080289Y0026506D01*
X0080353Y0026532D01*
X0080418Y0026553D01*
X0080485Y0026571D01*
X0080552Y0026585D01*
X0080620Y0026595D01*
X0080688Y0026601D01*
X0080757Y0026603D01*
X0080826Y0026601D01*
X0080894Y0026595D01*
X0080962Y0026585D01*
X0081029Y0026571D01*
X0081096Y0026553D01*
X0081161Y0026532D01*
X0081225Y0026506D01*
X0081287Y0026477D01*
X0081347Y0026445D01*
X0081406Y0026409D01*
X0081462Y0026369D01*
X0081516Y0026327D01*
X0081567Y0026281D01*
X0081616Y0026232D01*
X0081662Y0026181D01*
X0081704Y0026127D01*
X0081744Y0026071D01*
X0081780Y0026012D01*
X0081812Y0025952D01*
X0081841Y0025890D01*
X0081867Y0025826D01*
X0081888Y0025761D01*
X0081906Y0025694D01*
X0081920Y0025627D01*
X0081930Y0025559D01*
X0081936Y0025491D01*
X0081938Y0025422D01*
X0081936Y0025353D01*
X0081930Y0025285D01*
X0081920Y0025217D01*
X0081906Y0025150D01*
X0081888Y0025083D01*
X0081867Y0025018D01*
X0081841Y0024954D01*
X0081812Y0024892D01*
X0081780Y0024831D01*
X0081744Y0024773D01*
X0081704Y0024717D01*
X0081662Y0024663D01*
X0081616Y0024612D01*
X0081567Y0024563D01*
X0081516Y0024517D01*
X0081462Y0024475D01*
X0081406Y0024435D01*
X0081348Y0024399D01*
X0081287Y0024367D01*
X0081225Y0024338D01*
X0081161Y0024312D01*
X0081096Y0024291D01*
X0081029Y0024273D01*
X0080962Y0024259D01*
X0080894Y0024249D01*
X0080826Y0024243D01*
X0080757Y0024241D01*
X0080688Y0024243D01*
X0080620Y0024249D01*
X0080552Y0024259D01*
X0080485Y0024273D01*
X0080418Y0024291D01*
X0080353Y0024312D01*
X0080289Y0024338D01*
X0080227Y0024367D01*
X0080166Y0024399D01*
X0080108Y0024435D01*
X0080052Y0024475D01*
X0079998Y0024517D01*
X0079947Y0024563D01*
X0079898Y0024612D01*
X0079852Y0024663D01*
X0079810Y0024717D01*
X0079770Y0024773D01*
X0079734Y0024831D01*
X0079702Y0024892D01*
X0079673Y0024954D01*
X0079647Y0025018D01*
X0079626Y0025083D01*
X0079608Y0025150D01*
X0079594Y0025217D01*
X0079584Y0025285D01*
X0079578Y0025353D01*
X0079576Y0025422D01*
X0083513Y0025422D02*
X0083515Y0025491D01*
X0083521Y0025559D01*
X0083531Y0025627D01*
X0083545Y0025694D01*
X0083563Y0025761D01*
X0083584Y0025826D01*
X0083610Y0025890D01*
X0083639Y0025952D01*
X0083671Y0026012D01*
X0083707Y0026071D01*
X0083747Y0026127D01*
X0083789Y0026181D01*
X0083835Y0026232D01*
X0083884Y0026281D01*
X0083935Y0026327D01*
X0083989Y0026369D01*
X0084045Y0026409D01*
X0084103Y0026445D01*
X0084164Y0026477D01*
X0084226Y0026506D01*
X0084290Y0026532D01*
X0084355Y0026553D01*
X0084422Y0026571D01*
X0084489Y0026585D01*
X0084557Y0026595D01*
X0084625Y0026601D01*
X0084694Y0026603D01*
X0084763Y0026601D01*
X0084831Y0026595D01*
X0084899Y0026585D01*
X0084966Y0026571D01*
X0085033Y0026553D01*
X0085098Y0026532D01*
X0085162Y0026506D01*
X0085224Y0026477D01*
X0085284Y0026445D01*
X0085343Y0026409D01*
X0085399Y0026369D01*
X0085453Y0026327D01*
X0085504Y0026281D01*
X0085553Y0026232D01*
X0085599Y0026181D01*
X0085641Y0026127D01*
X0085681Y0026071D01*
X0085717Y0026012D01*
X0085749Y0025952D01*
X0085778Y0025890D01*
X0085804Y0025826D01*
X0085825Y0025761D01*
X0085843Y0025694D01*
X0085857Y0025627D01*
X0085867Y0025559D01*
X0085873Y0025491D01*
X0085875Y0025422D01*
X0085873Y0025353D01*
X0085867Y0025285D01*
X0085857Y0025217D01*
X0085843Y0025150D01*
X0085825Y0025083D01*
X0085804Y0025018D01*
X0085778Y0024954D01*
X0085749Y0024892D01*
X0085717Y0024831D01*
X0085681Y0024773D01*
X0085641Y0024717D01*
X0085599Y0024663D01*
X0085553Y0024612D01*
X0085504Y0024563D01*
X0085453Y0024517D01*
X0085399Y0024475D01*
X0085343Y0024435D01*
X0085285Y0024399D01*
X0085224Y0024367D01*
X0085162Y0024338D01*
X0085098Y0024312D01*
X0085033Y0024291D01*
X0084966Y0024273D01*
X0084899Y0024259D01*
X0084831Y0024249D01*
X0084763Y0024243D01*
X0084694Y0024241D01*
X0084625Y0024243D01*
X0084557Y0024249D01*
X0084489Y0024259D01*
X0084422Y0024273D01*
X0084355Y0024291D01*
X0084290Y0024312D01*
X0084226Y0024338D01*
X0084164Y0024367D01*
X0084103Y0024399D01*
X0084045Y0024435D01*
X0083989Y0024475D01*
X0083935Y0024517D01*
X0083884Y0024563D01*
X0083835Y0024612D01*
X0083789Y0024663D01*
X0083747Y0024717D01*
X0083707Y0024773D01*
X0083671Y0024831D01*
X0083639Y0024892D01*
X0083610Y0024954D01*
X0083584Y0025018D01*
X0083563Y0025083D01*
X0083545Y0025150D01*
X0083531Y0025217D01*
X0083521Y0025285D01*
X0083515Y0025353D01*
X0083513Y0025422D01*
X0083513Y0021485D02*
X0083515Y0021554D01*
X0083521Y0021622D01*
X0083531Y0021690D01*
X0083545Y0021757D01*
X0083563Y0021824D01*
X0083584Y0021889D01*
X0083610Y0021953D01*
X0083639Y0022015D01*
X0083671Y0022075D01*
X0083707Y0022134D01*
X0083747Y0022190D01*
X0083789Y0022244D01*
X0083835Y0022295D01*
X0083884Y0022344D01*
X0083935Y0022390D01*
X0083989Y0022432D01*
X0084045Y0022472D01*
X0084103Y0022508D01*
X0084164Y0022540D01*
X0084226Y0022569D01*
X0084290Y0022595D01*
X0084355Y0022616D01*
X0084422Y0022634D01*
X0084489Y0022648D01*
X0084557Y0022658D01*
X0084625Y0022664D01*
X0084694Y0022666D01*
X0084763Y0022664D01*
X0084831Y0022658D01*
X0084899Y0022648D01*
X0084966Y0022634D01*
X0085033Y0022616D01*
X0085098Y0022595D01*
X0085162Y0022569D01*
X0085224Y0022540D01*
X0085284Y0022508D01*
X0085343Y0022472D01*
X0085399Y0022432D01*
X0085453Y0022390D01*
X0085504Y0022344D01*
X0085553Y0022295D01*
X0085599Y0022244D01*
X0085641Y0022190D01*
X0085681Y0022134D01*
X0085717Y0022075D01*
X0085749Y0022015D01*
X0085778Y0021953D01*
X0085804Y0021889D01*
X0085825Y0021824D01*
X0085843Y0021757D01*
X0085857Y0021690D01*
X0085867Y0021622D01*
X0085873Y0021554D01*
X0085875Y0021485D01*
X0085873Y0021416D01*
X0085867Y0021348D01*
X0085857Y0021280D01*
X0085843Y0021213D01*
X0085825Y0021146D01*
X0085804Y0021081D01*
X0085778Y0021017D01*
X0085749Y0020955D01*
X0085717Y0020894D01*
X0085681Y0020836D01*
X0085641Y0020780D01*
X0085599Y0020726D01*
X0085553Y0020675D01*
X0085504Y0020626D01*
X0085453Y0020580D01*
X0085399Y0020538D01*
X0085343Y0020498D01*
X0085285Y0020462D01*
X0085224Y0020430D01*
X0085162Y0020401D01*
X0085098Y0020375D01*
X0085033Y0020354D01*
X0084966Y0020336D01*
X0084899Y0020322D01*
X0084831Y0020312D01*
X0084763Y0020306D01*
X0084694Y0020304D01*
X0084625Y0020306D01*
X0084557Y0020312D01*
X0084489Y0020322D01*
X0084422Y0020336D01*
X0084355Y0020354D01*
X0084290Y0020375D01*
X0084226Y0020401D01*
X0084164Y0020430D01*
X0084103Y0020462D01*
X0084045Y0020498D01*
X0083989Y0020538D01*
X0083935Y0020580D01*
X0083884Y0020626D01*
X0083835Y0020675D01*
X0083789Y0020726D01*
X0083747Y0020780D01*
X0083707Y0020836D01*
X0083671Y0020894D01*
X0083639Y0020955D01*
X0083610Y0021017D01*
X0083584Y0021081D01*
X0083563Y0021146D01*
X0083545Y0021213D01*
X0083531Y0021280D01*
X0083521Y0021348D01*
X0083515Y0021416D01*
X0083513Y0021485D01*
X0083513Y0017548D02*
X0083515Y0017617D01*
X0083521Y0017685D01*
X0083531Y0017753D01*
X0083545Y0017820D01*
X0083563Y0017887D01*
X0083584Y0017952D01*
X0083610Y0018016D01*
X0083639Y0018078D01*
X0083671Y0018138D01*
X0083707Y0018197D01*
X0083747Y0018253D01*
X0083789Y0018307D01*
X0083835Y0018358D01*
X0083884Y0018407D01*
X0083935Y0018453D01*
X0083989Y0018495D01*
X0084045Y0018535D01*
X0084103Y0018571D01*
X0084164Y0018603D01*
X0084226Y0018632D01*
X0084290Y0018658D01*
X0084355Y0018679D01*
X0084422Y0018697D01*
X0084489Y0018711D01*
X0084557Y0018721D01*
X0084625Y0018727D01*
X0084694Y0018729D01*
X0084763Y0018727D01*
X0084831Y0018721D01*
X0084899Y0018711D01*
X0084966Y0018697D01*
X0085033Y0018679D01*
X0085098Y0018658D01*
X0085162Y0018632D01*
X0085224Y0018603D01*
X0085284Y0018571D01*
X0085343Y0018535D01*
X0085399Y0018495D01*
X0085453Y0018453D01*
X0085504Y0018407D01*
X0085553Y0018358D01*
X0085599Y0018307D01*
X0085641Y0018253D01*
X0085681Y0018197D01*
X0085717Y0018138D01*
X0085749Y0018078D01*
X0085778Y0018016D01*
X0085804Y0017952D01*
X0085825Y0017887D01*
X0085843Y0017820D01*
X0085857Y0017753D01*
X0085867Y0017685D01*
X0085873Y0017617D01*
X0085875Y0017548D01*
X0085873Y0017479D01*
X0085867Y0017411D01*
X0085857Y0017343D01*
X0085843Y0017276D01*
X0085825Y0017209D01*
X0085804Y0017144D01*
X0085778Y0017080D01*
X0085749Y0017018D01*
X0085717Y0016957D01*
X0085681Y0016899D01*
X0085641Y0016843D01*
X0085599Y0016789D01*
X0085553Y0016738D01*
X0085504Y0016689D01*
X0085453Y0016643D01*
X0085399Y0016601D01*
X0085343Y0016561D01*
X0085285Y0016525D01*
X0085224Y0016493D01*
X0085162Y0016464D01*
X0085098Y0016438D01*
X0085033Y0016417D01*
X0084966Y0016399D01*
X0084899Y0016385D01*
X0084831Y0016375D01*
X0084763Y0016369D01*
X0084694Y0016367D01*
X0084625Y0016369D01*
X0084557Y0016375D01*
X0084489Y0016385D01*
X0084422Y0016399D01*
X0084355Y0016417D01*
X0084290Y0016438D01*
X0084226Y0016464D01*
X0084164Y0016493D01*
X0084103Y0016525D01*
X0084045Y0016561D01*
X0083989Y0016601D01*
X0083935Y0016643D01*
X0083884Y0016689D01*
X0083835Y0016738D01*
X0083789Y0016789D01*
X0083747Y0016843D01*
X0083707Y0016899D01*
X0083671Y0016957D01*
X0083639Y0017018D01*
X0083610Y0017080D01*
X0083584Y0017144D01*
X0083563Y0017209D01*
X0083545Y0017276D01*
X0083531Y0017343D01*
X0083521Y0017411D01*
X0083515Y0017479D01*
X0083513Y0017548D01*
X0201624Y0017548D02*
X0201626Y0017617D01*
X0201632Y0017685D01*
X0201642Y0017753D01*
X0201656Y0017820D01*
X0201674Y0017887D01*
X0201695Y0017952D01*
X0201721Y0018016D01*
X0201750Y0018078D01*
X0201782Y0018138D01*
X0201818Y0018197D01*
X0201858Y0018253D01*
X0201900Y0018307D01*
X0201946Y0018358D01*
X0201995Y0018407D01*
X0202046Y0018453D01*
X0202100Y0018495D01*
X0202156Y0018535D01*
X0202214Y0018571D01*
X0202275Y0018603D01*
X0202337Y0018632D01*
X0202401Y0018658D01*
X0202466Y0018679D01*
X0202533Y0018697D01*
X0202600Y0018711D01*
X0202668Y0018721D01*
X0202736Y0018727D01*
X0202805Y0018729D01*
X0202874Y0018727D01*
X0202942Y0018721D01*
X0203010Y0018711D01*
X0203077Y0018697D01*
X0203144Y0018679D01*
X0203209Y0018658D01*
X0203273Y0018632D01*
X0203335Y0018603D01*
X0203395Y0018571D01*
X0203454Y0018535D01*
X0203510Y0018495D01*
X0203564Y0018453D01*
X0203615Y0018407D01*
X0203664Y0018358D01*
X0203710Y0018307D01*
X0203752Y0018253D01*
X0203792Y0018197D01*
X0203828Y0018138D01*
X0203860Y0018078D01*
X0203889Y0018016D01*
X0203915Y0017952D01*
X0203936Y0017887D01*
X0203954Y0017820D01*
X0203968Y0017753D01*
X0203978Y0017685D01*
X0203984Y0017617D01*
X0203986Y0017548D01*
X0203984Y0017479D01*
X0203978Y0017411D01*
X0203968Y0017343D01*
X0203954Y0017276D01*
X0203936Y0017209D01*
X0203915Y0017144D01*
X0203889Y0017080D01*
X0203860Y0017018D01*
X0203828Y0016957D01*
X0203792Y0016899D01*
X0203752Y0016843D01*
X0203710Y0016789D01*
X0203664Y0016738D01*
X0203615Y0016689D01*
X0203564Y0016643D01*
X0203510Y0016601D01*
X0203454Y0016561D01*
X0203396Y0016525D01*
X0203335Y0016493D01*
X0203273Y0016464D01*
X0203209Y0016438D01*
X0203144Y0016417D01*
X0203077Y0016399D01*
X0203010Y0016385D01*
X0202942Y0016375D01*
X0202874Y0016369D01*
X0202805Y0016367D01*
X0202736Y0016369D01*
X0202668Y0016375D01*
X0202600Y0016385D01*
X0202533Y0016399D01*
X0202466Y0016417D01*
X0202401Y0016438D01*
X0202337Y0016464D01*
X0202275Y0016493D01*
X0202214Y0016525D01*
X0202156Y0016561D01*
X0202100Y0016601D01*
X0202046Y0016643D01*
X0201995Y0016689D01*
X0201946Y0016738D01*
X0201900Y0016789D01*
X0201858Y0016843D01*
X0201818Y0016899D01*
X0201782Y0016957D01*
X0201750Y0017018D01*
X0201721Y0017080D01*
X0201695Y0017144D01*
X0201674Y0017209D01*
X0201656Y0017276D01*
X0201642Y0017343D01*
X0201632Y0017411D01*
X0201626Y0017479D01*
X0201624Y0017548D01*
X0201624Y0021485D02*
X0201626Y0021554D01*
X0201632Y0021622D01*
X0201642Y0021690D01*
X0201656Y0021757D01*
X0201674Y0021824D01*
X0201695Y0021889D01*
X0201721Y0021953D01*
X0201750Y0022015D01*
X0201782Y0022075D01*
X0201818Y0022134D01*
X0201858Y0022190D01*
X0201900Y0022244D01*
X0201946Y0022295D01*
X0201995Y0022344D01*
X0202046Y0022390D01*
X0202100Y0022432D01*
X0202156Y0022472D01*
X0202214Y0022508D01*
X0202275Y0022540D01*
X0202337Y0022569D01*
X0202401Y0022595D01*
X0202466Y0022616D01*
X0202533Y0022634D01*
X0202600Y0022648D01*
X0202668Y0022658D01*
X0202736Y0022664D01*
X0202805Y0022666D01*
X0202874Y0022664D01*
X0202942Y0022658D01*
X0203010Y0022648D01*
X0203077Y0022634D01*
X0203144Y0022616D01*
X0203209Y0022595D01*
X0203273Y0022569D01*
X0203335Y0022540D01*
X0203395Y0022508D01*
X0203454Y0022472D01*
X0203510Y0022432D01*
X0203564Y0022390D01*
X0203615Y0022344D01*
X0203664Y0022295D01*
X0203710Y0022244D01*
X0203752Y0022190D01*
X0203792Y0022134D01*
X0203828Y0022075D01*
X0203860Y0022015D01*
X0203889Y0021953D01*
X0203915Y0021889D01*
X0203936Y0021824D01*
X0203954Y0021757D01*
X0203968Y0021690D01*
X0203978Y0021622D01*
X0203984Y0021554D01*
X0203986Y0021485D01*
X0203984Y0021416D01*
X0203978Y0021348D01*
X0203968Y0021280D01*
X0203954Y0021213D01*
X0203936Y0021146D01*
X0203915Y0021081D01*
X0203889Y0021017D01*
X0203860Y0020955D01*
X0203828Y0020894D01*
X0203792Y0020836D01*
X0203752Y0020780D01*
X0203710Y0020726D01*
X0203664Y0020675D01*
X0203615Y0020626D01*
X0203564Y0020580D01*
X0203510Y0020538D01*
X0203454Y0020498D01*
X0203396Y0020462D01*
X0203335Y0020430D01*
X0203273Y0020401D01*
X0203209Y0020375D01*
X0203144Y0020354D01*
X0203077Y0020336D01*
X0203010Y0020322D01*
X0202942Y0020312D01*
X0202874Y0020306D01*
X0202805Y0020304D01*
X0202736Y0020306D01*
X0202668Y0020312D01*
X0202600Y0020322D01*
X0202533Y0020336D01*
X0202466Y0020354D01*
X0202401Y0020375D01*
X0202337Y0020401D01*
X0202275Y0020430D01*
X0202214Y0020462D01*
X0202156Y0020498D01*
X0202100Y0020538D01*
X0202046Y0020580D01*
X0201995Y0020626D01*
X0201946Y0020675D01*
X0201900Y0020726D01*
X0201858Y0020780D01*
X0201818Y0020836D01*
X0201782Y0020894D01*
X0201750Y0020955D01*
X0201721Y0021017D01*
X0201695Y0021081D01*
X0201674Y0021146D01*
X0201656Y0021213D01*
X0201642Y0021280D01*
X0201632Y0021348D01*
X0201626Y0021416D01*
X0201624Y0021485D01*
X0201624Y0025422D02*
X0201626Y0025491D01*
X0201632Y0025559D01*
X0201642Y0025627D01*
X0201656Y0025694D01*
X0201674Y0025761D01*
X0201695Y0025826D01*
X0201721Y0025890D01*
X0201750Y0025952D01*
X0201782Y0026012D01*
X0201818Y0026071D01*
X0201858Y0026127D01*
X0201900Y0026181D01*
X0201946Y0026232D01*
X0201995Y0026281D01*
X0202046Y0026327D01*
X0202100Y0026369D01*
X0202156Y0026409D01*
X0202214Y0026445D01*
X0202275Y0026477D01*
X0202337Y0026506D01*
X0202401Y0026532D01*
X0202466Y0026553D01*
X0202533Y0026571D01*
X0202600Y0026585D01*
X0202668Y0026595D01*
X0202736Y0026601D01*
X0202805Y0026603D01*
X0202874Y0026601D01*
X0202942Y0026595D01*
X0203010Y0026585D01*
X0203077Y0026571D01*
X0203144Y0026553D01*
X0203209Y0026532D01*
X0203273Y0026506D01*
X0203335Y0026477D01*
X0203395Y0026445D01*
X0203454Y0026409D01*
X0203510Y0026369D01*
X0203564Y0026327D01*
X0203615Y0026281D01*
X0203664Y0026232D01*
X0203710Y0026181D01*
X0203752Y0026127D01*
X0203792Y0026071D01*
X0203828Y0026012D01*
X0203860Y0025952D01*
X0203889Y0025890D01*
X0203915Y0025826D01*
X0203936Y0025761D01*
X0203954Y0025694D01*
X0203968Y0025627D01*
X0203978Y0025559D01*
X0203984Y0025491D01*
X0203986Y0025422D01*
X0203984Y0025353D01*
X0203978Y0025285D01*
X0203968Y0025217D01*
X0203954Y0025150D01*
X0203936Y0025083D01*
X0203915Y0025018D01*
X0203889Y0024954D01*
X0203860Y0024892D01*
X0203828Y0024831D01*
X0203792Y0024773D01*
X0203752Y0024717D01*
X0203710Y0024663D01*
X0203664Y0024612D01*
X0203615Y0024563D01*
X0203564Y0024517D01*
X0203510Y0024475D01*
X0203454Y0024435D01*
X0203396Y0024399D01*
X0203335Y0024367D01*
X0203273Y0024338D01*
X0203209Y0024312D01*
X0203144Y0024291D01*
X0203077Y0024273D01*
X0203010Y0024259D01*
X0202942Y0024249D01*
X0202874Y0024243D01*
X0202805Y0024241D01*
X0202736Y0024243D01*
X0202668Y0024249D01*
X0202600Y0024259D01*
X0202533Y0024273D01*
X0202466Y0024291D01*
X0202401Y0024312D01*
X0202337Y0024338D01*
X0202275Y0024367D01*
X0202214Y0024399D01*
X0202156Y0024435D01*
X0202100Y0024475D01*
X0202046Y0024517D01*
X0201995Y0024563D01*
X0201946Y0024612D01*
X0201900Y0024663D01*
X0201858Y0024717D01*
X0201818Y0024773D01*
X0201782Y0024831D01*
X0201750Y0024892D01*
X0201721Y0024954D01*
X0201695Y0025018D01*
X0201674Y0025083D01*
X0201656Y0025150D01*
X0201642Y0025217D01*
X0201632Y0025285D01*
X0201626Y0025353D01*
X0201624Y0025422D01*
X0205561Y0025422D02*
X0205563Y0025491D01*
X0205569Y0025559D01*
X0205579Y0025627D01*
X0205593Y0025694D01*
X0205611Y0025761D01*
X0205632Y0025826D01*
X0205658Y0025890D01*
X0205687Y0025952D01*
X0205719Y0026012D01*
X0205755Y0026071D01*
X0205795Y0026127D01*
X0205837Y0026181D01*
X0205883Y0026232D01*
X0205932Y0026281D01*
X0205983Y0026327D01*
X0206037Y0026369D01*
X0206093Y0026409D01*
X0206151Y0026445D01*
X0206212Y0026477D01*
X0206274Y0026506D01*
X0206338Y0026532D01*
X0206403Y0026553D01*
X0206470Y0026571D01*
X0206537Y0026585D01*
X0206605Y0026595D01*
X0206673Y0026601D01*
X0206742Y0026603D01*
X0206811Y0026601D01*
X0206879Y0026595D01*
X0206947Y0026585D01*
X0207014Y0026571D01*
X0207081Y0026553D01*
X0207146Y0026532D01*
X0207210Y0026506D01*
X0207272Y0026477D01*
X0207332Y0026445D01*
X0207391Y0026409D01*
X0207447Y0026369D01*
X0207501Y0026327D01*
X0207552Y0026281D01*
X0207601Y0026232D01*
X0207647Y0026181D01*
X0207689Y0026127D01*
X0207729Y0026071D01*
X0207765Y0026012D01*
X0207797Y0025952D01*
X0207826Y0025890D01*
X0207852Y0025826D01*
X0207873Y0025761D01*
X0207891Y0025694D01*
X0207905Y0025627D01*
X0207915Y0025559D01*
X0207921Y0025491D01*
X0207923Y0025422D01*
X0207921Y0025353D01*
X0207915Y0025285D01*
X0207905Y0025217D01*
X0207891Y0025150D01*
X0207873Y0025083D01*
X0207852Y0025018D01*
X0207826Y0024954D01*
X0207797Y0024892D01*
X0207765Y0024831D01*
X0207729Y0024773D01*
X0207689Y0024717D01*
X0207647Y0024663D01*
X0207601Y0024612D01*
X0207552Y0024563D01*
X0207501Y0024517D01*
X0207447Y0024475D01*
X0207391Y0024435D01*
X0207333Y0024399D01*
X0207272Y0024367D01*
X0207210Y0024338D01*
X0207146Y0024312D01*
X0207081Y0024291D01*
X0207014Y0024273D01*
X0206947Y0024259D01*
X0206879Y0024249D01*
X0206811Y0024243D01*
X0206742Y0024241D01*
X0206673Y0024243D01*
X0206605Y0024249D01*
X0206537Y0024259D01*
X0206470Y0024273D01*
X0206403Y0024291D01*
X0206338Y0024312D01*
X0206274Y0024338D01*
X0206212Y0024367D01*
X0206151Y0024399D01*
X0206093Y0024435D01*
X0206037Y0024475D01*
X0205983Y0024517D01*
X0205932Y0024563D01*
X0205883Y0024612D01*
X0205837Y0024663D01*
X0205795Y0024717D01*
X0205755Y0024773D01*
X0205719Y0024831D01*
X0205687Y0024892D01*
X0205658Y0024954D01*
X0205632Y0025018D01*
X0205611Y0025083D01*
X0205593Y0025150D01*
X0205579Y0025217D01*
X0205569Y0025285D01*
X0205563Y0025353D01*
X0205561Y0025422D01*
X0205561Y0021485D02*
X0205563Y0021554D01*
X0205569Y0021622D01*
X0205579Y0021690D01*
X0205593Y0021757D01*
X0205611Y0021824D01*
X0205632Y0021889D01*
X0205658Y0021953D01*
X0205687Y0022015D01*
X0205719Y0022075D01*
X0205755Y0022134D01*
X0205795Y0022190D01*
X0205837Y0022244D01*
X0205883Y0022295D01*
X0205932Y0022344D01*
X0205983Y0022390D01*
X0206037Y0022432D01*
X0206093Y0022472D01*
X0206151Y0022508D01*
X0206212Y0022540D01*
X0206274Y0022569D01*
X0206338Y0022595D01*
X0206403Y0022616D01*
X0206470Y0022634D01*
X0206537Y0022648D01*
X0206605Y0022658D01*
X0206673Y0022664D01*
X0206742Y0022666D01*
X0206811Y0022664D01*
X0206879Y0022658D01*
X0206947Y0022648D01*
X0207014Y0022634D01*
X0207081Y0022616D01*
X0207146Y0022595D01*
X0207210Y0022569D01*
X0207272Y0022540D01*
X0207332Y0022508D01*
X0207391Y0022472D01*
X0207447Y0022432D01*
X0207501Y0022390D01*
X0207552Y0022344D01*
X0207601Y0022295D01*
X0207647Y0022244D01*
X0207689Y0022190D01*
X0207729Y0022134D01*
X0207765Y0022075D01*
X0207797Y0022015D01*
X0207826Y0021953D01*
X0207852Y0021889D01*
X0207873Y0021824D01*
X0207891Y0021757D01*
X0207905Y0021690D01*
X0207915Y0021622D01*
X0207921Y0021554D01*
X0207923Y0021485D01*
X0207921Y0021416D01*
X0207915Y0021348D01*
X0207905Y0021280D01*
X0207891Y0021213D01*
X0207873Y0021146D01*
X0207852Y0021081D01*
X0207826Y0021017D01*
X0207797Y0020955D01*
X0207765Y0020894D01*
X0207729Y0020836D01*
X0207689Y0020780D01*
X0207647Y0020726D01*
X0207601Y0020675D01*
X0207552Y0020626D01*
X0207501Y0020580D01*
X0207447Y0020538D01*
X0207391Y0020498D01*
X0207333Y0020462D01*
X0207272Y0020430D01*
X0207210Y0020401D01*
X0207146Y0020375D01*
X0207081Y0020354D01*
X0207014Y0020336D01*
X0206947Y0020322D01*
X0206879Y0020312D01*
X0206811Y0020306D01*
X0206742Y0020304D01*
X0206673Y0020306D01*
X0206605Y0020312D01*
X0206537Y0020322D01*
X0206470Y0020336D01*
X0206403Y0020354D01*
X0206338Y0020375D01*
X0206274Y0020401D01*
X0206212Y0020430D01*
X0206151Y0020462D01*
X0206093Y0020498D01*
X0206037Y0020538D01*
X0205983Y0020580D01*
X0205932Y0020626D01*
X0205883Y0020675D01*
X0205837Y0020726D01*
X0205795Y0020780D01*
X0205755Y0020836D01*
X0205719Y0020894D01*
X0205687Y0020955D01*
X0205658Y0021017D01*
X0205632Y0021081D01*
X0205611Y0021146D01*
X0205593Y0021213D01*
X0205579Y0021280D01*
X0205569Y0021348D01*
X0205563Y0021416D01*
X0205561Y0021485D01*
X0205561Y0017548D02*
X0205563Y0017617D01*
X0205569Y0017685D01*
X0205579Y0017753D01*
X0205593Y0017820D01*
X0205611Y0017887D01*
X0205632Y0017952D01*
X0205658Y0018016D01*
X0205687Y0018078D01*
X0205719Y0018138D01*
X0205755Y0018197D01*
X0205795Y0018253D01*
X0205837Y0018307D01*
X0205883Y0018358D01*
X0205932Y0018407D01*
X0205983Y0018453D01*
X0206037Y0018495D01*
X0206093Y0018535D01*
X0206151Y0018571D01*
X0206212Y0018603D01*
X0206274Y0018632D01*
X0206338Y0018658D01*
X0206403Y0018679D01*
X0206470Y0018697D01*
X0206537Y0018711D01*
X0206605Y0018721D01*
X0206673Y0018727D01*
X0206742Y0018729D01*
X0206811Y0018727D01*
X0206879Y0018721D01*
X0206947Y0018711D01*
X0207014Y0018697D01*
X0207081Y0018679D01*
X0207146Y0018658D01*
X0207210Y0018632D01*
X0207272Y0018603D01*
X0207332Y0018571D01*
X0207391Y0018535D01*
X0207447Y0018495D01*
X0207501Y0018453D01*
X0207552Y0018407D01*
X0207601Y0018358D01*
X0207647Y0018307D01*
X0207689Y0018253D01*
X0207729Y0018197D01*
X0207765Y0018138D01*
X0207797Y0018078D01*
X0207826Y0018016D01*
X0207852Y0017952D01*
X0207873Y0017887D01*
X0207891Y0017820D01*
X0207905Y0017753D01*
X0207915Y0017685D01*
X0207921Y0017617D01*
X0207923Y0017548D01*
X0207921Y0017479D01*
X0207915Y0017411D01*
X0207905Y0017343D01*
X0207891Y0017276D01*
X0207873Y0017209D01*
X0207852Y0017144D01*
X0207826Y0017080D01*
X0207797Y0017018D01*
X0207765Y0016957D01*
X0207729Y0016899D01*
X0207689Y0016843D01*
X0207647Y0016789D01*
X0207601Y0016738D01*
X0207552Y0016689D01*
X0207501Y0016643D01*
X0207447Y0016601D01*
X0207391Y0016561D01*
X0207333Y0016525D01*
X0207272Y0016493D01*
X0207210Y0016464D01*
X0207146Y0016438D01*
X0207081Y0016417D01*
X0207014Y0016399D01*
X0206947Y0016385D01*
X0206879Y0016375D01*
X0206811Y0016369D01*
X0206742Y0016367D01*
X0206673Y0016369D01*
X0206605Y0016375D01*
X0206537Y0016385D01*
X0206470Y0016399D01*
X0206403Y0016417D01*
X0206338Y0016438D01*
X0206274Y0016464D01*
X0206212Y0016493D01*
X0206151Y0016525D01*
X0206093Y0016561D01*
X0206037Y0016601D01*
X0205983Y0016643D01*
X0205932Y0016689D01*
X0205883Y0016738D01*
X0205837Y0016789D01*
X0205795Y0016843D01*
X0205755Y0016899D01*
X0205719Y0016957D01*
X0205687Y0017018D01*
X0205658Y0017080D01*
X0205632Y0017144D01*
X0205611Y0017209D01*
X0205593Y0017276D01*
X0205579Y0017343D01*
X0205569Y0017411D01*
X0205563Y0017479D01*
X0205561Y0017548D01*
X0209498Y0017548D02*
X0209500Y0017617D01*
X0209506Y0017685D01*
X0209516Y0017753D01*
X0209530Y0017820D01*
X0209548Y0017887D01*
X0209569Y0017952D01*
X0209595Y0018016D01*
X0209624Y0018078D01*
X0209656Y0018138D01*
X0209692Y0018197D01*
X0209732Y0018253D01*
X0209774Y0018307D01*
X0209820Y0018358D01*
X0209869Y0018407D01*
X0209920Y0018453D01*
X0209974Y0018495D01*
X0210030Y0018535D01*
X0210088Y0018571D01*
X0210149Y0018603D01*
X0210211Y0018632D01*
X0210275Y0018658D01*
X0210340Y0018679D01*
X0210407Y0018697D01*
X0210474Y0018711D01*
X0210542Y0018721D01*
X0210610Y0018727D01*
X0210679Y0018729D01*
X0210748Y0018727D01*
X0210816Y0018721D01*
X0210884Y0018711D01*
X0210951Y0018697D01*
X0211018Y0018679D01*
X0211083Y0018658D01*
X0211147Y0018632D01*
X0211209Y0018603D01*
X0211269Y0018571D01*
X0211328Y0018535D01*
X0211384Y0018495D01*
X0211438Y0018453D01*
X0211489Y0018407D01*
X0211538Y0018358D01*
X0211584Y0018307D01*
X0211626Y0018253D01*
X0211666Y0018197D01*
X0211702Y0018138D01*
X0211734Y0018078D01*
X0211763Y0018016D01*
X0211789Y0017952D01*
X0211810Y0017887D01*
X0211828Y0017820D01*
X0211842Y0017753D01*
X0211852Y0017685D01*
X0211858Y0017617D01*
X0211860Y0017548D01*
X0211858Y0017479D01*
X0211852Y0017411D01*
X0211842Y0017343D01*
X0211828Y0017276D01*
X0211810Y0017209D01*
X0211789Y0017144D01*
X0211763Y0017080D01*
X0211734Y0017018D01*
X0211702Y0016957D01*
X0211666Y0016899D01*
X0211626Y0016843D01*
X0211584Y0016789D01*
X0211538Y0016738D01*
X0211489Y0016689D01*
X0211438Y0016643D01*
X0211384Y0016601D01*
X0211328Y0016561D01*
X0211270Y0016525D01*
X0211209Y0016493D01*
X0211147Y0016464D01*
X0211083Y0016438D01*
X0211018Y0016417D01*
X0210951Y0016399D01*
X0210884Y0016385D01*
X0210816Y0016375D01*
X0210748Y0016369D01*
X0210679Y0016367D01*
X0210610Y0016369D01*
X0210542Y0016375D01*
X0210474Y0016385D01*
X0210407Y0016399D01*
X0210340Y0016417D01*
X0210275Y0016438D01*
X0210211Y0016464D01*
X0210149Y0016493D01*
X0210088Y0016525D01*
X0210030Y0016561D01*
X0209974Y0016601D01*
X0209920Y0016643D01*
X0209869Y0016689D01*
X0209820Y0016738D01*
X0209774Y0016789D01*
X0209732Y0016843D01*
X0209692Y0016899D01*
X0209656Y0016957D01*
X0209624Y0017018D01*
X0209595Y0017080D01*
X0209569Y0017144D01*
X0209548Y0017209D01*
X0209530Y0017276D01*
X0209516Y0017343D01*
X0209506Y0017411D01*
X0209500Y0017479D01*
X0209498Y0017548D01*
X0209498Y0021485D02*
X0209500Y0021554D01*
X0209506Y0021622D01*
X0209516Y0021690D01*
X0209530Y0021757D01*
X0209548Y0021824D01*
X0209569Y0021889D01*
X0209595Y0021953D01*
X0209624Y0022015D01*
X0209656Y0022075D01*
X0209692Y0022134D01*
X0209732Y0022190D01*
X0209774Y0022244D01*
X0209820Y0022295D01*
X0209869Y0022344D01*
X0209920Y0022390D01*
X0209974Y0022432D01*
X0210030Y0022472D01*
X0210088Y0022508D01*
X0210149Y0022540D01*
X0210211Y0022569D01*
X0210275Y0022595D01*
X0210340Y0022616D01*
X0210407Y0022634D01*
X0210474Y0022648D01*
X0210542Y0022658D01*
X0210610Y0022664D01*
X0210679Y0022666D01*
X0210748Y0022664D01*
X0210816Y0022658D01*
X0210884Y0022648D01*
X0210951Y0022634D01*
X0211018Y0022616D01*
X0211083Y0022595D01*
X0211147Y0022569D01*
X0211209Y0022540D01*
X0211269Y0022508D01*
X0211328Y0022472D01*
X0211384Y0022432D01*
X0211438Y0022390D01*
X0211489Y0022344D01*
X0211538Y0022295D01*
X0211584Y0022244D01*
X0211626Y0022190D01*
X0211666Y0022134D01*
X0211702Y0022075D01*
X0211734Y0022015D01*
X0211763Y0021953D01*
X0211789Y0021889D01*
X0211810Y0021824D01*
X0211828Y0021757D01*
X0211842Y0021690D01*
X0211852Y0021622D01*
X0211858Y0021554D01*
X0211860Y0021485D01*
X0211858Y0021416D01*
X0211852Y0021348D01*
X0211842Y0021280D01*
X0211828Y0021213D01*
X0211810Y0021146D01*
X0211789Y0021081D01*
X0211763Y0021017D01*
X0211734Y0020955D01*
X0211702Y0020894D01*
X0211666Y0020836D01*
X0211626Y0020780D01*
X0211584Y0020726D01*
X0211538Y0020675D01*
X0211489Y0020626D01*
X0211438Y0020580D01*
X0211384Y0020538D01*
X0211328Y0020498D01*
X0211270Y0020462D01*
X0211209Y0020430D01*
X0211147Y0020401D01*
X0211083Y0020375D01*
X0211018Y0020354D01*
X0210951Y0020336D01*
X0210884Y0020322D01*
X0210816Y0020312D01*
X0210748Y0020306D01*
X0210679Y0020304D01*
X0210610Y0020306D01*
X0210542Y0020312D01*
X0210474Y0020322D01*
X0210407Y0020336D01*
X0210340Y0020354D01*
X0210275Y0020375D01*
X0210211Y0020401D01*
X0210149Y0020430D01*
X0210088Y0020462D01*
X0210030Y0020498D01*
X0209974Y0020538D01*
X0209920Y0020580D01*
X0209869Y0020626D01*
X0209820Y0020675D01*
X0209774Y0020726D01*
X0209732Y0020780D01*
X0209692Y0020836D01*
X0209656Y0020894D01*
X0209624Y0020955D01*
X0209595Y0021017D01*
X0209569Y0021081D01*
X0209548Y0021146D01*
X0209530Y0021213D01*
X0209516Y0021280D01*
X0209506Y0021348D01*
X0209500Y0021416D01*
X0209498Y0021485D01*
X0209498Y0025422D02*
X0209500Y0025491D01*
X0209506Y0025559D01*
X0209516Y0025627D01*
X0209530Y0025694D01*
X0209548Y0025761D01*
X0209569Y0025826D01*
X0209595Y0025890D01*
X0209624Y0025952D01*
X0209656Y0026012D01*
X0209692Y0026071D01*
X0209732Y0026127D01*
X0209774Y0026181D01*
X0209820Y0026232D01*
X0209869Y0026281D01*
X0209920Y0026327D01*
X0209974Y0026369D01*
X0210030Y0026409D01*
X0210088Y0026445D01*
X0210149Y0026477D01*
X0210211Y0026506D01*
X0210275Y0026532D01*
X0210340Y0026553D01*
X0210407Y0026571D01*
X0210474Y0026585D01*
X0210542Y0026595D01*
X0210610Y0026601D01*
X0210679Y0026603D01*
X0210748Y0026601D01*
X0210816Y0026595D01*
X0210884Y0026585D01*
X0210951Y0026571D01*
X0211018Y0026553D01*
X0211083Y0026532D01*
X0211147Y0026506D01*
X0211209Y0026477D01*
X0211269Y0026445D01*
X0211328Y0026409D01*
X0211384Y0026369D01*
X0211438Y0026327D01*
X0211489Y0026281D01*
X0211538Y0026232D01*
X0211584Y0026181D01*
X0211626Y0026127D01*
X0211666Y0026071D01*
X0211702Y0026012D01*
X0211734Y0025952D01*
X0211763Y0025890D01*
X0211789Y0025826D01*
X0211810Y0025761D01*
X0211828Y0025694D01*
X0211842Y0025627D01*
X0211852Y0025559D01*
X0211858Y0025491D01*
X0211860Y0025422D01*
X0211858Y0025353D01*
X0211852Y0025285D01*
X0211842Y0025217D01*
X0211828Y0025150D01*
X0211810Y0025083D01*
X0211789Y0025018D01*
X0211763Y0024954D01*
X0211734Y0024892D01*
X0211702Y0024831D01*
X0211666Y0024773D01*
X0211626Y0024717D01*
X0211584Y0024663D01*
X0211538Y0024612D01*
X0211489Y0024563D01*
X0211438Y0024517D01*
X0211384Y0024475D01*
X0211328Y0024435D01*
X0211270Y0024399D01*
X0211209Y0024367D01*
X0211147Y0024338D01*
X0211083Y0024312D01*
X0211018Y0024291D01*
X0210951Y0024273D01*
X0210884Y0024259D01*
X0210816Y0024249D01*
X0210748Y0024243D01*
X0210679Y0024241D01*
X0210610Y0024243D01*
X0210542Y0024249D01*
X0210474Y0024259D01*
X0210407Y0024273D01*
X0210340Y0024291D01*
X0210275Y0024312D01*
X0210211Y0024338D01*
X0210149Y0024367D01*
X0210088Y0024399D01*
X0210030Y0024435D01*
X0209974Y0024475D01*
X0209920Y0024517D01*
X0209869Y0024563D01*
X0209820Y0024612D01*
X0209774Y0024663D01*
X0209732Y0024717D01*
X0209692Y0024773D01*
X0209656Y0024831D01*
X0209624Y0024892D01*
X0209595Y0024954D01*
X0209569Y0025018D01*
X0209548Y0025083D01*
X0209530Y0025150D01*
X0209516Y0025217D01*
X0209506Y0025285D01*
X0209500Y0025353D01*
X0209498Y0025422D01*
X0265403Y0041170D02*
X0265405Y0041328D01*
X0265411Y0041486D01*
X0265421Y0041644D01*
X0265435Y0041802D01*
X0265453Y0041959D01*
X0265474Y0042116D01*
X0265500Y0042272D01*
X0265530Y0042428D01*
X0265563Y0042583D01*
X0265601Y0042736D01*
X0265642Y0042889D01*
X0265687Y0043041D01*
X0265736Y0043192D01*
X0265789Y0043341D01*
X0265845Y0043489D01*
X0265905Y0043635D01*
X0265969Y0043780D01*
X0266037Y0043923D01*
X0266108Y0044065D01*
X0266182Y0044205D01*
X0266260Y0044342D01*
X0266342Y0044478D01*
X0266426Y0044612D01*
X0266515Y0044743D01*
X0266606Y0044872D01*
X0266701Y0044999D01*
X0266798Y0045124D01*
X0266899Y0045246D01*
X0267003Y0045365D01*
X0267110Y0045482D01*
X0267220Y0045596D01*
X0267333Y0045707D01*
X0267448Y0045816D01*
X0267566Y0045921D01*
X0267687Y0046023D01*
X0267810Y0046123D01*
X0267936Y0046219D01*
X0268064Y0046312D01*
X0268194Y0046402D01*
X0268327Y0046488D01*
X0268462Y0046572D01*
X0268598Y0046651D01*
X0268737Y0046728D01*
X0268878Y0046800D01*
X0269020Y0046870D01*
X0269164Y0046935D01*
X0269310Y0046997D01*
X0269457Y0047055D01*
X0269606Y0047110D01*
X0269756Y0047161D01*
X0269907Y0047208D01*
X0270059Y0047251D01*
X0270212Y0047290D01*
X0270367Y0047326D01*
X0270522Y0047357D01*
X0270678Y0047385D01*
X0270834Y0047409D01*
X0270991Y0047429D01*
X0271149Y0047445D01*
X0271306Y0047457D01*
X0271465Y0047465D01*
X0271623Y0047469D01*
X0271781Y0047469D01*
X0271939Y0047465D01*
X0272098Y0047457D01*
X0272255Y0047445D01*
X0272413Y0047429D01*
X0272570Y0047409D01*
X0272726Y0047385D01*
X0272882Y0047357D01*
X0273037Y0047326D01*
X0273192Y0047290D01*
X0273345Y0047251D01*
X0273497Y0047208D01*
X0273648Y0047161D01*
X0273798Y0047110D01*
X0273947Y0047055D01*
X0274094Y0046997D01*
X0274240Y0046935D01*
X0274384Y0046870D01*
X0274526Y0046800D01*
X0274667Y0046728D01*
X0274806Y0046651D01*
X0274942Y0046572D01*
X0275077Y0046488D01*
X0275210Y0046402D01*
X0275340Y0046312D01*
X0275468Y0046219D01*
X0275594Y0046123D01*
X0275717Y0046023D01*
X0275838Y0045921D01*
X0275956Y0045816D01*
X0276071Y0045707D01*
X0276184Y0045596D01*
X0276294Y0045482D01*
X0276401Y0045365D01*
X0276505Y0045246D01*
X0276606Y0045124D01*
X0276703Y0044999D01*
X0276798Y0044872D01*
X0276889Y0044743D01*
X0276978Y0044612D01*
X0277062Y0044478D01*
X0277144Y0044342D01*
X0277222Y0044205D01*
X0277296Y0044065D01*
X0277367Y0043923D01*
X0277435Y0043780D01*
X0277499Y0043635D01*
X0277559Y0043489D01*
X0277615Y0043341D01*
X0277668Y0043192D01*
X0277717Y0043041D01*
X0277762Y0042889D01*
X0277803Y0042736D01*
X0277841Y0042583D01*
X0277874Y0042428D01*
X0277904Y0042272D01*
X0277930Y0042116D01*
X0277951Y0041959D01*
X0277969Y0041802D01*
X0277983Y0041644D01*
X0277993Y0041486D01*
X0277999Y0041328D01*
X0278001Y0041170D01*
X0277999Y0041012D01*
X0277993Y0040854D01*
X0277983Y0040696D01*
X0277969Y0040538D01*
X0277951Y0040381D01*
X0277930Y0040224D01*
X0277904Y0040068D01*
X0277874Y0039912D01*
X0277841Y0039757D01*
X0277803Y0039604D01*
X0277762Y0039451D01*
X0277717Y0039299D01*
X0277668Y0039148D01*
X0277615Y0038999D01*
X0277559Y0038851D01*
X0277499Y0038705D01*
X0277435Y0038560D01*
X0277367Y0038417D01*
X0277296Y0038275D01*
X0277222Y0038135D01*
X0277144Y0037998D01*
X0277062Y0037862D01*
X0276978Y0037728D01*
X0276889Y0037597D01*
X0276798Y0037468D01*
X0276703Y0037341D01*
X0276606Y0037216D01*
X0276505Y0037094D01*
X0276401Y0036975D01*
X0276294Y0036858D01*
X0276184Y0036744D01*
X0276071Y0036633D01*
X0275956Y0036524D01*
X0275838Y0036419D01*
X0275717Y0036317D01*
X0275594Y0036217D01*
X0275468Y0036121D01*
X0275340Y0036028D01*
X0275210Y0035938D01*
X0275077Y0035852D01*
X0274942Y0035768D01*
X0274806Y0035689D01*
X0274667Y0035612D01*
X0274526Y0035540D01*
X0274384Y0035470D01*
X0274240Y0035405D01*
X0274094Y0035343D01*
X0273947Y0035285D01*
X0273798Y0035230D01*
X0273648Y0035179D01*
X0273497Y0035132D01*
X0273345Y0035089D01*
X0273192Y0035050D01*
X0273037Y0035014D01*
X0272882Y0034983D01*
X0272726Y0034955D01*
X0272570Y0034931D01*
X0272413Y0034911D01*
X0272255Y0034895D01*
X0272098Y0034883D01*
X0271939Y0034875D01*
X0271781Y0034871D01*
X0271623Y0034871D01*
X0271465Y0034875D01*
X0271306Y0034883D01*
X0271149Y0034895D01*
X0270991Y0034911D01*
X0270834Y0034931D01*
X0270678Y0034955D01*
X0270522Y0034983D01*
X0270367Y0035014D01*
X0270212Y0035050D01*
X0270059Y0035089D01*
X0269907Y0035132D01*
X0269756Y0035179D01*
X0269606Y0035230D01*
X0269457Y0035285D01*
X0269310Y0035343D01*
X0269164Y0035405D01*
X0269020Y0035470D01*
X0268878Y0035540D01*
X0268737Y0035612D01*
X0268598Y0035689D01*
X0268462Y0035768D01*
X0268327Y0035852D01*
X0268194Y0035938D01*
X0268064Y0036028D01*
X0267936Y0036121D01*
X0267810Y0036217D01*
X0267687Y0036317D01*
X0267566Y0036419D01*
X0267448Y0036524D01*
X0267333Y0036633D01*
X0267220Y0036744D01*
X0267110Y0036858D01*
X0267003Y0036975D01*
X0266899Y0037094D01*
X0266798Y0037216D01*
X0266701Y0037341D01*
X0266606Y0037468D01*
X0266515Y0037597D01*
X0266426Y0037728D01*
X0266342Y0037862D01*
X0266260Y0037998D01*
X0266182Y0038135D01*
X0266108Y0038275D01*
X0266037Y0038417D01*
X0265969Y0038560D01*
X0265905Y0038705D01*
X0265845Y0038851D01*
X0265789Y0038999D01*
X0265736Y0039148D01*
X0265687Y0039299D01*
X0265642Y0039451D01*
X0265601Y0039604D01*
X0265563Y0039757D01*
X0265530Y0039912D01*
X0265500Y0040068D01*
X0265474Y0040224D01*
X0265453Y0040381D01*
X0265435Y0040538D01*
X0265421Y0040696D01*
X0265411Y0040854D01*
X0265405Y0041012D01*
X0265403Y0041170D01*
X0267371Y0008690D02*
X0267373Y0008821D01*
X0267379Y0008953D01*
X0267389Y0009084D01*
X0267403Y0009215D01*
X0267421Y0009345D01*
X0267443Y0009474D01*
X0267468Y0009603D01*
X0267498Y0009731D01*
X0267532Y0009858D01*
X0267569Y0009985D01*
X0267610Y0010109D01*
X0267655Y0010233D01*
X0267704Y0010355D01*
X0267756Y0010476D01*
X0267812Y0010594D01*
X0267872Y0010712D01*
X0267935Y0010827D01*
X0268002Y0010940D01*
X0268072Y0011052D01*
X0268145Y0011161D01*
X0268221Y0011267D01*
X0268301Y0011372D01*
X0268384Y0011474D01*
X0268470Y0011573D01*
X0268559Y0011670D01*
X0268651Y0011764D01*
X0268746Y0011855D01*
X0268843Y0011944D01*
X0268943Y0012029D01*
X0269046Y0012111D01*
X0269151Y0012190D01*
X0269258Y0012266D01*
X0269368Y0012338D01*
X0269480Y0012407D01*
X0269594Y0012473D01*
X0269709Y0012535D01*
X0269827Y0012594D01*
X0269946Y0012649D01*
X0270067Y0012701D01*
X0270190Y0012748D01*
X0270314Y0012792D01*
X0270439Y0012833D01*
X0270565Y0012869D01*
X0270693Y0012902D01*
X0270821Y0012930D01*
X0270950Y0012955D01*
X0271080Y0012976D01*
X0271210Y0012993D01*
X0271341Y0013006D01*
X0271472Y0013015D01*
X0271603Y0013020D01*
X0271735Y0013021D01*
X0271866Y0013018D01*
X0271998Y0013011D01*
X0272129Y0013000D01*
X0272259Y0012985D01*
X0272389Y0012966D01*
X0272519Y0012943D01*
X0272647Y0012917D01*
X0272775Y0012886D01*
X0272902Y0012851D01*
X0273028Y0012813D01*
X0273152Y0012771D01*
X0273276Y0012725D01*
X0273397Y0012675D01*
X0273517Y0012622D01*
X0273636Y0012565D01*
X0273753Y0012505D01*
X0273867Y0012441D01*
X0273980Y0012373D01*
X0274091Y0012302D01*
X0274200Y0012228D01*
X0274306Y0012151D01*
X0274410Y0012070D01*
X0274511Y0011987D01*
X0274610Y0011900D01*
X0274706Y0011810D01*
X0274799Y0011717D01*
X0274890Y0011622D01*
X0274977Y0011524D01*
X0275062Y0011423D01*
X0275143Y0011320D01*
X0275221Y0011214D01*
X0275296Y0011106D01*
X0275368Y0010996D01*
X0275436Y0010884D01*
X0275501Y0010770D01*
X0275562Y0010653D01*
X0275620Y0010535D01*
X0275674Y0010415D01*
X0275725Y0010294D01*
X0275772Y0010171D01*
X0275815Y0010047D01*
X0275854Y0009922D01*
X0275890Y0009795D01*
X0275921Y0009667D01*
X0275949Y0009539D01*
X0275973Y0009410D01*
X0275993Y0009280D01*
X0276009Y0009149D01*
X0276021Y0009018D01*
X0276029Y0008887D01*
X0276033Y0008756D01*
X0276033Y0008624D01*
X0276029Y0008493D01*
X0276021Y0008362D01*
X0276009Y0008231D01*
X0275993Y0008100D01*
X0275973Y0007970D01*
X0275949Y0007841D01*
X0275921Y0007713D01*
X0275890Y0007585D01*
X0275854Y0007458D01*
X0275815Y0007333D01*
X0275772Y0007209D01*
X0275725Y0007086D01*
X0275674Y0006965D01*
X0275620Y0006845D01*
X0275562Y0006727D01*
X0275501Y0006610D01*
X0275436Y0006496D01*
X0275368Y0006384D01*
X0275296Y0006274D01*
X0275221Y0006166D01*
X0275143Y0006060D01*
X0275062Y0005957D01*
X0274977Y0005856D01*
X0274890Y0005758D01*
X0274799Y0005663D01*
X0274706Y0005570D01*
X0274610Y0005480D01*
X0274511Y0005393D01*
X0274410Y0005310D01*
X0274306Y0005229D01*
X0274200Y0005152D01*
X0274091Y0005078D01*
X0273980Y0005007D01*
X0273868Y0004939D01*
X0273753Y0004875D01*
X0273636Y0004815D01*
X0273517Y0004758D01*
X0273397Y0004705D01*
X0273276Y0004655D01*
X0273152Y0004609D01*
X0273028Y0004567D01*
X0272902Y0004529D01*
X0272775Y0004494D01*
X0272647Y0004463D01*
X0272519Y0004437D01*
X0272389Y0004414D01*
X0272259Y0004395D01*
X0272129Y0004380D01*
X0271998Y0004369D01*
X0271866Y0004362D01*
X0271735Y0004359D01*
X0271603Y0004360D01*
X0271472Y0004365D01*
X0271341Y0004374D01*
X0271210Y0004387D01*
X0271080Y0004404D01*
X0270950Y0004425D01*
X0270821Y0004450D01*
X0270693Y0004478D01*
X0270565Y0004511D01*
X0270439Y0004547D01*
X0270314Y0004588D01*
X0270190Y0004632D01*
X0270067Y0004679D01*
X0269946Y0004731D01*
X0269827Y0004786D01*
X0269709Y0004845D01*
X0269594Y0004907D01*
X0269480Y0004973D01*
X0269368Y0005042D01*
X0269258Y0005114D01*
X0269151Y0005190D01*
X0269046Y0005269D01*
X0268943Y0005351D01*
X0268843Y0005436D01*
X0268746Y0005525D01*
X0268651Y0005616D01*
X0268559Y0005710D01*
X0268470Y0005807D01*
X0268384Y0005906D01*
X0268301Y0006008D01*
X0268221Y0006113D01*
X0268145Y0006219D01*
X0268072Y0006328D01*
X0268002Y0006440D01*
X0267935Y0006553D01*
X0267872Y0006668D01*
X0267812Y0006786D01*
X0267756Y0006904D01*
X0267704Y0007025D01*
X0267655Y0007147D01*
X0267610Y0007271D01*
X0267569Y0007395D01*
X0267532Y0007522D01*
X0267498Y0007649D01*
X0267468Y0007777D01*
X0267443Y0007906D01*
X0267421Y0008035D01*
X0267403Y0008165D01*
X0267389Y0008296D01*
X0267379Y0008427D01*
X0267373Y0008559D01*
X0267371Y0008690D01*
X0265403Y0356131D02*
X0265405Y0356289D01*
X0265411Y0356447D01*
X0265421Y0356605D01*
X0265435Y0356763D01*
X0265453Y0356920D01*
X0265474Y0357077D01*
X0265500Y0357233D01*
X0265530Y0357389D01*
X0265563Y0357544D01*
X0265601Y0357697D01*
X0265642Y0357850D01*
X0265687Y0358002D01*
X0265736Y0358153D01*
X0265789Y0358302D01*
X0265845Y0358450D01*
X0265905Y0358596D01*
X0265969Y0358741D01*
X0266037Y0358884D01*
X0266108Y0359026D01*
X0266182Y0359166D01*
X0266260Y0359303D01*
X0266342Y0359439D01*
X0266426Y0359573D01*
X0266515Y0359704D01*
X0266606Y0359833D01*
X0266701Y0359960D01*
X0266798Y0360085D01*
X0266899Y0360207D01*
X0267003Y0360326D01*
X0267110Y0360443D01*
X0267220Y0360557D01*
X0267333Y0360668D01*
X0267448Y0360777D01*
X0267566Y0360882D01*
X0267687Y0360984D01*
X0267810Y0361084D01*
X0267936Y0361180D01*
X0268064Y0361273D01*
X0268194Y0361363D01*
X0268327Y0361449D01*
X0268462Y0361533D01*
X0268598Y0361612D01*
X0268737Y0361689D01*
X0268878Y0361761D01*
X0269020Y0361831D01*
X0269164Y0361896D01*
X0269310Y0361958D01*
X0269457Y0362016D01*
X0269606Y0362071D01*
X0269756Y0362122D01*
X0269907Y0362169D01*
X0270059Y0362212D01*
X0270212Y0362251D01*
X0270367Y0362287D01*
X0270522Y0362318D01*
X0270678Y0362346D01*
X0270834Y0362370D01*
X0270991Y0362390D01*
X0271149Y0362406D01*
X0271306Y0362418D01*
X0271465Y0362426D01*
X0271623Y0362430D01*
X0271781Y0362430D01*
X0271939Y0362426D01*
X0272098Y0362418D01*
X0272255Y0362406D01*
X0272413Y0362390D01*
X0272570Y0362370D01*
X0272726Y0362346D01*
X0272882Y0362318D01*
X0273037Y0362287D01*
X0273192Y0362251D01*
X0273345Y0362212D01*
X0273497Y0362169D01*
X0273648Y0362122D01*
X0273798Y0362071D01*
X0273947Y0362016D01*
X0274094Y0361958D01*
X0274240Y0361896D01*
X0274384Y0361831D01*
X0274526Y0361761D01*
X0274667Y0361689D01*
X0274806Y0361612D01*
X0274942Y0361533D01*
X0275077Y0361449D01*
X0275210Y0361363D01*
X0275340Y0361273D01*
X0275468Y0361180D01*
X0275594Y0361084D01*
X0275717Y0360984D01*
X0275838Y0360882D01*
X0275956Y0360777D01*
X0276071Y0360668D01*
X0276184Y0360557D01*
X0276294Y0360443D01*
X0276401Y0360326D01*
X0276505Y0360207D01*
X0276606Y0360085D01*
X0276703Y0359960D01*
X0276798Y0359833D01*
X0276889Y0359704D01*
X0276978Y0359573D01*
X0277062Y0359439D01*
X0277144Y0359303D01*
X0277222Y0359166D01*
X0277296Y0359026D01*
X0277367Y0358884D01*
X0277435Y0358741D01*
X0277499Y0358596D01*
X0277559Y0358450D01*
X0277615Y0358302D01*
X0277668Y0358153D01*
X0277717Y0358002D01*
X0277762Y0357850D01*
X0277803Y0357697D01*
X0277841Y0357544D01*
X0277874Y0357389D01*
X0277904Y0357233D01*
X0277930Y0357077D01*
X0277951Y0356920D01*
X0277969Y0356763D01*
X0277983Y0356605D01*
X0277993Y0356447D01*
X0277999Y0356289D01*
X0278001Y0356131D01*
X0277999Y0355973D01*
X0277993Y0355815D01*
X0277983Y0355657D01*
X0277969Y0355499D01*
X0277951Y0355342D01*
X0277930Y0355185D01*
X0277904Y0355029D01*
X0277874Y0354873D01*
X0277841Y0354718D01*
X0277803Y0354565D01*
X0277762Y0354412D01*
X0277717Y0354260D01*
X0277668Y0354109D01*
X0277615Y0353960D01*
X0277559Y0353812D01*
X0277499Y0353666D01*
X0277435Y0353521D01*
X0277367Y0353378D01*
X0277296Y0353236D01*
X0277222Y0353096D01*
X0277144Y0352959D01*
X0277062Y0352823D01*
X0276978Y0352689D01*
X0276889Y0352558D01*
X0276798Y0352429D01*
X0276703Y0352302D01*
X0276606Y0352177D01*
X0276505Y0352055D01*
X0276401Y0351936D01*
X0276294Y0351819D01*
X0276184Y0351705D01*
X0276071Y0351594D01*
X0275956Y0351485D01*
X0275838Y0351380D01*
X0275717Y0351278D01*
X0275594Y0351178D01*
X0275468Y0351082D01*
X0275340Y0350989D01*
X0275210Y0350899D01*
X0275077Y0350813D01*
X0274942Y0350729D01*
X0274806Y0350650D01*
X0274667Y0350573D01*
X0274526Y0350501D01*
X0274384Y0350431D01*
X0274240Y0350366D01*
X0274094Y0350304D01*
X0273947Y0350246D01*
X0273798Y0350191D01*
X0273648Y0350140D01*
X0273497Y0350093D01*
X0273345Y0350050D01*
X0273192Y0350011D01*
X0273037Y0349975D01*
X0272882Y0349944D01*
X0272726Y0349916D01*
X0272570Y0349892D01*
X0272413Y0349872D01*
X0272255Y0349856D01*
X0272098Y0349844D01*
X0271939Y0349836D01*
X0271781Y0349832D01*
X0271623Y0349832D01*
X0271465Y0349836D01*
X0271306Y0349844D01*
X0271149Y0349856D01*
X0270991Y0349872D01*
X0270834Y0349892D01*
X0270678Y0349916D01*
X0270522Y0349944D01*
X0270367Y0349975D01*
X0270212Y0350011D01*
X0270059Y0350050D01*
X0269907Y0350093D01*
X0269756Y0350140D01*
X0269606Y0350191D01*
X0269457Y0350246D01*
X0269310Y0350304D01*
X0269164Y0350366D01*
X0269020Y0350431D01*
X0268878Y0350501D01*
X0268737Y0350573D01*
X0268598Y0350650D01*
X0268462Y0350729D01*
X0268327Y0350813D01*
X0268194Y0350899D01*
X0268064Y0350989D01*
X0267936Y0351082D01*
X0267810Y0351178D01*
X0267687Y0351278D01*
X0267566Y0351380D01*
X0267448Y0351485D01*
X0267333Y0351594D01*
X0267220Y0351705D01*
X0267110Y0351819D01*
X0267003Y0351936D01*
X0266899Y0352055D01*
X0266798Y0352177D01*
X0266701Y0352302D01*
X0266606Y0352429D01*
X0266515Y0352558D01*
X0266426Y0352689D01*
X0266342Y0352823D01*
X0266260Y0352959D01*
X0266182Y0353096D01*
X0266108Y0353236D01*
X0266037Y0353378D01*
X0265969Y0353521D01*
X0265905Y0353666D01*
X0265845Y0353812D01*
X0265789Y0353960D01*
X0265736Y0354109D01*
X0265687Y0354260D01*
X0265642Y0354412D01*
X0265601Y0354565D01*
X0265563Y0354718D01*
X0265530Y0354873D01*
X0265500Y0355029D01*
X0265474Y0355185D01*
X0265453Y0355342D01*
X0265435Y0355499D01*
X0265421Y0355657D01*
X0265411Y0355815D01*
X0265405Y0355973D01*
X0265403Y0356131D01*
X0267371Y0388611D02*
X0267373Y0388742D01*
X0267379Y0388874D01*
X0267389Y0389005D01*
X0267403Y0389136D01*
X0267421Y0389266D01*
X0267443Y0389395D01*
X0267468Y0389524D01*
X0267498Y0389652D01*
X0267532Y0389779D01*
X0267569Y0389906D01*
X0267610Y0390030D01*
X0267655Y0390154D01*
X0267704Y0390276D01*
X0267756Y0390397D01*
X0267812Y0390515D01*
X0267872Y0390633D01*
X0267935Y0390748D01*
X0268002Y0390861D01*
X0268072Y0390973D01*
X0268145Y0391082D01*
X0268221Y0391188D01*
X0268301Y0391293D01*
X0268384Y0391395D01*
X0268470Y0391494D01*
X0268559Y0391591D01*
X0268651Y0391685D01*
X0268746Y0391776D01*
X0268843Y0391865D01*
X0268943Y0391950D01*
X0269046Y0392032D01*
X0269151Y0392111D01*
X0269258Y0392187D01*
X0269368Y0392259D01*
X0269480Y0392328D01*
X0269594Y0392394D01*
X0269709Y0392456D01*
X0269827Y0392515D01*
X0269946Y0392570D01*
X0270067Y0392622D01*
X0270190Y0392669D01*
X0270314Y0392713D01*
X0270439Y0392754D01*
X0270565Y0392790D01*
X0270693Y0392823D01*
X0270821Y0392851D01*
X0270950Y0392876D01*
X0271080Y0392897D01*
X0271210Y0392914D01*
X0271341Y0392927D01*
X0271472Y0392936D01*
X0271603Y0392941D01*
X0271735Y0392942D01*
X0271866Y0392939D01*
X0271998Y0392932D01*
X0272129Y0392921D01*
X0272259Y0392906D01*
X0272389Y0392887D01*
X0272519Y0392864D01*
X0272647Y0392838D01*
X0272775Y0392807D01*
X0272902Y0392772D01*
X0273028Y0392734D01*
X0273152Y0392692D01*
X0273276Y0392646D01*
X0273397Y0392596D01*
X0273517Y0392543D01*
X0273636Y0392486D01*
X0273753Y0392426D01*
X0273867Y0392362D01*
X0273980Y0392294D01*
X0274091Y0392223D01*
X0274200Y0392149D01*
X0274306Y0392072D01*
X0274410Y0391991D01*
X0274511Y0391908D01*
X0274610Y0391821D01*
X0274706Y0391731D01*
X0274799Y0391638D01*
X0274890Y0391543D01*
X0274977Y0391445D01*
X0275062Y0391344D01*
X0275143Y0391241D01*
X0275221Y0391135D01*
X0275296Y0391027D01*
X0275368Y0390917D01*
X0275436Y0390805D01*
X0275501Y0390691D01*
X0275562Y0390574D01*
X0275620Y0390456D01*
X0275674Y0390336D01*
X0275725Y0390215D01*
X0275772Y0390092D01*
X0275815Y0389968D01*
X0275854Y0389843D01*
X0275890Y0389716D01*
X0275921Y0389588D01*
X0275949Y0389460D01*
X0275973Y0389331D01*
X0275993Y0389201D01*
X0276009Y0389070D01*
X0276021Y0388939D01*
X0276029Y0388808D01*
X0276033Y0388677D01*
X0276033Y0388545D01*
X0276029Y0388414D01*
X0276021Y0388283D01*
X0276009Y0388152D01*
X0275993Y0388021D01*
X0275973Y0387891D01*
X0275949Y0387762D01*
X0275921Y0387634D01*
X0275890Y0387506D01*
X0275854Y0387379D01*
X0275815Y0387254D01*
X0275772Y0387130D01*
X0275725Y0387007D01*
X0275674Y0386886D01*
X0275620Y0386766D01*
X0275562Y0386648D01*
X0275501Y0386531D01*
X0275436Y0386417D01*
X0275368Y0386305D01*
X0275296Y0386195D01*
X0275221Y0386087D01*
X0275143Y0385981D01*
X0275062Y0385878D01*
X0274977Y0385777D01*
X0274890Y0385679D01*
X0274799Y0385584D01*
X0274706Y0385491D01*
X0274610Y0385401D01*
X0274511Y0385314D01*
X0274410Y0385231D01*
X0274306Y0385150D01*
X0274200Y0385073D01*
X0274091Y0384999D01*
X0273980Y0384928D01*
X0273868Y0384860D01*
X0273753Y0384796D01*
X0273636Y0384736D01*
X0273517Y0384679D01*
X0273397Y0384626D01*
X0273276Y0384576D01*
X0273152Y0384530D01*
X0273028Y0384488D01*
X0272902Y0384450D01*
X0272775Y0384415D01*
X0272647Y0384384D01*
X0272519Y0384358D01*
X0272389Y0384335D01*
X0272259Y0384316D01*
X0272129Y0384301D01*
X0271998Y0384290D01*
X0271866Y0384283D01*
X0271735Y0384280D01*
X0271603Y0384281D01*
X0271472Y0384286D01*
X0271341Y0384295D01*
X0271210Y0384308D01*
X0271080Y0384325D01*
X0270950Y0384346D01*
X0270821Y0384371D01*
X0270693Y0384399D01*
X0270565Y0384432D01*
X0270439Y0384468D01*
X0270314Y0384509D01*
X0270190Y0384553D01*
X0270067Y0384600D01*
X0269946Y0384652D01*
X0269827Y0384707D01*
X0269709Y0384766D01*
X0269594Y0384828D01*
X0269480Y0384894D01*
X0269368Y0384963D01*
X0269258Y0385035D01*
X0269151Y0385111D01*
X0269046Y0385190D01*
X0268943Y0385272D01*
X0268843Y0385357D01*
X0268746Y0385446D01*
X0268651Y0385537D01*
X0268559Y0385631D01*
X0268470Y0385728D01*
X0268384Y0385827D01*
X0268301Y0385929D01*
X0268221Y0386034D01*
X0268145Y0386140D01*
X0268072Y0386249D01*
X0268002Y0386361D01*
X0267935Y0386474D01*
X0267872Y0386589D01*
X0267812Y0386707D01*
X0267756Y0386825D01*
X0267704Y0386946D01*
X0267655Y0387068D01*
X0267610Y0387192D01*
X0267569Y0387316D01*
X0267532Y0387443D01*
X0267498Y0387570D01*
X0267468Y0387698D01*
X0267443Y0387827D01*
X0267421Y0387956D01*
X0267403Y0388086D01*
X0267389Y0388217D01*
X0267379Y0388348D01*
X0267373Y0388480D01*
X0267371Y0388611D01*
X0209498Y0379753D02*
X0209500Y0379822D01*
X0209506Y0379890D01*
X0209516Y0379958D01*
X0209530Y0380025D01*
X0209548Y0380092D01*
X0209569Y0380157D01*
X0209595Y0380221D01*
X0209624Y0380283D01*
X0209656Y0380343D01*
X0209692Y0380402D01*
X0209732Y0380458D01*
X0209774Y0380512D01*
X0209820Y0380563D01*
X0209869Y0380612D01*
X0209920Y0380658D01*
X0209974Y0380700D01*
X0210030Y0380740D01*
X0210088Y0380776D01*
X0210149Y0380808D01*
X0210211Y0380837D01*
X0210275Y0380863D01*
X0210340Y0380884D01*
X0210407Y0380902D01*
X0210474Y0380916D01*
X0210542Y0380926D01*
X0210610Y0380932D01*
X0210679Y0380934D01*
X0210748Y0380932D01*
X0210816Y0380926D01*
X0210884Y0380916D01*
X0210951Y0380902D01*
X0211018Y0380884D01*
X0211083Y0380863D01*
X0211147Y0380837D01*
X0211209Y0380808D01*
X0211269Y0380776D01*
X0211328Y0380740D01*
X0211384Y0380700D01*
X0211438Y0380658D01*
X0211489Y0380612D01*
X0211538Y0380563D01*
X0211584Y0380512D01*
X0211626Y0380458D01*
X0211666Y0380402D01*
X0211702Y0380343D01*
X0211734Y0380283D01*
X0211763Y0380221D01*
X0211789Y0380157D01*
X0211810Y0380092D01*
X0211828Y0380025D01*
X0211842Y0379958D01*
X0211852Y0379890D01*
X0211858Y0379822D01*
X0211860Y0379753D01*
X0211858Y0379684D01*
X0211852Y0379616D01*
X0211842Y0379548D01*
X0211828Y0379481D01*
X0211810Y0379414D01*
X0211789Y0379349D01*
X0211763Y0379285D01*
X0211734Y0379223D01*
X0211702Y0379162D01*
X0211666Y0379104D01*
X0211626Y0379048D01*
X0211584Y0378994D01*
X0211538Y0378943D01*
X0211489Y0378894D01*
X0211438Y0378848D01*
X0211384Y0378806D01*
X0211328Y0378766D01*
X0211270Y0378730D01*
X0211209Y0378698D01*
X0211147Y0378669D01*
X0211083Y0378643D01*
X0211018Y0378622D01*
X0210951Y0378604D01*
X0210884Y0378590D01*
X0210816Y0378580D01*
X0210748Y0378574D01*
X0210679Y0378572D01*
X0210610Y0378574D01*
X0210542Y0378580D01*
X0210474Y0378590D01*
X0210407Y0378604D01*
X0210340Y0378622D01*
X0210275Y0378643D01*
X0210211Y0378669D01*
X0210149Y0378698D01*
X0210088Y0378730D01*
X0210030Y0378766D01*
X0209974Y0378806D01*
X0209920Y0378848D01*
X0209869Y0378894D01*
X0209820Y0378943D01*
X0209774Y0378994D01*
X0209732Y0379048D01*
X0209692Y0379104D01*
X0209656Y0379162D01*
X0209624Y0379223D01*
X0209595Y0379285D01*
X0209569Y0379349D01*
X0209548Y0379414D01*
X0209530Y0379481D01*
X0209516Y0379548D01*
X0209506Y0379616D01*
X0209500Y0379684D01*
X0209498Y0379753D01*
X0205561Y0379753D02*
X0205563Y0379822D01*
X0205569Y0379890D01*
X0205579Y0379958D01*
X0205593Y0380025D01*
X0205611Y0380092D01*
X0205632Y0380157D01*
X0205658Y0380221D01*
X0205687Y0380283D01*
X0205719Y0380343D01*
X0205755Y0380402D01*
X0205795Y0380458D01*
X0205837Y0380512D01*
X0205883Y0380563D01*
X0205932Y0380612D01*
X0205983Y0380658D01*
X0206037Y0380700D01*
X0206093Y0380740D01*
X0206151Y0380776D01*
X0206212Y0380808D01*
X0206274Y0380837D01*
X0206338Y0380863D01*
X0206403Y0380884D01*
X0206470Y0380902D01*
X0206537Y0380916D01*
X0206605Y0380926D01*
X0206673Y0380932D01*
X0206742Y0380934D01*
X0206811Y0380932D01*
X0206879Y0380926D01*
X0206947Y0380916D01*
X0207014Y0380902D01*
X0207081Y0380884D01*
X0207146Y0380863D01*
X0207210Y0380837D01*
X0207272Y0380808D01*
X0207332Y0380776D01*
X0207391Y0380740D01*
X0207447Y0380700D01*
X0207501Y0380658D01*
X0207552Y0380612D01*
X0207601Y0380563D01*
X0207647Y0380512D01*
X0207689Y0380458D01*
X0207729Y0380402D01*
X0207765Y0380343D01*
X0207797Y0380283D01*
X0207826Y0380221D01*
X0207852Y0380157D01*
X0207873Y0380092D01*
X0207891Y0380025D01*
X0207905Y0379958D01*
X0207915Y0379890D01*
X0207921Y0379822D01*
X0207923Y0379753D01*
X0207921Y0379684D01*
X0207915Y0379616D01*
X0207905Y0379548D01*
X0207891Y0379481D01*
X0207873Y0379414D01*
X0207852Y0379349D01*
X0207826Y0379285D01*
X0207797Y0379223D01*
X0207765Y0379162D01*
X0207729Y0379104D01*
X0207689Y0379048D01*
X0207647Y0378994D01*
X0207601Y0378943D01*
X0207552Y0378894D01*
X0207501Y0378848D01*
X0207447Y0378806D01*
X0207391Y0378766D01*
X0207333Y0378730D01*
X0207272Y0378698D01*
X0207210Y0378669D01*
X0207146Y0378643D01*
X0207081Y0378622D01*
X0207014Y0378604D01*
X0206947Y0378590D01*
X0206879Y0378580D01*
X0206811Y0378574D01*
X0206742Y0378572D01*
X0206673Y0378574D01*
X0206605Y0378580D01*
X0206537Y0378590D01*
X0206470Y0378604D01*
X0206403Y0378622D01*
X0206338Y0378643D01*
X0206274Y0378669D01*
X0206212Y0378698D01*
X0206151Y0378730D01*
X0206093Y0378766D01*
X0206037Y0378806D01*
X0205983Y0378848D01*
X0205932Y0378894D01*
X0205883Y0378943D01*
X0205837Y0378994D01*
X0205795Y0379048D01*
X0205755Y0379104D01*
X0205719Y0379162D01*
X0205687Y0379223D01*
X0205658Y0379285D01*
X0205632Y0379349D01*
X0205611Y0379414D01*
X0205593Y0379481D01*
X0205579Y0379548D01*
X0205569Y0379616D01*
X0205563Y0379684D01*
X0205561Y0379753D01*
X0201624Y0379753D02*
X0201626Y0379822D01*
X0201632Y0379890D01*
X0201642Y0379958D01*
X0201656Y0380025D01*
X0201674Y0380092D01*
X0201695Y0380157D01*
X0201721Y0380221D01*
X0201750Y0380283D01*
X0201782Y0380343D01*
X0201818Y0380402D01*
X0201858Y0380458D01*
X0201900Y0380512D01*
X0201946Y0380563D01*
X0201995Y0380612D01*
X0202046Y0380658D01*
X0202100Y0380700D01*
X0202156Y0380740D01*
X0202214Y0380776D01*
X0202275Y0380808D01*
X0202337Y0380837D01*
X0202401Y0380863D01*
X0202466Y0380884D01*
X0202533Y0380902D01*
X0202600Y0380916D01*
X0202668Y0380926D01*
X0202736Y0380932D01*
X0202805Y0380934D01*
X0202874Y0380932D01*
X0202942Y0380926D01*
X0203010Y0380916D01*
X0203077Y0380902D01*
X0203144Y0380884D01*
X0203209Y0380863D01*
X0203273Y0380837D01*
X0203335Y0380808D01*
X0203395Y0380776D01*
X0203454Y0380740D01*
X0203510Y0380700D01*
X0203564Y0380658D01*
X0203615Y0380612D01*
X0203664Y0380563D01*
X0203710Y0380512D01*
X0203752Y0380458D01*
X0203792Y0380402D01*
X0203828Y0380343D01*
X0203860Y0380283D01*
X0203889Y0380221D01*
X0203915Y0380157D01*
X0203936Y0380092D01*
X0203954Y0380025D01*
X0203968Y0379958D01*
X0203978Y0379890D01*
X0203984Y0379822D01*
X0203986Y0379753D01*
X0203984Y0379684D01*
X0203978Y0379616D01*
X0203968Y0379548D01*
X0203954Y0379481D01*
X0203936Y0379414D01*
X0203915Y0379349D01*
X0203889Y0379285D01*
X0203860Y0379223D01*
X0203828Y0379162D01*
X0203792Y0379104D01*
X0203752Y0379048D01*
X0203710Y0378994D01*
X0203664Y0378943D01*
X0203615Y0378894D01*
X0203564Y0378848D01*
X0203510Y0378806D01*
X0203454Y0378766D01*
X0203396Y0378730D01*
X0203335Y0378698D01*
X0203273Y0378669D01*
X0203209Y0378643D01*
X0203144Y0378622D01*
X0203077Y0378604D01*
X0203010Y0378590D01*
X0202942Y0378580D01*
X0202874Y0378574D01*
X0202805Y0378572D01*
X0202736Y0378574D01*
X0202668Y0378580D01*
X0202600Y0378590D01*
X0202533Y0378604D01*
X0202466Y0378622D01*
X0202401Y0378643D01*
X0202337Y0378669D01*
X0202275Y0378698D01*
X0202214Y0378730D01*
X0202156Y0378766D01*
X0202100Y0378806D01*
X0202046Y0378848D01*
X0201995Y0378894D01*
X0201946Y0378943D01*
X0201900Y0378994D01*
X0201858Y0379048D01*
X0201818Y0379104D01*
X0201782Y0379162D01*
X0201750Y0379223D01*
X0201721Y0379285D01*
X0201695Y0379349D01*
X0201674Y0379414D01*
X0201656Y0379481D01*
X0201642Y0379548D01*
X0201632Y0379616D01*
X0201626Y0379684D01*
X0201624Y0379753D01*
X0201624Y0375816D02*
X0201626Y0375885D01*
X0201632Y0375953D01*
X0201642Y0376021D01*
X0201656Y0376088D01*
X0201674Y0376155D01*
X0201695Y0376220D01*
X0201721Y0376284D01*
X0201750Y0376346D01*
X0201782Y0376406D01*
X0201818Y0376465D01*
X0201858Y0376521D01*
X0201900Y0376575D01*
X0201946Y0376626D01*
X0201995Y0376675D01*
X0202046Y0376721D01*
X0202100Y0376763D01*
X0202156Y0376803D01*
X0202214Y0376839D01*
X0202275Y0376871D01*
X0202337Y0376900D01*
X0202401Y0376926D01*
X0202466Y0376947D01*
X0202533Y0376965D01*
X0202600Y0376979D01*
X0202668Y0376989D01*
X0202736Y0376995D01*
X0202805Y0376997D01*
X0202874Y0376995D01*
X0202942Y0376989D01*
X0203010Y0376979D01*
X0203077Y0376965D01*
X0203144Y0376947D01*
X0203209Y0376926D01*
X0203273Y0376900D01*
X0203335Y0376871D01*
X0203395Y0376839D01*
X0203454Y0376803D01*
X0203510Y0376763D01*
X0203564Y0376721D01*
X0203615Y0376675D01*
X0203664Y0376626D01*
X0203710Y0376575D01*
X0203752Y0376521D01*
X0203792Y0376465D01*
X0203828Y0376406D01*
X0203860Y0376346D01*
X0203889Y0376284D01*
X0203915Y0376220D01*
X0203936Y0376155D01*
X0203954Y0376088D01*
X0203968Y0376021D01*
X0203978Y0375953D01*
X0203984Y0375885D01*
X0203986Y0375816D01*
X0203984Y0375747D01*
X0203978Y0375679D01*
X0203968Y0375611D01*
X0203954Y0375544D01*
X0203936Y0375477D01*
X0203915Y0375412D01*
X0203889Y0375348D01*
X0203860Y0375286D01*
X0203828Y0375225D01*
X0203792Y0375167D01*
X0203752Y0375111D01*
X0203710Y0375057D01*
X0203664Y0375006D01*
X0203615Y0374957D01*
X0203564Y0374911D01*
X0203510Y0374869D01*
X0203454Y0374829D01*
X0203396Y0374793D01*
X0203335Y0374761D01*
X0203273Y0374732D01*
X0203209Y0374706D01*
X0203144Y0374685D01*
X0203077Y0374667D01*
X0203010Y0374653D01*
X0202942Y0374643D01*
X0202874Y0374637D01*
X0202805Y0374635D01*
X0202736Y0374637D01*
X0202668Y0374643D01*
X0202600Y0374653D01*
X0202533Y0374667D01*
X0202466Y0374685D01*
X0202401Y0374706D01*
X0202337Y0374732D01*
X0202275Y0374761D01*
X0202214Y0374793D01*
X0202156Y0374829D01*
X0202100Y0374869D01*
X0202046Y0374911D01*
X0201995Y0374957D01*
X0201946Y0375006D01*
X0201900Y0375057D01*
X0201858Y0375111D01*
X0201818Y0375167D01*
X0201782Y0375225D01*
X0201750Y0375286D01*
X0201721Y0375348D01*
X0201695Y0375412D01*
X0201674Y0375477D01*
X0201656Y0375544D01*
X0201642Y0375611D01*
X0201632Y0375679D01*
X0201626Y0375747D01*
X0201624Y0375816D01*
X0201624Y0371879D02*
X0201626Y0371948D01*
X0201632Y0372016D01*
X0201642Y0372084D01*
X0201656Y0372151D01*
X0201674Y0372218D01*
X0201695Y0372283D01*
X0201721Y0372347D01*
X0201750Y0372409D01*
X0201782Y0372469D01*
X0201818Y0372528D01*
X0201858Y0372584D01*
X0201900Y0372638D01*
X0201946Y0372689D01*
X0201995Y0372738D01*
X0202046Y0372784D01*
X0202100Y0372826D01*
X0202156Y0372866D01*
X0202214Y0372902D01*
X0202275Y0372934D01*
X0202337Y0372963D01*
X0202401Y0372989D01*
X0202466Y0373010D01*
X0202533Y0373028D01*
X0202600Y0373042D01*
X0202668Y0373052D01*
X0202736Y0373058D01*
X0202805Y0373060D01*
X0202874Y0373058D01*
X0202942Y0373052D01*
X0203010Y0373042D01*
X0203077Y0373028D01*
X0203144Y0373010D01*
X0203209Y0372989D01*
X0203273Y0372963D01*
X0203335Y0372934D01*
X0203395Y0372902D01*
X0203454Y0372866D01*
X0203510Y0372826D01*
X0203564Y0372784D01*
X0203615Y0372738D01*
X0203664Y0372689D01*
X0203710Y0372638D01*
X0203752Y0372584D01*
X0203792Y0372528D01*
X0203828Y0372469D01*
X0203860Y0372409D01*
X0203889Y0372347D01*
X0203915Y0372283D01*
X0203936Y0372218D01*
X0203954Y0372151D01*
X0203968Y0372084D01*
X0203978Y0372016D01*
X0203984Y0371948D01*
X0203986Y0371879D01*
X0203984Y0371810D01*
X0203978Y0371742D01*
X0203968Y0371674D01*
X0203954Y0371607D01*
X0203936Y0371540D01*
X0203915Y0371475D01*
X0203889Y0371411D01*
X0203860Y0371349D01*
X0203828Y0371288D01*
X0203792Y0371230D01*
X0203752Y0371174D01*
X0203710Y0371120D01*
X0203664Y0371069D01*
X0203615Y0371020D01*
X0203564Y0370974D01*
X0203510Y0370932D01*
X0203454Y0370892D01*
X0203396Y0370856D01*
X0203335Y0370824D01*
X0203273Y0370795D01*
X0203209Y0370769D01*
X0203144Y0370748D01*
X0203077Y0370730D01*
X0203010Y0370716D01*
X0202942Y0370706D01*
X0202874Y0370700D01*
X0202805Y0370698D01*
X0202736Y0370700D01*
X0202668Y0370706D01*
X0202600Y0370716D01*
X0202533Y0370730D01*
X0202466Y0370748D01*
X0202401Y0370769D01*
X0202337Y0370795D01*
X0202275Y0370824D01*
X0202214Y0370856D01*
X0202156Y0370892D01*
X0202100Y0370932D01*
X0202046Y0370974D01*
X0201995Y0371020D01*
X0201946Y0371069D01*
X0201900Y0371120D01*
X0201858Y0371174D01*
X0201818Y0371230D01*
X0201782Y0371288D01*
X0201750Y0371349D01*
X0201721Y0371411D01*
X0201695Y0371475D01*
X0201674Y0371540D01*
X0201656Y0371607D01*
X0201642Y0371674D01*
X0201632Y0371742D01*
X0201626Y0371810D01*
X0201624Y0371879D01*
X0205561Y0371879D02*
X0205563Y0371948D01*
X0205569Y0372016D01*
X0205579Y0372084D01*
X0205593Y0372151D01*
X0205611Y0372218D01*
X0205632Y0372283D01*
X0205658Y0372347D01*
X0205687Y0372409D01*
X0205719Y0372469D01*
X0205755Y0372528D01*
X0205795Y0372584D01*
X0205837Y0372638D01*
X0205883Y0372689D01*
X0205932Y0372738D01*
X0205983Y0372784D01*
X0206037Y0372826D01*
X0206093Y0372866D01*
X0206151Y0372902D01*
X0206212Y0372934D01*
X0206274Y0372963D01*
X0206338Y0372989D01*
X0206403Y0373010D01*
X0206470Y0373028D01*
X0206537Y0373042D01*
X0206605Y0373052D01*
X0206673Y0373058D01*
X0206742Y0373060D01*
X0206811Y0373058D01*
X0206879Y0373052D01*
X0206947Y0373042D01*
X0207014Y0373028D01*
X0207081Y0373010D01*
X0207146Y0372989D01*
X0207210Y0372963D01*
X0207272Y0372934D01*
X0207332Y0372902D01*
X0207391Y0372866D01*
X0207447Y0372826D01*
X0207501Y0372784D01*
X0207552Y0372738D01*
X0207601Y0372689D01*
X0207647Y0372638D01*
X0207689Y0372584D01*
X0207729Y0372528D01*
X0207765Y0372469D01*
X0207797Y0372409D01*
X0207826Y0372347D01*
X0207852Y0372283D01*
X0207873Y0372218D01*
X0207891Y0372151D01*
X0207905Y0372084D01*
X0207915Y0372016D01*
X0207921Y0371948D01*
X0207923Y0371879D01*
X0207921Y0371810D01*
X0207915Y0371742D01*
X0207905Y0371674D01*
X0207891Y0371607D01*
X0207873Y0371540D01*
X0207852Y0371475D01*
X0207826Y0371411D01*
X0207797Y0371349D01*
X0207765Y0371288D01*
X0207729Y0371230D01*
X0207689Y0371174D01*
X0207647Y0371120D01*
X0207601Y0371069D01*
X0207552Y0371020D01*
X0207501Y0370974D01*
X0207447Y0370932D01*
X0207391Y0370892D01*
X0207333Y0370856D01*
X0207272Y0370824D01*
X0207210Y0370795D01*
X0207146Y0370769D01*
X0207081Y0370748D01*
X0207014Y0370730D01*
X0206947Y0370716D01*
X0206879Y0370706D01*
X0206811Y0370700D01*
X0206742Y0370698D01*
X0206673Y0370700D01*
X0206605Y0370706D01*
X0206537Y0370716D01*
X0206470Y0370730D01*
X0206403Y0370748D01*
X0206338Y0370769D01*
X0206274Y0370795D01*
X0206212Y0370824D01*
X0206151Y0370856D01*
X0206093Y0370892D01*
X0206037Y0370932D01*
X0205983Y0370974D01*
X0205932Y0371020D01*
X0205883Y0371069D01*
X0205837Y0371120D01*
X0205795Y0371174D01*
X0205755Y0371230D01*
X0205719Y0371288D01*
X0205687Y0371349D01*
X0205658Y0371411D01*
X0205632Y0371475D01*
X0205611Y0371540D01*
X0205593Y0371607D01*
X0205579Y0371674D01*
X0205569Y0371742D01*
X0205563Y0371810D01*
X0205561Y0371879D01*
X0205561Y0375816D02*
X0205563Y0375885D01*
X0205569Y0375953D01*
X0205579Y0376021D01*
X0205593Y0376088D01*
X0205611Y0376155D01*
X0205632Y0376220D01*
X0205658Y0376284D01*
X0205687Y0376346D01*
X0205719Y0376406D01*
X0205755Y0376465D01*
X0205795Y0376521D01*
X0205837Y0376575D01*
X0205883Y0376626D01*
X0205932Y0376675D01*
X0205983Y0376721D01*
X0206037Y0376763D01*
X0206093Y0376803D01*
X0206151Y0376839D01*
X0206212Y0376871D01*
X0206274Y0376900D01*
X0206338Y0376926D01*
X0206403Y0376947D01*
X0206470Y0376965D01*
X0206537Y0376979D01*
X0206605Y0376989D01*
X0206673Y0376995D01*
X0206742Y0376997D01*
X0206811Y0376995D01*
X0206879Y0376989D01*
X0206947Y0376979D01*
X0207014Y0376965D01*
X0207081Y0376947D01*
X0207146Y0376926D01*
X0207210Y0376900D01*
X0207272Y0376871D01*
X0207332Y0376839D01*
X0207391Y0376803D01*
X0207447Y0376763D01*
X0207501Y0376721D01*
X0207552Y0376675D01*
X0207601Y0376626D01*
X0207647Y0376575D01*
X0207689Y0376521D01*
X0207729Y0376465D01*
X0207765Y0376406D01*
X0207797Y0376346D01*
X0207826Y0376284D01*
X0207852Y0376220D01*
X0207873Y0376155D01*
X0207891Y0376088D01*
X0207905Y0376021D01*
X0207915Y0375953D01*
X0207921Y0375885D01*
X0207923Y0375816D01*
X0207921Y0375747D01*
X0207915Y0375679D01*
X0207905Y0375611D01*
X0207891Y0375544D01*
X0207873Y0375477D01*
X0207852Y0375412D01*
X0207826Y0375348D01*
X0207797Y0375286D01*
X0207765Y0375225D01*
X0207729Y0375167D01*
X0207689Y0375111D01*
X0207647Y0375057D01*
X0207601Y0375006D01*
X0207552Y0374957D01*
X0207501Y0374911D01*
X0207447Y0374869D01*
X0207391Y0374829D01*
X0207333Y0374793D01*
X0207272Y0374761D01*
X0207210Y0374732D01*
X0207146Y0374706D01*
X0207081Y0374685D01*
X0207014Y0374667D01*
X0206947Y0374653D01*
X0206879Y0374643D01*
X0206811Y0374637D01*
X0206742Y0374635D01*
X0206673Y0374637D01*
X0206605Y0374643D01*
X0206537Y0374653D01*
X0206470Y0374667D01*
X0206403Y0374685D01*
X0206338Y0374706D01*
X0206274Y0374732D01*
X0206212Y0374761D01*
X0206151Y0374793D01*
X0206093Y0374829D01*
X0206037Y0374869D01*
X0205983Y0374911D01*
X0205932Y0374957D01*
X0205883Y0375006D01*
X0205837Y0375057D01*
X0205795Y0375111D01*
X0205755Y0375167D01*
X0205719Y0375225D01*
X0205687Y0375286D01*
X0205658Y0375348D01*
X0205632Y0375412D01*
X0205611Y0375477D01*
X0205593Y0375544D01*
X0205579Y0375611D01*
X0205569Y0375679D01*
X0205563Y0375747D01*
X0205561Y0375816D01*
X0209498Y0375816D02*
X0209500Y0375885D01*
X0209506Y0375953D01*
X0209516Y0376021D01*
X0209530Y0376088D01*
X0209548Y0376155D01*
X0209569Y0376220D01*
X0209595Y0376284D01*
X0209624Y0376346D01*
X0209656Y0376406D01*
X0209692Y0376465D01*
X0209732Y0376521D01*
X0209774Y0376575D01*
X0209820Y0376626D01*
X0209869Y0376675D01*
X0209920Y0376721D01*
X0209974Y0376763D01*
X0210030Y0376803D01*
X0210088Y0376839D01*
X0210149Y0376871D01*
X0210211Y0376900D01*
X0210275Y0376926D01*
X0210340Y0376947D01*
X0210407Y0376965D01*
X0210474Y0376979D01*
X0210542Y0376989D01*
X0210610Y0376995D01*
X0210679Y0376997D01*
X0210748Y0376995D01*
X0210816Y0376989D01*
X0210884Y0376979D01*
X0210951Y0376965D01*
X0211018Y0376947D01*
X0211083Y0376926D01*
X0211147Y0376900D01*
X0211209Y0376871D01*
X0211269Y0376839D01*
X0211328Y0376803D01*
X0211384Y0376763D01*
X0211438Y0376721D01*
X0211489Y0376675D01*
X0211538Y0376626D01*
X0211584Y0376575D01*
X0211626Y0376521D01*
X0211666Y0376465D01*
X0211702Y0376406D01*
X0211734Y0376346D01*
X0211763Y0376284D01*
X0211789Y0376220D01*
X0211810Y0376155D01*
X0211828Y0376088D01*
X0211842Y0376021D01*
X0211852Y0375953D01*
X0211858Y0375885D01*
X0211860Y0375816D01*
X0211858Y0375747D01*
X0211852Y0375679D01*
X0211842Y0375611D01*
X0211828Y0375544D01*
X0211810Y0375477D01*
X0211789Y0375412D01*
X0211763Y0375348D01*
X0211734Y0375286D01*
X0211702Y0375225D01*
X0211666Y0375167D01*
X0211626Y0375111D01*
X0211584Y0375057D01*
X0211538Y0375006D01*
X0211489Y0374957D01*
X0211438Y0374911D01*
X0211384Y0374869D01*
X0211328Y0374829D01*
X0211270Y0374793D01*
X0211209Y0374761D01*
X0211147Y0374732D01*
X0211083Y0374706D01*
X0211018Y0374685D01*
X0210951Y0374667D01*
X0210884Y0374653D01*
X0210816Y0374643D01*
X0210748Y0374637D01*
X0210679Y0374635D01*
X0210610Y0374637D01*
X0210542Y0374643D01*
X0210474Y0374653D01*
X0210407Y0374667D01*
X0210340Y0374685D01*
X0210275Y0374706D01*
X0210211Y0374732D01*
X0210149Y0374761D01*
X0210088Y0374793D01*
X0210030Y0374829D01*
X0209974Y0374869D01*
X0209920Y0374911D01*
X0209869Y0374957D01*
X0209820Y0375006D01*
X0209774Y0375057D01*
X0209732Y0375111D01*
X0209692Y0375167D01*
X0209656Y0375225D01*
X0209624Y0375286D01*
X0209595Y0375348D01*
X0209569Y0375412D01*
X0209548Y0375477D01*
X0209530Y0375544D01*
X0209516Y0375611D01*
X0209506Y0375679D01*
X0209500Y0375747D01*
X0209498Y0375816D01*
X0209498Y0371879D02*
X0209500Y0371948D01*
X0209506Y0372016D01*
X0209516Y0372084D01*
X0209530Y0372151D01*
X0209548Y0372218D01*
X0209569Y0372283D01*
X0209595Y0372347D01*
X0209624Y0372409D01*
X0209656Y0372469D01*
X0209692Y0372528D01*
X0209732Y0372584D01*
X0209774Y0372638D01*
X0209820Y0372689D01*
X0209869Y0372738D01*
X0209920Y0372784D01*
X0209974Y0372826D01*
X0210030Y0372866D01*
X0210088Y0372902D01*
X0210149Y0372934D01*
X0210211Y0372963D01*
X0210275Y0372989D01*
X0210340Y0373010D01*
X0210407Y0373028D01*
X0210474Y0373042D01*
X0210542Y0373052D01*
X0210610Y0373058D01*
X0210679Y0373060D01*
X0210748Y0373058D01*
X0210816Y0373052D01*
X0210884Y0373042D01*
X0210951Y0373028D01*
X0211018Y0373010D01*
X0211083Y0372989D01*
X0211147Y0372963D01*
X0211209Y0372934D01*
X0211269Y0372902D01*
X0211328Y0372866D01*
X0211384Y0372826D01*
X0211438Y0372784D01*
X0211489Y0372738D01*
X0211538Y0372689D01*
X0211584Y0372638D01*
X0211626Y0372584D01*
X0211666Y0372528D01*
X0211702Y0372469D01*
X0211734Y0372409D01*
X0211763Y0372347D01*
X0211789Y0372283D01*
X0211810Y0372218D01*
X0211828Y0372151D01*
X0211842Y0372084D01*
X0211852Y0372016D01*
X0211858Y0371948D01*
X0211860Y0371879D01*
X0211858Y0371810D01*
X0211852Y0371742D01*
X0211842Y0371674D01*
X0211828Y0371607D01*
X0211810Y0371540D01*
X0211789Y0371475D01*
X0211763Y0371411D01*
X0211734Y0371349D01*
X0211702Y0371288D01*
X0211666Y0371230D01*
X0211626Y0371174D01*
X0211584Y0371120D01*
X0211538Y0371069D01*
X0211489Y0371020D01*
X0211438Y0370974D01*
X0211384Y0370932D01*
X0211328Y0370892D01*
X0211270Y0370856D01*
X0211209Y0370824D01*
X0211147Y0370795D01*
X0211083Y0370769D01*
X0211018Y0370748D01*
X0210951Y0370730D01*
X0210884Y0370716D01*
X0210816Y0370706D01*
X0210748Y0370700D01*
X0210679Y0370698D01*
X0210610Y0370700D01*
X0210542Y0370706D01*
X0210474Y0370716D01*
X0210407Y0370730D01*
X0210340Y0370748D01*
X0210275Y0370769D01*
X0210211Y0370795D01*
X0210149Y0370824D01*
X0210088Y0370856D01*
X0210030Y0370892D01*
X0209974Y0370932D01*
X0209920Y0370974D01*
X0209869Y0371020D01*
X0209820Y0371069D01*
X0209774Y0371120D01*
X0209732Y0371174D01*
X0209692Y0371230D01*
X0209656Y0371288D01*
X0209624Y0371349D01*
X0209595Y0371411D01*
X0209569Y0371475D01*
X0209548Y0371540D01*
X0209530Y0371607D01*
X0209516Y0371674D01*
X0209506Y0371742D01*
X0209500Y0371810D01*
X0209498Y0371879D01*
X0083513Y0371879D02*
X0083515Y0371948D01*
X0083521Y0372016D01*
X0083531Y0372084D01*
X0083545Y0372151D01*
X0083563Y0372218D01*
X0083584Y0372283D01*
X0083610Y0372347D01*
X0083639Y0372409D01*
X0083671Y0372469D01*
X0083707Y0372528D01*
X0083747Y0372584D01*
X0083789Y0372638D01*
X0083835Y0372689D01*
X0083884Y0372738D01*
X0083935Y0372784D01*
X0083989Y0372826D01*
X0084045Y0372866D01*
X0084103Y0372902D01*
X0084164Y0372934D01*
X0084226Y0372963D01*
X0084290Y0372989D01*
X0084355Y0373010D01*
X0084422Y0373028D01*
X0084489Y0373042D01*
X0084557Y0373052D01*
X0084625Y0373058D01*
X0084694Y0373060D01*
X0084763Y0373058D01*
X0084831Y0373052D01*
X0084899Y0373042D01*
X0084966Y0373028D01*
X0085033Y0373010D01*
X0085098Y0372989D01*
X0085162Y0372963D01*
X0085224Y0372934D01*
X0085284Y0372902D01*
X0085343Y0372866D01*
X0085399Y0372826D01*
X0085453Y0372784D01*
X0085504Y0372738D01*
X0085553Y0372689D01*
X0085599Y0372638D01*
X0085641Y0372584D01*
X0085681Y0372528D01*
X0085717Y0372469D01*
X0085749Y0372409D01*
X0085778Y0372347D01*
X0085804Y0372283D01*
X0085825Y0372218D01*
X0085843Y0372151D01*
X0085857Y0372084D01*
X0085867Y0372016D01*
X0085873Y0371948D01*
X0085875Y0371879D01*
X0085873Y0371810D01*
X0085867Y0371742D01*
X0085857Y0371674D01*
X0085843Y0371607D01*
X0085825Y0371540D01*
X0085804Y0371475D01*
X0085778Y0371411D01*
X0085749Y0371349D01*
X0085717Y0371288D01*
X0085681Y0371230D01*
X0085641Y0371174D01*
X0085599Y0371120D01*
X0085553Y0371069D01*
X0085504Y0371020D01*
X0085453Y0370974D01*
X0085399Y0370932D01*
X0085343Y0370892D01*
X0085285Y0370856D01*
X0085224Y0370824D01*
X0085162Y0370795D01*
X0085098Y0370769D01*
X0085033Y0370748D01*
X0084966Y0370730D01*
X0084899Y0370716D01*
X0084831Y0370706D01*
X0084763Y0370700D01*
X0084694Y0370698D01*
X0084625Y0370700D01*
X0084557Y0370706D01*
X0084489Y0370716D01*
X0084422Y0370730D01*
X0084355Y0370748D01*
X0084290Y0370769D01*
X0084226Y0370795D01*
X0084164Y0370824D01*
X0084103Y0370856D01*
X0084045Y0370892D01*
X0083989Y0370932D01*
X0083935Y0370974D01*
X0083884Y0371020D01*
X0083835Y0371069D01*
X0083789Y0371120D01*
X0083747Y0371174D01*
X0083707Y0371230D01*
X0083671Y0371288D01*
X0083639Y0371349D01*
X0083610Y0371411D01*
X0083584Y0371475D01*
X0083563Y0371540D01*
X0083545Y0371607D01*
X0083531Y0371674D01*
X0083521Y0371742D01*
X0083515Y0371810D01*
X0083513Y0371879D01*
X0079576Y0371879D02*
X0079578Y0371948D01*
X0079584Y0372016D01*
X0079594Y0372084D01*
X0079608Y0372151D01*
X0079626Y0372218D01*
X0079647Y0372283D01*
X0079673Y0372347D01*
X0079702Y0372409D01*
X0079734Y0372469D01*
X0079770Y0372528D01*
X0079810Y0372584D01*
X0079852Y0372638D01*
X0079898Y0372689D01*
X0079947Y0372738D01*
X0079998Y0372784D01*
X0080052Y0372826D01*
X0080108Y0372866D01*
X0080166Y0372902D01*
X0080227Y0372934D01*
X0080289Y0372963D01*
X0080353Y0372989D01*
X0080418Y0373010D01*
X0080485Y0373028D01*
X0080552Y0373042D01*
X0080620Y0373052D01*
X0080688Y0373058D01*
X0080757Y0373060D01*
X0080826Y0373058D01*
X0080894Y0373052D01*
X0080962Y0373042D01*
X0081029Y0373028D01*
X0081096Y0373010D01*
X0081161Y0372989D01*
X0081225Y0372963D01*
X0081287Y0372934D01*
X0081347Y0372902D01*
X0081406Y0372866D01*
X0081462Y0372826D01*
X0081516Y0372784D01*
X0081567Y0372738D01*
X0081616Y0372689D01*
X0081662Y0372638D01*
X0081704Y0372584D01*
X0081744Y0372528D01*
X0081780Y0372469D01*
X0081812Y0372409D01*
X0081841Y0372347D01*
X0081867Y0372283D01*
X0081888Y0372218D01*
X0081906Y0372151D01*
X0081920Y0372084D01*
X0081930Y0372016D01*
X0081936Y0371948D01*
X0081938Y0371879D01*
X0081936Y0371810D01*
X0081930Y0371742D01*
X0081920Y0371674D01*
X0081906Y0371607D01*
X0081888Y0371540D01*
X0081867Y0371475D01*
X0081841Y0371411D01*
X0081812Y0371349D01*
X0081780Y0371288D01*
X0081744Y0371230D01*
X0081704Y0371174D01*
X0081662Y0371120D01*
X0081616Y0371069D01*
X0081567Y0371020D01*
X0081516Y0370974D01*
X0081462Y0370932D01*
X0081406Y0370892D01*
X0081348Y0370856D01*
X0081287Y0370824D01*
X0081225Y0370795D01*
X0081161Y0370769D01*
X0081096Y0370748D01*
X0081029Y0370730D01*
X0080962Y0370716D01*
X0080894Y0370706D01*
X0080826Y0370700D01*
X0080757Y0370698D01*
X0080688Y0370700D01*
X0080620Y0370706D01*
X0080552Y0370716D01*
X0080485Y0370730D01*
X0080418Y0370748D01*
X0080353Y0370769D01*
X0080289Y0370795D01*
X0080227Y0370824D01*
X0080166Y0370856D01*
X0080108Y0370892D01*
X0080052Y0370932D01*
X0079998Y0370974D01*
X0079947Y0371020D01*
X0079898Y0371069D01*
X0079852Y0371120D01*
X0079810Y0371174D01*
X0079770Y0371230D01*
X0079734Y0371288D01*
X0079702Y0371349D01*
X0079673Y0371411D01*
X0079647Y0371475D01*
X0079626Y0371540D01*
X0079608Y0371607D01*
X0079594Y0371674D01*
X0079584Y0371742D01*
X0079578Y0371810D01*
X0079576Y0371879D01*
X0075639Y0371879D02*
X0075641Y0371948D01*
X0075647Y0372016D01*
X0075657Y0372084D01*
X0075671Y0372151D01*
X0075689Y0372218D01*
X0075710Y0372283D01*
X0075736Y0372347D01*
X0075765Y0372409D01*
X0075797Y0372469D01*
X0075833Y0372528D01*
X0075873Y0372584D01*
X0075915Y0372638D01*
X0075961Y0372689D01*
X0076010Y0372738D01*
X0076061Y0372784D01*
X0076115Y0372826D01*
X0076171Y0372866D01*
X0076229Y0372902D01*
X0076290Y0372934D01*
X0076352Y0372963D01*
X0076416Y0372989D01*
X0076481Y0373010D01*
X0076548Y0373028D01*
X0076615Y0373042D01*
X0076683Y0373052D01*
X0076751Y0373058D01*
X0076820Y0373060D01*
X0076889Y0373058D01*
X0076957Y0373052D01*
X0077025Y0373042D01*
X0077092Y0373028D01*
X0077159Y0373010D01*
X0077224Y0372989D01*
X0077288Y0372963D01*
X0077350Y0372934D01*
X0077410Y0372902D01*
X0077469Y0372866D01*
X0077525Y0372826D01*
X0077579Y0372784D01*
X0077630Y0372738D01*
X0077679Y0372689D01*
X0077725Y0372638D01*
X0077767Y0372584D01*
X0077807Y0372528D01*
X0077843Y0372469D01*
X0077875Y0372409D01*
X0077904Y0372347D01*
X0077930Y0372283D01*
X0077951Y0372218D01*
X0077969Y0372151D01*
X0077983Y0372084D01*
X0077993Y0372016D01*
X0077999Y0371948D01*
X0078001Y0371879D01*
X0077999Y0371810D01*
X0077993Y0371742D01*
X0077983Y0371674D01*
X0077969Y0371607D01*
X0077951Y0371540D01*
X0077930Y0371475D01*
X0077904Y0371411D01*
X0077875Y0371349D01*
X0077843Y0371288D01*
X0077807Y0371230D01*
X0077767Y0371174D01*
X0077725Y0371120D01*
X0077679Y0371069D01*
X0077630Y0371020D01*
X0077579Y0370974D01*
X0077525Y0370932D01*
X0077469Y0370892D01*
X0077411Y0370856D01*
X0077350Y0370824D01*
X0077288Y0370795D01*
X0077224Y0370769D01*
X0077159Y0370748D01*
X0077092Y0370730D01*
X0077025Y0370716D01*
X0076957Y0370706D01*
X0076889Y0370700D01*
X0076820Y0370698D01*
X0076751Y0370700D01*
X0076683Y0370706D01*
X0076615Y0370716D01*
X0076548Y0370730D01*
X0076481Y0370748D01*
X0076416Y0370769D01*
X0076352Y0370795D01*
X0076290Y0370824D01*
X0076229Y0370856D01*
X0076171Y0370892D01*
X0076115Y0370932D01*
X0076061Y0370974D01*
X0076010Y0371020D01*
X0075961Y0371069D01*
X0075915Y0371120D01*
X0075873Y0371174D01*
X0075833Y0371230D01*
X0075797Y0371288D01*
X0075765Y0371349D01*
X0075736Y0371411D01*
X0075710Y0371475D01*
X0075689Y0371540D01*
X0075671Y0371607D01*
X0075657Y0371674D01*
X0075647Y0371742D01*
X0075641Y0371810D01*
X0075639Y0371879D01*
X0075639Y0375816D02*
X0075641Y0375885D01*
X0075647Y0375953D01*
X0075657Y0376021D01*
X0075671Y0376088D01*
X0075689Y0376155D01*
X0075710Y0376220D01*
X0075736Y0376284D01*
X0075765Y0376346D01*
X0075797Y0376406D01*
X0075833Y0376465D01*
X0075873Y0376521D01*
X0075915Y0376575D01*
X0075961Y0376626D01*
X0076010Y0376675D01*
X0076061Y0376721D01*
X0076115Y0376763D01*
X0076171Y0376803D01*
X0076229Y0376839D01*
X0076290Y0376871D01*
X0076352Y0376900D01*
X0076416Y0376926D01*
X0076481Y0376947D01*
X0076548Y0376965D01*
X0076615Y0376979D01*
X0076683Y0376989D01*
X0076751Y0376995D01*
X0076820Y0376997D01*
X0076889Y0376995D01*
X0076957Y0376989D01*
X0077025Y0376979D01*
X0077092Y0376965D01*
X0077159Y0376947D01*
X0077224Y0376926D01*
X0077288Y0376900D01*
X0077350Y0376871D01*
X0077410Y0376839D01*
X0077469Y0376803D01*
X0077525Y0376763D01*
X0077579Y0376721D01*
X0077630Y0376675D01*
X0077679Y0376626D01*
X0077725Y0376575D01*
X0077767Y0376521D01*
X0077807Y0376465D01*
X0077843Y0376406D01*
X0077875Y0376346D01*
X0077904Y0376284D01*
X0077930Y0376220D01*
X0077951Y0376155D01*
X0077969Y0376088D01*
X0077983Y0376021D01*
X0077993Y0375953D01*
X0077999Y0375885D01*
X0078001Y0375816D01*
X0077999Y0375747D01*
X0077993Y0375679D01*
X0077983Y0375611D01*
X0077969Y0375544D01*
X0077951Y0375477D01*
X0077930Y0375412D01*
X0077904Y0375348D01*
X0077875Y0375286D01*
X0077843Y0375225D01*
X0077807Y0375167D01*
X0077767Y0375111D01*
X0077725Y0375057D01*
X0077679Y0375006D01*
X0077630Y0374957D01*
X0077579Y0374911D01*
X0077525Y0374869D01*
X0077469Y0374829D01*
X0077411Y0374793D01*
X0077350Y0374761D01*
X0077288Y0374732D01*
X0077224Y0374706D01*
X0077159Y0374685D01*
X0077092Y0374667D01*
X0077025Y0374653D01*
X0076957Y0374643D01*
X0076889Y0374637D01*
X0076820Y0374635D01*
X0076751Y0374637D01*
X0076683Y0374643D01*
X0076615Y0374653D01*
X0076548Y0374667D01*
X0076481Y0374685D01*
X0076416Y0374706D01*
X0076352Y0374732D01*
X0076290Y0374761D01*
X0076229Y0374793D01*
X0076171Y0374829D01*
X0076115Y0374869D01*
X0076061Y0374911D01*
X0076010Y0374957D01*
X0075961Y0375006D01*
X0075915Y0375057D01*
X0075873Y0375111D01*
X0075833Y0375167D01*
X0075797Y0375225D01*
X0075765Y0375286D01*
X0075736Y0375348D01*
X0075710Y0375412D01*
X0075689Y0375477D01*
X0075671Y0375544D01*
X0075657Y0375611D01*
X0075647Y0375679D01*
X0075641Y0375747D01*
X0075639Y0375816D01*
X0075639Y0379753D02*
X0075641Y0379822D01*
X0075647Y0379890D01*
X0075657Y0379958D01*
X0075671Y0380025D01*
X0075689Y0380092D01*
X0075710Y0380157D01*
X0075736Y0380221D01*
X0075765Y0380283D01*
X0075797Y0380343D01*
X0075833Y0380402D01*
X0075873Y0380458D01*
X0075915Y0380512D01*
X0075961Y0380563D01*
X0076010Y0380612D01*
X0076061Y0380658D01*
X0076115Y0380700D01*
X0076171Y0380740D01*
X0076229Y0380776D01*
X0076290Y0380808D01*
X0076352Y0380837D01*
X0076416Y0380863D01*
X0076481Y0380884D01*
X0076548Y0380902D01*
X0076615Y0380916D01*
X0076683Y0380926D01*
X0076751Y0380932D01*
X0076820Y0380934D01*
X0076889Y0380932D01*
X0076957Y0380926D01*
X0077025Y0380916D01*
X0077092Y0380902D01*
X0077159Y0380884D01*
X0077224Y0380863D01*
X0077288Y0380837D01*
X0077350Y0380808D01*
X0077410Y0380776D01*
X0077469Y0380740D01*
X0077525Y0380700D01*
X0077579Y0380658D01*
X0077630Y0380612D01*
X0077679Y0380563D01*
X0077725Y0380512D01*
X0077767Y0380458D01*
X0077807Y0380402D01*
X0077843Y0380343D01*
X0077875Y0380283D01*
X0077904Y0380221D01*
X0077930Y0380157D01*
X0077951Y0380092D01*
X0077969Y0380025D01*
X0077983Y0379958D01*
X0077993Y0379890D01*
X0077999Y0379822D01*
X0078001Y0379753D01*
X0077999Y0379684D01*
X0077993Y0379616D01*
X0077983Y0379548D01*
X0077969Y0379481D01*
X0077951Y0379414D01*
X0077930Y0379349D01*
X0077904Y0379285D01*
X0077875Y0379223D01*
X0077843Y0379162D01*
X0077807Y0379104D01*
X0077767Y0379048D01*
X0077725Y0378994D01*
X0077679Y0378943D01*
X0077630Y0378894D01*
X0077579Y0378848D01*
X0077525Y0378806D01*
X0077469Y0378766D01*
X0077411Y0378730D01*
X0077350Y0378698D01*
X0077288Y0378669D01*
X0077224Y0378643D01*
X0077159Y0378622D01*
X0077092Y0378604D01*
X0077025Y0378590D01*
X0076957Y0378580D01*
X0076889Y0378574D01*
X0076820Y0378572D01*
X0076751Y0378574D01*
X0076683Y0378580D01*
X0076615Y0378590D01*
X0076548Y0378604D01*
X0076481Y0378622D01*
X0076416Y0378643D01*
X0076352Y0378669D01*
X0076290Y0378698D01*
X0076229Y0378730D01*
X0076171Y0378766D01*
X0076115Y0378806D01*
X0076061Y0378848D01*
X0076010Y0378894D01*
X0075961Y0378943D01*
X0075915Y0378994D01*
X0075873Y0379048D01*
X0075833Y0379104D01*
X0075797Y0379162D01*
X0075765Y0379223D01*
X0075736Y0379285D01*
X0075710Y0379349D01*
X0075689Y0379414D01*
X0075671Y0379481D01*
X0075657Y0379548D01*
X0075647Y0379616D01*
X0075641Y0379684D01*
X0075639Y0379753D01*
X0079576Y0379753D02*
X0079578Y0379822D01*
X0079584Y0379890D01*
X0079594Y0379958D01*
X0079608Y0380025D01*
X0079626Y0380092D01*
X0079647Y0380157D01*
X0079673Y0380221D01*
X0079702Y0380283D01*
X0079734Y0380343D01*
X0079770Y0380402D01*
X0079810Y0380458D01*
X0079852Y0380512D01*
X0079898Y0380563D01*
X0079947Y0380612D01*
X0079998Y0380658D01*
X0080052Y0380700D01*
X0080108Y0380740D01*
X0080166Y0380776D01*
X0080227Y0380808D01*
X0080289Y0380837D01*
X0080353Y0380863D01*
X0080418Y0380884D01*
X0080485Y0380902D01*
X0080552Y0380916D01*
X0080620Y0380926D01*
X0080688Y0380932D01*
X0080757Y0380934D01*
X0080826Y0380932D01*
X0080894Y0380926D01*
X0080962Y0380916D01*
X0081029Y0380902D01*
X0081096Y0380884D01*
X0081161Y0380863D01*
X0081225Y0380837D01*
X0081287Y0380808D01*
X0081347Y0380776D01*
X0081406Y0380740D01*
X0081462Y0380700D01*
X0081516Y0380658D01*
X0081567Y0380612D01*
X0081616Y0380563D01*
X0081662Y0380512D01*
X0081704Y0380458D01*
X0081744Y0380402D01*
X0081780Y0380343D01*
X0081812Y0380283D01*
X0081841Y0380221D01*
X0081867Y0380157D01*
X0081888Y0380092D01*
X0081906Y0380025D01*
X0081920Y0379958D01*
X0081930Y0379890D01*
X0081936Y0379822D01*
X0081938Y0379753D01*
X0081936Y0379684D01*
X0081930Y0379616D01*
X0081920Y0379548D01*
X0081906Y0379481D01*
X0081888Y0379414D01*
X0081867Y0379349D01*
X0081841Y0379285D01*
X0081812Y0379223D01*
X0081780Y0379162D01*
X0081744Y0379104D01*
X0081704Y0379048D01*
X0081662Y0378994D01*
X0081616Y0378943D01*
X0081567Y0378894D01*
X0081516Y0378848D01*
X0081462Y0378806D01*
X0081406Y0378766D01*
X0081348Y0378730D01*
X0081287Y0378698D01*
X0081225Y0378669D01*
X0081161Y0378643D01*
X0081096Y0378622D01*
X0081029Y0378604D01*
X0080962Y0378590D01*
X0080894Y0378580D01*
X0080826Y0378574D01*
X0080757Y0378572D01*
X0080688Y0378574D01*
X0080620Y0378580D01*
X0080552Y0378590D01*
X0080485Y0378604D01*
X0080418Y0378622D01*
X0080353Y0378643D01*
X0080289Y0378669D01*
X0080227Y0378698D01*
X0080166Y0378730D01*
X0080108Y0378766D01*
X0080052Y0378806D01*
X0079998Y0378848D01*
X0079947Y0378894D01*
X0079898Y0378943D01*
X0079852Y0378994D01*
X0079810Y0379048D01*
X0079770Y0379104D01*
X0079734Y0379162D01*
X0079702Y0379223D01*
X0079673Y0379285D01*
X0079647Y0379349D01*
X0079626Y0379414D01*
X0079608Y0379481D01*
X0079594Y0379548D01*
X0079584Y0379616D01*
X0079578Y0379684D01*
X0079576Y0379753D01*
X0079576Y0375816D02*
X0079578Y0375885D01*
X0079584Y0375953D01*
X0079594Y0376021D01*
X0079608Y0376088D01*
X0079626Y0376155D01*
X0079647Y0376220D01*
X0079673Y0376284D01*
X0079702Y0376346D01*
X0079734Y0376406D01*
X0079770Y0376465D01*
X0079810Y0376521D01*
X0079852Y0376575D01*
X0079898Y0376626D01*
X0079947Y0376675D01*
X0079998Y0376721D01*
X0080052Y0376763D01*
X0080108Y0376803D01*
X0080166Y0376839D01*
X0080227Y0376871D01*
X0080289Y0376900D01*
X0080353Y0376926D01*
X0080418Y0376947D01*
X0080485Y0376965D01*
X0080552Y0376979D01*
X0080620Y0376989D01*
X0080688Y0376995D01*
X0080757Y0376997D01*
X0080826Y0376995D01*
X0080894Y0376989D01*
X0080962Y0376979D01*
X0081029Y0376965D01*
X0081096Y0376947D01*
X0081161Y0376926D01*
X0081225Y0376900D01*
X0081287Y0376871D01*
X0081347Y0376839D01*
X0081406Y0376803D01*
X0081462Y0376763D01*
X0081516Y0376721D01*
X0081567Y0376675D01*
X0081616Y0376626D01*
X0081662Y0376575D01*
X0081704Y0376521D01*
X0081744Y0376465D01*
X0081780Y0376406D01*
X0081812Y0376346D01*
X0081841Y0376284D01*
X0081867Y0376220D01*
X0081888Y0376155D01*
X0081906Y0376088D01*
X0081920Y0376021D01*
X0081930Y0375953D01*
X0081936Y0375885D01*
X0081938Y0375816D01*
X0081936Y0375747D01*
X0081930Y0375679D01*
X0081920Y0375611D01*
X0081906Y0375544D01*
X0081888Y0375477D01*
X0081867Y0375412D01*
X0081841Y0375348D01*
X0081812Y0375286D01*
X0081780Y0375225D01*
X0081744Y0375167D01*
X0081704Y0375111D01*
X0081662Y0375057D01*
X0081616Y0375006D01*
X0081567Y0374957D01*
X0081516Y0374911D01*
X0081462Y0374869D01*
X0081406Y0374829D01*
X0081348Y0374793D01*
X0081287Y0374761D01*
X0081225Y0374732D01*
X0081161Y0374706D01*
X0081096Y0374685D01*
X0081029Y0374667D01*
X0080962Y0374653D01*
X0080894Y0374643D01*
X0080826Y0374637D01*
X0080757Y0374635D01*
X0080688Y0374637D01*
X0080620Y0374643D01*
X0080552Y0374653D01*
X0080485Y0374667D01*
X0080418Y0374685D01*
X0080353Y0374706D01*
X0080289Y0374732D01*
X0080227Y0374761D01*
X0080166Y0374793D01*
X0080108Y0374829D01*
X0080052Y0374869D01*
X0079998Y0374911D01*
X0079947Y0374957D01*
X0079898Y0375006D01*
X0079852Y0375057D01*
X0079810Y0375111D01*
X0079770Y0375167D01*
X0079734Y0375225D01*
X0079702Y0375286D01*
X0079673Y0375348D01*
X0079647Y0375412D01*
X0079626Y0375477D01*
X0079608Y0375544D01*
X0079594Y0375611D01*
X0079584Y0375679D01*
X0079578Y0375747D01*
X0079576Y0375816D01*
X0083513Y0375816D02*
X0083515Y0375885D01*
X0083521Y0375953D01*
X0083531Y0376021D01*
X0083545Y0376088D01*
X0083563Y0376155D01*
X0083584Y0376220D01*
X0083610Y0376284D01*
X0083639Y0376346D01*
X0083671Y0376406D01*
X0083707Y0376465D01*
X0083747Y0376521D01*
X0083789Y0376575D01*
X0083835Y0376626D01*
X0083884Y0376675D01*
X0083935Y0376721D01*
X0083989Y0376763D01*
X0084045Y0376803D01*
X0084103Y0376839D01*
X0084164Y0376871D01*
X0084226Y0376900D01*
X0084290Y0376926D01*
X0084355Y0376947D01*
X0084422Y0376965D01*
X0084489Y0376979D01*
X0084557Y0376989D01*
X0084625Y0376995D01*
X0084694Y0376997D01*
X0084763Y0376995D01*
X0084831Y0376989D01*
X0084899Y0376979D01*
X0084966Y0376965D01*
X0085033Y0376947D01*
X0085098Y0376926D01*
X0085162Y0376900D01*
X0085224Y0376871D01*
X0085284Y0376839D01*
X0085343Y0376803D01*
X0085399Y0376763D01*
X0085453Y0376721D01*
X0085504Y0376675D01*
X0085553Y0376626D01*
X0085599Y0376575D01*
X0085641Y0376521D01*
X0085681Y0376465D01*
X0085717Y0376406D01*
X0085749Y0376346D01*
X0085778Y0376284D01*
X0085804Y0376220D01*
X0085825Y0376155D01*
X0085843Y0376088D01*
X0085857Y0376021D01*
X0085867Y0375953D01*
X0085873Y0375885D01*
X0085875Y0375816D01*
X0085873Y0375747D01*
X0085867Y0375679D01*
X0085857Y0375611D01*
X0085843Y0375544D01*
X0085825Y0375477D01*
X0085804Y0375412D01*
X0085778Y0375348D01*
X0085749Y0375286D01*
X0085717Y0375225D01*
X0085681Y0375167D01*
X0085641Y0375111D01*
X0085599Y0375057D01*
X0085553Y0375006D01*
X0085504Y0374957D01*
X0085453Y0374911D01*
X0085399Y0374869D01*
X0085343Y0374829D01*
X0085285Y0374793D01*
X0085224Y0374761D01*
X0085162Y0374732D01*
X0085098Y0374706D01*
X0085033Y0374685D01*
X0084966Y0374667D01*
X0084899Y0374653D01*
X0084831Y0374643D01*
X0084763Y0374637D01*
X0084694Y0374635D01*
X0084625Y0374637D01*
X0084557Y0374643D01*
X0084489Y0374653D01*
X0084422Y0374667D01*
X0084355Y0374685D01*
X0084290Y0374706D01*
X0084226Y0374732D01*
X0084164Y0374761D01*
X0084103Y0374793D01*
X0084045Y0374829D01*
X0083989Y0374869D01*
X0083935Y0374911D01*
X0083884Y0374957D01*
X0083835Y0375006D01*
X0083789Y0375057D01*
X0083747Y0375111D01*
X0083707Y0375167D01*
X0083671Y0375225D01*
X0083639Y0375286D01*
X0083610Y0375348D01*
X0083584Y0375412D01*
X0083563Y0375477D01*
X0083545Y0375544D01*
X0083531Y0375611D01*
X0083521Y0375679D01*
X0083515Y0375747D01*
X0083513Y0375816D01*
X0083513Y0379753D02*
X0083515Y0379822D01*
X0083521Y0379890D01*
X0083531Y0379958D01*
X0083545Y0380025D01*
X0083563Y0380092D01*
X0083584Y0380157D01*
X0083610Y0380221D01*
X0083639Y0380283D01*
X0083671Y0380343D01*
X0083707Y0380402D01*
X0083747Y0380458D01*
X0083789Y0380512D01*
X0083835Y0380563D01*
X0083884Y0380612D01*
X0083935Y0380658D01*
X0083989Y0380700D01*
X0084045Y0380740D01*
X0084103Y0380776D01*
X0084164Y0380808D01*
X0084226Y0380837D01*
X0084290Y0380863D01*
X0084355Y0380884D01*
X0084422Y0380902D01*
X0084489Y0380916D01*
X0084557Y0380926D01*
X0084625Y0380932D01*
X0084694Y0380934D01*
X0084763Y0380932D01*
X0084831Y0380926D01*
X0084899Y0380916D01*
X0084966Y0380902D01*
X0085033Y0380884D01*
X0085098Y0380863D01*
X0085162Y0380837D01*
X0085224Y0380808D01*
X0085284Y0380776D01*
X0085343Y0380740D01*
X0085399Y0380700D01*
X0085453Y0380658D01*
X0085504Y0380612D01*
X0085553Y0380563D01*
X0085599Y0380512D01*
X0085641Y0380458D01*
X0085681Y0380402D01*
X0085717Y0380343D01*
X0085749Y0380283D01*
X0085778Y0380221D01*
X0085804Y0380157D01*
X0085825Y0380092D01*
X0085843Y0380025D01*
X0085857Y0379958D01*
X0085867Y0379890D01*
X0085873Y0379822D01*
X0085875Y0379753D01*
X0085873Y0379684D01*
X0085867Y0379616D01*
X0085857Y0379548D01*
X0085843Y0379481D01*
X0085825Y0379414D01*
X0085804Y0379349D01*
X0085778Y0379285D01*
X0085749Y0379223D01*
X0085717Y0379162D01*
X0085681Y0379104D01*
X0085641Y0379048D01*
X0085599Y0378994D01*
X0085553Y0378943D01*
X0085504Y0378894D01*
X0085453Y0378848D01*
X0085399Y0378806D01*
X0085343Y0378766D01*
X0085285Y0378730D01*
X0085224Y0378698D01*
X0085162Y0378669D01*
X0085098Y0378643D01*
X0085033Y0378622D01*
X0084966Y0378604D01*
X0084899Y0378590D01*
X0084831Y0378580D01*
X0084763Y0378574D01*
X0084694Y0378572D01*
X0084625Y0378574D01*
X0084557Y0378580D01*
X0084489Y0378590D01*
X0084422Y0378604D01*
X0084355Y0378622D01*
X0084290Y0378643D01*
X0084226Y0378669D01*
X0084164Y0378698D01*
X0084103Y0378730D01*
X0084045Y0378766D01*
X0083989Y0378806D01*
X0083935Y0378848D01*
X0083884Y0378894D01*
X0083835Y0378943D01*
X0083789Y0378994D01*
X0083747Y0379048D01*
X0083707Y0379104D01*
X0083671Y0379162D01*
X0083639Y0379223D01*
X0083610Y0379285D01*
X0083584Y0379349D01*
X0083563Y0379414D01*
X0083545Y0379481D01*
X0083531Y0379548D01*
X0083521Y0379616D01*
X0083515Y0379684D01*
X0083513Y0379753D01*
X0011466Y0388611D02*
X0011468Y0388742D01*
X0011474Y0388874D01*
X0011484Y0389005D01*
X0011498Y0389136D01*
X0011516Y0389266D01*
X0011538Y0389395D01*
X0011563Y0389524D01*
X0011593Y0389652D01*
X0011627Y0389779D01*
X0011664Y0389906D01*
X0011705Y0390030D01*
X0011750Y0390154D01*
X0011799Y0390276D01*
X0011851Y0390397D01*
X0011907Y0390515D01*
X0011967Y0390633D01*
X0012030Y0390748D01*
X0012097Y0390861D01*
X0012167Y0390973D01*
X0012240Y0391082D01*
X0012316Y0391188D01*
X0012396Y0391293D01*
X0012479Y0391395D01*
X0012565Y0391494D01*
X0012654Y0391591D01*
X0012746Y0391685D01*
X0012841Y0391776D01*
X0012938Y0391865D01*
X0013038Y0391950D01*
X0013141Y0392032D01*
X0013246Y0392111D01*
X0013353Y0392187D01*
X0013463Y0392259D01*
X0013575Y0392328D01*
X0013689Y0392394D01*
X0013804Y0392456D01*
X0013922Y0392515D01*
X0014041Y0392570D01*
X0014162Y0392622D01*
X0014285Y0392669D01*
X0014409Y0392713D01*
X0014534Y0392754D01*
X0014660Y0392790D01*
X0014788Y0392823D01*
X0014916Y0392851D01*
X0015045Y0392876D01*
X0015175Y0392897D01*
X0015305Y0392914D01*
X0015436Y0392927D01*
X0015567Y0392936D01*
X0015698Y0392941D01*
X0015830Y0392942D01*
X0015961Y0392939D01*
X0016093Y0392932D01*
X0016224Y0392921D01*
X0016354Y0392906D01*
X0016484Y0392887D01*
X0016614Y0392864D01*
X0016742Y0392838D01*
X0016870Y0392807D01*
X0016997Y0392772D01*
X0017123Y0392734D01*
X0017247Y0392692D01*
X0017371Y0392646D01*
X0017492Y0392596D01*
X0017612Y0392543D01*
X0017731Y0392486D01*
X0017848Y0392426D01*
X0017962Y0392362D01*
X0018075Y0392294D01*
X0018186Y0392223D01*
X0018295Y0392149D01*
X0018401Y0392072D01*
X0018505Y0391991D01*
X0018606Y0391908D01*
X0018705Y0391821D01*
X0018801Y0391731D01*
X0018894Y0391638D01*
X0018985Y0391543D01*
X0019072Y0391445D01*
X0019157Y0391344D01*
X0019238Y0391241D01*
X0019316Y0391135D01*
X0019391Y0391027D01*
X0019463Y0390917D01*
X0019531Y0390805D01*
X0019596Y0390691D01*
X0019657Y0390574D01*
X0019715Y0390456D01*
X0019769Y0390336D01*
X0019820Y0390215D01*
X0019867Y0390092D01*
X0019910Y0389968D01*
X0019949Y0389843D01*
X0019985Y0389716D01*
X0020016Y0389588D01*
X0020044Y0389460D01*
X0020068Y0389331D01*
X0020088Y0389201D01*
X0020104Y0389070D01*
X0020116Y0388939D01*
X0020124Y0388808D01*
X0020128Y0388677D01*
X0020128Y0388545D01*
X0020124Y0388414D01*
X0020116Y0388283D01*
X0020104Y0388152D01*
X0020088Y0388021D01*
X0020068Y0387891D01*
X0020044Y0387762D01*
X0020016Y0387634D01*
X0019985Y0387506D01*
X0019949Y0387379D01*
X0019910Y0387254D01*
X0019867Y0387130D01*
X0019820Y0387007D01*
X0019769Y0386886D01*
X0019715Y0386766D01*
X0019657Y0386648D01*
X0019596Y0386531D01*
X0019531Y0386417D01*
X0019463Y0386305D01*
X0019391Y0386195D01*
X0019316Y0386087D01*
X0019238Y0385981D01*
X0019157Y0385878D01*
X0019072Y0385777D01*
X0018985Y0385679D01*
X0018894Y0385584D01*
X0018801Y0385491D01*
X0018705Y0385401D01*
X0018606Y0385314D01*
X0018505Y0385231D01*
X0018401Y0385150D01*
X0018295Y0385073D01*
X0018186Y0384999D01*
X0018075Y0384928D01*
X0017963Y0384860D01*
X0017848Y0384796D01*
X0017731Y0384736D01*
X0017612Y0384679D01*
X0017492Y0384626D01*
X0017371Y0384576D01*
X0017247Y0384530D01*
X0017123Y0384488D01*
X0016997Y0384450D01*
X0016870Y0384415D01*
X0016742Y0384384D01*
X0016614Y0384358D01*
X0016484Y0384335D01*
X0016354Y0384316D01*
X0016224Y0384301D01*
X0016093Y0384290D01*
X0015961Y0384283D01*
X0015830Y0384280D01*
X0015698Y0384281D01*
X0015567Y0384286D01*
X0015436Y0384295D01*
X0015305Y0384308D01*
X0015175Y0384325D01*
X0015045Y0384346D01*
X0014916Y0384371D01*
X0014788Y0384399D01*
X0014660Y0384432D01*
X0014534Y0384468D01*
X0014409Y0384509D01*
X0014285Y0384553D01*
X0014162Y0384600D01*
X0014041Y0384652D01*
X0013922Y0384707D01*
X0013804Y0384766D01*
X0013689Y0384828D01*
X0013575Y0384894D01*
X0013463Y0384963D01*
X0013353Y0385035D01*
X0013246Y0385111D01*
X0013141Y0385190D01*
X0013038Y0385272D01*
X0012938Y0385357D01*
X0012841Y0385446D01*
X0012746Y0385537D01*
X0012654Y0385631D01*
X0012565Y0385728D01*
X0012479Y0385827D01*
X0012396Y0385929D01*
X0012316Y0386034D01*
X0012240Y0386140D01*
X0012167Y0386249D01*
X0012097Y0386361D01*
X0012030Y0386474D01*
X0011967Y0386589D01*
X0011907Y0386707D01*
X0011851Y0386825D01*
X0011799Y0386946D01*
X0011750Y0387068D01*
X0011705Y0387192D01*
X0011664Y0387316D01*
X0011627Y0387443D01*
X0011593Y0387570D01*
X0011563Y0387698D01*
X0011538Y0387827D01*
X0011516Y0387956D01*
X0011498Y0388086D01*
X0011484Y0388217D01*
X0011474Y0388348D01*
X0011468Y0388480D01*
X0011466Y0388611D01*
X0009498Y0356131D02*
X0009500Y0356289D01*
X0009506Y0356447D01*
X0009516Y0356605D01*
X0009530Y0356763D01*
X0009548Y0356920D01*
X0009569Y0357077D01*
X0009595Y0357233D01*
X0009625Y0357389D01*
X0009658Y0357544D01*
X0009696Y0357697D01*
X0009737Y0357850D01*
X0009782Y0358002D01*
X0009831Y0358153D01*
X0009884Y0358302D01*
X0009940Y0358450D01*
X0010000Y0358596D01*
X0010064Y0358741D01*
X0010132Y0358884D01*
X0010203Y0359026D01*
X0010277Y0359166D01*
X0010355Y0359303D01*
X0010437Y0359439D01*
X0010521Y0359573D01*
X0010610Y0359704D01*
X0010701Y0359833D01*
X0010796Y0359960D01*
X0010893Y0360085D01*
X0010994Y0360207D01*
X0011098Y0360326D01*
X0011205Y0360443D01*
X0011315Y0360557D01*
X0011428Y0360668D01*
X0011543Y0360777D01*
X0011661Y0360882D01*
X0011782Y0360984D01*
X0011905Y0361084D01*
X0012031Y0361180D01*
X0012159Y0361273D01*
X0012289Y0361363D01*
X0012422Y0361449D01*
X0012557Y0361533D01*
X0012693Y0361612D01*
X0012832Y0361689D01*
X0012973Y0361761D01*
X0013115Y0361831D01*
X0013259Y0361896D01*
X0013405Y0361958D01*
X0013552Y0362016D01*
X0013701Y0362071D01*
X0013851Y0362122D01*
X0014002Y0362169D01*
X0014154Y0362212D01*
X0014307Y0362251D01*
X0014462Y0362287D01*
X0014617Y0362318D01*
X0014773Y0362346D01*
X0014929Y0362370D01*
X0015086Y0362390D01*
X0015244Y0362406D01*
X0015401Y0362418D01*
X0015560Y0362426D01*
X0015718Y0362430D01*
X0015876Y0362430D01*
X0016034Y0362426D01*
X0016193Y0362418D01*
X0016350Y0362406D01*
X0016508Y0362390D01*
X0016665Y0362370D01*
X0016821Y0362346D01*
X0016977Y0362318D01*
X0017132Y0362287D01*
X0017287Y0362251D01*
X0017440Y0362212D01*
X0017592Y0362169D01*
X0017743Y0362122D01*
X0017893Y0362071D01*
X0018042Y0362016D01*
X0018189Y0361958D01*
X0018335Y0361896D01*
X0018479Y0361831D01*
X0018621Y0361761D01*
X0018762Y0361689D01*
X0018901Y0361612D01*
X0019037Y0361533D01*
X0019172Y0361449D01*
X0019305Y0361363D01*
X0019435Y0361273D01*
X0019563Y0361180D01*
X0019689Y0361084D01*
X0019812Y0360984D01*
X0019933Y0360882D01*
X0020051Y0360777D01*
X0020166Y0360668D01*
X0020279Y0360557D01*
X0020389Y0360443D01*
X0020496Y0360326D01*
X0020600Y0360207D01*
X0020701Y0360085D01*
X0020798Y0359960D01*
X0020893Y0359833D01*
X0020984Y0359704D01*
X0021073Y0359573D01*
X0021157Y0359439D01*
X0021239Y0359303D01*
X0021317Y0359166D01*
X0021391Y0359026D01*
X0021462Y0358884D01*
X0021530Y0358741D01*
X0021594Y0358596D01*
X0021654Y0358450D01*
X0021710Y0358302D01*
X0021763Y0358153D01*
X0021812Y0358002D01*
X0021857Y0357850D01*
X0021898Y0357697D01*
X0021936Y0357544D01*
X0021969Y0357389D01*
X0021999Y0357233D01*
X0022025Y0357077D01*
X0022046Y0356920D01*
X0022064Y0356763D01*
X0022078Y0356605D01*
X0022088Y0356447D01*
X0022094Y0356289D01*
X0022096Y0356131D01*
X0022094Y0355973D01*
X0022088Y0355815D01*
X0022078Y0355657D01*
X0022064Y0355499D01*
X0022046Y0355342D01*
X0022025Y0355185D01*
X0021999Y0355029D01*
X0021969Y0354873D01*
X0021936Y0354718D01*
X0021898Y0354565D01*
X0021857Y0354412D01*
X0021812Y0354260D01*
X0021763Y0354109D01*
X0021710Y0353960D01*
X0021654Y0353812D01*
X0021594Y0353666D01*
X0021530Y0353521D01*
X0021462Y0353378D01*
X0021391Y0353236D01*
X0021317Y0353096D01*
X0021239Y0352959D01*
X0021157Y0352823D01*
X0021073Y0352689D01*
X0020984Y0352558D01*
X0020893Y0352429D01*
X0020798Y0352302D01*
X0020701Y0352177D01*
X0020600Y0352055D01*
X0020496Y0351936D01*
X0020389Y0351819D01*
X0020279Y0351705D01*
X0020166Y0351594D01*
X0020051Y0351485D01*
X0019933Y0351380D01*
X0019812Y0351278D01*
X0019689Y0351178D01*
X0019563Y0351082D01*
X0019435Y0350989D01*
X0019305Y0350899D01*
X0019172Y0350813D01*
X0019037Y0350729D01*
X0018901Y0350650D01*
X0018762Y0350573D01*
X0018621Y0350501D01*
X0018479Y0350431D01*
X0018335Y0350366D01*
X0018189Y0350304D01*
X0018042Y0350246D01*
X0017893Y0350191D01*
X0017743Y0350140D01*
X0017592Y0350093D01*
X0017440Y0350050D01*
X0017287Y0350011D01*
X0017132Y0349975D01*
X0016977Y0349944D01*
X0016821Y0349916D01*
X0016665Y0349892D01*
X0016508Y0349872D01*
X0016350Y0349856D01*
X0016193Y0349844D01*
X0016034Y0349836D01*
X0015876Y0349832D01*
X0015718Y0349832D01*
X0015560Y0349836D01*
X0015401Y0349844D01*
X0015244Y0349856D01*
X0015086Y0349872D01*
X0014929Y0349892D01*
X0014773Y0349916D01*
X0014617Y0349944D01*
X0014462Y0349975D01*
X0014307Y0350011D01*
X0014154Y0350050D01*
X0014002Y0350093D01*
X0013851Y0350140D01*
X0013701Y0350191D01*
X0013552Y0350246D01*
X0013405Y0350304D01*
X0013259Y0350366D01*
X0013115Y0350431D01*
X0012973Y0350501D01*
X0012832Y0350573D01*
X0012693Y0350650D01*
X0012557Y0350729D01*
X0012422Y0350813D01*
X0012289Y0350899D01*
X0012159Y0350989D01*
X0012031Y0351082D01*
X0011905Y0351178D01*
X0011782Y0351278D01*
X0011661Y0351380D01*
X0011543Y0351485D01*
X0011428Y0351594D01*
X0011315Y0351705D01*
X0011205Y0351819D01*
X0011098Y0351936D01*
X0010994Y0352055D01*
X0010893Y0352177D01*
X0010796Y0352302D01*
X0010701Y0352429D01*
X0010610Y0352558D01*
X0010521Y0352689D01*
X0010437Y0352823D01*
X0010355Y0352959D01*
X0010277Y0353096D01*
X0010203Y0353236D01*
X0010132Y0353378D01*
X0010064Y0353521D01*
X0010000Y0353666D01*
X0009940Y0353812D01*
X0009884Y0353960D01*
X0009831Y0354109D01*
X0009782Y0354260D01*
X0009737Y0354412D01*
X0009696Y0354565D01*
X0009658Y0354718D01*
X0009625Y0354873D01*
X0009595Y0355029D01*
X0009569Y0355185D01*
X0009548Y0355342D01*
X0009530Y0355499D01*
X0009516Y0355657D01*
X0009506Y0355815D01*
X0009500Y0355973D01*
X0009498Y0356131D01*
D11*
X0002017Y0015580D02*
X0002017Y0001800D01*
X0285482Y0001800D01*
X0285482Y0015580D01*
X0214616Y0015580D01*
X0214616Y0027391D01*
X0285482Y0027391D01*
X0285482Y0369910D01*
X0214616Y0369910D01*
X0214616Y0381721D01*
X0285482Y0381721D01*
X0285482Y0395501D01*
X0002017Y0395501D01*
X0002017Y0381721D01*
X0072883Y0381721D01*
X0072883Y0369910D01*
X0002017Y0369910D01*
X0002017Y0027391D01*
X0072883Y0027391D01*
X0072883Y0015580D01*
X0002017Y0015580D01*
X0088631Y0015580D02*
X0088631Y0027391D01*
X0198868Y0027391D01*
X0198868Y0015580D01*
X0088631Y0015580D01*
X0088631Y0369910D02*
X0088631Y0381721D01*
X0198868Y0381721D01*
X0198868Y0369910D01*
X0088631Y0369910D01*
D12*
X0094537Y0375816D02*
X0192962Y0375816D01*
X0192962Y0021485D02*
X0094537Y0021485D01*
M02*
