G75*
%MOIN*%
%OFA0B0*%
%FSLAX25Y25*%
%IPPOS*%
%LPD*%
%AMOC8*
5,1,8,0,0,1.08239X$1,22.5*
%
%ADD10C,0.13198*%
%ADD11C,0.02400*%
%ADD12C,0.02962*%
%ADD13C,0.09261*%
%ADD14C,0.08000*%
%ADD15C,0.04537*%
D10*
X0015797Y0041170D03*
X0015797Y0356131D03*
X0271702Y0356131D03*
X0271702Y0041170D03*
D11*
X0228395Y0008690D02*
X0228397Y0008778D01*
X0228403Y0008866D01*
X0228413Y0008954D01*
X0228427Y0009042D01*
X0228444Y0009128D01*
X0228466Y0009214D01*
X0228491Y0009298D01*
X0228521Y0009382D01*
X0228553Y0009464D01*
X0228590Y0009544D01*
X0228630Y0009623D01*
X0228674Y0009700D01*
X0228721Y0009775D01*
X0228771Y0009847D01*
X0228825Y0009918D01*
X0228881Y0009985D01*
X0228941Y0010051D01*
X0229003Y0010113D01*
X0229069Y0010173D01*
X0229136Y0010229D01*
X0229207Y0010283D01*
X0229279Y0010333D01*
X0229354Y0010380D01*
X0229431Y0010424D01*
X0229510Y0010464D01*
X0229590Y0010501D01*
X0229672Y0010533D01*
X0229756Y0010563D01*
X0229840Y0010588D01*
X0229926Y0010610D01*
X0230012Y0010627D01*
X0230100Y0010641D01*
X0230188Y0010651D01*
X0230276Y0010657D01*
X0230364Y0010659D01*
X0230452Y0010657D01*
X0230540Y0010651D01*
X0230628Y0010641D01*
X0230716Y0010627D01*
X0230802Y0010610D01*
X0230888Y0010588D01*
X0230972Y0010563D01*
X0231056Y0010533D01*
X0231138Y0010501D01*
X0231218Y0010464D01*
X0231297Y0010424D01*
X0231374Y0010380D01*
X0231449Y0010333D01*
X0231521Y0010283D01*
X0231592Y0010229D01*
X0231659Y0010173D01*
X0231725Y0010113D01*
X0231787Y0010051D01*
X0231847Y0009985D01*
X0231903Y0009918D01*
X0231957Y0009847D01*
X0232007Y0009775D01*
X0232054Y0009700D01*
X0232098Y0009623D01*
X0232138Y0009544D01*
X0232175Y0009464D01*
X0232207Y0009382D01*
X0232237Y0009298D01*
X0232262Y0009214D01*
X0232284Y0009128D01*
X0232301Y0009042D01*
X0232315Y0008954D01*
X0232325Y0008866D01*
X0232331Y0008778D01*
X0232333Y0008690D01*
X0232331Y0008602D01*
X0232325Y0008514D01*
X0232315Y0008426D01*
X0232301Y0008338D01*
X0232284Y0008252D01*
X0232262Y0008166D01*
X0232237Y0008082D01*
X0232207Y0007998D01*
X0232175Y0007916D01*
X0232138Y0007836D01*
X0232098Y0007757D01*
X0232054Y0007680D01*
X0232007Y0007605D01*
X0231957Y0007533D01*
X0231903Y0007462D01*
X0231847Y0007395D01*
X0231787Y0007329D01*
X0231725Y0007267D01*
X0231659Y0007207D01*
X0231592Y0007151D01*
X0231521Y0007097D01*
X0231449Y0007047D01*
X0231374Y0007000D01*
X0231297Y0006956D01*
X0231218Y0006916D01*
X0231138Y0006879D01*
X0231056Y0006847D01*
X0230972Y0006817D01*
X0230888Y0006792D01*
X0230802Y0006770D01*
X0230716Y0006753D01*
X0230628Y0006739D01*
X0230540Y0006729D01*
X0230452Y0006723D01*
X0230364Y0006721D01*
X0230276Y0006723D01*
X0230188Y0006729D01*
X0230100Y0006739D01*
X0230012Y0006753D01*
X0229926Y0006770D01*
X0229840Y0006792D01*
X0229756Y0006817D01*
X0229672Y0006847D01*
X0229590Y0006879D01*
X0229510Y0006916D01*
X0229431Y0006956D01*
X0229354Y0007000D01*
X0229279Y0007047D01*
X0229207Y0007097D01*
X0229136Y0007151D01*
X0229069Y0007207D01*
X0229003Y0007267D01*
X0228941Y0007329D01*
X0228881Y0007395D01*
X0228825Y0007462D01*
X0228771Y0007533D01*
X0228721Y0007605D01*
X0228674Y0007680D01*
X0228630Y0007757D01*
X0228590Y0007836D01*
X0228553Y0007916D01*
X0228521Y0007998D01*
X0228491Y0008082D01*
X0228466Y0008166D01*
X0228444Y0008252D01*
X0228427Y0008338D01*
X0228413Y0008426D01*
X0228403Y0008514D01*
X0228397Y0008602D01*
X0228395Y0008690D01*
X0248750Y0354900D02*
X0253750Y0359900D01*
X0248750Y0364900D01*
X0243750Y0359900D02*
X0253750Y0359900D01*
X0228395Y0388611D02*
X0228397Y0388699D01*
X0228403Y0388787D01*
X0228413Y0388875D01*
X0228427Y0388963D01*
X0228444Y0389049D01*
X0228466Y0389135D01*
X0228491Y0389219D01*
X0228521Y0389303D01*
X0228553Y0389385D01*
X0228590Y0389465D01*
X0228630Y0389544D01*
X0228674Y0389621D01*
X0228721Y0389696D01*
X0228771Y0389768D01*
X0228825Y0389839D01*
X0228881Y0389906D01*
X0228941Y0389972D01*
X0229003Y0390034D01*
X0229069Y0390094D01*
X0229136Y0390150D01*
X0229207Y0390204D01*
X0229279Y0390254D01*
X0229354Y0390301D01*
X0229431Y0390345D01*
X0229510Y0390385D01*
X0229590Y0390422D01*
X0229672Y0390454D01*
X0229756Y0390484D01*
X0229840Y0390509D01*
X0229926Y0390531D01*
X0230012Y0390548D01*
X0230100Y0390562D01*
X0230188Y0390572D01*
X0230276Y0390578D01*
X0230364Y0390580D01*
X0230452Y0390578D01*
X0230540Y0390572D01*
X0230628Y0390562D01*
X0230716Y0390548D01*
X0230802Y0390531D01*
X0230888Y0390509D01*
X0230972Y0390484D01*
X0231056Y0390454D01*
X0231138Y0390422D01*
X0231218Y0390385D01*
X0231297Y0390345D01*
X0231374Y0390301D01*
X0231449Y0390254D01*
X0231521Y0390204D01*
X0231592Y0390150D01*
X0231659Y0390094D01*
X0231725Y0390034D01*
X0231787Y0389972D01*
X0231847Y0389906D01*
X0231903Y0389839D01*
X0231957Y0389768D01*
X0232007Y0389696D01*
X0232054Y0389621D01*
X0232098Y0389544D01*
X0232138Y0389465D01*
X0232175Y0389385D01*
X0232207Y0389303D01*
X0232237Y0389219D01*
X0232262Y0389135D01*
X0232284Y0389049D01*
X0232301Y0388963D01*
X0232315Y0388875D01*
X0232325Y0388787D01*
X0232331Y0388699D01*
X0232333Y0388611D01*
X0232331Y0388523D01*
X0232325Y0388435D01*
X0232315Y0388347D01*
X0232301Y0388259D01*
X0232284Y0388173D01*
X0232262Y0388087D01*
X0232237Y0388003D01*
X0232207Y0387919D01*
X0232175Y0387837D01*
X0232138Y0387757D01*
X0232098Y0387678D01*
X0232054Y0387601D01*
X0232007Y0387526D01*
X0231957Y0387454D01*
X0231903Y0387383D01*
X0231847Y0387316D01*
X0231787Y0387250D01*
X0231725Y0387188D01*
X0231659Y0387128D01*
X0231592Y0387072D01*
X0231521Y0387018D01*
X0231449Y0386968D01*
X0231374Y0386921D01*
X0231297Y0386877D01*
X0231218Y0386837D01*
X0231138Y0386800D01*
X0231056Y0386768D01*
X0230972Y0386738D01*
X0230888Y0386713D01*
X0230802Y0386691D01*
X0230716Y0386674D01*
X0230628Y0386660D01*
X0230540Y0386650D01*
X0230452Y0386644D01*
X0230364Y0386642D01*
X0230276Y0386644D01*
X0230188Y0386650D01*
X0230100Y0386660D01*
X0230012Y0386674D01*
X0229926Y0386691D01*
X0229840Y0386713D01*
X0229756Y0386738D01*
X0229672Y0386768D01*
X0229590Y0386800D01*
X0229510Y0386837D01*
X0229431Y0386877D01*
X0229354Y0386921D01*
X0229279Y0386968D01*
X0229207Y0387018D01*
X0229136Y0387072D01*
X0229069Y0387128D01*
X0229003Y0387188D01*
X0228941Y0387250D01*
X0228881Y0387316D01*
X0228825Y0387383D01*
X0228771Y0387454D01*
X0228721Y0387526D01*
X0228674Y0387601D01*
X0228630Y0387678D01*
X0228590Y0387757D01*
X0228553Y0387837D01*
X0228521Y0387919D01*
X0228491Y0388003D01*
X0228466Y0388087D01*
X0228444Y0388173D01*
X0228427Y0388259D01*
X0228413Y0388347D01*
X0228403Y0388435D01*
X0228397Y0388523D01*
X0228395Y0388611D01*
X0055166Y0388611D02*
X0055168Y0388699D01*
X0055174Y0388787D01*
X0055184Y0388875D01*
X0055198Y0388963D01*
X0055215Y0389049D01*
X0055237Y0389135D01*
X0055262Y0389219D01*
X0055292Y0389303D01*
X0055324Y0389385D01*
X0055361Y0389465D01*
X0055401Y0389544D01*
X0055445Y0389621D01*
X0055492Y0389696D01*
X0055542Y0389768D01*
X0055596Y0389839D01*
X0055652Y0389906D01*
X0055712Y0389972D01*
X0055774Y0390034D01*
X0055840Y0390094D01*
X0055907Y0390150D01*
X0055978Y0390204D01*
X0056050Y0390254D01*
X0056125Y0390301D01*
X0056202Y0390345D01*
X0056281Y0390385D01*
X0056361Y0390422D01*
X0056443Y0390454D01*
X0056527Y0390484D01*
X0056611Y0390509D01*
X0056697Y0390531D01*
X0056783Y0390548D01*
X0056871Y0390562D01*
X0056959Y0390572D01*
X0057047Y0390578D01*
X0057135Y0390580D01*
X0057223Y0390578D01*
X0057311Y0390572D01*
X0057399Y0390562D01*
X0057487Y0390548D01*
X0057573Y0390531D01*
X0057659Y0390509D01*
X0057743Y0390484D01*
X0057827Y0390454D01*
X0057909Y0390422D01*
X0057989Y0390385D01*
X0058068Y0390345D01*
X0058145Y0390301D01*
X0058220Y0390254D01*
X0058292Y0390204D01*
X0058363Y0390150D01*
X0058430Y0390094D01*
X0058496Y0390034D01*
X0058558Y0389972D01*
X0058618Y0389906D01*
X0058674Y0389839D01*
X0058728Y0389768D01*
X0058778Y0389696D01*
X0058825Y0389621D01*
X0058869Y0389544D01*
X0058909Y0389465D01*
X0058946Y0389385D01*
X0058978Y0389303D01*
X0059008Y0389219D01*
X0059033Y0389135D01*
X0059055Y0389049D01*
X0059072Y0388963D01*
X0059086Y0388875D01*
X0059096Y0388787D01*
X0059102Y0388699D01*
X0059104Y0388611D01*
X0059102Y0388523D01*
X0059096Y0388435D01*
X0059086Y0388347D01*
X0059072Y0388259D01*
X0059055Y0388173D01*
X0059033Y0388087D01*
X0059008Y0388003D01*
X0058978Y0387919D01*
X0058946Y0387837D01*
X0058909Y0387757D01*
X0058869Y0387678D01*
X0058825Y0387601D01*
X0058778Y0387526D01*
X0058728Y0387454D01*
X0058674Y0387383D01*
X0058618Y0387316D01*
X0058558Y0387250D01*
X0058496Y0387188D01*
X0058430Y0387128D01*
X0058363Y0387072D01*
X0058292Y0387018D01*
X0058220Y0386968D01*
X0058145Y0386921D01*
X0058068Y0386877D01*
X0057989Y0386837D01*
X0057909Y0386800D01*
X0057827Y0386768D01*
X0057743Y0386738D01*
X0057659Y0386713D01*
X0057573Y0386691D01*
X0057487Y0386674D01*
X0057399Y0386660D01*
X0057311Y0386650D01*
X0057223Y0386644D01*
X0057135Y0386642D01*
X0057047Y0386644D01*
X0056959Y0386650D01*
X0056871Y0386660D01*
X0056783Y0386674D01*
X0056697Y0386691D01*
X0056611Y0386713D01*
X0056527Y0386738D01*
X0056443Y0386768D01*
X0056361Y0386800D01*
X0056281Y0386837D01*
X0056202Y0386877D01*
X0056125Y0386921D01*
X0056050Y0386968D01*
X0055978Y0387018D01*
X0055907Y0387072D01*
X0055840Y0387128D01*
X0055774Y0387188D01*
X0055712Y0387250D01*
X0055652Y0387316D01*
X0055596Y0387383D01*
X0055542Y0387454D01*
X0055492Y0387526D01*
X0055445Y0387601D01*
X0055401Y0387678D01*
X0055361Y0387757D01*
X0055324Y0387837D01*
X0055292Y0387919D01*
X0055262Y0388003D01*
X0055237Y0388087D01*
X0055215Y0388173D01*
X0055198Y0388259D01*
X0055184Y0388347D01*
X0055174Y0388435D01*
X0055168Y0388523D01*
X0055166Y0388611D01*
D12*
X0076820Y0379753D03*
X0076820Y0375816D03*
X0076820Y0371879D03*
X0080757Y0371879D03*
X0080757Y0375816D03*
X0080757Y0379753D03*
X0084694Y0379753D03*
X0084694Y0375816D03*
X0084694Y0371879D03*
X0202805Y0371879D03*
X0206742Y0371879D03*
X0206742Y0375816D03*
X0206742Y0379753D03*
X0202805Y0379753D03*
X0202805Y0375816D03*
X0210679Y0375816D03*
X0210679Y0379753D03*
X0210679Y0371879D03*
X0210679Y0025422D03*
X0210679Y0021485D03*
X0210679Y0017548D03*
X0206742Y0017548D03*
X0206742Y0021485D03*
X0206742Y0025422D03*
X0202805Y0025422D03*
X0202805Y0021485D03*
X0202805Y0017548D03*
X0084694Y0017548D03*
X0080757Y0017548D03*
X0080757Y0021485D03*
X0080757Y0025422D03*
X0084694Y0025422D03*
X0084694Y0021485D03*
X0076820Y0021485D03*
X0076820Y0017548D03*
X0076820Y0025422D03*
D13*
X0015797Y0008690D03*
X0271702Y0008690D03*
X0271702Y0388611D03*
X0015797Y0388611D03*
D14*
X0018750Y0343650D03*
X0018750Y0333650D03*
X0018750Y0323650D03*
X0018750Y0313650D03*
X0018750Y0303650D03*
X0018750Y0293650D03*
X0018750Y0283650D03*
X0018750Y0273650D03*
X0018750Y0263650D03*
X0018750Y0253650D03*
X0018750Y0243650D03*
X0018750Y0233650D03*
X0018750Y0223650D03*
X0018750Y0213650D03*
X0018750Y0203650D03*
X0018750Y0193650D03*
X0018750Y0183650D03*
X0018750Y0173650D03*
X0018750Y0163650D03*
X0018750Y0153650D03*
X0018750Y0143650D03*
X0018750Y0133650D03*
X0018750Y0123650D03*
X0018750Y0113650D03*
X0018750Y0103650D03*
X0018750Y0093650D03*
X0018750Y0083650D03*
X0018750Y0073650D03*
X0018750Y0063650D03*
X0018750Y0053650D03*
X0028750Y0053650D03*
X0038750Y0053650D03*
X0048750Y0053650D03*
X0048750Y0063650D03*
X0048750Y0073650D03*
X0048750Y0083650D03*
X0048750Y0093650D03*
X0048750Y0103650D03*
X0048750Y0113650D03*
X0048750Y0123650D03*
X0048750Y0133650D03*
X0048750Y0143650D03*
X0048750Y0153650D03*
X0048750Y0163650D03*
X0048750Y0173650D03*
X0048750Y0183650D03*
X0048750Y0193650D03*
X0048750Y0203650D03*
X0048750Y0213650D03*
X0048750Y0223650D03*
X0048750Y0233650D03*
X0048750Y0243650D03*
X0048750Y0253650D03*
X0048750Y0263650D03*
X0048750Y0273650D03*
X0048750Y0283650D03*
X0048750Y0293650D03*
X0048750Y0303650D03*
X0048750Y0313650D03*
X0048750Y0323650D03*
X0048750Y0333650D03*
X0048750Y0343650D03*
X0038750Y0343650D03*
X0038750Y0333650D03*
X0038750Y0323650D03*
X0038750Y0313650D03*
X0038750Y0303650D03*
X0038750Y0293650D03*
X0038750Y0283650D03*
X0038750Y0273650D03*
X0038750Y0263650D03*
X0038750Y0253650D03*
X0038750Y0243650D03*
X0038750Y0233650D03*
X0038750Y0223650D03*
X0038750Y0213650D03*
X0038750Y0203650D03*
X0038750Y0193650D03*
X0038750Y0183650D03*
X0038750Y0173650D03*
X0038750Y0163650D03*
X0038750Y0153650D03*
X0038750Y0143650D03*
X0038750Y0133650D03*
X0038750Y0123650D03*
X0038750Y0113650D03*
X0038750Y0103650D03*
X0038750Y0093650D03*
X0038750Y0083650D03*
X0038750Y0073650D03*
X0038750Y0063650D03*
X0028750Y0063650D03*
X0028750Y0073650D03*
X0028750Y0083650D03*
X0028750Y0093650D03*
X0028750Y0103650D03*
X0028750Y0113650D03*
X0028750Y0123650D03*
X0028750Y0133650D03*
X0028750Y0143650D03*
X0028750Y0153650D03*
X0028750Y0163650D03*
X0028750Y0173650D03*
X0028750Y0183650D03*
X0028750Y0193650D03*
X0028750Y0203650D03*
X0028750Y0213650D03*
X0028750Y0223650D03*
X0028750Y0233650D03*
X0028750Y0243650D03*
X0028750Y0253650D03*
X0028750Y0263650D03*
X0028750Y0273650D03*
X0028750Y0283650D03*
X0028750Y0293650D03*
X0028750Y0303650D03*
X0028750Y0313650D03*
X0028750Y0323650D03*
X0028750Y0333650D03*
X0028750Y0343650D03*
X0058750Y0343650D03*
X0068750Y0343650D03*
X0068750Y0333650D03*
X0068750Y0323650D03*
X0068750Y0313650D03*
X0068750Y0303650D03*
X0068750Y0293650D03*
X0068750Y0283650D03*
X0068750Y0273650D03*
X0068750Y0263650D03*
X0068750Y0253650D03*
X0068750Y0243650D03*
X0068750Y0233650D03*
X0068750Y0223650D03*
X0068750Y0213650D03*
X0068750Y0203650D03*
X0068750Y0193650D03*
X0068750Y0183650D03*
X0068750Y0173650D03*
X0068750Y0163650D03*
X0068750Y0153650D03*
X0068750Y0143650D03*
X0068750Y0133650D03*
X0068750Y0123650D03*
X0068750Y0113650D03*
X0068750Y0103650D03*
X0068750Y0093650D03*
X0068750Y0083650D03*
X0068750Y0073650D03*
X0068750Y0063650D03*
X0068750Y0053650D03*
X0058750Y0053650D03*
X0058750Y0063650D03*
X0058750Y0073650D03*
X0058750Y0083650D03*
X0058750Y0093650D03*
X0058750Y0103650D03*
X0058750Y0113650D03*
X0058750Y0123650D03*
X0058750Y0133650D03*
X0058750Y0143650D03*
X0058750Y0153650D03*
X0058750Y0163650D03*
X0058750Y0173650D03*
X0058750Y0183650D03*
X0058750Y0193650D03*
X0058750Y0203650D03*
X0058750Y0213650D03*
X0058750Y0223650D03*
X0058750Y0233650D03*
X0058750Y0243650D03*
X0058750Y0253650D03*
X0058750Y0263650D03*
X0058750Y0273650D03*
X0058750Y0283650D03*
X0058750Y0293650D03*
X0058750Y0303650D03*
X0058750Y0313650D03*
X0058750Y0323650D03*
X0058750Y0333650D03*
X0078750Y0333650D03*
X0078750Y0323650D03*
X0088750Y0323650D03*
X0088750Y0333650D03*
X0088750Y0343650D03*
X0078750Y0343650D03*
X0098750Y0343650D03*
X0108750Y0343650D03*
X0108750Y0333650D03*
X0108750Y0323650D03*
X0108750Y0313650D03*
X0108750Y0303650D03*
X0108750Y0293650D03*
X0108750Y0283650D03*
X0108750Y0273650D03*
X0108750Y0263650D03*
X0108750Y0253650D03*
X0108750Y0243650D03*
X0108750Y0233650D03*
X0108750Y0223650D03*
X0108750Y0213650D03*
X0108750Y0203650D03*
X0108750Y0193650D03*
X0108750Y0183650D03*
X0108750Y0173650D03*
X0108750Y0163650D03*
X0108750Y0153650D03*
X0108750Y0143650D03*
X0108750Y0133650D03*
X0108750Y0123650D03*
X0108750Y0113650D03*
X0108750Y0103650D03*
X0108750Y0093650D03*
X0108750Y0083650D03*
X0108750Y0073650D03*
X0108750Y0063650D03*
X0108750Y0053650D03*
X0098750Y0053650D03*
X0098750Y0063650D03*
X0098750Y0073650D03*
X0098750Y0083650D03*
X0098750Y0093650D03*
X0098750Y0103650D03*
X0098750Y0113650D03*
X0098750Y0123650D03*
X0098750Y0133650D03*
X0098750Y0143650D03*
X0098750Y0153650D03*
X0098750Y0163650D03*
X0098750Y0173650D03*
X0098750Y0183650D03*
X0098750Y0193650D03*
X0098750Y0203650D03*
X0098750Y0213650D03*
X0098750Y0223650D03*
X0098750Y0233650D03*
X0098750Y0243650D03*
X0098750Y0253650D03*
X0098750Y0263650D03*
X0098750Y0273650D03*
X0098750Y0283650D03*
X0098750Y0293650D03*
X0098750Y0303650D03*
X0098750Y0313650D03*
X0098750Y0323650D03*
X0098750Y0333650D03*
X0088750Y0313650D03*
X0088750Y0303650D03*
X0088750Y0293650D03*
X0088750Y0283650D03*
X0088750Y0273650D03*
X0088750Y0263650D03*
X0088750Y0253650D03*
X0088750Y0243650D03*
X0088750Y0233650D03*
X0088750Y0223650D03*
X0088750Y0213650D03*
X0088750Y0203650D03*
X0088750Y0193650D03*
X0088750Y0183650D03*
X0088750Y0173650D03*
X0088750Y0163650D03*
X0088750Y0153650D03*
X0088750Y0143650D03*
X0088750Y0133650D03*
X0088750Y0123650D03*
X0088750Y0113650D03*
X0088750Y0103650D03*
X0088750Y0093650D03*
X0088750Y0083650D03*
X0088750Y0073650D03*
X0088750Y0063650D03*
X0088750Y0053650D03*
X0078750Y0053650D03*
X0078750Y0063650D03*
X0078750Y0073650D03*
X0078750Y0083650D03*
X0078750Y0093650D03*
X0078750Y0103650D03*
X0078750Y0113650D03*
X0078750Y0123650D03*
X0078750Y0133650D03*
X0078750Y0143650D03*
X0078750Y0153650D03*
X0078750Y0163650D03*
X0078750Y0173650D03*
X0078750Y0183650D03*
X0078750Y0193650D03*
X0078750Y0203650D03*
X0078750Y0213650D03*
X0078750Y0223650D03*
X0078750Y0233650D03*
X0078750Y0243650D03*
X0078750Y0253650D03*
X0078750Y0263650D03*
X0078750Y0273650D03*
X0078750Y0283650D03*
X0078750Y0293650D03*
X0078750Y0303650D03*
X0078750Y0313650D03*
X0118750Y0313650D03*
X0118750Y0303650D03*
X0128750Y0303650D03*
X0128750Y0313650D03*
X0128750Y0323650D03*
X0128750Y0333650D03*
X0128750Y0343650D03*
X0118750Y0343650D03*
X0118750Y0333650D03*
X0118750Y0323650D03*
X0138750Y0323650D03*
X0138750Y0333650D03*
X0148750Y0333650D03*
X0148750Y0323650D03*
X0148750Y0313650D03*
X0148750Y0303650D03*
X0148750Y0293650D03*
X0148750Y0283650D03*
X0148750Y0273650D03*
X0148750Y0263650D03*
X0148750Y0253650D03*
X0148750Y0243650D03*
X0148750Y0233650D03*
X0148750Y0223650D03*
X0148750Y0213650D03*
X0148750Y0203650D03*
X0148750Y0193650D03*
X0148750Y0183650D03*
X0148750Y0173650D03*
X0148750Y0163650D03*
X0148750Y0153650D03*
X0148750Y0143650D03*
X0148750Y0133650D03*
X0148750Y0123650D03*
X0148750Y0113650D03*
X0148750Y0103650D03*
X0148750Y0093650D03*
X0148750Y0083650D03*
X0148750Y0073650D03*
X0148750Y0063650D03*
X0148750Y0053650D03*
X0138750Y0053650D03*
X0138750Y0063650D03*
X0138750Y0073650D03*
X0138750Y0083650D03*
X0138750Y0093650D03*
X0138750Y0103650D03*
X0138750Y0113650D03*
X0138750Y0123650D03*
X0138750Y0133650D03*
X0138750Y0143650D03*
X0138750Y0153650D03*
X0138750Y0163650D03*
X0138750Y0173650D03*
X0138750Y0183650D03*
X0138750Y0193650D03*
X0138750Y0203650D03*
X0138750Y0213650D03*
X0138750Y0223650D03*
X0138750Y0233650D03*
X0138750Y0243650D03*
X0138750Y0253650D03*
X0138750Y0263650D03*
X0138750Y0273650D03*
X0138750Y0283650D03*
X0138750Y0293650D03*
X0138750Y0303650D03*
X0138750Y0313650D03*
X0128750Y0293650D03*
X0128750Y0283650D03*
X0128750Y0273650D03*
X0128750Y0263650D03*
X0128750Y0253650D03*
X0128750Y0243650D03*
X0128750Y0233650D03*
X0128750Y0223650D03*
X0128750Y0213650D03*
X0128750Y0203650D03*
X0128750Y0193650D03*
X0128750Y0183650D03*
X0128750Y0173650D03*
X0128750Y0163650D03*
X0128750Y0153650D03*
X0128750Y0143650D03*
X0128750Y0133650D03*
X0128750Y0123650D03*
X0128750Y0113650D03*
X0128750Y0103650D03*
X0128750Y0093650D03*
X0128750Y0083650D03*
X0128750Y0073650D03*
X0128750Y0063650D03*
X0128750Y0053650D03*
X0118750Y0053650D03*
X0118750Y0063650D03*
X0118750Y0073650D03*
X0118750Y0083650D03*
X0118750Y0093650D03*
X0118750Y0103650D03*
X0118750Y0113650D03*
X0118750Y0123650D03*
X0118750Y0133650D03*
X0118750Y0143650D03*
X0118750Y0153650D03*
X0118750Y0163650D03*
X0118750Y0173650D03*
X0118750Y0183650D03*
X0118750Y0193650D03*
X0118750Y0203650D03*
X0118750Y0213650D03*
X0118750Y0223650D03*
X0118750Y0233650D03*
X0118750Y0243650D03*
X0118750Y0253650D03*
X0118750Y0263650D03*
X0118750Y0273650D03*
X0118750Y0283650D03*
X0118750Y0293650D03*
X0138750Y0343650D03*
X0148750Y0343650D03*
X0158750Y0343650D03*
X0168750Y0343650D03*
X0168750Y0333650D03*
X0168750Y0323650D03*
X0168750Y0313650D03*
X0168750Y0303650D03*
X0168750Y0293650D03*
X0168750Y0283650D03*
X0168750Y0273650D03*
X0168750Y0263650D03*
X0168750Y0253650D03*
X0168750Y0243650D03*
X0168750Y0233650D03*
X0168750Y0223650D03*
X0168750Y0213650D03*
X0168750Y0203650D03*
X0168750Y0193650D03*
X0168750Y0183650D03*
X0168750Y0173650D03*
X0168750Y0163650D03*
X0168750Y0153650D03*
X0168750Y0143650D03*
X0168750Y0133650D03*
X0168750Y0123650D03*
X0168750Y0113650D03*
X0168750Y0103650D03*
X0168750Y0093650D03*
X0168750Y0083650D03*
X0168750Y0073650D03*
X0168750Y0063650D03*
X0168750Y0053650D03*
X0158750Y0053650D03*
X0158750Y0063650D03*
X0158750Y0073650D03*
X0158750Y0083650D03*
X0158750Y0093650D03*
X0158750Y0103650D03*
X0158750Y0113650D03*
X0158750Y0123650D03*
X0158750Y0133650D03*
X0158750Y0143650D03*
X0158750Y0153650D03*
X0158750Y0163650D03*
X0158750Y0173650D03*
X0158750Y0183650D03*
X0158750Y0193650D03*
X0158750Y0203650D03*
X0158750Y0213650D03*
X0158750Y0223650D03*
X0158750Y0233650D03*
X0158750Y0243650D03*
X0158750Y0253650D03*
X0158750Y0263650D03*
X0158750Y0273650D03*
X0158750Y0283650D03*
X0158750Y0293650D03*
X0158750Y0303650D03*
X0158750Y0313650D03*
X0158750Y0323650D03*
X0158750Y0333650D03*
X0178750Y0333650D03*
X0178750Y0323650D03*
X0188750Y0323650D03*
X0188750Y0333650D03*
X0188750Y0343650D03*
X0178750Y0343650D03*
X0198750Y0343650D03*
X0208750Y0343650D03*
X0208750Y0333650D03*
X0208750Y0323650D03*
X0208750Y0313650D03*
X0208750Y0303650D03*
X0208750Y0293650D03*
X0208750Y0283650D03*
X0208750Y0273650D03*
X0208750Y0263650D03*
X0208750Y0253650D03*
X0208750Y0243650D03*
X0208750Y0233650D03*
X0208750Y0223650D03*
X0208750Y0213650D03*
X0208750Y0203650D03*
X0208750Y0193650D03*
X0208750Y0183650D03*
X0208750Y0173650D03*
X0208750Y0163650D03*
X0208750Y0153650D03*
X0208750Y0143650D03*
X0208750Y0133650D03*
X0208750Y0123650D03*
X0208750Y0113650D03*
X0208750Y0103650D03*
X0208750Y0093650D03*
X0208750Y0083650D03*
X0208750Y0073650D03*
X0208750Y0063650D03*
X0208750Y0053650D03*
X0198750Y0053650D03*
X0198750Y0063650D03*
X0198750Y0073650D03*
X0198750Y0083650D03*
X0198750Y0093650D03*
X0198750Y0103650D03*
X0198750Y0113650D03*
X0198750Y0123650D03*
X0198750Y0133650D03*
X0198750Y0143650D03*
X0198750Y0153650D03*
X0198750Y0163650D03*
X0198750Y0173650D03*
X0198750Y0183650D03*
X0198750Y0193650D03*
X0198750Y0203650D03*
X0198750Y0213650D03*
X0198750Y0223650D03*
X0198750Y0233650D03*
X0198750Y0243650D03*
X0198750Y0253650D03*
X0198750Y0263650D03*
X0198750Y0273650D03*
X0198750Y0283650D03*
X0198750Y0293650D03*
X0198750Y0303650D03*
X0198750Y0313650D03*
X0198750Y0323650D03*
X0198750Y0333650D03*
X0188750Y0313650D03*
X0188750Y0303650D03*
X0188750Y0293650D03*
X0188750Y0283650D03*
X0188750Y0273650D03*
X0188750Y0263650D03*
X0188750Y0253650D03*
X0188750Y0243650D03*
X0188750Y0233650D03*
X0188750Y0223650D03*
X0188750Y0213650D03*
X0188750Y0203650D03*
X0188750Y0193650D03*
X0188750Y0183650D03*
X0188750Y0173650D03*
X0188750Y0163650D03*
X0188750Y0153650D03*
X0188750Y0143650D03*
X0188750Y0133650D03*
X0188750Y0123650D03*
X0188750Y0113650D03*
X0188750Y0103650D03*
X0188750Y0093650D03*
X0188750Y0083650D03*
X0188750Y0073650D03*
X0188750Y0063650D03*
X0188750Y0053650D03*
X0178750Y0053650D03*
X0178750Y0063650D03*
X0178750Y0073650D03*
X0178750Y0083650D03*
X0178750Y0093650D03*
X0178750Y0103650D03*
X0178750Y0113650D03*
X0178750Y0123650D03*
X0178750Y0133650D03*
X0178750Y0143650D03*
X0178750Y0153650D03*
X0178750Y0163650D03*
X0178750Y0173650D03*
X0178750Y0183650D03*
X0178750Y0193650D03*
X0178750Y0203650D03*
X0178750Y0213650D03*
X0178750Y0223650D03*
X0178750Y0233650D03*
X0178750Y0243650D03*
X0178750Y0253650D03*
X0178750Y0263650D03*
X0178750Y0273650D03*
X0178750Y0283650D03*
X0178750Y0293650D03*
X0178750Y0303650D03*
X0178750Y0313650D03*
X0218750Y0313650D03*
X0218750Y0303650D03*
X0228750Y0303650D03*
X0228750Y0313650D03*
X0228750Y0323650D03*
X0228750Y0333650D03*
X0228750Y0343650D03*
X0218750Y0343650D03*
X0218750Y0333650D03*
X0218750Y0323650D03*
X0238750Y0323650D03*
X0238750Y0333650D03*
X0248750Y0333650D03*
X0248750Y0323650D03*
X0248750Y0313650D03*
X0248750Y0303650D03*
X0248750Y0293650D03*
X0248750Y0283650D03*
X0248750Y0273650D03*
X0248750Y0263650D03*
X0248750Y0253650D03*
X0248750Y0243650D03*
X0248750Y0233650D03*
X0248750Y0223650D03*
X0248750Y0213650D03*
X0248750Y0203650D03*
X0248750Y0193650D03*
X0248750Y0183650D03*
X0248750Y0173650D03*
X0248750Y0163650D03*
X0248750Y0153650D03*
X0248750Y0143650D03*
X0248750Y0133650D03*
X0248750Y0123650D03*
X0248750Y0113650D03*
X0248750Y0103650D03*
X0248750Y0093650D03*
X0248750Y0083650D03*
X0248750Y0073650D03*
X0248750Y0063650D03*
X0248750Y0053650D03*
X0238750Y0053650D03*
X0238750Y0063650D03*
X0238750Y0073650D03*
X0238750Y0083650D03*
X0238750Y0093650D03*
X0238750Y0103650D03*
X0238750Y0113650D03*
X0238750Y0123650D03*
X0238750Y0133650D03*
X0238750Y0143650D03*
X0238750Y0153650D03*
X0238750Y0163650D03*
X0238750Y0173650D03*
X0238750Y0183650D03*
X0238750Y0193650D03*
X0238750Y0203650D03*
X0238750Y0213650D03*
X0238750Y0223650D03*
X0238750Y0233650D03*
X0238750Y0243650D03*
X0238750Y0253650D03*
X0238750Y0263650D03*
X0238750Y0273650D03*
X0238750Y0283650D03*
X0238750Y0293650D03*
X0238750Y0303650D03*
X0238750Y0313650D03*
X0228750Y0293650D03*
X0228750Y0283650D03*
X0228750Y0273650D03*
X0228750Y0263650D03*
X0228750Y0253650D03*
X0228750Y0243650D03*
X0228750Y0233650D03*
X0228750Y0223650D03*
X0228750Y0213650D03*
X0228750Y0203650D03*
X0228750Y0193650D03*
X0228750Y0183650D03*
X0228750Y0173650D03*
X0228750Y0163650D03*
X0228750Y0153650D03*
X0228750Y0143650D03*
X0228750Y0133650D03*
X0228750Y0123650D03*
X0228750Y0113650D03*
X0228750Y0103650D03*
X0228750Y0093650D03*
X0228750Y0083650D03*
X0228750Y0073650D03*
X0228750Y0063650D03*
X0228750Y0053650D03*
X0218750Y0053650D03*
X0218750Y0063650D03*
X0218750Y0073650D03*
X0218750Y0083650D03*
X0218750Y0093650D03*
X0218750Y0103650D03*
X0218750Y0113650D03*
X0218750Y0123650D03*
X0218750Y0133650D03*
X0218750Y0143650D03*
X0218750Y0153650D03*
X0218750Y0163650D03*
X0218750Y0173650D03*
X0218750Y0183650D03*
X0218750Y0193650D03*
X0218750Y0203650D03*
X0218750Y0213650D03*
X0218750Y0223650D03*
X0218750Y0233650D03*
X0218750Y0243650D03*
X0218750Y0253650D03*
X0218750Y0263650D03*
X0218750Y0273650D03*
X0218750Y0283650D03*
X0218750Y0293650D03*
X0238750Y0343650D03*
X0248750Y0343650D03*
X0258750Y0343650D03*
X0268750Y0343650D03*
X0268750Y0333650D03*
X0268750Y0323650D03*
X0268750Y0313650D03*
X0268750Y0303650D03*
X0268750Y0293650D03*
X0268750Y0283650D03*
X0268750Y0273650D03*
X0268750Y0263650D03*
X0268750Y0253650D03*
X0268750Y0243650D03*
X0268750Y0233650D03*
X0268750Y0223650D03*
X0268750Y0213650D03*
X0268750Y0203650D03*
X0268750Y0193650D03*
X0268750Y0183650D03*
X0268750Y0173650D03*
X0268750Y0163650D03*
X0268750Y0153650D03*
X0268750Y0143650D03*
X0268750Y0133650D03*
X0268750Y0123650D03*
X0268750Y0113650D03*
X0268750Y0103650D03*
X0268750Y0093650D03*
X0268750Y0083650D03*
X0268750Y0073650D03*
X0268750Y0063650D03*
X0268750Y0053650D03*
X0258750Y0053650D03*
X0258750Y0063650D03*
X0258750Y0073650D03*
X0258750Y0083650D03*
X0258750Y0093650D03*
X0258750Y0103650D03*
X0258750Y0113650D03*
X0258750Y0123650D03*
X0258750Y0133650D03*
X0258750Y0143650D03*
X0258750Y0153650D03*
X0258750Y0163650D03*
X0258750Y0173650D03*
X0258750Y0183650D03*
X0258750Y0193650D03*
X0258750Y0203650D03*
X0258750Y0213650D03*
X0258750Y0223650D03*
X0258750Y0233650D03*
X0258750Y0243650D03*
X0258750Y0253650D03*
X0258750Y0263650D03*
X0258750Y0273650D03*
X0258750Y0283650D03*
X0258750Y0293650D03*
X0258750Y0303650D03*
X0258750Y0313650D03*
X0258750Y0323650D03*
X0258750Y0333650D03*
D15*
X0258750Y0356150D03*
X0258750Y0363650D03*
X0028750Y0356150D03*
M02*
