%
M48
M72
T01C0.0236
T02C0.0400
T03C0.0866
T04C0.1260
%
T01
X7682Y1755
X7682Y2149
X7682Y2542
X8076Y2542
X8469Y2542
X8469Y2149
X8076Y2149
X8076Y1755
X8469Y1755
X20280Y1755
X20280Y2149
X20280Y2542
X20674Y2542
X20674Y2149
X20674Y1755
X21068Y1755
X21068Y2149
X21068Y2542
X21068Y37188
X21068Y37582
X21068Y37975
X20674Y37975
X20674Y37582
X20280Y37582
X20280Y37975
X20280Y37188
X20674Y37188
X8469Y37188
X8076Y37188
X8076Y37582
X8076Y37975
X8469Y37975
X8469Y37582
X7682Y37582
X7682Y37975
X7682Y37188
T02
X7875Y34365
X8875Y34365
X8875Y33365
X8875Y32365
X8875Y31365
X8875Y30365
X8875Y29365
X8875Y28365
X8875Y27365
X8875Y26365
X8875Y25365
X8875Y24365
X8875Y23365
X8875Y22365
X8875Y21365
X8875Y20365
X8875Y19365
X8875Y18365
X8875Y17365
X8875Y16365
X8875Y15365
X8875Y14365
X8875Y13365
X8875Y12365
X8875Y11365
X8875Y10365
X8875Y9365
X8875Y8365
X8875Y7365
X8875Y6365
X8875Y5365
X7875Y5365
X7875Y6365
X7875Y7365
X7875Y8365
X7875Y9365
X7875Y10365
X7875Y11365
X7875Y12365
X7875Y13365
X7875Y14365
X7875Y15365
X7875Y16365
X7875Y17365
X7875Y18365
X7875Y19365
X7875Y20365
X7875Y21365
X7875Y22365
X7875Y23365
X7875Y24365
X7875Y25365
X7875Y26365
X7875Y27365
X7875Y28365
X7875Y29365
X7875Y30365
X7875Y31365
X7875Y32365
X7875Y33365
X6875Y33365
X6875Y32365
X6875Y31365
X6875Y30365
X6875Y29365
X6875Y28365
X6875Y27365
X6875Y26365
X6875Y25365
X6875Y24365
X6875Y23365
X6875Y22365
X6875Y21365
X6875Y20365
X6875Y19365
X6875Y18365
X6875Y17365
X6875Y16365
X6875Y15365
X6875Y14365
X6875Y13365
X6875Y12365
X6875Y11365
X6875Y10365
X6875Y9365
X6875Y8365
X6875Y7365
X6875Y6365
X6875Y5365
X5875Y5365
X5875Y6365
X5875Y7365
X5875Y8365
X5875Y9365
X5875Y10365
X5875Y11365
X5875Y12365
X5875Y13365
X5875Y14365
X5875Y15365
X5875Y16365
X5875Y17365
X5875Y18365
X5875Y19365
X5875Y20365
X5875Y21365
X5875Y22365
X5875Y23365
X5875Y24365
X5875Y25365
X5875Y26365
X5875Y27365
X5875Y28365
X5875Y29365
X5875Y30365
X5875Y31365
X5875Y32365
X5875Y33365
X5875Y34365
X6875Y34365
X4875Y34365
X4875Y33365
X4875Y32365
X4875Y31365
X4875Y30365
X4875Y29365
X4875Y28365
X4875Y27365
X4875Y26365
X4875Y25365
X4875Y24365
X4875Y23365
X4875Y22365
X4875Y21365
X4875Y20365
X4875Y19365
X4875Y18365
X4875Y17365
X4875Y16365
X4875Y15365
X4875Y14365
X4875Y13365
X4875Y12365
X4875Y11365
X4875Y10365
X4875Y9365
X4875Y8365
X4875Y7365
X4875Y6365
X4875Y5365
X3875Y5365
X3875Y6365
X3875Y7365
X3875Y8365
X3875Y9365
X3875Y10365
X3875Y11365
X3875Y12365
X3875Y13365
X3875Y14365
X3875Y15365
X3875Y16365
X3875Y17365
X3875Y18365
X3875Y19365
X3875Y20365
X3875Y21365
X3875Y22365
X3875Y23365
X3875Y24365
X3875Y25365
X3875Y26365
X3875Y27365
X3875Y28365
X3875Y29365
X3875Y30365
X3875Y31365
X3875Y32365
X3875Y33365
X3875Y34365
X2875Y34365
X2875Y33365
X2875Y32365
X2875Y31365
X2875Y30365
X2875Y29365
X2875Y28365
X2875Y27365
X2875Y26365
X2875Y25365
X2875Y24365
X2875Y23365
X2875Y22365
X2875Y21365
X2875Y20365
X2875Y19365
X2875Y18365
X2875Y17365
X2875Y16365
X2875Y15365
X2875Y14365
X2875Y13365
X2875Y12365
X2875Y11365
X2875Y10365
X2875Y9365
X2875Y8365
X2875Y7365
X2875Y6365
X2875Y5365
X1875Y5365
X1875Y6365
X1875Y7365
X1875Y8365
X1875Y9365
X1875Y10365
X1875Y11365
X1875Y12365
X1875Y13365
X1875Y14365
X1875Y15365
X1875Y16365
X1875Y17365
X1875Y18365
X1875Y19365
X1875Y20365
X1875Y21365
X1875Y22365
X1875Y23365
X1875Y24365
X1875Y25365
X1875Y26365
X1875Y27365
X1875Y28365
X1875Y29365
X1875Y30365
X1875Y31365
X1875Y32365
X1875Y33365
X1875Y34365
X9875Y34365
X10875Y34365
X10875Y33365
X10875Y32365
X10875Y31365
X10875Y30365
X10875Y29365
X10875Y28365
X10875Y27365
X10875Y26365
X10875Y25365
X10875Y24365
X10875Y23365
X10875Y22365
X10875Y21365
X10875Y20365
X10875Y19365
X10875Y18365
X10875Y17365
X10875Y16365
X10875Y15365
X10875Y14365
X10875Y13365
X10875Y12365
X10875Y11365
X10875Y10365
X10875Y9365
X10875Y8365
X10875Y7365
X10875Y6365
X10875Y5365
X9875Y5365
X9875Y6365
X9875Y7365
X9875Y8365
X9875Y9365
X9875Y10365
X9875Y11365
X9875Y12365
X9875Y13365
X9875Y14365
X9875Y15365
X9875Y16365
X9875Y17365
X9875Y18365
X9875Y19365
X9875Y20365
X9875Y21365
X9875Y22365
X9875Y23365
X9875Y24365
X9875Y25365
X9875Y26365
X9875Y27365
X9875Y28365
X9875Y29365
X9875Y30365
X9875Y31365
X9875Y32365
X9875Y33365
X11875Y33365
X11875Y32365
X12875Y32365
X12875Y33365
X12875Y34365
X11875Y34365
X13875Y34365
X14875Y34365
X14875Y33365
X14875Y32365
X14875Y31365
X14875Y30365
X14875Y29365
X14875Y28365
X14875Y27365
X14875Y26365
X14875Y25365
X14875Y24365
X14875Y23365
X14875Y22365
X14875Y21365
X14875Y20365
X14875Y19365
X14875Y18365
X14875Y17365
X14875Y16365
X14875Y15365
X14875Y14365
X14875Y13365
X14875Y12365
X14875Y11365
X14875Y10365
X14875Y9365
X14875Y8365
X14875Y7365
X14875Y6365
X14875Y5365
X13875Y5365
X13875Y6365
X13875Y7365
X13875Y8365
X13875Y9365
X13875Y10365
X13875Y11365
X13875Y12365
X13875Y13365
X13875Y14365
X13875Y15365
X13875Y16365
X13875Y17365
X13875Y18365
X13875Y19365
X13875Y20365
X13875Y21365
X13875Y22365
X13875Y23365
X13875Y24365
X13875Y25365
X13875Y26365
X13875Y27365
X13875Y28365
X13875Y29365
X13875Y30365
X13875Y31365
X13875Y32365
X13875Y33365
X12875Y31365
X12875Y30365
X12875Y29365
X12875Y28365
X12875Y27365
X12875Y26365
X12875Y25365
X12875Y24365
X12875Y23365
X12875Y22365
X12875Y21365
X12875Y20365
X12875Y19365
X12875Y18365
X12875Y17365
X12875Y16365
X12875Y15365
X12875Y14365
X12875Y13365
X12875Y12365
X12875Y11365
X12875Y10365
X12875Y9365
X12875Y8365
X12875Y7365
X12875Y6365
X12875Y5365
X11875Y5365
X11875Y6365
X11875Y7365
X11875Y8365
X11875Y9365
X11875Y10365
X11875Y11365
X11875Y12365
X11875Y13365
X11875Y14365
X11875Y15365
X11875Y16365
X11875Y17365
X11875Y18365
X11875Y19365
X11875Y20365
X11875Y21365
X11875Y22365
X11875Y23365
X11875Y24365
X11875Y25365
X11875Y26365
X11875Y27365
X11875Y28365
X11875Y29365
X11875Y30365
X11875Y31365
X15875Y31365
X15875Y30365
X16875Y30365
X16875Y31365
X16875Y32365
X16875Y33365
X16875Y34365
X15875Y34365
X15875Y33365
X15875Y32365
X17875Y32365
X17875Y33365
X18875Y33365
X18875Y32365
X18875Y31365
X18875Y30365
X18875Y29365
X18875Y28365
X18875Y27365
X18875Y26365
X18875Y25365
X18875Y24365
X18875Y23365
X18875Y22365
X18875Y21365
X18875Y20365
X18875Y19365
X18875Y18365
X18875Y17365
X18875Y16365
X18875Y15365
X18875Y14365
X18875Y13365
X18875Y12365
X18875Y11365
X18875Y10365
X18875Y9365
X18875Y8365
X18875Y7365
X18875Y6365
X18875Y5365
X17875Y5365
X17875Y6365
X17875Y7365
X17875Y8365
X17875Y9365
X17875Y10365
X17875Y11365
X17875Y12365
X17875Y13365
X17875Y14365
X17875Y15365
X17875Y16365
X17875Y17365
X17875Y18365
X17875Y19365
X17875Y20365
X17875Y21365
X17875Y22365
X17875Y23365
X17875Y24365
X17875Y25365
X17875Y26365
X17875Y27365
X17875Y28365
X17875Y29365
X17875Y30365
X17875Y31365
X16875Y29365
X16875Y28365
X16875Y27365
X16875Y26365
X16875Y25365
X16875Y24365
X16875Y23365
X16875Y22365
X16875Y21365
X16875Y20365
X16875Y19365
X16875Y18365
X16875Y17365
X16875Y16365
X16875Y15365
X16875Y14365
X16875Y13365
X16875Y12365
X16875Y11365
X16875Y10365
X16875Y9365
X16875Y8365
X16875Y7365
X16875Y6365
X16875Y5365
X15875Y5365
X15875Y6365
X15875Y7365
X15875Y8365
X15875Y9365
X15875Y10365
X15875Y11365
X15875Y12365
X15875Y13365
X15875Y14365
X15875Y15365
X15875Y16365
X15875Y17365
X15875Y18365
X15875Y19365
X15875Y20365
X15875Y21365
X15875Y22365
X15875Y23365
X15875Y24365
X15875Y25365
X15875Y26365
X15875Y27365
X15875Y28365
X15875Y29365
X17875Y34365
X18875Y34365
X19875Y34365
X20875Y34365
X20875Y33365
X20875Y32365
X20875Y31365
X20875Y30365
X20875Y29365
X20875Y28365
X20875Y27365
X20875Y26365
X20875Y25365
X20875Y24365
X20875Y23365
X20875Y22365
X20875Y21365
X20875Y20365
X20875Y19365
X20875Y18365
X20875Y17365
X20875Y16365
X20875Y15365
X20875Y14365
X20875Y13365
X20875Y12365
X20875Y11365
X20875Y10365
X20875Y9365
X20875Y8365
X20875Y7365
X20875Y6365
X20875Y5365
X19875Y5365
X19875Y6365
X19875Y7365
X19875Y8365
X19875Y9365
X19875Y10365
X19875Y11365
X19875Y12365
X19875Y13365
X19875Y14365
X19875Y15365
X19875Y16365
X19875Y17365
X19875Y18365
X19875Y19365
X19875Y20365
X19875Y21365
X19875Y22365
X19875Y23365
X19875Y24365
X19875Y25365
X19875Y26365
X19875Y27365
X19875Y28365
X19875Y29365
X19875Y30365
X19875Y31365
X19875Y32365
X19875Y33365
X21875Y33365
X21875Y32365
X22875Y32365
X22875Y33365
X22875Y34365
X21875Y34365
X23875Y34365
X24875Y34365
X24875Y33365
X24875Y32365
X24875Y31365
X24875Y30365
X24875Y29365
X24875Y28365
X24875Y27365
X24875Y26365
X24875Y25365
X24875Y24365
X24875Y23365
X24875Y22365
X24875Y21365
X24875Y20365
X24875Y19365
X24875Y18365
X24875Y17365
X24875Y16365
X24875Y15365
X24875Y14365
X24875Y13365
X24875Y12365
X24875Y11365
X24875Y10365
X24875Y9365
X24875Y8365
X24875Y7365
X24875Y6365
X24875Y5365
X23875Y5365
X23875Y6365
X23875Y7365
X23875Y8365
X23875Y9365
X23875Y10365
X23875Y11365
X23875Y12365
X23875Y13365
X23875Y14365
X23875Y15365
X23875Y16365
X23875Y17365
X23875Y18365
X23875Y19365
X23875Y20365
X23875Y21365
X23875Y22365
X23875Y23365
X23875Y24365
X23875Y25365
X23875Y26365
X23875Y27365
X23875Y28365
X23875Y29365
X23875Y30365
X23875Y31365
X23875Y32365
X23875Y33365
X22875Y31365
X22875Y30365
X22875Y29365
X22875Y28365
X22875Y27365
X22875Y26365
X22875Y25365
X22875Y24365
X22875Y23365
X22875Y22365
X22875Y21365
X22875Y20365
X22875Y19365
X22875Y18365
X22875Y17365
X22875Y16365
X22875Y15365
X22875Y14365
X22875Y13365
X22875Y12365
X22875Y11365
X22875Y10365
X22875Y9365
X22875Y8365
X22875Y7365
X22875Y6365
X22875Y5365
X21875Y5365
X21875Y6365
X21875Y7365
X21875Y8365
X21875Y9365
X21875Y10365
X21875Y11365
X21875Y12365
X21875Y13365
X21875Y14365
X21875Y15365
X21875Y16365
X21875Y17365
X21875Y18365
X21875Y19365
X21875Y20365
X21875Y21365
X21875Y22365
X21875Y23365
X21875Y24365
X21875Y25365
X21875Y26365
X21875Y27365
X21875Y28365
X21875Y29365
X21875Y30365
X21875Y31365
X25875Y31365
X25875Y30365
X26875Y30365
X26875Y31365
X26875Y32365
X26875Y33365
X26875Y34365
X25875Y34365
X25875Y33365
X25875Y32365
X25875Y29365
X25875Y28365
X26875Y28365
X26875Y29365
X26875Y27365
X26875Y26365
X26875Y25365
X26875Y24365
X26875Y23365
X26875Y22365
X26875Y21365
X26875Y20365
X26875Y19365
X26875Y18365
X26875Y17365
X26875Y16365
X26875Y15365
X26875Y14365
X26875Y13365
X26875Y12365
X26875Y11365
X26875Y10365
X26875Y9365
X26875Y8365
X26875Y7365
X26875Y6365
X26875Y5365
X25875Y5365
X25875Y6365
X25875Y7365
X25875Y8365
X25875Y9365
X25875Y10365
X25875Y11365
X25875Y12365
X25875Y13365
X25875Y14365
X25875Y15365
X25875Y16365
X25875Y17365
X25875Y18365
X25875Y19365
X25875Y20365
X25875Y21365
X25875Y22365
X25875Y23365
X25875Y24365
X25875Y25365
X25875Y26365
X25875Y27365
T03
X1580Y869
X27170Y869
X27170Y38861
X1580Y38861
T04
X1580Y35613
X1580Y4117
X27170Y4117
X27170Y35613
M30
