G75*
%MOIN*%
%OFA0B0*%
%FSLAX25Y25*%
%IPPOS*%
%LPD*%
%AMOC8*
5,1,8,0,0,1.08239X$1,22.5*
%
%ADD10R,0.15000X0.05000*%
%ADD11R,0.08000X0.08000*%
%ADD12C,0.08000*%
%ADD13C,0.04734*%
%ADD14C,0.03356*%
%ADD15R,0.04143X0.06112*%
%ADD16R,0.03041X0.03041*%
%ADD17R,0.04537X0.13986*%
%ADD18R,0.06506X0.14773*%
%ADD19R,0.06506X0.12411*%
%ADD20R,0.04143X0.04143*%
%ADD21R,0.05324X0.05324*%
D10*
X0012083Y0010050D03*
X0012083Y0020050D03*
X0012083Y0030050D03*
X0012083Y0040050D03*
X0012083Y0050050D03*
X0012083Y0060050D03*
X0012083Y0070050D03*
X0012083Y0080050D03*
X0012083Y0090050D03*
X0012083Y0100050D03*
X0012083Y0110050D03*
X0012083Y0120050D03*
X0012083Y0130050D03*
X0012083Y0140050D03*
X0012083Y0150050D03*
X0012083Y0160050D03*
X0012083Y0170050D03*
X0012083Y0180050D03*
X0012083Y0190050D03*
X0012083Y0200050D03*
X0112083Y0200050D03*
X0112083Y0190050D03*
X0112083Y0180050D03*
X0112083Y0170050D03*
X0112083Y0160050D03*
X0112083Y0150050D03*
X0112083Y0140050D03*
X0112083Y0130050D03*
X0112083Y0120050D03*
X0112083Y0110050D03*
X0112083Y0100050D03*
X0112083Y0090050D03*
X0112083Y0080050D03*
X0112083Y0070050D03*
X0112083Y0060050D03*
X0112083Y0050050D03*
X0112083Y0040050D03*
X0112083Y0030050D03*
X0112083Y0020050D03*
X0112083Y0010050D03*
D11*
X0007083Y0010050D03*
X0007083Y0020050D03*
X0007083Y0030050D03*
X0007083Y0040050D03*
X0007083Y0050050D03*
X0007083Y0060050D03*
X0007083Y0070050D03*
X0007083Y0080050D03*
X0007083Y0090050D03*
X0007083Y0100050D03*
X0007083Y0110050D03*
X0007083Y0120050D03*
X0007083Y0130050D03*
X0007083Y0140050D03*
X0007083Y0150050D03*
X0007083Y0160050D03*
X0007083Y0170050D03*
X0007083Y0180050D03*
X0007083Y0190050D03*
X0007083Y0200050D03*
X0017083Y0200050D03*
X0117083Y0200050D03*
X0117083Y0190050D03*
X0117083Y0180050D03*
X0117083Y0170050D03*
X0117083Y0160050D03*
X0117083Y0150050D03*
X0117083Y0140050D03*
X0117083Y0130050D03*
X0117083Y0120050D03*
X0117083Y0110050D03*
X0117083Y0100050D03*
X0117083Y0090050D03*
X0117083Y0080050D03*
X0117083Y0070050D03*
X0117083Y0060050D03*
X0117083Y0050050D03*
X0117083Y0040050D03*
X0117083Y0030050D03*
X0117083Y0020050D03*
X0117083Y0010050D03*
D12*
X0107083Y0010050D03*
X0107083Y0020050D03*
X0107083Y0030050D03*
X0107083Y0040050D03*
X0107083Y0050050D03*
X0107083Y0060050D03*
X0107083Y0070050D03*
X0107083Y0080050D03*
X0107083Y0090050D03*
X0107083Y0100050D03*
X0107083Y0110050D03*
X0107083Y0120050D03*
X0107083Y0130050D03*
X0107083Y0140050D03*
X0107083Y0150050D03*
X0107083Y0160050D03*
X0107083Y0170050D03*
X0107083Y0180050D03*
X0107083Y0190050D03*
X0107083Y0200050D03*
X0017083Y0190050D03*
X0017083Y0180050D03*
X0017083Y0170050D03*
X0017083Y0160050D03*
X0017083Y0150050D03*
X0017083Y0140050D03*
X0017083Y0130050D03*
X0017083Y0120050D03*
X0017083Y0110050D03*
X0017083Y0100050D03*
X0017083Y0090050D03*
X0017083Y0080050D03*
X0017083Y0070050D03*
X0017083Y0060050D03*
X0017083Y0050050D03*
X0017083Y0040050D03*
X0017083Y0030050D03*
X0017083Y0020050D03*
X0017083Y0010050D03*
D13*
X0045075Y0011644D02*
X0045075Y0015778D01*
X0045075Y0028101D02*
X0045075Y0032235D01*
X0079091Y0032235D02*
X0079091Y0028101D01*
X0079091Y0015778D02*
X0079091Y0011644D01*
D14*
X0073461Y0028081D03*
X0050705Y0028081D03*
D15*
X0047289Y0167550D03*
X0054376Y0167550D03*
D16*
X0052604Y0173800D03*
X0049061Y0173800D03*
D17*
X0050272Y0040867D03*
X0058146Y0040867D03*
X0066020Y0040867D03*
X0073894Y0040867D03*
D18*
X0082949Y0011339D03*
X0041217Y0011339D03*
D19*
X0041217Y0032206D03*
X0082949Y0032206D03*
D20*
X0061689Y0141103D03*
X0061689Y0146615D03*
X0061689Y0152127D03*
X0056177Y0152127D03*
X0056177Y0146615D03*
X0056177Y0141103D03*
X0050665Y0141103D03*
X0050665Y0146615D03*
X0050665Y0152127D03*
D21*
X0027083Y0010050D03*
M02*
