%
M48
M72
T01C0.0197
T02C0.0236
T03C0.0256
T04C0.0276
T05C0.0315
T06C0.0400
%
T01
X2208Y505
X2208Y1505
X2583Y1568
X2208Y2505
X2583Y3255
X2896Y3880
X3646Y1818
X3333Y880
X4833Y755
X5208Y755
X5583Y755
X5583Y1130
X5583Y1505
X5958Y1505
X5958Y1130
X5958Y755
X6458Y755
X6458Y1130
X6458Y1505
X6833Y1505
X6833Y1130
X6833Y755
X7208Y755
X7583Y755
X6708Y2130
X6110Y2130
X4521Y5255
X4458Y5630
X4271Y5943
X4521Y6255
X4771Y6568
X5708Y7630
X5896Y8380
X6333Y8380
X6271Y9786
X7083Y11380
X7458Y11630
X7271Y12005
X7833Y11880
X8208Y11630
X8208Y12130
X8208Y12505
X8208Y12880
X8583Y12880
X8583Y12505
X8833Y12201
X8583Y11880
X8958Y11701
X8958Y12701
X8958Y13201
X8583Y13255
X8958Y13701
X8958Y14201
X8958Y14701
X8958Y15201
X8958Y15701
X8958Y16201
X8958Y16701
X8958Y17201
X8583Y17380
X8583Y17005
X8208Y17005
X8208Y16630
X7833Y16630
X7833Y17005
X7833Y17380
X7833Y17755
X7458Y17755
X7458Y17380
X7458Y17005
X7458Y16630
X7458Y16255
X7458Y15880
X7083Y15880
X7083Y15505
X7083Y15130
X7083Y14755
X7083Y14380
X7083Y14005
X6708Y14005
X6708Y13630
X6333Y13380
X5958Y13380
X5958Y13005
X5583Y13380
X6708Y14380
X6708Y14755
X6708Y15130
X6708Y15505
X6708Y15880
X6708Y16255
X6708Y16630
X6708Y17005
X6708Y17380
X6708Y17755
X6333Y17755
X6333Y17380
X6333Y17005
X6333Y16630
X6333Y16255
X6333Y15880
X5958Y15880
X5958Y16255
X5958Y16630
X5958Y17005
X5958Y17380
X5958Y17755
X5583Y17755
X5583Y17380
X5208Y17755
X4833Y17755
X4458Y17755
X4083Y17755
X3708Y17755
X3458Y16701
X3458Y16201
X3333Y15701
X3333Y15201
X3333Y14701
X3333Y14201
X3333Y13701
X3333Y13201
X3458Y12701
X3333Y12201
X3271Y11701
X3458Y11255
X3833Y11505
X3958Y11880
X4083Y12255
X4208Y12630
X3833Y13005
X3833Y13380
X4833Y15880
X4833Y16255
X5208Y16255
X5208Y15880
X5583Y15880
X5583Y16255
X7083Y16255
X7083Y16630
X7083Y17005
X7083Y17380
X7083Y17755
X7833Y16255
X8458Y15880
X7740Y15318
X8208Y17380
X8208Y17755
X8583Y17755
X8958Y17755
X10208Y17505
X10208Y16505
X10208Y15505
X10208Y14505
X10208Y13505
X10208Y12505
X10208Y11505
X10208Y10505
X10208Y9505
X10208Y8505
X10208Y7505
X9833Y7505
X9833Y6505
X10208Y6505
X10208Y5505
X9833Y5505
X10208Y4505
X10208Y3505
X10208Y2505
X10208Y1505
X10208Y505
X9083Y3078
X7771Y6255
X7771Y7068
X8146Y7380
X6583Y5880
X5833Y6630
X4333Y9380
X2958Y10755
X2208Y12505
X2208Y13505
X2208Y14505
X2208Y15505
X2208Y16505
X7833Y12505
X10208Y19505
X10208Y20505
X2208Y6505
T02
X3396Y2755
X3021Y1505
X4458Y4130
X6271Y7693
X7271Y7255
T03
X7909Y3017
X7909Y1371
X4507Y1371
X4507Y3017
T04
X5070Y2808
X7346Y2808
T05
X7958Y4130
X8583Y4130
X7646Y5380
X7333Y9693
X4521Y8880
X4021Y5255
X3521Y17201
T06
X708Y1005
X708Y2005
X708Y3005
X708Y4005
X708Y5005
X708Y6005
X708Y7005
X708Y8005
X708Y9005
X708Y10005
X708Y11005
X708Y12005
X708Y13005
X708Y14005
X708Y15005
X708Y16005
X708Y17005
X708Y18005
X708Y19005
X708Y20005
X1708Y20005
X1708Y19005
X1708Y18005
X1708Y17005
X1708Y16005
X1708Y15005
X1708Y14005
X1708Y13005
X1708Y12005
X1708Y11005
X1708Y10005
X1708Y9005
X1708Y8005
X1708Y7005
X1708Y6005
X1708Y5005
X1708Y4005
X1708Y3005
X1708Y2005
X1708Y1005
X10708Y1005
X10708Y2005
X10708Y3005
X10708Y4005
X10708Y5005
X10708Y6005
X10708Y7005
X10708Y8005
X10708Y9005
X10708Y10005
X10708Y11005
X10708Y12005
X10708Y13005
X10708Y14005
X10708Y15005
X10708Y16005
X10708Y17005
X10708Y18005
X10708Y19005
X10708Y20005
X11708Y20005
X11708Y19005
X11708Y18005
X11708Y17005
X11708Y16005
X11708Y15005
X11708Y14005
X11708Y13005
X11708Y12005
X11708Y11005
X11708Y10005
X11708Y9005
X11708Y8005
X11708Y7005
X11708Y6005
X11708Y5005
X11708Y4005
X11708Y3005
X11708Y2005
X11708Y1005
M30
