G75*
%MOIN*%
%OFA0B0*%
%FSLAX25Y25*%
%IPPOS*%
%LPD*%
%AMOC8*
5,1,8,0,0,1.08239X$1,22.5*
%
%ADD10C,0.00000*%
%ADD11C,0.02559*%
D10*
X0007083Y0005050D02*
X0007083Y0205050D01*
X0007085Y0205148D01*
X0007091Y0205246D01*
X0007100Y0205344D01*
X0007114Y0205441D01*
X0007131Y0205538D01*
X0007152Y0205634D01*
X0007177Y0205729D01*
X0007205Y0205823D01*
X0007238Y0205915D01*
X0007273Y0206007D01*
X0007313Y0206097D01*
X0007355Y0206185D01*
X0007402Y0206272D01*
X0007451Y0206356D01*
X0007504Y0206439D01*
X0007560Y0206519D01*
X0007620Y0206598D01*
X0007682Y0206674D01*
X0007747Y0206747D01*
X0007815Y0206818D01*
X0007886Y0206886D01*
X0007959Y0206951D01*
X0008035Y0207013D01*
X0008114Y0207073D01*
X0008194Y0207129D01*
X0008277Y0207182D01*
X0008361Y0207231D01*
X0008448Y0207278D01*
X0008536Y0207320D01*
X0008626Y0207360D01*
X0008718Y0207395D01*
X0008810Y0207428D01*
X0008904Y0207456D01*
X0008999Y0207481D01*
X0009095Y0207502D01*
X0009192Y0207519D01*
X0009289Y0207533D01*
X0009387Y0207542D01*
X0009485Y0207548D01*
X0009583Y0207550D01*
X0114583Y0207550D01*
X0114681Y0207548D01*
X0114779Y0207542D01*
X0114877Y0207533D01*
X0114974Y0207519D01*
X0115071Y0207502D01*
X0115167Y0207481D01*
X0115262Y0207456D01*
X0115356Y0207428D01*
X0115448Y0207395D01*
X0115540Y0207360D01*
X0115630Y0207320D01*
X0115718Y0207278D01*
X0115805Y0207231D01*
X0115889Y0207182D01*
X0115972Y0207129D01*
X0116052Y0207073D01*
X0116131Y0207013D01*
X0116207Y0206951D01*
X0116280Y0206886D01*
X0116351Y0206818D01*
X0116419Y0206747D01*
X0116484Y0206674D01*
X0116546Y0206598D01*
X0116606Y0206519D01*
X0116662Y0206439D01*
X0116715Y0206356D01*
X0116764Y0206272D01*
X0116811Y0206185D01*
X0116853Y0206097D01*
X0116893Y0206007D01*
X0116928Y0205915D01*
X0116961Y0205823D01*
X0116989Y0205729D01*
X0117014Y0205634D01*
X0117035Y0205538D01*
X0117052Y0205441D01*
X0117066Y0205344D01*
X0117075Y0205246D01*
X0117081Y0205148D01*
X0117083Y0205050D01*
X0117083Y0005050D01*
X0117081Y0004952D01*
X0117075Y0004854D01*
X0117066Y0004756D01*
X0117052Y0004659D01*
X0117035Y0004562D01*
X0117014Y0004466D01*
X0116989Y0004371D01*
X0116961Y0004277D01*
X0116928Y0004185D01*
X0116893Y0004093D01*
X0116853Y0004003D01*
X0116811Y0003915D01*
X0116764Y0003828D01*
X0116715Y0003744D01*
X0116662Y0003661D01*
X0116606Y0003581D01*
X0116546Y0003502D01*
X0116484Y0003426D01*
X0116419Y0003353D01*
X0116351Y0003282D01*
X0116280Y0003214D01*
X0116207Y0003149D01*
X0116131Y0003087D01*
X0116052Y0003027D01*
X0115972Y0002971D01*
X0115889Y0002918D01*
X0115805Y0002869D01*
X0115718Y0002822D01*
X0115630Y0002780D01*
X0115540Y0002740D01*
X0115448Y0002705D01*
X0115356Y0002672D01*
X0115262Y0002644D01*
X0115167Y0002619D01*
X0115071Y0002598D01*
X0114974Y0002581D01*
X0114877Y0002567D01*
X0114779Y0002558D01*
X0114681Y0002552D01*
X0114583Y0002550D01*
X0009583Y0002550D01*
X0009485Y0002552D01*
X0009387Y0002558D01*
X0009289Y0002567D01*
X0009192Y0002581D01*
X0009095Y0002598D01*
X0008999Y0002619D01*
X0008904Y0002644D01*
X0008810Y0002672D01*
X0008718Y0002705D01*
X0008626Y0002740D01*
X0008536Y0002780D01*
X0008448Y0002822D01*
X0008361Y0002869D01*
X0008277Y0002918D01*
X0008194Y0002971D01*
X0008114Y0003027D01*
X0008035Y0003087D01*
X0007959Y0003149D01*
X0007886Y0003214D01*
X0007815Y0003282D01*
X0007747Y0003353D01*
X0007682Y0003426D01*
X0007620Y0003502D01*
X0007560Y0003581D01*
X0007504Y0003661D01*
X0007451Y0003744D01*
X0007402Y0003828D01*
X0007355Y0003915D01*
X0007313Y0004003D01*
X0007273Y0004093D01*
X0007238Y0004185D01*
X0007205Y0004277D01*
X0007177Y0004371D01*
X0007152Y0004466D01*
X0007131Y0004562D01*
X0007114Y0004659D01*
X0007100Y0004756D01*
X0007091Y0004854D01*
X0007085Y0004952D01*
X0007083Y0005050D01*
X0043795Y0012530D02*
X0043795Y0014893D01*
X0043797Y0014962D01*
X0043803Y0015031D01*
X0043812Y0015100D01*
X0043825Y0015168D01*
X0043842Y0015235D01*
X0043862Y0015302D01*
X0043886Y0015367D01*
X0043913Y0015430D01*
X0043944Y0015493D01*
X0043978Y0015553D01*
X0044016Y0015611D01*
X0044056Y0015668D01*
X0044099Y0015722D01*
X0044146Y0015773D01*
X0044195Y0015822D01*
X0044246Y0015869D01*
X0044300Y0015912D01*
X0044357Y0015952D01*
X0044415Y0015990D01*
X0044475Y0016024D01*
X0044538Y0016055D01*
X0044601Y0016082D01*
X0044666Y0016106D01*
X0044733Y0016126D01*
X0044800Y0016143D01*
X0044868Y0016156D01*
X0044937Y0016165D01*
X0045006Y0016171D01*
X0045075Y0016173D01*
X0045144Y0016171D01*
X0045213Y0016165D01*
X0045282Y0016156D01*
X0045350Y0016143D01*
X0045417Y0016126D01*
X0045484Y0016106D01*
X0045549Y0016082D01*
X0045612Y0016055D01*
X0045675Y0016024D01*
X0045735Y0015990D01*
X0045793Y0015952D01*
X0045850Y0015912D01*
X0045904Y0015869D01*
X0045955Y0015822D01*
X0046004Y0015773D01*
X0046051Y0015722D01*
X0046094Y0015668D01*
X0046134Y0015611D01*
X0046172Y0015553D01*
X0046206Y0015493D01*
X0046237Y0015430D01*
X0046264Y0015367D01*
X0046288Y0015302D01*
X0046308Y0015235D01*
X0046325Y0015168D01*
X0046338Y0015100D01*
X0046347Y0015031D01*
X0046353Y0014962D01*
X0046355Y0014893D01*
X0046354Y0014893D02*
X0046354Y0012530D01*
X0046355Y0012530D02*
X0046353Y0012461D01*
X0046347Y0012392D01*
X0046338Y0012323D01*
X0046325Y0012255D01*
X0046308Y0012188D01*
X0046288Y0012121D01*
X0046264Y0012056D01*
X0046237Y0011993D01*
X0046206Y0011930D01*
X0046172Y0011870D01*
X0046134Y0011812D01*
X0046094Y0011755D01*
X0046051Y0011701D01*
X0046004Y0011650D01*
X0045955Y0011601D01*
X0045904Y0011554D01*
X0045850Y0011511D01*
X0045793Y0011471D01*
X0045735Y0011433D01*
X0045675Y0011399D01*
X0045612Y0011368D01*
X0045549Y0011341D01*
X0045484Y0011317D01*
X0045417Y0011297D01*
X0045350Y0011280D01*
X0045282Y0011267D01*
X0045213Y0011258D01*
X0045144Y0011252D01*
X0045075Y0011250D01*
X0045006Y0011252D01*
X0044937Y0011258D01*
X0044868Y0011267D01*
X0044800Y0011280D01*
X0044733Y0011297D01*
X0044666Y0011317D01*
X0044601Y0011341D01*
X0044538Y0011368D01*
X0044475Y0011399D01*
X0044415Y0011433D01*
X0044357Y0011471D01*
X0044300Y0011511D01*
X0044246Y0011554D01*
X0044195Y0011601D01*
X0044146Y0011650D01*
X0044099Y0011701D01*
X0044056Y0011755D01*
X0044016Y0011812D01*
X0043978Y0011870D01*
X0043944Y0011930D01*
X0043913Y0011993D01*
X0043886Y0012056D01*
X0043862Y0012121D01*
X0043842Y0012188D01*
X0043825Y0012255D01*
X0043812Y0012323D01*
X0043803Y0012392D01*
X0043797Y0012461D01*
X0043795Y0012530D01*
X0043795Y0028003D02*
X0043795Y0032333D01*
X0043797Y0032402D01*
X0043803Y0032471D01*
X0043812Y0032540D01*
X0043825Y0032608D01*
X0043842Y0032675D01*
X0043862Y0032742D01*
X0043886Y0032807D01*
X0043913Y0032870D01*
X0043944Y0032933D01*
X0043978Y0032993D01*
X0044016Y0033051D01*
X0044056Y0033108D01*
X0044099Y0033162D01*
X0044146Y0033213D01*
X0044195Y0033262D01*
X0044246Y0033309D01*
X0044300Y0033352D01*
X0044357Y0033392D01*
X0044415Y0033430D01*
X0044475Y0033464D01*
X0044538Y0033495D01*
X0044601Y0033522D01*
X0044666Y0033546D01*
X0044733Y0033566D01*
X0044800Y0033583D01*
X0044868Y0033596D01*
X0044937Y0033605D01*
X0045006Y0033611D01*
X0045075Y0033613D01*
X0045144Y0033611D01*
X0045213Y0033605D01*
X0045282Y0033596D01*
X0045350Y0033583D01*
X0045417Y0033566D01*
X0045484Y0033546D01*
X0045549Y0033522D01*
X0045612Y0033495D01*
X0045675Y0033464D01*
X0045735Y0033430D01*
X0045793Y0033392D01*
X0045850Y0033352D01*
X0045904Y0033309D01*
X0045955Y0033262D01*
X0046004Y0033213D01*
X0046051Y0033162D01*
X0046094Y0033108D01*
X0046134Y0033051D01*
X0046172Y0032993D01*
X0046206Y0032933D01*
X0046237Y0032870D01*
X0046264Y0032807D01*
X0046288Y0032742D01*
X0046308Y0032675D01*
X0046325Y0032608D01*
X0046338Y0032540D01*
X0046347Y0032471D01*
X0046353Y0032402D01*
X0046355Y0032333D01*
X0046354Y0032333D02*
X0046354Y0028003D01*
X0046355Y0028003D02*
X0046353Y0027934D01*
X0046347Y0027865D01*
X0046338Y0027796D01*
X0046325Y0027728D01*
X0046308Y0027661D01*
X0046288Y0027594D01*
X0046264Y0027529D01*
X0046237Y0027466D01*
X0046206Y0027403D01*
X0046172Y0027343D01*
X0046134Y0027285D01*
X0046094Y0027228D01*
X0046051Y0027174D01*
X0046004Y0027123D01*
X0045955Y0027074D01*
X0045904Y0027027D01*
X0045850Y0026984D01*
X0045793Y0026944D01*
X0045735Y0026906D01*
X0045675Y0026872D01*
X0045612Y0026841D01*
X0045549Y0026814D01*
X0045484Y0026790D01*
X0045417Y0026770D01*
X0045350Y0026753D01*
X0045282Y0026740D01*
X0045213Y0026731D01*
X0045144Y0026725D01*
X0045075Y0026723D01*
X0045006Y0026725D01*
X0044937Y0026731D01*
X0044868Y0026740D01*
X0044800Y0026753D01*
X0044733Y0026770D01*
X0044666Y0026790D01*
X0044601Y0026814D01*
X0044538Y0026841D01*
X0044475Y0026872D01*
X0044415Y0026906D01*
X0044357Y0026944D01*
X0044300Y0026984D01*
X0044246Y0027027D01*
X0044195Y0027074D01*
X0044146Y0027123D01*
X0044099Y0027174D01*
X0044056Y0027228D01*
X0044016Y0027285D01*
X0043978Y0027343D01*
X0043944Y0027403D01*
X0043913Y0027466D01*
X0043886Y0027529D01*
X0043862Y0027594D01*
X0043842Y0027661D01*
X0043825Y0027728D01*
X0043812Y0027796D01*
X0043803Y0027865D01*
X0043797Y0027934D01*
X0043795Y0028003D01*
X0049327Y0028081D02*
X0049329Y0028155D01*
X0049335Y0028229D01*
X0049345Y0028302D01*
X0049359Y0028375D01*
X0049376Y0028447D01*
X0049398Y0028517D01*
X0049423Y0028587D01*
X0049452Y0028655D01*
X0049485Y0028721D01*
X0049521Y0028786D01*
X0049561Y0028848D01*
X0049603Y0028909D01*
X0049649Y0028967D01*
X0049698Y0029022D01*
X0049750Y0029075D01*
X0049805Y0029125D01*
X0049862Y0029171D01*
X0049922Y0029215D01*
X0049984Y0029255D01*
X0050048Y0029292D01*
X0050114Y0029326D01*
X0050182Y0029356D01*
X0050251Y0029382D01*
X0050322Y0029405D01*
X0050393Y0029423D01*
X0050466Y0029438D01*
X0050539Y0029449D01*
X0050613Y0029456D01*
X0050687Y0029459D01*
X0050760Y0029458D01*
X0050834Y0029453D01*
X0050908Y0029444D01*
X0050981Y0029431D01*
X0051053Y0029414D01*
X0051124Y0029394D01*
X0051194Y0029369D01*
X0051262Y0029341D01*
X0051329Y0029310D01*
X0051394Y0029274D01*
X0051457Y0029236D01*
X0051518Y0029194D01*
X0051577Y0029148D01*
X0051633Y0029100D01*
X0051686Y0029049D01*
X0051736Y0028995D01*
X0051784Y0028938D01*
X0051828Y0028879D01*
X0051870Y0028817D01*
X0051908Y0028754D01*
X0051942Y0028688D01*
X0051973Y0028621D01*
X0052000Y0028552D01*
X0052023Y0028482D01*
X0052043Y0028411D01*
X0052059Y0028338D01*
X0052071Y0028265D01*
X0052079Y0028192D01*
X0052083Y0028118D01*
X0052083Y0028044D01*
X0052079Y0027970D01*
X0052071Y0027897D01*
X0052059Y0027824D01*
X0052043Y0027751D01*
X0052023Y0027680D01*
X0052000Y0027610D01*
X0051973Y0027541D01*
X0051942Y0027474D01*
X0051908Y0027408D01*
X0051870Y0027345D01*
X0051828Y0027283D01*
X0051784Y0027224D01*
X0051736Y0027167D01*
X0051686Y0027113D01*
X0051633Y0027062D01*
X0051577Y0027014D01*
X0051518Y0026968D01*
X0051457Y0026926D01*
X0051394Y0026888D01*
X0051329Y0026852D01*
X0051262Y0026821D01*
X0051194Y0026793D01*
X0051124Y0026768D01*
X0051053Y0026748D01*
X0050981Y0026731D01*
X0050908Y0026718D01*
X0050834Y0026709D01*
X0050760Y0026704D01*
X0050687Y0026703D01*
X0050613Y0026706D01*
X0050539Y0026713D01*
X0050466Y0026724D01*
X0050393Y0026739D01*
X0050322Y0026757D01*
X0050251Y0026780D01*
X0050182Y0026806D01*
X0050114Y0026836D01*
X0050048Y0026870D01*
X0049984Y0026907D01*
X0049922Y0026947D01*
X0049862Y0026991D01*
X0049805Y0027037D01*
X0049750Y0027087D01*
X0049698Y0027140D01*
X0049649Y0027195D01*
X0049603Y0027253D01*
X0049561Y0027314D01*
X0049521Y0027376D01*
X0049485Y0027441D01*
X0049452Y0027507D01*
X0049423Y0027575D01*
X0049398Y0027645D01*
X0049376Y0027715D01*
X0049359Y0027787D01*
X0049345Y0027860D01*
X0049335Y0027933D01*
X0049329Y0028007D01*
X0049327Y0028081D01*
X0072083Y0028081D02*
X0072085Y0028155D01*
X0072091Y0028229D01*
X0072101Y0028302D01*
X0072115Y0028375D01*
X0072132Y0028447D01*
X0072154Y0028517D01*
X0072179Y0028587D01*
X0072208Y0028655D01*
X0072241Y0028721D01*
X0072277Y0028786D01*
X0072317Y0028848D01*
X0072359Y0028909D01*
X0072405Y0028967D01*
X0072454Y0029022D01*
X0072506Y0029075D01*
X0072561Y0029125D01*
X0072618Y0029171D01*
X0072678Y0029215D01*
X0072740Y0029255D01*
X0072804Y0029292D01*
X0072870Y0029326D01*
X0072938Y0029356D01*
X0073007Y0029382D01*
X0073078Y0029405D01*
X0073149Y0029423D01*
X0073222Y0029438D01*
X0073295Y0029449D01*
X0073369Y0029456D01*
X0073443Y0029459D01*
X0073516Y0029458D01*
X0073590Y0029453D01*
X0073664Y0029444D01*
X0073737Y0029431D01*
X0073809Y0029414D01*
X0073880Y0029394D01*
X0073950Y0029369D01*
X0074018Y0029341D01*
X0074085Y0029310D01*
X0074150Y0029274D01*
X0074213Y0029236D01*
X0074274Y0029194D01*
X0074333Y0029148D01*
X0074389Y0029100D01*
X0074442Y0029049D01*
X0074492Y0028995D01*
X0074540Y0028938D01*
X0074584Y0028879D01*
X0074626Y0028817D01*
X0074664Y0028754D01*
X0074698Y0028688D01*
X0074729Y0028621D01*
X0074756Y0028552D01*
X0074779Y0028482D01*
X0074799Y0028411D01*
X0074815Y0028338D01*
X0074827Y0028265D01*
X0074835Y0028192D01*
X0074839Y0028118D01*
X0074839Y0028044D01*
X0074835Y0027970D01*
X0074827Y0027897D01*
X0074815Y0027824D01*
X0074799Y0027751D01*
X0074779Y0027680D01*
X0074756Y0027610D01*
X0074729Y0027541D01*
X0074698Y0027474D01*
X0074664Y0027408D01*
X0074626Y0027345D01*
X0074584Y0027283D01*
X0074540Y0027224D01*
X0074492Y0027167D01*
X0074442Y0027113D01*
X0074389Y0027062D01*
X0074333Y0027014D01*
X0074274Y0026968D01*
X0074213Y0026926D01*
X0074150Y0026888D01*
X0074085Y0026852D01*
X0074018Y0026821D01*
X0073950Y0026793D01*
X0073880Y0026768D01*
X0073809Y0026748D01*
X0073737Y0026731D01*
X0073664Y0026718D01*
X0073590Y0026709D01*
X0073516Y0026704D01*
X0073443Y0026703D01*
X0073369Y0026706D01*
X0073295Y0026713D01*
X0073222Y0026724D01*
X0073149Y0026739D01*
X0073078Y0026757D01*
X0073007Y0026780D01*
X0072938Y0026806D01*
X0072870Y0026836D01*
X0072804Y0026870D01*
X0072740Y0026907D01*
X0072678Y0026947D01*
X0072618Y0026991D01*
X0072561Y0027037D01*
X0072506Y0027087D01*
X0072454Y0027140D01*
X0072405Y0027195D01*
X0072359Y0027253D01*
X0072317Y0027314D01*
X0072277Y0027376D01*
X0072241Y0027441D01*
X0072208Y0027507D01*
X0072179Y0027575D01*
X0072154Y0027645D01*
X0072132Y0027715D01*
X0072115Y0027787D01*
X0072101Y0027860D01*
X0072091Y0027933D01*
X0072085Y0028007D01*
X0072083Y0028081D01*
X0077811Y0028003D02*
X0077811Y0032333D01*
X0077813Y0032402D01*
X0077819Y0032471D01*
X0077828Y0032540D01*
X0077841Y0032608D01*
X0077858Y0032675D01*
X0077878Y0032742D01*
X0077902Y0032807D01*
X0077929Y0032870D01*
X0077960Y0032933D01*
X0077994Y0032993D01*
X0078032Y0033051D01*
X0078072Y0033108D01*
X0078115Y0033162D01*
X0078162Y0033213D01*
X0078211Y0033262D01*
X0078262Y0033309D01*
X0078316Y0033352D01*
X0078373Y0033392D01*
X0078431Y0033430D01*
X0078491Y0033464D01*
X0078554Y0033495D01*
X0078617Y0033522D01*
X0078682Y0033546D01*
X0078749Y0033566D01*
X0078816Y0033583D01*
X0078884Y0033596D01*
X0078953Y0033605D01*
X0079022Y0033611D01*
X0079091Y0033613D01*
X0079160Y0033611D01*
X0079229Y0033605D01*
X0079298Y0033596D01*
X0079366Y0033583D01*
X0079433Y0033566D01*
X0079500Y0033546D01*
X0079565Y0033522D01*
X0079628Y0033495D01*
X0079691Y0033464D01*
X0079751Y0033430D01*
X0079809Y0033392D01*
X0079866Y0033352D01*
X0079920Y0033309D01*
X0079971Y0033262D01*
X0080020Y0033213D01*
X0080067Y0033162D01*
X0080110Y0033108D01*
X0080150Y0033051D01*
X0080188Y0032993D01*
X0080222Y0032933D01*
X0080253Y0032870D01*
X0080280Y0032807D01*
X0080304Y0032742D01*
X0080324Y0032675D01*
X0080341Y0032608D01*
X0080354Y0032540D01*
X0080363Y0032471D01*
X0080369Y0032402D01*
X0080371Y0032333D01*
X0080370Y0032333D02*
X0080370Y0028003D01*
X0080371Y0028003D02*
X0080369Y0027934D01*
X0080363Y0027865D01*
X0080354Y0027796D01*
X0080341Y0027728D01*
X0080324Y0027661D01*
X0080304Y0027594D01*
X0080280Y0027529D01*
X0080253Y0027466D01*
X0080222Y0027403D01*
X0080188Y0027343D01*
X0080150Y0027285D01*
X0080110Y0027228D01*
X0080067Y0027174D01*
X0080020Y0027123D01*
X0079971Y0027074D01*
X0079920Y0027027D01*
X0079866Y0026984D01*
X0079809Y0026944D01*
X0079751Y0026906D01*
X0079691Y0026872D01*
X0079628Y0026841D01*
X0079565Y0026814D01*
X0079500Y0026790D01*
X0079433Y0026770D01*
X0079366Y0026753D01*
X0079298Y0026740D01*
X0079229Y0026731D01*
X0079160Y0026725D01*
X0079091Y0026723D01*
X0079022Y0026725D01*
X0078953Y0026731D01*
X0078884Y0026740D01*
X0078816Y0026753D01*
X0078749Y0026770D01*
X0078682Y0026790D01*
X0078617Y0026814D01*
X0078554Y0026841D01*
X0078491Y0026872D01*
X0078431Y0026906D01*
X0078373Y0026944D01*
X0078316Y0026984D01*
X0078262Y0027027D01*
X0078211Y0027074D01*
X0078162Y0027123D01*
X0078115Y0027174D01*
X0078072Y0027228D01*
X0078032Y0027285D01*
X0077994Y0027343D01*
X0077960Y0027403D01*
X0077929Y0027466D01*
X0077902Y0027529D01*
X0077878Y0027594D01*
X0077858Y0027661D01*
X0077841Y0027728D01*
X0077828Y0027796D01*
X0077819Y0027865D01*
X0077813Y0027934D01*
X0077811Y0028003D01*
X0077811Y0014893D02*
X0077811Y0012530D01*
X0079091Y0011250D02*
X0079160Y0011252D01*
X0079229Y0011258D01*
X0079298Y0011267D01*
X0079366Y0011280D01*
X0079433Y0011297D01*
X0079500Y0011317D01*
X0079565Y0011341D01*
X0079628Y0011368D01*
X0079691Y0011399D01*
X0079751Y0011433D01*
X0079809Y0011471D01*
X0079866Y0011511D01*
X0079920Y0011554D01*
X0079971Y0011601D01*
X0080020Y0011650D01*
X0080067Y0011701D01*
X0080110Y0011755D01*
X0080150Y0011812D01*
X0080188Y0011870D01*
X0080222Y0011930D01*
X0080253Y0011993D01*
X0080280Y0012056D01*
X0080304Y0012121D01*
X0080324Y0012188D01*
X0080341Y0012255D01*
X0080354Y0012323D01*
X0080363Y0012392D01*
X0080369Y0012461D01*
X0080371Y0012530D01*
X0080370Y0012530D02*
X0080370Y0014893D01*
X0079091Y0016173D02*
X0079022Y0016171D01*
X0078953Y0016165D01*
X0078884Y0016156D01*
X0078816Y0016143D01*
X0078749Y0016126D01*
X0078682Y0016106D01*
X0078617Y0016082D01*
X0078554Y0016055D01*
X0078491Y0016024D01*
X0078431Y0015990D01*
X0078373Y0015952D01*
X0078316Y0015912D01*
X0078262Y0015869D01*
X0078211Y0015822D01*
X0078162Y0015773D01*
X0078115Y0015722D01*
X0078072Y0015668D01*
X0078032Y0015611D01*
X0077994Y0015553D01*
X0077960Y0015493D01*
X0077929Y0015430D01*
X0077902Y0015367D01*
X0077878Y0015302D01*
X0077858Y0015235D01*
X0077841Y0015168D01*
X0077828Y0015100D01*
X0077819Y0015031D01*
X0077813Y0014962D01*
X0077811Y0014893D01*
X0079091Y0016173D02*
X0079160Y0016171D01*
X0079229Y0016165D01*
X0079298Y0016156D01*
X0079366Y0016143D01*
X0079433Y0016126D01*
X0079500Y0016106D01*
X0079565Y0016082D01*
X0079628Y0016055D01*
X0079691Y0016024D01*
X0079751Y0015990D01*
X0079809Y0015952D01*
X0079866Y0015912D01*
X0079920Y0015869D01*
X0079971Y0015822D01*
X0080020Y0015773D01*
X0080067Y0015722D01*
X0080110Y0015668D01*
X0080150Y0015611D01*
X0080188Y0015553D01*
X0080222Y0015493D01*
X0080253Y0015430D01*
X0080280Y0015367D01*
X0080304Y0015302D01*
X0080324Y0015235D01*
X0080341Y0015168D01*
X0080354Y0015100D01*
X0080363Y0015031D01*
X0080369Y0014962D01*
X0080371Y0014893D01*
X0077811Y0012530D02*
X0077813Y0012461D01*
X0077819Y0012392D01*
X0077828Y0012323D01*
X0077841Y0012255D01*
X0077858Y0012188D01*
X0077878Y0012121D01*
X0077902Y0012056D01*
X0077929Y0011993D01*
X0077960Y0011930D01*
X0077994Y0011870D01*
X0078032Y0011812D01*
X0078072Y0011755D01*
X0078115Y0011701D01*
X0078162Y0011650D01*
X0078211Y0011601D01*
X0078262Y0011554D01*
X0078316Y0011511D01*
X0078373Y0011471D01*
X0078431Y0011433D01*
X0078491Y0011399D01*
X0078554Y0011368D01*
X0078617Y0011341D01*
X0078682Y0011317D01*
X0078749Y0011297D01*
X0078816Y0011280D01*
X0078884Y0011267D01*
X0078953Y0011258D01*
X0079022Y0011252D01*
X0079091Y0011250D01*
D11*
X0079091Y0012530D02*
X0079091Y0014893D01*
X0079091Y0028003D02*
X0079091Y0032333D01*
X0045075Y0032333D02*
X0045075Y0028003D01*
X0045075Y0014893D02*
X0045075Y0012530D01*
M02*
