G75*
%MOIN*%
%OFA0B0*%
%FSLAX25Y25*%
%IPPOS*%
%LPD*%
%AMOC8*
5,1,8,0,0,1.08239X$1,22.5*
%
%ADD10R,0.15000X0.05000*%
%ADD11R,0.05000X0.05000*%
%ADD12R,0.03543X0.05512*%
%ADD13R,0.02441X0.02441*%
%ADD14R,0.03937X0.13386*%
%ADD15R,0.05906X0.14173*%
%ADD16R,0.05906X0.11811*%
%ADD17R,0.03543X0.03543*%
D10*
X0012083Y0010050D03*
X0012083Y0020050D03*
X0012083Y0030050D03*
X0012083Y0040050D03*
X0012083Y0050050D03*
X0012083Y0060050D03*
X0012083Y0070050D03*
X0012083Y0080050D03*
X0012083Y0090050D03*
X0012083Y0100050D03*
X0012083Y0110050D03*
X0012083Y0120050D03*
X0012083Y0130050D03*
X0012083Y0140050D03*
X0012083Y0150050D03*
X0012083Y0160050D03*
X0012083Y0170050D03*
X0012083Y0180050D03*
X0012083Y0190050D03*
X0012083Y0200050D03*
X0112083Y0200050D03*
X0112083Y0190050D03*
X0112083Y0180050D03*
X0112083Y0170050D03*
X0112083Y0160050D03*
X0112083Y0150050D03*
X0112083Y0140050D03*
X0112083Y0130050D03*
X0112083Y0120050D03*
X0112083Y0110050D03*
X0112083Y0100050D03*
X0112083Y0090050D03*
X0112083Y0080050D03*
X0112083Y0070050D03*
X0112083Y0060050D03*
X0112083Y0050050D03*
X0112083Y0040050D03*
X0112083Y0030050D03*
X0112083Y0020050D03*
X0112083Y0010050D03*
D11*
X0027083Y0010050D03*
D12*
X0047289Y0167550D03*
X0054376Y0167550D03*
D13*
X0052604Y0173800D03*
X0049061Y0173800D03*
D14*
X0050272Y0040867D03*
X0058146Y0040867D03*
X0066020Y0040867D03*
X0073894Y0040867D03*
D15*
X0082949Y0011339D03*
X0041217Y0011339D03*
D16*
X0041217Y0032206D03*
X0082949Y0032206D03*
D17*
X0061689Y0141103D03*
X0061689Y0146615D03*
X0061689Y0152127D03*
X0056177Y0152127D03*
X0056177Y0146615D03*
X0056177Y0141103D03*
X0050665Y0141103D03*
X0050665Y0146615D03*
X0050665Y0152127D03*
M02*
