G75*
%MOIN*%
%OFA0B0*%
%FSLAX25Y25*%
%IPPOS*%
%LPD*%
%AMOC8*
5,1,8,0,0,1.08239X$1,22.5*
%
%ADD10R,0.02362X0.05118*%
%ADD11R,0.01181X0.05709*%
%ADD12C,0.04134*%
%ADD13R,0.02559X0.04724*%
%ADD14R,0.08465X0.03740*%
%ADD15R,0.08465X0.12795*%
%ADD16R,0.02441X0.02441*%
%ADD17R,0.07480X0.04724*%
%ADD18R,0.05512X0.03543*%
%ADD19R,0.03543X0.05512*%
%ADD20R,0.03150X0.03150*%
%ADD21R,0.01969X0.01575*%
%ADD22R,0.01969X0.02362*%
%ADD23C,0.00780*%
%ADD24R,0.03543X0.03543*%
%ADD25R,0.03780X0.03780*%
%ADD26C,0.00080*%
%ADD27R,0.06299X0.03937*%
D10*
X0049287Y0034066D03*
X0052437Y0034066D03*
X0071728Y0034066D03*
X0074878Y0034066D03*
D11*
X0068972Y0033770D03*
X0067004Y0033770D03*
X0065035Y0033770D03*
X0063067Y0033770D03*
X0061098Y0033770D03*
X0059130Y0033770D03*
X0057161Y0033770D03*
X0055193Y0033770D03*
D12*
X0045075Y0032240D02*
X0045075Y0028106D01*
X0045075Y0015778D02*
X0045075Y0011644D01*
X0079091Y0011644D02*
X0079091Y0015778D01*
X0079091Y0028106D02*
X0079091Y0032240D01*
D13*
X0086600Y0024765D03*
X0095065Y0024765D03*
X0095065Y0007835D03*
X0086600Y0007835D03*
X0037565Y0007835D03*
X0029100Y0007835D03*
X0029100Y0024765D03*
X0037565Y0024765D03*
D14*
X0050665Y0079745D03*
X0050665Y0088800D03*
X0050665Y0097855D03*
D15*
X0073500Y0088800D03*
D16*
X0080833Y0087028D03*
X0080833Y0090572D03*
X0085833Y0086822D03*
X0085833Y0083278D03*
X0093333Y0083278D03*
X0093333Y0086822D03*
X0083854Y0067550D03*
X0080311Y0067550D03*
X0080311Y0062550D03*
X0080311Y0057550D03*
X0080311Y0053175D03*
X0083854Y0053175D03*
X0083854Y0057550D03*
X0083854Y0062550D03*
X0089583Y0060572D03*
X0089583Y0057028D03*
X0094583Y0057028D03*
X0094583Y0060572D03*
X0089583Y0048072D03*
X0089583Y0044528D03*
X0087083Y0034322D03*
X0087083Y0030778D03*
X0094583Y0030778D03*
X0094583Y0034322D03*
X0079583Y0044528D03*
X0079583Y0048072D03*
X0074583Y0048072D03*
X0074583Y0044528D03*
X0069583Y0044528D03*
X0069583Y0048072D03*
X0064583Y0048072D03*
X0064583Y0044528D03*
X0059583Y0044528D03*
X0059583Y0048072D03*
X0054583Y0048072D03*
X0054583Y0044528D03*
X0049583Y0044528D03*
X0049583Y0048072D03*
X0044583Y0048072D03*
X0044583Y0044528D03*
X0037083Y0034322D03*
X0037083Y0030778D03*
X0029583Y0030778D03*
X0029583Y0034322D03*
X0027083Y0054528D03*
X0027083Y0058072D03*
X0047083Y0072028D03*
X0047083Y0075572D03*
X0036354Y0095050D03*
X0032811Y0095050D03*
D17*
X0035833Y0058711D03*
X0035833Y0041389D03*
D18*
X0040833Y0067757D03*
X0040833Y0074843D03*
D19*
X0038126Y0088800D03*
X0031039Y0088800D03*
D20*
X0027083Y0043347D03*
X0027083Y0049253D03*
X0094583Y0049253D03*
X0094583Y0043347D03*
D21*
X0084583Y0044725D03*
X0084583Y0047875D03*
D22*
X0089583Y0071113D03*
X0093323Y0078987D03*
X0085843Y0078987D03*
X0085843Y0091113D03*
X0089583Y0098987D03*
X0093323Y0091113D03*
D23*
X0090964Y0104524D02*
X0090964Y0109650D01*
X0090964Y0104524D02*
X0088202Y0104524D01*
X0088202Y0109650D01*
X0090964Y0109650D01*
X0090964Y0105303D02*
X0088202Y0105303D01*
X0088202Y0106082D02*
X0090964Y0106082D01*
X0090964Y0106861D02*
X0088202Y0106861D01*
X0088202Y0107640D02*
X0090964Y0107640D01*
X0090964Y0108419D02*
X0088202Y0108419D01*
X0088202Y0109198D02*
X0090964Y0109198D01*
X0093968Y0113390D02*
X0099094Y0113390D01*
X0099094Y0110628D01*
X0093968Y0110628D01*
X0093968Y0113390D01*
X0093968Y0111407D02*
X0099094Y0111407D01*
X0099094Y0112186D02*
X0093968Y0112186D01*
X0093968Y0112965D02*
X0099094Y0112965D01*
X0099094Y0118390D02*
X0093968Y0118390D01*
X0099094Y0118390D02*
X0099094Y0115628D01*
X0093968Y0115628D01*
X0093968Y0118390D01*
X0093968Y0116407D02*
X0099094Y0116407D01*
X0099094Y0117186D02*
X0093968Y0117186D01*
X0093968Y0117965D02*
X0099094Y0117965D01*
X0099094Y0123390D02*
X0093968Y0123390D01*
X0099094Y0123390D02*
X0099094Y0120628D01*
X0093968Y0120628D01*
X0093968Y0123390D01*
X0093968Y0121407D02*
X0099094Y0121407D01*
X0099094Y0122186D02*
X0093968Y0122186D01*
X0093968Y0122965D02*
X0099094Y0122965D01*
X0099094Y0128390D02*
X0093968Y0128390D01*
X0099094Y0128390D02*
X0099094Y0125628D01*
X0093968Y0125628D01*
X0093968Y0128390D01*
X0093968Y0126407D02*
X0099094Y0126407D01*
X0099094Y0127186D02*
X0093968Y0127186D01*
X0093968Y0127965D02*
X0099094Y0127965D01*
X0099094Y0133390D02*
X0093968Y0133390D01*
X0099094Y0133390D02*
X0099094Y0130628D01*
X0093968Y0130628D01*
X0093968Y0133390D01*
X0093968Y0131407D02*
X0099094Y0131407D01*
X0099094Y0132186D02*
X0093968Y0132186D01*
X0093968Y0132965D02*
X0099094Y0132965D01*
X0099094Y0138390D02*
X0093968Y0138390D01*
X0099094Y0138390D02*
X0099094Y0135628D01*
X0093968Y0135628D01*
X0093968Y0138390D01*
X0093968Y0136407D02*
X0099094Y0136407D01*
X0099094Y0137186D02*
X0093968Y0137186D01*
X0093968Y0137965D02*
X0099094Y0137965D01*
X0099094Y0143390D02*
X0093968Y0143390D01*
X0099094Y0143390D02*
X0099094Y0140628D01*
X0093968Y0140628D01*
X0093968Y0143390D01*
X0093968Y0141407D02*
X0099094Y0141407D01*
X0099094Y0142186D02*
X0093968Y0142186D01*
X0093968Y0142965D02*
X0099094Y0142965D01*
X0099094Y0148390D02*
X0093968Y0148390D01*
X0099094Y0148390D02*
X0099094Y0145628D01*
X0093968Y0145628D01*
X0093968Y0148390D01*
X0093968Y0146407D02*
X0099094Y0146407D01*
X0099094Y0147186D02*
X0093968Y0147186D01*
X0093968Y0147965D02*
X0099094Y0147965D01*
X0099094Y0153390D02*
X0093968Y0153390D01*
X0099094Y0153390D02*
X0099094Y0150628D01*
X0093968Y0150628D01*
X0093968Y0153390D01*
X0093968Y0151407D02*
X0099094Y0151407D01*
X0099094Y0152186D02*
X0093968Y0152186D01*
X0093968Y0152965D02*
X0099094Y0152965D01*
X0099094Y0158390D02*
X0093968Y0158390D01*
X0099094Y0158390D02*
X0099094Y0155628D01*
X0093968Y0155628D01*
X0093968Y0158390D01*
X0093968Y0156407D02*
X0099094Y0156407D01*
X0099094Y0157186D02*
X0093968Y0157186D01*
X0093968Y0157965D02*
X0099094Y0157965D01*
X0099094Y0163390D02*
X0093968Y0163390D01*
X0099094Y0163390D02*
X0099094Y0160628D01*
X0093968Y0160628D01*
X0093968Y0163390D01*
X0093968Y0161407D02*
X0099094Y0161407D01*
X0099094Y0162186D02*
X0093968Y0162186D01*
X0093968Y0162965D02*
X0099094Y0162965D01*
X0099094Y0168390D02*
X0093968Y0168390D01*
X0099094Y0168390D02*
X0099094Y0165628D01*
X0093968Y0165628D01*
X0093968Y0168390D01*
X0093968Y0166407D02*
X0099094Y0166407D01*
X0099094Y0167186D02*
X0093968Y0167186D01*
X0093968Y0167965D02*
X0099094Y0167965D01*
X0099094Y0173390D02*
X0093968Y0173390D01*
X0099094Y0173390D02*
X0099094Y0170628D01*
X0093968Y0170628D01*
X0093968Y0173390D01*
X0093968Y0171407D02*
X0099094Y0171407D01*
X0099094Y0172186D02*
X0093968Y0172186D01*
X0093968Y0172965D02*
X0099094Y0172965D01*
X0099094Y0178390D02*
X0093968Y0178390D01*
X0099094Y0178390D02*
X0099094Y0175628D01*
X0093968Y0175628D01*
X0093968Y0178390D01*
X0093968Y0176407D02*
X0099094Y0176407D01*
X0099094Y0177186D02*
X0093968Y0177186D01*
X0093968Y0177965D02*
X0099094Y0177965D01*
X0085964Y0109650D02*
X0085964Y0104524D01*
X0083202Y0104524D01*
X0083202Y0109650D01*
X0085964Y0109650D01*
X0085964Y0105303D02*
X0083202Y0105303D01*
X0083202Y0106082D02*
X0085964Y0106082D01*
X0085964Y0106861D02*
X0083202Y0106861D01*
X0083202Y0107640D02*
X0085964Y0107640D01*
X0085964Y0108419D02*
X0083202Y0108419D01*
X0083202Y0109198D02*
X0085964Y0109198D01*
X0080964Y0109650D02*
X0080964Y0104524D01*
X0078202Y0104524D01*
X0078202Y0109650D01*
X0080964Y0109650D01*
X0080964Y0105303D02*
X0078202Y0105303D01*
X0078202Y0106082D02*
X0080964Y0106082D01*
X0080964Y0106861D02*
X0078202Y0106861D01*
X0078202Y0107640D02*
X0080964Y0107640D01*
X0080964Y0108419D02*
X0078202Y0108419D01*
X0078202Y0109198D02*
X0080964Y0109198D01*
X0075964Y0109650D02*
X0075964Y0104524D01*
X0073202Y0104524D01*
X0073202Y0109650D01*
X0075964Y0109650D01*
X0075964Y0105303D02*
X0073202Y0105303D01*
X0073202Y0106082D02*
X0075964Y0106082D01*
X0075964Y0106861D02*
X0073202Y0106861D01*
X0073202Y0107640D02*
X0075964Y0107640D01*
X0075964Y0108419D02*
X0073202Y0108419D01*
X0073202Y0109198D02*
X0075964Y0109198D01*
X0070964Y0109650D02*
X0070964Y0104524D01*
X0068202Y0104524D01*
X0068202Y0109650D01*
X0070964Y0109650D01*
X0070964Y0105303D02*
X0068202Y0105303D01*
X0068202Y0106082D02*
X0070964Y0106082D01*
X0070964Y0106861D02*
X0068202Y0106861D01*
X0068202Y0107640D02*
X0070964Y0107640D01*
X0070964Y0108419D02*
X0068202Y0108419D01*
X0068202Y0109198D02*
X0070964Y0109198D01*
X0065964Y0109650D02*
X0065964Y0104524D01*
X0063202Y0104524D01*
X0063202Y0109650D01*
X0065964Y0109650D01*
X0065964Y0105303D02*
X0063202Y0105303D01*
X0063202Y0106082D02*
X0065964Y0106082D01*
X0065964Y0106861D02*
X0063202Y0106861D01*
X0063202Y0107640D02*
X0065964Y0107640D01*
X0065964Y0108419D02*
X0063202Y0108419D01*
X0063202Y0109198D02*
X0065964Y0109198D01*
X0060964Y0109650D02*
X0060964Y0104524D01*
X0058202Y0104524D01*
X0058202Y0109650D01*
X0060964Y0109650D01*
X0060964Y0105303D02*
X0058202Y0105303D01*
X0058202Y0106082D02*
X0060964Y0106082D01*
X0060964Y0106861D02*
X0058202Y0106861D01*
X0058202Y0107640D02*
X0060964Y0107640D01*
X0060964Y0108419D02*
X0058202Y0108419D01*
X0058202Y0109198D02*
X0060964Y0109198D01*
X0055964Y0109650D02*
X0055964Y0104524D01*
X0053202Y0104524D01*
X0053202Y0109650D01*
X0055964Y0109650D01*
X0055964Y0105303D02*
X0053202Y0105303D01*
X0053202Y0106082D02*
X0055964Y0106082D01*
X0055964Y0106861D02*
X0053202Y0106861D01*
X0053202Y0107640D02*
X0055964Y0107640D01*
X0055964Y0108419D02*
X0053202Y0108419D01*
X0053202Y0109198D02*
X0055964Y0109198D01*
X0050964Y0109650D02*
X0050964Y0104524D01*
X0048202Y0104524D01*
X0048202Y0109650D01*
X0050964Y0109650D01*
X0050964Y0105303D02*
X0048202Y0105303D01*
X0048202Y0106082D02*
X0050964Y0106082D01*
X0050964Y0106861D02*
X0048202Y0106861D01*
X0048202Y0107640D02*
X0050964Y0107640D01*
X0050964Y0108419D02*
X0048202Y0108419D01*
X0048202Y0109198D02*
X0050964Y0109198D01*
X0045964Y0109650D02*
X0045964Y0104524D01*
X0043202Y0104524D01*
X0043202Y0109650D01*
X0045964Y0109650D01*
X0045964Y0105303D02*
X0043202Y0105303D01*
X0043202Y0106082D02*
X0045964Y0106082D01*
X0045964Y0106861D02*
X0043202Y0106861D01*
X0043202Y0107640D02*
X0045964Y0107640D01*
X0045964Y0108419D02*
X0043202Y0108419D01*
X0043202Y0109198D02*
X0045964Y0109198D01*
X0040964Y0109650D02*
X0040964Y0104524D01*
X0038202Y0104524D01*
X0038202Y0109650D01*
X0040964Y0109650D01*
X0040964Y0105303D02*
X0038202Y0105303D01*
X0038202Y0106082D02*
X0040964Y0106082D01*
X0040964Y0106861D02*
X0038202Y0106861D01*
X0038202Y0107640D02*
X0040964Y0107640D01*
X0040964Y0108419D02*
X0038202Y0108419D01*
X0038202Y0109198D02*
X0040964Y0109198D01*
X0035964Y0109650D02*
X0035964Y0104524D01*
X0033202Y0104524D01*
X0033202Y0109650D01*
X0035964Y0109650D01*
X0035964Y0105303D02*
X0033202Y0105303D01*
X0033202Y0106082D02*
X0035964Y0106082D01*
X0035964Y0106861D02*
X0033202Y0106861D01*
X0033202Y0107640D02*
X0035964Y0107640D01*
X0035964Y0108419D02*
X0033202Y0108419D01*
X0033202Y0109198D02*
X0035964Y0109198D01*
X0030197Y0110628D02*
X0025071Y0110628D01*
X0025071Y0113390D01*
X0030197Y0113390D01*
X0030197Y0110628D01*
X0030197Y0111407D02*
X0025071Y0111407D01*
X0025071Y0112186D02*
X0030197Y0112186D01*
X0030197Y0112965D02*
X0025071Y0112965D01*
X0025071Y0115628D02*
X0030197Y0115628D01*
X0025071Y0115628D02*
X0025071Y0118390D01*
X0030197Y0118390D01*
X0030197Y0115628D01*
X0030197Y0116407D02*
X0025071Y0116407D01*
X0025071Y0117186D02*
X0030197Y0117186D01*
X0030197Y0117965D02*
X0025071Y0117965D01*
X0025071Y0120628D02*
X0030197Y0120628D01*
X0025071Y0120628D02*
X0025071Y0123390D01*
X0030197Y0123390D01*
X0030197Y0120628D01*
X0030197Y0121407D02*
X0025071Y0121407D01*
X0025071Y0122186D02*
X0030197Y0122186D01*
X0030197Y0122965D02*
X0025071Y0122965D01*
X0025071Y0125628D02*
X0030197Y0125628D01*
X0025071Y0125628D02*
X0025071Y0128390D01*
X0030197Y0128390D01*
X0030197Y0125628D01*
X0030197Y0126407D02*
X0025071Y0126407D01*
X0025071Y0127186D02*
X0030197Y0127186D01*
X0030197Y0127965D02*
X0025071Y0127965D01*
X0025071Y0130628D02*
X0030197Y0130628D01*
X0025071Y0130628D02*
X0025071Y0133390D01*
X0030197Y0133390D01*
X0030197Y0130628D01*
X0030197Y0131407D02*
X0025071Y0131407D01*
X0025071Y0132186D02*
X0030197Y0132186D01*
X0030197Y0132965D02*
X0025071Y0132965D01*
X0025071Y0135628D02*
X0030197Y0135628D01*
X0025071Y0135628D02*
X0025071Y0138390D01*
X0030197Y0138390D01*
X0030197Y0135628D01*
X0030197Y0136407D02*
X0025071Y0136407D01*
X0025071Y0137186D02*
X0030197Y0137186D01*
X0030197Y0137965D02*
X0025071Y0137965D01*
X0025071Y0140628D02*
X0030197Y0140628D01*
X0025071Y0140628D02*
X0025071Y0143390D01*
X0030197Y0143390D01*
X0030197Y0140628D01*
X0030197Y0141407D02*
X0025071Y0141407D01*
X0025071Y0142186D02*
X0030197Y0142186D01*
X0030197Y0142965D02*
X0025071Y0142965D01*
X0025071Y0145628D02*
X0030197Y0145628D01*
X0025071Y0145628D02*
X0025071Y0148390D01*
X0030197Y0148390D01*
X0030197Y0145628D01*
X0030197Y0146407D02*
X0025071Y0146407D01*
X0025071Y0147186D02*
X0030197Y0147186D01*
X0030197Y0147965D02*
X0025071Y0147965D01*
X0025071Y0150628D02*
X0030197Y0150628D01*
X0025071Y0150628D02*
X0025071Y0153390D01*
X0030197Y0153390D01*
X0030197Y0150628D01*
X0030197Y0151407D02*
X0025071Y0151407D01*
X0025071Y0152186D02*
X0030197Y0152186D01*
X0030197Y0152965D02*
X0025071Y0152965D01*
X0025071Y0155628D02*
X0030197Y0155628D01*
X0025071Y0155628D02*
X0025071Y0158390D01*
X0030197Y0158390D01*
X0030197Y0155628D01*
X0030197Y0156407D02*
X0025071Y0156407D01*
X0025071Y0157186D02*
X0030197Y0157186D01*
X0030197Y0157965D02*
X0025071Y0157965D01*
X0025071Y0160628D02*
X0030197Y0160628D01*
X0025071Y0160628D02*
X0025071Y0163390D01*
X0030197Y0163390D01*
X0030197Y0160628D01*
X0030197Y0161407D02*
X0025071Y0161407D01*
X0025071Y0162186D02*
X0030197Y0162186D01*
X0030197Y0162965D02*
X0025071Y0162965D01*
X0025071Y0165628D02*
X0030197Y0165628D01*
X0025071Y0165628D02*
X0025071Y0168390D01*
X0030197Y0168390D01*
X0030197Y0165628D01*
X0030197Y0166407D02*
X0025071Y0166407D01*
X0025071Y0167186D02*
X0030197Y0167186D01*
X0030197Y0167965D02*
X0025071Y0167965D01*
X0025071Y0170628D02*
X0030197Y0170628D01*
X0025071Y0170628D02*
X0025071Y0173390D01*
X0030197Y0173390D01*
X0030197Y0170628D01*
X0030197Y0171407D02*
X0025071Y0171407D01*
X0025071Y0172186D02*
X0030197Y0172186D01*
X0030197Y0172965D02*
X0025071Y0172965D01*
X0025071Y0175628D02*
X0030197Y0175628D01*
X0025071Y0175628D02*
X0025071Y0178390D01*
X0030197Y0178390D01*
X0030197Y0175628D01*
X0030197Y0176407D02*
X0025071Y0176407D01*
X0025071Y0177186D02*
X0030197Y0177186D01*
X0030197Y0177965D02*
X0025071Y0177965D01*
D24*
X0050665Y0152127D03*
X0050665Y0146615D03*
X0050665Y0141103D03*
X0056177Y0141103D03*
X0056177Y0146615D03*
X0056177Y0152127D03*
X0061689Y0152127D03*
X0061689Y0146615D03*
X0061689Y0141103D03*
D25*
X0059681Y0064952D03*
X0059681Y0060148D03*
X0064484Y0060148D03*
X0064484Y0064952D03*
D26*
X0063520Y0070169D02*
X0063520Y0073829D01*
X0064582Y0073829D01*
X0064582Y0070169D01*
X0063520Y0070169D01*
X0063520Y0070248D02*
X0064582Y0070248D01*
X0064582Y0070327D02*
X0063520Y0070327D01*
X0063520Y0070406D02*
X0064582Y0070406D01*
X0064582Y0070485D02*
X0063520Y0070485D01*
X0063520Y0070564D02*
X0064582Y0070564D01*
X0064582Y0070643D02*
X0063520Y0070643D01*
X0063520Y0070722D02*
X0064582Y0070722D01*
X0064582Y0070801D02*
X0063520Y0070801D01*
X0063520Y0070880D02*
X0064582Y0070880D01*
X0064582Y0070959D02*
X0063520Y0070959D01*
X0063520Y0071038D02*
X0064582Y0071038D01*
X0064582Y0071117D02*
X0063520Y0071117D01*
X0063520Y0071196D02*
X0064582Y0071196D01*
X0064582Y0071275D02*
X0063520Y0071275D01*
X0063520Y0071354D02*
X0064582Y0071354D01*
X0064582Y0071433D02*
X0063520Y0071433D01*
X0063520Y0071512D02*
X0064582Y0071512D01*
X0064582Y0071591D02*
X0063520Y0071591D01*
X0063520Y0071670D02*
X0064582Y0071670D01*
X0064582Y0071749D02*
X0063520Y0071749D01*
X0063520Y0071828D02*
X0064582Y0071828D01*
X0064582Y0071907D02*
X0063520Y0071907D01*
X0063520Y0071986D02*
X0064582Y0071986D01*
X0064582Y0072065D02*
X0063520Y0072065D01*
X0063520Y0072144D02*
X0064582Y0072144D01*
X0064582Y0072223D02*
X0063520Y0072223D01*
X0063520Y0072302D02*
X0064582Y0072302D01*
X0064582Y0072381D02*
X0063520Y0072381D01*
X0063520Y0072460D02*
X0064582Y0072460D01*
X0064582Y0072539D02*
X0063520Y0072539D01*
X0063520Y0072618D02*
X0064582Y0072618D01*
X0064582Y0072697D02*
X0063520Y0072697D01*
X0063520Y0072776D02*
X0064582Y0072776D01*
X0064582Y0072855D02*
X0063520Y0072855D01*
X0063520Y0072934D02*
X0064582Y0072934D01*
X0064582Y0073013D02*
X0063520Y0073013D01*
X0063520Y0073092D02*
X0064582Y0073092D01*
X0064582Y0073171D02*
X0063520Y0073171D01*
X0063520Y0073250D02*
X0064582Y0073250D01*
X0064582Y0073329D02*
X0063520Y0073329D01*
X0063520Y0073408D02*
X0064582Y0073408D01*
X0064582Y0073487D02*
X0063520Y0073487D01*
X0063520Y0073566D02*
X0064582Y0073566D01*
X0064582Y0073645D02*
X0063520Y0073645D01*
X0063520Y0073724D02*
X0064582Y0073724D01*
X0064582Y0073803D02*
X0063520Y0073803D01*
X0061552Y0073829D02*
X0061552Y0070169D01*
X0061552Y0073829D02*
X0062614Y0073829D01*
X0062614Y0070169D01*
X0061552Y0070169D01*
X0061552Y0070248D02*
X0062614Y0070248D01*
X0062614Y0070327D02*
X0061552Y0070327D01*
X0061552Y0070406D02*
X0062614Y0070406D01*
X0062614Y0070485D02*
X0061552Y0070485D01*
X0061552Y0070564D02*
X0062614Y0070564D01*
X0062614Y0070643D02*
X0061552Y0070643D01*
X0061552Y0070722D02*
X0062614Y0070722D01*
X0062614Y0070801D02*
X0061552Y0070801D01*
X0061552Y0070880D02*
X0062614Y0070880D01*
X0062614Y0070959D02*
X0061552Y0070959D01*
X0061552Y0071038D02*
X0062614Y0071038D01*
X0062614Y0071117D02*
X0061552Y0071117D01*
X0061552Y0071196D02*
X0062614Y0071196D01*
X0062614Y0071275D02*
X0061552Y0071275D01*
X0061552Y0071354D02*
X0062614Y0071354D01*
X0062614Y0071433D02*
X0061552Y0071433D01*
X0061552Y0071512D02*
X0062614Y0071512D01*
X0062614Y0071591D02*
X0061552Y0071591D01*
X0061552Y0071670D02*
X0062614Y0071670D01*
X0062614Y0071749D02*
X0061552Y0071749D01*
X0061552Y0071828D02*
X0062614Y0071828D01*
X0062614Y0071907D02*
X0061552Y0071907D01*
X0061552Y0071986D02*
X0062614Y0071986D01*
X0062614Y0072065D02*
X0061552Y0072065D01*
X0061552Y0072144D02*
X0062614Y0072144D01*
X0062614Y0072223D02*
X0061552Y0072223D01*
X0061552Y0072302D02*
X0062614Y0072302D01*
X0062614Y0072381D02*
X0061552Y0072381D01*
X0061552Y0072460D02*
X0062614Y0072460D01*
X0062614Y0072539D02*
X0061552Y0072539D01*
X0061552Y0072618D02*
X0062614Y0072618D01*
X0062614Y0072697D02*
X0061552Y0072697D01*
X0061552Y0072776D02*
X0062614Y0072776D01*
X0062614Y0072855D02*
X0061552Y0072855D01*
X0061552Y0072934D02*
X0062614Y0072934D01*
X0062614Y0073013D02*
X0061552Y0073013D01*
X0061552Y0073092D02*
X0062614Y0073092D01*
X0062614Y0073171D02*
X0061552Y0073171D01*
X0061552Y0073250D02*
X0062614Y0073250D01*
X0062614Y0073329D02*
X0061552Y0073329D01*
X0061552Y0073408D02*
X0062614Y0073408D01*
X0062614Y0073487D02*
X0061552Y0073487D01*
X0061552Y0073566D02*
X0062614Y0073566D01*
X0062614Y0073645D02*
X0061552Y0073645D01*
X0061552Y0073724D02*
X0062614Y0073724D01*
X0062614Y0073803D02*
X0061552Y0073803D01*
X0059583Y0073829D02*
X0059583Y0070169D01*
X0059583Y0073829D02*
X0060645Y0073829D01*
X0060645Y0070169D01*
X0059583Y0070169D01*
X0059583Y0070248D02*
X0060645Y0070248D01*
X0060645Y0070327D02*
X0059583Y0070327D01*
X0059583Y0070406D02*
X0060645Y0070406D01*
X0060645Y0070485D02*
X0059583Y0070485D01*
X0059583Y0070564D02*
X0060645Y0070564D01*
X0060645Y0070643D02*
X0059583Y0070643D01*
X0059583Y0070722D02*
X0060645Y0070722D01*
X0060645Y0070801D02*
X0059583Y0070801D01*
X0059583Y0070880D02*
X0060645Y0070880D01*
X0060645Y0070959D02*
X0059583Y0070959D01*
X0059583Y0071038D02*
X0060645Y0071038D01*
X0060645Y0071117D02*
X0059583Y0071117D01*
X0059583Y0071196D02*
X0060645Y0071196D01*
X0060645Y0071275D02*
X0059583Y0071275D01*
X0059583Y0071354D02*
X0060645Y0071354D01*
X0060645Y0071433D02*
X0059583Y0071433D01*
X0059583Y0071512D02*
X0060645Y0071512D01*
X0060645Y0071591D02*
X0059583Y0071591D01*
X0059583Y0071670D02*
X0060645Y0071670D01*
X0060645Y0071749D02*
X0059583Y0071749D01*
X0059583Y0071828D02*
X0060645Y0071828D01*
X0060645Y0071907D02*
X0059583Y0071907D01*
X0059583Y0071986D02*
X0060645Y0071986D01*
X0060645Y0072065D02*
X0059583Y0072065D01*
X0059583Y0072144D02*
X0060645Y0072144D01*
X0060645Y0072223D02*
X0059583Y0072223D01*
X0059583Y0072302D02*
X0060645Y0072302D01*
X0060645Y0072381D02*
X0059583Y0072381D01*
X0059583Y0072460D02*
X0060645Y0072460D01*
X0060645Y0072539D02*
X0059583Y0072539D01*
X0059583Y0072618D02*
X0060645Y0072618D01*
X0060645Y0072697D02*
X0059583Y0072697D01*
X0059583Y0072776D02*
X0060645Y0072776D01*
X0060645Y0072855D02*
X0059583Y0072855D01*
X0059583Y0072934D02*
X0060645Y0072934D01*
X0060645Y0073013D02*
X0059583Y0073013D01*
X0059583Y0073092D02*
X0060645Y0073092D01*
X0060645Y0073171D02*
X0059583Y0073171D01*
X0059583Y0073250D02*
X0060645Y0073250D01*
X0060645Y0073329D02*
X0059583Y0073329D01*
X0059583Y0073408D02*
X0060645Y0073408D01*
X0060645Y0073487D02*
X0059583Y0073487D01*
X0059583Y0073566D02*
X0060645Y0073566D01*
X0060645Y0073645D02*
X0059583Y0073645D01*
X0059583Y0073724D02*
X0060645Y0073724D01*
X0060645Y0073803D02*
X0059583Y0073803D01*
X0057615Y0073829D02*
X0057615Y0070169D01*
X0057615Y0073829D02*
X0058677Y0073829D01*
X0058677Y0070169D01*
X0057615Y0070169D01*
X0057615Y0070248D02*
X0058677Y0070248D01*
X0058677Y0070327D02*
X0057615Y0070327D01*
X0057615Y0070406D02*
X0058677Y0070406D01*
X0058677Y0070485D02*
X0057615Y0070485D01*
X0057615Y0070564D02*
X0058677Y0070564D01*
X0058677Y0070643D02*
X0057615Y0070643D01*
X0057615Y0070722D02*
X0058677Y0070722D01*
X0058677Y0070801D02*
X0057615Y0070801D01*
X0057615Y0070880D02*
X0058677Y0070880D01*
X0058677Y0070959D02*
X0057615Y0070959D01*
X0057615Y0071038D02*
X0058677Y0071038D01*
X0058677Y0071117D02*
X0057615Y0071117D01*
X0057615Y0071196D02*
X0058677Y0071196D01*
X0058677Y0071275D02*
X0057615Y0071275D01*
X0057615Y0071354D02*
X0058677Y0071354D01*
X0058677Y0071433D02*
X0057615Y0071433D01*
X0057615Y0071512D02*
X0058677Y0071512D01*
X0058677Y0071591D02*
X0057615Y0071591D01*
X0057615Y0071670D02*
X0058677Y0071670D01*
X0058677Y0071749D02*
X0057615Y0071749D01*
X0057615Y0071828D02*
X0058677Y0071828D01*
X0058677Y0071907D02*
X0057615Y0071907D01*
X0057615Y0071986D02*
X0058677Y0071986D01*
X0058677Y0072065D02*
X0057615Y0072065D01*
X0057615Y0072144D02*
X0058677Y0072144D01*
X0058677Y0072223D02*
X0057615Y0072223D01*
X0057615Y0072302D02*
X0058677Y0072302D01*
X0058677Y0072381D02*
X0057615Y0072381D01*
X0057615Y0072460D02*
X0058677Y0072460D01*
X0058677Y0072539D02*
X0057615Y0072539D01*
X0057615Y0072618D02*
X0058677Y0072618D01*
X0058677Y0072697D02*
X0057615Y0072697D01*
X0057615Y0072776D02*
X0058677Y0072776D01*
X0058677Y0072855D02*
X0057615Y0072855D01*
X0057615Y0072934D02*
X0058677Y0072934D01*
X0058677Y0073013D02*
X0057615Y0073013D01*
X0057615Y0073092D02*
X0058677Y0073092D01*
X0058677Y0073171D02*
X0057615Y0073171D01*
X0057615Y0073250D02*
X0058677Y0073250D01*
X0058677Y0073329D02*
X0057615Y0073329D01*
X0057615Y0073408D02*
X0058677Y0073408D01*
X0058677Y0073487D02*
X0057615Y0073487D01*
X0057615Y0073566D02*
X0058677Y0073566D01*
X0058677Y0073645D02*
X0057615Y0073645D01*
X0057615Y0073724D02*
X0058677Y0073724D01*
X0058677Y0073803D02*
X0057615Y0073803D01*
X0055646Y0073829D02*
X0055646Y0070169D01*
X0055646Y0073829D02*
X0056708Y0073829D01*
X0056708Y0070169D01*
X0055646Y0070169D01*
X0055646Y0070248D02*
X0056708Y0070248D01*
X0056708Y0070327D02*
X0055646Y0070327D01*
X0055646Y0070406D02*
X0056708Y0070406D01*
X0056708Y0070485D02*
X0055646Y0070485D01*
X0055646Y0070564D02*
X0056708Y0070564D01*
X0056708Y0070643D02*
X0055646Y0070643D01*
X0055646Y0070722D02*
X0056708Y0070722D01*
X0056708Y0070801D02*
X0055646Y0070801D01*
X0055646Y0070880D02*
X0056708Y0070880D01*
X0056708Y0070959D02*
X0055646Y0070959D01*
X0055646Y0071038D02*
X0056708Y0071038D01*
X0056708Y0071117D02*
X0055646Y0071117D01*
X0055646Y0071196D02*
X0056708Y0071196D01*
X0056708Y0071275D02*
X0055646Y0071275D01*
X0055646Y0071354D02*
X0056708Y0071354D01*
X0056708Y0071433D02*
X0055646Y0071433D01*
X0055646Y0071512D02*
X0056708Y0071512D01*
X0056708Y0071591D02*
X0055646Y0071591D01*
X0055646Y0071670D02*
X0056708Y0071670D01*
X0056708Y0071749D02*
X0055646Y0071749D01*
X0055646Y0071828D02*
X0056708Y0071828D01*
X0056708Y0071907D02*
X0055646Y0071907D01*
X0055646Y0071986D02*
X0056708Y0071986D01*
X0056708Y0072065D02*
X0055646Y0072065D01*
X0055646Y0072144D02*
X0056708Y0072144D01*
X0056708Y0072223D02*
X0055646Y0072223D01*
X0055646Y0072302D02*
X0056708Y0072302D01*
X0056708Y0072381D02*
X0055646Y0072381D01*
X0055646Y0072460D02*
X0056708Y0072460D01*
X0056708Y0072539D02*
X0055646Y0072539D01*
X0055646Y0072618D02*
X0056708Y0072618D01*
X0056708Y0072697D02*
X0055646Y0072697D01*
X0055646Y0072776D02*
X0056708Y0072776D01*
X0056708Y0072855D02*
X0055646Y0072855D01*
X0055646Y0072934D02*
X0056708Y0072934D01*
X0056708Y0073013D02*
X0055646Y0073013D01*
X0055646Y0073092D02*
X0056708Y0073092D01*
X0056708Y0073171D02*
X0055646Y0073171D01*
X0055646Y0073250D02*
X0056708Y0073250D01*
X0056708Y0073329D02*
X0055646Y0073329D01*
X0055646Y0073408D02*
X0056708Y0073408D01*
X0056708Y0073487D02*
X0055646Y0073487D01*
X0055646Y0073566D02*
X0056708Y0073566D01*
X0056708Y0073645D02*
X0055646Y0073645D01*
X0055646Y0073724D02*
X0056708Y0073724D01*
X0056708Y0073803D02*
X0055646Y0073803D01*
X0054464Y0067925D02*
X0050804Y0067925D01*
X0050804Y0068987D01*
X0054464Y0068987D01*
X0054464Y0067925D01*
X0054464Y0068004D02*
X0050804Y0068004D01*
X0050804Y0068083D02*
X0054464Y0068083D01*
X0054464Y0068162D02*
X0050804Y0068162D01*
X0050804Y0068241D02*
X0054464Y0068241D01*
X0054464Y0068320D02*
X0050804Y0068320D01*
X0050804Y0068399D02*
X0054464Y0068399D01*
X0054464Y0068478D02*
X0050804Y0068478D01*
X0050804Y0068557D02*
X0054464Y0068557D01*
X0054464Y0068636D02*
X0050804Y0068636D01*
X0050804Y0068715D02*
X0054464Y0068715D01*
X0054464Y0068794D02*
X0050804Y0068794D01*
X0050804Y0068873D02*
X0054464Y0068873D01*
X0054464Y0068952D02*
X0050804Y0068952D01*
X0050804Y0065956D02*
X0054464Y0065956D01*
X0050804Y0065956D02*
X0050804Y0067018D01*
X0054464Y0067018D01*
X0054464Y0065956D01*
X0054464Y0066035D02*
X0050804Y0066035D01*
X0050804Y0066114D02*
X0054464Y0066114D01*
X0054464Y0066193D02*
X0050804Y0066193D01*
X0050804Y0066272D02*
X0054464Y0066272D01*
X0054464Y0066351D02*
X0050804Y0066351D01*
X0050804Y0066430D02*
X0054464Y0066430D01*
X0054464Y0066509D02*
X0050804Y0066509D01*
X0050804Y0066588D02*
X0054464Y0066588D01*
X0054464Y0066667D02*
X0050804Y0066667D01*
X0050804Y0066746D02*
X0054464Y0066746D01*
X0054464Y0066825D02*
X0050804Y0066825D01*
X0050804Y0066904D02*
X0054464Y0066904D01*
X0054464Y0066983D02*
X0050804Y0066983D01*
X0050804Y0063988D02*
X0054464Y0063988D01*
X0050804Y0063988D02*
X0050804Y0065050D01*
X0054464Y0065050D01*
X0054464Y0063988D01*
X0054464Y0064067D02*
X0050804Y0064067D01*
X0050804Y0064146D02*
X0054464Y0064146D01*
X0054464Y0064225D02*
X0050804Y0064225D01*
X0050804Y0064304D02*
X0054464Y0064304D01*
X0054464Y0064383D02*
X0050804Y0064383D01*
X0050804Y0064462D02*
X0054464Y0064462D01*
X0054464Y0064541D02*
X0050804Y0064541D01*
X0050804Y0064620D02*
X0054464Y0064620D01*
X0054464Y0064699D02*
X0050804Y0064699D01*
X0050804Y0064778D02*
X0054464Y0064778D01*
X0054464Y0064857D02*
X0050804Y0064857D01*
X0050804Y0064936D02*
X0054464Y0064936D01*
X0054464Y0065015D02*
X0050804Y0065015D01*
X0050804Y0062019D02*
X0054464Y0062019D01*
X0050804Y0062019D02*
X0050804Y0063081D01*
X0054464Y0063081D01*
X0054464Y0062019D01*
X0054464Y0062098D02*
X0050804Y0062098D01*
X0050804Y0062177D02*
X0054464Y0062177D01*
X0054464Y0062256D02*
X0050804Y0062256D01*
X0050804Y0062335D02*
X0054464Y0062335D01*
X0054464Y0062414D02*
X0050804Y0062414D01*
X0050804Y0062493D02*
X0054464Y0062493D01*
X0054464Y0062572D02*
X0050804Y0062572D01*
X0050804Y0062651D02*
X0054464Y0062651D01*
X0054464Y0062730D02*
X0050804Y0062730D01*
X0050804Y0062809D02*
X0054464Y0062809D01*
X0054464Y0062888D02*
X0050804Y0062888D01*
X0050804Y0062967D02*
X0054464Y0062967D01*
X0054464Y0063046D02*
X0050804Y0063046D01*
X0050804Y0060050D02*
X0054464Y0060050D01*
X0050804Y0060050D02*
X0050804Y0061112D01*
X0054464Y0061112D01*
X0054464Y0060050D01*
X0054464Y0060129D02*
X0050804Y0060129D01*
X0050804Y0060208D02*
X0054464Y0060208D01*
X0054464Y0060287D02*
X0050804Y0060287D01*
X0050804Y0060366D02*
X0054464Y0060366D01*
X0054464Y0060445D02*
X0050804Y0060445D01*
X0050804Y0060524D02*
X0054464Y0060524D01*
X0054464Y0060603D02*
X0050804Y0060603D01*
X0050804Y0060682D02*
X0054464Y0060682D01*
X0054464Y0060761D02*
X0050804Y0060761D01*
X0050804Y0060840D02*
X0054464Y0060840D01*
X0054464Y0060919D02*
X0050804Y0060919D01*
X0050804Y0060998D02*
X0054464Y0060998D01*
X0054464Y0061077D02*
X0050804Y0061077D01*
X0050804Y0058082D02*
X0054464Y0058082D01*
X0050804Y0058082D02*
X0050804Y0059144D01*
X0054464Y0059144D01*
X0054464Y0058082D01*
X0054464Y0058161D02*
X0050804Y0058161D01*
X0050804Y0058240D02*
X0054464Y0058240D01*
X0054464Y0058319D02*
X0050804Y0058319D01*
X0050804Y0058398D02*
X0054464Y0058398D01*
X0054464Y0058477D02*
X0050804Y0058477D01*
X0050804Y0058556D02*
X0054464Y0058556D01*
X0054464Y0058635D02*
X0050804Y0058635D01*
X0050804Y0058714D02*
X0054464Y0058714D01*
X0054464Y0058793D02*
X0050804Y0058793D01*
X0050804Y0058872D02*
X0054464Y0058872D01*
X0054464Y0058951D02*
X0050804Y0058951D01*
X0050804Y0059030D02*
X0054464Y0059030D01*
X0054464Y0059109D02*
X0050804Y0059109D01*
X0050804Y0056113D02*
X0054464Y0056113D01*
X0050804Y0056113D02*
X0050804Y0057175D01*
X0054464Y0057175D01*
X0054464Y0056113D01*
X0054464Y0056192D02*
X0050804Y0056192D01*
X0050804Y0056271D02*
X0054464Y0056271D01*
X0054464Y0056350D02*
X0050804Y0056350D01*
X0050804Y0056429D02*
X0054464Y0056429D01*
X0054464Y0056508D02*
X0050804Y0056508D01*
X0050804Y0056587D02*
X0054464Y0056587D01*
X0054464Y0056666D02*
X0050804Y0056666D01*
X0050804Y0056745D02*
X0054464Y0056745D01*
X0054464Y0056824D02*
X0050804Y0056824D01*
X0050804Y0056903D02*
X0054464Y0056903D01*
X0054464Y0056982D02*
X0050804Y0056982D01*
X0050804Y0057061D02*
X0054464Y0057061D01*
X0054464Y0057140D02*
X0050804Y0057140D01*
X0056708Y0054931D02*
X0056708Y0051271D01*
X0055646Y0051271D01*
X0055646Y0054931D01*
X0056708Y0054931D01*
X0056708Y0051350D02*
X0055646Y0051350D01*
X0055646Y0051429D02*
X0056708Y0051429D01*
X0056708Y0051508D02*
X0055646Y0051508D01*
X0055646Y0051587D02*
X0056708Y0051587D01*
X0056708Y0051666D02*
X0055646Y0051666D01*
X0055646Y0051745D02*
X0056708Y0051745D01*
X0056708Y0051824D02*
X0055646Y0051824D01*
X0055646Y0051903D02*
X0056708Y0051903D01*
X0056708Y0051982D02*
X0055646Y0051982D01*
X0055646Y0052061D02*
X0056708Y0052061D01*
X0056708Y0052140D02*
X0055646Y0052140D01*
X0055646Y0052219D02*
X0056708Y0052219D01*
X0056708Y0052298D02*
X0055646Y0052298D01*
X0055646Y0052377D02*
X0056708Y0052377D01*
X0056708Y0052456D02*
X0055646Y0052456D01*
X0055646Y0052535D02*
X0056708Y0052535D01*
X0056708Y0052614D02*
X0055646Y0052614D01*
X0055646Y0052693D02*
X0056708Y0052693D01*
X0056708Y0052772D02*
X0055646Y0052772D01*
X0055646Y0052851D02*
X0056708Y0052851D01*
X0056708Y0052930D02*
X0055646Y0052930D01*
X0055646Y0053009D02*
X0056708Y0053009D01*
X0056708Y0053088D02*
X0055646Y0053088D01*
X0055646Y0053167D02*
X0056708Y0053167D01*
X0056708Y0053246D02*
X0055646Y0053246D01*
X0055646Y0053325D02*
X0056708Y0053325D01*
X0056708Y0053404D02*
X0055646Y0053404D01*
X0055646Y0053483D02*
X0056708Y0053483D01*
X0056708Y0053562D02*
X0055646Y0053562D01*
X0055646Y0053641D02*
X0056708Y0053641D01*
X0056708Y0053720D02*
X0055646Y0053720D01*
X0055646Y0053799D02*
X0056708Y0053799D01*
X0056708Y0053878D02*
X0055646Y0053878D01*
X0055646Y0053957D02*
X0056708Y0053957D01*
X0056708Y0054036D02*
X0055646Y0054036D01*
X0055646Y0054115D02*
X0056708Y0054115D01*
X0056708Y0054194D02*
X0055646Y0054194D01*
X0055646Y0054273D02*
X0056708Y0054273D01*
X0056708Y0054352D02*
X0055646Y0054352D01*
X0055646Y0054431D02*
X0056708Y0054431D01*
X0056708Y0054510D02*
X0055646Y0054510D01*
X0055646Y0054589D02*
X0056708Y0054589D01*
X0056708Y0054668D02*
X0055646Y0054668D01*
X0055646Y0054747D02*
X0056708Y0054747D01*
X0056708Y0054826D02*
X0055646Y0054826D01*
X0055646Y0054905D02*
X0056708Y0054905D01*
X0058677Y0054931D02*
X0058677Y0051271D01*
X0057615Y0051271D01*
X0057615Y0054931D01*
X0058677Y0054931D01*
X0058677Y0051350D02*
X0057615Y0051350D01*
X0057615Y0051429D02*
X0058677Y0051429D01*
X0058677Y0051508D02*
X0057615Y0051508D01*
X0057615Y0051587D02*
X0058677Y0051587D01*
X0058677Y0051666D02*
X0057615Y0051666D01*
X0057615Y0051745D02*
X0058677Y0051745D01*
X0058677Y0051824D02*
X0057615Y0051824D01*
X0057615Y0051903D02*
X0058677Y0051903D01*
X0058677Y0051982D02*
X0057615Y0051982D01*
X0057615Y0052061D02*
X0058677Y0052061D01*
X0058677Y0052140D02*
X0057615Y0052140D01*
X0057615Y0052219D02*
X0058677Y0052219D01*
X0058677Y0052298D02*
X0057615Y0052298D01*
X0057615Y0052377D02*
X0058677Y0052377D01*
X0058677Y0052456D02*
X0057615Y0052456D01*
X0057615Y0052535D02*
X0058677Y0052535D01*
X0058677Y0052614D02*
X0057615Y0052614D01*
X0057615Y0052693D02*
X0058677Y0052693D01*
X0058677Y0052772D02*
X0057615Y0052772D01*
X0057615Y0052851D02*
X0058677Y0052851D01*
X0058677Y0052930D02*
X0057615Y0052930D01*
X0057615Y0053009D02*
X0058677Y0053009D01*
X0058677Y0053088D02*
X0057615Y0053088D01*
X0057615Y0053167D02*
X0058677Y0053167D01*
X0058677Y0053246D02*
X0057615Y0053246D01*
X0057615Y0053325D02*
X0058677Y0053325D01*
X0058677Y0053404D02*
X0057615Y0053404D01*
X0057615Y0053483D02*
X0058677Y0053483D01*
X0058677Y0053562D02*
X0057615Y0053562D01*
X0057615Y0053641D02*
X0058677Y0053641D01*
X0058677Y0053720D02*
X0057615Y0053720D01*
X0057615Y0053799D02*
X0058677Y0053799D01*
X0058677Y0053878D02*
X0057615Y0053878D01*
X0057615Y0053957D02*
X0058677Y0053957D01*
X0058677Y0054036D02*
X0057615Y0054036D01*
X0057615Y0054115D02*
X0058677Y0054115D01*
X0058677Y0054194D02*
X0057615Y0054194D01*
X0057615Y0054273D02*
X0058677Y0054273D01*
X0058677Y0054352D02*
X0057615Y0054352D01*
X0057615Y0054431D02*
X0058677Y0054431D01*
X0058677Y0054510D02*
X0057615Y0054510D01*
X0057615Y0054589D02*
X0058677Y0054589D01*
X0058677Y0054668D02*
X0057615Y0054668D01*
X0057615Y0054747D02*
X0058677Y0054747D01*
X0058677Y0054826D02*
X0057615Y0054826D01*
X0057615Y0054905D02*
X0058677Y0054905D01*
X0060645Y0054931D02*
X0060645Y0051271D01*
X0059583Y0051271D01*
X0059583Y0054931D01*
X0060645Y0054931D01*
X0060645Y0051350D02*
X0059583Y0051350D01*
X0059583Y0051429D02*
X0060645Y0051429D01*
X0060645Y0051508D02*
X0059583Y0051508D01*
X0059583Y0051587D02*
X0060645Y0051587D01*
X0060645Y0051666D02*
X0059583Y0051666D01*
X0059583Y0051745D02*
X0060645Y0051745D01*
X0060645Y0051824D02*
X0059583Y0051824D01*
X0059583Y0051903D02*
X0060645Y0051903D01*
X0060645Y0051982D02*
X0059583Y0051982D01*
X0059583Y0052061D02*
X0060645Y0052061D01*
X0060645Y0052140D02*
X0059583Y0052140D01*
X0059583Y0052219D02*
X0060645Y0052219D01*
X0060645Y0052298D02*
X0059583Y0052298D01*
X0059583Y0052377D02*
X0060645Y0052377D01*
X0060645Y0052456D02*
X0059583Y0052456D01*
X0059583Y0052535D02*
X0060645Y0052535D01*
X0060645Y0052614D02*
X0059583Y0052614D01*
X0059583Y0052693D02*
X0060645Y0052693D01*
X0060645Y0052772D02*
X0059583Y0052772D01*
X0059583Y0052851D02*
X0060645Y0052851D01*
X0060645Y0052930D02*
X0059583Y0052930D01*
X0059583Y0053009D02*
X0060645Y0053009D01*
X0060645Y0053088D02*
X0059583Y0053088D01*
X0059583Y0053167D02*
X0060645Y0053167D01*
X0060645Y0053246D02*
X0059583Y0053246D01*
X0059583Y0053325D02*
X0060645Y0053325D01*
X0060645Y0053404D02*
X0059583Y0053404D01*
X0059583Y0053483D02*
X0060645Y0053483D01*
X0060645Y0053562D02*
X0059583Y0053562D01*
X0059583Y0053641D02*
X0060645Y0053641D01*
X0060645Y0053720D02*
X0059583Y0053720D01*
X0059583Y0053799D02*
X0060645Y0053799D01*
X0060645Y0053878D02*
X0059583Y0053878D01*
X0059583Y0053957D02*
X0060645Y0053957D01*
X0060645Y0054036D02*
X0059583Y0054036D01*
X0059583Y0054115D02*
X0060645Y0054115D01*
X0060645Y0054194D02*
X0059583Y0054194D01*
X0059583Y0054273D02*
X0060645Y0054273D01*
X0060645Y0054352D02*
X0059583Y0054352D01*
X0059583Y0054431D02*
X0060645Y0054431D01*
X0060645Y0054510D02*
X0059583Y0054510D01*
X0059583Y0054589D02*
X0060645Y0054589D01*
X0060645Y0054668D02*
X0059583Y0054668D01*
X0059583Y0054747D02*
X0060645Y0054747D01*
X0060645Y0054826D02*
X0059583Y0054826D01*
X0059583Y0054905D02*
X0060645Y0054905D01*
X0062614Y0054931D02*
X0062614Y0051271D01*
X0061552Y0051271D01*
X0061552Y0054931D01*
X0062614Y0054931D01*
X0062614Y0051350D02*
X0061552Y0051350D01*
X0061552Y0051429D02*
X0062614Y0051429D01*
X0062614Y0051508D02*
X0061552Y0051508D01*
X0061552Y0051587D02*
X0062614Y0051587D01*
X0062614Y0051666D02*
X0061552Y0051666D01*
X0061552Y0051745D02*
X0062614Y0051745D01*
X0062614Y0051824D02*
X0061552Y0051824D01*
X0061552Y0051903D02*
X0062614Y0051903D01*
X0062614Y0051982D02*
X0061552Y0051982D01*
X0061552Y0052061D02*
X0062614Y0052061D01*
X0062614Y0052140D02*
X0061552Y0052140D01*
X0061552Y0052219D02*
X0062614Y0052219D01*
X0062614Y0052298D02*
X0061552Y0052298D01*
X0061552Y0052377D02*
X0062614Y0052377D01*
X0062614Y0052456D02*
X0061552Y0052456D01*
X0061552Y0052535D02*
X0062614Y0052535D01*
X0062614Y0052614D02*
X0061552Y0052614D01*
X0061552Y0052693D02*
X0062614Y0052693D01*
X0062614Y0052772D02*
X0061552Y0052772D01*
X0061552Y0052851D02*
X0062614Y0052851D01*
X0062614Y0052930D02*
X0061552Y0052930D01*
X0061552Y0053009D02*
X0062614Y0053009D01*
X0062614Y0053088D02*
X0061552Y0053088D01*
X0061552Y0053167D02*
X0062614Y0053167D01*
X0062614Y0053246D02*
X0061552Y0053246D01*
X0061552Y0053325D02*
X0062614Y0053325D01*
X0062614Y0053404D02*
X0061552Y0053404D01*
X0061552Y0053483D02*
X0062614Y0053483D01*
X0062614Y0053562D02*
X0061552Y0053562D01*
X0061552Y0053641D02*
X0062614Y0053641D01*
X0062614Y0053720D02*
X0061552Y0053720D01*
X0061552Y0053799D02*
X0062614Y0053799D01*
X0062614Y0053878D02*
X0061552Y0053878D01*
X0061552Y0053957D02*
X0062614Y0053957D01*
X0062614Y0054036D02*
X0061552Y0054036D01*
X0061552Y0054115D02*
X0062614Y0054115D01*
X0062614Y0054194D02*
X0061552Y0054194D01*
X0061552Y0054273D02*
X0062614Y0054273D01*
X0062614Y0054352D02*
X0061552Y0054352D01*
X0061552Y0054431D02*
X0062614Y0054431D01*
X0062614Y0054510D02*
X0061552Y0054510D01*
X0061552Y0054589D02*
X0062614Y0054589D01*
X0062614Y0054668D02*
X0061552Y0054668D01*
X0061552Y0054747D02*
X0062614Y0054747D01*
X0062614Y0054826D02*
X0061552Y0054826D01*
X0061552Y0054905D02*
X0062614Y0054905D01*
X0064582Y0054931D02*
X0064582Y0051271D01*
X0063520Y0051271D01*
X0063520Y0054931D01*
X0064582Y0054931D01*
X0064582Y0051350D02*
X0063520Y0051350D01*
X0063520Y0051429D02*
X0064582Y0051429D01*
X0064582Y0051508D02*
X0063520Y0051508D01*
X0063520Y0051587D02*
X0064582Y0051587D01*
X0064582Y0051666D02*
X0063520Y0051666D01*
X0063520Y0051745D02*
X0064582Y0051745D01*
X0064582Y0051824D02*
X0063520Y0051824D01*
X0063520Y0051903D02*
X0064582Y0051903D01*
X0064582Y0051982D02*
X0063520Y0051982D01*
X0063520Y0052061D02*
X0064582Y0052061D01*
X0064582Y0052140D02*
X0063520Y0052140D01*
X0063520Y0052219D02*
X0064582Y0052219D01*
X0064582Y0052298D02*
X0063520Y0052298D01*
X0063520Y0052377D02*
X0064582Y0052377D01*
X0064582Y0052456D02*
X0063520Y0052456D01*
X0063520Y0052535D02*
X0064582Y0052535D01*
X0064582Y0052614D02*
X0063520Y0052614D01*
X0063520Y0052693D02*
X0064582Y0052693D01*
X0064582Y0052772D02*
X0063520Y0052772D01*
X0063520Y0052851D02*
X0064582Y0052851D01*
X0064582Y0052930D02*
X0063520Y0052930D01*
X0063520Y0053009D02*
X0064582Y0053009D01*
X0064582Y0053088D02*
X0063520Y0053088D01*
X0063520Y0053167D02*
X0064582Y0053167D01*
X0064582Y0053246D02*
X0063520Y0053246D01*
X0063520Y0053325D02*
X0064582Y0053325D01*
X0064582Y0053404D02*
X0063520Y0053404D01*
X0063520Y0053483D02*
X0064582Y0053483D01*
X0064582Y0053562D02*
X0063520Y0053562D01*
X0063520Y0053641D02*
X0064582Y0053641D01*
X0064582Y0053720D02*
X0063520Y0053720D01*
X0063520Y0053799D02*
X0064582Y0053799D01*
X0064582Y0053878D02*
X0063520Y0053878D01*
X0063520Y0053957D02*
X0064582Y0053957D01*
X0064582Y0054036D02*
X0063520Y0054036D01*
X0063520Y0054115D02*
X0064582Y0054115D01*
X0064582Y0054194D02*
X0063520Y0054194D01*
X0063520Y0054273D02*
X0064582Y0054273D01*
X0064582Y0054352D02*
X0063520Y0054352D01*
X0063520Y0054431D02*
X0064582Y0054431D01*
X0064582Y0054510D02*
X0063520Y0054510D01*
X0063520Y0054589D02*
X0064582Y0054589D01*
X0064582Y0054668D02*
X0063520Y0054668D01*
X0063520Y0054747D02*
X0064582Y0054747D01*
X0064582Y0054826D02*
X0063520Y0054826D01*
X0063520Y0054905D02*
X0064582Y0054905D01*
X0066551Y0054931D02*
X0066551Y0051271D01*
X0065489Y0051271D01*
X0065489Y0054931D01*
X0066551Y0054931D01*
X0066551Y0051350D02*
X0065489Y0051350D01*
X0065489Y0051429D02*
X0066551Y0051429D01*
X0066551Y0051508D02*
X0065489Y0051508D01*
X0065489Y0051587D02*
X0066551Y0051587D01*
X0066551Y0051666D02*
X0065489Y0051666D01*
X0065489Y0051745D02*
X0066551Y0051745D01*
X0066551Y0051824D02*
X0065489Y0051824D01*
X0065489Y0051903D02*
X0066551Y0051903D01*
X0066551Y0051982D02*
X0065489Y0051982D01*
X0065489Y0052061D02*
X0066551Y0052061D01*
X0066551Y0052140D02*
X0065489Y0052140D01*
X0065489Y0052219D02*
X0066551Y0052219D01*
X0066551Y0052298D02*
X0065489Y0052298D01*
X0065489Y0052377D02*
X0066551Y0052377D01*
X0066551Y0052456D02*
X0065489Y0052456D01*
X0065489Y0052535D02*
X0066551Y0052535D01*
X0066551Y0052614D02*
X0065489Y0052614D01*
X0065489Y0052693D02*
X0066551Y0052693D01*
X0066551Y0052772D02*
X0065489Y0052772D01*
X0065489Y0052851D02*
X0066551Y0052851D01*
X0066551Y0052930D02*
X0065489Y0052930D01*
X0065489Y0053009D02*
X0066551Y0053009D01*
X0066551Y0053088D02*
X0065489Y0053088D01*
X0065489Y0053167D02*
X0066551Y0053167D01*
X0066551Y0053246D02*
X0065489Y0053246D01*
X0065489Y0053325D02*
X0066551Y0053325D01*
X0066551Y0053404D02*
X0065489Y0053404D01*
X0065489Y0053483D02*
X0066551Y0053483D01*
X0066551Y0053562D02*
X0065489Y0053562D01*
X0065489Y0053641D02*
X0066551Y0053641D01*
X0066551Y0053720D02*
X0065489Y0053720D01*
X0065489Y0053799D02*
X0066551Y0053799D01*
X0066551Y0053878D02*
X0065489Y0053878D01*
X0065489Y0053957D02*
X0066551Y0053957D01*
X0066551Y0054036D02*
X0065489Y0054036D01*
X0065489Y0054115D02*
X0066551Y0054115D01*
X0066551Y0054194D02*
X0065489Y0054194D01*
X0065489Y0054273D02*
X0066551Y0054273D01*
X0066551Y0054352D02*
X0065489Y0054352D01*
X0065489Y0054431D02*
X0066551Y0054431D01*
X0066551Y0054510D02*
X0065489Y0054510D01*
X0065489Y0054589D02*
X0066551Y0054589D01*
X0066551Y0054668D02*
X0065489Y0054668D01*
X0065489Y0054747D02*
X0066551Y0054747D01*
X0066551Y0054826D02*
X0065489Y0054826D01*
X0065489Y0054905D02*
X0066551Y0054905D01*
X0068519Y0054931D02*
X0068519Y0051271D01*
X0067457Y0051271D01*
X0067457Y0054931D01*
X0068519Y0054931D01*
X0068519Y0051350D02*
X0067457Y0051350D01*
X0067457Y0051429D02*
X0068519Y0051429D01*
X0068519Y0051508D02*
X0067457Y0051508D01*
X0067457Y0051587D02*
X0068519Y0051587D01*
X0068519Y0051666D02*
X0067457Y0051666D01*
X0067457Y0051745D02*
X0068519Y0051745D01*
X0068519Y0051824D02*
X0067457Y0051824D01*
X0067457Y0051903D02*
X0068519Y0051903D01*
X0068519Y0051982D02*
X0067457Y0051982D01*
X0067457Y0052061D02*
X0068519Y0052061D01*
X0068519Y0052140D02*
X0067457Y0052140D01*
X0067457Y0052219D02*
X0068519Y0052219D01*
X0068519Y0052298D02*
X0067457Y0052298D01*
X0067457Y0052377D02*
X0068519Y0052377D01*
X0068519Y0052456D02*
X0067457Y0052456D01*
X0067457Y0052535D02*
X0068519Y0052535D01*
X0068519Y0052614D02*
X0067457Y0052614D01*
X0067457Y0052693D02*
X0068519Y0052693D01*
X0068519Y0052772D02*
X0067457Y0052772D01*
X0067457Y0052851D02*
X0068519Y0052851D01*
X0068519Y0052930D02*
X0067457Y0052930D01*
X0067457Y0053009D02*
X0068519Y0053009D01*
X0068519Y0053088D02*
X0067457Y0053088D01*
X0067457Y0053167D02*
X0068519Y0053167D01*
X0068519Y0053246D02*
X0067457Y0053246D01*
X0067457Y0053325D02*
X0068519Y0053325D01*
X0068519Y0053404D02*
X0067457Y0053404D01*
X0067457Y0053483D02*
X0068519Y0053483D01*
X0068519Y0053562D02*
X0067457Y0053562D01*
X0067457Y0053641D02*
X0068519Y0053641D01*
X0068519Y0053720D02*
X0067457Y0053720D01*
X0067457Y0053799D02*
X0068519Y0053799D01*
X0068519Y0053878D02*
X0067457Y0053878D01*
X0067457Y0053957D02*
X0068519Y0053957D01*
X0068519Y0054036D02*
X0067457Y0054036D01*
X0067457Y0054115D02*
X0068519Y0054115D01*
X0068519Y0054194D02*
X0067457Y0054194D01*
X0067457Y0054273D02*
X0068519Y0054273D01*
X0068519Y0054352D02*
X0067457Y0054352D01*
X0067457Y0054431D02*
X0068519Y0054431D01*
X0068519Y0054510D02*
X0067457Y0054510D01*
X0067457Y0054589D02*
X0068519Y0054589D01*
X0068519Y0054668D02*
X0067457Y0054668D01*
X0067457Y0054747D02*
X0068519Y0054747D01*
X0068519Y0054826D02*
X0067457Y0054826D01*
X0067457Y0054905D02*
X0068519Y0054905D01*
X0069701Y0057175D02*
X0073361Y0057175D01*
X0073361Y0056113D01*
X0069701Y0056113D01*
X0069701Y0057175D01*
X0069701Y0056192D02*
X0073361Y0056192D01*
X0073361Y0056271D02*
X0069701Y0056271D01*
X0069701Y0056350D02*
X0073361Y0056350D01*
X0073361Y0056429D02*
X0069701Y0056429D01*
X0069701Y0056508D02*
X0073361Y0056508D01*
X0073361Y0056587D02*
X0069701Y0056587D01*
X0069701Y0056666D02*
X0073361Y0056666D01*
X0073361Y0056745D02*
X0069701Y0056745D01*
X0069701Y0056824D02*
X0073361Y0056824D01*
X0073361Y0056903D02*
X0069701Y0056903D01*
X0069701Y0056982D02*
X0073361Y0056982D01*
X0073361Y0057061D02*
X0069701Y0057061D01*
X0069701Y0057140D02*
X0073361Y0057140D01*
X0073361Y0059144D02*
X0069701Y0059144D01*
X0073361Y0059144D02*
X0073361Y0058082D01*
X0069701Y0058082D01*
X0069701Y0059144D01*
X0069701Y0058161D02*
X0073361Y0058161D01*
X0073361Y0058240D02*
X0069701Y0058240D01*
X0069701Y0058319D02*
X0073361Y0058319D01*
X0073361Y0058398D02*
X0069701Y0058398D01*
X0069701Y0058477D02*
X0073361Y0058477D01*
X0073361Y0058556D02*
X0069701Y0058556D01*
X0069701Y0058635D02*
X0073361Y0058635D01*
X0073361Y0058714D02*
X0069701Y0058714D01*
X0069701Y0058793D02*
X0073361Y0058793D01*
X0073361Y0058872D02*
X0069701Y0058872D01*
X0069701Y0058951D02*
X0073361Y0058951D01*
X0073361Y0059030D02*
X0069701Y0059030D01*
X0069701Y0059109D02*
X0073361Y0059109D01*
X0073361Y0061112D02*
X0069701Y0061112D01*
X0073361Y0061112D02*
X0073361Y0060050D01*
X0069701Y0060050D01*
X0069701Y0061112D01*
X0069701Y0060129D02*
X0073361Y0060129D01*
X0073361Y0060208D02*
X0069701Y0060208D01*
X0069701Y0060287D02*
X0073361Y0060287D01*
X0073361Y0060366D02*
X0069701Y0060366D01*
X0069701Y0060445D02*
X0073361Y0060445D01*
X0073361Y0060524D02*
X0069701Y0060524D01*
X0069701Y0060603D02*
X0073361Y0060603D01*
X0073361Y0060682D02*
X0069701Y0060682D01*
X0069701Y0060761D02*
X0073361Y0060761D01*
X0073361Y0060840D02*
X0069701Y0060840D01*
X0069701Y0060919D02*
X0073361Y0060919D01*
X0073361Y0060998D02*
X0069701Y0060998D01*
X0069701Y0061077D02*
X0073361Y0061077D01*
X0073361Y0063081D02*
X0069701Y0063081D01*
X0073361Y0063081D02*
X0073361Y0062019D01*
X0069701Y0062019D01*
X0069701Y0063081D01*
X0069701Y0062098D02*
X0073361Y0062098D01*
X0073361Y0062177D02*
X0069701Y0062177D01*
X0069701Y0062256D02*
X0073361Y0062256D01*
X0073361Y0062335D02*
X0069701Y0062335D01*
X0069701Y0062414D02*
X0073361Y0062414D01*
X0073361Y0062493D02*
X0069701Y0062493D01*
X0069701Y0062572D02*
X0073361Y0062572D01*
X0073361Y0062651D02*
X0069701Y0062651D01*
X0069701Y0062730D02*
X0073361Y0062730D01*
X0073361Y0062809D02*
X0069701Y0062809D01*
X0069701Y0062888D02*
X0073361Y0062888D01*
X0073361Y0062967D02*
X0069701Y0062967D01*
X0069701Y0063046D02*
X0073361Y0063046D01*
X0073361Y0065050D02*
X0069701Y0065050D01*
X0073361Y0065050D02*
X0073361Y0063988D01*
X0069701Y0063988D01*
X0069701Y0065050D01*
X0069701Y0064067D02*
X0073361Y0064067D01*
X0073361Y0064146D02*
X0069701Y0064146D01*
X0069701Y0064225D02*
X0073361Y0064225D01*
X0073361Y0064304D02*
X0069701Y0064304D01*
X0069701Y0064383D02*
X0073361Y0064383D01*
X0073361Y0064462D02*
X0069701Y0064462D01*
X0069701Y0064541D02*
X0073361Y0064541D01*
X0073361Y0064620D02*
X0069701Y0064620D01*
X0069701Y0064699D02*
X0073361Y0064699D01*
X0073361Y0064778D02*
X0069701Y0064778D01*
X0069701Y0064857D02*
X0073361Y0064857D01*
X0073361Y0064936D02*
X0069701Y0064936D01*
X0069701Y0065015D02*
X0073361Y0065015D01*
X0073361Y0067018D02*
X0069701Y0067018D01*
X0073361Y0067018D02*
X0073361Y0065956D01*
X0069701Y0065956D01*
X0069701Y0067018D01*
X0069701Y0066035D02*
X0073361Y0066035D01*
X0073361Y0066114D02*
X0069701Y0066114D01*
X0069701Y0066193D02*
X0073361Y0066193D01*
X0073361Y0066272D02*
X0069701Y0066272D01*
X0069701Y0066351D02*
X0073361Y0066351D01*
X0073361Y0066430D02*
X0069701Y0066430D01*
X0069701Y0066509D02*
X0073361Y0066509D01*
X0073361Y0066588D02*
X0069701Y0066588D01*
X0069701Y0066667D02*
X0073361Y0066667D01*
X0073361Y0066746D02*
X0069701Y0066746D01*
X0069701Y0066825D02*
X0073361Y0066825D01*
X0073361Y0066904D02*
X0069701Y0066904D01*
X0069701Y0066983D02*
X0073361Y0066983D01*
X0073361Y0068987D02*
X0069701Y0068987D01*
X0073361Y0068987D02*
X0073361Y0067925D01*
X0069701Y0067925D01*
X0069701Y0068987D01*
X0069701Y0068004D02*
X0073361Y0068004D01*
X0073361Y0068083D02*
X0069701Y0068083D01*
X0069701Y0068162D02*
X0073361Y0068162D01*
X0073361Y0068241D02*
X0069701Y0068241D01*
X0069701Y0068320D02*
X0073361Y0068320D01*
X0073361Y0068399D02*
X0069701Y0068399D01*
X0069701Y0068478D02*
X0073361Y0068478D01*
X0073361Y0068557D02*
X0069701Y0068557D01*
X0069701Y0068636D02*
X0073361Y0068636D01*
X0073361Y0068715D02*
X0069701Y0068715D01*
X0069701Y0068794D02*
X0073361Y0068794D01*
X0073361Y0068873D02*
X0069701Y0068873D01*
X0069701Y0068952D02*
X0073361Y0068952D01*
X0067457Y0070169D02*
X0067457Y0073829D01*
X0068519Y0073829D01*
X0068519Y0070169D01*
X0067457Y0070169D01*
X0067457Y0070248D02*
X0068519Y0070248D01*
X0068519Y0070327D02*
X0067457Y0070327D01*
X0067457Y0070406D02*
X0068519Y0070406D01*
X0068519Y0070485D02*
X0067457Y0070485D01*
X0067457Y0070564D02*
X0068519Y0070564D01*
X0068519Y0070643D02*
X0067457Y0070643D01*
X0067457Y0070722D02*
X0068519Y0070722D01*
X0068519Y0070801D02*
X0067457Y0070801D01*
X0067457Y0070880D02*
X0068519Y0070880D01*
X0068519Y0070959D02*
X0067457Y0070959D01*
X0067457Y0071038D02*
X0068519Y0071038D01*
X0068519Y0071117D02*
X0067457Y0071117D01*
X0067457Y0071196D02*
X0068519Y0071196D01*
X0068519Y0071275D02*
X0067457Y0071275D01*
X0067457Y0071354D02*
X0068519Y0071354D01*
X0068519Y0071433D02*
X0067457Y0071433D01*
X0067457Y0071512D02*
X0068519Y0071512D01*
X0068519Y0071591D02*
X0067457Y0071591D01*
X0067457Y0071670D02*
X0068519Y0071670D01*
X0068519Y0071749D02*
X0067457Y0071749D01*
X0067457Y0071828D02*
X0068519Y0071828D01*
X0068519Y0071907D02*
X0067457Y0071907D01*
X0067457Y0071986D02*
X0068519Y0071986D01*
X0068519Y0072065D02*
X0067457Y0072065D01*
X0067457Y0072144D02*
X0068519Y0072144D01*
X0068519Y0072223D02*
X0067457Y0072223D01*
X0067457Y0072302D02*
X0068519Y0072302D01*
X0068519Y0072381D02*
X0067457Y0072381D01*
X0067457Y0072460D02*
X0068519Y0072460D01*
X0068519Y0072539D02*
X0067457Y0072539D01*
X0067457Y0072618D02*
X0068519Y0072618D01*
X0068519Y0072697D02*
X0067457Y0072697D01*
X0067457Y0072776D02*
X0068519Y0072776D01*
X0068519Y0072855D02*
X0067457Y0072855D01*
X0067457Y0072934D02*
X0068519Y0072934D01*
X0068519Y0073013D02*
X0067457Y0073013D01*
X0067457Y0073092D02*
X0068519Y0073092D01*
X0068519Y0073171D02*
X0067457Y0073171D01*
X0067457Y0073250D02*
X0068519Y0073250D01*
X0068519Y0073329D02*
X0067457Y0073329D01*
X0067457Y0073408D02*
X0068519Y0073408D01*
X0068519Y0073487D02*
X0067457Y0073487D01*
X0067457Y0073566D02*
X0068519Y0073566D01*
X0068519Y0073645D02*
X0067457Y0073645D01*
X0067457Y0073724D02*
X0068519Y0073724D01*
X0068519Y0073803D02*
X0067457Y0073803D01*
X0065489Y0073829D02*
X0065489Y0070169D01*
X0065489Y0073829D02*
X0066551Y0073829D01*
X0066551Y0070169D01*
X0065489Y0070169D01*
X0065489Y0070248D02*
X0066551Y0070248D01*
X0066551Y0070327D02*
X0065489Y0070327D01*
X0065489Y0070406D02*
X0066551Y0070406D01*
X0066551Y0070485D02*
X0065489Y0070485D01*
X0065489Y0070564D02*
X0066551Y0070564D01*
X0066551Y0070643D02*
X0065489Y0070643D01*
X0065489Y0070722D02*
X0066551Y0070722D01*
X0066551Y0070801D02*
X0065489Y0070801D01*
X0065489Y0070880D02*
X0066551Y0070880D01*
X0066551Y0070959D02*
X0065489Y0070959D01*
X0065489Y0071038D02*
X0066551Y0071038D01*
X0066551Y0071117D02*
X0065489Y0071117D01*
X0065489Y0071196D02*
X0066551Y0071196D01*
X0066551Y0071275D02*
X0065489Y0071275D01*
X0065489Y0071354D02*
X0066551Y0071354D01*
X0066551Y0071433D02*
X0065489Y0071433D01*
X0065489Y0071512D02*
X0066551Y0071512D01*
X0066551Y0071591D02*
X0065489Y0071591D01*
X0065489Y0071670D02*
X0066551Y0071670D01*
X0066551Y0071749D02*
X0065489Y0071749D01*
X0065489Y0071828D02*
X0066551Y0071828D01*
X0066551Y0071907D02*
X0065489Y0071907D01*
X0065489Y0071986D02*
X0066551Y0071986D01*
X0066551Y0072065D02*
X0065489Y0072065D01*
X0065489Y0072144D02*
X0066551Y0072144D01*
X0066551Y0072223D02*
X0065489Y0072223D01*
X0065489Y0072302D02*
X0066551Y0072302D01*
X0066551Y0072381D02*
X0065489Y0072381D01*
X0065489Y0072460D02*
X0066551Y0072460D01*
X0066551Y0072539D02*
X0065489Y0072539D01*
X0065489Y0072618D02*
X0066551Y0072618D01*
X0066551Y0072697D02*
X0065489Y0072697D01*
X0065489Y0072776D02*
X0066551Y0072776D01*
X0066551Y0072855D02*
X0065489Y0072855D01*
X0065489Y0072934D02*
X0066551Y0072934D01*
X0066551Y0073013D02*
X0065489Y0073013D01*
X0065489Y0073092D02*
X0066551Y0073092D01*
X0066551Y0073171D02*
X0065489Y0073171D01*
X0065489Y0073250D02*
X0066551Y0073250D01*
X0066551Y0073329D02*
X0065489Y0073329D01*
X0065489Y0073408D02*
X0066551Y0073408D01*
X0066551Y0073487D02*
X0065489Y0073487D01*
X0065489Y0073566D02*
X0066551Y0073566D01*
X0066551Y0073645D02*
X0065489Y0073645D01*
X0065489Y0073724D02*
X0066551Y0073724D01*
X0066551Y0073803D02*
X0065489Y0073803D01*
D27*
X0032083Y0079706D03*
X0032083Y0067894D03*
M02*
