G75*
%MOIN*%
%OFA0B0*%
%FSLAX25Y25*%
%IPPOS*%
%LPD*%
%AMOC8*
5,1,8,0,0,1.08239X$1,22.5*
%
%ADD10C,0.00300*%
%ADD11C,0.00400*%
%ADD12C,0.00700*%
%ADD13C,0.00787*%
%ADD14C,0.00800*%
%ADD15C,0.01000*%
%ADD16C,0.00500*%
%ADD17C,0.00100*%
%ADD18C,0.00394*%
%ADD19C,0.00600*%
%ADD20C,0.01200*%
%ADD21R,0.02117X0.17521*%
%ADD22R,0.11867X0.01867*%
%ADD23R,0.02062X0.09639*%
%ADD24R,0.11874X0.01831*%
%ADD25R,0.02025X0.09616*%
%ADD26R,0.11856X0.01752*%
%ADD27R,0.01978X0.09612*%
%ADD28R,0.11822X0.01704*%
%ADD29R,0.01923X0.09572*%
%ADD30R,0.21593X0.01805*%
%ADD31R,0.01867X0.19540*%
%ADD32R,0.01900X0.19531*%
%ADD33R,0.01878X0.01846*%
%ADD34R,0.01913X0.01851*%
%ADD35R,0.02056X0.01859*%
%ADD36R,0.01931X0.05650*%
D10*
X0023480Y0007209D02*
X0023480Y0009060D01*
X0024097Y0009677D01*
X0026565Y0009677D01*
X0027183Y0009060D01*
X0027183Y0007209D01*
X0023480Y0007209D01*
X0025331Y0010892D02*
X0025331Y0013361D01*
X0025331Y0017209D02*
X0023480Y0017209D01*
X0023480Y0019677D01*
X0023480Y0020892D02*
X0025948Y0020892D01*
X0027183Y0022126D01*
X0025948Y0023361D01*
X0023480Y0023361D01*
X0024714Y0027209D02*
X0023480Y0028443D01*
X0027183Y0028443D01*
X0027183Y0027209D02*
X0027183Y0029677D01*
X0027183Y0030892D02*
X0024714Y0033361D01*
X0024097Y0033361D01*
X0023480Y0032743D01*
X0023480Y0031509D01*
X0024097Y0030892D01*
X0027183Y0030892D02*
X0027183Y0033361D01*
X0027183Y0034709D02*
X0027183Y0037177D01*
X0027925Y0036825D02*
X0027925Y0040528D01*
X0029776Y0040528D01*
X0030393Y0039911D01*
X0030393Y0038677D01*
X0029776Y0038059D01*
X0027925Y0038059D01*
X0027183Y0038392D02*
X0027183Y0040861D01*
X0027183Y0039626D02*
X0023480Y0039626D01*
X0024714Y0038392D01*
X0023480Y0035943D02*
X0027183Y0035943D01*
X0024714Y0034709D02*
X0023480Y0035943D01*
X0025331Y0019677D02*
X0024714Y0019060D01*
X0024714Y0018443D01*
X0025331Y0017209D01*
X0026565Y0017209D02*
X0027183Y0017826D01*
X0027183Y0019060D01*
X0026565Y0019677D01*
X0025331Y0019677D01*
X0024714Y0061517D02*
X0025331Y0062134D01*
X0025331Y0063986D01*
X0024097Y0063986D02*
X0023480Y0063368D01*
X0023480Y0062134D01*
X0024097Y0061517D01*
X0024714Y0061517D01*
X0024097Y0063986D02*
X0026565Y0063986D01*
X0027183Y0063368D01*
X0027183Y0062134D01*
X0026565Y0061517D01*
X0026565Y0069017D02*
X0027183Y0069634D01*
X0027183Y0070868D01*
X0026565Y0071486D01*
X0025948Y0071486D01*
X0025331Y0070868D01*
X0025331Y0070251D01*
X0025331Y0070868D02*
X0024714Y0071486D01*
X0024097Y0071486D01*
X0023480Y0070868D01*
X0023480Y0069634D01*
X0024097Y0069017D01*
X0024097Y0077209D02*
X0023480Y0077826D01*
X0023480Y0079060D01*
X0024097Y0079677D01*
X0024714Y0079677D01*
X0027183Y0077209D01*
X0027183Y0079677D01*
X0026565Y0080892D02*
X0024097Y0083361D01*
X0026565Y0083361D01*
X0027183Y0082743D01*
X0027183Y0081509D01*
X0026565Y0080892D01*
X0024097Y0080892D01*
X0023480Y0081509D01*
X0023480Y0082743D01*
X0024097Y0083361D01*
X0024714Y0087209D02*
X0023480Y0088443D01*
X0027183Y0088443D01*
X0027183Y0087209D02*
X0027183Y0089677D01*
X0026565Y0090892D02*
X0027183Y0091509D01*
X0027183Y0092743D01*
X0026565Y0093361D01*
X0024097Y0093361D01*
X0023480Y0092743D01*
X0023480Y0091509D01*
X0024097Y0090892D01*
X0024714Y0090892D01*
X0025331Y0091509D01*
X0025331Y0093361D01*
X0030983Y0100177D02*
X0033451Y0100177D01*
X0034666Y0100177D02*
X0036517Y0100177D01*
X0037135Y0099559D01*
X0037135Y0098942D01*
X0036517Y0098325D01*
X0035283Y0098325D01*
X0034666Y0098942D01*
X0034666Y0100177D01*
X0035900Y0101411D01*
X0037135Y0102028D01*
X0032834Y0102028D02*
X0032834Y0098325D01*
X0030983Y0100177D02*
X0032834Y0102028D01*
X0080983Y0100177D02*
X0083451Y0100177D01*
X0084666Y0100177D02*
X0084666Y0102028D01*
X0087135Y0102028D01*
X0086517Y0100794D02*
X0087135Y0100177D01*
X0087135Y0098942D01*
X0086517Y0098325D01*
X0085283Y0098325D01*
X0084666Y0098942D01*
X0084666Y0100177D02*
X0085900Y0100794D01*
X0086517Y0100794D01*
X0082834Y0102028D02*
X0082834Y0098325D01*
X0080983Y0100177D02*
X0082834Y0102028D01*
X0096980Y0093227D02*
X0097597Y0091993D01*
X0098831Y0090758D01*
X0098831Y0092610D01*
X0099448Y0093227D01*
X0100065Y0093227D01*
X0100683Y0092610D01*
X0100683Y0091375D01*
X0100065Y0090758D01*
X0098831Y0090758D01*
X0098214Y0089544D02*
X0097597Y0089544D01*
X0096980Y0088927D01*
X0096980Y0087692D01*
X0097597Y0087075D01*
X0098831Y0088309D02*
X0098831Y0088927D01*
X0099448Y0089544D01*
X0100065Y0089544D01*
X0100683Y0088927D01*
X0100683Y0087692D01*
X0100065Y0087075D01*
X0098831Y0088927D02*
X0098214Y0089544D01*
X0098831Y0083227D02*
X0100065Y0083227D01*
X0100683Y0082610D01*
X0100683Y0081375D01*
X0100065Y0080758D01*
X0100065Y0079544D02*
X0100683Y0078927D01*
X0100683Y0077692D01*
X0100065Y0077075D01*
X0098831Y0078309D02*
X0098831Y0078927D01*
X0099448Y0079544D01*
X0100065Y0079544D01*
X0098831Y0078927D02*
X0098214Y0079544D01*
X0097597Y0079544D01*
X0096980Y0078927D01*
X0096980Y0077692D01*
X0097597Y0077075D01*
X0096980Y0080758D02*
X0098831Y0080758D01*
X0098214Y0081993D01*
X0098214Y0082610D01*
X0098831Y0083227D01*
X0096980Y0083227D02*
X0096980Y0080758D01*
X0097597Y0071419D02*
X0100065Y0068950D01*
X0100683Y0069567D01*
X0100683Y0070802D01*
X0100065Y0071419D01*
X0097597Y0071419D01*
X0096980Y0070802D01*
X0096980Y0069567D01*
X0097597Y0068950D01*
X0100065Y0068950D01*
X0100065Y0063227D02*
X0100683Y0062610D01*
X0100683Y0061375D01*
X0100065Y0060758D01*
X0099448Y0060758D01*
X0098831Y0061375D01*
X0098831Y0062610D01*
X0099448Y0063227D01*
X0100065Y0063227D01*
X0098831Y0062610D02*
X0098214Y0063227D01*
X0097597Y0063227D01*
X0096980Y0062610D01*
X0096980Y0061375D01*
X0097597Y0060758D01*
X0098214Y0060758D01*
X0098831Y0061375D01*
X0098831Y0059544D02*
X0098831Y0057075D01*
X0096980Y0058927D01*
X0100683Y0058927D01*
X0097597Y0053227D02*
X0100065Y0050758D01*
X0100683Y0050758D01*
X0100683Y0048927D02*
X0096980Y0048927D01*
X0098831Y0047075D01*
X0098831Y0049544D01*
X0096980Y0050758D02*
X0096980Y0053227D01*
X0097597Y0053227D01*
X0100683Y0043227D02*
X0100683Y0040758D01*
X0100683Y0039544D02*
X0100683Y0037075D01*
X0098214Y0039544D01*
X0097597Y0039544D01*
X0096980Y0038927D01*
X0096980Y0037692D01*
X0097597Y0037075D01*
X0095393Y0037442D02*
X0094776Y0036825D01*
X0093542Y0036825D01*
X0092925Y0037442D01*
X0092925Y0038059D01*
X0093542Y0038677D01*
X0094776Y0038677D01*
X0095393Y0038059D01*
X0095393Y0037442D01*
X0094776Y0038677D02*
X0095393Y0039294D01*
X0095393Y0039911D01*
X0094776Y0040528D01*
X0093542Y0040528D01*
X0092925Y0039911D01*
X0092925Y0039294D01*
X0093542Y0038677D01*
X0091710Y0038677D02*
X0089241Y0038677D01*
X0091093Y0040528D01*
X0091093Y0036825D01*
X0096980Y0032610D02*
X0098831Y0030758D01*
X0098831Y0033227D01*
X0096980Y0032610D02*
X0100683Y0032610D01*
X0100683Y0029544D02*
X0100683Y0027075D01*
X0100683Y0028309D02*
X0096980Y0028309D01*
X0098214Y0027075D01*
X0098214Y0023227D02*
X0097597Y0023227D01*
X0096980Y0022610D01*
X0096980Y0021375D01*
X0097597Y0020758D01*
X0098831Y0021993D02*
X0098831Y0022610D01*
X0099448Y0023227D01*
X0100065Y0023227D01*
X0100683Y0022610D01*
X0100683Y0021375D01*
X0100065Y0020758D01*
X0100683Y0019544D02*
X0100683Y0017075D01*
X0100683Y0018309D02*
X0096980Y0018309D01*
X0098214Y0017075D01*
X0098831Y0013227D02*
X0098831Y0010758D01*
X0097597Y0009544D02*
X0096980Y0008927D01*
X0096980Y0007075D01*
X0100683Y0007075D01*
X0100683Y0008927D01*
X0100065Y0009544D01*
X0097597Y0009544D01*
X0097597Y0011993D02*
X0100065Y0011993D01*
X0098831Y0022610D02*
X0098214Y0023227D01*
X0098214Y0040758D02*
X0096980Y0041993D01*
X0100683Y0041993D01*
D11*
X0052365Y0112750D02*
X0053133Y0113517D01*
X0053133Y0115052D01*
X0052365Y0115819D01*
X0051598Y0117354D02*
X0051598Y0119656D01*
X0050831Y0120423D01*
X0049296Y0120423D01*
X0048529Y0119656D01*
X0048529Y0117354D01*
X0053133Y0117354D01*
X0052365Y0112750D02*
X0049296Y0112750D01*
X0048529Y0113517D01*
X0048529Y0115052D01*
X0049296Y0115819D01*
X0046883Y0116220D02*
X0041678Y0116220D01*
X0042546Y0117906D02*
X0041678Y0118774D01*
X0041678Y0120509D01*
X0042546Y0121376D01*
X0046015Y0121376D01*
X0046883Y0120509D01*
X0046883Y0118774D01*
X0046015Y0117906D01*
X0042546Y0117906D01*
X0041678Y0123063D02*
X0041678Y0125665D01*
X0042546Y0126532D01*
X0046015Y0126532D01*
X0046883Y0125665D01*
X0046883Y0123063D01*
X0041678Y0123063D01*
X0039383Y0123063D02*
X0034178Y0123063D01*
X0035913Y0124798D01*
X0034178Y0126532D01*
X0039383Y0126532D01*
X0039383Y0128219D02*
X0039383Y0131689D01*
X0038515Y0133376D02*
X0039383Y0134243D01*
X0039383Y0135978D01*
X0038515Y0136845D01*
X0035046Y0136845D01*
X0034178Y0135978D01*
X0034178Y0134243D01*
X0035046Y0133376D01*
X0038515Y0133376D01*
X0041678Y0134243D02*
X0041678Y0135978D01*
X0042546Y0136845D01*
X0043413Y0136845D01*
X0044280Y0135978D01*
X0045148Y0136845D01*
X0046015Y0136845D01*
X0046883Y0135978D01*
X0046883Y0134243D01*
X0046015Y0133376D01*
X0046883Y0131689D02*
X0046883Y0128219D01*
X0041678Y0128219D01*
X0041678Y0131689D01*
X0042546Y0133376D02*
X0041678Y0134243D01*
X0044280Y0135110D02*
X0044280Y0135978D01*
X0042546Y0138532D02*
X0041678Y0139399D01*
X0041678Y0141134D01*
X0042546Y0142002D01*
X0043413Y0142002D01*
X0046883Y0138532D01*
X0046883Y0142002D01*
X0046015Y0143688D02*
X0046883Y0144556D01*
X0046883Y0146291D01*
X0046015Y0147158D01*
X0045148Y0147158D01*
X0044280Y0146291D01*
X0044280Y0144556D01*
X0043413Y0143688D01*
X0042546Y0143688D01*
X0041678Y0144556D01*
X0041678Y0146291D01*
X0042546Y0147158D01*
X0042546Y0148845D02*
X0041678Y0149712D01*
X0041678Y0151447D01*
X0042546Y0152314D01*
X0043413Y0152314D01*
X0044280Y0151447D01*
X0045148Y0152314D01*
X0046015Y0152314D01*
X0046883Y0151447D01*
X0046883Y0149712D01*
X0046015Y0148845D01*
X0044280Y0150580D02*
X0044280Y0151447D01*
X0039383Y0145423D02*
X0039383Y0143688D01*
X0039383Y0144556D02*
X0034178Y0144556D01*
X0034178Y0145423D02*
X0034178Y0143688D01*
X0034178Y0142002D02*
X0034178Y0138532D01*
X0039383Y0138532D01*
X0039383Y0142002D01*
X0036780Y0140267D02*
X0036780Y0138532D01*
X0034178Y0128219D02*
X0039383Y0128219D01*
X0044280Y0128219D02*
X0044280Y0129954D01*
X0048529Y0128096D02*
X0053133Y0128096D01*
X0053133Y0126562D02*
X0053133Y0129631D01*
X0052365Y0131166D02*
X0049296Y0134235D01*
X0052365Y0134235D01*
X0053133Y0133468D01*
X0053133Y0131933D01*
X0052365Y0131166D01*
X0049296Y0131166D01*
X0048529Y0131933D01*
X0048529Y0133468D01*
X0049296Y0134235D01*
X0049296Y0135770D02*
X0048529Y0136537D01*
X0048529Y0138072D01*
X0049296Y0138839D01*
X0050063Y0138839D01*
X0053133Y0135770D01*
X0053133Y0138839D01*
X0048529Y0128096D02*
X0050063Y0126562D01*
X0050063Y0125027D02*
X0049296Y0125027D01*
X0048529Y0124260D01*
X0048529Y0122725D01*
X0049296Y0121958D01*
X0050063Y0125027D02*
X0053133Y0121958D01*
X0053133Y0125027D01*
X0046883Y0116220D02*
X0041678Y0112750D01*
X0046883Y0112750D01*
X0039383Y0112750D02*
X0039383Y0116220D01*
X0039383Y0117906D02*
X0035913Y0117906D01*
X0034178Y0119641D01*
X0035913Y0121376D01*
X0039383Y0121376D01*
X0036780Y0121376D02*
X0036780Y0117906D01*
X0034178Y0112750D02*
X0039383Y0112750D01*
D12*
X0035795Y0006794D02*
X0035795Y0003525D01*
X0030891Y0003525D01*
X0030891Y0006794D01*
X0033343Y0005160D02*
X0033343Y0003525D01*
X0088391Y0003525D02*
X0088391Y0005977D01*
X0089208Y0006794D01*
X0090026Y0006794D01*
X0090843Y0005977D01*
X0090843Y0003525D01*
X0090843Y0005977D02*
X0091660Y0006794D01*
X0092478Y0006794D01*
X0093295Y0005977D01*
X0093295Y0003525D01*
X0088391Y0003525D01*
D13*
X0085714Y0011576D02*
X0085716Y0011615D01*
X0085722Y0011654D01*
X0085732Y0011692D01*
X0085745Y0011729D01*
X0085762Y0011764D01*
X0085782Y0011798D01*
X0085806Y0011829D01*
X0085833Y0011858D01*
X0085862Y0011884D01*
X0085894Y0011907D01*
X0085928Y0011927D01*
X0085964Y0011943D01*
X0086001Y0011955D01*
X0086040Y0011964D01*
X0086079Y0011969D01*
X0086118Y0011970D01*
X0086157Y0011967D01*
X0086196Y0011960D01*
X0086233Y0011949D01*
X0086270Y0011935D01*
X0086305Y0011917D01*
X0086338Y0011896D01*
X0086369Y0011871D01*
X0086397Y0011844D01*
X0086422Y0011814D01*
X0086444Y0011781D01*
X0086463Y0011747D01*
X0086478Y0011711D01*
X0086490Y0011673D01*
X0086498Y0011635D01*
X0086502Y0011596D01*
X0086502Y0011556D01*
X0086498Y0011517D01*
X0086490Y0011479D01*
X0086478Y0011441D01*
X0086463Y0011405D01*
X0086444Y0011371D01*
X0086422Y0011338D01*
X0086397Y0011308D01*
X0086369Y0011281D01*
X0086338Y0011256D01*
X0086305Y0011235D01*
X0086270Y0011217D01*
X0086233Y0011203D01*
X0086196Y0011192D01*
X0086157Y0011185D01*
X0086118Y0011182D01*
X0086079Y0011183D01*
X0086040Y0011188D01*
X0086001Y0011197D01*
X0085964Y0011209D01*
X0085928Y0011225D01*
X0085894Y0011245D01*
X0085862Y0011268D01*
X0085833Y0011294D01*
X0085806Y0011323D01*
X0085782Y0011354D01*
X0085762Y0011388D01*
X0085745Y0011423D01*
X0085732Y0011460D01*
X0085722Y0011498D01*
X0085716Y0011537D01*
X0085714Y0011576D01*
X0055783Y0049558D02*
X0055785Y0049597D01*
X0055791Y0049636D01*
X0055801Y0049674D01*
X0055814Y0049711D01*
X0055831Y0049746D01*
X0055851Y0049780D01*
X0055875Y0049811D01*
X0055902Y0049840D01*
X0055931Y0049866D01*
X0055963Y0049889D01*
X0055997Y0049909D01*
X0056033Y0049925D01*
X0056070Y0049937D01*
X0056109Y0049946D01*
X0056148Y0049951D01*
X0056187Y0049952D01*
X0056226Y0049949D01*
X0056265Y0049942D01*
X0056302Y0049931D01*
X0056339Y0049917D01*
X0056374Y0049899D01*
X0056407Y0049878D01*
X0056438Y0049853D01*
X0056466Y0049826D01*
X0056491Y0049796D01*
X0056513Y0049763D01*
X0056532Y0049729D01*
X0056547Y0049693D01*
X0056559Y0049655D01*
X0056567Y0049617D01*
X0056571Y0049578D01*
X0056571Y0049538D01*
X0056567Y0049499D01*
X0056559Y0049461D01*
X0056547Y0049423D01*
X0056532Y0049387D01*
X0056513Y0049353D01*
X0056491Y0049320D01*
X0056466Y0049290D01*
X0056438Y0049263D01*
X0056407Y0049238D01*
X0056374Y0049217D01*
X0056339Y0049199D01*
X0056302Y0049185D01*
X0056265Y0049174D01*
X0056226Y0049167D01*
X0056187Y0049164D01*
X0056148Y0049165D01*
X0056109Y0049170D01*
X0056070Y0049179D01*
X0056033Y0049191D01*
X0055997Y0049207D01*
X0055963Y0049227D01*
X0055931Y0049250D01*
X0055902Y0049276D01*
X0055875Y0049305D01*
X0055851Y0049336D01*
X0055831Y0049370D01*
X0055814Y0049405D01*
X0055801Y0049442D01*
X0055791Y0049480D01*
X0055785Y0049519D01*
X0055783Y0049558D01*
X0048303Y0030050D02*
X0048305Y0030089D01*
X0048311Y0030128D01*
X0048321Y0030166D01*
X0048334Y0030203D01*
X0048351Y0030238D01*
X0048371Y0030272D01*
X0048395Y0030303D01*
X0048422Y0030332D01*
X0048451Y0030358D01*
X0048483Y0030381D01*
X0048517Y0030401D01*
X0048553Y0030417D01*
X0048590Y0030429D01*
X0048629Y0030438D01*
X0048668Y0030443D01*
X0048707Y0030444D01*
X0048746Y0030441D01*
X0048785Y0030434D01*
X0048822Y0030423D01*
X0048859Y0030409D01*
X0048894Y0030391D01*
X0048927Y0030370D01*
X0048958Y0030345D01*
X0048986Y0030318D01*
X0049011Y0030288D01*
X0049033Y0030255D01*
X0049052Y0030221D01*
X0049067Y0030185D01*
X0049079Y0030147D01*
X0049087Y0030109D01*
X0049091Y0030070D01*
X0049091Y0030030D01*
X0049087Y0029991D01*
X0049079Y0029953D01*
X0049067Y0029915D01*
X0049052Y0029879D01*
X0049033Y0029845D01*
X0049011Y0029812D01*
X0048986Y0029782D01*
X0048958Y0029755D01*
X0048927Y0029730D01*
X0048894Y0029709D01*
X0048859Y0029691D01*
X0048822Y0029677D01*
X0048785Y0029666D01*
X0048746Y0029659D01*
X0048707Y0029656D01*
X0048668Y0029657D01*
X0048629Y0029662D01*
X0048590Y0029671D01*
X0048553Y0029683D01*
X0048517Y0029699D01*
X0048483Y0029719D01*
X0048451Y0029742D01*
X0048422Y0029768D01*
X0048395Y0029797D01*
X0048371Y0029828D01*
X0048351Y0029862D01*
X0048334Y0029897D01*
X0048321Y0029934D01*
X0048311Y0029972D01*
X0048305Y0030011D01*
X0048303Y0030050D01*
X0037663Y0021024D02*
X0037665Y0021063D01*
X0037671Y0021102D01*
X0037681Y0021140D01*
X0037694Y0021177D01*
X0037711Y0021212D01*
X0037731Y0021246D01*
X0037755Y0021277D01*
X0037782Y0021306D01*
X0037811Y0021332D01*
X0037843Y0021355D01*
X0037877Y0021375D01*
X0037913Y0021391D01*
X0037950Y0021403D01*
X0037989Y0021412D01*
X0038028Y0021417D01*
X0038067Y0021418D01*
X0038106Y0021415D01*
X0038145Y0021408D01*
X0038182Y0021397D01*
X0038219Y0021383D01*
X0038254Y0021365D01*
X0038287Y0021344D01*
X0038318Y0021319D01*
X0038346Y0021292D01*
X0038371Y0021262D01*
X0038393Y0021229D01*
X0038412Y0021195D01*
X0038427Y0021159D01*
X0038439Y0021121D01*
X0038447Y0021083D01*
X0038451Y0021044D01*
X0038451Y0021004D01*
X0038447Y0020965D01*
X0038439Y0020927D01*
X0038427Y0020889D01*
X0038412Y0020853D01*
X0038393Y0020819D01*
X0038371Y0020786D01*
X0038346Y0020756D01*
X0038318Y0020729D01*
X0038287Y0020704D01*
X0038254Y0020683D01*
X0038219Y0020665D01*
X0038182Y0020651D01*
X0038145Y0020640D01*
X0038106Y0020633D01*
X0038067Y0020630D01*
X0038028Y0020631D01*
X0037989Y0020636D01*
X0037950Y0020645D01*
X0037913Y0020657D01*
X0037877Y0020673D01*
X0037843Y0020693D01*
X0037811Y0020716D01*
X0037782Y0020742D01*
X0037755Y0020771D01*
X0037731Y0020802D01*
X0037711Y0020836D01*
X0037694Y0020871D01*
X0037681Y0020908D01*
X0037671Y0020946D01*
X0037665Y0020985D01*
X0037663Y0021024D01*
X0056078Y0097855D02*
X0056080Y0097894D01*
X0056086Y0097933D01*
X0056096Y0097971D01*
X0056109Y0098008D01*
X0056126Y0098043D01*
X0056146Y0098077D01*
X0056170Y0098108D01*
X0056197Y0098137D01*
X0056226Y0098163D01*
X0056258Y0098186D01*
X0056292Y0098206D01*
X0056328Y0098222D01*
X0056365Y0098234D01*
X0056404Y0098243D01*
X0056443Y0098248D01*
X0056482Y0098249D01*
X0056521Y0098246D01*
X0056560Y0098239D01*
X0056597Y0098228D01*
X0056634Y0098214D01*
X0056669Y0098196D01*
X0056702Y0098175D01*
X0056733Y0098150D01*
X0056761Y0098123D01*
X0056786Y0098093D01*
X0056808Y0098060D01*
X0056827Y0098026D01*
X0056842Y0097990D01*
X0056854Y0097952D01*
X0056862Y0097914D01*
X0056866Y0097875D01*
X0056866Y0097835D01*
X0056862Y0097796D01*
X0056854Y0097758D01*
X0056842Y0097720D01*
X0056827Y0097684D01*
X0056808Y0097650D01*
X0056786Y0097617D01*
X0056761Y0097587D01*
X0056733Y0097560D01*
X0056702Y0097535D01*
X0056669Y0097514D01*
X0056634Y0097496D01*
X0056597Y0097482D01*
X0056560Y0097471D01*
X0056521Y0097464D01*
X0056482Y0097461D01*
X0056443Y0097462D01*
X0056404Y0097467D01*
X0056365Y0097476D01*
X0056328Y0097488D01*
X0056292Y0097504D01*
X0056258Y0097524D01*
X0056226Y0097547D01*
X0056197Y0097573D01*
X0056170Y0097602D01*
X0056146Y0097633D01*
X0056126Y0097667D01*
X0056109Y0097702D01*
X0056096Y0097739D01*
X0056086Y0097777D01*
X0056080Y0097816D01*
X0056078Y0097855D01*
X0032161Y0177009D02*
X0032163Y0177048D01*
X0032169Y0177087D01*
X0032179Y0177125D01*
X0032192Y0177162D01*
X0032209Y0177197D01*
X0032229Y0177231D01*
X0032253Y0177262D01*
X0032280Y0177291D01*
X0032309Y0177317D01*
X0032341Y0177340D01*
X0032375Y0177360D01*
X0032411Y0177376D01*
X0032448Y0177388D01*
X0032487Y0177397D01*
X0032526Y0177402D01*
X0032565Y0177403D01*
X0032604Y0177400D01*
X0032643Y0177393D01*
X0032680Y0177382D01*
X0032717Y0177368D01*
X0032752Y0177350D01*
X0032785Y0177329D01*
X0032816Y0177304D01*
X0032844Y0177277D01*
X0032869Y0177247D01*
X0032891Y0177214D01*
X0032910Y0177180D01*
X0032925Y0177144D01*
X0032937Y0177106D01*
X0032945Y0177068D01*
X0032949Y0177029D01*
X0032949Y0176989D01*
X0032945Y0176950D01*
X0032937Y0176912D01*
X0032925Y0176874D01*
X0032910Y0176838D01*
X0032891Y0176804D01*
X0032869Y0176771D01*
X0032844Y0176741D01*
X0032816Y0176714D01*
X0032785Y0176689D01*
X0032752Y0176668D01*
X0032717Y0176650D01*
X0032680Y0176636D01*
X0032643Y0176625D01*
X0032604Y0176618D01*
X0032565Y0176615D01*
X0032526Y0176616D01*
X0032487Y0176621D01*
X0032448Y0176630D01*
X0032411Y0176642D01*
X0032375Y0176658D01*
X0032341Y0176678D01*
X0032309Y0176701D01*
X0032280Y0176727D01*
X0032253Y0176756D01*
X0032229Y0176787D01*
X0032209Y0176821D01*
X0032192Y0176856D01*
X0032179Y0176893D01*
X0032169Y0176931D01*
X0032163Y0176970D01*
X0032161Y0177009D01*
X0015126Y0195050D02*
X0015128Y0195089D01*
X0015134Y0195128D01*
X0015144Y0195166D01*
X0015157Y0195203D01*
X0015174Y0195238D01*
X0015194Y0195272D01*
X0015218Y0195303D01*
X0015245Y0195332D01*
X0015274Y0195358D01*
X0015306Y0195381D01*
X0015340Y0195401D01*
X0015376Y0195417D01*
X0015413Y0195429D01*
X0015452Y0195438D01*
X0015491Y0195443D01*
X0015530Y0195444D01*
X0015569Y0195441D01*
X0015608Y0195434D01*
X0015645Y0195423D01*
X0015682Y0195409D01*
X0015717Y0195391D01*
X0015750Y0195370D01*
X0015781Y0195345D01*
X0015809Y0195318D01*
X0015834Y0195288D01*
X0015856Y0195255D01*
X0015875Y0195221D01*
X0015890Y0195185D01*
X0015902Y0195147D01*
X0015910Y0195109D01*
X0015914Y0195070D01*
X0015914Y0195030D01*
X0015910Y0194991D01*
X0015902Y0194953D01*
X0015890Y0194915D01*
X0015875Y0194879D01*
X0015856Y0194845D01*
X0015834Y0194812D01*
X0015809Y0194782D01*
X0015781Y0194755D01*
X0015750Y0194730D01*
X0015717Y0194709D01*
X0015682Y0194691D01*
X0015645Y0194677D01*
X0015608Y0194666D01*
X0015569Y0194659D01*
X0015530Y0194656D01*
X0015491Y0194657D01*
X0015452Y0194662D01*
X0015413Y0194671D01*
X0015376Y0194683D01*
X0015340Y0194699D01*
X0015306Y0194719D01*
X0015274Y0194742D01*
X0015245Y0194768D01*
X0015218Y0194797D01*
X0015194Y0194828D01*
X0015174Y0194862D01*
X0015157Y0194897D01*
X0015144Y0194934D01*
X0015134Y0194972D01*
X0015128Y0195011D01*
X0015126Y0195050D01*
X0105126Y0195050D02*
X0105128Y0195089D01*
X0105134Y0195128D01*
X0105144Y0195166D01*
X0105157Y0195203D01*
X0105174Y0195238D01*
X0105194Y0195272D01*
X0105218Y0195303D01*
X0105245Y0195332D01*
X0105274Y0195358D01*
X0105306Y0195381D01*
X0105340Y0195401D01*
X0105376Y0195417D01*
X0105413Y0195429D01*
X0105452Y0195438D01*
X0105491Y0195443D01*
X0105530Y0195444D01*
X0105569Y0195441D01*
X0105608Y0195434D01*
X0105645Y0195423D01*
X0105682Y0195409D01*
X0105717Y0195391D01*
X0105750Y0195370D01*
X0105781Y0195345D01*
X0105809Y0195318D01*
X0105834Y0195288D01*
X0105856Y0195255D01*
X0105875Y0195221D01*
X0105890Y0195185D01*
X0105902Y0195147D01*
X0105910Y0195109D01*
X0105914Y0195070D01*
X0105914Y0195030D01*
X0105910Y0194991D01*
X0105902Y0194953D01*
X0105890Y0194915D01*
X0105875Y0194879D01*
X0105856Y0194845D01*
X0105834Y0194812D01*
X0105809Y0194782D01*
X0105781Y0194755D01*
X0105750Y0194730D01*
X0105717Y0194709D01*
X0105682Y0194691D01*
X0105645Y0194677D01*
X0105608Y0194666D01*
X0105569Y0194659D01*
X0105530Y0194656D01*
X0105491Y0194657D01*
X0105452Y0194662D01*
X0105413Y0194671D01*
X0105376Y0194683D01*
X0105340Y0194699D01*
X0105306Y0194719D01*
X0105274Y0194742D01*
X0105245Y0194768D01*
X0105218Y0194797D01*
X0105194Y0194828D01*
X0105174Y0194862D01*
X0105157Y0194897D01*
X0105144Y0194934D01*
X0105134Y0194972D01*
X0105128Y0195011D01*
X0105126Y0195050D01*
D14*
X0002083Y0007550D02*
X0004583Y0005050D01*
X0009583Y0005050D01*
X0012083Y0007550D01*
X0012083Y0012550D01*
X0009583Y0015050D01*
X0012083Y0017550D01*
X0012083Y0022550D01*
X0009583Y0025050D01*
X0012083Y0027550D01*
X0012083Y0032550D01*
X0009583Y0035050D01*
X0012083Y0037550D01*
X0012083Y0042550D01*
X0009583Y0045050D01*
X0012083Y0047550D01*
X0012083Y0052550D01*
X0009583Y0055050D01*
X0012083Y0057550D01*
X0012083Y0062550D01*
X0009583Y0065050D01*
X0012083Y0067550D01*
X0012083Y0072550D01*
X0009583Y0075050D01*
X0012083Y0077550D01*
X0012083Y0082550D01*
X0009583Y0085050D01*
X0012083Y0087550D01*
X0012083Y0092550D01*
X0009583Y0095050D01*
X0012083Y0097550D01*
X0012083Y0102550D01*
X0009583Y0105050D01*
X0012083Y0107550D01*
X0012083Y0112550D01*
X0009583Y0115050D01*
X0012083Y0117550D01*
X0012083Y0122550D01*
X0009583Y0125050D01*
X0012083Y0127550D01*
X0012083Y0132550D01*
X0009583Y0135050D01*
X0012083Y0137550D01*
X0012083Y0142550D01*
X0009583Y0145050D01*
X0012083Y0147550D01*
X0012083Y0152550D01*
X0009583Y0155050D01*
X0012083Y0157550D01*
X0012083Y0162550D01*
X0009583Y0165050D01*
X0012083Y0167550D01*
X0012083Y0172550D01*
X0009583Y0175050D01*
X0012083Y0177550D01*
X0012083Y0182550D01*
X0009583Y0185050D01*
X0012083Y0187550D01*
X0012083Y0192550D01*
X0009583Y0195050D01*
X0012083Y0197550D01*
X0012083Y0202550D01*
X0009583Y0205050D01*
X0004583Y0205050D01*
X0002083Y0202550D01*
X0002083Y0197550D01*
X0004583Y0195050D01*
X0002083Y0192550D01*
X0002083Y0187550D01*
X0004583Y0185050D01*
X0002083Y0182550D01*
X0002083Y0177550D01*
X0004583Y0175050D01*
X0002083Y0172550D01*
X0002083Y0167550D01*
X0004583Y0165050D01*
X0002083Y0162550D01*
X0002083Y0157550D01*
X0004583Y0155050D01*
X0002083Y0152550D01*
X0002083Y0147550D01*
X0004583Y0145050D01*
X0002083Y0142550D01*
X0002083Y0137550D01*
X0004583Y0135050D01*
X0002083Y0132550D01*
X0002083Y0127550D01*
X0004583Y0125050D01*
X0002083Y0122550D01*
X0002083Y0117550D01*
X0004583Y0115050D01*
X0002083Y0112550D01*
X0002083Y0107550D01*
X0004583Y0105050D01*
X0002083Y0102550D01*
X0002083Y0097550D01*
X0004583Y0095050D01*
X0002083Y0092550D01*
X0002083Y0087550D01*
X0004583Y0085050D01*
X0002083Y0082550D01*
X0002083Y0077550D01*
X0004583Y0075050D01*
X0002083Y0072550D01*
X0002083Y0067550D01*
X0004583Y0065050D01*
X0002083Y0062550D01*
X0002083Y0057550D01*
X0004583Y0055050D01*
X0002083Y0052550D01*
X0002083Y0047550D01*
X0004583Y0045050D01*
X0002083Y0042550D01*
X0002083Y0037550D01*
X0004583Y0035050D01*
X0002083Y0032550D01*
X0002083Y0027550D01*
X0004583Y0025050D01*
X0002083Y0022550D01*
X0002083Y0017550D01*
X0004583Y0015050D01*
X0002083Y0012550D01*
X0002083Y0007550D01*
X0012083Y0007550D02*
X0014583Y0005050D01*
X0019583Y0005050D01*
X0022083Y0007550D01*
X0022083Y0012550D01*
X0019583Y0015050D01*
X0022083Y0017550D01*
X0022083Y0022550D01*
X0019583Y0025050D01*
X0022083Y0027550D01*
X0022083Y0032550D01*
X0019583Y0035050D01*
X0022083Y0037550D01*
X0022083Y0042550D01*
X0019583Y0045050D01*
X0022083Y0047550D01*
X0022083Y0052550D01*
X0019583Y0055050D01*
X0022083Y0057550D01*
X0022083Y0062550D01*
X0019583Y0065050D01*
X0022083Y0067550D01*
X0022083Y0072550D01*
X0019583Y0075050D01*
X0022083Y0077550D01*
X0022083Y0082550D01*
X0019583Y0085050D01*
X0022083Y0087550D01*
X0022083Y0092550D01*
X0019583Y0095050D01*
X0022083Y0097550D01*
X0022083Y0102550D01*
X0019583Y0105050D01*
X0022083Y0107550D01*
X0022083Y0112550D01*
X0019583Y0115050D01*
X0022083Y0117550D01*
X0022083Y0122550D01*
X0019583Y0125050D01*
X0022083Y0127550D01*
X0022083Y0132550D01*
X0019583Y0135050D01*
X0022083Y0137550D01*
X0022083Y0142550D01*
X0019583Y0145050D01*
X0022083Y0147550D01*
X0022083Y0152550D01*
X0019583Y0155050D01*
X0022083Y0157550D01*
X0022083Y0162550D01*
X0019583Y0165050D01*
X0022083Y0167550D01*
X0022083Y0172550D01*
X0019583Y0175050D01*
X0022083Y0177550D01*
X0022083Y0182550D01*
X0019583Y0185050D01*
X0022083Y0187550D01*
X0022083Y0192550D01*
X0019583Y0195050D01*
X0022083Y0195050D01*
X0022083Y0205050D01*
X0019583Y0205050D01*
X0014583Y0205050D01*
X0012083Y0205050D01*
X0012083Y0195050D01*
X0014583Y0195050D01*
X0012083Y0192550D01*
X0012083Y0187550D01*
X0014583Y0185050D01*
X0012083Y0182550D01*
X0012083Y0177550D01*
X0014583Y0175050D01*
X0012083Y0172550D01*
X0012083Y0167550D01*
X0014583Y0165050D01*
X0012083Y0162550D01*
X0012083Y0157550D01*
X0014583Y0155050D01*
X0012083Y0152550D01*
X0012083Y0147550D01*
X0014583Y0145050D01*
X0012083Y0142550D01*
X0012083Y0137550D01*
X0014583Y0135050D01*
X0012083Y0132550D01*
X0012083Y0127550D01*
X0014583Y0125050D01*
X0012083Y0122550D01*
X0012083Y0117550D01*
X0014583Y0115050D01*
X0012083Y0112550D01*
X0012083Y0107550D01*
X0014583Y0105050D01*
X0012083Y0102550D01*
X0012083Y0097550D01*
X0014583Y0095050D01*
X0012083Y0092550D01*
X0012083Y0087550D01*
X0014583Y0085050D01*
X0012083Y0082550D01*
X0012083Y0077550D01*
X0014583Y0075050D01*
X0012083Y0072550D01*
X0012083Y0067550D01*
X0014583Y0065050D01*
X0012083Y0062550D01*
X0012083Y0057550D01*
X0014583Y0055050D01*
X0012083Y0052550D01*
X0012083Y0047550D01*
X0014583Y0045050D01*
X0012083Y0042550D01*
X0012083Y0037550D01*
X0014583Y0035050D01*
X0012083Y0032550D01*
X0012083Y0027550D01*
X0014583Y0025050D01*
X0012083Y0022550D01*
X0012083Y0017550D01*
X0014583Y0015050D01*
X0012083Y0012550D01*
X0012083Y0007550D01*
X0102083Y0007550D02*
X0104583Y0005050D01*
X0109583Y0005050D01*
X0112083Y0007550D01*
X0114583Y0005050D01*
X0119583Y0005050D01*
X0122083Y0007550D01*
X0122083Y0012550D01*
X0119583Y0015050D01*
X0122083Y0017550D01*
X0122083Y0022550D01*
X0119583Y0025050D01*
X0122083Y0027550D01*
X0122083Y0032550D01*
X0119583Y0035050D01*
X0122083Y0037550D01*
X0122083Y0042550D01*
X0119583Y0045050D01*
X0122083Y0047550D01*
X0122083Y0052550D01*
X0119583Y0055050D01*
X0122083Y0057550D01*
X0122083Y0062550D01*
X0119583Y0065050D01*
X0122083Y0067550D01*
X0122083Y0072550D01*
X0119583Y0075050D01*
X0122083Y0077550D01*
X0122083Y0082550D01*
X0119583Y0085050D01*
X0122083Y0087550D01*
X0122083Y0092550D01*
X0119583Y0095050D01*
X0122083Y0097550D01*
X0122083Y0102550D01*
X0119583Y0105050D01*
X0122083Y0107550D01*
X0122083Y0112550D01*
X0119583Y0115050D01*
X0122083Y0117550D01*
X0122083Y0122550D01*
X0119583Y0125050D01*
X0122083Y0127550D01*
X0122083Y0132550D01*
X0119583Y0135050D01*
X0122083Y0137550D01*
X0122083Y0142550D01*
X0119583Y0145050D01*
X0122083Y0147550D01*
X0122083Y0152550D01*
X0119583Y0155050D01*
X0122083Y0157550D01*
X0122083Y0162550D01*
X0119583Y0165050D01*
X0122083Y0167550D01*
X0122083Y0172550D01*
X0119583Y0175050D01*
X0122083Y0177550D01*
X0122083Y0182550D01*
X0119583Y0185050D01*
X0122083Y0187550D01*
X0122083Y0192550D01*
X0119583Y0195050D01*
X0122083Y0197550D01*
X0122083Y0202550D01*
X0119583Y0205050D01*
X0114583Y0205050D01*
X0112083Y0202550D01*
X0112083Y0197550D01*
X0114583Y0195050D01*
X0112083Y0192550D01*
X0112083Y0187550D01*
X0114583Y0185050D01*
X0112083Y0182550D01*
X0112083Y0177550D01*
X0114583Y0175050D01*
X0112083Y0172550D01*
X0112083Y0167550D01*
X0114583Y0165050D01*
X0112083Y0162550D01*
X0112083Y0157550D01*
X0114583Y0155050D01*
X0112083Y0152550D01*
X0112083Y0147550D01*
X0114583Y0145050D01*
X0112083Y0142550D01*
X0112083Y0137550D01*
X0114583Y0135050D01*
X0112083Y0132550D01*
X0112083Y0127550D01*
X0114583Y0125050D01*
X0112083Y0122550D01*
X0112083Y0117550D01*
X0114583Y0115050D01*
X0112083Y0112550D01*
X0112083Y0107550D01*
X0114583Y0105050D01*
X0112083Y0102550D01*
X0112083Y0097550D01*
X0114583Y0095050D01*
X0112083Y0092550D01*
X0112083Y0087550D01*
X0114583Y0085050D01*
X0112083Y0082550D01*
X0112083Y0077550D01*
X0114583Y0075050D01*
X0112083Y0072550D01*
X0112083Y0067550D01*
X0114583Y0065050D01*
X0112083Y0062550D01*
X0112083Y0057550D01*
X0114583Y0055050D01*
X0112083Y0052550D01*
X0112083Y0047550D01*
X0114583Y0045050D01*
X0112083Y0042550D01*
X0112083Y0037550D01*
X0114583Y0035050D01*
X0112083Y0032550D01*
X0112083Y0027550D01*
X0114583Y0025050D01*
X0112083Y0022550D01*
X0112083Y0017550D01*
X0114583Y0015050D01*
X0112083Y0012550D01*
X0112083Y0007550D01*
X0112083Y0012550D01*
X0109583Y0015050D01*
X0112083Y0017550D01*
X0112083Y0022550D01*
X0109583Y0025050D01*
X0112083Y0027550D01*
X0112083Y0032550D01*
X0109583Y0035050D01*
X0112083Y0037550D01*
X0112083Y0042550D01*
X0109583Y0045050D01*
X0112083Y0047550D01*
X0112083Y0052550D01*
X0109583Y0055050D01*
X0112083Y0057550D01*
X0112083Y0062550D01*
X0109583Y0065050D01*
X0112083Y0067550D01*
X0112083Y0072550D01*
X0109583Y0075050D01*
X0112083Y0077550D01*
X0112083Y0082550D01*
X0109583Y0085050D01*
X0112083Y0087550D01*
X0112083Y0092550D01*
X0109583Y0095050D01*
X0112083Y0097550D01*
X0112083Y0102550D01*
X0109583Y0105050D01*
X0112083Y0107550D01*
X0112083Y0112550D01*
X0109583Y0115050D01*
X0112083Y0117550D01*
X0112083Y0122550D01*
X0109583Y0125050D01*
X0112083Y0127550D01*
X0112083Y0132550D01*
X0109583Y0135050D01*
X0112083Y0137550D01*
X0112083Y0142550D01*
X0109583Y0145050D01*
X0112083Y0147550D01*
X0112083Y0152550D01*
X0109583Y0155050D01*
X0112083Y0157550D01*
X0112083Y0162550D01*
X0109583Y0165050D01*
X0112083Y0167550D01*
X0112083Y0172550D01*
X0109583Y0175050D01*
X0112083Y0177550D01*
X0112083Y0182550D01*
X0109583Y0185050D01*
X0112083Y0187550D01*
X0112083Y0192550D01*
X0109583Y0195050D01*
X0112083Y0197550D01*
X0112083Y0202550D01*
X0109583Y0205050D01*
X0104583Y0205050D01*
X0102083Y0202550D01*
X0102083Y0197550D01*
X0104583Y0195050D01*
X0102083Y0192550D01*
X0102083Y0187550D01*
X0104583Y0185050D01*
X0102083Y0182550D01*
X0102083Y0177550D01*
X0104583Y0175050D01*
X0102083Y0172550D01*
X0102083Y0167550D01*
X0104583Y0165050D01*
X0102083Y0162550D01*
X0102083Y0157550D01*
X0104583Y0155050D01*
X0102083Y0152550D01*
X0102083Y0147550D01*
X0104583Y0145050D01*
X0102083Y0142550D01*
X0102083Y0137550D01*
X0104583Y0135050D01*
X0102083Y0132550D01*
X0102083Y0127550D01*
X0104583Y0125050D01*
X0102083Y0122550D01*
X0102083Y0117550D01*
X0104583Y0115050D01*
X0102083Y0112550D01*
X0102083Y0107550D01*
X0104583Y0105050D01*
X0102083Y0102550D01*
X0102083Y0097550D01*
X0104583Y0095050D01*
X0102083Y0092550D01*
X0102083Y0087550D01*
X0104583Y0085050D01*
X0102083Y0082550D01*
X0102083Y0077550D01*
X0104583Y0075050D01*
X0102083Y0072550D01*
X0102083Y0067550D01*
X0104583Y0065050D01*
X0102083Y0062550D01*
X0102083Y0057550D01*
X0104583Y0055050D01*
X0102083Y0052550D01*
X0102083Y0047550D01*
X0104583Y0045050D01*
X0102083Y0042550D01*
X0102083Y0037550D01*
X0104583Y0035050D01*
X0102083Y0032550D01*
X0102083Y0027550D01*
X0104583Y0025050D01*
X0102083Y0022550D01*
X0102083Y0017550D01*
X0104583Y0015050D01*
X0102083Y0012550D01*
X0102083Y0007550D01*
D15*
X0095163Y0014725D02*
X0095163Y0017875D01*
X0095164Y0017875D02*
X0095162Y0018006D01*
X0095156Y0018136D01*
X0095146Y0018267D01*
X0095132Y0018397D01*
X0095115Y0018527D01*
X0095093Y0018656D01*
X0095068Y0018784D01*
X0095038Y0018911D01*
X0095005Y0019038D01*
X0094968Y0019163D01*
X0094927Y0019288D01*
X0094883Y0019411D01*
X0094834Y0019532D01*
X0094782Y0019652D01*
X0094727Y0019771D01*
X0094668Y0019888D01*
X0094605Y0020003D01*
X0094539Y0020116D01*
X0094470Y0020227D01*
X0094397Y0020335D01*
X0094321Y0020442D01*
X0094242Y0020546D01*
X0094160Y0020648D01*
X0094075Y0020747D01*
X0093987Y0020844D01*
X0093895Y0020937D01*
X0093802Y0021029D01*
X0093705Y0021117D01*
X0093606Y0021202D01*
X0093504Y0021284D01*
X0093400Y0021363D01*
X0093293Y0021439D01*
X0093185Y0021512D01*
X0093074Y0021581D01*
X0092961Y0021647D01*
X0092846Y0021710D01*
X0092729Y0021769D01*
X0092610Y0021824D01*
X0092490Y0021876D01*
X0092369Y0021925D01*
X0092246Y0021969D01*
X0092121Y0022010D01*
X0091996Y0022047D01*
X0091869Y0022080D01*
X0091742Y0022110D01*
X0091614Y0022135D01*
X0091485Y0022157D01*
X0091355Y0022174D01*
X0091225Y0022188D01*
X0091094Y0022198D01*
X0090964Y0022204D01*
X0090833Y0022206D01*
X0090702Y0022204D01*
X0090572Y0022198D01*
X0090441Y0022188D01*
X0090311Y0022174D01*
X0090181Y0022157D01*
X0090052Y0022135D01*
X0089924Y0022110D01*
X0089797Y0022080D01*
X0089670Y0022047D01*
X0089545Y0022010D01*
X0089420Y0021969D01*
X0089297Y0021925D01*
X0089176Y0021876D01*
X0089056Y0021824D01*
X0088937Y0021769D01*
X0088820Y0021710D01*
X0088705Y0021647D01*
X0088592Y0021581D01*
X0088481Y0021512D01*
X0088373Y0021439D01*
X0088266Y0021363D01*
X0088162Y0021284D01*
X0088060Y0021202D01*
X0087961Y0021117D01*
X0087864Y0021029D01*
X0087771Y0020937D01*
X0087679Y0020844D01*
X0087591Y0020747D01*
X0087506Y0020648D01*
X0087424Y0020546D01*
X0087345Y0020442D01*
X0087269Y0020335D01*
X0087196Y0020227D01*
X0087127Y0020116D01*
X0087061Y0020003D01*
X0086998Y0019888D01*
X0086939Y0019771D01*
X0086884Y0019652D01*
X0086832Y0019532D01*
X0086783Y0019411D01*
X0086739Y0019288D01*
X0086698Y0019163D01*
X0086661Y0019038D01*
X0086628Y0018911D01*
X0086598Y0018784D01*
X0086573Y0018656D01*
X0086551Y0018527D01*
X0086534Y0018397D01*
X0086520Y0018267D01*
X0086510Y0018136D01*
X0086504Y0018006D01*
X0086502Y0017875D01*
X0086502Y0014725D01*
X0090833Y0010394D02*
X0090964Y0010396D01*
X0091094Y0010402D01*
X0091225Y0010412D01*
X0091355Y0010426D01*
X0091485Y0010443D01*
X0091614Y0010465D01*
X0091742Y0010490D01*
X0091869Y0010520D01*
X0091996Y0010553D01*
X0092121Y0010590D01*
X0092246Y0010631D01*
X0092369Y0010675D01*
X0092490Y0010724D01*
X0092610Y0010776D01*
X0092729Y0010831D01*
X0092846Y0010890D01*
X0092961Y0010953D01*
X0093074Y0011019D01*
X0093185Y0011088D01*
X0093293Y0011161D01*
X0093400Y0011237D01*
X0093504Y0011316D01*
X0093606Y0011398D01*
X0093705Y0011483D01*
X0093802Y0011571D01*
X0093895Y0011663D01*
X0093987Y0011756D01*
X0094075Y0011853D01*
X0094160Y0011952D01*
X0094242Y0012054D01*
X0094321Y0012158D01*
X0094397Y0012265D01*
X0094470Y0012373D01*
X0094539Y0012484D01*
X0094605Y0012597D01*
X0094668Y0012712D01*
X0094727Y0012829D01*
X0094782Y0012948D01*
X0094834Y0013068D01*
X0094883Y0013189D01*
X0094927Y0013312D01*
X0094968Y0013437D01*
X0095005Y0013562D01*
X0095038Y0013689D01*
X0095068Y0013816D01*
X0095093Y0013944D01*
X0095115Y0014073D01*
X0095132Y0014203D01*
X0095146Y0014333D01*
X0095156Y0014464D01*
X0095162Y0014594D01*
X0095164Y0014725D01*
X0090833Y0010394D02*
X0090702Y0010396D01*
X0090572Y0010402D01*
X0090441Y0010412D01*
X0090311Y0010426D01*
X0090181Y0010443D01*
X0090052Y0010465D01*
X0089924Y0010490D01*
X0089797Y0010520D01*
X0089670Y0010553D01*
X0089545Y0010590D01*
X0089420Y0010631D01*
X0089297Y0010675D01*
X0089176Y0010724D01*
X0089056Y0010776D01*
X0088937Y0010831D01*
X0088820Y0010890D01*
X0088705Y0010953D01*
X0088592Y0011019D01*
X0088481Y0011088D01*
X0088373Y0011161D01*
X0088266Y0011237D01*
X0088162Y0011316D01*
X0088060Y0011398D01*
X0087961Y0011483D01*
X0087864Y0011571D01*
X0087771Y0011663D01*
X0087679Y0011756D01*
X0087591Y0011853D01*
X0087506Y0011952D01*
X0087424Y0012054D01*
X0087345Y0012158D01*
X0087269Y0012265D01*
X0087196Y0012373D01*
X0087127Y0012484D01*
X0087061Y0012597D01*
X0086998Y0012712D01*
X0086939Y0012829D01*
X0086884Y0012948D01*
X0086832Y0013068D01*
X0086783Y0013189D01*
X0086739Y0013312D01*
X0086698Y0013437D01*
X0086661Y0013562D01*
X0086628Y0013689D01*
X0086598Y0013816D01*
X0086573Y0013944D01*
X0086551Y0014073D01*
X0086534Y0014203D01*
X0086520Y0014333D01*
X0086510Y0014464D01*
X0086504Y0014594D01*
X0086502Y0014725D01*
X0079681Y0019105D02*
X0079681Y0024774D01*
X0079681Y0008318D02*
X0079681Y0003475D01*
X0044484Y0003475D01*
X0044484Y0008318D01*
X0037663Y0014725D02*
X0037663Y0017875D01*
X0033333Y0022206D02*
X0033202Y0022204D01*
X0033072Y0022198D01*
X0032941Y0022188D01*
X0032811Y0022174D01*
X0032681Y0022157D01*
X0032552Y0022135D01*
X0032424Y0022110D01*
X0032297Y0022080D01*
X0032170Y0022047D01*
X0032045Y0022010D01*
X0031920Y0021969D01*
X0031797Y0021925D01*
X0031676Y0021876D01*
X0031556Y0021824D01*
X0031437Y0021769D01*
X0031320Y0021710D01*
X0031205Y0021647D01*
X0031092Y0021581D01*
X0030981Y0021512D01*
X0030873Y0021439D01*
X0030766Y0021363D01*
X0030662Y0021284D01*
X0030560Y0021202D01*
X0030461Y0021117D01*
X0030364Y0021029D01*
X0030271Y0020937D01*
X0030179Y0020844D01*
X0030091Y0020747D01*
X0030006Y0020648D01*
X0029924Y0020546D01*
X0029845Y0020442D01*
X0029769Y0020335D01*
X0029696Y0020227D01*
X0029627Y0020116D01*
X0029561Y0020003D01*
X0029498Y0019888D01*
X0029439Y0019771D01*
X0029384Y0019652D01*
X0029332Y0019532D01*
X0029283Y0019411D01*
X0029239Y0019288D01*
X0029198Y0019163D01*
X0029161Y0019038D01*
X0029128Y0018911D01*
X0029098Y0018784D01*
X0029073Y0018656D01*
X0029051Y0018527D01*
X0029034Y0018397D01*
X0029020Y0018267D01*
X0029010Y0018136D01*
X0029004Y0018006D01*
X0029002Y0017875D01*
X0029002Y0014725D01*
X0029004Y0014594D01*
X0029010Y0014464D01*
X0029020Y0014333D01*
X0029034Y0014203D01*
X0029051Y0014073D01*
X0029073Y0013944D01*
X0029098Y0013816D01*
X0029128Y0013689D01*
X0029161Y0013562D01*
X0029198Y0013437D01*
X0029239Y0013312D01*
X0029283Y0013189D01*
X0029332Y0013068D01*
X0029384Y0012948D01*
X0029439Y0012829D01*
X0029498Y0012712D01*
X0029561Y0012597D01*
X0029627Y0012484D01*
X0029696Y0012373D01*
X0029769Y0012265D01*
X0029845Y0012158D01*
X0029924Y0012054D01*
X0030006Y0011952D01*
X0030091Y0011853D01*
X0030179Y0011756D01*
X0030271Y0011663D01*
X0030364Y0011571D01*
X0030461Y0011483D01*
X0030560Y0011398D01*
X0030662Y0011316D01*
X0030766Y0011237D01*
X0030873Y0011161D01*
X0030981Y0011088D01*
X0031092Y0011019D01*
X0031205Y0010953D01*
X0031320Y0010890D01*
X0031437Y0010831D01*
X0031556Y0010776D01*
X0031676Y0010724D01*
X0031797Y0010675D01*
X0031920Y0010631D01*
X0032045Y0010590D01*
X0032170Y0010553D01*
X0032297Y0010520D01*
X0032424Y0010490D01*
X0032552Y0010465D01*
X0032681Y0010443D01*
X0032811Y0010426D01*
X0032941Y0010412D01*
X0033072Y0010402D01*
X0033202Y0010396D01*
X0033333Y0010394D01*
X0033464Y0010396D01*
X0033594Y0010402D01*
X0033725Y0010412D01*
X0033855Y0010426D01*
X0033985Y0010443D01*
X0034114Y0010465D01*
X0034242Y0010490D01*
X0034369Y0010520D01*
X0034496Y0010553D01*
X0034621Y0010590D01*
X0034746Y0010631D01*
X0034869Y0010675D01*
X0034990Y0010724D01*
X0035110Y0010776D01*
X0035229Y0010831D01*
X0035346Y0010890D01*
X0035461Y0010953D01*
X0035574Y0011019D01*
X0035685Y0011088D01*
X0035793Y0011161D01*
X0035900Y0011237D01*
X0036004Y0011316D01*
X0036106Y0011398D01*
X0036205Y0011483D01*
X0036302Y0011571D01*
X0036395Y0011663D01*
X0036487Y0011756D01*
X0036575Y0011853D01*
X0036660Y0011952D01*
X0036742Y0012054D01*
X0036821Y0012158D01*
X0036897Y0012265D01*
X0036970Y0012373D01*
X0037039Y0012484D01*
X0037105Y0012597D01*
X0037168Y0012712D01*
X0037227Y0012829D01*
X0037282Y0012948D01*
X0037334Y0013068D01*
X0037383Y0013189D01*
X0037427Y0013312D01*
X0037468Y0013437D01*
X0037505Y0013562D01*
X0037538Y0013689D01*
X0037568Y0013816D01*
X0037593Y0013944D01*
X0037615Y0014073D01*
X0037632Y0014203D01*
X0037646Y0014333D01*
X0037656Y0014464D01*
X0037662Y0014594D01*
X0037664Y0014725D01*
X0037664Y0017875D02*
X0037662Y0018006D01*
X0037656Y0018136D01*
X0037646Y0018267D01*
X0037632Y0018397D01*
X0037615Y0018527D01*
X0037593Y0018656D01*
X0037568Y0018784D01*
X0037538Y0018911D01*
X0037505Y0019038D01*
X0037468Y0019163D01*
X0037427Y0019288D01*
X0037383Y0019411D01*
X0037334Y0019532D01*
X0037282Y0019652D01*
X0037227Y0019771D01*
X0037168Y0019888D01*
X0037105Y0020003D01*
X0037039Y0020116D01*
X0036970Y0020227D01*
X0036897Y0020335D01*
X0036821Y0020442D01*
X0036742Y0020546D01*
X0036660Y0020648D01*
X0036575Y0020747D01*
X0036487Y0020844D01*
X0036395Y0020937D01*
X0036302Y0021029D01*
X0036205Y0021117D01*
X0036106Y0021202D01*
X0036004Y0021284D01*
X0035900Y0021363D01*
X0035793Y0021439D01*
X0035685Y0021512D01*
X0035574Y0021581D01*
X0035461Y0021647D01*
X0035346Y0021710D01*
X0035229Y0021769D01*
X0035110Y0021824D01*
X0034990Y0021876D01*
X0034869Y0021925D01*
X0034746Y0021969D01*
X0034621Y0022010D01*
X0034496Y0022047D01*
X0034369Y0022080D01*
X0034242Y0022110D01*
X0034114Y0022135D01*
X0033985Y0022157D01*
X0033855Y0022174D01*
X0033725Y0022188D01*
X0033594Y0022198D01*
X0033464Y0022204D01*
X0033333Y0022206D01*
X0044484Y0024774D02*
X0044484Y0019105D01*
D16*
X0039730Y0024568D02*
X0039730Y0008032D01*
X0035301Y0008032D02*
X0031364Y0008032D01*
X0026935Y0008032D02*
X0026935Y0024568D01*
X0031364Y0024568D02*
X0035301Y0024568D01*
X0036770Y0032237D02*
X0037395Y0032863D01*
X0038020Y0032237D01*
X0038333Y0032550D01*
X0038645Y0032550D01*
X0036770Y0032237D02*
X0036145Y0032863D01*
X0035833Y0032550D01*
X0035520Y0032550D01*
X0031502Y0041782D02*
X0031502Y0058318D01*
X0028645Y0056300D02*
X0028333Y0056300D01*
X0028020Y0055987D01*
X0027395Y0056612D01*
X0026770Y0055987D01*
X0026145Y0056612D01*
X0025833Y0056300D01*
X0025520Y0056300D01*
X0031896Y0053987D02*
X0035833Y0053987D01*
X0035833Y0055956D01*
X0035833Y0053987D02*
X0038589Y0050050D01*
X0033077Y0050050D01*
X0035833Y0053987D01*
X0039770Y0053987D01*
X0037292Y0051903D02*
X0034374Y0051903D01*
X0034723Y0052401D02*
X0036943Y0052401D01*
X0036594Y0052900D02*
X0035072Y0052900D01*
X0035420Y0053398D02*
X0036245Y0053398D01*
X0035896Y0053897D02*
X0035769Y0053897D01*
X0034025Y0051404D02*
X0037641Y0051404D01*
X0037990Y0050906D02*
X0033676Y0050906D01*
X0033327Y0050407D02*
X0038339Y0050407D01*
X0035833Y0050050D02*
X0035833Y0048081D01*
X0040163Y0041782D02*
X0040163Y0060680D01*
X0048020Y0046300D02*
X0048333Y0046300D01*
X0048645Y0046612D01*
X0049270Y0045987D01*
X0049895Y0046612D01*
X0050520Y0045987D01*
X0050833Y0046300D01*
X0051145Y0046300D01*
X0052240Y0052707D02*
X0054799Y0052707D01*
X0052240Y0052707D02*
X0052240Y0055267D01*
X0058020Y0046300D02*
X0058333Y0046300D01*
X0058645Y0046612D01*
X0059270Y0045987D01*
X0059895Y0046612D01*
X0060520Y0045987D01*
X0060833Y0046300D01*
X0061145Y0046300D01*
X0063020Y0046300D02*
X0063333Y0046300D01*
X0063645Y0046612D01*
X0064270Y0045987D01*
X0064895Y0046612D01*
X0065520Y0045987D01*
X0065833Y0046300D01*
X0066145Y0046300D01*
X0069366Y0052707D02*
X0071925Y0052707D01*
X0071925Y0055267D01*
X0073645Y0046612D02*
X0073333Y0046300D01*
X0073020Y0046300D01*
X0073645Y0046612D02*
X0074270Y0045987D01*
X0074895Y0046612D01*
X0075520Y0045987D01*
X0075833Y0046300D01*
X0076145Y0046300D01*
X0082083Y0056300D02*
X0081770Y0056612D01*
X0082395Y0057237D01*
X0081770Y0057862D01*
X0082395Y0058487D01*
X0082083Y0058800D01*
X0082083Y0059112D01*
X0082083Y0060987D02*
X0082083Y0061300D01*
X0081770Y0061612D01*
X0082395Y0062237D01*
X0081770Y0062862D01*
X0082395Y0063487D01*
X0082083Y0063800D01*
X0082083Y0064112D01*
X0082083Y0065988D02*
X0082083Y0066300D01*
X0081770Y0066613D01*
X0082395Y0067238D01*
X0081770Y0067863D01*
X0082395Y0068488D01*
X0082083Y0068800D01*
X0082083Y0069113D01*
X0088020Y0058800D02*
X0088333Y0058800D01*
X0088645Y0059112D01*
X0089270Y0058487D01*
X0089895Y0059112D01*
X0090520Y0058487D01*
X0090833Y0058800D01*
X0091145Y0058800D01*
X0093020Y0058800D02*
X0093333Y0058800D01*
X0093645Y0059112D01*
X0094270Y0058487D01*
X0094895Y0059112D01*
X0095520Y0058487D01*
X0095833Y0058800D01*
X0096145Y0058800D01*
X0092536Y0076034D02*
X0092538Y0076096D01*
X0092544Y0076159D01*
X0092554Y0076220D01*
X0092568Y0076281D01*
X0092585Y0076341D01*
X0092606Y0076400D01*
X0092632Y0076457D01*
X0092660Y0076512D01*
X0092692Y0076566D01*
X0092728Y0076617D01*
X0092766Y0076667D01*
X0092808Y0076713D01*
X0092852Y0076757D01*
X0092900Y0076798D01*
X0092949Y0076836D01*
X0093001Y0076870D01*
X0093055Y0076901D01*
X0093111Y0076929D01*
X0093169Y0076953D01*
X0093228Y0076974D01*
X0093288Y0076990D01*
X0093349Y0077003D01*
X0093411Y0077012D01*
X0093473Y0077017D01*
X0093536Y0077018D01*
X0093598Y0077015D01*
X0093660Y0077008D01*
X0093722Y0076997D01*
X0093782Y0076982D01*
X0093842Y0076964D01*
X0093900Y0076942D01*
X0093957Y0076916D01*
X0094012Y0076886D01*
X0094065Y0076853D01*
X0094116Y0076817D01*
X0094164Y0076778D01*
X0094210Y0076735D01*
X0094253Y0076690D01*
X0094293Y0076642D01*
X0094330Y0076592D01*
X0094364Y0076539D01*
X0094395Y0076485D01*
X0094421Y0076429D01*
X0094445Y0076371D01*
X0094464Y0076311D01*
X0094480Y0076251D01*
X0094492Y0076189D01*
X0094500Y0076128D01*
X0094504Y0076065D01*
X0094504Y0076003D01*
X0094500Y0075940D01*
X0094492Y0075879D01*
X0094480Y0075817D01*
X0094464Y0075757D01*
X0094445Y0075697D01*
X0094421Y0075639D01*
X0094395Y0075583D01*
X0094364Y0075529D01*
X0094330Y0075476D01*
X0094293Y0075426D01*
X0094253Y0075378D01*
X0094210Y0075333D01*
X0094164Y0075290D01*
X0094116Y0075251D01*
X0094065Y0075215D01*
X0094012Y0075182D01*
X0093957Y0075152D01*
X0093900Y0075126D01*
X0093842Y0075104D01*
X0093782Y0075086D01*
X0093722Y0075071D01*
X0093660Y0075060D01*
X0093598Y0075053D01*
X0093536Y0075050D01*
X0093473Y0075051D01*
X0093411Y0075056D01*
X0093349Y0075065D01*
X0093288Y0075078D01*
X0093228Y0075094D01*
X0093169Y0075115D01*
X0093111Y0075139D01*
X0093055Y0075167D01*
X0093001Y0075198D01*
X0092949Y0075232D01*
X0092900Y0075270D01*
X0092852Y0075311D01*
X0092808Y0075355D01*
X0092766Y0075401D01*
X0092728Y0075451D01*
X0092692Y0075502D01*
X0092660Y0075556D01*
X0092632Y0075611D01*
X0092606Y0075668D01*
X0092585Y0075727D01*
X0092568Y0075787D01*
X0092554Y0075848D01*
X0092544Y0075909D01*
X0092538Y0075972D01*
X0092536Y0076034D01*
X0093020Y0084738D02*
X0092395Y0085363D01*
X0092083Y0085050D01*
X0091770Y0085050D01*
X0093020Y0084738D02*
X0093645Y0085363D01*
X0094270Y0084738D01*
X0094583Y0085050D01*
X0094895Y0085050D01*
X0087395Y0085050D02*
X0087083Y0085050D01*
X0086770Y0084738D01*
X0086145Y0085363D01*
X0085520Y0084738D01*
X0084895Y0085363D01*
X0084583Y0085050D01*
X0084270Y0085050D01*
X0084662Y0094066D02*
X0084664Y0094128D01*
X0084670Y0094191D01*
X0084680Y0094252D01*
X0084694Y0094313D01*
X0084711Y0094373D01*
X0084732Y0094432D01*
X0084758Y0094489D01*
X0084786Y0094544D01*
X0084818Y0094598D01*
X0084854Y0094649D01*
X0084892Y0094699D01*
X0084934Y0094745D01*
X0084978Y0094789D01*
X0085026Y0094830D01*
X0085075Y0094868D01*
X0085127Y0094902D01*
X0085181Y0094933D01*
X0085237Y0094961D01*
X0085295Y0094985D01*
X0085354Y0095006D01*
X0085414Y0095022D01*
X0085475Y0095035D01*
X0085537Y0095044D01*
X0085599Y0095049D01*
X0085662Y0095050D01*
X0085724Y0095047D01*
X0085786Y0095040D01*
X0085848Y0095029D01*
X0085908Y0095014D01*
X0085968Y0094996D01*
X0086026Y0094974D01*
X0086083Y0094948D01*
X0086138Y0094918D01*
X0086191Y0094885D01*
X0086242Y0094849D01*
X0086290Y0094810D01*
X0086336Y0094767D01*
X0086379Y0094722D01*
X0086419Y0094674D01*
X0086456Y0094624D01*
X0086490Y0094571D01*
X0086521Y0094517D01*
X0086547Y0094461D01*
X0086571Y0094403D01*
X0086590Y0094343D01*
X0086606Y0094283D01*
X0086618Y0094221D01*
X0086626Y0094160D01*
X0086630Y0094097D01*
X0086630Y0094035D01*
X0086626Y0093972D01*
X0086618Y0093911D01*
X0086606Y0093849D01*
X0086590Y0093789D01*
X0086571Y0093729D01*
X0086547Y0093671D01*
X0086521Y0093615D01*
X0086490Y0093561D01*
X0086456Y0093508D01*
X0086419Y0093458D01*
X0086379Y0093410D01*
X0086336Y0093365D01*
X0086290Y0093322D01*
X0086242Y0093283D01*
X0086191Y0093247D01*
X0086138Y0093214D01*
X0086083Y0093184D01*
X0086026Y0093158D01*
X0085968Y0093136D01*
X0085908Y0093118D01*
X0085848Y0093103D01*
X0085786Y0093092D01*
X0085724Y0093085D01*
X0085662Y0093082D01*
X0085599Y0093083D01*
X0085537Y0093088D01*
X0085475Y0093097D01*
X0085414Y0093110D01*
X0085354Y0093126D01*
X0085295Y0093147D01*
X0085237Y0093171D01*
X0085181Y0093199D01*
X0085127Y0093230D01*
X0085075Y0093264D01*
X0085026Y0093302D01*
X0084978Y0093343D01*
X0084934Y0093387D01*
X0084892Y0093433D01*
X0084854Y0093483D01*
X0084818Y0093534D01*
X0084786Y0093588D01*
X0084758Y0093643D01*
X0084732Y0093700D01*
X0084711Y0093759D01*
X0084694Y0093819D01*
X0084680Y0093880D01*
X0084670Y0093941D01*
X0084664Y0094004D01*
X0084662Y0094066D01*
X0093579Y0106123D02*
X0097516Y0106123D01*
X0097516Y0109076D01*
X0071925Y0072393D02*
X0071925Y0069833D01*
X0071925Y0072393D02*
X0069366Y0072393D01*
X0068972Y0076005D02*
X0055193Y0076005D01*
X0055193Y0076989D01*
X0054799Y0072393D02*
X0052240Y0072393D01*
X0052240Y0069833D01*
X0055193Y0082107D02*
X0055193Y0086044D01*
X0055193Y0091556D02*
X0055193Y0095493D01*
X0055193Y0100611D02*
X0055193Y0101595D01*
X0068972Y0101595D01*
X0068972Y0096713D01*
X0068972Y0080887D02*
X0068972Y0076005D01*
X0082083Y0056300D02*
X0082083Y0055987D01*
X0086145Y0032863D02*
X0086770Y0032237D01*
X0087395Y0032863D01*
X0088020Y0032237D01*
X0088333Y0032550D01*
X0088645Y0032550D01*
X0086145Y0032863D02*
X0085833Y0032550D01*
X0085520Y0032550D01*
X0084435Y0024568D02*
X0084435Y0008032D01*
X0088864Y0008032D02*
X0092801Y0008032D01*
X0097230Y0008032D02*
X0097230Y0024568D01*
X0092801Y0024568D02*
X0088864Y0024568D01*
X0032083Y0070308D02*
X0032083Y0070847D01*
X0032083Y0070848D02*
X0032008Y0070850D01*
X0031934Y0070856D01*
X0031859Y0070865D01*
X0031786Y0070878D01*
X0031713Y0070895D01*
X0031641Y0070916D01*
X0031570Y0070940D01*
X0031501Y0070968D01*
X0031433Y0070999D01*
X0031367Y0071033D01*
X0031302Y0071071D01*
X0031240Y0071113D01*
X0031180Y0071157D01*
X0031122Y0071204D01*
X0031066Y0071254D01*
X0031013Y0071307D01*
X0030963Y0071363D01*
X0030916Y0071421D01*
X0030872Y0071481D01*
X0030830Y0071543D01*
X0030792Y0071608D01*
X0030758Y0071674D01*
X0030727Y0071742D01*
X0030699Y0071811D01*
X0030675Y0071882D01*
X0030654Y0071954D01*
X0030637Y0072027D01*
X0030624Y0072100D01*
X0030615Y0072175D01*
X0030609Y0072249D01*
X0030607Y0072324D01*
X0030609Y0072399D01*
X0030615Y0072473D01*
X0030624Y0072548D01*
X0030637Y0072621D01*
X0030654Y0072694D01*
X0030675Y0072766D01*
X0030699Y0072837D01*
X0030727Y0072906D01*
X0030758Y0072974D01*
X0030792Y0073040D01*
X0030830Y0073105D01*
X0030872Y0073167D01*
X0030916Y0073227D01*
X0030963Y0073285D01*
X0031013Y0073341D01*
X0031066Y0073394D01*
X0031122Y0073444D01*
X0031180Y0073491D01*
X0031240Y0073535D01*
X0031302Y0073577D01*
X0031367Y0073615D01*
X0031433Y0073649D01*
X0031501Y0073680D01*
X0031570Y0073708D01*
X0031641Y0073732D01*
X0031713Y0073753D01*
X0031786Y0073770D01*
X0031859Y0073783D01*
X0031934Y0073792D01*
X0032008Y0073798D01*
X0032083Y0073800D01*
X0033559Y0075276D02*
X0033557Y0075351D01*
X0033551Y0075425D01*
X0033542Y0075500D01*
X0033529Y0075573D01*
X0033512Y0075646D01*
X0033491Y0075718D01*
X0033467Y0075789D01*
X0033439Y0075858D01*
X0033408Y0075926D01*
X0033374Y0075992D01*
X0033336Y0076057D01*
X0033294Y0076119D01*
X0033250Y0076179D01*
X0033203Y0076237D01*
X0033153Y0076293D01*
X0033100Y0076346D01*
X0033044Y0076396D01*
X0032986Y0076443D01*
X0032926Y0076487D01*
X0032864Y0076529D01*
X0032799Y0076567D01*
X0032733Y0076601D01*
X0032665Y0076632D01*
X0032596Y0076660D01*
X0032525Y0076684D01*
X0032453Y0076705D01*
X0032380Y0076722D01*
X0032307Y0076735D01*
X0032232Y0076744D01*
X0032158Y0076750D01*
X0032083Y0076752D01*
X0032083Y0076753D02*
X0032083Y0077292D01*
X0033559Y0075276D02*
X0033557Y0075201D01*
X0033551Y0075127D01*
X0033542Y0075052D01*
X0033529Y0074979D01*
X0033512Y0074906D01*
X0033491Y0074834D01*
X0033467Y0074763D01*
X0033439Y0074694D01*
X0033408Y0074626D01*
X0033374Y0074560D01*
X0033336Y0074495D01*
X0033294Y0074433D01*
X0033250Y0074373D01*
X0033203Y0074315D01*
X0033153Y0074259D01*
X0033100Y0074206D01*
X0033044Y0074156D01*
X0032986Y0074109D01*
X0032926Y0074065D01*
X0032864Y0074023D01*
X0032799Y0073985D01*
X0032733Y0073951D01*
X0032665Y0073920D01*
X0032596Y0073892D01*
X0032525Y0073868D01*
X0032453Y0073847D01*
X0032380Y0073830D01*
X0032307Y0073817D01*
X0032232Y0073808D01*
X0032158Y0073802D01*
X0032083Y0073800D01*
X0030587Y0106123D02*
X0026650Y0106123D01*
X0026650Y0109076D01*
X0026650Y0180926D02*
X0026650Y0206517D01*
X0097516Y0206517D01*
X0097516Y0180926D01*
D17*
X0082801Y0092540D02*
X0078864Y0092540D01*
X0078864Y0085060D01*
X0082801Y0085060D01*
X0082801Y0092540D01*
X0083864Y0088790D02*
X0087801Y0088790D01*
X0087801Y0081310D01*
X0083864Y0081310D01*
X0083864Y0088790D01*
X0091364Y0088790D02*
X0091364Y0081310D01*
X0095301Y0081310D01*
X0095301Y0088790D01*
X0091364Y0088790D01*
X0085823Y0069519D02*
X0085823Y0065581D01*
X0078343Y0065581D01*
X0078343Y0069519D01*
X0085823Y0069519D01*
X0085823Y0064519D02*
X0085823Y0060581D01*
X0078343Y0060581D01*
X0078343Y0064519D01*
X0085823Y0064519D01*
X0087614Y0062540D02*
X0091551Y0062540D01*
X0091551Y0055060D01*
X0087614Y0055060D01*
X0087614Y0062540D01*
X0085823Y0059519D02*
X0085823Y0055581D01*
X0078343Y0055581D01*
X0078343Y0059519D01*
X0085823Y0059519D01*
X0085823Y0055144D02*
X0085823Y0051206D01*
X0078343Y0051206D01*
X0078343Y0055144D01*
X0085823Y0055144D01*
X0087614Y0050040D02*
X0091551Y0050040D01*
X0091551Y0042560D01*
X0087614Y0042560D01*
X0087614Y0050040D01*
X0086748Y0049450D02*
X0082417Y0049450D01*
X0082417Y0043150D01*
X0086748Y0043150D01*
X0086748Y0049450D01*
X0081551Y0050040D02*
X0081551Y0042560D01*
X0077614Y0042560D01*
X0077614Y0050040D01*
X0081551Y0050040D01*
X0076551Y0050040D02*
X0076551Y0042560D01*
X0072614Y0042560D01*
X0072614Y0050040D01*
X0076551Y0050040D01*
X0071551Y0050040D02*
X0071551Y0042560D01*
X0067614Y0042560D01*
X0067614Y0050040D01*
X0071551Y0050040D01*
X0066551Y0050040D02*
X0066551Y0042560D01*
X0062614Y0042560D01*
X0062614Y0050040D01*
X0066551Y0050040D01*
X0061551Y0050040D02*
X0061551Y0042560D01*
X0057614Y0042560D01*
X0057614Y0050040D01*
X0061551Y0050040D01*
X0056551Y0050040D02*
X0056551Y0042560D01*
X0052614Y0042560D01*
X0052614Y0050040D01*
X0056551Y0050040D01*
X0051551Y0050040D02*
X0051551Y0042560D01*
X0047614Y0042560D01*
X0047614Y0050040D01*
X0051551Y0050040D01*
X0046551Y0050040D02*
X0046551Y0042560D01*
X0042614Y0042560D01*
X0042614Y0050040D01*
X0046551Y0050040D01*
X0039051Y0036290D02*
X0039051Y0028810D01*
X0035114Y0028810D01*
X0035114Y0036290D01*
X0039051Y0036290D01*
X0031551Y0036290D02*
X0031551Y0028810D01*
X0027614Y0028810D01*
X0027614Y0036290D01*
X0031551Y0036290D01*
X0029248Y0041182D02*
X0024917Y0041182D01*
X0024917Y0051418D01*
X0029248Y0051418D01*
X0029248Y0041182D01*
X0029051Y0052560D02*
X0025114Y0052560D01*
X0025114Y0060040D01*
X0029051Y0060040D01*
X0029051Y0052560D01*
X0027555Y0064548D02*
X0036610Y0064548D01*
X0036610Y0083052D01*
X0027555Y0083052D01*
X0027555Y0064548D01*
X0037395Y0065362D02*
X0044270Y0065362D01*
X0044270Y0077238D01*
X0037395Y0077238D01*
X0037395Y0065362D01*
X0045114Y0070060D02*
X0049051Y0070060D01*
X0049051Y0077540D01*
X0045114Y0077540D01*
X0045114Y0070060D01*
X0040520Y0085363D02*
X0028645Y0085363D01*
X0028645Y0092237D01*
X0040520Y0092237D01*
X0040520Y0085363D01*
X0038323Y0093081D02*
X0030843Y0093081D01*
X0030843Y0097019D01*
X0038323Y0097019D01*
X0038323Y0093081D01*
X0085114Y0036290D02*
X0085114Y0028810D01*
X0089051Y0028810D01*
X0089051Y0036290D01*
X0085114Y0036290D01*
X0092614Y0036290D02*
X0092614Y0028810D01*
X0096551Y0028810D01*
X0096551Y0036290D01*
X0092614Y0036290D01*
X0092417Y0041182D02*
X0092417Y0051418D01*
X0096748Y0051418D01*
X0096748Y0041182D01*
X0092417Y0041182D01*
X0092614Y0055060D02*
X0092614Y0062540D01*
X0096551Y0062540D01*
X0096551Y0055060D01*
X0092614Y0055060D01*
D18*
X0094583Y0047383D02*
X0094583Y0047038D01*
X0095764Y0045562D01*
X0093402Y0045562D01*
X0094583Y0047038D01*
X0096059Y0047038D01*
X0095031Y0046478D02*
X0094134Y0046478D01*
X0093821Y0046086D02*
X0095345Y0046086D01*
X0095659Y0045693D02*
X0093507Y0045693D01*
X0094583Y0045709D02*
X0094583Y0045217D01*
X0094448Y0046870D02*
X0094717Y0046870D01*
X0094583Y0047038D02*
X0093106Y0047038D01*
X0090803Y0046644D02*
X0089583Y0046644D01*
X0088362Y0046644D01*
X0088362Y0045956D02*
X0089583Y0045956D01*
X0090803Y0045956D01*
X0093362Y0032894D02*
X0094583Y0032894D01*
X0095803Y0032894D01*
X0095803Y0032206D02*
X0094583Y0032206D01*
X0093362Y0032206D01*
X0082427Y0051955D02*
X0082427Y0053175D01*
X0082427Y0054395D01*
X0081738Y0054395D02*
X0081738Y0053175D01*
X0081738Y0051955D01*
X0080803Y0046644D02*
X0079583Y0046644D01*
X0078362Y0046644D01*
X0078362Y0045956D02*
X0079583Y0045956D01*
X0080803Y0045956D01*
X0070803Y0045956D02*
X0069583Y0045956D01*
X0068362Y0045956D01*
X0068362Y0046644D02*
X0069583Y0046644D01*
X0070803Y0046644D01*
X0055803Y0046644D02*
X0054583Y0046644D01*
X0053362Y0046644D01*
X0053362Y0045956D02*
X0054583Y0045956D01*
X0055803Y0045956D01*
X0045803Y0045956D02*
X0044583Y0045956D01*
X0043362Y0045956D01*
X0043362Y0046644D02*
X0044583Y0046644D01*
X0045803Y0046644D01*
X0030803Y0032894D02*
X0029583Y0032894D01*
X0028362Y0032894D01*
X0028362Y0032206D02*
X0029583Y0032206D01*
X0030803Y0032206D01*
X0027083Y0045217D02*
X0027083Y0045709D01*
X0026321Y0046086D02*
X0027845Y0046086D01*
X0027531Y0046478D02*
X0026634Y0046478D01*
X0026948Y0046870D02*
X0027217Y0046870D01*
X0027083Y0047038D02*
X0028264Y0045562D01*
X0025902Y0045562D01*
X0027083Y0047038D01*
X0027083Y0047383D01*
X0027083Y0047038D02*
X0028559Y0047038D01*
X0028159Y0045693D02*
X0026007Y0045693D01*
X0025606Y0047038D02*
X0027083Y0047038D01*
X0045862Y0073456D02*
X0047083Y0073456D01*
X0048303Y0073456D01*
X0048303Y0074144D02*
X0047083Y0074144D01*
X0045862Y0074144D01*
X0034927Y0093830D02*
X0034927Y0095050D01*
X0034927Y0096270D01*
X0034238Y0096270D02*
X0034238Y0095050D01*
X0034238Y0093830D01*
X0079612Y0089144D02*
X0080833Y0089144D01*
X0082053Y0089144D01*
X0082053Y0088456D02*
X0080833Y0088456D01*
X0079612Y0088456D01*
D19*
X0083874Y0092491D02*
X0083874Y0097609D01*
X0087024Y0097609D01*
X0087811Y0092491D02*
X0091354Y0092491D01*
X0093958Y0096925D02*
X0093958Y0103175D01*
X0100208Y0103175D01*
X0100208Y0096925D01*
X0093958Y0096925D01*
X0095291Y0097609D02*
X0092142Y0097609D01*
X0095291Y0097609D02*
X0095291Y0092491D01*
X0095291Y0077609D02*
X0095291Y0072491D01*
X0092142Y0072491D01*
X0091354Y0077609D02*
X0087811Y0077609D01*
X0087024Y0072491D02*
X0083874Y0072491D01*
X0083874Y0077609D01*
X0083008Y0046694D02*
X0083402Y0046300D01*
X0083795Y0046300D01*
X0085370Y0046300D01*
X0085764Y0046300D01*
X0086157Y0045906D01*
X0042407Y0069602D02*
X0040833Y0069602D01*
X0039258Y0069602D01*
X0040833Y0069602D02*
X0040833Y0068643D01*
X0040833Y0072998D02*
X0039258Y0072998D01*
X0040833Y0072998D02*
X0040833Y0073957D01*
X0040833Y0072998D02*
X0042407Y0072998D01*
X0036281Y0087225D02*
X0036281Y0088800D01*
X0037240Y0088800D01*
X0036281Y0088800D02*
X0036281Y0090375D01*
X0032885Y0090375D02*
X0032885Y0088800D01*
X0032885Y0087225D01*
X0032885Y0088800D02*
X0031925Y0088800D01*
X0030208Y0096925D02*
X0023958Y0096925D01*
X0023958Y0103175D01*
X0030208Y0103175D01*
X0030208Y0096925D01*
D20*
X0055520Y0116300D02*
X0061145Y0116300D01*
X0061145Y0118175D02*
X0059270Y0118175D01*
X0059270Y0120050D01*
X0061145Y0120050D01*
X0061145Y0121925D02*
X0057395Y0121925D01*
X0057395Y0123800D01*
X0057395Y0125675D01*
X0061145Y0125675D01*
X0061145Y0123800D02*
X0057395Y0123800D01*
X0057395Y0120050D02*
X0059270Y0120050D01*
X0057395Y0120050D02*
X0057395Y0118175D01*
X0059270Y0118175D01*
X0055520Y0116300D02*
X0055520Y0125675D01*
X0063020Y0125675D02*
X0063020Y0116300D01*
X0068645Y0116300D01*
X0068645Y0118175D02*
X0068645Y0120050D01*
X0064895Y0120050D01*
X0064895Y0118175D01*
X0068645Y0118175D01*
X0068645Y0121925D02*
X0068645Y0123800D01*
X0068645Y0121925D02*
X0064895Y0121925D01*
X0064895Y0123800D01*
X0064895Y0125675D02*
X0068645Y0125675D01*
X0066770Y0123800D02*
X0066770Y0122550D01*
D21*
X0031496Y0194803D03*
D22*
X0036464Y0202630D03*
D23*
X0041367Y0196776D03*
D24*
X0046303Y0192806D03*
D25*
X0051227Y0196787D03*
D26*
X0056155Y0202688D03*
D27*
X0061094Y0196789D03*
D28*
X0066014Y0192869D03*
D29*
X0070963Y0196809D03*
D30*
X0080814Y0202661D03*
D31*
X0090677Y0193794D03*
D32*
X0080818Y0193798D03*
D33*
X0090671Y0182956D03*
D34*
X0080811Y0182953D03*
D35*
X0031527Y0184918D03*
D36*
X0070960Y0200739D03*
M02*
