G75*
%MOIN*%
%OFA0B0*%
%FSLAX25Y25*%
%IPPOS*%
%LPD*%
%AMOC8*
5,1,8,0,0,1.08239X$1,22.5*
%
%ADD10R,0.08000X0.08000*%
%ADD11C,0.08000*%
%ADD12R,0.02962X0.05718*%
%ADD13R,0.01781X0.06309*%
%ADD14C,0.04734*%
%ADD15C,0.03356*%
%ADD16R,0.03159X0.05324*%
%ADD17R,0.09065X0.04340*%
%ADD18R,0.09065X0.13395*%
%ADD19R,0.03041X0.03041*%
%ADD20R,0.08080X0.05324*%
%ADD21R,0.06112X0.04143*%
%ADD22R,0.04143X0.06112*%
%ADD23R,0.03750X0.03750*%
%ADD24R,0.02569X0.02175*%
%ADD25R,0.02569X0.02962*%
%ADD26C,0.04537*%
%ADD27C,0.00912*%
%ADD28R,0.04143X0.04143*%
%ADD29R,0.05324X0.05324*%
%ADD30C,0.00122*%
%ADD31R,0.11624X0.11624*%
%ADD32R,0.06899X0.04537*%
D10*
X0007083Y0010050D03*
X0007083Y0020050D03*
X0007083Y0030050D03*
X0007083Y0040050D03*
X0007083Y0050050D03*
X0007083Y0060050D03*
X0007083Y0070050D03*
X0007083Y0080050D03*
X0007083Y0090050D03*
X0007083Y0100050D03*
X0007083Y0110050D03*
X0007083Y0120050D03*
X0007083Y0130050D03*
X0007083Y0140050D03*
X0007083Y0150050D03*
X0007083Y0160050D03*
X0007083Y0170050D03*
X0007083Y0180050D03*
X0007083Y0190050D03*
X0007083Y0200050D03*
X0017083Y0200050D03*
X0117083Y0200050D03*
X0117083Y0190050D03*
X0117083Y0180050D03*
X0117083Y0170050D03*
X0117083Y0160050D03*
X0117083Y0150050D03*
X0117083Y0140050D03*
X0117083Y0130050D03*
X0117083Y0120050D03*
X0117083Y0110050D03*
X0117083Y0100050D03*
X0117083Y0090050D03*
X0117083Y0080050D03*
X0117083Y0070050D03*
X0117083Y0060050D03*
X0117083Y0050050D03*
X0117083Y0040050D03*
X0117083Y0030050D03*
X0117083Y0020050D03*
X0117083Y0010050D03*
D11*
X0107083Y0010050D03*
X0107083Y0020050D03*
X0107083Y0030050D03*
X0107083Y0040050D03*
X0107083Y0050050D03*
X0107083Y0060050D03*
X0107083Y0070050D03*
X0107083Y0080050D03*
X0107083Y0090050D03*
X0107083Y0100050D03*
X0107083Y0110050D03*
X0107083Y0120050D03*
X0107083Y0130050D03*
X0107083Y0140050D03*
X0107083Y0150050D03*
X0107083Y0160050D03*
X0107083Y0170050D03*
X0107083Y0180050D03*
X0107083Y0190050D03*
X0107083Y0200050D03*
X0017083Y0190050D03*
X0017083Y0180050D03*
X0017083Y0170050D03*
X0017083Y0160050D03*
X0017083Y0150050D03*
X0017083Y0140050D03*
X0017083Y0130050D03*
X0017083Y0120050D03*
X0017083Y0110050D03*
X0017083Y0100050D03*
X0017083Y0090050D03*
X0017083Y0080050D03*
X0017083Y0070050D03*
X0017083Y0060050D03*
X0017083Y0050050D03*
X0017083Y0040050D03*
X0017083Y0030050D03*
X0017083Y0020050D03*
X0017083Y0010050D03*
D12*
X0049287Y0034066D03*
X0052437Y0034066D03*
X0071728Y0034066D03*
X0074878Y0034066D03*
D13*
X0068972Y0033770D03*
X0067004Y0033770D03*
X0065035Y0033770D03*
X0063067Y0033770D03*
X0061098Y0033770D03*
X0059130Y0033770D03*
X0057161Y0033770D03*
X0055193Y0033770D03*
D14*
X0045075Y0032235D02*
X0045075Y0028101D01*
X0045075Y0015778D02*
X0045075Y0011644D01*
X0079091Y0011644D02*
X0079091Y0015778D01*
X0079091Y0028101D02*
X0079091Y0032235D01*
D15*
X0073461Y0028081D03*
X0050705Y0028081D03*
D16*
X0037565Y0024765D03*
X0029100Y0024765D03*
X0029100Y0007835D03*
X0037565Y0007835D03*
X0086600Y0007835D03*
X0095065Y0007835D03*
X0095065Y0024765D03*
X0086600Y0024765D03*
D17*
X0050665Y0079745D03*
X0050665Y0088800D03*
X0050665Y0097855D03*
D18*
X0073500Y0088800D03*
D19*
X0080833Y0087028D03*
X0080833Y0090572D03*
X0085833Y0086822D03*
X0085833Y0083278D03*
X0093333Y0083278D03*
X0093333Y0086822D03*
X0083854Y0067550D03*
X0080311Y0067550D03*
X0080311Y0062550D03*
X0080311Y0057550D03*
X0080311Y0053175D03*
X0083854Y0053175D03*
X0083854Y0057550D03*
X0083854Y0062550D03*
X0089583Y0060572D03*
X0089583Y0057028D03*
X0094583Y0057028D03*
X0094583Y0060572D03*
X0089583Y0048072D03*
X0089583Y0044528D03*
X0087083Y0034322D03*
X0087083Y0030778D03*
X0094583Y0030778D03*
X0094583Y0034322D03*
X0079583Y0044528D03*
X0079583Y0048072D03*
X0074583Y0048072D03*
X0074583Y0044528D03*
X0069583Y0044528D03*
X0069583Y0048072D03*
X0064583Y0048072D03*
X0064583Y0044528D03*
X0059583Y0044528D03*
X0059583Y0048072D03*
X0054583Y0048072D03*
X0054583Y0044528D03*
X0049583Y0044528D03*
X0049583Y0048072D03*
X0044583Y0048072D03*
X0044583Y0044528D03*
X0037083Y0034322D03*
X0037083Y0030778D03*
X0029583Y0030778D03*
X0029583Y0034322D03*
X0027083Y0054528D03*
X0027083Y0058072D03*
X0047083Y0072028D03*
X0047083Y0075572D03*
X0036354Y0095050D03*
X0032811Y0095050D03*
D20*
X0035833Y0058711D03*
X0035833Y0041389D03*
D21*
X0040833Y0067757D03*
X0040833Y0074843D03*
D22*
X0038126Y0088800D03*
X0031039Y0088800D03*
D23*
X0027083Y0049253D03*
X0027083Y0043347D03*
X0094583Y0043347D03*
X0094583Y0049253D03*
D24*
X0084583Y0047875D03*
X0084583Y0044725D03*
D25*
X0089583Y0071113D03*
X0093323Y0078987D03*
X0085843Y0078987D03*
X0085843Y0091113D03*
X0089583Y0098987D03*
X0093323Y0091113D03*
D26*
X0073333Y0013800D03*
X0050833Y0013800D03*
X0024426Y0200050D03*
D27*
X0024837Y0175394D02*
X0030431Y0175394D01*
X0024837Y0175394D02*
X0024837Y0178624D01*
X0030431Y0178624D01*
X0030431Y0175394D01*
X0030431Y0176305D02*
X0024837Y0176305D01*
X0024837Y0177216D02*
X0030431Y0177216D01*
X0030431Y0178127D02*
X0024837Y0178127D01*
X0024837Y0170394D02*
X0030431Y0170394D01*
X0024837Y0170394D02*
X0024837Y0173624D01*
X0030431Y0173624D01*
X0030431Y0170394D01*
X0030431Y0171305D02*
X0024837Y0171305D01*
X0024837Y0172216D02*
X0030431Y0172216D01*
X0030431Y0173127D02*
X0024837Y0173127D01*
X0024837Y0165394D02*
X0030431Y0165394D01*
X0024837Y0165394D02*
X0024837Y0168624D01*
X0030431Y0168624D01*
X0030431Y0165394D01*
X0030431Y0166305D02*
X0024837Y0166305D01*
X0024837Y0167216D02*
X0030431Y0167216D01*
X0030431Y0168127D02*
X0024837Y0168127D01*
X0024837Y0160394D02*
X0030431Y0160394D01*
X0024837Y0160394D02*
X0024837Y0163624D01*
X0030431Y0163624D01*
X0030431Y0160394D01*
X0030431Y0161305D02*
X0024837Y0161305D01*
X0024837Y0162216D02*
X0030431Y0162216D01*
X0030431Y0163127D02*
X0024837Y0163127D01*
X0024837Y0155394D02*
X0030431Y0155394D01*
X0024837Y0155394D02*
X0024837Y0158624D01*
X0030431Y0158624D01*
X0030431Y0155394D01*
X0030431Y0156305D02*
X0024837Y0156305D01*
X0024837Y0157216D02*
X0030431Y0157216D01*
X0030431Y0158127D02*
X0024837Y0158127D01*
X0024837Y0150394D02*
X0030431Y0150394D01*
X0024837Y0150394D02*
X0024837Y0153624D01*
X0030431Y0153624D01*
X0030431Y0150394D01*
X0030431Y0151305D02*
X0024837Y0151305D01*
X0024837Y0152216D02*
X0030431Y0152216D01*
X0030431Y0153127D02*
X0024837Y0153127D01*
X0024837Y0145394D02*
X0030431Y0145394D01*
X0024837Y0145394D02*
X0024837Y0148624D01*
X0030431Y0148624D01*
X0030431Y0145394D01*
X0030431Y0146305D02*
X0024837Y0146305D01*
X0024837Y0147216D02*
X0030431Y0147216D01*
X0030431Y0148127D02*
X0024837Y0148127D01*
X0024837Y0140394D02*
X0030431Y0140394D01*
X0024837Y0140394D02*
X0024837Y0143624D01*
X0030431Y0143624D01*
X0030431Y0140394D01*
X0030431Y0141305D02*
X0024837Y0141305D01*
X0024837Y0142216D02*
X0030431Y0142216D01*
X0030431Y0143127D02*
X0024837Y0143127D01*
X0024837Y0135394D02*
X0030431Y0135394D01*
X0024837Y0135394D02*
X0024837Y0138624D01*
X0030431Y0138624D01*
X0030431Y0135394D01*
X0030431Y0136305D02*
X0024837Y0136305D01*
X0024837Y0137216D02*
X0030431Y0137216D01*
X0030431Y0138127D02*
X0024837Y0138127D01*
X0024837Y0130394D02*
X0030431Y0130394D01*
X0024837Y0130394D02*
X0024837Y0133624D01*
X0030431Y0133624D01*
X0030431Y0130394D01*
X0030431Y0131305D02*
X0024837Y0131305D01*
X0024837Y0132216D02*
X0030431Y0132216D01*
X0030431Y0133127D02*
X0024837Y0133127D01*
X0024837Y0125394D02*
X0030431Y0125394D01*
X0024837Y0125394D02*
X0024837Y0128624D01*
X0030431Y0128624D01*
X0030431Y0125394D01*
X0030431Y0126305D02*
X0024837Y0126305D01*
X0024837Y0127216D02*
X0030431Y0127216D01*
X0030431Y0128127D02*
X0024837Y0128127D01*
X0024837Y0120394D02*
X0030431Y0120394D01*
X0024837Y0120394D02*
X0024837Y0123624D01*
X0030431Y0123624D01*
X0030431Y0120394D01*
X0030431Y0121305D02*
X0024837Y0121305D01*
X0024837Y0122216D02*
X0030431Y0122216D01*
X0030431Y0123127D02*
X0024837Y0123127D01*
X0024837Y0115394D02*
X0030431Y0115394D01*
X0024837Y0115394D02*
X0024837Y0118624D01*
X0030431Y0118624D01*
X0030431Y0115394D01*
X0030431Y0116305D02*
X0024837Y0116305D01*
X0024837Y0117216D02*
X0030431Y0117216D01*
X0030431Y0118127D02*
X0024837Y0118127D01*
X0024837Y0110394D02*
X0030431Y0110394D01*
X0024837Y0110394D02*
X0024837Y0113624D01*
X0030431Y0113624D01*
X0030431Y0110394D01*
X0030431Y0111305D02*
X0024837Y0111305D01*
X0024837Y0112216D02*
X0030431Y0112216D01*
X0030431Y0113127D02*
X0024837Y0113127D01*
X0036198Y0109884D02*
X0036198Y0104290D01*
X0032968Y0104290D01*
X0032968Y0109884D01*
X0036198Y0109884D01*
X0036198Y0105201D02*
X0032968Y0105201D01*
X0032968Y0106112D02*
X0036198Y0106112D01*
X0036198Y0107023D02*
X0032968Y0107023D01*
X0032968Y0107934D02*
X0036198Y0107934D01*
X0036198Y0108845D02*
X0032968Y0108845D01*
X0032968Y0109756D02*
X0036198Y0109756D01*
X0041198Y0109884D02*
X0041198Y0104290D01*
X0037968Y0104290D01*
X0037968Y0109884D01*
X0041198Y0109884D01*
X0041198Y0105201D02*
X0037968Y0105201D01*
X0037968Y0106112D02*
X0041198Y0106112D01*
X0041198Y0107023D02*
X0037968Y0107023D01*
X0037968Y0107934D02*
X0041198Y0107934D01*
X0041198Y0108845D02*
X0037968Y0108845D01*
X0037968Y0109756D02*
X0041198Y0109756D01*
X0046198Y0109884D02*
X0046198Y0104290D01*
X0042968Y0104290D01*
X0042968Y0109884D01*
X0046198Y0109884D01*
X0046198Y0105201D02*
X0042968Y0105201D01*
X0042968Y0106112D02*
X0046198Y0106112D01*
X0046198Y0107023D02*
X0042968Y0107023D01*
X0042968Y0107934D02*
X0046198Y0107934D01*
X0046198Y0108845D02*
X0042968Y0108845D01*
X0042968Y0109756D02*
X0046198Y0109756D01*
X0051198Y0109884D02*
X0051198Y0104290D01*
X0047968Y0104290D01*
X0047968Y0109884D01*
X0051198Y0109884D01*
X0051198Y0105201D02*
X0047968Y0105201D01*
X0047968Y0106112D02*
X0051198Y0106112D01*
X0051198Y0107023D02*
X0047968Y0107023D01*
X0047968Y0107934D02*
X0051198Y0107934D01*
X0051198Y0108845D02*
X0047968Y0108845D01*
X0047968Y0109756D02*
X0051198Y0109756D01*
X0056198Y0109884D02*
X0056198Y0104290D01*
X0052968Y0104290D01*
X0052968Y0109884D01*
X0056198Y0109884D01*
X0056198Y0105201D02*
X0052968Y0105201D01*
X0052968Y0106112D02*
X0056198Y0106112D01*
X0056198Y0107023D02*
X0052968Y0107023D01*
X0052968Y0107934D02*
X0056198Y0107934D01*
X0056198Y0108845D02*
X0052968Y0108845D01*
X0052968Y0109756D02*
X0056198Y0109756D01*
X0061198Y0109884D02*
X0061198Y0104290D01*
X0057968Y0104290D01*
X0057968Y0109884D01*
X0061198Y0109884D01*
X0061198Y0105201D02*
X0057968Y0105201D01*
X0057968Y0106112D02*
X0061198Y0106112D01*
X0061198Y0107023D02*
X0057968Y0107023D01*
X0057968Y0107934D02*
X0061198Y0107934D01*
X0061198Y0108845D02*
X0057968Y0108845D01*
X0057968Y0109756D02*
X0061198Y0109756D01*
X0066198Y0109884D02*
X0066198Y0104290D01*
X0062968Y0104290D01*
X0062968Y0109884D01*
X0066198Y0109884D01*
X0066198Y0105201D02*
X0062968Y0105201D01*
X0062968Y0106112D02*
X0066198Y0106112D01*
X0066198Y0107023D02*
X0062968Y0107023D01*
X0062968Y0107934D02*
X0066198Y0107934D01*
X0066198Y0108845D02*
X0062968Y0108845D01*
X0062968Y0109756D02*
X0066198Y0109756D01*
X0071198Y0109884D02*
X0071198Y0104290D01*
X0067968Y0104290D01*
X0067968Y0109884D01*
X0071198Y0109884D01*
X0071198Y0105201D02*
X0067968Y0105201D01*
X0067968Y0106112D02*
X0071198Y0106112D01*
X0071198Y0107023D02*
X0067968Y0107023D01*
X0067968Y0107934D02*
X0071198Y0107934D01*
X0071198Y0108845D02*
X0067968Y0108845D01*
X0067968Y0109756D02*
X0071198Y0109756D01*
X0076198Y0109884D02*
X0076198Y0104290D01*
X0072968Y0104290D01*
X0072968Y0109884D01*
X0076198Y0109884D01*
X0076198Y0105201D02*
X0072968Y0105201D01*
X0072968Y0106112D02*
X0076198Y0106112D01*
X0076198Y0107023D02*
X0072968Y0107023D01*
X0072968Y0107934D02*
X0076198Y0107934D01*
X0076198Y0108845D02*
X0072968Y0108845D01*
X0072968Y0109756D02*
X0076198Y0109756D01*
X0081198Y0109884D02*
X0081198Y0104290D01*
X0077968Y0104290D01*
X0077968Y0109884D01*
X0081198Y0109884D01*
X0081198Y0105201D02*
X0077968Y0105201D01*
X0077968Y0106112D02*
X0081198Y0106112D01*
X0081198Y0107023D02*
X0077968Y0107023D01*
X0077968Y0107934D02*
X0081198Y0107934D01*
X0081198Y0108845D02*
X0077968Y0108845D01*
X0077968Y0109756D02*
X0081198Y0109756D01*
X0086198Y0109884D02*
X0086198Y0104290D01*
X0082968Y0104290D01*
X0082968Y0109884D01*
X0086198Y0109884D01*
X0086198Y0105201D02*
X0082968Y0105201D01*
X0082968Y0106112D02*
X0086198Y0106112D01*
X0086198Y0107023D02*
X0082968Y0107023D01*
X0082968Y0107934D02*
X0086198Y0107934D01*
X0086198Y0108845D02*
X0082968Y0108845D01*
X0082968Y0109756D02*
X0086198Y0109756D01*
X0091198Y0109884D02*
X0091198Y0104290D01*
X0087968Y0104290D01*
X0087968Y0109884D01*
X0091198Y0109884D01*
X0091198Y0105201D02*
X0087968Y0105201D01*
X0087968Y0106112D02*
X0091198Y0106112D01*
X0091198Y0107023D02*
X0087968Y0107023D01*
X0087968Y0107934D02*
X0091198Y0107934D01*
X0091198Y0108845D02*
X0087968Y0108845D01*
X0087968Y0109756D02*
X0091198Y0109756D01*
X0093734Y0113624D02*
X0099328Y0113624D01*
X0099328Y0110394D01*
X0093734Y0110394D01*
X0093734Y0113624D01*
X0093734Y0111305D02*
X0099328Y0111305D01*
X0099328Y0112216D02*
X0093734Y0112216D01*
X0093734Y0113127D02*
X0099328Y0113127D01*
X0099328Y0118624D02*
X0093734Y0118624D01*
X0099328Y0118624D02*
X0099328Y0115394D01*
X0093734Y0115394D01*
X0093734Y0118624D01*
X0093734Y0116305D02*
X0099328Y0116305D01*
X0099328Y0117216D02*
X0093734Y0117216D01*
X0093734Y0118127D02*
X0099328Y0118127D01*
X0099328Y0123624D02*
X0093734Y0123624D01*
X0099328Y0123624D02*
X0099328Y0120394D01*
X0093734Y0120394D01*
X0093734Y0123624D01*
X0093734Y0121305D02*
X0099328Y0121305D01*
X0099328Y0122216D02*
X0093734Y0122216D01*
X0093734Y0123127D02*
X0099328Y0123127D01*
X0099328Y0128624D02*
X0093734Y0128624D01*
X0099328Y0128624D02*
X0099328Y0125394D01*
X0093734Y0125394D01*
X0093734Y0128624D01*
X0093734Y0126305D02*
X0099328Y0126305D01*
X0099328Y0127216D02*
X0093734Y0127216D01*
X0093734Y0128127D02*
X0099328Y0128127D01*
X0099328Y0133624D02*
X0093734Y0133624D01*
X0099328Y0133624D02*
X0099328Y0130394D01*
X0093734Y0130394D01*
X0093734Y0133624D01*
X0093734Y0131305D02*
X0099328Y0131305D01*
X0099328Y0132216D02*
X0093734Y0132216D01*
X0093734Y0133127D02*
X0099328Y0133127D01*
X0099328Y0138624D02*
X0093734Y0138624D01*
X0099328Y0138624D02*
X0099328Y0135394D01*
X0093734Y0135394D01*
X0093734Y0138624D01*
X0093734Y0136305D02*
X0099328Y0136305D01*
X0099328Y0137216D02*
X0093734Y0137216D01*
X0093734Y0138127D02*
X0099328Y0138127D01*
X0099328Y0143624D02*
X0093734Y0143624D01*
X0099328Y0143624D02*
X0099328Y0140394D01*
X0093734Y0140394D01*
X0093734Y0143624D01*
X0093734Y0141305D02*
X0099328Y0141305D01*
X0099328Y0142216D02*
X0093734Y0142216D01*
X0093734Y0143127D02*
X0099328Y0143127D01*
X0099328Y0148624D02*
X0093734Y0148624D01*
X0099328Y0148624D02*
X0099328Y0145394D01*
X0093734Y0145394D01*
X0093734Y0148624D01*
X0093734Y0146305D02*
X0099328Y0146305D01*
X0099328Y0147216D02*
X0093734Y0147216D01*
X0093734Y0148127D02*
X0099328Y0148127D01*
X0099328Y0153624D02*
X0093734Y0153624D01*
X0099328Y0153624D02*
X0099328Y0150394D01*
X0093734Y0150394D01*
X0093734Y0153624D01*
X0093734Y0151305D02*
X0099328Y0151305D01*
X0099328Y0152216D02*
X0093734Y0152216D01*
X0093734Y0153127D02*
X0099328Y0153127D01*
X0099328Y0158624D02*
X0093734Y0158624D01*
X0099328Y0158624D02*
X0099328Y0155394D01*
X0093734Y0155394D01*
X0093734Y0158624D01*
X0093734Y0156305D02*
X0099328Y0156305D01*
X0099328Y0157216D02*
X0093734Y0157216D01*
X0093734Y0158127D02*
X0099328Y0158127D01*
X0099328Y0163624D02*
X0093734Y0163624D01*
X0099328Y0163624D02*
X0099328Y0160394D01*
X0093734Y0160394D01*
X0093734Y0163624D01*
X0093734Y0161305D02*
X0099328Y0161305D01*
X0099328Y0162216D02*
X0093734Y0162216D01*
X0093734Y0163127D02*
X0099328Y0163127D01*
X0099328Y0168624D02*
X0093734Y0168624D01*
X0099328Y0168624D02*
X0099328Y0165394D01*
X0093734Y0165394D01*
X0093734Y0168624D01*
X0093734Y0166305D02*
X0099328Y0166305D01*
X0099328Y0167216D02*
X0093734Y0167216D01*
X0093734Y0168127D02*
X0099328Y0168127D01*
X0099328Y0173624D02*
X0093734Y0173624D01*
X0099328Y0173624D02*
X0099328Y0170394D01*
X0093734Y0170394D01*
X0093734Y0173624D01*
X0093734Y0171305D02*
X0099328Y0171305D01*
X0099328Y0172216D02*
X0093734Y0172216D01*
X0093734Y0173127D02*
X0099328Y0173127D01*
X0099328Y0178624D02*
X0093734Y0178624D01*
X0099328Y0178624D02*
X0099328Y0175394D01*
X0093734Y0175394D01*
X0093734Y0178624D01*
X0093734Y0176305D02*
X0099328Y0176305D01*
X0099328Y0177216D02*
X0093734Y0177216D01*
X0093734Y0178127D02*
X0099328Y0178127D01*
D28*
X0061689Y0152127D03*
X0061689Y0146615D03*
X0061689Y0141103D03*
X0056177Y0141103D03*
X0056177Y0146615D03*
X0056177Y0152127D03*
X0050665Y0152127D03*
X0050665Y0146615D03*
X0050665Y0141103D03*
D29*
X0027083Y0100050D03*
X0097083Y0100050D03*
D30*
X0073640Y0069266D02*
X0069422Y0069266D01*
X0073640Y0069266D02*
X0073640Y0067646D01*
X0069422Y0067646D01*
X0069422Y0069266D01*
X0069422Y0067767D02*
X0073640Y0067767D01*
X0073640Y0067888D02*
X0069422Y0067888D01*
X0069422Y0068009D02*
X0073640Y0068009D01*
X0073640Y0068130D02*
X0069422Y0068130D01*
X0069422Y0068251D02*
X0073640Y0068251D01*
X0073640Y0068372D02*
X0069422Y0068372D01*
X0069422Y0068493D02*
X0073640Y0068493D01*
X0073640Y0068614D02*
X0069422Y0068614D01*
X0069422Y0068735D02*
X0073640Y0068735D01*
X0073640Y0068856D02*
X0069422Y0068856D01*
X0069422Y0068977D02*
X0073640Y0068977D01*
X0073640Y0069098D02*
X0069422Y0069098D01*
X0069422Y0069219D02*
X0073640Y0069219D01*
X0073640Y0067297D02*
X0069422Y0067297D01*
X0073640Y0067297D02*
X0073640Y0065677D01*
X0069422Y0065677D01*
X0069422Y0067297D01*
X0069422Y0065798D02*
X0073640Y0065798D01*
X0073640Y0065919D02*
X0069422Y0065919D01*
X0069422Y0066040D02*
X0073640Y0066040D01*
X0073640Y0066161D02*
X0069422Y0066161D01*
X0069422Y0066282D02*
X0073640Y0066282D01*
X0073640Y0066403D02*
X0069422Y0066403D01*
X0069422Y0066524D02*
X0073640Y0066524D01*
X0073640Y0066645D02*
X0069422Y0066645D01*
X0069422Y0066766D02*
X0073640Y0066766D01*
X0073640Y0066887D02*
X0069422Y0066887D01*
X0069422Y0067008D02*
X0073640Y0067008D01*
X0073640Y0067129D02*
X0069422Y0067129D01*
X0069422Y0067250D02*
X0073640Y0067250D01*
X0073640Y0065329D02*
X0069422Y0065329D01*
X0073640Y0065329D02*
X0073640Y0063709D01*
X0069422Y0063709D01*
X0069422Y0065329D01*
X0069422Y0063830D02*
X0073640Y0063830D01*
X0073640Y0063951D02*
X0069422Y0063951D01*
X0069422Y0064072D02*
X0073640Y0064072D01*
X0073640Y0064193D02*
X0069422Y0064193D01*
X0069422Y0064314D02*
X0073640Y0064314D01*
X0073640Y0064435D02*
X0069422Y0064435D01*
X0069422Y0064556D02*
X0073640Y0064556D01*
X0073640Y0064677D02*
X0069422Y0064677D01*
X0069422Y0064798D02*
X0073640Y0064798D01*
X0073640Y0064919D02*
X0069422Y0064919D01*
X0069422Y0065040D02*
X0073640Y0065040D01*
X0073640Y0065161D02*
X0069422Y0065161D01*
X0069422Y0065282D02*
X0073640Y0065282D01*
X0073640Y0063360D02*
X0069422Y0063360D01*
X0073640Y0063360D02*
X0073640Y0061740D01*
X0069422Y0061740D01*
X0069422Y0063360D01*
X0069422Y0061861D02*
X0073640Y0061861D01*
X0073640Y0061982D02*
X0069422Y0061982D01*
X0069422Y0062103D02*
X0073640Y0062103D01*
X0073640Y0062224D02*
X0069422Y0062224D01*
X0069422Y0062345D02*
X0073640Y0062345D01*
X0073640Y0062466D02*
X0069422Y0062466D01*
X0069422Y0062587D02*
X0073640Y0062587D01*
X0073640Y0062708D02*
X0069422Y0062708D01*
X0069422Y0062829D02*
X0073640Y0062829D01*
X0073640Y0062950D02*
X0069422Y0062950D01*
X0069422Y0063071D02*
X0073640Y0063071D01*
X0073640Y0063192D02*
X0069422Y0063192D01*
X0069422Y0063313D02*
X0073640Y0063313D01*
X0073640Y0061391D02*
X0069422Y0061391D01*
X0073640Y0061391D02*
X0073640Y0059771D01*
X0069422Y0059771D01*
X0069422Y0061391D01*
X0069422Y0059892D02*
X0073640Y0059892D01*
X0073640Y0060013D02*
X0069422Y0060013D01*
X0069422Y0060134D02*
X0073640Y0060134D01*
X0073640Y0060255D02*
X0069422Y0060255D01*
X0069422Y0060376D02*
X0073640Y0060376D01*
X0073640Y0060497D02*
X0069422Y0060497D01*
X0069422Y0060618D02*
X0073640Y0060618D01*
X0073640Y0060739D02*
X0069422Y0060739D01*
X0069422Y0060860D02*
X0073640Y0060860D01*
X0073640Y0060981D02*
X0069422Y0060981D01*
X0069422Y0061102D02*
X0073640Y0061102D01*
X0073640Y0061223D02*
X0069422Y0061223D01*
X0069422Y0061344D02*
X0073640Y0061344D01*
X0073640Y0059423D02*
X0069422Y0059423D01*
X0073640Y0059423D02*
X0073640Y0057803D01*
X0069422Y0057803D01*
X0069422Y0059423D01*
X0069422Y0057924D02*
X0073640Y0057924D01*
X0073640Y0058045D02*
X0069422Y0058045D01*
X0069422Y0058166D02*
X0073640Y0058166D01*
X0073640Y0058287D02*
X0069422Y0058287D01*
X0069422Y0058408D02*
X0073640Y0058408D01*
X0073640Y0058529D02*
X0069422Y0058529D01*
X0069422Y0058650D02*
X0073640Y0058650D01*
X0073640Y0058771D02*
X0069422Y0058771D01*
X0069422Y0058892D02*
X0073640Y0058892D01*
X0073640Y0059013D02*
X0069422Y0059013D01*
X0069422Y0059134D02*
X0073640Y0059134D01*
X0073640Y0059255D02*
X0069422Y0059255D01*
X0069422Y0059376D02*
X0073640Y0059376D01*
X0073640Y0057454D02*
X0069422Y0057454D01*
X0073640Y0057454D02*
X0073640Y0055834D01*
X0069422Y0055834D01*
X0069422Y0057454D01*
X0069422Y0055955D02*
X0073640Y0055955D01*
X0073640Y0056076D02*
X0069422Y0056076D01*
X0069422Y0056197D02*
X0073640Y0056197D01*
X0073640Y0056318D02*
X0069422Y0056318D01*
X0069422Y0056439D02*
X0073640Y0056439D01*
X0073640Y0056560D02*
X0069422Y0056560D01*
X0069422Y0056681D02*
X0073640Y0056681D01*
X0073640Y0056802D02*
X0069422Y0056802D01*
X0069422Y0056923D02*
X0073640Y0056923D01*
X0073640Y0057044D02*
X0069422Y0057044D01*
X0069422Y0057165D02*
X0073640Y0057165D01*
X0073640Y0057286D02*
X0069422Y0057286D01*
X0069422Y0057407D02*
X0073640Y0057407D01*
X0068798Y0055210D02*
X0068798Y0050992D01*
X0067178Y0050992D01*
X0067178Y0055210D01*
X0068798Y0055210D01*
X0068798Y0051113D02*
X0067178Y0051113D01*
X0067178Y0051234D02*
X0068798Y0051234D01*
X0068798Y0051355D02*
X0067178Y0051355D01*
X0067178Y0051476D02*
X0068798Y0051476D01*
X0068798Y0051597D02*
X0067178Y0051597D01*
X0067178Y0051718D02*
X0068798Y0051718D01*
X0068798Y0051839D02*
X0067178Y0051839D01*
X0067178Y0051960D02*
X0068798Y0051960D01*
X0068798Y0052081D02*
X0067178Y0052081D01*
X0067178Y0052202D02*
X0068798Y0052202D01*
X0068798Y0052323D02*
X0067178Y0052323D01*
X0067178Y0052444D02*
X0068798Y0052444D01*
X0068798Y0052565D02*
X0067178Y0052565D01*
X0067178Y0052686D02*
X0068798Y0052686D01*
X0068798Y0052807D02*
X0067178Y0052807D01*
X0067178Y0052928D02*
X0068798Y0052928D01*
X0068798Y0053049D02*
X0067178Y0053049D01*
X0067178Y0053170D02*
X0068798Y0053170D01*
X0068798Y0053291D02*
X0067178Y0053291D01*
X0067178Y0053412D02*
X0068798Y0053412D01*
X0068798Y0053533D02*
X0067178Y0053533D01*
X0067178Y0053654D02*
X0068798Y0053654D01*
X0068798Y0053775D02*
X0067178Y0053775D01*
X0067178Y0053896D02*
X0068798Y0053896D01*
X0068798Y0054017D02*
X0067178Y0054017D01*
X0067178Y0054138D02*
X0068798Y0054138D01*
X0068798Y0054259D02*
X0067178Y0054259D01*
X0067178Y0054380D02*
X0068798Y0054380D01*
X0068798Y0054501D02*
X0067178Y0054501D01*
X0067178Y0054622D02*
X0068798Y0054622D01*
X0068798Y0054743D02*
X0067178Y0054743D01*
X0067178Y0054864D02*
X0068798Y0054864D01*
X0068798Y0054985D02*
X0067178Y0054985D01*
X0067178Y0055106D02*
X0068798Y0055106D01*
X0066830Y0055210D02*
X0066830Y0050992D01*
X0065210Y0050992D01*
X0065210Y0055210D01*
X0066830Y0055210D01*
X0066830Y0051113D02*
X0065210Y0051113D01*
X0065210Y0051234D02*
X0066830Y0051234D01*
X0066830Y0051355D02*
X0065210Y0051355D01*
X0065210Y0051476D02*
X0066830Y0051476D01*
X0066830Y0051597D02*
X0065210Y0051597D01*
X0065210Y0051718D02*
X0066830Y0051718D01*
X0066830Y0051839D02*
X0065210Y0051839D01*
X0065210Y0051960D02*
X0066830Y0051960D01*
X0066830Y0052081D02*
X0065210Y0052081D01*
X0065210Y0052202D02*
X0066830Y0052202D01*
X0066830Y0052323D02*
X0065210Y0052323D01*
X0065210Y0052444D02*
X0066830Y0052444D01*
X0066830Y0052565D02*
X0065210Y0052565D01*
X0065210Y0052686D02*
X0066830Y0052686D01*
X0066830Y0052807D02*
X0065210Y0052807D01*
X0065210Y0052928D02*
X0066830Y0052928D01*
X0066830Y0053049D02*
X0065210Y0053049D01*
X0065210Y0053170D02*
X0066830Y0053170D01*
X0066830Y0053291D02*
X0065210Y0053291D01*
X0065210Y0053412D02*
X0066830Y0053412D01*
X0066830Y0053533D02*
X0065210Y0053533D01*
X0065210Y0053654D02*
X0066830Y0053654D01*
X0066830Y0053775D02*
X0065210Y0053775D01*
X0065210Y0053896D02*
X0066830Y0053896D01*
X0066830Y0054017D02*
X0065210Y0054017D01*
X0065210Y0054138D02*
X0066830Y0054138D01*
X0066830Y0054259D02*
X0065210Y0054259D01*
X0065210Y0054380D02*
X0066830Y0054380D01*
X0066830Y0054501D02*
X0065210Y0054501D01*
X0065210Y0054622D02*
X0066830Y0054622D01*
X0066830Y0054743D02*
X0065210Y0054743D01*
X0065210Y0054864D02*
X0066830Y0054864D01*
X0066830Y0054985D02*
X0065210Y0054985D01*
X0065210Y0055106D02*
X0066830Y0055106D01*
X0064861Y0055210D02*
X0064861Y0050992D01*
X0063241Y0050992D01*
X0063241Y0055210D01*
X0064861Y0055210D01*
X0064861Y0051113D02*
X0063241Y0051113D01*
X0063241Y0051234D02*
X0064861Y0051234D01*
X0064861Y0051355D02*
X0063241Y0051355D01*
X0063241Y0051476D02*
X0064861Y0051476D01*
X0064861Y0051597D02*
X0063241Y0051597D01*
X0063241Y0051718D02*
X0064861Y0051718D01*
X0064861Y0051839D02*
X0063241Y0051839D01*
X0063241Y0051960D02*
X0064861Y0051960D01*
X0064861Y0052081D02*
X0063241Y0052081D01*
X0063241Y0052202D02*
X0064861Y0052202D01*
X0064861Y0052323D02*
X0063241Y0052323D01*
X0063241Y0052444D02*
X0064861Y0052444D01*
X0064861Y0052565D02*
X0063241Y0052565D01*
X0063241Y0052686D02*
X0064861Y0052686D01*
X0064861Y0052807D02*
X0063241Y0052807D01*
X0063241Y0052928D02*
X0064861Y0052928D01*
X0064861Y0053049D02*
X0063241Y0053049D01*
X0063241Y0053170D02*
X0064861Y0053170D01*
X0064861Y0053291D02*
X0063241Y0053291D01*
X0063241Y0053412D02*
X0064861Y0053412D01*
X0064861Y0053533D02*
X0063241Y0053533D01*
X0063241Y0053654D02*
X0064861Y0053654D01*
X0064861Y0053775D02*
X0063241Y0053775D01*
X0063241Y0053896D02*
X0064861Y0053896D01*
X0064861Y0054017D02*
X0063241Y0054017D01*
X0063241Y0054138D02*
X0064861Y0054138D01*
X0064861Y0054259D02*
X0063241Y0054259D01*
X0063241Y0054380D02*
X0064861Y0054380D01*
X0064861Y0054501D02*
X0063241Y0054501D01*
X0063241Y0054622D02*
X0064861Y0054622D01*
X0064861Y0054743D02*
X0063241Y0054743D01*
X0063241Y0054864D02*
X0064861Y0054864D01*
X0064861Y0054985D02*
X0063241Y0054985D01*
X0063241Y0055106D02*
X0064861Y0055106D01*
X0062893Y0055210D02*
X0062893Y0050992D01*
X0061273Y0050992D01*
X0061273Y0055210D01*
X0062893Y0055210D01*
X0062893Y0051113D02*
X0061273Y0051113D01*
X0061273Y0051234D02*
X0062893Y0051234D01*
X0062893Y0051355D02*
X0061273Y0051355D01*
X0061273Y0051476D02*
X0062893Y0051476D01*
X0062893Y0051597D02*
X0061273Y0051597D01*
X0061273Y0051718D02*
X0062893Y0051718D01*
X0062893Y0051839D02*
X0061273Y0051839D01*
X0061273Y0051960D02*
X0062893Y0051960D01*
X0062893Y0052081D02*
X0061273Y0052081D01*
X0061273Y0052202D02*
X0062893Y0052202D01*
X0062893Y0052323D02*
X0061273Y0052323D01*
X0061273Y0052444D02*
X0062893Y0052444D01*
X0062893Y0052565D02*
X0061273Y0052565D01*
X0061273Y0052686D02*
X0062893Y0052686D01*
X0062893Y0052807D02*
X0061273Y0052807D01*
X0061273Y0052928D02*
X0062893Y0052928D01*
X0062893Y0053049D02*
X0061273Y0053049D01*
X0061273Y0053170D02*
X0062893Y0053170D01*
X0062893Y0053291D02*
X0061273Y0053291D01*
X0061273Y0053412D02*
X0062893Y0053412D01*
X0062893Y0053533D02*
X0061273Y0053533D01*
X0061273Y0053654D02*
X0062893Y0053654D01*
X0062893Y0053775D02*
X0061273Y0053775D01*
X0061273Y0053896D02*
X0062893Y0053896D01*
X0062893Y0054017D02*
X0061273Y0054017D01*
X0061273Y0054138D02*
X0062893Y0054138D01*
X0062893Y0054259D02*
X0061273Y0054259D01*
X0061273Y0054380D02*
X0062893Y0054380D01*
X0062893Y0054501D02*
X0061273Y0054501D01*
X0061273Y0054622D02*
X0062893Y0054622D01*
X0062893Y0054743D02*
X0061273Y0054743D01*
X0061273Y0054864D02*
X0062893Y0054864D01*
X0062893Y0054985D02*
X0061273Y0054985D01*
X0061273Y0055106D02*
X0062893Y0055106D01*
X0060924Y0055210D02*
X0060924Y0050992D01*
X0059304Y0050992D01*
X0059304Y0055210D01*
X0060924Y0055210D01*
X0060924Y0051113D02*
X0059304Y0051113D01*
X0059304Y0051234D02*
X0060924Y0051234D01*
X0060924Y0051355D02*
X0059304Y0051355D01*
X0059304Y0051476D02*
X0060924Y0051476D01*
X0060924Y0051597D02*
X0059304Y0051597D01*
X0059304Y0051718D02*
X0060924Y0051718D01*
X0060924Y0051839D02*
X0059304Y0051839D01*
X0059304Y0051960D02*
X0060924Y0051960D01*
X0060924Y0052081D02*
X0059304Y0052081D01*
X0059304Y0052202D02*
X0060924Y0052202D01*
X0060924Y0052323D02*
X0059304Y0052323D01*
X0059304Y0052444D02*
X0060924Y0052444D01*
X0060924Y0052565D02*
X0059304Y0052565D01*
X0059304Y0052686D02*
X0060924Y0052686D01*
X0060924Y0052807D02*
X0059304Y0052807D01*
X0059304Y0052928D02*
X0060924Y0052928D01*
X0060924Y0053049D02*
X0059304Y0053049D01*
X0059304Y0053170D02*
X0060924Y0053170D01*
X0060924Y0053291D02*
X0059304Y0053291D01*
X0059304Y0053412D02*
X0060924Y0053412D01*
X0060924Y0053533D02*
X0059304Y0053533D01*
X0059304Y0053654D02*
X0060924Y0053654D01*
X0060924Y0053775D02*
X0059304Y0053775D01*
X0059304Y0053896D02*
X0060924Y0053896D01*
X0060924Y0054017D02*
X0059304Y0054017D01*
X0059304Y0054138D02*
X0060924Y0054138D01*
X0060924Y0054259D02*
X0059304Y0054259D01*
X0059304Y0054380D02*
X0060924Y0054380D01*
X0060924Y0054501D02*
X0059304Y0054501D01*
X0059304Y0054622D02*
X0060924Y0054622D01*
X0060924Y0054743D02*
X0059304Y0054743D01*
X0059304Y0054864D02*
X0060924Y0054864D01*
X0060924Y0054985D02*
X0059304Y0054985D01*
X0059304Y0055106D02*
X0060924Y0055106D01*
X0058956Y0055210D02*
X0058956Y0050992D01*
X0057336Y0050992D01*
X0057336Y0055210D01*
X0058956Y0055210D01*
X0058956Y0051113D02*
X0057336Y0051113D01*
X0057336Y0051234D02*
X0058956Y0051234D01*
X0058956Y0051355D02*
X0057336Y0051355D01*
X0057336Y0051476D02*
X0058956Y0051476D01*
X0058956Y0051597D02*
X0057336Y0051597D01*
X0057336Y0051718D02*
X0058956Y0051718D01*
X0058956Y0051839D02*
X0057336Y0051839D01*
X0057336Y0051960D02*
X0058956Y0051960D01*
X0058956Y0052081D02*
X0057336Y0052081D01*
X0057336Y0052202D02*
X0058956Y0052202D01*
X0058956Y0052323D02*
X0057336Y0052323D01*
X0057336Y0052444D02*
X0058956Y0052444D01*
X0058956Y0052565D02*
X0057336Y0052565D01*
X0057336Y0052686D02*
X0058956Y0052686D01*
X0058956Y0052807D02*
X0057336Y0052807D01*
X0057336Y0052928D02*
X0058956Y0052928D01*
X0058956Y0053049D02*
X0057336Y0053049D01*
X0057336Y0053170D02*
X0058956Y0053170D01*
X0058956Y0053291D02*
X0057336Y0053291D01*
X0057336Y0053412D02*
X0058956Y0053412D01*
X0058956Y0053533D02*
X0057336Y0053533D01*
X0057336Y0053654D02*
X0058956Y0053654D01*
X0058956Y0053775D02*
X0057336Y0053775D01*
X0057336Y0053896D02*
X0058956Y0053896D01*
X0058956Y0054017D02*
X0057336Y0054017D01*
X0057336Y0054138D02*
X0058956Y0054138D01*
X0058956Y0054259D02*
X0057336Y0054259D01*
X0057336Y0054380D02*
X0058956Y0054380D01*
X0058956Y0054501D02*
X0057336Y0054501D01*
X0057336Y0054622D02*
X0058956Y0054622D01*
X0058956Y0054743D02*
X0057336Y0054743D01*
X0057336Y0054864D02*
X0058956Y0054864D01*
X0058956Y0054985D02*
X0057336Y0054985D01*
X0057336Y0055106D02*
X0058956Y0055106D01*
X0056987Y0055210D02*
X0056987Y0050992D01*
X0055367Y0050992D01*
X0055367Y0055210D01*
X0056987Y0055210D01*
X0056987Y0051113D02*
X0055367Y0051113D01*
X0055367Y0051234D02*
X0056987Y0051234D01*
X0056987Y0051355D02*
X0055367Y0051355D01*
X0055367Y0051476D02*
X0056987Y0051476D01*
X0056987Y0051597D02*
X0055367Y0051597D01*
X0055367Y0051718D02*
X0056987Y0051718D01*
X0056987Y0051839D02*
X0055367Y0051839D01*
X0055367Y0051960D02*
X0056987Y0051960D01*
X0056987Y0052081D02*
X0055367Y0052081D01*
X0055367Y0052202D02*
X0056987Y0052202D01*
X0056987Y0052323D02*
X0055367Y0052323D01*
X0055367Y0052444D02*
X0056987Y0052444D01*
X0056987Y0052565D02*
X0055367Y0052565D01*
X0055367Y0052686D02*
X0056987Y0052686D01*
X0056987Y0052807D02*
X0055367Y0052807D01*
X0055367Y0052928D02*
X0056987Y0052928D01*
X0056987Y0053049D02*
X0055367Y0053049D01*
X0055367Y0053170D02*
X0056987Y0053170D01*
X0056987Y0053291D02*
X0055367Y0053291D01*
X0055367Y0053412D02*
X0056987Y0053412D01*
X0056987Y0053533D02*
X0055367Y0053533D01*
X0055367Y0053654D02*
X0056987Y0053654D01*
X0056987Y0053775D02*
X0055367Y0053775D01*
X0055367Y0053896D02*
X0056987Y0053896D01*
X0056987Y0054017D02*
X0055367Y0054017D01*
X0055367Y0054138D02*
X0056987Y0054138D01*
X0056987Y0054259D02*
X0055367Y0054259D01*
X0055367Y0054380D02*
X0056987Y0054380D01*
X0056987Y0054501D02*
X0055367Y0054501D01*
X0055367Y0054622D02*
X0056987Y0054622D01*
X0056987Y0054743D02*
X0055367Y0054743D01*
X0055367Y0054864D02*
X0056987Y0054864D01*
X0056987Y0054985D02*
X0055367Y0054985D01*
X0055367Y0055106D02*
X0056987Y0055106D01*
X0054743Y0055834D02*
X0050525Y0055834D01*
X0050525Y0057454D01*
X0054743Y0057454D01*
X0054743Y0055834D01*
X0054743Y0055955D02*
X0050525Y0055955D01*
X0050525Y0056076D02*
X0054743Y0056076D01*
X0054743Y0056197D02*
X0050525Y0056197D01*
X0050525Y0056318D02*
X0054743Y0056318D01*
X0054743Y0056439D02*
X0050525Y0056439D01*
X0050525Y0056560D02*
X0054743Y0056560D01*
X0054743Y0056681D02*
X0050525Y0056681D01*
X0050525Y0056802D02*
X0054743Y0056802D01*
X0054743Y0056923D02*
X0050525Y0056923D01*
X0050525Y0057044D02*
X0054743Y0057044D01*
X0054743Y0057165D02*
X0050525Y0057165D01*
X0050525Y0057286D02*
X0054743Y0057286D01*
X0054743Y0057407D02*
X0050525Y0057407D01*
X0050525Y0057803D02*
X0054743Y0057803D01*
X0050525Y0057803D02*
X0050525Y0059423D01*
X0054743Y0059423D01*
X0054743Y0057803D01*
X0054743Y0057924D02*
X0050525Y0057924D01*
X0050525Y0058045D02*
X0054743Y0058045D01*
X0054743Y0058166D02*
X0050525Y0058166D01*
X0050525Y0058287D02*
X0054743Y0058287D01*
X0054743Y0058408D02*
X0050525Y0058408D01*
X0050525Y0058529D02*
X0054743Y0058529D01*
X0054743Y0058650D02*
X0050525Y0058650D01*
X0050525Y0058771D02*
X0054743Y0058771D01*
X0054743Y0058892D02*
X0050525Y0058892D01*
X0050525Y0059013D02*
X0054743Y0059013D01*
X0054743Y0059134D02*
X0050525Y0059134D01*
X0050525Y0059255D02*
X0054743Y0059255D01*
X0054743Y0059376D02*
X0050525Y0059376D01*
X0050525Y0059771D02*
X0054743Y0059771D01*
X0050525Y0059771D02*
X0050525Y0061391D01*
X0054743Y0061391D01*
X0054743Y0059771D01*
X0054743Y0059892D02*
X0050525Y0059892D01*
X0050525Y0060013D02*
X0054743Y0060013D01*
X0054743Y0060134D02*
X0050525Y0060134D01*
X0050525Y0060255D02*
X0054743Y0060255D01*
X0054743Y0060376D02*
X0050525Y0060376D01*
X0050525Y0060497D02*
X0054743Y0060497D01*
X0054743Y0060618D02*
X0050525Y0060618D01*
X0050525Y0060739D02*
X0054743Y0060739D01*
X0054743Y0060860D02*
X0050525Y0060860D01*
X0050525Y0060981D02*
X0054743Y0060981D01*
X0054743Y0061102D02*
X0050525Y0061102D01*
X0050525Y0061223D02*
X0054743Y0061223D01*
X0054743Y0061344D02*
X0050525Y0061344D01*
X0050525Y0061740D02*
X0054743Y0061740D01*
X0050525Y0061740D02*
X0050525Y0063360D01*
X0054743Y0063360D01*
X0054743Y0061740D01*
X0054743Y0061861D02*
X0050525Y0061861D01*
X0050525Y0061982D02*
X0054743Y0061982D01*
X0054743Y0062103D02*
X0050525Y0062103D01*
X0050525Y0062224D02*
X0054743Y0062224D01*
X0054743Y0062345D02*
X0050525Y0062345D01*
X0050525Y0062466D02*
X0054743Y0062466D01*
X0054743Y0062587D02*
X0050525Y0062587D01*
X0050525Y0062708D02*
X0054743Y0062708D01*
X0054743Y0062829D02*
X0050525Y0062829D01*
X0050525Y0062950D02*
X0054743Y0062950D01*
X0054743Y0063071D02*
X0050525Y0063071D01*
X0050525Y0063192D02*
X0054743Y0063192D01*
X0054743Y0063313D02*
X0050525Y0063313D01*
X0050525Y0063709D02*
X0054743Y0063709D01*
X0050525Y0063709D02*
X0050525Y0065329D01*
X0054743Y0065329D01*
X0054743Y0063709D01*
X0054743Y0063830D02*
X0050525Y0063830D01*
X0050525Y0063951D02*
X0054743Y0063951D01*
X0054743Y0064072D02*
X0050525Y0064072D01*
X0050525Y0064193D02*
X0054743Y0064193D01*
X0054743Y0064314D02*
X0050525Y0064314D01*
X0050525Y0064435D02*
X0054743Y0064435D01*
X0054743Y0064556D02*
X0050525Y0064556D01*
X0050525Y0064677D02*
X0054743Y0064677D01*
X0054743Y0064798D02*
X0050525Y0064798D01*
X0050525Y0064919D02*
X0054743Y0064919D01*
X0054743Y0065040D02*
X0050525Y0065040D01*
X0050525Y0065161D02*
X0054743Y0065161D01*
X0054743Y0065282D02*
X0050525Y0065282D01*
X0050525Y0065677D02*
X0054743Y0065677D01*
X0050525Y0065677D02*
X0050525Y0067297D01*
X0054743Y0067297D01*
X0054743Y0065677D01*
X0054743Y0065798D02*
X0050525Y0065798D01*
X0050525Y0065919D02*
X0054743Y0065919D01*
X0054743Y0066040D02*
X0050525Y0066040D01*
X0050525Y0066161D02*
X0054743Y0066161D01*
X0054743Y0066282D02*
X0050525Y0066282D01*
X0050525Y0066403D02*
X0054743Y0066403D01*
X0054743Y0066524D02*
X0050525Y0066524D01*
X0050525Y0066645D02*
X0054743Y0066645D01*
X0054743Y0066766D02*
X0050525Y0066766D01*
X0050525Y0066887D02*
X0054743Y0066887D01*
X0054743Y0067008D02*
X0050525Y0067008D01*
X0050525Y0067129D02*
X0054743Y0067129D01*
X0054743Y0067250D02*
X0050525Y0067250D01*
X0050525Y0067646D02*
X0054743Y0067646D01*
X0050525Y0067646D02*
X0050525Y0069266D01*
X0054743Y0069266D01*
X0054743Y0067646D01*
X0054743Y0067767D02*
X0050525Y0067767D01*
X0050525Y0067888D02*
X0054743Y0067888D01*
X0054743Y0068009D02*
X0050525Y0068009D01*
X0050525Y0068130D02*
X0054743Y0068130D01*
X0054743Y0068251D02*
X0050525Y0068251D01*
X0050525Y0068372D02*
X0054743Y0068372D01*
X0054743Y0068493D02*
X0050525Y0068493D01*
X0050525Y0068614D02*
X0054743Y0068614D01*
X0054743Y0068735D02*
X0050525Y0068735D01*
X0050525Y0068856D02*
X0054743Y0068856D01*
X0054743Y0068977D02*
X0050525Y0068977D01*
X0050525Y0069098D02*
X0054743Y0069098D01*
X0054743Y0069219D02*
X0050525Y0069219D01*
X0055367Y0069890D02*
X0055367Y0074108D01*
X0056987Y0074108D01*
X0056987Y0069890D01*
X0055367Y0069890D01*
X0055367Y0070011D02*
X0056987Y0070011D01*
X0056987Y0070132D02*
X0055367Y0070132D01*
X0055367Y0070253D02*
X0056987Y0070253D01*
X0056987Y0070374D02*
X0055367Y0070374D01*
X0055367Y0070495D02*
X0056987Y0070495D01*
X0056987Y0070616D02*
X0055367Y0070616D01*
X0055367Y0070737D02*
X0056987Y0070737D01*
X0056987Y0070858D02*
X0055367Y0070858D01*
X0055367Y0070979D02*
X0056987Y0070979D01*
X0056987Y0071100D02*
X0055367Y0071100D01*
X0055367Y0071221D02*
X0056987Y0071221D01*
X0056987Y0071342D02*
X0055367Y0071342D01*
X0055367Y0071463D02*
X0056987Y0071463D01*
X0056987Y0071584D02*
X0055367Y0071584D01*
X0055367Y0071705D02*
X0056987Y0071705D01*
X0056987Y0071826D02*
X0055367Y0071826D01*
X0055367Y0071947D02*
X0056987Y0071947D01*
X0056987Y0072068D02*
X0055367Y0072068D01*
X0055367Y0072189D02*
X0056987Y0072189D01*
X0056987Y0072310D02*
X0055367Y0072310D01*
X0055367Y0072431D02*
X0056987Y0072431D01*
X0056987Y0072552D02*
X0055367Y0072552D01*
X0055367Y0072673D02*
X0056987Y0072673D01*
X0056987Y0072794D02*
X0055367Y0072794D01*
X0055367Y0072915D02*
X0056987Y0072915D01*
X0056987Y0073036D02*
X0055367Y0073036D01*
X0055367Y0073157D02*
X0056987Y0073157D01*
X0056987Y0073278D02*
X0055367Y0073278D01*
X0055367Y0073399D02*
X0056987Y0073399D01*
X0056987Y0073520D02*
X0055367Y0073520D01*
X0055367Y0073641D02*
X0056987Y0073641D01*
X0056987Y0073762D02*
X0055367Y0073762D01*
X0055367Y0073883D02*
X0056987Y0073883D01*
X0056987Y0074004D02*
X0055367Y0074004D01*
X0057336Y0074108D02*
X0057336Y0069890D01*
X0057336Y0074108D02*
X0058956Y0074108D01*
X0058956Y0069890D01*
X0057336Y0069890D01*
X0057336Y0070011D02*
X0058956Y0070011D01*
X0058956Y0070132D02*
X0057336Y0070132D01*
X0057336Y0070253D02*
X0058956Y0070253D01*
X0058956Y0070374D02*
X0057336Y0070374D01*
X0057336Y0070495D02*
X0058956Y0070495D01*
X0058956Y0070616D02*
X0057336Y0070616D01*
X0057336Y0070737D02*
X0058956Y0070737D01*
X0058956Y0070858D02*
X0057336Y0070858D01*
X0057336Y0070979D02*
X0058956Y0070979D01*
X0058956Y0071100D02*
X0057336Y0071100D01*
X0057336Y0071221D02*
X0058956Y0071221D01*
X0058956Y0071342D02*
X0057336Y0071342D01*
X0057336Y0071463D02*
X0058956Y0071463D01*
X0058956Y0071584D02*
X0057336Y0071584D01*
X0057336Y0071705D02*
X0058956Y0071705D01*
X0058956Y0071826D02*
X0057336Y0071826D01*
X0057336Y0071947D02*
X0058956Y0071947D01*
X0058956Y0072068D02*
X0057336Y0072068D01*
X0057336Y0072189D02*
X0058956Y0072189D01*
X0058956Y0072310D02*
X0057336Y0072310D01*
X0057336Y0072431D02*
X0058956Y0072431D01*
X0058956Y0072552D02*
X0057336Y0072552D01*
X0057336Y0072673D02*
X0058956Y0072673D01*
X0058956Y0072794D02*
X0057336Y0072794D01*
X0057336Y0072915D02*
X0058956Y0072915D01*
X0058956Y0073036D02*
X0057336Y0073036D01*
X0057336Y0073157D02*
X0058956Y0073157D01*
X0058956Y0073278D02*
X0057336Y0073278D01*
X0057336Y0073399D02*
X0058956Y0073399D01*
X0058956Y0073520D02*
X0057336Y0073520D01*
X0057336Y0073641D02*
X0058956Y0073641D01*
X0058956Y0073762D02*
X0057336Y0073762D01*
X0057336Y0073883D02*
X0058956Y0073883D01*
X0058956Y0074004D02*
X0057336Y0074004D01*
X0059304Y0074108D02*
X0059304Y0069890D01*
X0059304Y0074108D02*
X0060924Y0074108D01*
X0060924Y0069890D01*
X0059304Y0069890D01*
X0059304Y0070011D02*
X0060924Y0070011D01*
X0060924Y0070132D02*
X0059304Y0070132D01*
X0059304Y0070253D02*
X0060924Y0070253D01*
X0060924Y0070374D02*
X0059304Y0070374D01*
X0059304Y0070495D02*
X0060924Y0070495D01*
X0060924Y0070616D02*
X0059304Y0070616D01*
X0059304Y0070737D02*
X0060924Y0070737D01*
X0060924Y0070858D02*
X0059304Y0070858D01*
X0059304Y0070979D02*
X0060924Y0070979D01*
X0060924Y0071100D02*
X0059304Y0071100D01*
X0059304Y0071221D02*
X0060924Y0071221D01*
X0060924Y0071342D02*
X0059304Y0071342D01*
X0059304Y0071463D02*
X0060924Y0071463D01*
X0060924Y0071584D02*
X0059304Y0071584D01*
X0059304Y0071705D02*
X0060924Y0071705D01*
X0060924Y0071826D02*
X0059304Y0071826D01*
X0059304Y0071947D02*
X0060924Y0071947D01*
X0060924Y0072068D02*
X0059304Y0072068D01*
X0059304Y0072189D02*
X0060924Y0072189D01*
X0060924Y0072310D02*
X0059304Y0072310D01*
X0059304Y0072431D02*
X0060924Y0072431D01*
X0060924Y0072552D02*
X0059304Y0072552D01*
X0059304Y0072673D02*
X0060924Y0072673D01*
X0060924Y0072794D02*
X0059304Y0072794D01*
X0059304Y0072915D02*
X0060924Y0072915D01*
X0060924Y0073036D02*
X0059304Y0073036D01*
X0059304Y0073157D02*
X0060924Y0073157D01*
X0060924Y0073278D02*
X0059304Y0073278D01*
X0059304Y0073399D02*
X0060924Y0073399D01*
X0060924Y0073520D02*
X0059304Y0073520D01*
X0059304Y0073641D02*
X0060924Y0073641D01*
X0060924Y0073762D02*
X0059304Y0073762D01*
X0059304Y0073883D02*
X0060924Y0073883D01*
X0060924Y0074004D02*
X0059304Y0074004D01*
X0061273Y0074108D02*
X0061273Y0069890D01*
X0061273Y0074108D02*
X0062893Y0074108D01*
X0062893Y0069890D01*
X0061273Y0069890D01*
X0061273Y0070011D02*
X0062893Y0070011D01*
X0062893Y0070132D02*
X0061273Y0070132D01*
X0061273Y0070253D02*
X0062893Y0070253D01*
X0062893Y0070374D02*
X0061273Y0070374D01*
X0061273Y0070495D02*
X0062893Y0070495D01*
X0062893Y0070616D02*
X0061273Y0070616D01*
X0061273Y0070737D02*
X0062893Y0070737D01*
X0062893Y0070858D02*
X0061273Y0070858D01*
X0061273Y0070979D02*
X0062893Y0070979D01*
X0062893Y0071100D02*
X0061273Y0071100D01*
X0061273Y0071221D02*
X0062893Y0071221D01*
X0062893Y0071342D02*
X0061273Y0071342D01*
X0061273Y0071463D02*
X0062893Y0071463D01*
X0062893Y0071584D02*
X0061273Y0071584D01*
X0061273Y0071705D02*
X0062893Y0071705D01*
X0062893Y0071826D02*
X0061273Y0071826D01*
X0061273Y0071947D02*
X0062893Y0071947D01*
X0062893Y0072068D02*
X0061273Y0072068D01*
X0061273Y0072189D02*
X0062893Y0072189D01*
X0062893Y0072310D02*
X0061273Y0072310D01*
X0061273Y0072431D02*
X0062893Y0072431D01*
X0062893Y0072552D02*
X0061273Y0072552D01*
X0061273Y0072673D02*
X0062893Y0072673D01*
X0062893Y0072794D02*
X0061273Y0072794D01*
X0061273Y0072915D02*
X0062893Y0072915D01*
X0062893Y0073036D02*
X0061273Y0073036D01*
X0061273Y0073157D02*
X0062893Y0073157D01*
X0062893Y0073278D02*
X0061273Y0073278D01*
X0061273Y0073399D02*
X0062893Y0073399D01*
X0062893Y0073520D02*
X0061273Y0073520D01*
X0061273Y0073641D02*
X0062893Y0073641D01*
X0062893Y0073762D02*
X0061273Y0073762D01*
X0061273Y0073883D02*
X0062893Y0073883D01*
X0062893Y0074004D02*
X0061273Y0074004D01*
X0063241Y0074108D02*
X0063241Y0069890D01*
X0063241Y0074108D02*
X0064861Y0074108D01*
X0064861Y0069890D01*
X0063241Y0069890D01*
X0063241Y0070011D02*
X0064861Y0070011D01*
X0064861Y0070132D02*
X0063241Y0070132D01*
X0063241Y0070253D02*
X0064861Y0070253D01*
X0064861Y0070374D02*
X0063241Y0070374D01*
X0063241Y0070495D02*
X0064861Y0070495D01*
X0064861Y0070616D02*
X0063241Y0070616D01*
X0063241Y0070737D02*
X0064861Y0070737D01*
X0064861Y0070858D02*
X0063241Y0070858D01*
X0063241Y0070979D02*
X0064861Y0070979D01*
X0064861Y0071100D02*
X0063241Y0071100D01*
X0063241Y0071221D02*
X0064861Y0071221D01*
X0064861Y0071342D02*
X0063241Y0071342D01*
X0063241Y0071463D02*
X0064861Y0071463D01*
X0064861Y0071584D02*
X0063241Y0071584D01*
X0063241Y0071705D02*
X0064861Y0071705D01*
X0064861Y0071826D02*
X0063241Y0071826D01*
X0063241Y0071947D02*
X0064861Y0071947D01*
X0064861Y0072068D02*
X0063241Y0072068D01*
X0063241Y0072189D02*
X0064861Y0072189D01*
X0064861Y0072310D02*
X0063241Y0072310D01*
X0063241Y0072431D02*
X0064861Y0072431D01*
X0064861Y0072552D02*
X0063241Y0072552D01*
X0063241Y0072673D02*
X0064861Y0072673D01*
X0064861Y0072794D02*
X0063241Y0072794D01*
X0063241Y0072915D02*
X0064861Y0072915D01*
X0064861Y0073036D02*
X0063241Y0073036D01*
X0063241Y0073157D02*
X0064861Y0073157D01*
X0064861Y0073278D02*
X0063241Y0073278D01*
X0063241Y0073399D02*
X0064861Y0073399D01*
X0064861Y0073520D02*
X0063241Y0073520D01*
X0063241Y0073641D02*
X0064861Y0073641D01*
X0064861Y0073762D02*
X0063241Y0073762D01*
X0063241Y0073883D02*
X0064861Y0073883D01*
X0064861Y0074004D02*
X0063241Y0074004D01*
X0065210Y0074108D02*
X0065210Y0069890D01*
X0065210Y0074108D02*
X0066830Y0074108D01*
X0066830Y0069890D01*
X0065210Y0069890D01*
X0065210Y0070011D02*
X0066830Y0070011D01*
X0066830Y0070132D02*
X0065210Y0070132D01*
X0065210Y0070253D02*
X0066830Y0070253D01*
X0066830Y0070374D02*
X0065210Y0070374D01*
X0065210Y0070495D02*
X0066830Y0070495D01*
X0066830Y0070616D02*
X0065210Y0070616D01*
X0065210Y0070737D02*
X0066830Y0070737D01*
X0066830Y0070858D02*
X0065210Y0070858D01*
X0065210Y0070979D02*
X0066830Y0070979D01*
X0066830Y0071100D02*
X0065210Y0071100D01*
X0065210Y0071221D02*
X0066830Y0071221D01*
X0066830Y0071342D02*
X0065210Y0071342D01*
X0065210Y0071463D02*
X0066830Y0071463D01*
X0066830Y0071584D02*
X0065210Y0071584D01*
X0065210Y0071705D02*
X0066830Y0071705D01*
X0066830Y0071826D02*
X0065210Y0071826D01*
X0065210Y0071947D02*
X0066830Y0071947D01*
X0066830Y0072068D02*
X0065210Y0072068D01*
X0065210Y0072189D02*
X0066830Y0072189D01*
X0066830Y0072310D02*
X0065210Y0072310D01*
X0065210Y0072431D02*
X0066830Y0072431D01*
X0066830Y0072552D02*
X0065210Y0072552D01*
X0065210Y0072673D02*
X0066830Y0072673D01*
X0066830Y0072794D02*
X0065210Y0072794D01*
X0065210Y0072915D02*
X0066830Y0072915D01*
X0066830Y0073036D02*
X0065210Y0073036D01*
X0065210Y0073157D02*
X0066830Y0073157D01*
X0066830Y0073278D02*
X0065210Y0073278D01*
X0065210Y0073399D02*
X0066830Y0073399D01*
X0066830Y0073520D02*
X0065210Y0073520D01*
X0065210Y0073641D02*
X0066830Y0073641D01*
X0066830Y0073762D02*
X0065210Y0073762D01*
X0065210Y0073883D02*
X0066830Y0073883D01*
X0066830Y0074004D02*
X0065210Y0074004D01*
X0067178Y0074108D02*
X0067178Y0069890D01*
X0067178Y0074108D02*
X0068798Y0074108D01*
X0068798Y0069890D01*
X0067178Y0069890D01*
X0067178Y0070011D02*
X0068798Y0070011D01*
X0068798Y0070132D02*
X0067178Y0070132D01*
X0067178Y0070253D02*
X0068798Y0070253D01*
X0068798Y0070374D02*
X0067178Y0070374D01*
X0067178Y0070495D02*
X0068798Y0070495D01*
X0068798Y0070616D02*
X0067178Y0070616D01*
X0067178Y0070737D02*
X0068798Y0070737D01*
X0068798Y0070858D02*
X0067178Y0070858D01*
X0067178Y0070979D02*
X0068798Y0070979D01*
X0068798Y0071100D02*
X0067178Y0071100D01*
X0067178Y0071221D02*
X0068798Y0071221D01*
X0068798Y0071342D02*
X0067178Y0071342D01*
X0067178Y0071463D02*
X0068798Y0071463D01*
X0068798Y0071584D02*
X0067178Y0071584D01*
X0067178Y0071705D02*
X0068798Y0071705D01*
X0068798Y0071826D02*
X0067178Y0071826D01*
X0067178Y0071947D02*
X0068798Y0071947D01*
X0068798Y0072068D02*
X0067178Y0072068D01*
X0067178Y0072189D02*
X0068798Y0072189D01*
X0068798Y0072310D02*
X0067178Y0072310D01*
X0067178Y0072431D02*
X0068798Y0072431D01*
X0068798Y0072552D02*
X0067178Y0072552D01*
X0067178Y0072673D02*
X0068798Y0072673D01*
X0068798Y0072794D02*
X0067178Y0072794D01*
X0067178Y0072915D02*
X0068798Y0072915D01*
X0068798Y0073036D02*
X0067178Y0073036D01*
X0067178Y0073157D02*
X0068798Y0073157D01*
X0068798Y0073278D02*
X0067178Y0073278D01*
X0067178Y0073399D02*
X0068798Y0073399D01*
X0068798Y0073520D02*
X0067178Y0073520D01*
X0067178Y0073641D02*
X0068798Y0073641D01*
X0068798Y0073762D02*
X0067178Y0073762D01*
X0067178Y0073883D02*
X0068798Y0073883D01*
X0068798Y0074004D02*
X0067178Y0074004D01*
D31*
X0062083Y0062550D03*
D32*
X0032083Y0067894D03*
X0032083Y0079706D03*
M02*
