%
M48
M72
T01C0.0197
T02C0.0236
T03C0.0256
T04C0.0276
T05C0.0315
T06C0.0400
%
T01
X1430Y505
X1430Y1505
X1805Y1568
X1430Y2505
X1805Y3255
X2118Y3880
X2868Y1818
X2555Y880
X4055Y755
X4430Y755
X4805Y755
X4805Y1130
X4805Y1505
X5180Y1505
X5180Y1130
X5180Y755
X5680Y755
X5680Y1130
X5680Y1505
X6055Y1505
X6055Y1130
X6055Y755
X6430Y755
X6805Y755
X5930Y2130
X5332Y2130
X3743Y5255
X3680Y5630
X3493Y5943
X3743Y6255
X3993Y6568
X4930Y7630
X5118Y8380
X5555Y8380
X5305Y9380
X5243Y9786
X5055Y6630
X5805Y5880
X6993Y6255
X6993Y7068
X7368Y7380
X9055Y7505
X9430Y7505
X9430Y6505
X9055Y6505
X9055Y5505
X9430Y5505
X9430Y4505
X9430Y3505
X9430Y2505
X9430Y1505
X9430Y505
X8305Y3078
X9430Y8505
X9430Y9505
X9430Y10505
X9430Y12505
X9430Y13505
X9430Y14505
X9430Y15505
X8993Y16068
X8680Y16318
X8993Y17068
X9430Y17505
X9430Y19505
X9430Y20505
X7868Y17973
X7805Y16969
X7743Y16299
X7868Y15965
X7743Y14943
X7743Y14568
X7493Y14255
X7430Y13880
X7618Y13568
X7680Y13193
X6769Y13193
X6493Y13443
X6555Y13818
X6493Y14193
X6555Y14568
X6555Y14943
X6743Y15318
X7118Y15255
X7055Y17380
X6680Y17380
X6305Y17380
X6430Y18005
X6805Y18005
X7180Y18005
X6055Y18005
X5680Y18005
X5555Y17380
X5555Y17005
X5930Y17380
X5305Y18005
X4930Y18005
X4805Y17380
X5180Y17380
X5180Y17005
X4555Y18005
X4180Y18005
X3805Y18005
X3430Y18005
X3055Y18005
X2180Y18005
X1430Y16505
X1430Y15505
X1430Y14505
X1430Y13505
X1430Y12505
X1430Y11505
X1868Y11005
X2118Y10755
X3493Y9380
X3493Y12380
X2993Y13957
X3118Y14318
X3118Y14693
X2993Y15965
X2368Y15630
X2180Y15295
X2368Y14961
X2180Y14626
X2368Y14291
X3930Y15255
X3930Y15755
X3930Y16255
X5118Y13818
X7618Y11380
X7930Y11130
X1430Y6505
T02
X2618Y2755
X2243Y1505
X3680Y4130
X5493Y7693
X6493Y7255
T03
X7131Y3017
X7131Y1371
X3729Y1371
X3729Y3017
T04
X4292Y2808
X6568Y2808
T05
X7180Y4130
X7805Y4130
X6868Y5380
X6555Y9693
X3743Y8880
X3243Y5255
X3493Y17303
T06
X930Y1005
X930Y2005
X930Y3005
X930Y4005
X930Y5005
X930Y6005
X930Y7005
X930Y8005
X930Y9005
X930Y10005
X930Y11005
X930Y12005
X930Y13005
X930Y14005
X930Y15005
X930Y16005
X930Y17005
X930Y18005
X930Y19005
X930Y20005
X9930Y20005
X9930Y19005
X9930Y18005
X9930Y17005
X9930Y16005
X9930Y15005
X9930Y14005
X9930Y13005
X9930Y12005
X9930Y11005
X9930Y10005
X9930Y9005
X9930Y8005
X9930Y7005
X9930Y6005
X9930Y5005
X9930Y4005
X9930Y3005
X9930Y2005
X9930Y1005
M30
