G75*
%MOIN*%
%OFA0B0*%
%FSLAX25Y25*%
%IPPOS*%
%LPD*%
%AMOC8*
5,1,8,0,0,1.08239X$1,22.5*
%
%ADD10R,0.08000X0.08000*%
%ADD11C,0.08000*%
%ADD12C,0.04734*%
%ADD13C,0.03356*%
%ADD14R,0.04143X0.06112*%
%ADD15R,0.03041X0.03041*%
%ADD16R,0.04537X0.13986*%
%ADD17R,0.06506X0.14773*%
%ADD18R,0.06506X0.12411*%
%ADD19R,0.05324X0.05324*%
D10*
X0009300Y0200050D03*
D11*
X0009300Y0010050D03*
X0009300Y0020050D03*
X0009300Y0030050D03*
X0009300Y0040050D03*
X0009300Y0050050D03*
X0009300Y0060050D03*
X0009300Y0070050D03*
X0009300Y0080050D03*
X0009300Y0090050D03*
X0009300Y0100050D03*
X0009300Y0110050D03*
X0009300Y0120050D03*
X0009300Y0130050D03*
X0009300Y0140050D03*
X0009300Y0150050D03*
X0009300Y0160050D03*
X0009300Y0170050D03*
X0009300Y0180050D03*
X0009300Y0190050D03*
X0099300Y0190050D03*
X0099300Y0180050D03*
X0099300Y0170050D03*
X0099300Y0160050D03*
X0099300Y0150050D03*
X0099300Y0140050D03*
X0099300Y0130050D03*
X0099300Y0120050D03*
X0099300Y0110050D03*
X0099300Y0100050D03*
X0099300Y0090050D03*
X0099300Y0080050D03*
X0099300Y0070050D03*
X0099300Y0060050D03*
X0099300Y0050050D03*
X0099300Y0040050D03*
X0099300Y0030050D03*
X0099300Y0020050D03*
X0099300Y0010050D03*
X0099300Y0200050D03*
D12*
X0071308Y0032235D02*
X0071308Y0028101D01*
X0071308Y0015778D02*
X0071308Y0011644D01*
X0037292Y0011644D02*
X0037292Y0015778D01*
X0037292Y0028101D02*
X0037292Y0032235D01*
D13*
X0042922Y0028081D03*
X0065678Y0028081D03*
D14*
X0046593Y0167550D03*
X0039507Y0167550D03*
D15*
X0041278Y0173800D03*
X0044822Y0173800D03*
D16*
X0042489Y0040867D03*
X0050363Y0040867D03*
X0058237Y0040867D03*
X0066111Y0040867D03*
D17*
X0075166Y0011339D03*
X0033434Y0011339D03*
D18*
X0033434Y0032206D03*
X0075166Y0032206D03*
D19*
X0019300Y0010050D03*
M02*
