G75*
%MOIN*%
%OFA0B0*%
%FSLAX25Y25*%
%IPPOS*%
%LPD*%
%AMOC8*
5,1,8,0,0,1.08239X$1,22.5*
%
%ADD10C,0.00300*%
%ADD11C,0.00400*%
%ADD12C,0.00700*%
%ADD13C,0.00787*%
%ADD14C,0.00800*%
%ADD15C,0.01000*%
%ADD16C,0.00500*%
%ADD17C,0.00100*%
%ADD18C,0.00394*%
%ADD19C,0.00600*%
%ADD20C,0.01200*%
%ADD21R,0.02117X0.17521*%
%ADD22R,0.11867X0.01867*%
%ADD23R,0.02062X0.09639*%
%ADD24R,0.11874X0.01831*%
%ADD25R,0.02025X0.09616*%
%ADD26R,0.11856X0.01752*%
%ADD27R,0.01978X0.09612*%
%ADD28R,0.11822X0.01704*%
%ADD29R,0.01923X0.09572*%
%ADD30R,0.21593X0.01805*%
%ADD31R,0.01867X0.19540*%
%ADD32R,0.01900X0.19531*%
%ADD33R,0.01878X0.01846*%
%ADD34R,0.01913X0.01851*%
%ADD35R,0.02056X0.01859*%
%ADD36R,0.01931X0.05650*%
D10*
X0015697Y0007209D02*
X0015697Y0009060D01*
X0016314Y0009677D01*
X0018783Y0009677D01*
X0019400Y0009060D01*
X0019400Y0007209D01*
X0015697Y0007209D01*
X0017548Y0010892D02*
X0017548Y0013361D01*
X0017548Y0017209D02*
X0015697Y0017209D01*
X0015697Y0019677D01*
X0015697Y0020892D02*
X0018166Y0020892D01*
X0019400Y0022126D01*
X0018166Y0023361D01*
X0015697Y0023361D01*
X0016931Y0027209D02*
X0015697Y0028443D01*
X0019400Y0028443D01*
X0019400Y0027209D02*
X0019400Y0029677D01*
X0019400Y0030892D02*
X0016931Y0033361D01*
X0016314Y0033361D01*
X0015697Y0032743D01*
X0015697Y0031509D01*
X0016314Y0030892D01*
X0019400Y0030892D02*
X0019400Y0033361D01*
X0019400Y0034709D02*
X0019400Y0037177D01*
X0020142Y0036825D02*
X0020142Y0040528D01*
X0021993Y0040528D01*
X0022611Y0039911D01*
X0022611Y0038677D01*
X0021993Y0038059D01*
X0020142Y0038059D01*
X0019400Y0038392D02*
X0019400Y0040861D01*
X0019400Y0039626D02*
X0015697Y0039626D01*
X0016931Y0038392D01*
X0015697Y0035943D02*
X0019400Y0035943D01*
X0016931Y0034709D02*
X0015697Y0035943D01*
X0017548Y0019677D02*
X0016931Y0019060D01*
X0016931Y0018443D01*
X0017548Y0017209D01*
X0018783Y0017209D02*
X0019400Y0017826D01*
X0019400Y0019060D01*
X0018783Y0019677D01*
X0017548Y0019677D01*
X0016931Y0061517D02*
X0017548Y0062134D01*
X0017548Y0063986D01*
X0016314Y0063986D02*
X0015697Y0063368D01*
X0015697Y0062134D01*
X0016314Y0061517D01*
X0016931Y0061517D01*
X0016314Y0063986D02*
X0018783Y0063986D01*
X0019400Y0063368D01*
X0019400Y0062134D01*
X0018783Y0061517D01*
X0018783Y0069017D02*
X0019400Y0069634D01*
X0019400Y0070868D01*
X0018783Y0071486D01*
X0018166Y0071486D01*
X0017548Y0070868D01*
X0017548Y0070251D01*
X0017548Y0070868D02*
X0016931Y0071486D01*
X0016314Y0071486D01*
X0015697Y0070868D01*
X0015697Y0069634D01*
X0016314Y0069017D01*
X0016314Y0077209D02*
X0015697Y0077826D01*
X0015697Y0079060D01*
X0016314Y0079677D01*
X0016931Y0079677D01*
X0019400Y0077209D01*
X0019400Y0079677D01*
X0018783Y0080892D02*
X0016314Y0083361D01*
X0018783Y0083361D01*
X0019400Y0082743D01*
X0019400Y0081509D01*
X0018783Y0080892D01*
X0016314Y0080892D01*
X0015697Y0081509D01*
X0015697Y0082743D01*
X0016314Y0083361D01*
X0016931Y0087209D02*
X0015697Y0088443D01*
X0019400Y0088443D01*
X0019400Y0087209D02*
X0019400Y0089677D01*
X0018783Y0090892D02*
X0019400Y0091509D01*
X0019400Y0092743D01*
X0018783Y0093361D01*
X0016314Y0093361D01*
X0015697Y0092743D01*
X0015697Y0091509D01*
X0016314Y0090892D01*
X0016931Y0090892D01*
X0017548Y0091509D01*
X0017548Y0093361D01*
X0023200Y0100177D02*
X0025669Y0100177D01*
X0026883Y0100177D02*
X0028735Y0100177D01*
X0029352Y0099559D01*
X0029352Y0098942D01*
X0028735Y0098325D01*
X0027500Y0098325D01*
X0026883Y0098942D01*
X0026883Y0100177D01*
X0028118Y0101411D01*
X0029352Y0102028D01*
X0025052Y0102028D02*
X0025052Y0098325D01*
X0023200Y0100177D02*
X0025052Y0102028D01*
X0041697Y0112700D02*
X0041697Y0115169D01*
X0041697Y0116383D02*
X0041697Y0118852D01*
X0041697Y0117618D02*
X0045400Y0117618D01*
X0043548Y0113934D02*
X0043548Y0112700D01*
X0041697Y0112700D02*
X0045400Y0112700D01*
X0045400Y0120066D02*
X0042931Y0122535D01*
X0042314Y0122535D01*
X0041697Y0121918D01*
X0041697Y0120683D01*
X0042314Y0120066D01*
X0042314Y0123749D02*
X0041697Y0124367D01*
X0041697Y0125601D01*
X0042314Y0126218D01*
X0042931Y0126218D01*
X0043548Y0125601D01*
X0044166Y0126218D01*
X0044783Y0126218D01*
X0045400Y0125601D01*
X0045400Y0124367D01*
X0044783Y0123749D01*
X0045400Y0122535D02*
X0045400Y0120066D01*
X0043548Y0124984D02*
X0043548Y0125601D01*
X0042931Y0127433D02*
X0041697Y0128667D01*
X0045400Y0128667D01*
X0045400Y0127433D02*
X0045400Y0129901D01*
X0045400Y0131116D02*
X0041697Y0133584D01*
X0042314Y0134799D02*
X0041697Y0135416D01*
X0041697Y0136650D01*
X0042314Y0137268D01*
X0044783Y0137268D01*
X0045400Y0136650D01*
X0045400Y0135416D01*
X0044783Y0134799D01*
X0042314Y0134799D01*
X0044166Y0136033D02*
X0045400Y0137268D01*
X0045400Y0133584D02*
X0041697Y0131116D01*
X0073200Y0100177D02*
X0075669Y0100177D01*
X0076883Y0100177D02*
X0076883Y0102028D01*
X0079352Y0102028D01*
X0078735Y0100794D02*
X0079352Y0100177D01*
X0079352Y0098942D01*
X0078735Y0098325D01*
X0077500Y0098325D01*
X0076883Y0098942D01*
X0076883Y0100177D02*
X0078118Y0100794D01*
X0078735Y0100794D01*
X0075052Y0102028D02*
X0075052Y0098325D01*
X0073200Y0100177D02*
X0075052Y0102028D01*
X0089197Y0093227D02*
X0089814Y0091993D01*
X0091048Y0090758D01*
X0091048Y0092610D01*
X0091666Y0093227D01*
X0092283Y0093227D01*
X0092900Y0092610D01*
X0092900Y0091375D01*
X0092283Y0090758D01*
X0091048Y0090758D01*
X0090431Y0089544D02*
X0089814Y0089544D01*
X0089197Y0088927D01*
X0089197Y0087692D01*
X0089814Y0087075D01*
X0091048Y0088309D02*
X0091048Y0088927D01*
X0091666Y0089544D01*
X0092283Y0089544D01*
X0092900Y0088927D01*
X0092900Y0087692D01*
X0092283Y0087075D01*
X0091048Y0088927D02*
X0090431Y0089544D01*
X0091048Y0083227D02*
X0092283Y0083227D01*
X0092900Y0082610D01*
X0092900Y0081375D01*
X0092283Y0080758D01*
X0092283Y0079544D02*
X0092900Y0078927D01*
X0092900Y0077692D01*
X0092283Y0077075D01*
X0091048Y0078309D02*
X0091048Y0078927D01*
X0091666Y0079544D01*
X0092283Y0079544D01*
X0091048Y0078927D02*
X0090431Y0079544D01*
X0089814Y0079544D01*
X0089197Y0078927D01*
X0089197Y0077692D01*
X0089814Y0077075D01*
X0089197Y0080758D02*
X0091048Y0080758D01*
X0090431Y0081993D01*
X0090431Y0082610D01*
X0091048Y0083227D01*
X0089197Y0083227D02*
X0089197Y0080758D01*
X0089814Y0071419D02*
X0092283Y0068950D01*
X0092900Y0069567D01*
X0092900Y0070802D01*
X0092283Y0071419D01*
X0089814Y0071419D01*
X0089197Y0070802D01*
X0089197Y0069567D01*
X0089814Y0068950D01*
X0092283Y0068950D01*
X0092283Y0063227D02*
X0092900Y0062610D01*
X0092900Y0061375D01*
X0092283Y0060758D01*
X0091666Y0060758D01*
X0091048Y0061375D01*
X0091048Y0062610D01*
X0091666Y0063227D01*
X0092283Y0063227D01*
X0091048Y0062610D02*
X0090431Y0063227D01*
X0089814Y0063227D01*
X0089197Y0062610D01*
X0089197Y0061375D01*
X0089814Y0060758D01*
X0090431Y0060758D01*
X0091048Y0061375D01*
X0091048Y0059544D02*
X0091048Y0057075D01*
X0089197Y0058927D01*
X0092900Y0058927D01*
X0089814Y0053227D02*
X0092283Y0050758D01*
X0092900Y0050758D01*
X0092900Y0048927D02*
X0089197Y0048927D01*
X0091048Y0047075D01*
X0091048Y0049544D01*
X0089197Y0050758D02*
X0089197Y0053227D01*
X0089814Y0053227D01*
X0092900Y0043227D02*
X0092900Y0040758D01*
X0092900Y0039544D02*
X0092900Y0037075D01*
X0090431Y0039544D01*
X0089814Y0039544D01*
X0089197Y0038927D01*
X0089197Y0037692D01*
X0089814Y0037075D01*
X0087611Y0037442D02*
X0086993Y0036825D01*
X0085759Y0036825D01*
X0085142Y0037442D01*
X0085142Y0038059D01*
X0085759Y0038677D01*
X0086993Y0038677D01*
X0087611Y0038059D01*
X0087611Y0037442D01*
X0086993Y0038677D02*
X0087611Y0039294D01*
X0087611Y0039911D01*
X0086993Y0040528D01*
X0085759Y0040528D01*
X0085142Y0039911D01*
X0085142Y0039294D01*
X0085759Y0038677D01*
X0083927Y0038677D02*
X0081459Y0038677D01*
X0083310Y0040528D01*
X0083310Y0036825D01*
X0089197Y0032610D02*
X0091048Y0030758D01*
X0091048Y0033227D01*
X0089197Y0032610D02*
X0092900Y0032610D01*
X0092900Y0029544D02*
X0092900Y0027075D01*
X0092900Y0028309D02*
X0089197Y0028309D01*
X0090431Y0027075D01*
X0090431Y0023227D02*
X0089814Y0023227D01*
X0089197Y0022610D01*
X0089197Y0021375D01*
X0089814Y0020758D01*
X0091048Y0021993D02*
X0091048Y0022610D01*
X0091666Y0023227D01*
X0092283Y0023227D01*
X0092900Y0022610D01*
X0092900Y0021375D01*
X0092283Y0020758D01*
X0092900Y0019544D02*
X0092900Y0017075D01*
X0092900Y0018309D02*
X0089197Y0018309D01*
X0090431Y0017075D01*
X0091048Y0013227D02*
X0091048Y0010758D01*
X0089814Y0009544D02*
X0089197Y0008927D01*
X0089197Y0007075D01*
X0092900Y0007075D01*
X0092900Y0008927D01*
X0092283Y0009544D01*
X0089814Y0009544D01*
X0089814Y0011993D02*
X0092283Y0011993D01*
X0091048Y0022610D02*
X0090431Y0023227D01*
X0090431Y0040758D02*
X0089197Y0041993D01*
X0092900Y0041993D01*
D11*
X0039100Y0112750D02*
X0033896Y0112750D01*
X0039100Y0116220D01*
X0033896Y0116220D01*
X0034763Y0117906D02*
X0033896Y0118774D01*
X0033896Y0120509D01*
X0034763Y0121376D01*
X0038233Y0121376D01*
X0039100Y0120509D01*
X0039100Y0118774D01*
X0038233Y0117906D01*
X0034763Y0117906D01*
X0033896Y0123063D02*
X0033896Y0125665D01*
X0034763Y0126532D01*
X0038233Y0126532D01*
X0039100Y0125665D01*
X0039100Y0123063D01*
X0033896Y0123063D01*
X0031600Y0123063D02*
X0026396Y0123063D01*
X0028130Y0124798D01*
X0026396Y0126532D01*
X0031600Y0126532D01*
X0031600Y0128219D02*
X0031600Y0131689D01*
X0030733Y0133376D02*
X0031600Y0134243D01*
X0031600Y0135978D01*
X0030733Y0136845D01*
X0027263Y0136845D01*
X0026396Y0135978D01*
X0026396Y0134243D01*
X0027263Y0133376D01*
X0030733Y0133376D01*
X0031600Y0138532D02*
X0031600Y0142002D01*
X0031600Y0143688D02*
X0031600Y0145423D01*
X0031600Y0144556D02*
X0026396Y0144556D01*
X0026396Y0145423D02*
X0026396Y0143688D01*
X0026396Y0142002D02*
X0026396Y0138532D01*
X0031600Y0138532D01*
X0033896Y0139399D02*
X0033896Y0141134D01*
X0034763Y0142002D01*
X0035630Y0142002D01*
X0039100Y0138532D01*
X0039100Y0142002D01*
X0038233Y0143688D02*
X0039100Y0144556D01*
X0039100Y0146291D01*
X0038233Y0147158D01*
X0037365Y0147158D01*
X0036498Y0146291D01*
X0036498Y0144556D01*
X0035630Y0143688D01*
X0034763Y0143688D01*
X0033896Y0144556D01*
X0033896Y0146291D01*
X0034763Y0147158D01*
X0034763Y0148845D02*
X0033896Y0149712D01*
X0033896Y0151447D01*
X0034763Y0152314D01*
X0035630Y0152314D01*
X0036498Y0151447D01*
X0037365Y0152314D01*
X0038233Y0152314D01*
X0039100Y0151447D01*
X0039100Y0149712D01*
X0038233Y0148845D01*
X0036498Y0150580D02*
X0036498Y0151447D01*
X0033896Y0139399D02*
X0034763Y0138532D01*
X0034763Y0136845D02*
X0035630Y0136845D01*
X0036498Y0135978D01*
X0037365Y0136845D01*
X0038233Y0136845D01*
X0039100Y0135978D01*
X0039100Y0134243D01*
X0038233Y0133376D01*
X0039100Y0131689D02*
X0039100Y0128219D01*
X0033896Y0128219D01*
X0033896Y0131689D01*
X0034763Y0133376D02*
X0033896Y0134243D01*
X0033896Y0135978D01*
X0034763Y0136845D01*
X0036498Y0135978D02*
X0036498Y0135110D01*
X0036498Y0129954D02*
X0036498Y0128219D01*
X0031600Y0128219D02*
X0026396Y0128219D01*
X0028130Y0121376D02*
X0031600Y0121376D01*
X0031600Y0117906D02*
X0028130Y0117906D01*
X0026396Y0119641D01*
X0028130Y0121376D01*
X0028998Y0121376D02*
X0028998Y0117906D01*
X0031600Y0116220D02*
X0031600Y0112750D01*
X0026396Y0112750D01*
X0028998Y0138532D02*
X0028998Y0140267D01*
D12*
X0028012Y0006794D02*
X0028012Y0003525D01*
X0023108Y0003525D01*
X0023108Y0006794D01*
X0025560Y0005160D02*
X0025560Y0003525D01*
X0080608Y0003525D02*
X0080608Y0005977D01*
X0081426Y0006794D01*
X0082243Y0006794D01*
X0083060Y0005977D01*
X0083060Y0003525D01*
X0083060Y0005977D02*
X0083878Y0006794D01*
X0084695Y0006794D01*
X0085513Y0005977D01*
X0085513Y0003525D01*
X0080608Y0003525D01*
D13*
X0077932Y0011576D02*
X0077934Y0011615D01*
X0077940Y0011654D01*
X0077950Y0011692D01*
X0077963Y0011729D01*
X0077980Y0011764D01*
X0078000Y0011798D01*
X0078024Y0011829D01*
X0078051Y0011858D01*
X0078080Y0011884D01*
X0078112Y0011907D01*
X0078146Y0011927D01*
X0078182Y0011943D01*
X0078219Y0011955D01*
X0078258Y0011964D01*
X0078297Y0011969D01*
X0078336Y0011970D01*
X0078375Y0011967D01*
X0078414Y0011960D01*
X0078451Y0011949D01*
X0078488Y0011935D01*
X0078523Y0011917D01*
X0078556Y0011896D01*
X0078587Y0011871D01*
X0078615Y0011844D01*
X0078640Y0011814D01*
X0078662Y0011781D01*
X0078681Y0011747D01*
X0078696Y0011711D01*
X0078708Y0011673D01*
X0078716Y0011635D01*
X0078720Y0011596D01*
X0078720Y0011556D01*
X0078716Y0011517D01*
X0078708Y0011479D01*
X0078696Y0011441D01*
X0078681Y0011405D01*
X0078662Y0011371D01*
X0078640Y0011338D01*
X0078615Y0011308D01*
X0078587Y0011281D01*
X0078556Y0011256D01*
X0078523Y0011235D01*
X0078488Y0011217D01*
X0078451Y0011203D01*
X0078414Y0011192D01*
X0078375Y0011185D01*
X0078336Y0011182D01*
X0078297Y0011183D01*
X0078258Y0011188D01*
X0078219Y0011197D01*
X0078182Y0011209D01*
X0078146Y0011225D01*
X0078112Y0011245D01*
X0078080Y0011268D01*
X0078051Y0011294D01*
X0078024Y0011323D01*
X0078000Y0011354D01*
X0077980Y0011388D01*
X0077963Y0011423D01*
X0077950Y0011460D01*
X0077940Y0011498D01*
X0077934Y0011537D01*
X0077932Y0011576D01*
X0042193Y0066487D02*
X0042195Y0066526D01*
X0042201Y0066565D01*
X0042211Y0066603D01*
X0042224Y0066640D01*
X0042241Y0066675D01*
X0042261Y0066709D01*
X0042285Y0066740D01*
X0042312Y0066769D01*
X0042341Y0066795D01*
X0042373Y0066818D01*
X0042407Y0066838D01*
X0042443Y0066854D01*
X0042480Y0066866D01*
X0042519Y0066875D01*
X0042558Y0066880D01*
X0042597Y0066881D01*
X0042636Y0066878D01*
X0042675Y0066871D01*
X0042712Y0066860D01*
X0042749Y0066846D01*
X0042784Y0066828D01*
X0042817Y0066807D01*
X0042848Y0066782D01*
X0042876Y0066755D01*
X0042901Y0066725D01*
X0042923Y0066692D01*
X0042942Y0066658D01*
X0042957Y0066622D01*
X0042969Y0066584D01*
X0042977Y0066546D01*
X0042981Y0066507D01*
X0042981Y0066467D01*
X0042977Y0066428D01*
X0042969Y0066390D01*
X0042957Y0066352D01*
X0042942Y0066316D01*
X0042923Y0066282D01*
X0042901Y0066249D01*
X0042876Y0066219D01*
X0042848Y0066192D01*
X0042817Y0066167D01*
X0042784Y0066146D01*
X0042749Y0066128D01*
X0042712Y0066114D01*
X0042675Y0066103D01*
X0042636Y0066096D01*
X0042597Y0066093D01*
X0042558Y0066094D01*
X0042519Y0066099D01*
X0042480Y0066108D01*
X0042443Y0066120D01*
X0042407Y0066136D01*
X0042373Y0066156D01*
X0042341Y0066179D01*
X0042312Y0066205D01*
X0042285Y0066234D01*
X0042261Y0066265D01*
X0042241Y0066299D01*
X0042224Y0066334D01*
X0042211Y0066371D01*
X0042201Y0066409D01*
X0042195Y0066448D01*
X0042193Y0066487D01*
X0048296Y0097855D02*
X0048298Y0097894D01*
X0048304Y0097933D01*
X0048314Y0097971D01*
X0048327Y0098008D01*
X0048344Y0098043D01*
X0048364Y0098077D01*
X0048388Y0098108D01*
X0048415Y0098137D01*
X0048444Y0098163D01*
X0048476Y0098186D01*
X0048510Y0098206D01*
X0048546Y0098222D01*
X0048583Y0098234D01*
X0048622Y0098243D01*
X0048661Y0098248D01*
X0048700Y0098249D01*
X0048739Y0098246D01*
X0048778Y0098239D01*
X0048815Y0098228D01*
X0048852Y0098214D01*
X0048887Y0098196D01*
X0048920Y0098175D01*
X0048951Y0098150D01*
X0048979Y0098123D01*
X0049004Y0098093D01*
X0049026Y0098060D01*
X0049045Y0098026D01*
X0049060Y0097990D01*
X0049072Y0097952D01*
X0049080Y0097914D01*
X0049084Y0097875D01*
X0049084Y0097835D01*
X0049080Y0097796D01*
X0049072Y0097758D01*
X0049060Y0097720D01*
X0049045Y0097684D01*
X0049026Y0097650D01*
X0049004Y0097617D01*
X0048979Y0097587D01*
X0048951Y0097560D01*
X0048920Y0097535D01*
X0048887Y0097514D01*
X0048852Y0097496D01*
X0048815Y0097482D01*
X0048778Y0097471D01*
X0048739Y0097464D01*
X0048700Y0097461D01*
X0048661Y0097462D01*
X0048622Y0097467D01*
X0048583Y0097476D01*
X0048546Y0097488D01*
X0048510Y0097504D01*
X0048476Y0097524D01*
X0048444Y0097547D01*
X0048415Y0097573D01*
X0048388Y0097602D01*
X0048364Y0097633D01*
X0048344Y0097667D01*
X0048327Y0097702D01*
X0048314Y0097739D01*
X0048304Y0097777D01*
X0048298Y0097816D01*
X0048296Y0097855D01*
X0040520Y0030050D02*
X0040522Y0030089D01*
X0040528Y0030128D01*
X0040538Y0030166D01*
X0040551Y0030203D01*
X0040568Y0030238D01*
X0040588Y0030272D01*
X0040612Y0030303D01*
X0040639Y0030332D01*
X0040668Y0030358D01*
X0040700Y0030381D01*
X0040734Y0030401D01*
X0040770Y0030417D01*
X0040807Y0030429D01*
X0040846Y0030438D01*
X0040885Y0030443D01*
X0040924Y0030444D01*
X0040963Y0030441D01*
X0041002Y0030434D01*
X0041039Y0030423D01*
X0041076Y0030409D01*
X0041111Y0030391D01*
X0041144Y0030370D01*
X0041175Y0030345D01*
X0041203Y0030318D01*
X0041228Y0030288D01*
X0041250Y0030255D01*
X0041269Y0030221D01*
X0041284Y0030185D01*
X0041296Y0030147D01*
X0041304Y0030109D01*
X0041308Y0030070D01*
X0041308Y0030030D01*
X0041304Y0029991D01*
X0041296Y0029953D01*
X0041284Y0029915D01*
X0041269Y0029879D01*
X0041250Y0029845D01*
X0041228Y0029812D01*
X0041203Y0029782D01*
X0041175Y0029755D01*
X0041144Y0029730D01*
X0041111Y0029709D01*
X0041076Y0029691D01*
X0041039Y0029677D01*
X0041002Y0029666D01*
X0040963Y0029659D01*
X0040924Y0029656D01*
X0040885Y0029657D01*
X0040846Y0029662D01*
X0040807Y0029671D01*
X0040770Y0029683D01*
X0040734Y0029699D01*
X0040700Y0029719D01*
X0040668Y0029742D01*
X0040639Y0029768D01*
X0040612Y0029797D01*
X0040588Y0029828D01*
X0040568Y0029862D01*
X0040551Y0029897D01*
X0040538Y0029934D01*
X0040528Y0029972D01*
X0040522Y0030011D01*
X0040520Y0030050D01*
X0029880Y0021024D02*
X0029882Y0021063D01*
X0029888Y0021102D01*
X0029898Y0021140D01*
X0029911Y0021177D01*
X0029928Y0021212D01*
X0029948Y0021246D01*
X0029972Y0021277D01*
X0029999Y0021306D01*
X0030028Y0021332D01*
X0030060Y0021355D01*
X0030094Y0021375D01*
X0030130Y0021391D01*
X0030167Y0021403D01*
X0030206Y0021412D01*
X0030245Y0021417D01*
X0030284Y0021418D01*
X0030323Y0021415D01*
X0030362Y0021408D01*
X0030399Y0021397D01*
X0030436Y0021383D01*
X0030471Y0021365D01*
X0030504Y0021344D01*
X0030535Y0021319D01*
X0030563Y0021292D01*
X0030588Y0021262D01*
X0030610Y0021229D01*
X0030629Y0021195D01*
X0030644Y0021159D01*
X0030656Y0021121D01*
X0030664Y0021083D01*
X0030668Y0021044D01*
X0030668Y0021004D01*
X0030664Y0020965D01*
X0030656Y0020927D01*
X0030644Y0020889D01*
X0030629Y0020853D01*
X0030610Y0020819D01*
X0030588Y0020786D01*
X0030563Y0020756D01*
X0030535Y0020729D01*
X0030504Y0020704D01*
X0030471Y0020683D01*
X0030436Y0020665D01*
X0030399Y0020651D01*
X0030362Y0020640D01*
X0030323Y0020633D01*
X0030284Y0020630D01*
X0030245Y0020631D01*
X0030206Y0020636D01*
X0030167Y0020645D01*
X0030130Y0020657D01*
X0030094Y0020673D01*
X0030060Y0020693D01*
X0030028Y0020716D01*
X0029999Y0020742D01*
X0029972Y0020771D01*
X0029948Y0020802D01*
X0029928Y0020836D01*
X0029911Y0020871D01*
X0029898Y0020908D01*
X0029888Y0020946D01*
X0029882Y0020985D01*
X0029880Y0021024D01*
X0024378Y0177009D02*
X0024380Y0177048D01*
X0024386Y0177087D01*
X0024396Y0177125D01*
X0024409Y0177162D01*
X0024426Y0177197D01*
X0024446Y0177231D01*
X0024470Y0177262D01*
X0024497Y0177291D01*
X0024526Y0177317D01*
X0024558Y0177340D01*
X0024592Y0177360D01*
X0024628Y0177376D01*
X0024665Y0177388D01*
X0024704Y0177397D01*
X0024743Y0177402D01*
X0024782Y0177403D01*
X0024821Y0177400D01*
X0024860Y0177393D01*
X0024897Y0177382D01*
X0024934Y0177368D01*
X0024969Y0177350D01*
X0025002Y0177329D01*
X0025033Y0177304D01*
X0025061Y0177277D01*
X0025086Y0177247D01*
X0025108Y0177214D01*
X0025127Y0177180D01*
X0025142Y0177144D01*
X0025154Y0177106D01*
X0025162Y0177068D01*
X0025166Y0177029D01*
X0025166Y0176989D01*
X0025162Y0176950D01*
X0025154Y0176912D01*
X0025142Y0176874D01*
X0025127Y0176838D01*
X0025108Y0176804D01*
X0025086Y0176771D01*
X0025061Y0176741D01*
X0025033Y0176714D01*
X0025002Y0176689D01*
X0024969Y0176668D01*
X0024934Y0176650D01*
X0024897Y0176636D01*
X0024860Y0176625D01*
X0024821Y0176618D01*
X0024782Y0176615D01*
X0024743Y0176616D01*
X0024704Y0176621D01*
X0024665Y0176630D01*
X0024628Y0176642D01*
X0024592Y0176658D01*
X0024558Y0176678D01*
X0024526Y0176701D01*
X0024497Y0176727D01*
X0024470Y0176756D01*
X0024446Y0176787D01*
X0024426Y0176821D01*
X0024409Y0176856D01*
X0024396Y0176893D01*
X0024386Y0176931D01*
X0024380Y0176970D01*
X0024378Y0177009D01*
X0007343Y0195050D02*
X0007345Y0195089D01*
X0007351Y0195128D01*
X0007361Y0195166D01*
X0007374Y0195203D01*
X0007391Y0195238D01*
X0007411Y0195272D01*
X0007435Y0195303D01*
X0007462Y0195332D01*
X0007491Y0195358D01*
X0007523Y0195381D01*
X0007557Y0195401D01*
X0007593Y0195417D01*
X0007630Y0195429D01*
X0007669Y0195438D01*
X0007708Y0195443D01*
X0007747Y0195444D01*
X0007786Y0195441D01*
X0007825Y0195434D01*
X0007862Y0195423D01*
X0007899Y0195409D01*
X0007934Y0195391D01*
X0007967Y0195370D01*
X0007998Y0195345D01*
X0008026Y0195318D01*
X0008051Y0195288D01*
X0008073Y0195255D01*
X0008092Y0195221D01*
X0008107Y0195185D01*
X0008119Y0195147D01*
X0008127Y0195109D01*
X0008131Y0195070D01*
X0008131Y0195030D01*
X0008127Y0194991D01*
X0008119Y0194953D01*
X0008107Y0194915D01*
X0008092Y0194879D01*
X0008073Y0194845D01*
X0008051Y0194812D01*
X0008026Y0194782D01*
X0007998Y0194755D01*
X0007967Y0194730D01*
X0007934Y0194709D01*
X0007899Y0194691D01*
X0007862Y0194677D01*
X0007825Y0194666D01*
X0007786Y0194659D01*
X0007747Y0194656D01*
X0007708Y0194657D01*
X0007669Y0194662D01*
X0007630Y0194671D01*
X0007593Y0194683D01*
X0007557Y0194699D01*
X0007523Y0194719D01*
X0007491Y0194742D01*
X0007462Y0194768D01*
X0007435Y0194797D01*
X0007411Y0194828D01*
X0007391Y0194862D01*
X0007374Y0194897D01*
X0007361Y0194934D01*
X0007351Y0194972D01*
X0007345Y0195011D01*
X0007343Y0195050D01*
X0097343Y0195050D02*
X0097345Y0195089D01*
X0097351Y0195128D01*
X0097361Y0195166D01*
X0097374Y0195203D01*
X0097391Y0195238D01*
X0097411Y0195272D01*
X0097435Y0195303D01*
X0097462Y0195332D01*
X0097491Y0195358D01*
X0097523Y0195381D01*
X0097557Y0195401D01*
X0097593Y0195417D01*
X0097630Y0195429D01*
X0097669Y0195438D01*
X0097708Y0195443D01*
X0097747Y0195444D01*
X0097786Y0195441D01*
X0097825Y0195434D01*
X0097862Y0195423D01*
X0097899Y0195409D01*
X0097934Y0195391D01*
X0097967Y0195370D01*
X0097998Y0195345D01*
X0098026Y0195318D01*
X0098051Y0195288D01*
X0098073Y0195255D01*
X0098092Y0195221D01*
X0098107Y0195185D01*
X0098119Y0195147D01*
X0098127Y0195109D01*
X0098131Y0195070D01*
X0098131Y0195030D01*
X0098127Y0194991D01*
X0098119Y0194953D01*
X0098107Y0194915D01*
X0098092Y0194879D01*
X0098073Y0194845D01*
X0098051Y0194812D01*
X0098026Y0194782D01*
X0097998Y0194755D01*
X0097967Y0194730D01*
X0097934Y0194709D01*
X0097899Y0194691D01*
X0097862Y0194677D01*
X0097825Y0194666D01*
X0097786Y0194659D01*
X0097747Y0194656D01*
X0097708Y0194657D01*
X0097669Y0194662D01*
X0097630Y0194671D01*
X0097593Y0194683D01*
X0097557Y0194699D01*
X0097523Y0194719D01*
X0097491Y0194742D01*
X0097462Y0194768D01*
X0097435Y0194797D01*
X0097411Y0194828D01*
X0097391Y0194862D01*
X0097374Y0194897D01*
X0097361Y0194934D01*
X0097351Y0194972D01*
X0097345Y0195011D01*
X0097343Y0195050D01*
D14*
X0004300Y0007550D02*
X0006800Y0005050D01*
X0011800Y0005050D01*
X0014300Y0007550D01*
X0014300Y0012550D01*
X0011800Y0015050D01*
X0014300Y0017550D01*
X0014300Y0022550D01*
X0011800Y0025050D01*
X0014300Y0027550D01*
X0014300Y0032550D01*
X0011800Y0035050D01*
X0014300Y0037550D01*
X0014300Y0042550D01*
X0011800Y0045050D01*
X0014300Y0047550D01*
X0014300Y0052550D01*
X0011800Y0055050D01*
X0014300Y0057550D01*
X0014300Y0062550D01*
X0011800Y0065050D01*
X0014300Y0067550D01*
X0014300Y0072550D01*
X0011800Y0075050D01*
X0014300Y0077550D01*
X0014300Y0082550D01*
X0011800Y0085050D01*
X0014300Y0087550D01*
X0014300Y0092550D01*
X0011800Y0095050D01*
X0014300Y0097550D01*
X0014300Y0102550D01*
X0011800Y0105050D01*
X0014300Y0107550D01*
X0014300Y0112550D01*
X0011800Y0115050D01*
X0014300Y0117550D01*
X0014300Y0122550D01*
X0011800Y0125050D01*
X0014300Y0127550D01*
X0014300Y0132550D01*
X0011800Y0135050D01*
X0014300Y0137550D01*
X0014300Y0142550D01*
X0011800Y0145050D01*
X0014300Y0147550D01*
X0014300Y0152550D01*
X0011800Y0155050D01*
X0014300Y0157550D01*
X0014300Y0162550D01*
X0011800Y0165050D01*
X0014300Y0167550D01*
X0014300Y0172550D01*
X0011800Y0175050D01*
X0014300Y0177550D01*
X0014300Y0182550D01*
X0011800Y0185050D01*
X0014300Y0187550D01*
X0014300Y0192550D01*
X0011800Y0195050D01*
X0014300Y0195050D01*
X0014300Y0205050D01*
X0011800Y0205050D01*
X0006800Y0205050D01*
X0004300Y0205050D01*
X0004300Y0195050D01*
X0006800Y0195050D01*
X0004300Y0192550D01*
X0004300Y0187550D01*
X0006800Y0185050D01*
X0004300Y0182550D01*
X0004300Y0177550D01*
X0006800Y0175050D01*
X0004300Y0172550D01*
X0004300Y0167550D01*
X0006800Y0165050D01*
X0004300Y0162550D01*
X0004300Y0157550D01*
X0006800Y0155050D01*
X0004300Y0152550D01*
X0004300Y0147550D01*
X0006800Y0145050D01*
X0004300Y0142550D01*
X0004300Y0137550D01*
X0006800Y0135050D01*
X0004300Y0132550D01*
X0004300Y0127550D01*
X0006800Y0125050D01*
X0004300Y0122550D01*
X0004300Y0117550D01*
X0006800Y0115050D01*
X0004300Y0112550D01*
X0004300Y0107550D01*
X0006800Y0105050D01*
X0004300Y0102550D01*
X0004300Y0097550D01*
X0006800Y0095050D01*
X0004300Y0092550D01*
X0004300Y0087550D01*
X0006800Y0085050D01*
X0004300Y0082550D01*
X0004300Y0077550D01*
X0006800Y0075050D01*
X0004300Y0072550D01*
X0004300Y0067550D01*
X0006800Y0065050D01*
X0004300Y0062550D01*
X0004300Y0057550D01*
X0006800Y0055050D01*
X0004300Y0052550D01*
X0004300Y0047550D01*
X0006800Y0045050D01*
X0004300Y0042550D01*
X0004300Y0037550D01*
X0006800Y0035050D01*
X0004300Y0032550D01*
X0004300Y0027550D01*
X0006800Y0025050D01*
X0004300Y0022550D01*
X0004300Y0017550D01*
X0006800Y0015050D01*
X0004300Y0012550D01*
X0004300Y0007550D01*
X0094300Y0007550D02*
X0096800Y0005050D01*
X0101800Y0005050D01*
X0104300Y0007550D01*
X0104300Y0012550D01*
X0101800Y0015050D01*
X0104300Y0017550D01*
X0104300Y0022550D01*
X0101800Y0025050D01*
X0104300Y0027550D01*
X0104300Y0032550D01*
X0101800Y0035050D01*
X0104300Y0037550D01*
X0104300Y0042550D01*
X0101800Y0045050D01*
X0104300Y0047550D01*
X0104300Y0052550D01*
X0101800Y0055050D01*
X0104300Y0057550D01*
X0104300Y0062550D01*
X0101800Y0065050D01*
X0104300Y0067550D01*
X0104300Y0072550D01*
X0101800Y0075050D01*
X0104300Y0077550D01*
X0104300Y0082550D01*
X0101800Y0085050D01*
X0104300Y0087550D01*
X0104300Y0092550D01*
X0101800Y0095050D01*
X0104300Y0097550D01*
X0104300Y0102550D01*
X0101800Y0105050D01*
X0104300Y0107550D01*
X0104300Y0112550D01*
X0101800Y0115050D01*
X0104300Y0117550D01*
X0104300Y0122550D01*
X0101800Y0125050D01*
X0104300Y0127550D01*
X0104300Y0132550D01*
X0101800Y0135050D01*
X0104300Y0137550D01*
X0104300Y0142550D01*
X0101800Y0145050D01*
X0104300Y0147550D01*
X0104300Y0152550D01*
X0101800Y0155050D01*
X0104300Y0157550D01*
X0104300Y0162550D01*
X0101800Y0165050D01*
X0104300Y0167550D01*
X0104300Y0172550D01*
X0101800Y0175050D01*
X0104300Y0177550D01*
X0104300Y0182550D01*
X0101800Y0185050D01*
X0104300Y0187550D01*
X0104300Y0192550D01*
X0101800Y0195050D01*
X0104300Y0197550D01*
X0104300Y0202550D01*
X0101800Y0205050D01*
X0096800Y0205050D01*
X0094300Y0202550D01*
X0094300Y0197550D01*
X0096800Y0195050D01*
X0094300Y0192550D01*
X0094300Y0187550D01*
X0096800Y0185050D01*
X0094300Y0182550D01*
X0094300Y0177550D01*
X0096800Y0175050D01*
X0094300Y0172550D01*
X0094300Y0167550D01*
X0096800Y0165050D01*
X0094300Y0162550D01*
X0094300Y0157550D01*
X0096800Y0155050D01*
X0094300Y0152550D01*
X0094300Y0147550D01*
X0096800Y0145050D01*
X0094300Y0142550D01*
X0094300Y0137550D01*
X0096800Y0135050D01*
X0094300Y0132550D01*
X0094300Y0127550D01*
X0096800Y0125050D01*
X0094300Y0122550D01*
X0094300Y0117550D01*
X0096800Y0115050D01*
X0094300Y0112550D01*
X0094300Y0107550D01*
X0096800Y0105050D01*
X0094300Y0102550D01*
X0094300Y0097550D01*
X0096800Y0095050D01*
X0094300Y0092550D01*
X0094300Y0087550D01*
X0096800Y0085050D01*
X0094300Y0082550D01*
X0094300Y0077550D01*
X0096800Y0075050D01*
X0094300Y0072550D01*
X0094300Y0067550D01*
X0096800Y0065050D01*
X0094300Y0062550D01*
X0094300Y0057550D01*
X0096800Y0055050D01*
X0094300Y0052550D01*
X0094300Y0047550D01*
X0096800Y0045050D01*
X0094300Y0042550D01*
X0094300Y0037550D01*
X0096800Y0035050D01*
X0094300Y0032550D01*
X0094300Y0027550D01*
X0096800Y0025050D01*
X0094300Y0022550D01*
X0094300Y0017550D01*
X0096800Y0015050D01*
X0094300Y0012550D01*
X0094300Y0007550D01*
D15*
X0087381Y0014725D02*
X0087381Y0017875D01*
X0087379Y0018006D01*
X0087373Y0018136D01*
X0087363Y0018267D01*
X0087349Y0018397D01*
X0087332Y0018527D01*
X0087310Y0018656D01*
X0087285Y0018784D01*
X0087255Y0018911D01*
X0087222Y0019038D01*
X0087185Y0019163D01*
X0087144Y0019288D01*
X0087100Y0019411D01*
X0087051Y0019532D01*
X0086999Y0019652D01*
X0086944Y0019771D01*
X0086885Y0019888D01*
X0086822Y0020003D01*
X0086756Y0020116D01*
X0086687Y0020227D01*
X0086614Y0020335D01*
X0086538Y0020442D01*
X0086459Y0020546D01*
X0086377Y0020648D01*
X0086292Y0020747D01*
X0086204Y0020844D01*
X0086112Y0020937D01*
X0086019Y0021029D01*
X0085922Y0021117D01*
X0085823Y0021202D01*
X0085721Y0021284D01*
X0085617Y0021363D01*
X0085510Y0021439D01*
X0085402Y0021512D01*
X0085291Y0021581D01*
X0085178Y0021647D01*
X0085063Y0021710D01*
X0084946Y0021769D01*
X0084827Y0021824D01*
X0084707Y0021876D01*
X0084586Y0021925D01*
X0084463Y0021969D01*
X0084338Y0022010D01*
X0084213Y0022047D01*
X0084086Y0022080D01*
X0083959Y0022110D01*
X0083831Y0022135D01*
X0083702Y0022157D01*
X0083572Y0022174D01*
X0083442Y0022188D01*
X0083311Y0022198D01*
X0083181Y0022204D01*
X0083050Y0022206D01*
X0082919Y0022204D01*
X0082789Y0022198D01*
X0082658Y0022188D01*
X0082528Y0022174D01*
X0082398Y0022157D01*
X0082269Y0022135D01*
X0082141Y0022110D01*
X0082014Y0022080D01*
X0081887Y0022047D01*
X0081762Y0022010D01*
X0081637Y0021969D01*
X0081514Y0021925D01*
X0081393Y0021876D01*
X0081273Y0021824D01*
X0081154Y0021769D01*
X0081037Y0021710D01*
X0080922Y0021647D01*
X0080809Y0021581D01*
X0080698Y0021512D01*
X0080590Y0021439D01*
X0080483Y0021363D01*
X0080379Y0021284D01*
X0080277Y0021202D01*
X0080178Y0021117D01*
X0080081Y0021029D01*
X0079988Y0020937D01*
X0079896Y0020844D01*
X0079808Y0020747D01*
X0079723Y0020648D01*
X0079641Y0020546D01*
X0079562Y0020442D01*
X0079486Y0020335D01*
X0079413Y0020227D01*
X0079344Y0020116D01*
X0079278Y0020003D01*
X0079215Y0019888D01*
X0079156Y0019771D01*
X0079101Y0019652D01*
X0079049Y0019532D01*
X0079000Y0019411D01*
X0078956Y0019288D01*
X0078915Y0019163D01*
X0078878Y0019038D01*
X0078845Y0018911D01*
X0078815Y0018784D01*
X0078790Y0018656D01*
X0078768Y0018527D01*
X0078751Y0018397D01*
X0078737Y0018267D01*
X0078727Y0018136D01*
X0078721Y0018006D01*
X0078719Y0017875D01*
X0078719Y0014725D01*
X0083050Y0010394D02*
X0083181Y0010396D01*
X0083311Y0010402D01*
X0083442Y0010412D01*
X0083572Y0010426D01*
X0083702Y0010443D01*
X0083831Y0010465D01*
X0083959Y0010490D01*
X0084086Y0010520D01*
X0084213Y0010553D01*
X0084338Y0010590D01*
X0084463Y0010631D01*
X0084586Y0010675D01*
X0084707Y0010724D01*
X0084827Y0010776D01*
X0084946Y0010831D01*
X0085063Y0010890D01*
X0085178Y0010953D01*
X0085291Y0011019D01*
X0085402Y0011088D01*
X0085510Y0011161D01*
X0085617Y0011237D01*
X0085721Y0011316D01*
X0085823Y0011398D01*
X0085922Y0011483D01*
X0086019Y0011571D01*
X0086112Y0011663D01*
X0086204Y0011756D01*
X0086292Y0011853D01*
X0086377Y0011952D01*
X0086459Y0012054D01*
X0086538Y0012158D01*
X0086614Y0012265D01*
X0086687Y0012373D01*
X0086756Y0012484D01*
X0086822Y0012597D01*
X0086885Y0012712D01*
X0086944Y0012829D01*
X0086999Y0012948D01*
X0087051Y0013068D01*
X0087100Y0013189D01*
X0087144Y0013312D01*
X0087185Y0013437D01*
X0087222Y0013562D01*
X0087255Y0013689D01*
X0087285Y0013816D01*
X0087310Y0013944D01*
X0087332Y0014073D01*
X0087349Y0014203D01*
X0087363Y0014333D01*
X0087373Y0014464D01*
X0087379Y0014594D01*
X0087381Y0014725D01*
X0083050Y0010394D02*
X0082919Y0010396D01*
X0082789Y0010402D01*
X0082658Y0010412D01*
X0082528Y0010426D01*
X0082398Y0010443D01*
X0082269Y0010465D01*
X0082141Y0010490D01*
X0082014Y0010520D01*
X0081887Y0010553D01*
X0081762Y0010590D01*
X0081637Y0010631D01*
X0081514Y0010675D01*
X0081393Y0010724D01*
X0081273Y0010776D01*
X0081154Y0010831D01*
X0081037Y0010890D01*
X0080922Y0010953D01*
X0080809Y0011019D01*
X0080698Y0011088D01*
X0080590Y0011161D01*
X0080483Y0011237D01*
X0080379Y0011316D01*
X0080277Y0011398D01*
X0080178Y0011483D01*
X0080081Y0011571D01*
X0079988Y0011663D01*
X0079896Y0011756D01*
X0079808Y0011853D01*
X0079723Y0011952D01*
X0079641Y0012054D01*
X0079562Y0012158D01*
X0079486Y0012265D01*
X0079413Y0012373D01*
X0079344Y0012484D01*
X0079278Y0012597D01*
X0079215Y0012712D01*
X0079156Y0012829D01*
X0079101Y0012948D01*
X0079049Y0013068D01*
X0079000Y0013189D01*
X0078956Y0013312D01*
X0078915Y0013437D01*
X0078878Y0013562D01*
X0078845Y0013689D01*
X0078815Y0013816D01*
X0078790Y0013944D01*
X0078768Y0014073D01*
X0078751Y0014203D01*
X0078737Y0014333D01*
X0078727Y0014464D01*
X0078721Y0014594D01*
X0078719Y0014725D01*
X0071898Y0019105D02*
X0071898Y0024774D01*
X0071898Y0008318D02*
X0071898Y0003475D01*
X0036702Y0003475D01*
X0036702Y0008318D01*
X0029881Y0014725D02*
X0029881Y0017875D01*
X0025550Y0022206D02*
X0025419Y0022204D01*
X0025289Y0022198D01*
X0025158Y0022188D01*
X0025028Y0022174D01*
X0024898Y0022157D01*
X0024769Y0022135D01*
X0024641Y0022110D01*
X0024514Y0022080D01*
X0024387Y0022047D01*
X0024262Y0022010D01*
X0024137Y0021969D01*
X0024014Y0021925D01*
X0023893Y0021876D01*
X0023773Y0021824D01*
X0023654Y0021769D01*
X0023537Y0021710D01*
X0023422Y0021647D01*
X0023309Y0021581D01*
X0023198Y0021512D01*
X0023090Y0021439D01*
X0022983Y0021363D01*
X0022879Y0021284D01*
X0022777Y0021202D01*
X0022678Y0021117D01*
X0022581Y0021029D01*
X0022488Y0020937D01*
X0022396Y0020844D01*
X0022308Y0020747D01*
X0022223Y0020648D01*
X0022141Y0020546D01*
X0022062Y0020442D01*
X0021986Y0020335D01*
X0021913Y0020227D01*
X0021844Y0020116D01*
X0021778Y0020003D01*
X0021715Y0019888D01*
X0021656Y0019771D01*
X0021601Y0019652D01*
X0021549Y0019532D01*
X0021500Y0019411D01*
X0021456Y0019288D01*
X0021415Y0019163D01*
X0021378Y0019038D01*
X0021345Y0018911D01*
X0021315Y0018784D01*
X0021290Y0018656D01*
X0021268Y0018527D01*
X0021251Y0018397D01*
X0021237Y0018267D01*
X0021227Y0018136D01*
X0021221Y0018006D01*
X0021219Y0017875D01*
X0021219Y0014725D01*
X0021221Y0014594D01*
X0021227Y0014464D01*
X0021237Y0014333D01*
X0021251Y0014203D01*
X0021268Y0014073D01*
X0021290Y0013944D01*
X0021315Y0013816D01*
X0021345Y0013689D01*
X0021378Y0013562D01*
X0021415Y0013437D01*
X0021456Y0013312D01*
X0021500Y0013189D01*
X0021549Y0013068D01*
X0021601Y0012948D01*
X0021656Y0012829D01*
X0021715Y0012712D01*
X0021778Y0012597D01*
X0021844Y0012484D01*
X0021913Y0012373D01*
X0021986Y0012265D01*
X0022062Y0012158D01*
X0022141Y0012054D01*
X0022223Y0011952D01*
X0022308Y0011853D01*
X0022396Y0011756D01*
X0022488Y0011663D01*
X0022581Y0011571D01*
X0022678Y0011483D01*
X0022777Y0011398D01*
X0022879Y0011316D01*
X0022983Y0011237D01*
X0023090Y0011161D01*
X0023198Y0011088D01*
X0023309Y0011019D01*
X0023422Y0010953D01*
X0023537Y0010890D01*
X0023654Y0010831D01*
X0023773Y0010776D01*
X0023893Y0010724D01*
X0024014Y0010675D01*
X0024137Y0010631D01*
X0024262Y0010590D01*
X0024387Y0010553D01*
X0024514Y0010520D01*
X0024641Y0010490D01*
X0024769Y0010465D01*
X0024898Y0010443D01*
X0025028Y0010426D01*
X0025158Y0010412D01*
X0025289Y0010402D01*
X0025419Y0010396D01*
X0025550Y0010394D01*
X0025681Y0010396D01*
X0025811Y0010402D01*
X0025942Y0010412D01*
X0026072Y0010426D01*
X0026202Y0010443D01*
X0026331Y0010465D01*
X0026459Y0010490D01*
X0026586Y0010520D01*
X0026713Y0010553D01*
X0026838Y0010590D01*
X0026963Y0010631D01*
X0027086Y0010675D01*
X0027207Y0010724D01*
X0027327Y0010776D01*
X0027446Y0010831D01*
X0027563Y0010890D01*
X0027678Y0010953D01*
X0027791Y0011019D01*
X0027902Y0011088D01*
X0028010Y0011161D01*
X0028117Y0011237D01*
X0028221Y0011316D01*
X0028323Y0011398D01*
X0028422Y0011483D01*
X0028519Y0011571D01*
X0028612Y0011663D01*
X0028704Y0011756D01*
X0028792Y0011853D01*
X0028877Y0011952D01*
X0028959Y0012054D01*
X0029038Y0012158D01*
X0029114Y0012265D01*
X0029187Y0012373D01*
X0029256Y0012484D01*
X0029322Y0012597D01*
X0029385Y0012712D01*
X0029444Y0012829D01*
X0029499Y0012948D01*
X0029551Y0013068D01*
X0029600Y0013189D01*
X0029644Y0013312D01*
X0029685Y0013437D01*
X0029722Y0013562D01*
X0029755Y0013689D01*
X0029785Y0013816D01*
X0029810Y0013944D01*
X0029832Y0014073D01*
X0029849Y0014203D01*
X0029863Y0014333D01*
X0029873Y0014464D01*
X0029879Y0014594D01*
X0029881Y0014725D01*
X0029881Y0017875D02*
X0029879Y0018006D01*
X0029873Y0018136D01*
X0029863Y0018267D01*
X0029849Y0018397D01*
X0029832Y0018527D01*
X0029810Y0018656D01*
X0029785Y0018784D01*
X0029755Y0018911D01*
X0029722Y0019038D01*
X0029685Y0019163D01*
X0029644Y0019288D01*
X0029600Y0019411D01*
X0029551Y0019532D01*
X0029499Y0019652D01*
X0029444Y0019771D01*
X0029385Y0019888D01*
X0029322Y0020003D01*
X0029256Y0020116D01*
X0029187Y0020227D01*
X0029114Y0020335D01*
X0029038Y0020442D01*
X0028959Y0020546D01*
X0028877Y0020648D01*
X0028792Y0020747D01*
X0028704Y0020844D01*
X0028612Y0020937D01*
X0028519Y0021029D01*
X0028422Y0021117D01*
X0028323Y0021202D01*
X0028221Y0021284D01*
X0028117Y0021363D01*
X0028010Y0021439D01*
X0027902Y0021512D01*
X0027791Y0021581D01*
X0027678Y0021647D01*
X0027563Y0021710D01*
X0027446Y0021769D01*
X0027327Y0021824D01*
X0027207Y0021876D01*
X0027086Y0021925D01*
X0026963Y0021969D01*
X0026838Y0022010D01*
X0026713Y0022047D01*
X0026586Y0022080D01*
X0026459Y0022110D01*
X0026331Y0022135D01*
X0026202Y0022157D01*
X0026072Y0022174D01*
X0025942Y0022188D01*
X0025811Y0022198D01*
X0025681Y0022204D01*
X0025550Y0022206D01*
X0036702Y0024774D02*
X0036702Y0019105D01*
D16*
X0031948Y0024568D02*
X0031948Y0008032D01*
X0027519Y0008032D02*
X0023581Y0008032D01*
X0019152Y0008032D02*
X0019152Y0024568D01*
X0023581Y0024568D02*
X0027519Y0024568D01*
X0028987Y0032237D02*
X0029612Y0032863D01*
X0030237Y0032237D01*
X0030550Y0032550D01*
X0030862Y0032550D01*
X0028987Y0032237D02*
X0028362Y0032863D01*
X0028050Y0032550D01*
X0027737Y0032550D01*
X0023719Y0041782D02*
X0023719Y0058318D01*
X0020863Y0056300D02*
X0020550Y0056300D01*
X0020238Y0055987D01*
X0019613Y0056612D01*
X0018988Y0055987D01*
X0018363Y0056612D01*
X0018050Y0056300D01*
X0017738Y0056300D01*
X0024113Y0053987D02*
X0028050Y0053987D01*
X0028050Y0055956D01*
X0028050Y0053987D02*
X0030806Y0050050D01*
X0025294Y0050050D01*
X0028050Y0053987D01*
X0031987Y0053987D01*
X0029509Y0051903D02*
X0026591Y0051903D01*
X0026940Y0052401D02*
X0029160Y0052401D01*
X0028811Y0052900D02*
X0027289Y0052900D01*
X0027638Y0053398D02*
X0028462Y0053398D01*
X0028113Y0053897D02*
X0027987Y0053897D01*
X0026242Y0051404D02*
X0029858Y0051404D01*
X0030207Y0050906D02*
X0025893Y0050906D01*
X0025544Y0050407D02*
X0030556Y0050407D01*
X0028050Y0050050D02*
X0028050Y0048081D01*
X0032381Y0041782D02*
X0032381Y0060680D01*
X0024300Y0070308D02*
X0024300Y0070847D01*
X0024300Y0070848D02*
X0024225Y0070850D01*
X0024151Y0070856D01*
X0024076Y0070865D01*
X0024003Y0070878D01*
X0023930Y0070895D01*
X0023858Y0070916D01*
X0023787Y0070940D01*
X0023718Y0070968D01*
X0023650Y0070999D01*
X0023584Y0071033D01*
X0023519Y0071071D01*
X0023457Y0071113D01*
X0023397Y0071157D01*
X0023339Y0071204D01*
X0023283Y0071254D01*
X0023230Y0071307D01*
X0023180Y0071363D01*
X0023133Y0071421D01*
X0023089Y0071481D01*
X0023047Y0071543D01*
X0023009Y0071608D01*
X0022975Y0071674D01*
X0022944Y0071742D01*
X0022916Y0071811D01*
X0022892Y0071882D01*
X0022871Y0071954D01*
X0022854Y0072027D01*
X0022841Y0072100D01*
X0022832Y0072175D01*
X0022826Y0072249D01*
X0022824Y0072324D01*
X0022826Y0072399D01*
X0022832Y0072473D01*
X0022841Y0072548D01*
X0022854Y0072621D01*
X0022871Y0072694D01*
X0022892Y0072766D01*
X0022916Y0072837D01*
X0022944Y0072906D01*
X0022975Y0072974D01*
X0023009Y0073040D01*
X0023047Y0073105D01*
X0023089Y0073167D01*
X0023133Y0073227D01*
X0023180Y0073285D01*
X0023230Y0073341D01*
X0023283Y0073394D01*
X0023339Y0073444D01*
X0023397Y0073491D01*
X0023457Y0073535D01*
X0023519Y0073577D01*
X0023584Y0073615D01*
X0023650Y0073649D01*
X0023718Y0073680D01*
X0023787Y0073708D01*
X0023858Y0073732D01*
X0023930Y0073753D01*
X0024003Y0073770D01*
X0024076Y0073783D01*
X0024151Y0073792D01*
X0024225Y0073798D01*
X0024300Y0073800D01*
X0025776Y0075276D02*
X0025774Y0075351D01*
X0025768Y0075425D01*
X0025759Y0075500D01*
X0025746Y0075573D01*
X0025729Y0075646D01*
X0025708Y0075718D01*
X0025684Y0075789D01*
X0025656Y0075858D01*
X0025625Y0075926D01*
X0025591Y0075992D01*
X0025553Y0076057D01*
X0025511Y0076119D01*
X0025467Y0076179D01*
X0025420Y0076237D01*
X0025370Y0076293D01*
X0025317Y0076346D01*
X0025261Y0076396D01*
X0025203Y0076443D01*
X0025143Y0076487D01*
X0025081Y0076529D01*
X0025016Y0076567D01*
X0024950Y0076601D01*
X0024882Y0076632D01*
X0024813Y0076660D01*
X0024742Y0076684D01*
X0024670Y0076705D01*
X0024597Y0076722D01*
X0024524Y0076735D01*
X0024449Y0076744D01*
X0024375Y0076750D01*
X0024300Y0076752D01*
X0024300Y0076753D02*
X0024300Y0077292D01*
X0025776Y0075276D02*
X0025774Y0075201D01*
X0025768Y0075127D01*
X0025759Y0075052D01*
X0025746Y0074979D01*
X0025729Y0074906D01*
X0025708Y0074834D01*
X0025684Y0074763D01*
X0025656Y0074694D01*
X0025625Y0074626D01*
X0025591Y0074560D01*
X0025553Y0074495D01*
X0025511Y0074433D01*
X0025467Y0074373D01*
X0025420Y0074315D01*
X0025370Y0074259D01*
X0025317Y0074206D01*
X0025261Y0074156D01*
X0025203Y0074109D01*
X0025143Y0074065D01*
X0025081Y0074023D01*
X0025016Y0073985D01*
X0024950Y0073951D01*
X0024882Y0073920D01*
X0024813Y0073892D01*
X0024742Y0073868D01*
X0024670Y0073847D01*
X0024597Y0073830D01*
X0024524Y0073817D01*
X0024449Y0073808D01*
X0024375Y0073802D01*
X0024300Y0073800D01*
X0040238Y0046300D02*
X0040550Y0046300D01*
X0040863Y0046612D01*
X0041488Y0045987D01*
X0042113Y0046612D01*
X0042738Y0045987D01*
X0043050Y0046300D01*
X0043362Y0046300D01*
X0046426Y0054676D02*
X0046426Y0056822D01*
X0046426Y0054676D02*
X0048572Y0054676D01*
X0050862Y0046612D02*
X0051487Y0045987D01*
X0052112Y0046612D01*
X0052737Y0045987D01*
X0053050Y0046300D01*
X0053362Y0046300D01*
X0055237Y0046300D02*
X0055550Y0046300D01*
X0055862Y0046612D01*
X0056487Y0045987D01*
X0057112Y0046612D01*
X0057737Y0045987D01*
X0058050Y0046300D01*
X0058362Y0046300D01*
X0060028Y0054676D02*
X0062174Y0054676D01*
X0062174Y0056822D01*
X0065863Y0046612D02*
X0065550Y0046300D01*
X0065237Y0046300D01*
X0065863Y0046612D02*
X0066488Y0045987D01*
X0067113Y0046612D01*
X0067738Y0045987D01*
X0068050Y0046300D01*
X0068363Y0046300D01*
X0077738Y0032550D02*
X0078050Y0032550D01*
X0078363Y0032863D01*
X0078988Y0032237D01*
X0079613Y0032863D01*
X0080238Y0032237D01*
X0080550Y0032550D01*
X0080863Y0032550D01*
X0081081Y0024568D02*
X0085019Y0024568D01*
X0089448Y0024568D02*
X0089448Y0008032D01*
X0085019Y0008032D02*
X0081081Y0008032D01*
X0076652Y0008032D02*
X0076652Y0024568D01*
X0081488Y0058487D02*
X0080863Y0059112D01*
X0080550Y0058800D01*
X0080238Y0058800D01*
X0081488Y0058487D02*
X0082113Y0059112D01*
X0082738Y0058487D01*
X0083050Y0058800D01*
X0083363Y0058800D01*
X0085238Y0058800D02*
X0085550Y0058800D01*
X0085863Y0059112D01*
X0086487Y0058487D01*
X0087112Y0059112D01*
X0087737Y0058487D01*
X0088050Y0058800D01*
X0088362Y0058800D01*
X0084753Y0076034D02*
X0084755Y0076096D01*
X0084761Y0076159D01*
X0084771Y0076220D01*
X0084785Y0076281D01*
X0084802Y0076341D01*
X0084823Y0076400D01*
X0084849Y0076457D01*
X0084877Y0076512D01*
X0084909Y0076566D01*
X0084945Y0076617D01*
X0084983Y0076667D01*
X0085025Y0076713D01*
X0085069Y0076757D01*
X0085117Y0076798D01*
X0085166Y0076836D01*
X0085218Y0076870D01*
X0085272Y0076901D01*
X0085328Y0076929D01*
X0085386Y0076953D01*
X0085445Y0076974D01*
X0085505Y0076990D01*
X0085566Y0077003D01*
X0085628Y0077012D01*
X0085690Y0077017D01*
X0085753Y0077018D01*
X0085815Y0077015D01*
X0085877Y0077008D01*
X0085939Y0076997D01*
X0085999Y0076982D01*
X0086059Y0076964D01*
X0086117Y0076942D01*
X0086174Y0076916D01*
X0086229Y0076886D01*
X0086282Y0076853D01*
X0086333Y0076817D01*
X0086381Y0076778D01*
X0086427Y0076735D01*
X0086470Y0076690D01*
X0086510Y0076642D01*
X0086547Y0076592D01*
X0086581Y0076539D01*
X0086612Y0076485D01*
X0086638Y0076429D01*
X0086662Y0076371D01*
X0086681Y0076311D01*
X0086697Y0076251D01*
X0086709Y0076189D01*
X0086717Y0076128D01*
X0086721Y0076065D01*
X0086721Y0076003D01*
X0086717Y0075940D01*
X0086709Y0075879D01*
X0086697Y0075817D01*
X0086681Y0075757D01*
X0086662Y0075697D01*
X0086638Y0075639D01*
X0086612Y0075583D01*
X0086581Y0075529D01*
X0086547Y0075476D01*
X0086510Y0075426D01*
X0086470Y0075378D01*
X0086427Y0075333D01*
X0086381Y0075290D01*
X0086333Y0075251D01*
X0086282Y0075215D01*
X0086229Y0075182D01*
X0086174Y0075152D01*
X0086117Y0075126D01*
X0086059Y0075104D01*
X0085999Y0075086D01*
X0085939Y0075071D01*
X0085877Y0075060D01*
X0085815Y0075053D01*
X0085753Y0075050D01*
X0085690Y0075051D01*
X0085628Y0075056D01*
X0085566Y0075065D01*
X0085505Y0075078D01*
X0085445Y0075094D01*
X0085386Y0075115D01*
X0085328Y0075139D01*
X0085272Y0075167D01*
X0085218Y0075198D01*
X0085166Y0075232D01*
X0085117Y0075270D01*
X0085069Y0075311D01*
X0085025Y0075355D01*
X0084983Y0075401D01*
X0084945Y0075451D01*
X0084909Y0075502D01*
X0084877Y0075556D01*
X0084849Y0075611D01*
X0084823Y0075668D01*
X0084802Y0075727D01*
X0084785Y0075787D01*
X0084771Y0075848D01*
X0084761Y0075909D01*
X0084755Y0075972D01*
X0084753Y0076034D01*
X0085238Y0084738D02*
X0084613Y0085363D01*
X0084300Y0085050D01*
X0083988Y0085050D01*
X0085238Y0084738D02*
X0085863Y0085363D01*
X0086487Y0084738D01*
X0086800Y0085050D01*
X0087112Y0085050D01*
X0079613Y0085050D02*
X0079300Y0085050D01*
X0078988Y0084738D01*
X0078363Y0085363D01*
X0077738Y0084738D01*
X0077113Y0085363D01*
X0076800Y0085050D01*
X0076488Y0085050D01*
X0076879Y0094066D02*
X0076881Y0094128D01*
X0076887Y0094191D01*
X0076897Y0094252D01*
X0076911Y0094313D01*
X0076928Y0094373D01*
X0076949Y0094432D01*
X0076975Y0094489D01*
X0077003Y0094544D01*
X0077035Y0094598D01*
X0077071Y0094649D01*
X0077109Y0094699D01*
X0077151Y0094745D01*
X0077195Y0094789D01*
X0077243Y0094830D01*
X0077292Y0094868D01*
X0077344Y0094902D01*
X0077398Y0094933D01*
X0077454Y0094961D01*
X0077512Y0094985D01*
X0077571Y0095006D01*
X0077631Y0095022D01*
X0077692Y0095035D01*
X0077754Y0095044D01*
X0077816Y0095049D01*
X0077879Y0095050D01*
X0077941Y0095047D01*
X0078003Y0095040D01*
X0078065Y0095029D01*
X0078125Y0095014D01*
X0078185Y0094996D01*
X0078243Y0094974D01*
X0078300Y0094948D01*
X0078355Y0094918D01*
X0078408Y0094885D01*
X0078459Y0094849D01*
X0078507Y0094810D01*
X0078553Y0094767D01*
X0078596Y0094722D01*
X0078636Y0094674D01*
X0078673Y0094624D01*
X0078707Y0094571D01*
X0078738Y0094517D01*
X0078764Y0094461D01*
X0078788Y0094403D01*
X0078807Y0094343D01*
X0078823Y0094283D01*
X0078835Y0094221D01*
X0078843Y0094160D01*
X0078847Y0094097D01*
X0078847Y0094035D01*
X0078843Y0093972D01*
X0078835Y0093911D01*
X0078823Y0093849D01*
X0078807Y0093789D01*
X0078788Y0093729D01*
X0078764Y0093671D01*
X0078738Y0093615D01*
X0078707Y0093561D01*
X0078673Y0093508D01*
X0078636Y0093458D01*
X0078596Y0093410D01*
X0078553Y0093365D01*
X0078507Y0093322D01*
X0078459Y0093283D01*
X0078408Y0093247D01*
X0078355Y0093214D01*
X0078300Y0093184D01*
X0078243Y0093158D01*
X0078185Y0093136D01*
X0078125Y0093118D01*
X0078065Y0093103D01*
X0078003Y0093092D01*
X0077941Y0093085D01*
X0077879Y0093082D01*
X0077816Y0093083D01*
X0077754Y0093088D01*
X0077692Y0093097D01*
X0077631Y0093110D01*
X0077571Y0093126D01*
X0077512Y0093147D01*
X0077454Y0093171D01*
X0077398Y0093199D01*
X0077344Y0093230D01*
X0077292Y0093264D01*
X0077243Y0093302D01*
X0077195Y0093343D01*
X0077151Y0093387D01*
X0077109Y0093433D01*
X0077071Y0093483D01*
X0077035Y0093534D01*
X0077003Y0093588D01*
X0076975Y0093643D01*
X0076949Y0093700D01*
X0076928Y0093759D01*
X0076911Y0093819D01*
X0076897Y0093880D01*
X0076887Y0093941D01*
X0076881Y0094004D01*
X0076879Y0094066D01*
X0085796Y0106123D02*
X0089733Y0106123D01*
X0089733Y0109076D01*
X0062174Y0070424D02*
X0062174Y0068278D01*
X0062174Y0070424D02*
X0060028Y0070424D01*
X0061190Y0076005D02*
X0047410Y0076005D01*
X0047410Y0076989D01*
X0047410Y0082107D02*
X0047410Y0086044D01*
X0047410Y0091556D02*
X0047410Y0095493D01*
X0047410Y0100611D02*
X0047410Y0101595D01*
X0061190Y0101595D01*
X0061190Y0096713D01*
X0061190Y0080887D02*
X0061190Y0076005D01*
X0048572Y0070424D02*
X0046426Y0070424D01*
X0046426Y0068278D01*
X0050862Y0046612D02*
X0050550Y0046300D01*
X0050237Y0046300D01*
X0022804Y0106123D02*
X0018867Y0106123D01*
X0018867Y0109076D01*
X0018867Y0180926D02*
X0018867Y0206517D01*
X0089733Y0206517D01*
X0089733Y0180926D01*
D17*
X0087519Y0088790D02*
X0083581Y0088790D01*
X0083581Y0081310D01*
X0087519Y0081310D01*
X0087519Y0088790D01*
X0080019Y0088790D02*
X0080019Y0081310D01*
X0076081Y0081310D01*
X0076081Y0088790D01*
X0080019Y0088790D01*
X0076790Y0063269D02*
X0069310Y0063269D01*
X0069310Y0059331D01*
X0076790Y0059331D01*
X0076790Y0063269D01*
X0079831Y0062540D02*
X0083769Y0062540D01*
X0083769Y0055060D01*
X0079831Y0055060D01*
X0079831Y0062540D01*
X0078988Y0058487D02*
X0078988Y0051612D01*
X0067113Y0051612D01*
X0067113Y0058487D01*
X0078988Y0058487D01*
X0079831Y0050040D02*
X0083769Y0050040D01*
X0083769Y0042560D01*
X0079831Y0042560D01*
X0079831Y0050040D01*
X0078965Y0049450D02*
X0074635Y0049450D01*
X0074635Y0043150D01*
X0078965Y0043150D01*
X0078965Y0049450D01*
X0073769Y0050040D02*
X0073769Y0042560D01*
X0069831Y0042560D01*
X0069831Y0050040D01*
X0073769Y0050040D01*
X0068769Y0050040D02*
X0068769Y0042560D01*
X0064831Y0042560D01*
X0064831Y0050040D01*
X0068769Y0050040D01*
X0063769Y0050040D02*
X0063769Y0042560D01*
X0059831Y0042560D01*
X0059831Y0050040D01*
X0063769Y0050040D01*
X0058769Y0050040D02*
X0058769Y0042560D01*
X0054831Y0042560D01*
X0054831Y0050040D01*
X0058769Y0050040D01*
X0053769Y0050040D02*
X0053769Y0042560D01*
X0049831Y0042560D01*
X0049831Y0050040D01*
X0053769Y0050040D01*
X0048769Y0050040D02*
X0048769Y0042560D01*
X0044831Y0042560D01*
X0044831Y0050040D01*
X0048769Y0050040D01*
X0043769Y0050040D02*
X0043769Y0042560D01*
X0039831Y0042560D01*
X0039831Y0050040D01*
X0043769Y0050040D01*
X0038769Y0050040D02*
X0038769Y0042560D01*
X0034831Y0042560D01*
X0034831Y0050040D01*
X0038769Y0050040D01*
X0031269Y0036290D02*
X0031269Y0028810D01*
X0027331Y0028810D01*
X0027331Y0036290D01*
X0031269Y0036290D01*
X0023769Y0036290D02*
X0023769Y0028810D01*
X0019831Y0028810D01*
X0019831Y0036290D01*
X0023769Y0036290D01*
X0021465Y0041182D02*
X0017135Y0041182D01*
X0017135Y0051418D01*
X0021465Y0051418D01*
X0021465Y0041182D01*
X0021269Y0052560D02*
X0017331Y0052560D01*
X0017331Y0060040D01*
X0021269Y0060040D01*
X0021269Y0052560D01*
X0019772Y0064548D02*
X0028828Y0064548D01*
X0028828Y0083052D01*
X0019772Y0083052D01*
X0019772Y0064548D01*
X0029612Y0065362D02*
X0036488Y0065362D01*
X0036488Y0077238D01*
X0029612Y0077238D01*
X0029612Y0065362D01*
X0037331Y0070060D02*
X0041269Y0070060D01*
X0041269Y0077540D01*
X0037331Y0077540D01*
X0037331Y0070060D01*
X0032737Y0085363D02*
X0020863Y0085363D01*
X0020863Y0092237D01*
X0032737Y0092237D01*
X0032737Y0085363D01*
X0030540Y0093081D02*
X0023060Y0093081D01*
X0023060Y0097019D01*
X0030540Y0097019D01*
X0030540Y0093081D01*
X0077331Y0036290D02*
X0077331Y0028810D01*
X0081269Y0028810D01*
X0081269Y0036290D01*
X0077331Y0036290D01*
X0084635Y0041182D02*
X0084635Y0051418D01*
X0088965Y0051418D01*
X0088965Y0041182D01*
X0084635Y0041182D01*
X0084831Y0036290D02*
X0088769Y0036290D01*
X0088769Y0028810D01*
X0084831Y0028810D01*
X0084831Y0036290D01*
X0084831Y0055060D02*
X0084831Y0062540D01*
X0088769Y0062540D01*
X0088769Y0055060D01*
X0084831Y0055060D01*
D18*
X0086800Y0047383D02*
X0086800Y0047038D01*
X0087981Y0045562D01*
X0085619Y0045562D01*
X0086800Y0047038D01*
X0088276Y0047038D01*
X0087248Y0046478D02*
X0086352Y0046478D01*
X0086665Y0046870D02*
X0086935Y0046870D01*
X0086800Y0047038D02*
X0085324Y0047038D01*
X0086038Y0046086D02*
X0087562Y0046086D01*
X0087876Y0045693D02*
X0085724Y0045693D01*
X0086800Y0045709D02*
X0086800Y0045217D01*
X0083020Y0045956D02*
X0081800Y0045956D01*
X0080580Y0045956D01*
X0080580Y0046644D02*
X0081800Y0046644D01*
X0083020Y0046644D01*
X0085580Y0032894D02*
X0086800Y0032894D01*
X0088020Y0032894D01*
X0088020Y0032206D02*
X0086800Y0032206D01*
X0085580Y0032206D01*
X0073020Y0045956D02*
X0071800Y0045956D01*
X0070580Y0045956D01*
X0070580Y0046644D02*
X0071800Y0046644D01*
X0073020Y0046644D01*
X0072706Y0060080D02*
X0072706Y0061300D01*
X0072706Y0062520D01*
X0073394Y0062520D02*
X0073394Y0061300D01*
X0073394Y0060080D01*
X0063020Y0046644D02*
X0061800Y0046644D01*
X0060580Y0046644D01*
X0060580Y0045956D02*
X0061800Y0045956D01*
X0063020Y0045956D01*
X0048020Y0045956D02*
X0046800Y0045956D01*
X0045580Y0045956D01*
X0045580Y0046644D02*
X0046800Y0046644D01*
X0048020Y0046644D01*
X0038020Y0046644D02*
X0036800Y0046644D01*
X0035580Y0046644D01*
X0035580Y0045956D02*
X0036800Y0045956D01*
X0038020Y0045956D01*
X0038080Y0073456D02*
X0039300Y0073456D01*
X0040520Y0073456D01*
X0040520Y0074144D02*
X0039300Y0074144D01*
X0038080Y0074144D01*
X0027144Y0093830D02*
X0027144Y0095050D01*
X0027144Y0096270D01*
X0026456Y0096270D02*
X0026456Y0095050D01*
X0026456Y0093830D01*
X0019300Y0047383D02*
X0019300Y0047038D01*
X0020481Y0045562D01*
X0018119Y0045562D01*
X0019300Y0047038D01*
X0020776Y0047038D01*
X0019748Y0046478D02*
X0018852Y0046478D01*
X0019165Y0046870D02*
X0019435Y0046870D01*
X0019300Y0047038D02*
X0017824Y0047038D01*
X0018538Y0046086D02*
X0020062Y0046086D01*
X0020376Y0045693D02*
X0018224Y0045693D01*
X0019300Y0045709D02*
X0019300Y0045217D01*
X0020580Y0032894D02*
X0021800Y0032894D01*
X0023020Y0032894D01*
X0023020Y0032206D02*
X0021800Y0032206D01*
X0020580Y0032206D01*
D19*
X0033050Y0068643D02*
X0033050Y0069602D01*
X0031475Y0069602D01*
X0031475Y0072998D02*
X0033050Y0072998D01*
X0033050Y0073957D01*
X0033050Y0072998D02*
X0034625Y0072998D01*
X0034625Y0069602D02*
X0033050Y0069602D01*
X0028498Y0087225D02*
X0028498Y0088800D01*
X0029457Y0088800D01*
X0028498Y0088800D02*
X0028498Y0090375D01*
X0025102Y0090375D02*
X0025102Y0088800D01*
X0025102Y0087225D01*
X0025102Y0088800D02*
X0024143Y0088800D01*
X0022425Y0096925D02*
X0016175Y0096925D01*
X0016175Y0103175D01*
X0022425Y0103175D01*
X0022425Y0096925D01*
X0070393Y0055050D02*
X0071352Y0055050D01*
X0071352Y0053475D01*
X0071352Y0055050D02*
X0071352Y0056625D01*
X0074748Y0056625D02*
X0074748Y0055050D01*
X0074748Y0053475D01*
X0074748Y0055050D02*
X0075707Y0055050D01*
X0075225Y0046694D02*
X0075619Y0046300D01*
X0076013Y0046300D01*
X0077587Y0046300D01*
X0077981Y0046300D01*
X0078375Y0045906D01*
X0079241Y0072491D02*
X0076091Y0072491D01*
X0076091Y0077609D01*
X0080028Y0077609D02*
X0083572Y0077609D01*
X0084359Y0072491D02*
X0087509Y0072491D01*
X0087509Y0077609D01*
X0087509Y0092491D02*
X0087509Y0097609D01*
X0084359Y0097609D01*
X0086175Y0096925D02*
X0086175Y0103175D01*
X0092425Y0103175D01*
X0092425Y0096925D01*
X0086175Y0096925D01*
X0083572Y0092491D02*
X0080028Y0092491D01*
X0079241Y0097609D02*
X0076091Y0097609D01*
X0076091Y0092491D01*
D20*
X0060862Y0116300D02*
X0055237Y0116300D01*
X0055237Y0125675D01*
X0053362Y0125675D02*
X0049612Y0125675D01*
X0049612Y0123800D01*
X0053362Y0123800D01*
X0053362Y0121925D02*
X0049612Y0121925D01*
X0049612Y0123800D01*
X0049612Y0120050D02*
X0051487Y0120050D01*
X0051487Y0118175D01*
X0053362Y0118175D01*
X0053362Y0116300D02*
X0047737Y0116300D01*
X0047737Y0125675D01*
X0049612Y0120050D02*
X0049612Y0118175D01*
X0051487Y0118175D01*
X0051487Y0120050D02*
X0053362Y0120050D01*
X0057112Y0120050D02*
X0057112Y0118175D01*
X0060862Y0118175D01*
X0060862Y0120050D01*
X0057112Y0120050D01*
X0057112Y0121925D02*
X0057112Y0123800D01*
X0057112Y0121925D02*
X0060862Y0121925D01*
X0060862Y0123800D01*
X0060862Y0125675D02*
X0057112Y0125675D01*
X0058987Y0123800D02*
X0058987Y0122550D01*
D21*
X0023714Y0194803D03*
D22*
X0028682Y0202630D03*
D23*
X0033584Y0196776D03*
D24*
X0038521Y0192806D03*
D25*
X0043445Y0196787D03*
D26*
X0048372Y0202688D03*
D27*
X0053311Y0196789D03*
D28*
X0058231Y0192869D03*
D29*
X0063181Y0196809D03*
D30*
X0073031Y0202661D03*
D31*
X0082894Y0193794D03*
D32*
X0073035Y0193798D03*
D33*
X0082888Y0182956D03*
D34*
X0073029Y0182953D03*
D35*
X0023744Y0184918D03*
D36*
X0063177Y0200739D03*
M02*
