%
M48
M72
T01C0.0197
T02C0.0236
T03C0.0256
T04C0.0276
T05C0.0315
T06C0.0400
%
T01
X1430Y505
X1430Y1505
X1868Y1630
X1430Y2505
X1805Y3255
X2118Y3880
X1430Y5505
X1430Y6505
X3555Y9380
X4180Y8443
X4680Y7380
X5243Y6443
X5243Y6068
X5618Y6068
X5618Y6443
X6180Y7130
X6555Y7005
X7305Y7005
X9055Y6505
X9430Y6505
X9430Y5505
X9055Y5505
X9430Y4505
X9430Y3505
X9430Y2505
X9430Y1505
X9430Y505
X8305Y3078
X6805Y755
X6430Y755
X6055Y755
X6055Y1130
X6055Y1505
X5680Y1505
X5680Y1130
X5680Y755
X5180Y755
X5180Y1130
X5180Y1505
X4805Y1505
X4805Y1130
X4805Y755
X4430Y755
X4055Y755
X2930Y1818
X2555Y818
X5332Y2130
X5930Y2130
X3930Y6818
X5555Y8005
X6305Y11380
X6680Y11630
X6493Y12005
X7055Y11880
X7055Y12505
X7430Y12505
X7430Y12130
X7430Y11630
X7805Y11880
X8055Y12201
X8180Y12701
X8180Y13201
X8180Y13701
X8180Y14201
X8180Y14701
X8180Y15201
X8180Y15701
X8180Y16201
X8180Y16701
X8180Y17201
X8180Y17755
X7805Y17755
X7805Y17380
X7805Y17005
X7430Y17005
X7430Y16630
X7430Y17380
X7430Y17755
X7055Y17755
X7055Y17380
X7055Y17005
X7055Y16630
X7055Y16255
X6680Y16255
X6680Y15880
X6305Y15880
X6305Y15505
X6305Y15130
X6305Y14755
X6305Y14380
X6305Y14005
X5930Y14005
X5930Y13630
X5555Y13380
X5180Y13380
X4805Y13380
X5930Y14380
X5930Y14755
X5930Y15130
X5930Y15505
X5930Y15880
X5930Y16255
X5930Y16630
X5930Y17005
X5930Y17380
X5930Y17755
X5555Y17755
X5555Y17380
X5555Y17005
X5555Y16630
X5555Y16255
X5555Y15880
X5180Y15880
X5180Y16255
X5180Y16630
X5180Y17005
X5180Y17380
X5180Y17755
X4805Y17755
X4805Y17380
X4430Y17755
X4055Y17755
X3680Y17755
X3305Y17755
X2930Y17755
X2680Y16701
X2680Y16201
X2555Y15701
X2555Y15201
X2555Y14701
X2555Y14201
X2555Y13701
X2555Y13201
X2680Y12701
X2555Y12201
X2493Y11701
X2680Y11255
X3055Y11505
X3180Y11880
X3305Y12255
X3430Y12630
X3055Y13005
X3055Y13380
X4055Y15880
X4055Y16255
X4430Y16255
X4430Y15880
X4805Y15880
X4805Y16255
X6305Y16255
X6305Y16630
X6305Y17005
X6305Y17380
X6305Y17755
X6680Y17755
X6680Y17380
X6680Y17005
X6680Y16630
X7180Y15201
X7805Y13255
X7805Y12880
X7805Y12505
X7430Y12880
X8180Y11701
X9430Y11505
X9430Y10505
X9430Y9505
X9430Y8505
X9430Y7505
X9055Y7505
X9430Y12505
X9430Y13505
X9430Y14505
X9430Y15505
X9430Y16505
X9430Y17505
X9430Y19505
X9430Y20505
X2180Y10755
X1430Y12505
X1430Y13505
X1430Y14505
X1430Y15505
X1430Y16505
T02
X3805Y6380
X4680Y5505
X3680Y4130
X2555Y2693
X2305Y1505
T03
X3729Y1371
X3729Y3017
X7131Y3017
X7131Y1371
T04
X6568Y2808
X4292Y2808
T05
X3243Y5255
X3743Y8880
X6243Y5505
X6680Y6130
X7180Y4130
X7805Y4130
X6555Y9693
X2743Y17201
T06
X930Y1005
X930Y2005
X930Y3005
X930Y4005
X930Y5005
X930Y6005
X930Y7005
X930Y8005
X930Y9005
X930Y10005
X930Y11005
X930Y12005
X930Y13005
X930Y14005
X930Y15005
X930Y16005
X930Y17005
X930Y18005
X930Y19005
X930Y20005
X9930Y20005
X9930Y19005
X9930Y18005
X9930Y17005
X9930Y16005
X9930Y15005
X9930Y14005
X9930Y13005
X9930Y12005
X9930Y11005
X9930Y10005
X9930Y9005
X9930Y8005
X9930Y7005
X9930Y6005
X9930Y5005
X9930Y4005
X9930Y3005
X9930Y2005
X9930Y1005
M30
