G75*
%MOIN*%
%OFA0B0*%
%FSLAX25Y25*%
%IPPOS*%
%LPD*%
%AMOC8*
5,1,8,0,0,1.08239X$1,22.5*
%
%ADD10C,0.00900*%
%ADD11C,0.00800*%
%ADD12C,0.00400*%
%ADD13C,0.00100*%
%ADD14C,0.00600*%
%ADD15C,0.00394*%
%ADD16C,0.00500*%
%ADD17C,0.01200*%
D10*
X0017290Y0018952D02*
X0017290Y0023356D01*
X0017290Y0026750D02*
X0021693Y0026750D01*
X0017290Y0031154D01*
X0017290Y0032255D01*
X0018391Y0033356D01*
X0020592Y0033356D01*
X0021693Y0032255D01*
X0021693Y0036750D02*
X0017290Y0036750D01*
X0019492Y0036750D02*
X0019492Y0043356D01*
X0021693Y0041154D01*
X0024196Y0036750D02*
X0028599Y0036750D01*
X0026397Y0036750D02*
X0026397Y0043356D01*
X0028599Y0041154D01*
X0028599Y0046750D02*
X0024196Y0046750D01*
X0026397Y0046750D02*
X0026397Y0053356D01*
X0028599Y0051154D01*
X0021693Y0052255D02*
X0021693Y0047851D01*
X0017290Y0052255D01*
X0017290Y0047851D01*
X0018391Y0046750D01*
X0020592Y0046750D01*
X0021693Y0047851D01*
X0021693Y0052255D02*
X0020592Y0053356D01*
X0018391Y0053356D01*
X0017290Y0052255D01*
X0018391Y0056750D02*
X0017290Y0057851D01*
X0017290Y0062255D01*
X0018391Y0063356D01*
X0020592Y0063356D01*
X0021693Y0062255D01*
X0021693Y0061154D01*
X0020592Y0060053D01*
X0017290Y0060053D01*
X0018391Y0056750D02*
X0020592Y0056750D01*
X0021693Y0057851D01*
X0020592Y0066750D02*
X0018391Y0066750D01*
X0017290Y0067851D01*
X0017290Y0068952D01*
X0018391Y0070053D01*
X0019492Y0070053D01*
X0018391Y0070053D02*
X0017290Y0071154D01*
X0017290Y0072255D01*
X0018391Y0073356D01*
X0020592Y0073356D01*
X0021693Y0072255D01*
X0021693Y0067851D02*
X0020592Y0066750D01*
X0020592Y0076750D02*
X0018391Y0076750D01*
X0017290Y0077851D01*
X0017290Y0082255D01*
X0021693Y0077851D01*
X0020592Y0076750D01*
X0021693Y0077851D02*
X0021693Y0082255D01*
X0020592Y0083356D01*
X0018391Y0083356D01*
X0017290Y0082255D01*
X0018391Y0086750D02*
X0017290Y0087851D01*
X0017290Y0092255D01*
X0018391Y0093356D01*
X0020592Y0093356D01*
X0021693Y0092255D01*
X0021693Y0091154D01*
X0020592Y0090053D01*
X0017290Y0090053D01*
X0018391Y0086750D02*
X0020592Y0086750D01*
X0021693Y0087851D01*
X0024196Y0086750D02*
X0028599Y0086750D01*
X0026397Y0086750D02*
X0026397Y0093356D01*
X0028599Y0091154D01*
X0027498Y0083356D02*
X0025296Y0083356D01*
X0024196Y0082255D01*
X0024196Y0081154D01*
X0028599Y0076750D01*
X0024196Y0076750D01*
X0028599Y0082255D02*
X0027498Y0083356D01*
X0020592Y0096750D02*
X0021693Y0097851D01*
X0021693Y0098952D01*
X0020592Y0100053D01*
X0018391Y0100053D01*
X0017290Y0098952D01*
X0017290Y0097851D01*
X0018391Y0096750D01*
X0020592Y0096750D01*
X0020592Y0100053D02*
X0021693Y0101154D01*
X0021693Y0102255D01*
X0020592Y0103356D01*
X0018391Y0103356D01*
X0017290Y0102255D01*
X0017290Y0101154D01*
X0018391Y0100053D01*
X0018391Y0106750D02*
X0020592Y0106750D01*
X0021693Y0107851D01*
X0021693Y0108952D01*
X0020592Y0110053D01*
X0018391Y0110053D01*
X0017290Y0108952D01*
X0017290Y0107851D01*
X0018391Y0106750D01*
X0018391Y0110053D02*
X0017290Y0111154D01*
X0017290Y0112255D01*
X0018391Y0113356D01*
X0020592Y0113356D01*
X0021693Y0112255D01*
X0021693Y0111154D01*
X0020592Y0110053D01*
X0021693Y0116750D02*
X0021693Y0117851D01*
X0017290Y0122255D01*
X0017290Y0123356D01*
X0021693Y0123356D01*
X0020592Y0126750D02*
X0018391Y0126750D01*
X0017290Y0127851D01*
X0017290Y0128952D01*
X0018391Y0130053D01*
X0021693Y0130053D01*
X0021693Y0127851D01*
X0020592Y0126750D01*
X0021693Y0130053D02*
X0019492Y0132255D01*
X0017290Y0133356D01*
X0018391Y0136750D02*
X0017290Y0137851D01*
X0017290Y0140053D01*
X0018391Y0141154D01*
X0019492Y0141154D01*
X0021693Y0140053D01*
X0021693Y0143356D01*
X0017290Y0143356D01*
X0018391Y0136750D02*
X0020592Y0136750D01*
X0021693Y0137851D01*
X0024196Y0136750D02*
X0028599Y0136750D01*
X0026397Y0136750D02*
X0026397Y0143356D01*
X0028599Y0141154D01*
X0026397Y0133356D02*
X0026397Y0126750D01*
X0024196Y0126750D02*
X0028599Y0126750D01*
X0026397Y0123356D02*
X0026397Y0116750D01*
X0024196Y0116750D02*
X0028599Y0116750D01*
X0026397Y0113356D02*
X0026397Y0106750D01*
X0024196Y0106750D02*
X0028599Y0106750D01*
X0028599Y0111154D02*
X0026397Y0113356D01*
X0028599Y0121154D02*
X0026397Y0123356D01*
X0028599Y0131154D02*
X0026397Y0133356D01*
X0021693Y0146750D02*
X0021693Y0147851D01*
X0017290Y0152255D01*
X0017290Y0153356D01*
X0021693Y0153356D01*
X0020592Y0156750D02*
X0018391Y0156750D01*
X0017290Y0157851D01*
X0017290Y0158952D01*
X0018391Y0160053D01*
X0021693Y0160053D01*
X0021693Y0157851D01*
X0020592Y0156750D01*
X0021693Y0160053D02*
X0019492Y0162255D01*
X0017290Y0163356D01*
X0018391Y0166750D02*
X0017290Y0167851D01*
X0017290Y0170053D01*
X0018391Y0171154D01*
X0019492Y0171154D01*
X0021693Y0170053D01*
X0021693Y0173356D01*
X0017290Y0173356D01*
X0018391Y0176750D02*
X0018391Y0183356D01*
X0021693Y0180053D01*
X0017290Y0180053D01*
X0017290Y0186750D02*
X0017290Y0193356D01*
X0018391Y0196750D02*
X0020592Y0196750D01*
X0021693Y0197851D01*
X0019492Y0200053D02*
X0018391Y0200053D01*
X0017290Y0198952D01*
X0017290Y0197851D01*
X0018391Y0196750D01*
X0018391Y0200053D02*
X0017290Y0201154D01*
X0017290Y0202255D01*
X0018391Y0203356D01*
X0020592Y0203356D01*
X0021693Y0202255D01*
X0024196Y0203356D02*
X0024196Y0198952D01*
X0026397Y0196750D01*
X0028599Y0198952D01*
X0028599Y0203356D01*
X0031101Y0202255D02*
X0031101Y0201154D01*
X0032202Y0200053D01*
X0031101Y0198952D01*
X0031101Y0197851D01*
X0032202Y0196750D01*
X0034404Y0196750D01*
X0035505Y0197851D01*
X0033303Y0200053D02*
X0032202Y0200053D01*
X0031101Y0202255D02*
X0032202Y0203356D01*
X0034404Y0203356D01*
X0035505Y0202255D01*
X0028599Y0193356D02*
X0028599Y0186750D01*
X0024196Y0186750D01*
X0026397Y0190053D02*
X0028599Y0190053D01*
X0028599Y0193356D02*
X0024196Y0193356D01*
X0021693Y0193356D02*
X0017290Y0186750D01*
X0021693Y0186750D02*
X0021693Y0193356D01*
X0021693Y0167851D02*
X0020592Y0166750D01*
X0018391Y0166750D01*
X0059323Y0167851D02*
X0059323Y0172255D01*
X0060424Y0173356D01*
X0063726Y0173356D01*
X0063726Y0166750D01*
X0060424Y0166750D01*
X0059323Y0167851D01*
X0060424Y0163356D02*
X0059323Y0162255D01*
X0059323Y0157851D01*
X0060424Y0156750D01*
X0063726Y0156750D01*
X0063726Y0163356D01*
X0060424Y0163356D01*
X0066229Y0163356D02*
X0070632Y0156750D01*
X0073134Y0156750D02*
X0075336Y0158952D01*
X0074235Y0158952D02*
X0077538Y0158952D01*
X0077538Y0156750D02*
X0077538Y0163356D01*
X0074235Y0163356D01*
X0073134Y0162255D01*
X0073134Y0160053D01*
X0074235Y0158952D01*
X0070632Y0163356D02*
X0066229Y0156750D01*
X0066229Y0166750D02*
X0070632Y0173356D01*
X0073134Y0173356D02*
X0077538Y0173356D01*
X0075336Y0173356D02*
X0075336Y0166750D01*
X0070632Y0166750D02*
X0066229Y0173356D01*
X0074235Y0196750D02*
X0073134Y0197851D01*
X0073134Y0202255D01*
X0074235Y0203356D01*
X0077538Y0203356D01*
X0077538Y0196750D01*
X0074235Y0196750D01*
X0080040Y0196750D02*
X0080040Y0203356D01*
X0084444Y0203356D02*
X0080040Y0196750D01*
X0084444Y0196750D02*
X0084444Y0203356D01*
X0086946Y0202255D02*
X0088047Y0203356D01*
X0090249Y0203356D01*
X0091350Y0202255D01*
X0091350Y0197851D01*
X0090249Y0196750D01*
X0088047Y0196750D01*
X0086946Y0197851D01*
X0086946Y0200053D01*
X0089148Y0200053D01*
X0089148Y0193356D02*
X0089148Y0186750D01*
X0088047Y0183356D02*
X0090249Y0183356D01*
X0091350Y0182255D01*
X0091350Y0186750D02*
X0086946Y0186750D01*
X0088047Y0183356D02*
X0086946Y0182255D01*
X0086946Y0181154D01*
X0091350Y0176750D01*
X0086946Y0176750D01*
X0088047Y0173356D02*
X0091350Y0170053D01*
X0086946Y0170053D01*
X0088047Y0166750D02*
X0088047Y0173356D01*
X0084444Y0172255D02*
X0083343Y0173356D01*
X0081141Y0173356D01*
X0080040Y0172255D01*
X0080040Y0171154D01*
X0081141Y0170053D01*
X0080040Y0168952D01*
X0080040Y0167851D01*
X0081141Y0166750D01*
X0083343Y0166750D01*
X0084444Y0167851D01*
X0082242Y0170053D02*
X0081141Y0170053D01*
X0081141Y0163356D02*
X0084444Y0160053D01*
X0080040Y0160053D01*
X0081141Y0156750D02*
X0081141Y0163356D01*
X0081141Y0153356D02*
X0080040Y0152255D01*
X0080040Y0151154D01*
X0084444Y0146750D01*
X0080040Y0146750D01*
X0082242Y0143356D02*
X0082242Y0136750D01*
X0084444Y0136750D02*
X0080040Y0136750D01*
X0081141Y0133356D02*
X0080040Y0132255D01*
X0084444Y0127851D01*
X0083343Y0126750D01*
X0081141Y0126750D01*
X0080040Y0127851D01*
X0080040Y0132255D01*
X0081141Y0133356D02*
X0083343Y0133356D01*
X0084444Y0132255D01*
X0084444Y0127851D01*
X0083343Y0123356D02*
X0084444Y0122255D01*
X0084444Y0121154D01*
X0083343Y0120053D01*
X0080040Y0120053D01*
X0080040Y0117851D02*
X0080040Y0122255D01*
X0081141Y0123356D01*
X0083343Y0123356D01*
X0084444Y0117851D02*
X0083343Y0116750D01*
X0081141Y0116750D01*
X0080040Y0117851D01*
X0081141Y0113356D02*
X0080040Y0112255D01*
X0080040Y0111154D01*
X0081141Y0110053D01*
X0083343Y0110053D01*
X0084444Y0111154D01*
X0084444Y0112255D01*
X0083343Y0113356D01*
X0081141Y0113356D01*
X0081141Y0110053D02*
X0080040Y0108952D01*
X0080040Y0107851D01*
X0081141Y0106750D01*
X0083343Y0106750D01*
X0084444Y0107851D01*
X0084444Y0108952D01*
X0083343Y0110053D01*
X0084444Y0103356D02*
X0080040Y0103356D01*
X0080040Y0102255D01*
X0084444Y0097851D01*
X0084444Y0096750D01*
X0086946Y0097851D02*
X0088047Y0096750D01*
X0090249Y0096750D01*
X0091350Y0097851D01*
X0089148Y0100053D02*
X0088047Y0100053D01*
X0086946Y0098952D01*
X0086946Y0097851D01*
X0088047Y0100053D02*
X0086946Y0101154D01*
X0086946Y0102255D01*
X0088047Y0103356D01*
X0090249Y0103356D01*
X0091350Y0102255D01*
X0090249Y0106750D02*
X0091350Y0107851D01*
X0090249Y0106750D02*
X0088047Y0106750D01*
X0086946Y0107851D01*
X0086946Y0108952D01*
X0088047Y0110053D01*
X0089148Y0110053D01*
X0088047Y0110053D02*
X0086946Y0111154D01*
X0086946Y0112255D01*
X0088047Y0113356D01*
X0090249Y0113356D01*
X0091350Y0112255D01*
X0090249Y0116750D02*
X0091350Y0117851D01*
X0090249Y0116750D02*
X0088047Y0116750D01*
X0086946Y0117851D01*
X0086946Y0118952D01*
X0088047Y0120053D01*
X0089148Y0120053D01*
X0088047Y0120053D02*
X0086946Y0121154D01*
X0086946Y0122255D01*
X0088047Y0123356D01*
X0090249Y0123356D01*
X0091350Y0122255D01*
X0088047Y0126750D02*
X0088047Y0133356D01*
X0091350Y0130053D01*
X0086946Y0130053D01*
X0088047Y0136750D02*
X0088047Y0143356D01*
X0091350Y0140053D01*
X0086946Y0140053D01*
X0084444Y0141154D02*
X0082242Y0143356D01*
X0084444Y0152255D02*
X0083343Y0153356D01*
X0081141Y0153356D01*
X0086946Y0150053D02*
X0091350Y0150053D01*
X0088047Y0153356D01*
X0088047Y0146750D01*
X0088047Y0156750D02*
X0088047Y0163356D01*
X0091350Y0160053D01*
X0086946Y0160053D01*
X0091350Y0191154D02*
X0089148Y0193356D01*
X0088047Y0093356D02*
X0086946Y0092255D01*
X0086946Y0091154D01*
X0088047Y0090053D01*
X0086946Y0088952D01*
X0086946Y0087851D01*
X0088047Y0086750D01*
X0090249Y0086750D01*
X0091350Y0087851D01*
X0089148Y0090053D02*
X0088047Y0090053D01*
X0088047Y0093356D02*
X0090249Y0093356D01*
X0091350Y0092255D01*
X0090249Y0083356D02*
X0088047Y0083356D01*
X0086946Y0082255D01*
X0086946Y0081154D01*
X0088047Y0080053D01*
X0086946Y0078952D01*
X0086946Y0077851D01*
X0088047Y0076750D01*
X0090249Y0076750D01*
X0091350Y0077851D01*
X0089148Y0080053D02*
X0088047Y0080053D01*
X0091350Y0082255D02*
X0090249Y0083356D01*
X0090249Y0073356D02*
X0088047Y0073356D01*
X0086946Y0072255D01*
X0091350Y0067851D01*
X0090249Y0066750D01*
X0088047Y0066750D01*
X0086946Y0067851D01*
X0086946Y0072255D01*
X0090249Y0073356D02*
X0091350Y0072255D01*
X0091350Y0067851D01*
X0088047Y0063356D02*
X0091350Y0060053D01*
X0086946Y0060053D01*
X0088047Y0056750D02*
X0088047Y0063356D01*
X0084444Y0062255D02*
X0084444Y0061154D01*
X0083343Y0060053D01*
X0081141Y0060053D01*
X0080040Y0058952D01*
X0080040Y0057851D01*
X0081141Y0056750D01*
X0083343Y0056750D01*
X0084444Y0057851D01*
X0084444Y0058952D01*
X0083343Y0060053D01*
X0084444Y0062255D02*
X0083343Y0063356D01*
X0081141Y0063356D01*
X0080040Y0062255D01*
X0080040Y0061154D01*
X0081141Y0060053D01*
X0080040Y0053356D02*
X0080040Y0052255D01*
X0084444Y0047851D01*
X0084444Y0046750D01*
X0082242Y0043356D02*
X0082242Y0036750D01*
X0084444Y0036750D02*
X0080040Y0036750D01*
X0081141Y0033356D02*
X0084444Y0030053D01*
X0080040Y0030053D01*
X0081141Y0026750D02*
X0081141Y0033356D01*
X0084444Y0041154D02*
X0082242Y0043356D01*
X0086946Y0042255D02*
X0086946Y0041154D01*
X0091350Y0036750D01*
X0086946Y0036750D01*
X0089148Y0033356D02*
X0089148Y0026750D01*
X0089148Y0023356D02*
X0089148Y0016750D01*
X0088047Y0013356D02*
X0091350Y0013356D01*
X0091350Y0006750D01*
X0088047Y0006750D01*
X0086946Y0007851D01*
X0086946Y0012255D01*
X0088047Y0013356D01*
X0086946Y0016750D02*
X0091350Y0016750D01*
X0091350Y0021154D02*
X0089148Y0023356D01*
X0091350Y0026750D02*
X0086946Y0026750D01*
X0083343Y0023356D02*
X0084444Y0022255D01*
X0083343Y0023356D02*
X0081141Y0023356D01*
X0080040Y0022255D01*
X0080040Y0021154D01*
X0081141Y0020053D01*
X0080040Y0018952D01*
X0080040Y0017851D01*
X0081141Y0016750D01*
X0083343Y0016750D01*
X0084444Y0017851D01*
X0082242Y0020053D02*
X0081141Y0020053D01*
X0082242Y0012255D02*
X0082242Y0007851D01*
X0084444Y0010053D02*
X0080040Y0010053D01*
X0091350Y0031154D02*
X0089148Y0033356D01*
X0086946Y0042255D02*
X0088047Y0043356D01*
X0090249Y0043356D01*
X0091350Y0042255D01*
X0088047Y0046750D02*
X0088047Y0053356D01*
X0091350Y0050053D01*
X0086946Y0050053D01*
X0084444Y0053356D02*
X0080040Y0053356D01*
X0081141Y0076750D02*
X0083343Y0076750D01*
X0084444Y0077851D01*
X0084444Y0080053D02*
X0082242Y0081154D01*
X0081141Y0081154D01*
X0080040Y0080053D01*
X0080040Y0077851D01*
X0081141Y0076750D01*
X0084444Y0080053D02*
X0084444Y0083356D01*
X0080040Y0083356D01*
X0081141Y0086750D02*
X0080040Y0087851D01*
X0080040Y0088952D01*
X0081141Y0090053D01*
X0084444Y0090053D01*
X0084444Y0087851D01*
X0083343Y0086750D01*
X0081141Y0086750D01*
X0084444Y0090053D02*
X0082242Y0092255D01*
X0080040Y0093356D01*
X0026397Y0033356D02*
X0028599Y0031154D01*
X0026397Y0033356D02*
X0026397Y0026750D01*
X0024196Y0026750D02*
X0028599Y0026750D01*
X0028599Y0023356D02*
X0028599Y0020053D01*
X0026397Y0021154D01*
X0025296Y0021154D01*
X0024196Y0020053D01*
X0024196Y0017851D01*
X0025296Y0016750D01*
X0027498Y0016750D01*
X0028599Y0017851D01*
X0029193Y0013356D02*
X0025891Y0013356D01*
X0024790Y0012255D01*
X0024790Y0007851D01*
X0025891Y0006750D01*
X0029193Y0006750D01*
X0029193Y0013356D01*
X0028599Y0023356D02*
X0024196Y0023356D01*
X0021693Y0023356D02*
X0021693Y0018952D01*
X0019492Y0016750D01*
X0017290Y0018952D01*
D11*
X0004300Y0007550D02*
X0006800Y0005050D01*
X0011800Y0005050D01*
X0014300Y0007550D01*
X0014300Y0012550D01*
X0011800Y0015050D01*
X0014300Y0017550D01*
X0014300Y0022550D01*
X0011800Y0025050D01*
X0014300Y0027550D01*
X0014300Y0032550D01*
X0011800Y0035050D01*
X0014300Y0037550D01*
X0014300Y0042550D01*
X0011800Y0045050D01*
X0014300Y0047550D01*
X0014300Y0052550D01*
X0011800Y0055050D01*
X0014300Y0057550D01*
X0014300Y0062550D01*
X0011800Y0065050D01*
X0014300Y0067550D01*
X0014300Y0072550D01*
X0011800Y0075050D01*
X0014300Y0077550D01*
X0014300Y0082550D01*
X0011800Y0085050D01*
X0014300Y0087550D01*
X0014300Y0092550D01*
X0011800Y0095050D01*
X0014300Y0097550D01*
X0014300Y0102550D01*
X0011800Y0105050D01*
X0014300Y0107550D01*
X0014300Y0112550D01*
X0011800Y0115050D01*
X0014300Y0117550D01*
X0014300Y0122550D01*
X0011800Y0125050D01*
X0014300Y0127550D01*
X0014300Y0132550D01*
X0011800Y0135050D01*
X0014300Y0137550D01*
X0014300Y0142550D01*
X0011800Y0145050D01*
X0014300Y0147550D01*
X0014300Y0152550D01*
X0011800Y0155050D01*
X0014300Y0157550D01*
X0014300Y0162550D01*
X0011800Y0165050D01*
X0014300Y0167550D01*
X0014300Y0172550D01*
X0011800Y0175050D01*
X0014300Y0177550D01*
X0014300Y0182550D01*
X0011800Y0185050D01*
X0014300Y0187550D01*
X0014300Y0192550D01*
X0011800Y0195050D01*
X0014300Y0195050D01*
X0014300Y0205050D01*
X0011800Y0205050D01*
X0006800Y0205050D01*
X0004300Y0205050D01*
X0004300Y0195050D01*
X0006800Y0195050D01*
X0004300Y0192550D01*
X0004300Y0187550D01*
X0006800Y0185050D01*
X0004300Y0182550D01*
X0004300Y0177550D01*
X0006800Y0175050D01*
X0004300Y0172550D01*
X0004300Y0167550D01*
X0006800Y0165050D01*
X0004300Y0162550D01*
X0004300Y0157550D01*
X0006800Y0155050D01*
X0004300Y0152550D01*
X0004300Y0147550D01*
X0006800Y0145050D01*
X0004300Y0142550D01*
X0004300Y0137550D01*
X0006800Y0135050D01*
X0004300Y0132550D01*
X0004300Y0127550D01*
X0006800Y0125050D01*
X0004300Y0122550D01*
X0004300Y0117550D01*
X0006800Y0115050D01*
X0004300Y0112550D01*
X0004300Y0107550D01*
X0006800Y0105050D01*
X0004300Y0102550D01*
X0004300Y0097550D01*
X0006800Y0095050D01*
X0004300Y0092550D01*
X0004300Y0087550D01*
X0006800Y0085050D01*
X0004300Y0082550D01*
X0004300Y0077550D01*
X0006800Y0075050D01*
X0004300Y0072550D01*
X0004300Y0067550D01*
X0006800Y0065050D01*
X0004300Y0062550D01*
X0004300Y0057550D01*
X0006800Y0055050D01*
X0004300Y0052550D01*
X0004300Y0047550D01*
X0006800Y0045050D01*
X0004300Y0042550D01*
X0004300Y0037550D01*
X0006800Y0035050D01*
X0004300Y0032550D01*
X0004300Y0027550D01*
X0006800Y0025050D01*
X0004300Y0022550D01*
X0004300Y0017550D01*
X0006800Y0015050D01*
X0004300Y0012550D01*
X0004300Y0007550D01*
X0040734Y0049200D02*
X0039700Y0050234D01*
X0039700Y0052303D01*
X0040734Y0053337D01*
X0041768Y0053337D01*
X0042803Y0052303D01*
X0042803Y0050234D01*
X0043837Y0049200D01*
X0044871Y0049200D01*
X0045905Y0050234D01*
X0045905Y0052303D01*
X0044871Y0053337D01*
X0044871Y0055645D02*
X0040734Y0055645D01*
X0039700Y0056680D01*
X0039700Y0058748D01*
X0040734Y0059782D01*
X0039700Y0062091D02*
X0039700Y0066228D01*
X0039700Y0062091D02*
X0045905Y0062091D01*
X0047200Y0062091D02*
X0051337Y0062091D01*
X0053405Y0064159D01*
X0051337Y0066228D01*
X0047200Y0066228D01*
X0050303Y0066228D02*
X0050303Y0062091D01*
X0052371Y0059782D02*
X0048234Y0059782D01*
X0047200Y0058748D01*
X0047200Y0055645D01*
X0053405Y0055645D01*
X0053405Y0058748D01*
X0052371Y0059782D01*
X0054700Y0057714D02*
X0056768Y0059782D01*
X0060905Y0059782D01*
X0062200Y0059782D02*
X0068405Y0059782D01*
X0068405Y0062091D02*
X0068405Y0065194D01*
X0067371Y0066228D01*
X0063234Y0066228D01*
X0062200Y0065194D01*
X0062200Y0062091D01*
X0068405Y0062091D01*
X0068405Y0055645D02*
X0062200Y0059782D01*
X0062200Y0055645D02*
X0068405Y0055645D01*
X0067371Y0053337D02*
X0068405Y0052303D01*
X0068405Y0050234D01*
X0067371Y0049200D01*
X0063234Y0049200D01*
X0062200Y0050234D01*
X0062200Y0052303D01*
X0063234Y0053337D01*
X0065303Y0053337D01*
X0065303Y0051268D01*
X0060905Y0049200D02*
X0057803Y0049200D01*
X0058837Y0051268D01*
X0058837Y0052303D01*
X0057803Y0053337D01*
X0055734Y0053337D01*
X0054700Y0052303D01*
X0054700Y0050234D01*
X0055734Y0049200D01*
X0053405Y0050234D02*
X0052371Y0049200D01*
X0051337Y0049200D01*
X0050303Y0050234D01*
X0050303Y0052303D01*
X0049268Y0053337D01*
X0048234Y0053337D01*
X0047200Y0052303D01*
X0047200Y0050234D01*
X0048234Y0049200D01*
X0044871Y0055645D02*
X0045905Y0056680D01*
X0045905Y0058748D01*
X0044871Y0059782D01*
X0052371Y0053337D02*
X0053405Y0052303D01*
X0053405Y0050234D01*
X0056768Y0055645D02*
X0054700Y0057714D01*
X0056768Y0055645D02*
X0060905Y0055645D01*
X0060905Y0053337D02*
X0060905Y0049200D01*
X0094300Y0047550D02*
X0096800Y0045050D01*
X0094300Y0042550D01*
X0094300Y0037550D01*
X0096800Y0035050D01*
X0094300Y0032550D01*
X0094300Y0027550D01*
X0096800Y0025050D01*
X0094300Y0022550D01*
X0094300Y0017550D01*
X0096800Y0015050D01*
X0094300Y0012550D01*
X0094300Y0007550D01*
X0096800Y0005050D01*
X0101800Y0005050D01*
X0104300Y0007550D01*
X0104300Y0012550D01*
X0101800Y0015050D01*
X0104300Y0017550D01*
X0104300Y0022550D01*
X0101800Y0025050D01*
X0104300Y0027550D01*
X0104300Y0032550D01*
X0101800Y0035050D01*
X0104300Y0037550D01*
X0104300Y0042550D01*
X0101800Y0045050D01*
X0104300Y0047550D01*
X0104300Y0052550D01*
X0101800Y0055050D01*
X0104300Y0057550D01*
X0104300Y0062550D01*
X0101800Y0065050D01*
X0104300Y0067550D01*
X0104300Y0072550D01*
X0101800Y0075050D01*
X0104300Y0077550D01*
X0104300Y0082550D01*
X0101800Y0085050D01*
X0104300Y0087550D01*
X0104300Y0092550D01*
X0101800Y0095050D01*
X0104300Y0097550D01*
X0104300Y0102550D01*
X0101800Y0105050D01*
X0104300Y0107550D01*
X0104300Y0112550D01*
X0101800Y0115050D01*
X0104300Y0117550D01*
X0104300Y0122550D01*
X0101800Y0125050D01*
X0104300Y0127550D01*
X0104300Y0132550D01*
X0101800Y0135050D01*
X0104300Y0137550D01*
X0104300Y0142550D01*
X0101800Y0145050D01*
X0104300Y0147550D01*
X0104300Y0152550D01*
X0101800Y0155050D01*
X0104300Y0157550D01*
X0104300Y0162550D01*
X0101800Y0165050D01*
X0104300Y0167550D01*
X0104300Y0172550D01*
X0101800Y0175050D01*
X0104300Y0177550D01*
X0104300Y0182550D01*
X0101800Y0185050D01*
X0104300Y0187550D01*
X0104300Y0192550D01*
X0101800Y0195050D01*
X0104300Y0197550D01*
X0104300Y0202550D01*
X0101800Y0205050D01*
X0096800Y0205050D01*
X0094300Y0202550D01*
X0094300Y0197550D01*
X0096800Y0195050D01*
X0094300Y0192550D01*
X0094300Y0187550D01*
X0096800Y0185050D01*
X0094300Y0182550D01*
X0094300Y0177550D01*
X0096800Y0175050D01*
X0094300Y0172550D01*
X0094300Y0167550D01*
X0096800Y0165050D01*
X0094300Y0162550D01*
X0094300Y0157550D01*
X0096800Y0155050D01*
X0094300Y0152550D01*
X0094300Y0147550D01*
X0096800Y0145050D01*
X0094300Y0142550D01*
X0094300Y0137550D01*
X0096800Y0135050D01*
X0094300Y0132550D01*
X0094300Y0127550D01*
X0096800Y0125050D01*
X0094300Y0122550D01*
X0094300Y0117550D01*
X0096800Y0115050D01*
X0094300Y0112550D01*
X0094300Y0107550D01*
X0096800Y0105050D01*
X0094300Y0102550D01*
X0094300Y0097550D01*
X0096800Y0095050D01*
X0094300Y0092550D01*
X0094300Y0087550D01*
X0096800Y0085050D01*
X0094300Y0082550D01*
X0094300Y0077550D01*
X0096800Y0075050D01*
X0094300Y0072550D01*
X0094300Y0067550D01*
X0096800Y0065050D01*
X0094300Y0062550D01*
X0094300Y0057550D01*
X0096800Y0055050D01*
X0094300Y0052550D01*
X0094300Y0047550D01*
D12*
X0077204Y0075250D02*
X0072000Y0075250D01*
X0072000Y0078720D01*
X0072000Y0080406D02*
X0075470Y0080406D01*
X0077204Y0082141D01*
X0075470Y0083876D01*
X0072000Y0083876D01*
X0072000Y0085563D02*
X0077204Y0085563D01*
X0075470Y0087298D01*
X0077204Y0089032D01*
X0072000Y0089032D01*
X0072000Y0090719D02*
X0072000Y0094189D01*
X0072867Y0095876D02*
X0072000Y0096743D01*
X0072000Y0098478D01*
X0072867Y0099345D01*
X0076337Y0099345D01*
X0077204Y0098478D01*
X0077204Y0096743D01*
X0076337Y0095876D01*
X0072867Y0095876D01*
X0072000Y0090719D02*
X0077204Y0090719D01*
X0074602Y0083876D02*
X0074602Y0080406D01*
X0069704Y0081274D02*
X0068837Y0080406D01*
X0065367Y0080406D01*
X0064500Y0081274D01*
X0064500Y0083009D01*
X0065367Y0083876D01*
X0068837Y0083876D01*
X0069704Y0083009D01*
X0069704Y0081274D01*
X0069704Y0078720D02*
X0064500Y0078720D01*
X0069704Y0075250D01*
X0064500Y0075250D01*
X0064500Y0085563D02*
X0064500Y0088165D01*
X0065367Y0089032D01*
X0068837Y0089032D01*
X0069704Y0088165D01*
X0069704Y0085563D01*
X0064500Y0085563D01*
X0064500Y0090719D02*
X0064500Y0094189D01*
X0065367Y0095876D02*
X0064500Y0096743D01*
X0064500Y0098478D01*
X0065367Y0099345D01*
X0066235Y0099345D01*
X0067102Y0098478D01*
X0067102Y0097610D01*
X0067102Y0098478D02*
X0067970Y0099345D01*
X0068837Y0099345D01*
X0069704Y0098478D01*
X0069704Y0096743D01*
X0068837Y0095876D01*
X0069704Y0094189D02*
X0069704Y0090719D01*
X0064500Y0090719D01*
X0067102Y0090719D02*
X0067102Y0092454D01*
X0068837Y0101032D02*
X0069704Y0101899D01*
X0069704Y0103634D01*
X0068837Y0104502D01*
X0067970Y0104502D01*
X0064500Y0101032D01*
X0064500Y0104502D01*
X0065367Y0106188D02*
X0064500Y0107056D01*
X0064500Y0108791D01*
X0065367Y0109658D01*
X0066235Y0109658D01*
X0067102Y0108791D01*
X0067102Y0107056D01*
X0067970Y0106188D01*
X0068837Y0106188D01*
X0069704Y0107056D01*
X0069704Y0108791D01*
X0068837Y0109658D01*
X0068837Y0111345D02*
X0069704Y0112212D01*
X0069704Y0113947D01*
X0068837Y0114814D01*
X0067970Y0114814D01*
X0067102Y0113947D01*
X0066235Y0114814D01*
X0065367Y0114814D01*
X0064500Y0113947D01*
X0064500Y0112212D01*
X0065367Y0111345D01*
X0067102Y0113080D02*
X0067102Y0113947D01*
X0072000Y0107923D02*
X0072000Y0106188D01*
X0072000Y0107056D02*
X0077204Y0107056D01*
X0077204Y0107923D02*
X0077204Y0106188D01*
X0077204Y0104502D02*
X0077204Y0101032D01*
X0072000Y0101032D01*
X0072000Y0104502D01*
X0074602Y0102767D02*
X0074602Y0101032D01*
D13*
X0048987Y0164113D02*
X0048987Y0170988D01*
X0037113Y0170988D01*
X0037113Y0164113D01*
X0048987Y0164113D01*
X0046790Y0171831D02*
X0046790Y0175769D01*
X0039310Y0175769D01*
X0039310Y0171831D01*
X0046790Y0171831D01*
D14*
X0044748Y0169125D02*
X0044748Y0167550D01*
X0044748Y0165975D01*
X0044748Y0167550D02*
X0045707Y0167550D01*
X0041352Y0167550D02*
X0041352Y0165975D01*
X0041352Y0167550D02*
X0040393Y0167550D01*
X0041352Y0167550D02*
X0041352Y0169125D01*
X0022425Y0013175D02*
X0016175Y0013175D01*
X0016175Y0006925D01*
X0022425Y0006925D01*
X0022425Y0013175D01*
D15*
X0042706Y0172580D02*
X0042706Y0173800D01*
X0042706Y0175020D01*
X0043394Y0175020D02*
X0043394Y0173800D01*
X0043394Y0172580D01*
D16*
X0035599Y0044509D02*
X0030678Y0044509D01*
X0030678Y0040572D01*
X0037765Y0004253D02*
X0070835Y0004253D01*
X0067095Y0030237D02*
X0065127Y0030237D01*
X0066111Y0032206D01*
X0067095Y0030237D01*
X0066980Y0030467D02*
X0065242Y0030467D01*
X0065491Y0030965D02*
X0066731Y0030965D01*
X0066482Y0031464D02*
X0065740Y0031464D01*
X0065989Y0031962D02*
X0066233Y0031962D01*
X0073001Y0044509D02*
X0077922Y0044509D01*
X0077922Y0040572D01*
D17*
X0060862Y0116300D02*
X0055237Y0116300D01*
X0053362Y0116300D02*
X0047737Y0116300D01*
X0047737Y0118175D02*
X0047737Y0120050D01*
X0051487Y0120050D01*
X0051487Y0118175D01*
X0047737Y0118175D01*
X0047737Y0121925D02*
X0047737Y0123800D01*
X0047737Y0121925D02*
X0051487Y0121925D01*
X0051487Y0123800D01*
X0051487Y0125675D02*
X0047737Y0125675D01*
X0049612Y0123800D02*
X0049612Y0122550D01*
X0053362Y0125675D02*
X0053362Y0116300D01*
X0055237Y0118175D02*
X0057112Y0118175D01*
X0057112Y0120050D01*
X0055237Y0120050D01*
X0055237Y0121925D02*
X0058987Y0121925D01*
X0058987Y0123800D01*
X0058987Y0125675D01*
X0055237Y0125675D01*
X0055237Y0123800D02*
X0058987Y0123800D01*
X0058987Y0120050D02*
X0057112Y0120050D01*
X0057112Y0118175D02*
X0058987Y0118175D01*
X0058987Y0120050D01*
X0060862Y0116300D02*
X0060862Y0125675D01*
M02*
