G75*
%MOIN*%
%OFA0B0*%
%FSLAX25Y25*%
%IPPOS*%
%LPD*%
%AMOC8*
5,1,8,0,0,1.08239X$1,22.5*
%
%ADD10R,0.02362X0.05118*%
%ADD11R,0.01181X0.05709*%
%ADD12C,0.04134*%
%ADD13R,0.02559X0.04724*%
%ADD14C,0.00246*%
%ADD15R,0.02953X0.02953*%
%ADD16R,0.08465X0.03740*%
%ADD17R,0.08465X0.12795*%
%ADD18R,0.02441X0.02441*%
%ADD19R,0.03543X0.05512*%
%ADD20R,0.07480X0.04724*%
%ADD21R,0.06299X0.03937*%
%ADD22R,0.05512X0.03543*%
%ADD23R,0.03150X0.03150*%
%ADD24R,0.01969X0.01575*%
%ADD25R,0.01969X0.02362*%
%ADD26C,0.00780*%
%ADD27R,0.03543X0.03543*%
D10*
X0041505Y0034066D03*
X0044654Y0034066D03*
X0063946Y0034066D03*
X0067095Y0034066D03*
D11*
X0061190Y0033770D03*
X0059221Y0033770D03*
X0057253Y0033770D03*
X0055284Y0033770D03*
X0053316Y0033770D03*
X0051347Y0033770D03*
X0049379Y0033770D03*
X0047410Y0033770D03*
D12*
X0037292Y0032240D02*
X0037292Y0028106D01*
X0037292Y0015778D02*
X0037292Y0011644D01*
X0071308Y0011644D02*
X0071308Y0015778D01*
X0071308Y0028106D02*
X0071308Y0032240D01*
D13*
X0021318Y0007835D03*
X0029782Y0007835D03*
X0029782Y0024765D03*
X0021318Y0024765D03*
X0078818Y0024765D03*
X0087282Y0024765D03*
X0087282Y0007835D03*
X0078818Y0007835D03*
D14*
X0058606Y0053126D02*
X0058606Y0056030D01*
X0058606Y0053126D02*
X0057868Y0053126D01*
X0057868Y0056030D01*
X0058606Y0056030D01*
X0058606Y0053371D02*
X0057868Y0053371D01*
X0057868Y0053616D02*
X0058606Y0053616D01*
X0058606Y0053861D02*
X0057868Y0053861D01*
X0057868Y0054106D02*
X0058606Y0054106D01*
X0058606Y0054351D02*
X0057868Y0054351D01*
X0057868Y0054596D02*
X0058606Y0054596D01*
X0058606Y0054841D02*
X0057868Y0054841D01*
X0057868Y0055086D02*
X0058606Y0055086D01*
X0058606Y0055331D02*
X0057868Y0055331D01*
X0057868Y0055576D02*
X0058606Y0055576D01*
X0058606Y0055821D02*
X0057868Y0055821D01*
X0056638Y0056030D02*
X0056638Y0053126D01*
X0055900Y0053126D01*
X0055900Y0056030D01*
X0056638Y0056030D01*
X0056638Y0053371D02*
X0055900Y0053371D01*
X0055900Y0053616D02*
X0056638Y0053616D01*
X0056638Y0053861D02*
X0055900Y0053861D01*
X0055900Y0054106D02*
X0056638Y0054106D01*
X0056638Y0054351D02*
X0055900Y0054351D01*
X0055900Y0054596D02*
X0056638Y0054596D01*
X0056638Y0054841D02*
X0055900Y0054841D01*
X0055900Y0055086D02*
X0056638Y0055086D01*
X0056638Y0055331D02*
X0055900Y0055331D01*
X0055900Y0055576D02*
X0056638Y0055576D01*
X0056638Y0055821D02*
X0055900Y0055821D01*
X0054669Y0056030D02*
X0054669Y0053126D01*
X0053931Y0053126D01*
X0053931Y0056030D01*
X0054669Y0056030D01*
X0054669Y0053371D02*
X0053931Y0053371D01*
X0053931Y0053616D02*
X0054669Y0053616D01*
X0054669Y0053861D02*
X0053931Y0053861D01*
X0053931Y0054106D02*
X0054669Y0054106D01*
X0054669Y0054351D02*
X0053931Y0054351D01*
X0053931Y0054596D02*
X0054669Y0054596D01*
X0054669Y0054841D02*
X0053931Y0054841D01*
X0053931Y0055086D02*
X0054669Y0055086D01*
X0054669Y0055331D02*
X0053931Y0055331D01*
X0053931Y0055576D02*
X0054669Y0055576D01*
X0054669Y0055821D02*
X0053931Y0055821D01*
X0052700Y0056030D02*
X0052700Y0053126D01*
X0051962Y0053126D01*
X0051962Y0056030D01*
X0052700Y0056030D01*
X0052700Y0053371D02*
X0051962Y0053371D01*
X0051962Y0053616D02*
X0052700Y0053616D01*
X0052700Y0053861D02*
X0051962Y0053861D01*
X0051962Y0054106D02*
X0052700Y0054106D01*
X0052700Y0054351D02*
X0051962Y0054351D01*
X0051962Y0054596D02*
X0052700Y0054596D01*
X0052700Y0054841D02*
X0051962Y0054841D01*
X0051962Y0055086D02*
X0052700Y0055086D01*
X0052700Y0055331D02*
X0051962Y0055331D01*
X0051962Y0055576D02*
X0052700Y0055576D01*
X0052700Y0055821D02*
X0051962Y0055821D01*
X0050732Y0056030D02*
X0050732Y0053126D01*
X0049994Y0053126D01*
X0049994Y0056030D01*
X0050732Y0056030D01*
X0050732Y0053371D02*
X0049994Y0053371D01*
X0049994Y0053616D02*
X0050732Y0053616D01*
X0050732Y0053861D02*
X0049994Y0053861D01*
X0049994Y0054106D02*
X0050732Y0054106D01*
X0050732Y0054351D02*
X0049994Y0054351D01*
X0049994Y0054596D02*
X0050732Y0054596D01*
X0050732Y0054841D02*
X0049994Y0054841D01*
X0049994Y0055086D02*
X0050732Y0055086D01*
X0050732Y0055331D02*
X0049994Y0055331D01*
X0049994Y0055576D02*
X0050732Y0055576D01*
X0050732Y0055821D02*
X0049994Y0055821D01*
X0047780Y0058244D02*
X0044876Y0058244D01*
X0044876Y0058982D01*
X0047780Y0058982D01*
X0047780Y0058244D01*
X0047780Y0058489D02*
X0044876Y0058489D01*
X0044876Y0058734D02*
X0047780Y0058734D01*
X0047780Y0058979D02*
X0044876Y0058979D01*
X0044876Y0060212D02*
X0047780Y0060212D01*
X0044876Y0060212D02*
X0044876Y0060950D01*
X0047780Y0060950D01*
X0047780Y0060212D01*
X0047780Y0060457D02*
X0044876Y0060457D01*
X0044876Y0060702D02*
X0047780Y0060702D01*
X0047780Y0060947D02*
X0044876Y0060947D01*
X0044876Y0062181D02*
X0047780Y0062181D01*
X0044876Y0062181D02*
X0044876Y0062919D01*
X0047780Y0062919D01*
X0047780Y0062181D01*
X0047780Y0062426D02*
X0044876Y0062426D01*
X0044876Y0062671D02*
X0047780Y0062671D01*
X0047780Y0062916D02*
X0044876Y0062916D01*
X0044876Y0064150D02*
X0047780Y0064150D01*
X0044876Y0064150D02*
X0044876Y0064888D01*
X0047780Y0064888D01*
X0047780Y0064150D01*
X0047780Y0064395D02*
X0044876Y0064395D01*
X0044876Y0064640D02*
X0047780Y0064640D01*
X0047780Y0064885D02*
X0044876Y0064885D01*
X0044876Y0066118D02*
X0047780Y0066118D01*
X0044876Y0066118D02*
X0044876Y0066856D01*
X0047780Y0066856D01*
X0047780Y0066118D01*
X0047780Y0066363D02*
X0044876Y0066363D01*
X0044876Y0066608D02*
X0047780Y0066608D01*
X0047780Y0066853D02*
X0044876Y0066853D01*
X0050732Y0069070D02*
X0050732Y0071974D01*
X0050732Y0069070D02*
X0049994Y0069070D01*
X0049994Y0071974D01*
X0050732Y0071974D01*
X0050732Y0069315D02*
X0049994Y0069315D01*
X0049994Y0069560D02*
X0050732Y0069560D01*
X0050732Y0069805D02*
X0049994Y0069805D01*
X0049994Y0070050D02*
X0050732Y0070050D01*
X0050732Y0070295D02*
X0049994Y0070295D01*
X0049994Y0070540D02*
X0050732Y0070540D01*
X0050732Y0070785D02*
X0049994Y0070785D01*
X0049994Y0071030D02*
X0050732Y0071030D01*
X0050732Y0071275D02*
X0049994Y0071275D01*
X0049994Y0071520D02*
X0050732Y0071520D01*
X0050732Y0071765D02*
X0049994Y0071765D01*
X0052700Y0071974D02*
X0052700Y0069070D01*
X0051962Y0069070D01*
X0051962Y0071974D01*
X0052700Y0071974D01*
X0052700Y0069315D02*
X0051962Y0069315D01*
X0051962Y0069560D02*
X0052700Y0069560D01*
X0052700Y0069805D02*
X0051962Y0069805D01*
X0051962Y0070050D02*
X0052700Y0070050D01*
X0052700Y0070295D02*
X0051962Y0070295D01*
X0051962Y0070540D02*
X0052700Y0070540D01*
X0052700Y0070785D02*
X0051962Y0070785D01*
X0051962Y0071030D02*
X0052700Y0071030D01*
X0052700Y0071275D02*
X0051962Y0071275D01*
X0051962Y0071520D02*
X0052700Y0071520D01*
X0052700Y0071765D02*
X0051962Y0071765D01*
X0054669Y0071974D02*
X0054669Y0069070D01*
X0053931Y0069070D01*
X0053931Y0071974D01*
X0054669Y0071974D01*
X0054669Y0069315D02*
X0053931Y0069315D01*
X0053931Y0069560D02*
X0054669Y0069560D01*
X0054669Y0069805D02*
X0053931Y0069805D01*
X0053931Y0070050D02*
X0054669Y0070050D01*
X0054669Y0070295D02*
X0053931Y0070295D01*
X0053931Y0070540D02*
X0054669Y0070540D01*
X0054669Y0070785D02*
X0053931Y0070785D01*
X0053931Y0071030D02*
X0054669Y0071030D01*
X0054669Y0071275D02*
X0053931Y0071275D01*
X0053931Y0071520D02*
X0054669Y0071520D01*
X0054669Y0071765D02*
X0053931Y0071765D01*
X0056638Y0071974D02*
X0056638Y0069070D01*
X0055900Y0069070D01*
X0055900Y0071974D01*
X0056638Y0071974D01*
X0056638Y0069315D02*
X0055900Y0069315D01*
X0055900Y0069560D02*
X0056638Y0069560D01*
X0056638Y0069805D02*
X0055900Y0069805D01*
X0055900Y0070050D02*
X0056638Y0070050D01*
X0056638Y0070295D02*
X0055900Y0070295D01*
X0055900Y0070540D02*
X0056638Y0070540D01*
X0056638Y0070785D02*
X0055900Y0070785D01*
X0055900Y0071030D02*
X0056638Y0071030D01*
X0056638Y0071275D02*
X0055900Y0071275D01*
X0055900Y0071520D02*
X0056638Y0071520D01*
X0056638Y0071765D02*
X0055900Y0071765D01*
X0058606Y0071974D02*
X0058606Y0069070D01*
X0057868Y0069070D01*
X0057868Y0071974D01*
X0058606Y0071974D01*
X0058606Y0069315D02*
X0057868Y0069315D01*
X0057868Y0069560D02*
X0058606Y0069560D01*
X0058606Y0069805D02*
X0057868Y0069805D01*
X0057868Y0070050D02*
X0058606Y0070050D01*
X0058606Y0070295D02*
X0057868Y0070295D01*
X0057868Y0070540D02*
X0058606Y0070540D01*
X0058606Y0070785D02*
X0057868Y0070785D01*
X0057868Y0071030D02*
X0058606Y0071030D01*
X0058606Y0071275D02*
X0057868Y0071275D01*
X0057868Y0071520D02*
X0058606Y0071520D01*
X0058606Y0071765D02*
X0057868Y0071765D01*
X0060820Y0066118D02*
X0063724Y0066118D01*
X0060820Y0066118D02*
X0060820Y0066856D01*
X0063724Y0066856D01*
X0063724Y0066118D01*
X0063724Y0066363D02*
X0060820Y0066363D01*
X0060820Y0066608D02*
X0063724Y0066608D01*
X0063724Y0066853D02*
X0060820Y0066853D01*
X0060820Y0064150D02*
X0063724Y0064150D01*
X0060820Y0064150D02*
X0060820Y0064888D01*
X0063724Y0064888D01*
X0063724Y0064150D01*
X0063724Y0064395D02*
X0060820Y0064395D01*
X0060820Y0064640D02*
X0063724Y0064640D01*
X0063724Y0064885D02*
X0060820Y0064885D01*
X0060820Y0062181D02*
X0063724Y0062181D01*
X0060820Y0062181D02*
X0060820Y0062919D01*
X0063724Y0062919D01*
X0063724Y0062181D01*
X0063724Y0062426D02*
X0060820Y0062426D01*
X0060820Y0062671D02*
X0063724Y0062671D01*
X0063724Y0062916D02*
X0060820Y0062916D01*
X0060820Y0060212D02*
X0063724Y0060212D01*
X0060820Y0060212D02*
X0060820Y0060950D01*
X0063724Y0060950D01*
X0063724Y0060212D01*
X0063724Y0060457D02*
X0060820Y0060457D01*
X0060820Y0060702D02*
X0063724Y0060702D01*
X0063724Y0060947D02*
X0060820Y0060947D01*
X0060820Y0058244D02*
X0063724Y0058244D01*
X0060820Y0058244D02*
X0060820Y0058982D01*
X0063724Y0058982D01*
X0063724Y0058244D01*
X0063724Y0058489D02*
X0060820Y0058489D01*
X0060820Y0058734D02*
X0063724Y0058734D01*
X0063724Y0058979D02*
X0060820Y0058979D01*
D15*
X0056269Y0060581D03*
X0056269Y0064519D03*
X0052331Y0064519D03*
X0052331Y0060581D03*
D16*
X0042883Y0079745D03*
X0042883Y0088800D03*
X0042883Y0097855D03*
D17*
X0065717Y0088800D03*
D18*
X0078050Y0086822D03*
X0078050Y0083278D03*
X0085550Y0083278D03*
X0085550Y0086822D03*
X0074822Y0061300D03*
X0071278Y0061300D03*
X0071800Y0048072D03*
X0071800Y0044528D03*
X0066800Y0044528D03*
X0066800Y0048072D03*
X0061800Y0048072D03*
X0061800Y0044528D03*
X0056800Y0044528D03*
X0056800Y0048072D03*
X0051800Y0048072D03*
X0051800Y0044528D03*
X0046800Y0044528D03*
X0046800Y0048072D03*
X0041800Y0048072D03*
X0041800Y0044528D03*
X0036800Y0044528D03*
X0036800Y0048072D03*
X0029300Y0034322D03*
X0029300Y0030778D03*
X0021800Y0030778D03*
X0021800Y0034322D03*
X0019300Y0054528D03*
X0019300Y0058072D03*
X0025028Y0095050D03*
X0028572Y0095050D03*
X0039300Y0075572D03*
X0039300Y0072028D03*
X0079300Y0034322D03*
X0079300Y0030778D03*
X0086800Y0030778D03*
X0086800Y0034322D03*
X0081800Y0044528D03*
X0081800Y0048072D03*
X0081800Y0057028D03*
X0081800Y0060572D03*
X0086800Y0060572D03*
X0086800Y0057028D03*
D19*
X0076593Y0055050D03*
X0069507Y0055050D03*
X0030343Y0088800D03*
X0023257Y0088800D03*
D20*
X0028050Y0058711D03*
X0028050Y0041389D03*
D21*
X0024300Y0067894D03*
X0024300Y0079706D03*
D22*
X0033050Y0074843D03*
X0033050Y0067757D03*
D23*
X0019300Y0049253D03*
X0019300Y0043347D03*
X0086800Y0043347D03*
X0086800Y0049253D03*
D24*
X0076800Y0047875D03*
X0076800Y0044725D03*
D25*
X0081800Y0071113D03*
X0078060Y0078987D03*
X0078060Y0091113D03*
X0081800Y0098987D03*
X0085540Y0091113D03*
X0085540Y0078987D03*
D26*
X0083181Y0104524D02*
X0083181Y0109650D01*
X0083181Y0104524D02*
X0080419Y0104524D01*
X0080419Y0109650D01*
X0083181Y0109650D01*
X0083181Y0105303D02*
X0080419Y0105303D01*
X0080419Y0106082D02*
X0083181Y0106082D01*
X0083181Y0106861D02*
X0080419Y0106861D01*
X0080419Y0107640D02*
X0083181Y0107640D01*
X0083181Y0108419D02*
X0080419Y0108419D01*
X0080419Y0109198D02*
X0083181Y0109198D01*
X0086186Y0113390D02*
X0091312Y0113390D01*
X0091312Y0110628D01*
X0086186Y0110628D01*
X0086186Y0113390D01*
X0086186Y0111407D02*
X0091312Y0111407D01*
X0091312Y0112186D02*
X0086186Y0112186D01*
X0086186Y0112965D02*
X0091312Y0112965D01*
X0091312Y0118390D02*
X0086186Y0118390D01*
X0091312Y0118390D02*
X0091312Y0115628D01*
X0086186Y0115628D01*
X0086186Y0118390D01*
X0086186Y0116407D02*
X0091312Y0116407D01*
X0091312Y0117186D02*
X0086186Y0117186D01*
X0086186Y0117965D02*
X0091312Y0117965D01*
X0091312Y0123390D02*
X0086186Y0123390D01*
X0091312Y0123390D02*
X0091312Y0120628D01*
X0086186Y0120628D01*
X0086186Y0123390D01*
X0086186Y0121407D02*
X0091312Y0121407D01*
X0091312Y0122186D02*
X0086186Y0122186D01*
X0086186Y0122965D02*
X0091312Y0122965D01*
X0091312Y0128390D02*
X0086186Y0128390D01*
X0091312Y0128390D02*
X0091312Y0125628D01*
X0086186Y0125628D01*
X0086186Y0128390D01*
X0086186Y0126407D02*
X0091312Y0126407D01*
X0091312Y0127186D02*
X0086186Y0127186D01*
X0086186Y0127965D02*
X0091312Y0127965D01*
X0091312Y0133390D02*
X0086186Y0133390D01*
X0091312Y0133390D02*
X0091312Y0130628D01*
X0086186Y0130628D01*
X0086186Y0133390D01*
X0086186Y0131407D02*
X0091312Y0131407D01*
X0091312Y0132186D02*
X0086186Y0132186D01*
X0086186Y0132965D02*
X0091312Y0132965D01*
X0091312Y0138390D02*
X0086186Y0138390D01*
X0091312Y0138390D02*
X0091312Y0135628D01*
X0086186Y0135628D01*
X0086186Y0138390D01*
X0086186Y0136407D02*
X0091312Y0136407D01*
X0091312Y0137186D02*
X0086186Y0137186D01*
X0086186Y0137965D02*
X0091312Y0137965D01*
X0091312Y0143390D02*
X0086186Y0143390D01*
X0091312Y0143390D02*
X0091312Y0140628D01*
X0086186Y0140628D01*
X0086186Y0143390D01*
X0086186Y0141407D02*
X0091312Y0141407D01*
X0091312Y0142186D02*
X0086186Y0142186D01*
X0086186Y0142965D02*
X0091312Y0142965D01*
X0091312Y0148390D02*
X0086186Y0148390D01*
X0091312Y0148390D02*
X0091312Y0145628D01*
X0086186Y0145628D01*
X0086186Y0148390D01*
X0086186Y0146407D02*
X0091312Y0146407D01*
X0091312Y0147186D02*
X0086186Y0147186D01*
X0086186Y0147965D02*
X0091312Y0147965D01*
X0091312Y0153390D02*
X0086186Y0153390D01*
X0091312Y0153390D02*
X0091312Y0150628D01*
X0086186Y0150628D01*
X0086186Y0153390D01*
X0086186Y0151407D02*
X0091312Y0151407D01*
X0091312Y0152186D02*
X0086186Y0152186D01*
X0086186Y0152965D02*
X0091312Y0152965D01*
X0091312Y0158390D02*
X0086186Y0158390D01*
X0091312Y0158390D02*
X0091312Y0155628D01*
X0086186Y0155628D01*
X0086186Y0158390D01*
X0086186Y0156407D02*
X0091312Y0156407D01*
X0091312Y0157186D02*
X0086186Y0157186D01*
X0086186Y0157965D02*
X0091312Y0157965D01*
X0091312Y0163390D02*
X0086186Y0163390D01*
X0091312Y0163390D02*
X0091312Y0160628D01*
X0086186Y0160628D01*
X0086186Y0163390D01*
X0086186Y0161407D02*
X0091312Y0161407D01*
X0091312Y0162186D02*
X0086186Y0162186D01*
X0086186Y0162965D02*
X0091312Y0162965D01*
X0091312Y0168390D02*
X0086186Y0168390D01*
X0091312Y0168390D02*
X0091312Y0165628D01*
X0086186Y0165628D01*
X0086186Y0168390D01*
X0086186Y0166407D02*
X0091312Y0166407D01*
X0091312Y0167186D02*
X0086186Y0167186D01*
X0086186Y0167965D02*
X0091312Y0167965D01*
X0091312Y0173390D02*
X0086186Y0173390D01*
X0091312Y0173390D02*
X0091312Y0170628D01*
X0086186Y0170628D01*
X0086186Y0173390D01*
X0086186Y0171407D02*
X0091312Y0171407D01*
X0091312Y0172186D02*
X0086186Y0172186D01*
X0086186Y0172965D02*
X0091312Y0172965D01*
X0091312Y0178390D02*
X0086186Y0178390D01*
X0091312Y0178390D02*
X0091312Y0175628D01*
X0086186Y0175628D01*
X0086186Y0178390D01*
X0086186Y0176407D02*
X0091312Y0176407D01*
X0091312Y0177186D02*
X0086186Y0177186D01*
X0086186Y0177965D02*
X0091312Y0177965D01*
X0078181Y0109650D02*
X0078181Y0104524D01*
X0075419Y0104524D01*
X0075419Y0109650D01*
X0078181Y0109650D01*
X0078181Y0105303D02*
X0075419Y0105303D01*
X0075419Y0106082D02*
X0078181Y0106082D01*
X0078181Y0106861D02*
X0075419Y0106861D01*
X0075419Y0107640D02*
X0078181Y0107640D01*
X0078181Y0108419D02*
X0075419Y0108419D01*
X0075419Y0109198D02*
X0078181Y0109198D01*
X0073181Y0109650D02*
X0073181Y0104524D01*
X0070419Y0104524D01*
X0070419Y0109650D01*
X0073181Y0109650D01*
X0073181Y0105303D02*
X0070419Y0105303D01*
X0070419Y0106082D02*
X0073181Y0106082D01*
X0073181Y0106861D02*
X0070419Y0106861D01*
X0070419Y0107640D02*
X0073181Y0107640D01*
X0073181Y0108419D02*
X0070419Y0108419D01*
X0070419Y0109198D02*
X0073181Y0109198D01*
X0068181Y0109650D02*
X0068181Y0104524D01*
X0065419Y0104524D01*
X0065419Y0109650D01*
X0068181Y0109650D01*
X0068181Y0105303D02*
X0065419Y0105303D01*
X0065419Y0106082D02*
X0068181Y0106082D01*
X0068181Y0106861D02*
X0065419Y0106861D01*
X0065419Y0107640D02*
X0068181Y0107640D01*
X0068181Y0108419D02*
X0065419Y0108419D01*
X0065419Y0109198D02*
X0068181Y0109198D01*
X0063181Y0109650D02*
X0063181Y0104524D01*
X0060419Y0104524D01*
X0060419Y0109650D01*
X0063181Y0109650D01*
X0063181Y0105303D02*
X0060419Y0105303D01*
X0060419Y0106082D02*
X0063181Y0106082D01*
X0063181Y0106861D02*
X0060419Y0106861D01*
X0060419Y0107640D02*
X0063181Y0107640D01*
X0063181Y0108419D02*
X0060419Y0108419D01*
X0060419Y0109198D02*
X0063181Y0109198D01*
X0058181Y0109650D02*
X0058181Y0104524D01*
X0055419Y0104524D01*
X0055419Y0109650D01*
X0058181Y0109650D01*
X0058181Y0105303D02*
X0055419Y0105303D01*
X0055419Y0106082D02*
X0058181Y0106082D01*
X0058181Y0106861D02*
X0055419Y0106861D01*
X0055419Y0107640D02*
X0058181Y0107640D01*
X0058181Y0108419D02*
X0055419Y0108419D01*
X0055419Y0109198D02*
X0058181Y0109198D01*
X0053181Y0109650D02*
X0053181Y0104524D01*
X0050419Y0104524D01*
X0050419Y0109650D01*
X0053181Y0109650D01*
X0053181Y0105303D02*
X0050419Y0105303D01*
X0050419Y0106082D02*
X0053181Y0106082D01*
X0053181Y0106861D02*
X0050419Y0106861D01*
X0050419Y0107640D02*
X0053181Y0107640D01*
X0053181Y0108419D02*
X0050419Y0108419D01*
X0050419Y0109198D02*
X0053181Y0109198D01*
X0048181Y0109650D02*
X0048181Y0104524D01*
X0045419Y0104524D01*
X0045419Y0109650D01*
X0048181Y0109650D01*
X0048181Y0105303D02*
X0045419Y0105303D01*
X0045419Y0106082D02*
X0048181Y0106082D01*
X0048181Y0106861D02*
X0045419Y0106861D01*
X0045419Y0107640D02*
X0048181Y0107640D01*
X0048181Y0108419D02*
X0045419Y0108419D01*
X0045419Y0109198D02*
X0048181Y0109198D01*
X0043181Y0109650D02*
X0043181Y0104524D01*
X0040419Y0104524D01*
X0040419Y0109650D01*
X0043181Y0109650D01*
X0043181Y0105303D02*
X0040419Y0105303D01*
X0040419Y0106082D02*
X0043181Y0106082D01*
X0043181Y0106861D02*
X0040419Y0106861D01*
X0040419Y0107640D02*
X0043181Y0107640D01*
X0043181Y0108419D02*
X0040419Y0108419D01*
X0040419Y0109198D02*
X0043181Y0109198D01*
X0038181Y0109650D02*
X0038181Y0104524D01*
X0035419Y0104524D01*
X0035419Y0109650D01*
X0038181Y0109650D01*
X0038181Y0105303D02*
X0035419Y0105303D01*
X0035419Y0106082D02*
X0038181Y0106082D01*
X0038181Y0106861D02*
X0035419Y0106861D01*
X0035419Y0107640D02*
X0038181Y0107640D01*
X0038181Y0108419D02*
X0035419Y0108419D01*
X0035419Y0109198D02*
X0038181Y0109198D01*
X0033181Y0109650D02*
X0033181Y0104524D01*
X0030419Y0104524D01*
X0030419Y0109650D01*
X0033181Y0109650D01*
X0033181Y0105303D02*
X0030419Y0105303D01*
X0030419Y0106082D02*
X0033181Y0106082D01*
X0033181Y0106861D02*
X0030419Y0106861D01*
X0030419Y0107640D02*
X0033181Y0107640D01*
X0033181Y0108419D02*
X0030419Y0108419D01*
X0030419Y0109198D02*
X0033181Y0109198D01*
X0028181Y0109650D02*
X0028181Y0104524D01*
X0025419Y0104524D01*
X0025419Y0109650D01*
X0028181Y0109650D01*
X0028181Y0105303D02*
X0025419Y0105303D01*
X0025419Y0106082D02*
X0028181Y0106082D01*
X0028181Y0106861D02*
X0025419Y0106861D01*
X0025419Y0107640D02*
X0028181Y0107640D01*
X0028181Y0108419D02*
X0025419Y0108419D01*
X0025419Y0109198D02*
X0028181Y0109198D01*
X0022414Y0110628D02*
X0017288Y0110628D01*
X0017288Y0113390D01*
X0022414Y0113390D01*
X0022414Y0110628D01*
X0022414Y0111407D02*
X0017288Y0111407D01*
X0017288Y0112186D02*
X0022414Y0112186D01*
X0022414Y0112965D02*
X0017288Y0112965D01*
X0017288Y0115628D02*
X0022414Y0115628D01*
X0017288Y0115628D02*
X0017288Y0118390D01*
X0022414Y0118390D01*
X0022414Y0115628D01*
X0022414Y0116407D02*
X0017288Y0116407D01*
X0017288Y0117186D02*
X0022414Y0117186D01*
X0022414Y0117965D02*
X0017288Y0117965D01*
X0017288Y0120628D02*
X0022414Y0120628D01*
X0017288Y0120628D02*
X0017288Y0123390D01*
X0022414Y0123390D01*
X0022414Y0120628D01*
X0022414Y0121407D02*
X0017288Y0121407D01*
X0017288Y0122186D02*
X0022414Y0122186D01*
X0022414Y0122965D02*
X0017288Y0122965D01*
X0017288Y0125628D02*
X0022414Y0125628D01*
X0017288Y0125628D02*
X0017288Y0128390D01*
X0022414Y0128390D01*
X0022414Y0125628D01*
X0022414Y0126407D02*
X0017288Y0126407D01*
X0017288Y0127186D02*
X0022414Y0127186D01*
X0022414Y0127965D02*
X0017288Y0127965D01*
X0017288Y0130628D02*
X0022414Y0130628D01*
X0017288Y0130628D02*
X0017288Y0133390D01*
X0022414Y0133390D01*
X0022414Y0130628D01*
X0022414Y0131407D02*
X0017288Y0131407D01*
X0017288Y0132186D02*
X0022414Y0132186D01*
X0022414Y0132965D02*
X0017288Y0132965D01*
X0017288Y0135628D02*
X0022414Y0135628D01*
X0017288Y0135628D02*
X0017288Y0138390D01*
X0022414Y0138390D01*
X0022414Y0135628D01*
X0022414Y0136407D02*
X0017288Y0136407D01*
X0017288Y0137186D02*
X0022414Y0137186D01*
X0022414Y0137965D02*
X0017288Y0137965D01*
X0017288Y0140628D02*
X0022414Y0140628D01*
X0017288Y0140628D02*
X0017288Y0143390D01*
X0022414Y0143390D01*
X0022414Y0140628D01*
X0022414Y0141407D02*
X0017288Y0141407D01*
X0017288Y0142186D02*
X0022414Y0142186D01*
X0022414Y0142965D02*
X0017288Y0142965D01*
X0017288Y0145628D02*
X0022414Y0145628D01*
X0017288Y0145628D02*
X0017288Y0148390D01*
X0022414Y0148390D01*
X0022414Y0145628D01*
X0022414Y0146407D02*
X0017288Y0146407D01*
X0017288Y0147186D02*
X0022414Y0147186D01*
X0022414Y0147965D02*
X0017288Y0147965D01*
X0017288Y0150628D02*
X0022414Y0150628D01*
X0017288Y0150628D02*
X0017288Y0153390D01*
X0022414Y0153390D01*
X0022414Y0150628D01*
X0022414Y0151407D02*
X0017288Y0151407D01*
X0017288Y0152186D02*
X0022414Y0152186D01*
X0022414Y0152965D02*
X0017288Y0152965D01*
X0017288Y0155628D02*
X0022414Y0155628D01*
X0017288Y0155628D02*
X0017288Y0158390D01*
X0022414Y0158390D01*
X0022414Y0155628D01*
X0022414Y0156407D02*
X0017288Y0156407D01*
X0017288Y0157186D02*
X0022414Y0157186D01*
X0022414Y0157965D02*
X0017288Y0157965D01*
X0017288Y0160628D02*
X0022414Y0160628D01*
X0017288Y0160628D02*
X0017288Y0163390D01*
X0022414Y0163390D01*
X0022414Y0160628D01*
X0022414Y0161407D02*
X0017288Y0161407D01*
X0017288Y0162186D02*
X0022414Y0162186D01*
X0022414Y0162965D02*
X0017288Y0162965D01*
X0017288Y0165628D02*
X0022414Y0165628D01*
X0017288Y0165628D02*
X0017288Y0168390D01*
X0022414Y0168390D01*
X0022414Y0165628D01*
X0022414Y0166407D02*
X0017288Y0166407D01*
X0017288Y0167186D02*
X0022414Y0167186D01*
X0022414Y0167965D02*
X0017288Y0167965D01*
X0017288Y0170628D02*
X0022414Y0170628D01*
X0017288Y0170628D02*
X0017288Y0173390D01*
X0022414Y0173390D01*
X0022414Y0170628D01*
X0022414Y0171407D02*
X0017288Y0171407D01*
X0017288Y0172186D02*
X0022414Y0172186D01*
X0022414Y0172965D02*
X0017288Y0172965D01*
X0017288Y0175628D02*
X0022414Y0175628D01*
X0017288Y0175628D02*
X0017288Y0178390D01*
X0022414Y0178390D01*
X0022414Y0175628D01*
X0022414Y0176407D02*
X0017288Y0176407D01*
X0017288Y0177186D02*
X0022414Y0177186D01*
X0022414Y0177965D02*
X0017288Y0177965D01*
D27*
X0042883Y0152127D03*
X0042883Y0146615D03*
X0042883Y0141103D03*
X0048394Y0141103D03*
X0048394Y0146615D03*
X0048394Y0152127D03*
X0053906Y0152127D03*
X0053906Y0146615D03*
X0053906Y0141103D03*
M02*
