G75*
%MOIN*%
%OFA0B0*%
%FSLAX25Y25*%
%IPPOS*%
%LPD*%
%AMOC8*
5,1,8,0,0,1.08239X$1,22.5*
%
%ADD10C,0.00000*%
%ADD11C,0.01600*%
%ADD12C,0.11811*%
D10*
X0012096Y0008690D02*
X0012098Y0008821D01*
X0012104Y0008953D01*
X0012114Y0009084D01*
X0012128Y0009215D01*
X0012146Y0009345D01*
X0012168Y0009474D01*
X0012193Y0009603D01*
X0012223Y0009731D01*
X0012257Y0009858D01*
X0012294Y0009985D01*
X0012335Y0010109D01*
X0012380Y0010233D01*
X0012429Y0010355D01*
X0012481Y0010476D01*
X0012537Y0010594D01*
X0012597Y0010712D01*
X0012660Y0010827D01*
X0012727Y0010940D01*
X0012797Y0011052D01*
X0012870Y0011161D01*
X0012946Y0011267D01*
X0013026Y0011372D01*
X0013109Y0011474D01*
X0013195Y0011573D01*
X0013284Y0011670D01*
X0013376Y0011764D01*
X0013471Y0011855D01*
X0013568Y0011944D01*
X0013668Y0012029D01*
X0013771Y0012111D01*
X0013876Y0012190D01*
X0013983Y0012266D01*
X0014093Y0012338D01*
X0014205Y0012407D01*
X0014319Y0012473D01*
X0014434Y0012535D01*
X0014552Y0012594D01*
X0014671Y0012649D01*
X0014792Y0012701D01*
X0014915Y0012748D01*
X0015039Y0012792D01*
X0015164Y0012833D01*
X0015290Y0012869D01*
X0015418Y0012902D01*
X0015546Y0012930D01*
X0015675Y0012955D01*
X0015805Y0012976D01*
X0015935Y0012993D01*
X0016066Y0013006D01*
X0016197Y0013015D01*
X0016328Y0013020D01*
X0016460Y0013021D01*
X0016591Y0013018D01*
X0016723Y0013011D01*
X0016854Y0013000D01*
X0016984Y0012985D01*
X0017114Y0012966D01*
X0017244Y0012943D01*
X0017372Y0012917D01*
X0017500Y0012886D01*
X0017627Y0012851D01*
X0017753Y0012813D01*
X0017877Y0012771D01*
X0018001Y0012725D01*
X0018122Y0012675D01*
X0018242Y0012622D01*
X0018361Y0012565D01*
X0018478Y0012505D01*
X0018592Y0012441D01*
X0018705Y0012373D01*
X0018816Y0012302D01*
X0018925Y0012228D01*
X0019031Y0012151D01*
X0019135Y0012070D01*
X0019236Y0011987D01*
X0019335Y0011900D01*
X0019431Y0011810D01*
X0019524Y0011717D01*
X0019615Y0011622D01*
X0019702Y0011524D01*
X0019787Y0011423D01*
X0019868Y0011320D01*
X0019946Y0011214D01*
X0020021Y0011106D01*
X0020093Y0010996D01*
X0020161Y0010884D01*
X0020226Y0010770D01*
X0020287Y0010653D01*
X0020345Y0010535D01*
X0020399Y0010415D01*
X0020450Y0010294D01*
X0020497Y0010171D01*
X0020540Y0010047D01*
X0020579Y0009922D01*
X0020615Y0009795D01*
X0020646Y0009667D01*
X0020674Y0009539D01*
X0020698Y0009410D01*
X0020718Y0009280D01*
X0020734Y0009149D01*
X0020746Y0009018D01*
X0020754Y0008887D01*
X0020758Y0008756D01*
X0020758Y0008624D01*
X0020754Y0008493D01*
X0020746Y0008362D01*
X0020734Y0008231D01*
X0020718Y0008100D01*
X0020698Y0007970D01*
X0020674Y0007841D01*
X0020646Y0007713D01*
X0020615Y0007585D01*
X0020579Y0007458D01*
X0020540Y0007333D01*
X0020497Y0007209D01*
X0020450Y0007086D01*
X0020399Y0006965D01*
X0020345Y0006845D01*
X0020287Y0006727D01*
X0020226Y0006610D01*
X0020161Y0006496D01*
X0020093Y0006384D01*
X0020021Y0006274D01*
X0019946Y0006166D01*
X0019868Y0006060D01*
X0019787Y0005957D01*
X0019702Y0005856D01*
X0019615Y0005758D01*
X0019524Y0005663D01*
X0019431Y0005570D01*
X0019335Y0005480D01*
X0019236Y0005393D01*
X0019135Y0005310D01*
X0019031Y0005229D01*
X0018925Y0005152D01*
X0018816Y0005078D01*
X0018705Y0005007D01*
X0018593Y0004939D01*
X0018478Y0004875D01*
X0018361Y0004815D01*
X0018242Y0004758D01*
X0018122Y0004705D01*
X0018001Y0004655D01*
X0017877Y0004609D01*
X0017753Y0004567D01*
X0017627Y0004529D01*
X0017500Y0004494D01*
X0017372Y0004463D01*
X0017244Y0004437D01*
X0017114Y0004414D01*
X0016984Y0004395D01*
X0016854Y0004380D01*
X0016723Y0004369D01*
X0016591Y0004362D01*
X0016460Y0004359D01*
X0016328Y0004360D01*
X0016197Y0004365D01*
X0016066Y0004374D01*
X0015935Y0004387D01*
X0015805Y0004404D01*
X0015675Y0004425D01*
X0015546Y0004450D01*
X0015418Y0004478D01*
X0015290Y0004511D01*
X0015164Y0004547D01*
X0015039Y0004588D01*
X0014915Y0004632D01*
X0014792Y0004679D01*
X0014671Y0004731D01*
X0014552Y0004786D01*
X0014434Y0004845D01*
X0014319Y0004907D01*
X0014205Y0004973D01*
X0014093Y0005042D01*
X0013983Y0005114D01*
X0013876Y0005190D01*
X0013771Y0005269D01*
X0013668Y0005351D01*
X0013568Y0005436D01*
X0013471Y0005525D01*
X0013376Y0005616D01*
X0013284Y0005710D01*
X0013195Y0005807D01*
X0013109Y0005906D01*
X0013026Y0006008D01*
X0012946Y0006113D01*
X0012870Y0006219D01*
X0012797Y0006328D01*
X0012727Y0006440D01*
X0012660Y0006553D01*
X0012597Y0006668D01*
X0012537Y0006786D01*
X0012481Y0006904D01*
X0012429Y0007025D01*
X0012380Y0007147D01*
X0012335Y0007271D01*
X0012294Y0007395D01*
X0012257Y0007522D01*
X0012223Y0007649D01*
X0012193Y0007777D01*
X0012168Y0007906D01*
X0012146Y0008035D01*
X0012128Y0008165D01*
X0012114Y0008296D01*
X0012104Y0008427D01*
X0012098Y0008559D01*
X0012096Y0008690D01*
X0010128Y0041170D02*
X0010130Y0041328D01*
X0010136Y0041486D01*
X0010146Y0041644D01*
X0010160Y0041802D01*
X0010178Y0041959D01*
X0010199Y0042116D01*
X0010225Y0042272D01*
X0010255Y0042428D01*
X0010288Y0042583D01*
X0010326Y0042736D01*
X0010367Y0042889D01*
X0010412Y0043041D01*
X0010461Y0043192D01*
X0010514Y0043341D01*
X0010570Y0043489D01*
X0010630Y0043635D01*
X0010694Y0043780D01*
X0010762Y0043923D01*
X0010833Y0044065D01*
X0010907Y0044205D01*
X0010985Y0044342D01*
X0011067Y0044478D01*
X0011151Y0044612D01*
X0011240Y0044743D01*
X0011331Y0044872D01*
X0011426Y0044999D01*
X0011523Y0045124D01*
X0011624Y0045246D01*
X0011728Y0045365D01*
X0011835Y0045482D01*
X0011945Y0045596D01*
X0012058Y0045707D01*
X0012173Y0045816D01*
X0012291Y0045921D01*
X0012412Y0046023D01*
X0012535Y0046123D01*
X0012661Y0046219D01*
X0012789Y0046312D01*
X0012919Y0046402D01*
X0013052Y0046488D01*
X0013187Y0046572D01*
X0013323Y0046651D01*
X0013462Y0046728D01*
X0013603Y0046800D01*
X0013745Y0046870D01*
X0013889Y0046935D01*
X0014035Y0046997D01*
X0014182Y0047055D01*
X0014331Y0047110D01*
X0014481Y0047161D01*
X0014632Y0047208D01*
X0014784Y0047251D01*
X0014937Y0047290D01*
X0015092Y0047326D01*
X0015247Y0047357D01*
X0015403Y0047385D01*
X0015559Y0047409D01*
X0015716Y0047429D01*
X0015874Y0047445D01*
X0016031Y0047457D01*
X0016190Y0047465D01*
X0016348Y0047469D01*
X0016506Y0047469D01*
X0016664Y0047465D01*
X0016823Y0047457D01*
X0016980Y0047445D01*
X0017138Y0047429D01*
X0017295Y0047409D01*
X0017451Y0047385D01*
X0017607Y0047357D01*
X0017762Y0047326D01*
X0017917Y0047290D01*
X0018070Y0047251D01*
X0018222Y0047208D01*
X0018373Y0047161D01*
X0018523Y0047110D01*
X0018672Y0047055D01*
X0018819Y0046997D01*
X0018965Y0046935D01*
X0019109Y0046870D01*
X0019251Y0046800D01*
X0019392Y0046728D01*
X0019531Y0046651D01*
X0019667Y0046572D01*
X0019802Y0046488D01*
X0019935Y0046402D01*
X0020065Y0046312D01*
X0020193Y0046219D01*
X0020319Y0046123D01*
X0020442Y0046023D01*
X0020563Y0045921D01*
X0020681Y0045816D01*
X0020796Y0045707D01*
X0020909Y0045596D01*
X0021019Y0045482D01*
X0021126Y0045365D01*
X0021230Y0045246D01*
X0021331Y0045124D01*
X0021428Y0044999D01*
X0021523Y0044872D01*
X0021614Y0044743D01*
X0021703Y0044612D01*
X0021787Y0044478D01*
X0021869Y0044342D01*
X0021947Y0044205D01*
X0022021Y0044065D01*
X0022092Y0043923D01*
X0022160Y0043780D01*
X0022224Y0043635D01*
X0022284Y0043489D01*
X0022340Y0043341D01*
X0022393Y0043192D01*
X0022442Y0043041D01*
X0022487Y0042889D01*
X0022528Y0042736D01*
X0022566Y0042583D01*
X0022599Y0042428D01*
X0022629Y0042272D01*
X0022655Y0042116D01*
X0022676Y0041959D01*
X0022694Y0041802D01*
X0022708Y0041644D01*
X0022718Y0041486D01*
X0022724Y0041328D01*
X0022726Y0041170D01*
X0022724Y0041012D01*
X0022718Y0040854D01*
X0022708Y0040696D01*
X0022694Y0040538D01*
X0022676Y0040381D01*
X0022655Y0040224D01*
X0022629Y0040068D01*
X0022599Y0039912D01*
X0022566Y0039757D01*
X0022528Y0039604D01*
X0022487Y0039451D01*
X0022442Y0039299D01*
X0022393Y0039148D01*
X0022340Y0038999D01*
X0022284Y0038851D01*
X0022224Y0038705D01*
X0022160Y0038560D01*
X0022092Y0038417D01*
X0022021Y0038275D01*
X0021947Y0038135D01*
X0021869Y0037998D01*
X0021787Y0037862D01*
X0021703Y0037728D01*
X0021614Y0037597D01*
X0021523Y0037468D01*
X0021428Y0037341D01*
X0021331Y0037216D01*
X0021230Y0037094D01*
X0021126Y0036975D01*
X0021019Y0036858D01*
X0020909Y0036744D01*
X0020796Y0036633D01*
X0020681Y0036524D01*
X0020563Y0036419D01*
X0020442Y0036317D01*
X0020319Y0036217D01*
X0020193Y0036121D01*
X0020065Y0036028D01*
X0019935Y0035938D01*
X0019802Y0035852D01*
X0019667Y0035768D01*
X0019531Y0035689D01*
X0019392Y0035612D01*
X0019251Y0035540D01*
X0019109Y0035470D01*
X0018965Y0035405D01*
X0018819Y0035343D01*
X0018672Y0035285D01*
X0018523Y0035230D01*
X0018373Y0035179D01*
X0018222Y0035132D01*
X0018070Y0035089D01*
X0017917Y0035050D01*
X0017762Y0035014D01*
X0017607Y0034983D01*
X0017451Y0034955D01*
X0017295Y0034931D01*
X0017138Y0034911D01*
X0016980Y0034895D01*
X0016823Y0034883D01*
X0016664Y0034875D01*
X0016506Y0034871D01*
X0016348Y0034871D01*
X0016190Y0034875D01*
X0016031Y0034883D01*
X0015874Y0034895D01*
X0015716Y0034911D01*
X0015559Y0034931D01*
X0015403Y0034955D01*
X0015247Y0034983D01*
X0015092Y0035014D01*
X0014937Y0035050D01*
X0014784Y0035089D01*
X0014632Y0035132D01*
X0014481Y0035179D01*
X0014331Y0035230D01*
X0014182Y0035285D01*
X0014035Y0035343D01*
X0013889Y0035405D01*
X0013745Y0035470D01*
X0013603Y0035540D01*
X0013462Y0035612D01*
X0013323Y0035689D01*
X0013187Y0035768D01*
X0013052Y0035852D01*
X0012919Y0035938D01*
X0012789Y0036028D01*
X0012661Y0036121D01*
X0012535Y0036217D01*
X0012412Y0036317D01*
X0012291Y0036419D01*
X0012173Y0036524D01*
X0012058Y0036633D01*
X0011945Y0036744D01*
X0011835Y0036858D01*
X0011728Y0036975D01*
X0011624Y0037094D01*
X0011523Y0037216D01*
X0011426Y0037341D01*
X0011331Y0037468D01*
X0011240Y0037597D01*
X0011151Y0037728D01*
X0011067Y0037862D01*
X0010985Y0037998D01*
X0010907Y0038135D01*
X0010833Y0038275D01*
X0010762Y0038417D01*
X0010694Y0038560D01*
X0010630Y0038705D01*
X0010570Y0038851D01*
X0010514Y0038999D01*
X0010461Y0039148D01*
X0010412Y0039299D01*
X0010367Y0039451D01*
X0010326Y0039604D01*
X0010288Y0039757D01*
X0010255Y0039912D01*
X0010225Y0040068D01*
X0010199Y0040224D01*
X0010178Y0040381D01*
X0010160Y0040538D01*
X0010146Y0040696D01*
X0010136Y0040854D01*
X0010130Y0041012D01*
X0010128Y0041170D01*
X0076466Y0025422D02*
X0076468Y0025484D01*
X0076474Y0025547D01*
X0076484Y0025608D01*
X0076498Y0025669D01*
X0076515Y0025729D01*
X0076536Y0025788D01*
X0076562Y0025845D01*
X0076590Y0025900D01*
X0076622Y0025954D01*
X0076658Y0026005D01*
X0076696Y0026055D01*
X0076738Y0026101D01*
X0076782Y0026145D01*
X0076830Y0026186D01*
X0076879Y0026224D01*
X0076931Y0026258D01*
X0076985Y0026289D01*
X0077041Y0026317D01*
X0077099Y0026341D01*
X0077158Y0026362D01*
X0077218Y0026378D01*
X0077279Y0026391D01*
X0077341Y0026400D01*
X0077403Y0026405D01*
X0077466Y0026406D01*
X0077528Y0026403D01*
X0077590Y0026396D01*
X0077652Y0026385D01*
X0077712Y0026370D01*
X0077772Y0026352D01*
X0077830Y0026330D01*
X0077887Y0026304D01*
X0077942Y0026274D01*
X0077995Y0026241D01*
X0078046Y0026205D01*
X0078094Y0026166D01*
X0078140Y0026123D01*
X0078183Y0026078D01*
X0078223Y0026030D01*
X0078260Y0025980D01*
X0078294Y0025927D01*
X0078325Y0025873D01*
X0078351Y0025817D01*
X0078375Y0025759D01*
X0078394Y0025699D01*
X0078410Y0025639D01*
X0078422Y0025577D01*
X0078430Y0025516D01*
X0078434Y0025453D01*
X0078434Y0025391D01*
X0078430Y0025328D01*
X0078422Y0025267D01*
X0078410Y0025205D01*
X0078394Y0025145D01*
X0078375Y0025085D01*
X0078351Y0025027D01*
X0078325Y0024971D01*
X0078294Y0024917D01*
X0078260Y0024864D01*
X0078223Y0024814D01*
X0078183Y0024766D01*
X0078140Y0024721D01*
X0078094Y0024678D01*
X0078046Y0024639D01*
X0077995Y0024603D01*
X0077942Y0024570D01*
X0077887Y0024540D01*
X0077830Y0024514D01*
X0077772Y0024492D01*
X0077712Y0024474D01*
X0077652Y0024459D01*
X0077590Y0024448D01*
X0077528Y0024441D01*
X0077466Y0024438D01*
X0077403Y0024439D01*
X0077341Y0024444D01*
X0077279Y0024453D01*
X0077218Y0024466D01*
X0077158Y0024482D01*
X0077099Y0024503D01*
X0077041Y0024527D01*
X0076985Y0024555D01*
X0076931Y0024586D01*
X0076879Y0024620D01*
X0076830Y0024658D01*
X0076782Y0024699D01*
X0076738Y0024743D01*
X0076696Y0024789D01*
X0076658Y0024839D01*
X0076622Y0024890D01*
X0076590Y0024944D01*
X0076562Y0024999D01*
X0076536Y0025056D01*
X0076515Y0025115D01*
X0076498Y0025175D01*
X0076484Y0025236D01*
X0076474Y0025297D01*
X0076468Y0025360D01*
X0076466Y0025422D01*
X0076466Y0021485D02*
X0076468Y0021547D01*
X0076474Y0021610D01*
X0076484Y0021671D01*
X0076498Y0021732D01*
X0076515Y0021792D01*
X0076536Y0021851D01*
X0076562Y0021908D01*
X0076590Y0021963D01*
X0076622Y0022017D01*
X0076658Y0022068D01*
X0076696Y0022118D01*
X0076738Y0022164D01*
X0076782Y0022208D01*
X0076830Y0022249D01*
X0076879Y0022287D01*
X0076931Y0022321D01*
X0076985Y0022352D01*
X0077041Y0022380D01*
X0077099Y0022404D01*
X0077158Y0022425D01*
X0077218Y0022441D01*
X0077279Y0022454D01*
X0077341Y0022463D01*
X0077403Y0022468D01*
X0077466Y0022469D01*
X0077528Y0022466D01*
X0077590Y0022459D01*
X0077652Y0022448D01*
X0077712Y0022433D01*
X0077772Y0022415D01*
X0077830Y0022393D01*
X0077887Y0022367D01*
X0077942Y0022337D01*
X0077995Y0022304D01*
X0078046Y0022268D01*
X0078094Y0022229D01*
X0078140Y0022186D01*
X0078183Y0022141D01*
X0078223Y0022093D01*
X0078260Y0022043D01*
X0078294Y0021990D01*
X0078325Y0021936D01*
X0078351Y0021880D01*
X0078375Y0021822D01*
X0078394Y0021762D01*
X0078410Y0021702D01*
X0078422Y0021640D01*
X0078430Y0021579D01*
X0078434Y0021516D01*
X0078434Y0021454D01*
X0078430Y0021391D01*
X0078422Y0021330D01*
X0078410Y0021268D01*
X0078394Y0021208D01*
X0078375Y0021148D01*
X0078351Y0021090D01*
X0078325Y0021034D01*
X0078294Y0020980D01*
X0078260Y0020927D01*
X0078223Y0020877D01*
X0078183Y0020829D01*
X0078140Y0020784D01*
X0078094Y0020741D01*
X0078046Y0020702D01*
X0077995Y0020666D01*
X0077942Y0020633D01*
X0077887Y0020603D01*
X0077830Y0020577D01*
X0077772Y0020555D01*
X0077712Y0020537D01*
X0077652Y0020522D01*
X0077590Y0020511D01*
X0077528Y0020504D01*
X0077466Y0020501D01*
X0077403Y0020502D01*
X0077341Y0020507D01*
X0077279Y0020516D01*
X0077218Y0020529D01*
X0077158Y0020545D01*
X0077099Y0020566D01*
X0077041Y0020590D01*
X0076985Y0020618D01*
X0076931Y0020649D01*
X0076879Y0020683D01*
X0076830Y0020721D01*
X0076782Y0020762D01*
X0076738Y0020806D01*
X0076696Y0020852D01*
X0076658Y0020902D01*
X0076622Y0020953D01*
X0076590Y0021007D01*
X0076562Y0021062D01*
X0076536Y0021119D01*
X0076515Y0021178D01*
X0076498Y0021238D01*
X0076484Y0021299D01*
X0076474Y0021360D01*
X0076468Y0021423D01*
X0076466Y0021485D01*
X0076466Y0017548D02*
X0076468Y0017610D01*
X0076474Y0017673D01*
X0076484Y0017734D01*
X0076498Y0017795D01*
X0076515Y0017855D01*
X0076536Y0017914D01*
X0076562Y0017971D01*
X0076590Y0018026D01*
X0076622Y0018080D01*
X0076658Y0018131D01*
X0076696Y0018181D01*
X0076738Y0018227D01*
X0076782Y0018271D01*
X0076830Y0018312D01*
X0076879Y0018350D01*
X0076931Y0018384D01*
X0076985Y0018415D01*
X0077041Y0018443D01*
X0077099Y0018467D01*
X0077158Y0018488D01*
X0077218Y0018504D01*
X0077279Y0018517D01*
X0077341Y0018526D01*
X0077403Y0018531D01*
X0077466Y0018532D01*
X0077528Y0018529D01*
X0077590Y0018522D01*
X0077652Y0018511D01*
X0077712Y0018496D01*
X0077772Y0018478D01*
X0077830Y0018456D01*
X0077887Y0018430D01*
X0077942Y0018400D01*
X0077995Y0018367D01*
X0078046Y0018331D01*
X0078094Y0018292D01*
X0078140Y0018249D01*
X0078183Y0018204D01*
X0078223Y0018156D01*
X0078260Y0018106D01*
X0078294Y0018053D01*
X0078325Y0017999D01*
X0078351Y0017943D01*
X0078375Y0017885D01*
X0078394Y0017825D01*
X0078410Y0017765D01*
X0078422Y0017703D01*
X0078430Y0017642D01*
X0078434Y0017579D01*
X0078434Y0017517D01*
X0078430Y0017454D01*
X0078422Y0017393D01*
X0078410Y0017331D01*
X0078394Y0017271D01*
X0078375Y0017211D01*
X0078351Y0017153D01*
X0078325Y0017097D01*
X0078294Y0017043D01*
X0078260Y0016990D01*
X0078223Y0016940D01*
X0078183Y0016892D01*
X0078140Y0016847D01*
X0078094Y0016804D01*
X0078046Y0016765D01*
X0077995Y0016729D01*
X0077942Y0016696D01*
X0077887Y0016666D01*
X0077830Y0016640D01*
X0077772Y0016618D01*
X0077712Y0016600D01*
X0077652Y0016585D01*
X0077590Y0016574D01*
X0077528Y0016567D01*
X0077466Y0016564D01*
X0077403Y0016565D01*
X0077341Y0016570D01*
X0077279Y0016579D01*
X0077218Y0016592D01*
X0077158Y0016608D01*
X0077099Y0016629D01*
X0077041Y0016653D01*
X0076985Y0016681D01*
X0076931Y0016712D01*
X0076879Y0016746D01*
X0076830Y0016784D01*
X0076782Y0016825D01*
X0076738Y0016869D01*
X0076696Y0016915D01*
X0076658Y0016965D01*
X0076622Y0017016D01*
X0076590Y0017070D01*
X0076562Y0017125D01*
X0076536Y0017182D01*
X0076515Y0017241D01*
X0076498Y0017301D01*
X0076484Y0017362D01*
X0076474Y0017423D01*
X0076468Y0017486D01*
X0076466Y0017548D01*
X0080403Y0017548D02*
X0080405Y0017610D01*
X0080411Y0017673D01*
X0080421Y0017734D01*
X0080435Y0017795D01*
X0080452Y0017855D01*
X0080473Y0017914D01*
X0080499Y0017971D01*
X0080527Y0018026D01*
X0080559Y0018080D01*
X0080595Y0018131D01*
X0080633Y0018181D01*
X0080675Y0018227D01*
X0080719Y0018271D01*
X0080767Y0018312D01*
X0080816Y0018350D01*
X0080868Y0018384D01*
X0080922Y0018415D01*
X0080978Y0018443D01*
X0081036Y0018467D01*
X0081095Y0018488D01*
X0081155Y0018504D01*
X0081216Y0018517D01*
X0081278Y0018526D01*
X0081340Y0018531D01*
X0081403Y0018532D01*
X0081465Y0018529D01*
X0081527Y0018522D01*
X0081589Y0018511D01*
X0081649Y0018496D01*
X0081709Y0018478D01*
X0081767Y0018456D01*
X0081824Y0018430D01*
X0081879Y0018400D01*
X0081932Y0018367D01*
X0081983Y0018331D01*
X0082031Y0018292D01*
X0082077Y0018249D01*
X0082120Y0018204D01*
X0082160Y0018156D01*
X0082197Y0018106D01*
X0082231Y0018053D01*
X0082262Y0017999D01*
X0082288Y0017943D01*
X0082312Y0017885D01*
X0082331Y0017825D01*
X0082347Y0017765D01*
X0082359Y0017703D01*
X0082367Y0017642D01*
X0082371Y0017579D01*
X0082371Y0017517D01*
X0082367Y0017454D01*
X0082359Y0017393D01*
X0082347Y0017331D01*
X0082331Y0017271D01*
X0082312Y0017211D01*
X0082288Y0017153D01*
X0082262Y0017097D01*
X0082231Y0017043D01*
X0082197Y0016990D01*
X0082160Y0016940D01*
X0082120Y0016892D01*
X0082077Y0016847D01*
X0082031Y0016804D01*
X0081983Y0016765D01*
X0081932Y0016729D01*
X0081879Y0016696D01*
X0081824Y0016666D01*
X0081767Y0016640D01*
X0081709Y0016618D01*
X0081649Y0016600D01*
X0081589Y0016585D01*
X0081527Y0016574D01*
X0081465Y0016567D01*
X0081403Y0016564D01*
X0081340Y0016565D01*
X0081278Y0016570D01*
X0081216Y0016579D01*
X0081155Y0016592D01*
X0081095Y0016608D01*
X0081036Y0016629D01*
X0080978Y0016653D01*
X0080922Y0016681D01*
X0080868Y0016712D01*
X0080816Y0016746D01*
X0080767Y0016784D01*
X0080719Y0016825D01*
X0080675Y0016869D01*
X0080633Y0016915D01*
X0080595Y0016965D01*
X0080559Y0017016D01*
X0080527Y0017070D01*
X0080499Y0017125D01*
X0080473Y0017182D01*
X0080452Y0017241D01*
X0080435Y0017301D01*
X0080421Y0017362D01*
X0080411Y0017423D01*
X0080405Y0017486D01*
X0080403Y0017548D01*
X0080403Y0021485D02*
X0080405Y0021547D01*
X0080411Y0021610D01*
X0080421Y0021671D01*
X0080435Y0021732D01*
X0080452Y0021792D01*
X0080473Y0021851D01*
X0080499Y0021908D01*
X0080527Y0021963D01*
X0080559Y0022017D01*
X0080595Y0022068D01*
X0080633Y0022118D01*
X0080675Y0022164D01*
X0080719Y0022208D01*
X0080767Y0022249D01*
X0080816Y0022287D01*
X0080868Y0022321D01*
X0080922Y0022352D01*
X0080978Y0022380D01*
X0081036Y0022404D01*
X0081095Y0022425D01*
X0081155Y0022441D01*
X0081216Y0022454D01*
X0081278Y0022463D01*
X0081340Y0022468D01*
X0081403Y0022469D01*
X0081465Y0022466D01*
X0081527Y0022459D01*
X0081589Y0022448D01*
X0081649Y0022433D01*
X0081709Y0022415D01*
X0081767Y0022393D01*
X0081824Y0022367D01*
X0081879Y0022337D01*
X0081932Y0022304D01*
X0081983Y0022268D01*
X0082031Y0022229D01*
X0082077Y0022186D01*
X0082120Y0022141D01*
X0082160Y0022093D01*
X0082197Y0022043D01*
X0082231Y0021990D01*
X0082262Y0021936D01*
X0082288Y0021880D01*
X0082312Y0021822D01*
X0082331Y0021762D01*
X0082347Y0021702D01*
X0082359Y0021640D01*
X0082367Y0021579D01*
X0082371Y0021516D01*
X0082371Y0021454D01*
X0082367Y0021391D01*
X0082359Y0021330D01*
X0082347Y0021268D01*
X0082331Y0021208D01*
X0082312Y0021148D01*
X0082288Y0021090D01*
X0082262Y0021034D01*
X0082231Y0020980D01*
X0082197Y0020927D01*
X0082160Y0020877D01*
X0082120Y0020829D01*
X0082077Y0020784D01*
X0082031Y0020741D01*
X0081983Y0020702D01*
X0081932Y0020666D01*
X0081879Y0020633D01*
X0081824Y0020603D01*
X0081767Y0020577D01*
X0081709Y0020555D01*
X0081649Y0020537D01*
X0081589Y0020522D01*
X0081527Y0020511D01*
X0081465Y0020504D01*
X0081403Y0020501D01*
X0081340Y0020502D01*
X0081278Y0020507D01*
X0081216Y0020516D01*
X0081155Y0020529D01*
X0081095Y0020545D01*
X0081036Y0020566D01*
X0080978Y0020590D01*
X0080922Y0020618D01*
X0080868Y0020649D01*
X0080816Y0020683D01*
X0080767Y0020721D01*
X0080719Y0020762D01*
X0080675Y0020806D01*
X0080633Y0020852D01*
X0080595Y0020902D01*
X0080559Y0020953D01*
X0080527Y0021007D01*
X0080499Y0021062D01*
X0080473Y0021119D01*
X0080452Y0021178D01*
X0080435Y0021238D01*
X0080421Y0021299D01*
X0080411Y0021360D01*
X0080405Y0021423D01*
X0080403Y0021485D01*
X0080403Y0025422D02*
X0080405Y0025484D01*
X0080411Y0025547D01*
X0080421Y0025608D01*
X0080435Y0025669D01*
X0080452Y0025729D01*
X0080473Y0025788D01*
X0080499Y0025845D01*
X0080527Y0025900D01*
X0080559Y0025954D01*
X0080595Y0026005D01*
X0080633Y0026055D01*
X0080675Y0026101D01*
X0080719Y0026145D01*
X0080767Y0026186D01*
X0080816Y0026224D01*
X0080868Y0026258D01*
X0080922Y0026289D01*
X0080978Y0026317D01*
X0081036Y0026341D01*
X0081095Y0026362D01*
X0081155Y0026378D01*
X0081216Y0026391D01*
X0081278Y0026400D01*
X0081340Y0026405D01*
X0081403Y0026406D01*
X0081465Y0026403D01*
X0081527Y0026396D01*
X0081589Y0026385D01*
X0081649Y0026370D01*
X0081709Y0026352D01*
X0081767Y0026330D01*
X0081824Y0026304D01*
X0081879Y0026274D01*
X0081932Y0026241D01*
X0081983Y0026205D01*
X0082031Y0026166D01*
X0082077Y0026123D01*
X0082120Y0026078D01*
X0082160Y0026030D01*
X0082197Y0025980D01*
X0082231Y0025927D01*
X0082262Y0025873D01*
X0082288Y0025817D01*
X0082312Y0025759D01*
X0082331Y0025699D01*
X0082347Y0025639D01*
X0082359Y0025577D01*
X0082367Y0025516D01*
X0082371Y0025453D01*
X0082371Y0025391D01*
X0082367Y0025328D01*
X0082359Y0025267D01*
X0082347Y0025205D01*
X0082331Y0025145D01*
X0082312Y0025085D01*
X0082288Y0025027D01*
X0082262Y0024971D01*
X0082231Y0024917D01*
X0082197Y0024864D01*
X0082160Y0024814D01*
X0082120Y0024766D01*
X0082077Y0024721D01*
X0082031Y0024678D01*
X0081983Y0024639D01*
X0081932Y0024603D01*
X0081879Y0024570D01*
X0081824Y0024540D01*
X0081767Y0024514D01*
X0081709Y0024492D01*
X0081649Y0024474D01*
X0081589Y0024459D01*
X0081527Y0024448D01*
X0081465Y0024441D01*
X0081403Y0024438D01*
X0081340Y0024439D01*
X0081278Y0024444D01*
X0081216Y0024453D01*
X0081155Y0024466D01*
X0081095Y0024482D01*
X0081036Y0024503D01*
X0080978Y0024527D01*
X0080922Y0024555D01*
X0080868Y0024586D01*
X0080816Y0024620D01*
X0080767Y0024658D01*
X0080719Y0024699D01*
X0080675Y0024743D01*
X0080633Y0024789D01*
X0080595Y0024839D01*
X0080559Y0024890D01*
X0080527Y0024944D01*
X0080499Y0024999D01*
X0080473Y0025056D01*
X0080452Y0025115D01*
X0080435Y0025175D01*
X0080421Y0025236D01*
X0080411Y0025297D01*
X0080405Y0025360D01*
X0080403Y0025422D01*
X0084340Y0025422D02*
X0084342Y0025484D01*
X0084348Y0025547D01*
X0084358Y0025608D01*
X0084372Y0025669D01*
X0084389Y0025729D01*
X0084410Y0025788D01*
X0084436Y0025845D01*
X0084464Y0025900D01*
X0084496Y0025954D01*
X0084532Y0026005D01*
X0084570Y0026055D01*
X0084612Y0026101D01*
X0084656Y0026145D01*
X0084704Y0026186D01*
X0084753Y0026224D01*
X0084805Y0026258D01*
X0084859Y0026289D01*
X0084915Y0026317D01*
X0084973Y0026341D01*
X0085032Y0026362D01*
X0085092Y0026378D01*
X0085153Y0026391D01*
X0085215Y0026400D01*
X0085277Y0026405D01*
X0085340Y0026406D01*
X0085402Y0026403D01*
X0085464Y0026396D01*
X0085526Y0026385D01*
X0085586Y0026370D01*
X0085646Y0026352D01*
X0085704Y0026330D01*
X0085761Y0026304D01*
X0085816Y0026274D01*
X0085869Y0026241D01*
X0085920Y0026205D01*
X0085968Y0026166D01*
X0086014Y0026123D01*
X0086057Y0026078D01*
X0086097Y0026030D01*
X0086134Y0025980D01*
X0086168Y0025927D01*
X0086199Y0025873D01*
X0086225Y0025817D01*
X0086249Y0025759D01*
X0086268Y0025699D01*
X0086284Y0025639D01*
X0086296Y0025577D01*
X0086304Y0025516D01*
X0086308Y0025453D01*
X0086308Y0025391D01*
X0086304Y0025328D01*
X0086296Y0025267D01*
X0086284Y0025205D01*
X0086268Y0025145D01*
X0086249Y0025085D01*
X0086225Y0025027D01*
X0086199Y0024971D01*
X0086168Y0024917D01*
X0086134Y0024864D01*
X0086097Y0024814D01*
X0086057Y0024766D01*
X0086014Y0024721D01*
X0085968Y0024678D01*
X0085920Y0024639D01*
X0085869Y0024603D01*
X0085816Y0024570D01*
X0085761Y0024540D01*
X0085704Y0024514D01*
X0085646Y0024492D01*
X0085586Y0024474D01*
X0085526Y0024459D01*
X0085464Y0024448D01*
X0085402Y0024441D01*
X0085340Y0024438D01*
X0085277Y0024439D01*
X0085215Y0024444D01*
X0085153Y0024453D01*
X0085092Y0024466D01*
X0085032Y0024482D01*
X0084973Y0024503D01*
X0084915Y0024527D01*
X0084859Y0024555D01*
X0084805Y0024586D01*
X0084753Y0024620D01*
X0084704Y0024658D01*
X0084656Y0024699D01*
X0084612Y0024743D01*
X0084570Y0024789D01*
X0084532Y0024839D01*
X0084496Y0024890D01*
X0084464Y0024944D01*
X0084436Y0024999D01*
X0084410Y0025056D01*
X0084389Y0025115D01*
X0084372Y0025175D01*
X0084358Y0025236D01*
X0084348Y0025297D01*
X0084342Y0025360D01*
X0084340Y0025422D01*
X0084340Y0021485D02*
X0084342Y0021547D01*
X0084348Y0021610D01*
X0084358Y0021671D01*
X0084372Y0021732D01*
X0084389Y0021792D01*
X0084410Y0021851D01*
X0084436Y0021908D01*
X0084464Y0021963D01*
X0084496Y0022017D01*
X0084532Y0022068D01*
X0084570Y0022118D01*
X0084612Y0022164D01*
X0084656Y0022208D01*
X0084704Y0022249D01*
X0084753Y0022287D01*
X0084805Y0022321D01*
X0084859Y0022352D01*
X0084915Y0022380D01*
X0084973Y0022404D01*
X0085032Y0022425D01*
X0085092Y0022441D01*
X0085153Y0022454D01*
X0085215Y0022463D01*
X0085277Y0022468D01*
X0085340Y0022469D01*
X0085402Y0022466D01*
X0085464Y0022459D01*
X0085526Y0022448D01*
X0085586Y0022433D01*
X0085646Y0022415D01*
X0085704Y0022393D01*
X0085761Y0022367D01*
X0085816Y0022337D01*
X0085869Y0022304D01*
X0085920Y0022268D01*
X0085968Y0022229D01*
X0086014Y0022186D01*
X0086057Y0022141D01*
X0086097Y0022093D01*
X0086134Y0022043D01*
X0086168Y0021990D01*
X0086199Y0021936D01*
X0086225Y0021880D01*
X0086249Y0021822D01*
X0086268Y0021762D01*
X0086284Y0021702D01*
X0086296Y0021640D01*
X0086304Y0021579D01*
X0086308Y0021516D01*
X0086308Y0021454D01*
X0086304Y0021391D01*
X0086296Y0021330D01*
X0086284Y0021268D01*
X0086268Y0021208D01*
X0086249Y0021148D01*
X0086225Y0021090D01*
X0086199Y0021034D01*
X0086168Y0020980D01*
X0086134Y0020927D01*
X0086097Y0020877D01*
X0086057Y0020829D01*
X0086014Y0020784D01*
X0085968Y0020741D01*
X0085920Y0020702D01*
X0085869Y0020666D01*
X0085816Y0020633D01*
X0085761Y0020603D01*
X0085704Y0020577D01*
X0085646Y0020555D01*
X0085586Y0020537D01*
X0085526Y0020522D01*
X0085464Y0020511D01*
X0085402Y0020504D01*
X0085340Y0020501D01*
X0085277Y0020502D01*
X0085215Y0020507D01*
X0085153Y0020516D01*
X0085092Y0020529D01*
X0085032Y0020545D01*
X0084973Y0020566D01*
X0084915Y0020590D01*
X0084859Y0020618D01*
X0084805Y0020649D01*
X0084753Y0020683D01*
X0084704Y0020721D01*
X0084656Y0020762D01*
X0084612Y0020806D01*
X0084570Y0020852D01*
X0084532Y0020902D01*
X0084496Y0020953D01*
X0084464Y0021007D01*
X0084436Y0021062D01*
X0084410Y0021119D01*
X0084389Y0021178D01*
X0084372Y0021238D01*
X0084358Y0021299D01*
X0084348Y0021360D01*
X0084342Y0021423D01*
X0084340Y0021485D01*
X0084340Y0017548D02*
X0084342Y0017610D01*
X0084348Y0017673D01*
X0084358Y0017734D01*
X0084372Y0017795D01*
X0084389Y0017855D01*
X0084410Y0017914D01*
X0084436Y0017971D01*
X0084464Y0018026D01*
X0084496Y0018080D01*
X0084532Y0018131D01*
X0084570Y0018181D01*
X0084612Y0018227D01*
X0084656Y0018271D01*
X0084704Y0018312D01*
X0084753Y0018350D01*
X0084805Y0018384D01*
X0084859Y0018415D01*
X0084915Y0018443D01*
X0084973Y0018467D01*
X0085032Y0018488D01*
X0085092Y0018504D01*
X0085153Y0018517D01*
X0085215Y0018526D01*
X0085277Y0018531D01*
X0085340Y0018532D01*
X0085402Y0018529D01*
X0085464Y0018522D01*
X0085526Y0018511D01*
X0085586Y0018496D01*
X0085646Y0018478D01*
X0085704Y0018456D01*
X0085761Y0018430D01*
X0085816Y0018400D01*
X0085869Y0018367D01*
X0085920Y0018331D01*
X0085968Y0018292D01*
X0086014Y0018249D01*
X0086057Y0018204D01*
X0086097Y0018156D01*
X0086134Y0018106D01*
X0086168Y0018053D01*
X0086199Y0017999D01*
X0086225Y0017943D01*
X0086249Y0017885D01*
X0086268Y0017825D01*
X0086284Y0017765D01*
X0086296Y0017703D01*
X0086304Y0017642D01*
X0086308Y0017579D01*
X0086308Y0017517D01*
X0086304Y0017454D01*
X0086296Y0017393D01*
X0086284Y0017331D01*
X0086268Y0017271D01*
X0086249Y0017211D01*
X0086225Y0017153D01*
X0086199Y0017097D01*
X0086168Y0017043D01*
X0086134Y0016990D01*
X0086097Y0016940D01*
X0086057Y0016892D01*
X0086014Y0016847D01*
X0085968Y0016804D01*
X0085920Y0016765D01*
X0085869Y0016729D01*
X0085816Y0016696D01*
X0085761Y0016666D01*
X0085704Y0016640D01*
X0085646Y0016618D01*
X0085586Y0016600D01*
X0085526Y0016585D01*
X0085464Y0016574D01*
X0085402Y0016567D01*
X0085340Y0016564D01*
X0085277Y0016565D01*
X0085215Y0016570D01*
X0085153Y0016579D01*
X0085092Y0016592D01*
X0085032Y0016608D01*
X0084973Y0016629D01*
X0084915Y0016653D01*
X0084859Y0016681D01*
X0084805Y0016712D01*
X0084753Y0016746D01*
X0084704Y0016784D01*
X0084656Y0016825D01*
X0084612Y0016869D01*
X0084570Y0016915D01*
X0084532Y0016965D01*
X0084496Y0017016D01*
X0084464Y0017070D01*
X0084436Y0017125D01*
X0084410Y0017182D01*
X0084389Y0017241D01*
X0084372Y0017301D01*
X0084358Y0017362D01*
X0084348Y0017423D01*
X0084342Y0017486D01*
X0084340Y0017548D01*
X0399301Y0017548D02*
X0399303Y0017610D01*
X0399309Y0017673D01*
X0399319Y0017734D01*
X0399333Y0017795D01*
X0399350Y0017855D01*
X0399371Y0017914D01*
X0399397Y0017971D01*
X0399425Y0018026D01*
X0399457Y0018080D01*
X0399493Y0018131D01*
X0399531Y0018181D01*
X0399573Y0018227D01*
X0399617Y0018271D01*
X0399665Y0018312D01*
X0399714Y0018350D01*
X0399766Y0018384D01*
X0399820Y0018415D01*
X0399876Y0018443D01*
X0399934Y0018467D01*
X0399993Y0018488D01*
X0400053Y0018504D01*
X0400114Y0018517D01*
X0400176Y0018526D01*
X0400238Y0018531D01*
X0400301Y0018532D01*
X0400363Y0018529D01*
X0400425Y0018522D01*
X0400487Y0018511D01*
X0400547Y0018496D01*
X0400607Y0018478D01*
X0400665Y0018456D01*
X0400722Y0018430D01*
X0400777Y0018400D01*
X0400830Y0018367D01*
X0400881Y0018331D01*
X0400929Y0018292D01*
X0400975Y0018249D01*
X0401018Y0018204D01*
X0401058Y0018156D01*
X0401095Y0018106D01*
X0401129Y0018053D01*
X0401160Y0017999D01*
X0401186Y0017943D01*
X0401210Y0017885D01*
X0401229Y0017825D01*
X0401245Y0017765D01*
X0401257Y0017703D01*
X0401265Y0017642D01*
X0401269Y0017579D01*
X0401269Y0017517D01*
X0401265Y0017454D01*
X0401257Y0017393D01*
X0401245Y0017331D01*
X0401229Y0017271D01*
X0401210Y0017211D01*
X0401186Y0017153D01*
X0401160Y0017097D01*
X0401129Y0017043D01*
X0401095Y0016990D01*
X0401058Y0016940D01*
X0401018Y0016892D01*
X0400975Y0016847D01*
X0400929Y0016804D01*
X0400881Y0016765D01*
X0400830Y0016729D01*
X0400777Y0016696D01*
X0400722Y0016666D01*
X0400665Y0016640D01*
X0400607Y0016618D01*
X0400547Y0016600D01*
X0400487Y0016585D01*
X0400425Y0016574D01*
X0400363Y0016567D01*
X0400301Y0016564D01*
X0400238Y0016565D01*
X0400176Y0016570D01*
X0400114Y0016579D01*
X0400053Y0016592D01*
X0399993Y0016608D01*
X0399934Y0016629D01*
X0399876Y0016653D01*
X0399820Y0016681D01*
X0399766Y0016712D01*
X0399714Y0016746D01*
X0399665Y0016784D01*
X0399617Y0016825D01*
X0399573Y0016869D01*
X0399531Y0016915D01*
X0399493Y0016965D01*
X0399457Y0017016D01*
X0399425Y0017070D01*
X0399397Y0017125D01*
X0399371Y0017182D01*
X0399350Y0017241D01*
X0399333Y0017301D01*
X0399319Y0017362D01*
X0399309Y0017423D01*
X0399303Y0017486D01*
X0399301Y0017548D01*
X0399301Y0021485D02*
X0399303Y0021547D01*
X0399309Y0021610D01*
X0399319Y0021671D01*
X0399333Y0021732D01*
X0399350Y0021792D01*
X0399371Y0021851D01*
X0399397Y0021908D01*
X0399425Y0021963D01*
X0399457Y0022017D01*
X0399493Y0022068D01*
X0399531Y0022118D01*
X0399573Y0022164D01*
X0399617Y0022208D01*
X0399665Y0022249D01*
X0399714Y0022287D01*
X0399766Y0022321D01*
X0399820Y0022352D01*
X0399876Y0022380D01*
X0399934Y0022404D01*
X0399993Y0022425D01*
X0400053Y0022441D01*
X0400114Y0022454D01*
X0400176Y0022463D01*
X0400238Y0022468D01*
X0400301Y0022469D01*
X0400363Y0022466D01*
X0400425Y0022459D01*
X0400487Y0022448D01*
X0400547Y0022433D01*
X0400607Y0022415D01*
X0400665Y0022393D01*
X0400722Y0022367D01*
X0400777Y0022337D01*
X0400830Y0022304D01*
X0400881Y0022268D01*
X0400929Y0022229D01*
X0400975Y0022186D01*
X0401018Y0022141D01*
X0401058Y0022093D01*
X0401095Y0022043D01*
X0401129Y0021990D01*
X0401160Y0021936D01*
X0401186Y0021880D01*
X0401210Y0021822D01*
X0401229Y0021762D01*
X0401245Y0021702D01*
X0401257Y0021640D01*
X0401265Y0021579D01*
X0401269Y0021516D01*
X0401269Y0021454D01*
X0401265Y0021391D01*
X0401257Y0021330D01*
X0401245Y0021268D01*
X0401229Y0021208D01*
X0401210Y0021148D01*
X0401186Y0021090D01*
X0401160Y0021034D01*
X0401129Y0020980D01*
X0401095Y0020927D01*
X0401058Y0020877D01*
X0401018Y0020829D01*
X0400975Y0020784D01*
X0400929Y0020741D01*
X0400881Y0020702D01*
X0400830Y0020666D01*
X0400777Y0020633D01*
X0400722Y0020603D01*
X0400665Y0020577D01*
X0400607Y0020555D01*
X0400547Y0020537D01*
X0400487Y0020522D01*
X0400425Y0020511D01*
X0400363Y0020504D01*
X0400301Y0020501D01*
X0400238Y0020502D01*
X0400176Y0020507D01*
X0400114Y0020516D01*
X0400053Y0020529D01*
X0399993Y0020545D01*
X0399934Y0020566D01*
X0399876Y0020590D01*
X0399820Y0020618D01*
X0399766Y0020649D01*
X0399714Y0020683D01*
X0399665Y0020721D01*
X0399617Y0020762D01*
X0399573Y0020806D01*
X0399531Y0020852D01*
X0399493Y0020902D01*
X0399457Y0020953D01*
X0399425Y0021007D01*
X0399397Y0021062D01*
X0399371Y0021119D01*
X0399350Y0021178D01*
X0399333Y0021238D01*
X0399319Y0021299D01*
X0399309Y0021360D01*
X0399303Y0021423D01*
X0399301Y0021485D01*
X0399301Y0025422D02*
X0399303Y0025484D01*
X0399309Y0025547D01*
X0399319Y0025608D01*
X0399333Y0025669D01*
X0399350Y0025729D01*
X0399371Y0025788D01*
X0399397Y0025845D01*
X0399425Y0025900D01*
X0399457Y0025954D01*
X0399493Y0026005D01*
X0399531Y0026055D01*
X0399573Y0026101D01*
X0399617Y0026145D01*
X0399665Y0026186D01*
X0399714Y0026224D01*
X0399766Y0026258D01*
X0399820Y0026289D01*
X0399876Y0026317D01*
X0399934Y0026341D01*
X0399993Y0026362D01*
X0400053Y0026378D01*
X0400114Y0026391D01*
X0400176Y0026400D01*
X0400238Y0026405D01*
X0400301Y0026406D01*
X0400363Y0026403D01*
X0400425Y0026396D01*
X0400487Y0026385D01*
X0400547Y0026370D01*
X0400607Y0026352D01*
X0400665Y0026330D01*
X0400722Y0026304D01*
X0400777Y0026274D01*
X0400830Y0026241D01*
X0400881Y0026205D01*
X0400929Y0026166D01*
X0400975Y0026123D01*
X0401018Y0026078D01*
X0401058Y0026030D01*
X0401095Y0025980D01*
X0401129Y0025927D01*
X0401160Y0025873D01*
X0401186Y0025817D01*
X0401210Y0025759D01*
X0401229Y0025699D01*
X0401245Y0025639D01*
X0401257Y0025577D01*
X0401265Y0025516D01*
X0401269Y0025453D01*
X0401269Y0025391D01*
X0401265Y0025328D01*
X0401257Y0025267D01*
X0401245Y0025205D01*
X0401229Y0025145D01*
X0401210Y0025085D01*
X0401186Y0025027D01*
X0401160Y0024971D01*
X0401129Y0024917D01*
X0401095Y0024864D01*
X0401058Y0024814D01*
X0401018Y0024766D01*
X0400975Y0024721D01*
X0400929Y0024678D01*
X0400881Y0024639D01*
X0400830Y0024603D01*
X0400777Y0024570D01*
X0400722Y0024540D01*
X0400665Y0024514D01*
X0400607Y0024492D01*
X0400547Y0024474D01*
X0400487Y0024459D01*
X0400425Y0024448D01*
X0400363Y0024441D01*
X0400301Y0024438D01*
X0400238Y0024439D01*
X0400176Y0024444D01*
X0400114Y0024453D01*
X0400053Y0024466D01*
X0399993Y0024482D01*
X0399934Y0024503D01*
X0399876Y0024527D01*
X0399820Y0024555D01*
X0399766Y0024586D01*
X0399714Y0024620D01*
X0399665Y0024658D01*
X0399617Y0024699D01*
X0399573Y0024743D01*
X0399531Y0024789D01*
X0399493Y0024839D01*
X0399457Y0024890D01*
X0399425Y0024944D01*
X0399397Y0024999D01*
X0399371Y0025056D01*
X0399350Y0025115D01*
X0399333Y0025175D01*
X0399319Y0025236D01*
X0399309Y0025297D01*
X0399303Y0025360D01*
X0399301Y0025422D01*
X0403238Y0025422D02*
X0403240Y0025484D01*
X0403246Y0025547D01*
X0403256Y0025608D01*
X0403270Y0025669D01*
X0403287Y0025729D01*
X0403308Y0025788D01*
X0403334Y0025845D01*
X0403362Y0025900D01*
X0403394Y0025954D01*
X0403430Y0026005D01*
X0403468Y0026055D01*
X0403510Y0026101D01*
X0403554Y0026145D01*
X0403602Y0026186D01*
X0403651Y0026224D01*
X0403703Y0026258D01*
X0403757Y0026289D01*
X0403813Y0026317D01*
X0403871Y0026341D01*
X0403930Y0026362D01*
X0403990Y0026378D01*
X0404051Y0026391D01*
X0404113Y0026400D01*
X0404175Y0026405D01*
X0404238Y0026406D01*
X0404300Y0026403D01*
X0404362Y0026396D01*
X0404424Y0026385D01*
X0404484Y0026370D01*
X0404544Y0026352D01*
X0404602Y0026330D01*
X0404659Y0026304D01*
X0404714Y0026274D01*
X0404767Y0026241D01*
X0404818Y0026205D01*
X0404866Y0026166D01*
X0404912Y0026123D01*
X0404955Y0026078D01*
X0404995Y0026030D01*
X0405032Y0025980D01*
X0405066Y0025927D01*
X0405097Y0025873D01*
X0405123Y0025817D01*
X0405147Y0025759D01*
X0405166Y0025699D01*
X0405182Y0025639D01*
X0405194Y0025577D01*
X0405202Y0025516D01*
X0405206Y0025453D01*
X0405206Y0025391D01*
X0405202Y0025328D01*
X0405194Y0025267D01*
X0405182Y0025205D01*
X0405166Y0025145D01*
X0405147Y0025085D01*
X0405123Y0025027D01*
X0405097Y0024971D01*
X0405066Y0024917D01*
X0405032Y0024864D01*
X0404995Y0024814D01*
X0404955Y0024766D01*
X0404912Y0024721D01*
X0404866Y0024678D01*
X0404818Y0024639D01*
X0404767Y0024603D01*
X0404714Y0024570D01*
X0404659Y0024540D01*
X0404602Y0024514D01*
X0404544Y0024492D01*
X0404484Y0024474D01*
X0404424Y0024459D01*
X0404362Y0024448D01*
X0404300Y0024441D01*
X0404238Y0024438D01*
X0404175Y0024439D01*
X0404113Y0024444D01*
X0404051Y0024453D01*
X0403990Y0024466D01*
X0403930Y0024482D01*
X0403871Y0024503D01*
X0403813Y0024527D01*
X0403757Y0024555D01*
X0403703Y0024586D01*
X0403651Y0024620D01*
X0403602Y0024658D01*
X0403554Y0024699D01*
X0403510Y0024743D01*
X0403468Y0024789D01*
X0403430Y0024839D01*
X0403394Y0024890D01*
X0403362Y0024944D01*
X0403334Y0024999D01*
X0403308Y0025056D01*
X0403287Y0025115D01*
X0403270Y0025175D01*
X0403256Y0025236D01*
X0403246Y0025297D01*
X0403240Y0025360D01*
X0403238Y0025422D01*
X0403238Y0021485D02*
X0403240Y0021547D01*
X0403246Y0021610D01*
X0403256Y0021671D01*
X0403270Y0021732D01*
X0403287Y0021792D01*
X0403308Y0021851D01*
X0403334Y0021908D01*
X0403362Y0021963D01*
X0403394Y0022017D01*
X0403430Y0022068D01*
X0403468Y0022118D01*
X0403510Y0022164D01*
X0403554Y0022208D01*
X0403602Y0022249D01*
X0403651Y0022287D01*
X0403703Y0022321D01*
X0403757Y0022352D01*
X0403813Y0022380D01*
X0403871Y0022404D01*
X0403930Y0022425D01*
X0403990Y0022441D01*
X0404051Y0022454D01*
X0404113Y0022463D01*
X0404175Y0022468D01*
X0404238Y0022469D01*
X0404300Y0022466D01*
X0404362Y0022459D01*
X0404424Y0022448D01*
X0404484Y0022433D01*
X0404544Y0022415D01*
X0404602Y0022393D01*
X0404659Y0022367D01*
X0404714Y0022337D01*
X0404767Y0022304D01*
X0404818Y0022268D01*
X0404866Y0022229D01*
X0404912Y0022186D01*
X0404955Y0022141D01*
X0404995Y0022093D01*
X0405032Y0022043D01*
X0405066Y0021990D01*
X0405097Y0021936D01*
X0405123Y0021880D01*
X0405147Y0021822D01*
X0405166Y0021762D01*
X0405182Y0021702D01*
X0405194Y0021640D01*
X0405202Y0021579D01*
X0405206Y0021516D01*
X0405206Y0021454D01*
X0405202Y0021391D01*
X0405194Y0021330D01*
X0405182Y0021268D01*
X0405166Y0021208D01*
X0405147Y0021148D01*
X0405123Y0021090D01*
X0405097Y0021034D01*
X0405066Y0020980D01*
X0405032Y0020927D01*
X0404995Y0020877D01*
X0404955Y0020829D01*
X0404912Y0020784D01*
X0404866Y0020741D01*
X0404818Y0020702D01*
X0404767Y0020666D01*
X0404714Y0020633D01*
X0404659Y0020603D01*
X0404602Y0020577D01*
X0404544Y0020555D01*
X0404484Y0020537D01*
X0404424Y0020522D01*
X0404362Y0020511D01*
X0404300Y0020504D01*
X0404238Y0020501D01*
X0404175Y0020502D01*
X0404113Y0020507D01*
X0404051Y0020516D01*
X0403990Y0020529D01*
X0403930Y0020545D01*
X0403871Y0020566D01*
X0403813Y0020590D01*
X0403757Y0020618D01*
X0403703Y0020649D01*
X0403651Y0020683D01*
X0403602Y0020721D01*
X0403554Y0020762D01*
X0403510Y0020806D01*
X0403468Y0020852D01*
X0403430Y0020902D01*
X0403394Y0020953D01*
X0403362Y0021007D01*
X0403334Y0021062D01*
X0403308Y0021119D01*
X0403287Y0021178D01*
X0403270Y0021238D01*
X0403256Y0021299D01*
X0403246Y0021360D01*
X0403240Y0021423D01*
X0403238Y0021485D01*
X0403238Y0017548D02*
X0403240Y0017610D01*
X0403246Y0017673D01*
X0403256Y0017734D01*
X0403270Y0017795D01*
X0403287Y0017855D01*
X0403308Y0017914D01*
X0403334Y0017971D01*
X0403362Y0018026D01*
X0403394Y0018080D01*
X0403430Y0018131D01*
X0403468Y0018181D01*
X0403510Y0018227D01*
X0403554Y0018271D01*
X0403602Y0018312D01*
X0403651Y0018350D01*
X0403703Y0018384D01*
X0403757Y0018415D01*
X0403813Y0018443D01*
X0403871Y0018467D01*
X0403930Y0018488D01*
X0403990Y0018504D01*
X0404051Y0018517D01*
X0404113Y0018526D01*
X0404175Y0018531D01*
X0404238Y0018532D01*
X0404300Y0018529D01*
X0404362Y0018522D01*
X0404424Y0018511D01*
X0404484Y0018496D01*
X0404544Y0018478D01*
X0404602Y0018456D01*
X0404659Y0018430D01*
X0404714Y0018400D01*
X0404767Y0018367D01*
X0404818Y0018331D01*
X0404866Y0018292D01*
X0404912Y0018249D01*
X0404955Y0018204D01*
X0404995Y0018156D01*
X0405032Y0018106D01*
X0405066Y0018053D01*
X0405097Y0017999D01*
X0405123Y0017943D01*
X0405147Y0017885D01*
X0405166Y0017825D01*
X0405182Y0017765D01*
X0405194Y0017703D01*
X0405202Y0017642D01*
X0405206Y0017579D01*
X0405206Y0017517D01*
X0405202Y0017454D01*
X0405194Y0017393D01*
X0405182Y0017331D01*
X0405166Y0017271D01*
X0405147Y0017211D01*
X0405123Y0017153D01*
X0405097Y0017097D01*
X0405066Y0017043D01*
X0405032Y0016990D01*
X0404995Y0016940D01*
X0404955Y0016892D01*
X0404912Y0016847D01*
X0404866Y0016804D01*
X0404818Y0016765D01*
X0404767Y0016729D01*
X0404714Y0016696D01*
X0404659Y0016666D01*
X0404602Y0016640D01*
X0404544Y0016618D01*
X0404484Y0016600D01*
X0404424Y0016585D01*
X0404362Y0016574D01*
X0404300Y0016567D01*
X0404238Y0016564D01*
X0404175Y0016565D01*
X0404113Y0016570D01*
X0404051Y0016579D01*
X0403990Y0016592D01*
X0403930Y0016608D01*
X0403871Y0016629D01*
X0403813Y0016653D01*
X0403757Y0016681D01*
X0403703Y0016712D01*
X0403651Y0016746D01*
X0403602Y0016784D01*
X0403554Y0016825D01*
X0403510Y0016869D01*
X0403468Y0016915D01*
X0403430Y0016965D01*
X0403394Y0017016D01*
X0403362Y0017070D01*
X0403334Y0017125D01*
X0403308Y0017182D01*
X0403287Y0017241D01*
X0403270Y0017301D01*
X0403256Y0017362D01*
X0403246Y0017423D01*
X0403240Y0017486D01*
X0403238Y0017548D01*
X0407175Y0017548D02*
X0407177Y0017610D01*
X0407183Y0017673D01*
X0407193Y0017734D01*
X0407207Y0017795D01*
X0407224Y0017855D01*
X0407245Y0017914D01*
X0407271Y0017971D01*
X0407299Y0018026D01*
X0407331Y0018080D01*
X0407367Y0018131D01*
X0407405Y0018181D01*
X0407447Y0018227D01*
X0407491Y0018271D01*
X0407539Y0018312D01*
X0407588Y0018350D01*
X0407640Y0018384D01*
X0407694Y0018415D01*
X0407750Y0018443D01*
X0407808Y0018467D01*
X0407867Y0018488D01*
X0407927Y0018504D01*
X0407988Y0018517D01*
X0408050Y0018526D01*
X0408112Y0018531D01*
X0408175Y0018532D01*
X0408237Y0018529D01*
X0408299Y0018522D01*
X0408361Y0018511D01*
X0408421Y0018496D01*
X0408481Y0018478D01*
X0408539Y0018456D01*
X0408596Y0018430D01*
X0408651Y0018400D01*
X0408704Y0018367D01*
X0408755Y0018331D01*
X0408803Y0018292D01*
X0408849Y0018249D01*
X0408892Y0018204D01*
X0408932Y0018156D01*
X0408969Y0018106D01*
X0409003Y0018053D01*
X0409034Y0017999D01*
X0409060Y0017943D01*
X0409084Y0017885D01*
X0409103Y0017825D01*
X0409119Y0017765D01*
X0409131Y0017703D01*
X0409139Y0017642D01*
X0409143Y0017579D01*
X0409143Y0017517D01*
X0409139Y0017454D01*
X0409131Y0017393D01*
X0409119Y0017331D01*
X0409103Y0017271D01*
X0409084Y0017211D01*
X0409060Y0017153D01*
X0409034Y0017097D01*
X0409003Y0017043D01*
X0408969Y0016990D01*
X0408932Y0016940D01*
X0408892Y0016892D01*
X0408849Y0016847D01*
X0408803Y0016804D01*
X0408755Y0016765D01*
X0408704Y0016729D01*
X0408651Y0016696D01*
X0408596Y0016666D01*
X0408539Y0016640D01*
X0408481Y0016618D01*
X0408421Y0016600D01*
X0408361Y0016585D01*
X0408299Y0016574D01*
X0408237Y0016567D01*
X0408175Y0016564D01*
X0408112Y0016565D01*
X0408050Y0016570D01*
X0407988Y0016579D01*
X0407927Y0016592D01*
X0407867Y0016608D01*
X0407808Y0016629D01*
X0407750Y0016653D01*
X0407694Y0016681D01*
X0407640Y0016712D01*
X0407588Y0016746D01*
X0407539Y0016784D01*
X0407491Y0016825D01*
X0407447Y0016869D01*
X0407405Y0016915D01*
X0407367Y0016965D01*
X0407331Y0017016D01*
X0407299Y0017070D01*
X0407271Y0017125D01*
X0407245Y0017182D01*
X0407224Y0017241D01*
X0407207Y0017301D01*
X0407193Y0017362D01*
X0407183Y0017423D01*
X0407177Y0017486D01*
X0407175Y0017548D01*
X0407175Y0021485D02*
X0407177Y0021547D01*
X0407183Y0021610D01*
X0407193Y0021671D01*
X0407207Y0021732D01*
X0407224Y0021792D01*
X0407245Y0021851D01*
X0407271Y0021908D01*
X0407299Y0021963D01*
X0407331Y0022017D01*
X0407367Y0022068D01*
X0407405Y0022118D01*
X0407447Y0022164D01*
X0407491Y0022208D01*
X0407539Y0022249D01*
X0407588Y0022287D01*
X0407640Y0022321D01*
X0407694Y0022352D01*
X0407750Y0022380D01*
X0407808Y0022404D01*
X0407867Y0022425D01*
X0407927Y0022441D01*
X0407988Y0022454D01*
X0408050Y0022463D01*
X0408112Y0022468D01*
X0408175Y0022469D01*
X0408237Y0022466D01*
X0408299Y0022459D01*
X0408361Y0022448D01*
X0408421Y0022433D01*
X0408481Y0022415D01*
X0408539Y0022393D01*
X0408596Y0022367D01*
X0408651Y0022337D01*
X0408704Y0022304D01*
X0408755Y0022268D01*
X0408803Y0022229D01*
X0408849Y0022186D01*
X0408892Y0022141D01*
X0408932Y0022093D01*
X0408969Y0022043D01*
X0409003Y0021990D01*
X0409034Y0021936D01*
X0409060Y0021880D01*
X0409084Y0021822D01*
X0409103Y0021762D01*
X0409119Y0021702D01*
X0409131Y0021640D01*
X0409139Y0021579D01*
X0409143Y0021516D01*
X0409143Y0021454D01*
X0409139Y0021391D01*
X0409131Y0021330D01*
X0409119Y0021268D01*
X0409103Y0021208D01*
X0409084Y0021148D01*
X0409060Y0021090D01*
X0409034Y0021034D01*
X0409003Y0020980D01*
X0408969Y0020927D01*
X0408932Y0020877D01*
X0408892Y0020829D01*
X0408849Y0020784D01*
X0408803Y0020741D01*
X0408755Y0020702D01*
X0408704Y0020666D01*
X0408651Y0020633D01*
X0408596Y0020603D01*
X0408539Y0020577D01*
X0408481Y0020555D01*
X0408421Y0020537D01*
X0408361Y0020522D01*
X0408299Y0020511D01*
X0408237Y0020504D01*
X0408175Y0020501D01*
X0408112Y0020502D01*
X0408050Y0020507D01*
X0407988Y0020516D01*
X0407927Y0020529D01*
X0407867Y0020545D01*
X0407808Y0020566D01*
X0407750Y0020590D01*
X0407694Y0020618D01*
X0407640Y0020649D01*
X0407588Y0020683D01*
X0407539Y0020721D01*
X0407491Y0020762D01*
X0407447Y0020806D01*
X0407405Y0020852D01*
X0407367Y0020902D01*
X0407331Y0020953D01*
X0407299Y0021007D01*
X0407271Y0021062D01*
X0407245Y0021119D01*
X0407224Y0021178D01*
X0407207Y0021238D01*
X0407193Y0021299D01*
X0407183Y0021360D01*
X0407177Y0021423D01*
X0407175Y0021485D01*
X0407175Y0025422D02*
X0407177Y0025484D01*
X0407183Y0025547D01*
X0407193Y0025608D01*
X0407207Y0025669D01*
X0407224Y0025729D01*
X0407245Y0025788D01*
X0407271Y0025845D01*
X0407299Y0025900D01*
X0407331Y0025954D01*
X0407367Y0026005D01*
X0407405Y0026055D01*
X0407447Y0026101D01*
X0407491Y0026145D01*
X0407539Y0026186D01*
X0407588Y0026224D01*
X0407640Y0026258D01*
X0407694Y0026289D01*
X0407750Y0026317D01*
X0407808Y0026341D01*
X0407867Y0026362D01*
X0407927Y0026378D01*
X0407988Y0026391D01*
X0408050Y0026400D01*
X0408112Y0026405D01*
X0408175Y0026406D01*
X0408237Y0026403D01*
X0408299Y0026396D01*
X0408361Y0026385D01*
X0408421Y0026370D01*
X0408481Y0026352D01*
X0408539Y0026330D01*
X0408596Y0026304D01*
X0408651Y0026274D01*
X0408704Y0026241D01*
X0408755Y0026205D01*
X0408803Y0026166D01*
X0408849Y0026123D01*
X0408892Y0026078D01*
X0408932Y0026030D01*
X0408969Y0025980D01*
X0409003Y0025927D01*
X0409034Y0025873D01*
X0409060Y0025817D01*
X0409084Y0025759D01*
X0409103Y0025699D01*
X0409119Y0025639D01*
X0409131Y0025577D01*
X0409139Y0025516D01*
X0409143Y0025453D01*
X0409143Y0025391D01*
X0409139Y0025328D01*
X0409131Y0025267D01*
X0409119Y0025205D01*
X0409103Y0025145D01*
X0409084Y0025085D01*
X0409060Y0025027D01*
X0409034Y0024971D01*
X0409003Y0024917D01*
X0408969Y0024864D01*
X0408932Y0024814D01*
X0408892Y0024766D01*
X0408849Y0024721D01*
X0408803Y0024678D01*
X0408755Y0024639D01*
X0408704Y0024603D01*
X0408651Y0024570D01*
X0408596Y0024540D01*
X0408539Y0024514D01*
X0408481Y0024492D01*
X0408421Y0024474D01*
X0408361Y0024459D01*
X0408299Y0024448D01*
X0408237Y0024441D01*
X0408175Y0024438D01*
X0408112Y0024439D01*
X0408050Y0024444D01*
X0407988Y0024453D01*
X0407927Y0024466D01*
X0407867Y0024482D01*
X0407808Y0024503D01*
X0407750Y0024527D01*
X0407694Y0024555D01*
X0407640Y0024586D01*
X0407588Y0024620D01*
X0407539Y0024658D01*
X0407491Y0024699D01*
X0407447Y0024743D01*
X0407405Y0024789D01*
X0407367Y0024839D01*
X0407331Y0024890D01*
X0407299Y0024944D01*
X0407271Y0024999D01*
X0407245Y0025056D01*
X0407224Y0025115D01*
X0407207Y0025175D01*
X0407193Y0025236D01*
X0407183Y0025297D01*
X0407177Y0025360D01*
X0407175Y0025422D01*
X0462884Y0041170D02*
X0462886Y0041328D01*
X0462892Y0041486D01*
X0462902Y0041644D01*
X0462916Y0041802D01*
X0462934Y0041959D01*
X0462955Y0042116D01*
X0462981Y0042272D01*
X0463011Y0042428D01*
X0463044Y0042583D01*
X0463082Y0042736D01*
X0463123Y0042889D01*
X0463168Y0043041D01*
X0463217Y0043192D01*
X0463270Y0043341D01*
X0463326Y0043489D01*
X0463386Y0043635D01*
X0463450Y0043780D01*
X0463518Y0043923D01*
X0463589Y0044065D01*
X0463663Y0044205D01*
X0463741Y0044342D01*
X0463823Y0044478D01*
X0463907Y0044612D01*
X0463996Y0044743D01*
X0464087Y0044872D01*
X0464182Y0044999D01*
X0464279Y0045124D01*
X0464380Y0045246D01*
X0464484Y0045365D01*
X0464591Y0045482D01*
X0464701Y0045596D01*
X0464814Y0045707D01*
X0464929Y0045816D01*
X0465047Y0045921D01*
X0465168Y0046023D01*
X0465291Y0046123D01*
X0465417Y0046219D01*
X0465545Y0046312D01*
X0465675Y0046402D01*
X0465808Y0046488D01*
X0465943Y0046572D01*
X0466079Y0046651D01*
X0466218Y0046728D01*
X0466359Y0046800D01*
X0466501Y0046870D01*
X0466645Y0046935D01*
X0466791Y0046997D01*
X0466938Y0047055D01*
X0467087Y0047110D01*
X0467237Y0047161D01*
X0467388Y0047208D01*
X0467540Y0047251D01*
X0467693Y0047290D01*
X0467848Y0047326D01*
X0468003Y0047357D01*
X0468159Y0047385D01*
X0468315Y0047409D01*
X0468472Y0047429D01*
X0468630Y0047445D01*
X0468787Y0047457D01*
X0468946Y0047465D01*
X0469104Y0047469D01*
X0469262Y0047469D01*
X0469420Y0047465D01*
X0469579Y0047457D01*
X0469736Y0047445D01*
X0469894Y0047429D01*
X0470051Y0047409D01*
X0470207Y0047385D01*
X0470363Y0047357D01*
X0470518Y0047326D01*
X0470673Y0047290D01*
X0470826Y0047251D01*
X0470978Y0047208D01*
X0471129Y0047161D01*
X0471279Y0047110D01*
X0471428Y0047055D01*
X0471575Y0046997D01*
X0471721Y0046935D01*
X0471865Y0046870D01*
X0472007Y0046800D01*
X0472148Y0046728D01*
X0472287Y0046651D01*
X0472423Y0046572D01*
X0472558Y0046488D01*
X0472691Y0046402D01*
X0472821Y0046312D01*
X0472949Y0046219D01*
X0473075Y0046123D01*
X0473198Y0046023D01*
X0473319Y0045921D01*
X0473437Y0045816D01*
X0473552Y0045707D01*
X0473665Y0045596D01*
X0473775Y0045482D01*
X0473882Y0045365D01*
X0473986Y0045246D01*
X0474087Y0045124D01*
X0474184Y0044999D01*
X0474279Y0044872D01*
X0474370Y0044743D01*
X0474459Y0044612D01*
X0474543Y0044478D01*
X0474625Y0044342D01*
X0474703Y0044205D01*
X0474777Y0044065D01*
X0474848Y0043923D01*
X0474916Y0043780D01*
X0474980Y0043635D01*
X0475040Y0043489D01*
X0475096Y0043341D01*
X0475149Y0043192D01*
X0475198Y0043041D01*
X0475243Y0042889D01*
X0475284Y0042736D01*
X0475322Y0042583D01*
X0475355Y0042428D01*
X0475385Y0042272D01*
X0475411Y0042116D01*
X0475432Y0041959D01*
X0475450Y0041802D01*
X0475464Y0041644D01*
X0475474Y0041486D01*
X0475480Y0041328D01*
X0475482Y0041170D01*
X0475480Y0041012D01*
X0475474Y0040854D01*
X0475464Y0040696D01*
X0475450Y0040538D01*
X0475432Y0040381D01*
X0475411Y0040224D01*
X0475385Y0040068D01*
X0475355Y0039912D01*
X0475322Y0039757D01*
X0475284Y0039604D01*
X0475243Y0039451D01*
X0475198Y0039299D01*
X0475149Y0039148D01*
X0475096Y0038999D01*
X0475040Y0038851D01*
X0474980Y0038705D01*
X0474916Y0038560D01*
X0474848Y0038417D01*
X0474777Y0038275D01*
X0474703Y0038135D01*
X0474625Y0037998D01*
X0474543Y0037862D01*
X0474459Y0037728D01*
X0474370Y0037597D01*
X0474279Y0037468D01*
X0474184Y0037341D01*
X0474087Y0037216D01*
X0473986Y0037094D01*
X0473882Y0036975D01*
X0473775Y0036858D01*
X0473665Y0036744D01*
X0473552Y0036633D01*
X0473437Y0036524D01*
X0473319Y0036419D01*
X0473198Y0036317D01*
X0473075Y0036217D01*
X0472949Y0036121D01*
X0472821Y0036028D01*
X0472691Y0035938D01*
X0472558Y0035852D01*
X0472423Y0035768D01*
X0472287Y0035689D01*
X0472148Y0035612D01*
X0472007Y0035540D01*
X0471865Y0035470D01*
X0471721Y0035405D01*
X0471575Y0035343D01*
X0471428Y0035285D01*
X0471279Y0035230D01*
X0471129Y0035179D01*
X0470978Y0035132D01*
X0470826Y0035089D01*
X0470673Y0035050D01*
X0470518Y0035014D01*
X0470363Y0034983D01*
X0470207Y0034955D01*
X0470051Y0034931D01*
X0469894Y0034911D01*
X0469736Y0034895D01*
X0469579Y0034883D01*
X0469420Y0034875D01*
X0469262Y0034871D01*
X0469104Y0034871D01*
X0468946Y0034875D01*
X0468787Y0034883D01*
X0468630Y0034895D01*
X0468472Y0034911D01*
X0468315Y0034931D01*
X0468159Y0034955D01*
X0468003Y0034983D01*
X0467848Y0035014D01*
X0467693Y0035050D01*
X0467540Y0035089D01*
X0467388Y0035132D01*
X0467237Y0035179D01*
X0467087Y0035230D01*
X0466938Y0035285D01*
X0466791Y0035343D01*
X0466645Y0035405D01*
X0466501Y0035470D01*
X0466359Y0035540D01*
X0466218Y0035612D01*
X0466079Y0035689D01*
X0465943Y0035768D01*
X0465808Y0035852D01*
X0465675Y0035938D01*
X0465545Y0036028D01*
X0465417Y0036121D01*
X0465291Y0036217D01*
X0465168Y0036317D01*
X0465047Y0036419D01*
X0464929Y0036524D01*
X0464814Y0036633D01*
X0464701Y0036744D01*
X0464591Y0036858D01*
X0464484Y0036975D01*
X0464380Y0037094D01*
X0464279Y0037216D01*
X0464182Y0037341D01*
X0464087Y0037468D01*
X0463996Y0037597D01*
X0463907Y0037728D01*
X0463823Y0037862D01*
X0463741Y0037998D01*
X0463663Y0038135D01*
X0463589Y0038275D01*
X0463518Y0038417D01*
X0463450Y0038560D01*
X0463386Y0038705D01*
X0463326Y0038851D01*
X0463270Y0038999D01*
X0463217Y0039148D01*
X0463168Y0039299D01*
X0463123Y0039451D01*
X0463082Y0039604D01*
X0463044Y0039757D01*
X0463011Y0039912D01*
X0462981Y0040068D01*
X0462955Y0040224D01*
X0462934Y0040381D01*
X0462916Y0040538D01*
X0462902Y0040696D01*
X0462892Y0040854D01*
X0462886Y0041012D01*
X0462884Y0041170D01*
X0464852Y0008690D02*
X0464854Y0008821D01*
X0464860Y0008953D01*
X0464870Y0009084D01*
X0464884Y0009215D01*
X0464902Y0009345D01*
X0464924Y0009474D01*
X0464949Y0009603D01*
X0464979Y0009731D01*
X0465013Y0009858D01*
X0465050Y0009985D01*
X0465091Y0010109D01*
X0465136Y0010233D01*
X0465185Y0010355D01*
X0465237Y0010476D01*
X0465293Y0010594D01*
X0465353Y0010712D01*
X0465416Y0010827D01*
X0465483Y0010940D01*
X0465553Y0011052D01*
X0465626Y0011161D01*
X0465702Y0011267D01*
X0465782Y0011372D01*
X0465865Y0011474D01*
X0465951Y0011573D01*
X0466040Y0011670D01*
X0466132Y0011764D01*
X0466227Y0011855D01*
X0466324Y0011944D01*
X0466424Y0012029D01*
X0466527Y0012111D01*
X0466632Y0012190D01*
X0466739Y0012266D01*
X0466849Y0012338D01*
X0466961Y0012407D01*
X0467075Y0012473D01*
X0467190Y0012535D01*
X0467308Y0012594D01*
X0467427Y0012649D01*
X0467548Y0012701D01*
X0467671Y0012748D01*
X0467795Y0012792D01*
X0467920Y0012833D01*
X0468046Y0012869D01*
X0468174Y0012902D01*
X0468302Y0012930D01*
X0468431Y0012955D01*
X0468561Y0012976D01*
X0468691Y0012993D01*
X0468822Y0013006D01*
X0468953Y0013015D01*
X0469084Y0013020D01*
X0469216Y0013021D01*
X0469347Y0013018D01*
X0469479Y0013011D01*
X0469610Y0013000D01*
X0469740Y0012985D01*
X0469870Y0012966D01*
X0470000Y0012943D01*
X0470128Y0012917D01*
X0470256Y0012886D01*
X0470383Y0012851D01*
X0470509Y0012813D01*
X0470633Y0012771D01*
X0470757Y0012725D01*
X0470878Y0012675D01*
X0470998Y0012622D01*
X0471117Y0012565D01*
X0471234Y0012505D01*
X0471348Y0012441D01*
X0471461Y0012373D01*
X0471572Y0012302D01*
X0471681Y0012228D01*
X0471787Y0012151D01*
X0471891Y0012070D01*
X0471992Y0011987D01*
X0472091Y0011900D01*
X0472187Y0011810D01*
X0472280Y0011717D01*
X0472371Y0011622D01*
X0472458Y0011524D01*
X0472543Y0011423D01*
X0472624Y0011320D01*
X0472702Y0011214D01*
X0472777Y0011106D01*
X0472849Y0010996D01*
X0472917Y0010884D01*
X0472982Y0010770D01*
X0473043Y0010653D01*
X0473101Y0010535D01*
X0473155Y0010415D01*
X0473206Y0010294D01*
X0473253Y0010171D01*
X0473296Y0010047D01*
X0473335Y0009922D01*
X0473371Y0009795D01*
X0473402Y0009667D01*
X0473430Y0009539D01*
X0473454Y0009410D01*
X0473474Y0009280D01*
X0473490Y0009149D01*
X0473502Y0009018D01*
X0473510Y0008887D01*
X0473514Y0008756D01*
X0473514Y0008624D01*
X0473510Y0008493D01*
X0473502Y0008362D01*
X0473490Y0008231D01*
X0473474Y0008100D01*
X0473454Y0007970D01*
X0473430Y0007841D01*
X0473402Y0007713D01*
X0473371Y0007585D01*
X0473335Y0007458D01*
X0473296Y0007333D01*
X0473253Y0007209D01*
X0473206Y0007086D01*
X0473155Y0006965D01*
X0473101Y0006845D01*
X0473043Y0006727D01*
X0472982Y0006610D01*
X0472917Y0006496D01*
X0472849Y0006384D01*
X0472777Y0006274D01*
X0472702Y0006166D01*
X0472624Y0006060D01*
X0472543Y0005957D01*
X0472458Y0005856D01*
X0472371Y0005758D01*
X0472280Y0005663D01*
X0472187Y0005570D01*
X0472091Y0005480D01*
X0471992Y0005393D01*
X0471891Y0005310D01*
X0471787Y0005229D01*
X0471681Y0005152D01*
X0471572Y0005078D01*
X0471461Y0005007D01*
X0471349Y0004939D01*
X0471234Y0004875D01*
X0471117Y0004815D01*
X0470998Y0004758D01*
X0470878Y0004705D01*
X0470757Y0004655D01*
X0470633Y0004609D01*
X0470509Y0004567D01*
X0470383Y0004529D01*
X0470256Y0004494D01*
X0470128Y0004463D01*
X0470000Y0004437D01*
X0469870Y0004414D01*
X0469740Y0004395D01*
X0469610Y0004380D01*
X0469479Y0004369D01*
X0469347Y0004362D01*
X0469216Y0004359D01*
X0469084Y0004360D01*
X0468953Y0004365D01*
X0468822Y0004374D01*
X0468691Y0004387D01*
X0468561Y0004404D01*
X0468431Y0004425D01*
X0468302Y0004450D01*
X0468174Y0004478D01*
X0468046Y0004511D01*
X0467920Y0004547D01*
X0467795Y0004588D01*
X0467671Y0004632D01*
X0467548Y0004679D01*
X0467427Y0004731D01*
X0467308Y0004786D01*
X0467190Y0004845D01*
X0467075Y0004907D01*
X0466961Y0004973D01*
X0466849Y0005042D01*
X0466739Y0005114D01*
X0466632Y0005190D01*
X0466527Y0005269D01*
X0466424Y0005351D01*
X0466324Y0005436D01*
X0466227Y0005525D01*
X0466132Y0005616D01*
X0466040Y0005710D01*
X0465951Y0005807D01*
X0465865Y0005906D01*
X0465782Y0006008D01*
X0465702Y0006113D01*
X0465626Y0006219D01*
X0465553Y0006328D01*
X0465483Y0006440D01*
X0465416Y0006553D01*
X0465353Y0006668D01*
X0465293Y0006786D01*
X0465237Y0006904D01*
X0465185Y0007025D01*
X0465136Y0007147D01*
X0465091Y0007271D01*
X0465050Y0007395D01*
X0465013Y0007522D01*
X0464979Y0007649D01*
X0464949Y0007777D01*
X0464924Y0007906D01*
X0464902Y0008035D01*
X0464884Y0008165D01*
X0464870Y0008296D01*
X0464860Y0008427D01*
X0464854Y0008559D01*
X0464852Y0008690D01*
X0462884Y0356131D02*
X0462886Y0356289D01*
X0462892Y0356447D01*
X0462902Y0356605D01*
X0462916Y0356763D01*
X0462934Y0356920D01*
X0462955Y0357077D01*
X0462981Y0357233D01*
X0463011Y0357389D01*
X0463044Y0357544D01*
X0463082Y0357697D01*
X0463123Y0357850D01*
X0463168Y0358002D01*
X0463217Y0358153D01*
X0463270Y0358302D01*
X0463326Y0358450D01*
X0463386Y0358596D01*
X0463450Y0358741D01*
X0463518Y0358884D01*
X0463589Y0359026D01*
X0463663Y0359166D01*
X0463741Y0359303D01*
X0463823Y0359439D01*
X0463907Y0359573D01*
X0463996Y0359704D01*
X0464087Y0359833D01*
X0464182Y0359960D01*
X0464279Y0360085D01*
X0464380Y0360207D01*
X0464484Y0360326D01*
X0464591Y0360443D01*
X0464701Y0360557D01*
X0464814Y0360668D01*
X0464929Y0360777D01*
X0465047Y0360882D01*
X0465168Y0360984D01*
X0465291Y0361084D01*
X0465417Y0361180D01*
X0465545Y0361273D01*
X0465675Y0361363D01*
X0465808Y0361449D01*
X0465943Y0361533D01*
X0466079Y0361612D01*
X0466218Y0361689D01*
X0466359Y0361761D01*
X0466501Y0361831D01*
X0466645Y0361896D01*
X0466791Y0361958D01*
X0466938Y0362016D01*
X0467087Y0362071D01*
X0467237Y0362122D01*
X0467388Y0362169D01*
X0467540Y0362212D01*
X0467693Y0362251D01*
X0467848Y0362287D01*
X0468003Y0362318D01*
X0468159Y0362346D01*
X0468315Y0362370D01*
X0468472Y0362390D01*
X0468630Y0362406D01*
X0468787Y0362418D01*
X0468946Y0362426D01*
X0469104Y0362430D01*
X0469262Y0362430D01*
X0469420Y0362426D01*
X0469579Y0362418D01*
X0469736Y0362406D01*
X0469894Y0362390D01*
X0470051Y0362370D01*
X0470207Y0362346D01*
X0470363Y0362318D01*
X0470518Y0362287D01*
X0470673Y0362251D01*
X0470826Y0362212D01*
X0470978Y0362169D01*
X0471129Y0362122D01*
X0471279Y0362071D01*
X0471428Y0362016D01*
X0471575Y0361958D01*
X0471721Y0361896D01*
X0471865Y0361831D01*
X0472007Y0361761D01*
X0472148Y0361689D01*
X0472287Y0361612D01*
X0472423Y0361533D01*
X0472558Y0361449D01*
X0472691Y0361363D01*
X0472821Y0361273D01*
X0472949Y0361180D01*
X0473075Y0361084D01*
X0473198Y0360984D01*
X0473319Y0360882D01*
X0473437Y0360777D01*
X0473552Y0360668D01*
X0473665Y0360557D01*
X0473775Y0360443D01*
X0473882Y0360326D01*
X0473986Y0360207D01*
X0474087Y0360085D01*
X0474184Y0359960D01*
X0474279Y0359833D01*
X0474370Y0359704D01*
X0474459Y0359573D01*
X0474543Y0359439D01*
X0474625Y0359303D01*
X0474703Y0359166D01*
X0474777Y0359026D01*
X0474848Y0358884D01*
X0474916Y0358741D01*
X0474980Y0358596D01*
X0475040Y0358450D01*
X0475096Y0358302D01*
X0475149Y0358153D01*
X0475198Y0358002D01*
X0475243Y0357850D01*
X0475284Y0357697D01*
X0475322Y0357544D01*
X0475355Y0357389D01*
X0475385Y0357233D01*
X0475411Y0357077D01*
X0475432Y0356920D01*
X0475450Y0356763D01*
X0475464Y0356605D01*
X0475474Y0356447D01*
X0475480Y0356289D01*
X0475482Y0356131D01*
X0475480Y0355973D01*
X0475474Y0355815D01*
X0475464Y0355657D01*
X0475450Y0355499D01*
X0475432Y0355342D01*
X0475411Y0355185D01*
X0475385Y0355029D01*
X0475355Y0354873D01*
X0475322Y0354718D01*
X0475284Y0354565D01*
X0475243Y0354412D01*
X0475198Y0354260D01*
X0475149Y0354109D01*
X0475096Y0353960D01*
X0475040Y0353812D01*
X0474980Y0353666D01*
X0474916Y0353521D01*
X0474848Y0353378D01*
X0474777Y0353236D01*
X0474703Y0353096D01*
X0474625Y0352959D01*
X0474543Y0352823D01*
X0474459Y0352689D01*
X0474370Y0352558D01*
X0474279Y0352429D01*
X0474184Y0352302D01*
X0474087Y0352177D01*
X0473986Y0352055D01*
X0473882Y0351936D01*
X0473775Y0351819D01*
X0473665Y0351705D01*
X0473552Y0351594D01*
X0473437Y0351485D01*
X0473319Y0351380D01*
X0473198Y0351278D01*
X0473075Y0351178D01*
X0472949Y0351082D01*
X0472821Y0350989D01*
X0472691Y0350899D01*
X0472558Y0350813D01*
X0472423Y0350729D01*
X0472287Y0350650D01*
X0472148Y0350573D01*
X0472007Y0350501D01*
X0471865Y0350431D01*
X0471721Y0350366D01*
X0471575Y0350304D01*
X0471428Y0350246D01*
X0471279Y0350191D01*
X0471129Y0350140D01*
X0470978Y0350093D01*
X0470826Y0350050D01*
X0470673Y0350011D01*
X0470518Y0349975D01*
X0470363Y0349944D01*
X0470207Y0349916D01*
X0470051Y0349892D01*
X0469894Y0349872D01*
X0469736Y0349856D01*
X0469579Y0349844D01*
X0469420Y0349836D01*
X0469262Y0349832D01*
X0469104Y0349832D01*
X0468946Y0349836D01*
X0468787Y0349844D01*
X0468630Y0349856D01*
X0468472Y0349872D01*
X0468315Y0349892D01*
X0468159Y0349916D01*
X0468003Y0349944D01*
X0467848Y0349975D01*
X0467693Y0350011D01*
X0467540Y0350050D01*
X0467388Y0350093D01*
X0467237Y0350140D01*
X0467087Y0350191D01*
X0466938Y0350246D01*
X0466791Y0350304D01*
X0466645Y0350366D01*
X0466501Y0350431D01*
X0466359Y0350501D01*
X0466218Y0350573D01*
X0466079Y0350650D01*
X0465943Y0350729D01*
X0465808Y0350813D01*
X0465675Y0350899D01*
X0465545Y0350989D01*
X0465417Y0351082D01*
X0465291Y0351178D01*
X0465168Y0351278D01*
X0465047Y0351380D01*
X0464929Y0351485D01*
X0464814Y0351594D01*
X0464701Y0351705D01*
X0464591Y0351819D01*
X0464484Y0351936D01*
X0464380Y0352055D01*
X0464279Y0352177D01*
X0464182Y0352302D01*
X0464087Y0352429D01*
X0463996Y0352558D01*
X0463907Y0352689D01*
X0463823Y0352823D01*
X0463741Y0352959D01*
X0463663Y0353096D01*
X0463589Y0353236D01*
X0463518Y0353378D01*
X0463450Y0353521D01*
X0463386Y0353666D01*
X0463326Y0353812D01*
X0463270Y0353960D01*
X0463217Y0354109D01*
X0463168Y0354260D01*
X0463123Y0354412D01*
X0463082Y0354565D01*
X0463044Y0354718D01*
X0463011Y0354873D01*
X0462981Y0355029D01*
X0462955Y0355185D01*
X0462934Y0355342D01*
X0462916Y0355499D01*
X0462902Y0355657D01*
X0462892Y0355815D01*
X0462886Y0355973D01*
X0462884Y0356131D01*
X0464852Y0388611D02*
X0464854Y0388742D01*
X0464860Y0388874D01*
X0464870Y0389005D01*
X0464884Y0389136D01*
X0464902Y0389266D01*
X0464924Y0389395D01*
X0464949Y0389524D01*
X0464979Y0389652D01*
X0465013Y0389779D01*
X0465050Y0389906D01*
X0465091Y0390030D01*
X0465136Y0390154D01*
X0465185Y0390276D01*
X0465237Y0390397D01*
X0465293Y0390515D01*
X0465353Y0390633D01*
X0465416Y0390748D01*
X0465483Y0390861D01*
X0465553Y0390973D01*
X0465626Y0391082D01*
X0465702Y0391188D01*
X0465782Y0391293D01*
X0465865Y0391395D01*
X0465951Y0391494D01*
X0466040Y0391591D01*
X0466132Y0391685D01*
X0466227Y0391776D01*
X0466324Y0391865D01*
X0466424Y0391950D01*
X0466527Y0392032D01*
X0466632Y0392111D01*
X0466739Y0392187D01*
X0466849Y0392259D01*
X0466961Y0392328D01*
X0467075Y0392394D01*
X0467190Y0392456D01*
X0467308Y0392515D01*
X0467427Y0392570D01*
X0467548Y0392622D01*
X0467671Y0392669D01*
X0467795Y0392713D01*
X0467920Y0392754D01*
X0468046Y0392790D01*
X0468174Y0392823D01*
X0468302Y0392851D01*
X0468431Y0392876D01*
X0468561Y0392897D01*
X0468691Y0392914D01*
X0468822Y0392927D01*
X0468953Y0392936D01*
X0469084Y0392941D01*
X0469216Y0392942D01*
X0469347Y0392939D01*
X0469479Y0392932D01*
X0469610Y0392921D01*
X0469740Y0392906D01*
X0469870Y0392887D01*
X0470000Y0392864D01*
X0470128Y0392838D01*
X0470256Y0392807D01*
X0470383Y0392772D01*
X0470509Y0392734D01*
X0470633Y0392692D01*
X0470757Y0392646D01*
X0470878Y0392596D01*
X0470998Y0392543D01*
X0471117Y0392486D01*
X0471234Y0392426D01*
X0471348Y0392362D01*
X0471461Y0392294D01*
X0471572Y0392223D01*
X0471681Y0392149D01*
X0471787Y0392072D01*
X0471891Y0391991D01*
X0471992Y0391908D01*
X0472091Y0391821D01*
X0472187Y0391731D01*
X0472280Y0391638D01*
X0472371Y0391543D01*
X0472458Y0391445D01*
X0472543Y0391344D01*
X0472624Y0391241D01*
X0472702Y0391135D01*
X0472777Y0391027D01*
X0472849Y0390917D01*
X0472917Y0390805D01*
X0472982Y0390691D01*
X0473043Y0390574D01*
X0473101Y0390456D01*
X0473155Y0390336D01*
X0473206Y0390215D01*
X0473253Y0390092D01*
X0473296Y0389968D01*
X0473335Y0389843D01*
X0473371Y0389716D01*
X0473402Y0389588D01*
X0473430Y0389460D01*
X0473454Y0389331D01*
X0473474Y0389201D01*
X0473490Y0389070D01*
X0473502Y0388939D01*
X0473510Y0388808D01*
X0473514Y0388677D01*
X0473514Y0388545D01*
X0473510Y0388414D01*
X0473502Y0388283D01*
X0473490Y0388152D01*
X0473474Y0388021D01*
X0473454Y0387891D01*
X0473430Y0387762D01*
X0473402Y0387634D01*
X0473371Y0387506D01*
X0473335Y0387379D01*
X0473296Y0387254D01*
X0473253Y0387130D01*
X0473206Y0387007D01*
X0473155Y0386886D01*
X0473101Y0386766D01*
X0473043Y0386648D01*
X0472982Y0386531D01*
X0472917Y0386417D01*
X0472849Y0386305D01*
X0472777Y0386195D01*
X0472702Y0386087D01*
X0472624Y0385981D01*
X0472543Y0385878D01*
X0472458Y0385777D01*
X0472371Y0385679D01*
X0472280Y0385584D01*
X0472187Y0385491D01*
X0472091Y0385401D01*
X0471992Y0385314D01*
X0471891Y0385231D01*
X0471787Y0385150D01*
X0471681Y0385073D01*
X0471572Y0384999D01*
X0471461Y0384928D01*
X0471349Y0384860D01*
X0471234Y0384796D01*
X0471117Y0384736D01*
X0470998Y0384679D01*
X0470878Y0384626D01*
X0470757Y0384576D01*
X0470633Y0384530D01*
X0470509Y0384488D01*
X0470383Y0384450D01*
X0470256Y0384415D01*
X0470128Y0384384D01*
X0470000Y0384358D01*
X0469870Y0384335D01*
X0469740Y0384316D01*
X0469610Y0384301D01*
X0469479Y0384290D01*
X0469347Y0384283D01*
X0469216Y0384280D01*
X0469084Y0384281D01*
X0468953Y0384286D01*
X0468822Y0384295D01*
X0468691Y0384308D01*
X0468561Y0384325D01*
X0468431Y0384346D01*
X0468302Y0384371D01*
X0468174Y0384399D01*
X0468046Y0384432D01*
X0467920Y0384468D01*
X0467795Y0384509D01*
X0467671Y0384553D01*
X0467548Y0384600D01*
X0467427Y0384652D01*
X0467308Y0384707D01*
X0467190Y0384766D01*
X0467075Y0384828D01*
X0466961Y0384894D01*
X0466849Y0384963D01*
X0466739Y0385035D01*
X0466632Y0385111D01*
X0466527Y0385190D01*
X0466424Y0385272D01*
X0466324Y0385357D01*
X0466227Y0385446D01*
X0466132Y0385537D01*
X0466040Y0385631D01*
X0465951Y0385728D01*
X0465865Y0385827D01*
X0465782Y0385929D01*
X0465702Y0386034D01*
X0465626Y0386140D01*
X0465553Y0386249D01*
X0465483Y0386361D01*
X0465416Y0386474D01*
X0465353Y0386589D01*
X0465293Y0386707D01*
X0465237Y0386825D01*
X0465185Y0386946D01*
X0465136Y0387068D01*
X0465091Y0387192D01*
X0465050Y0387316D01*
X0465013Y0387443D01*
X0464979Y0387570D01*
X0464949Y0387698D01*
X0464924Y0387827D01*
X0464902Y0387956D01*
X0464884Y0388086D01*
X0464870Y0388217D01*
X0464860Y0388348D01*
X0464854Y0388480D01*
X0464852Y0388611D01*
X0407175Y0379753D02*
X0407177Y0379815D01*
X0407183Y0379878D01*
X0407193Y0379939D01*
X0407207Y0380000D01*
X0407224Y0380060D01*
X0407245Y0380119D01*
X0407271Y0380176D01*
X0407299Y0380231D01*
X0407331Y0380285D01*
X0407367Y0380336D01*
X0407405Y0380386D01*
X0407447Y0380432D01*
X0407491Y0380476D01*
X0407539Y0380517D01*
X0407588Y0380555D01*
X0407640Y0380589D01*
X0407694Y0380620D01*
X0407750Y0380648D01*
X0407808Y0380672D01*
X0407867Y0380693D01*
X0407927Y0380709D01*
X0407988Y0380722D01*
X0408050Y0380731D01*
X0408112Y0380736D01*
X0408175Y0380737D01*
X0408237Y0380734D01*
X0408299Y0380727D01*
X0408361Y0380716D01*
X0408421Y0380701D01*
X0408481Y0380683D01*
X0408539Y0380661D01*
X0408596Y0380635D01*
X0408651Y0380605D01*
X0408704Y0380572D01*
X0408755Y0380536D01*
X0408803Y0380497D01*
X0408849Y0380454D01*
X0408892Y0380409D01*
X0408932Y0380361D01*
X0408969Y0380311D01*
X0409003Y0380258D01*
X0409034Y0380204D01*
X0409060Y0380148D01*
X0409084Y0380090D01*
X0409103Y0380030D01*
X0409119Y0379970D01*
X0409131Y0379908D01*
X0409139Y0379847D01*
X0409143Y0379784D01*
X0409143Y0379722D01*
X0409139Y0379659D01*
X0409131Y0379598D01*
X0409119Y0379536D01*
X0409103Y0379476D01*
X0409084Y0379416D01*
X0409060Y0379358D01*
X0409034Y0379302D01*
X0409003Y0379248D01*
X0408969Y0379195D01*
X0408932Y0379145D01*
X0408892Y0379097D01*
X0408849Y0379052D01*
X0408803Y0379009D01*
X0408755Y0378970D01*
X0408704Y0378934D01*
X0408651Y0378901D01*
X0408596Y0378871D01*
X0408539Y0378845D01*
X0408481Y0378823D01*
X0408421Y0378805D01*
X0408361Y0378790D01*
X0408299Y0378779D01*
X0408237Y0378772D01*
X0408175Y0378769D01*
X0408112Y0378770D01*
X0408050Y0378775D01*
X0407988Y0378784D01*
X0407927Y0378797D01*
X0407867Y0378813D01*
X0407808Y0378834D01*
X0407750Y0378858D01*
X0407694Y0378886D01*
X0407640Y0378917D01*
X0407588Y0378951D01*
X0407539Y0378989D01*
X0407491Y0379030D01*
X0407447Y0379074D01*
X0407405Y0379120D01*
X0407367Y0379170D01*
X0407331Y0379221D01*
X0407299Y0379275D01*
X0407271Y0379330D01*
X0407245Y0379387D01*
X0407224Y0379446D01*
X0407207Y0379506D01*
X0407193Y0379567D01*
X0407183Y0379628D01*
X0407177Y0379691D01*
X0407175Y0379753D01*
X0403238Y0379753D02*
X0403240Y0379815D01*
X0403246Y0379878D01*
X0403256Y0379939D01*
X0403270Y0380000D01*
X0403287Y0380060D01*
X0403308Y0380119D01*
X0403334Y0380176D01*
X0403362Y0380231D01*
X0403394Y0380285D01*
X0403430Y0380336D01*
X0403468Y0380386D01*
X0403510Y0380432D01*
X0403554Y0380476D01*
X0403602Y0380517D01*
X0403651Y0380555D01*
X0403703Y0380589D01*
X0403757Y0380620D01*
X0403813Y0380648D01*
X0403871Y0380672D01*
X0403930Y0380693D01*
X0403990Y0380709D01*
X0404051Y0380722D01*
X0404113Y0380731D01*
X0404175Y0380736D01*
X0404238Y0380737D01*
X0404300Y0380734D01*
X0404362Y0380727D01*
X0404424Y0380716D01*
X0404484Y0380701D01*
X0404544Y0380683D01*
X0404602Y0380661D01*
X0404659Y0380635D01*
X0404714Y0380605D01*
X0404767Y0380572D01*
X0404818Y0380536D01*
X0404866Y0380497D01*
X0404912Y0380454D01*
X0404955Y0380409D01*
X0404995Y0380361D01*
X0405032Y0380311D01*
X0405066Y0380258D01*
X0405097Y0380204D01*
X0405123Y0380148D01*
X0405147Y0380090D01*
X0405166Y0380030D01*
X0405182Y0379970D01*
X0405194Y0379908D01*
X0405202Y0379847D01*
X0405206Y0379784D01*
X0405206Y0379722D01*
X0405202Y0379659D01*
X0405194Y0379598D01*
X0405182Y0379536D01*
X0405166Y0379476D01*
X0405147Y0379416D01*
X0405123Y0379358D01*
X0405097Y0379302D01*
X0405066Y0379248D01*
X0405032Y0379195D01*
X0404995Y0379145D01*
X0404955Y0379097D01*
X0404912Y0379052D01*
X0404866Y0379009D01*
X0404818Y0378970D01*
X0404767Y0378934D01*
X0404714Y0378901D01*
X0404659Y0378871D01*
X0404602Y0378845D01*
X0404544Y0378823D01*
X0404484Y0378805D01*
X0404424Y0378790D01*
X0404362Y0378779D01*
X0404300Y0378772D01*
X0404238Y0378769D01*
X0404175Y0378770D01*
X0404113Y0378775D01*
X0404051Y0378784D01*
X0403990Y0378797D01*
X0403930Y0378813D01*
X0403871Y0378834D01*
X0403813Y0378858D01*
X0403757Y0378886D01*
X0403703Y0378917D01*
X0403651Y0378951D01*
X0403602Y0378989D01*
X0403554Y0379030D01*
X0403510Y0379074D01*
X0403468Y0379120D01*
X0403430Y0379170D01*
X0403394Y0379221D01*
X0403362Y0379275D01*
X0403334Y0379330D01*
X0403308Y0379387D01*
X0403287Y0379446D01*
X0403270Y0379506D01*
X0403256Y0379567D01*
X0403246Y0379628D01*
X0403240Y0379691D01*
X0403238Y0379753D01*
X0399301Y0379753D02*
X0399303Y0379815D01*
X0399309Y0379878D01*
X0399319Y0379939D01*
X0399333Y0380000D01*
X0399350Y0380060D01*
X0399371Y0380119D01*
X0399397Y0380176D01*
X0399425Y0380231D01*
X0399457Y0380285D01*
X0399493Y0380336D01*
X0399531Y0380386D01*
X0399573Y0380432D01*
X0399617Y0380476D01*
X0399665Y0380517D01*
X0399714Y0380555D01*
X0399766Y0380589D01*
X0399820Y0380620D01*
X0399876Y0380648D01*
X0399934Y0380672D01*
X0399993Y0380693D01*
X0400053Y0380709D01*
X0400114Y0380722D01*
X0400176Y0380731D01*
X0400238Y0380736D01*
X0400301Y0380737D01*
X0400363Y0380734D01*
X0400425Y0380727D01*
X0400487Y0380716D01*
X0400547Y0380701D01*
X0400607Y0380683D01*
X0400665Y0380661D01*
X0400722Y0380635D01*
X0400777Y0380605D01*
X0400830Y0380572D01*
X0400881Y0380536D01*
X0400929Y0380497D01*
X0400975Y0380454D01*
X0401018Y0380409D01*
X0401058Y0380361D01*
X0401095Y0380311D01*
X0401129Y0380258D01*
X0401160Y0380204D01*
X0401186Y0380148D01*
X0401210Y0380090D01*
X0401229Y0380030D01*
X0401245Y0379970D01*
X0401257Y0379908D01*
X0401265Y0379847D01*
X0401269Y0379784D01*
X0401269Y0379722D01*
X0401265Y0379659D01*
X0401257Y0379598D01*
X0401245Y0379536D01*
X0401229Y0379476D01*
X0401210Y0379416D01*
X0401186Y0379358D01*
X0401160Y0379302D01*
X0401129Y0379248D01*
X0401095Y0379195D01*
X0401058Y0379145D01*
X0401018Y0379097D01*
X0400975Y0379052D01*
X0400929Y0379009D01*
X0400881Y0378970D01*
X0400830Y0378934D01*
X0400777Y0378901D01*
X0400722Y0378871D01*
X0400665Y0378845D01*
X0400607Y0378823D01*
X0400547Y0378805D01*
X0400487Y0378790D01*
X0400425Y0378779D01*
X0400363Y0378772D01*
X0400301Y0378769D01*
X0400238Y0378770D01*
X0400176Y0378775D01*
X0400114Y0378784D01*
X0400053Y0378797D01*
X0399993Y0378813D01*
X0399934Y0378834D01*
X0399876Y0378858D01*
X0399820Y0378886D01*
X0399766Y0378917D01*
X0399714Y0378951D01*
X0399665Y0378989D01*
X0399617Y0379030D01*
X0399573Y0379074D01*
X0399531Y0379120D01*
X0399493Y0379170D01*
X0399457Y0379221D01*
X0399425Y0379275D01*
X0399397Y0379330D01*
X0399371Y0379387D01*
X0399350Y0379446D01*
X0399333Y0379506D01*
X0399319Y0379567D01*
X0399309Y0379628D01*
X0399303Y0379691D01*
X0399301Y0379753D01*
X0399301Y0375816D02*
X0399303Y0375878D01*
X0399309Y0375941D01*
X0399319Y0376002D01*
X0399333Y0376063D01*
X0399350Y0376123D01*
X0399371Y0376182D01*
X0399397Y0376239D01*
X0399425Y0376294D01*
X0399457Y0376348D01*
X0399493Y0376399D01*
X0399531Y0376449D01*
X0399573Y0376495D01*
X0399617Y0376539D01*
X0399665Y0376580D01*
X0399714Y0376618D01*
X0399766Y0376652D01*
X0399820Y0376683D01*
X0399876Y0376711D01*
X0399934Y0376735D01*
X0399993Y0376756D01*
X0400053Y0376772D01*
X0400114Y0376785D01*
X0400176Y0376794D01*
X0400238Y0376799D01*
X0400301Y0376800D01*
X0400363Y0376797D01*
X0400425Y0376790D01*
X0400487Y0376779D01*
X0400547Y0376764D01*
X0400607Y0376746D01*
X0400665Y0376724D01*
X0400722Y0376698D01*
X0400777Y0376668D01*
X0400830Y0376635D01*
X0400881Y0376599D01*
X0400929Y0376560D01*
X0400975Y0376517D01*
X0401018Y0376472D01*
X0401058Y0376424D01*
X0401095Y0376374D01*
X0401129Y0376321D01*
X0401160Y0376267D01*
X0401186Y0376211D01*
X0401210Y0376153D01*
X0401229Y0376093D01*
X0401245Y0376033D01*
X0401257Y0375971D01*
X0401265Y0375910D01*
X0401269Y0375847D01*
X0401269Y0375785D01*
X0401265Y0375722D01*
X0401257Y0375661D01*
X0401245Y0375599D01*
X0401229Y0375539D01*
X0401210Y0375479D01*
X0401186Y0375421D01*
X0401160Y0375365D01*
X0401129Y0375311D01*
X0401095Y0375258D01*
X0401058Y0375208D01*
X0401018Y0375160D01*
X0400975Y0375115D01*
X0400929Y0375072D01*
X0400881Y0375033D01*
X0400830Y0374997D01*
X0400777Y0374964D01*
X0400722Y0374934D01*
X0400665Y0374908D01*
X0400607Y0374886D01*
X0400547Y0374868D01*
X0400487Y0374853D01*
X0400425Y0374842D01*
X0400363Y0374835D01*
X0400301Y0374832D01*
X0400238Y0374833D01*
X0400176Y0374838D01*
X0400114Y0374847D01*
X0400053Y0374860D01*
X0399993Y0374876D01*
X0399934Y0374897D01*
X0399876Y0374921D01*
X0399820Y0374949D01*
X0399766Y0374980D01*
X0399714Y0375014D01*
X0399665Y0375052D01*
X0399617Y0375093D01*
X0399573Y0375137D01*
X0399531Y0375183D01*
X0399493Y0375233D01*
X0399457Y0375284D01*
X0399425Y0375338D01*
X0399397Y0375393D01*
X0399371Y0375450D01*
X0399350Y0375509D01*
X0399333Y0375569D01*
X0399319Y0375630D01*
X0399309Y0375691D01*
X0399303Y0375754D01*
X0399301Y0375816D01*
X0399301Y0371879D02*
X0399303Y0371941D01*
X0399309Y0372004D01*
X0399319Y0372065D01*
X0399333Y0372126D01*
X0399350Y0372186D01*
X0399371Y0372245D01*
X0399397Y0372302D01*
X0399425Y0372357D01*
X0399457Y0372411D01*
X0399493Y0372462D01*
X0399531Y0372512D01*
X0399573Y0372558D01*
X0399617Y0372602D01*
X0399665Y0372643D01*
X0399714Y0372681D01*
X0399766Y0372715D01*
X0399820Y0372746D01*
X0399876Y0372774D01*
X0399934Y0372798D01*
X0399993Y0372819D01*
X0400053Y0372835D01*
X0400114Y0372848D01*
X0400176Y0372857D01*
X0400238Y0372862D01*
X0400301Y0372863D01*
X0400363Y0372860D01*
X0400425Y0372853D01*
X0400487Y0372842D01*
X0400547Y0372827D01*
X0400607Y0372809D01*
X0400665Y0372787D01*
X0400722Y0372761D01*
X0400777Y0372731D01*
X0400830Y0372698D01*
X0400881Y0372662D01*
X0400929Y0372623D01*
X0400975Y0372580D01*
X0401018Y0372535D01*
X0401058Y0372487D01*
X0401095Y0372437D01*
X0401129Y0372384D01*
X0401160Y0372330D01*
X0401186Y0372274D01*
X0401210Y0372216D01*
X0401229Y0372156D01*
X0401245Y0372096D01*
X0401257Y0372034D01*
X0401265Y0371973D01*
X0401269Y0371910D01*
X0401269Y0371848D01*
X0401265Y0371785D01*
X0401257Y0371724D01*
X0401245Y0371662D01*
X0401229Y0371602D01*
X0401210Y0371542D01*
X0401186Y0371484D01*
X0401160Y0371428D01*
X0401129Y0371374D01*
X0401095Y0371321D01*
X0401058Y0371271D01*
X0401018Y0371223D01*
X0400975Y0371178D01*
X0400929Y0371135D01*
X0400881Y0371096D01*
X0400830Y0371060D01*
X0400777Y0371027D01*
X0400722Y0370997D01*
X0400665Y0370971D01*
X0400607Y0370949D01*
X0400547Y0370931D01*
X0400487Y0370916D01*
X0400425Y0370905D01*
X0400363Y0370898D01*
X0400301Y0370895D01*
X0400238Y0370896D01*
X0400176Y0370901D01*
X0400114Y0370910D01*
X0400053Y0370923D01*
X0399993Y0370939D01*
X0399934Y0370960D01*
X0399876Y0370984D01*
X0399820Y0371012D01*
X0399766Y0371043D01*
X0399714Y0371077D01*
X0399665Y0371115D01*
X0399617Y0371156D01*
X0399573Y0371200D01*
X0399531Y0371246D01*
X0399493Y0371296D01*
X0399457Y0371347D01*
X0399425Y0371401D01*
X0399397Y0371456D01*
X0399371Y0371513D01*
X0399350Y0371572D01*
X0399333Y0371632D01*
X0399319Y0371693D01*
X0399309Y0371754D01*
X0399303Y0371817D01*
X0399301Y0371879D01*
X0403238Y0371879D02*
X0403240Y0371941D01*
X0403246Y0372004D01*
X0403256Y0372065D01*
X0403270Y0372126D01*
X0403287Y0372186D01*
X0403308Y0372245D01*
X0403334Y0372302D01*
X0403362Y0372357D01*
X0403394Y0372411D01*
X0403430Y0372462D01*
X0403468Y0372512D01*
X0403510Y0372558D01*
X0403554Y0372602D01*
X0403602Y0372643D01*
X0403651Y0372681D01*
X0403703Y0372715D01*
X0403757Y0372746D01*
X0403813Y0372774D01*
X0403871Y0372798D01*
X0403930Y0372819D01*
X0403990Y0372835D01*
X0404051Y0372848D01*
X0404113Y0372857D01*
X0404175Y0372862D01*
X0404238Y0372863D01*
X0404300Y0372860D01*
X0404362Y0372853D01*
X0404424Y0372842D01*
X0404484Y0372827D01*
X0404544Y0372809D01*
X0404602Y0372787D01*
X0404659Y0372761D01*
X0404714Y0372731D01*
X0404767Y0372698D01*
X0404818Y0372662D01*
X0404866Y0372623D01*
X0404912Y0372580D01*
X0404955Y0372535D01*
X0404995Y0372487D01*
X0405032Y0372437D01*
X0405066Y0372384D01*
X0405097Y0372330D01*
X0405123Y0372274D01*
X0405147Y0372216D01*
X0405166Y0372156D01*
X0405182Y0372096D01*
X0405194Y0372034D01*
X0405202Y0371973D01*
X0405206Y0371910D01*
X0405206Y0371848D01*
X0405202Y0371785D01*
X0405194Y0371724D01*
X0405182Y0371662D01*
X0405166Y0371602D01*
X0405147Y0371542D01*
X0405123Y0371484D01*
X0405097Y0371428D01*
X0405066Y0371374D01*
X0405032Y0371321D01*
X0404995Y0371271D01*
X0404955Y0371223D01*
X0404912Y0371178D01*
X0404866Y0371135D01*
X0404818Y0371096D01*
X0404767Y0371060D01*
X0404714Y0371027D01*
X0404659Y0370997D01*
X0404602Y0370971D01*
X0404544Y0370949D01*
X0404484Y0370931D01*
X0404424Y0370916D01*
X0404362Y0370905D01*
X0404300Y0370898D01*
X0404238Y0370895D01*
X0404175Y0370896D01*
X0404113Y0370901D01*
X0404051Y0370910D01*
X0403990Y0370923D01*
X0403930Y0370939D01*
X0403871Y0370960D01*
X0403813Y0370984D01*
X0403757Y0371012D01*
X0403703Y0371043D01*
X0403651Y0371077D01*
X0403602Y0371115D01*
X0403554Y0371156D01*
X0403510Y0371200D01*
X0403468Y0371246D01*
X0403430Y0371296D01*
X0403394Y0371347D01*
X0403362Y0371401D01*
X0403334Y0371456D01*
X0403308Y0371513D01*
X0403287Y0371572D01*
X0403270Y0371632D01*
X0403256Y0371693D01*
X0403246Y0371754D01*
X0403240Y0371817D01*
X0403238Y0371879D01*
X0403238Y0375816D02*
X0403240Y0375878D01*
X0403246Y0375941D01*
X0403256Y0376002D01*
X0403270Y0376063D01*
X0403287Y0376123D01*
X0403308Y0376182D01*
X0403334Y0376239D01*
X0403362Y0376294D01*
X0403394Y0376348D01*
X0403430Y0376399D01*
X0403468Y0376449D01*
X0403510Y0376495D01*
X0403554Y0376539D01*
X0403602Y0376580D01*
X0403651Y0376618D01*
X0403703Y0376652D01*
X0403757Y0376683D01*
X0403813Y0376711D01*
X0403871Y0376735D01*
X0403930Y0376756D01*
X0403990Y0376772D01*
X0404051Y0376785D01*
X0404113Y0376794D01*
X0404175Y0376799D01*
X0404238Y0376800D01*
X0404300Y0376797D01*
X0404362Y0376790D01*
X0404424Y0376779D01*
X0404484Y0376764D01*
X0404544Y0376746D01*
X0404602Y0376724D01*
X0404659Y0376698D01*
X0404714Y0376668D01*
X0404767Y0376635D01*
X0404818Y0376599D01*
X0404866Y0376560D01*
X0404912Y0376517D01*
X0404955Y0376472D01*
X0404995Y0376424D01*
X0405032Y0376374D01*
X0405066Y0376321D01*
X0405097Y0376267D01*
X0405123Y0376211D01*
X0405147Y0376153D01*
X0405166Y0376093D01*
X0405182Y0376033D01*
X0405194Y0375971D01*
X0405202Y0375910D01*
X0405206Y0375847D01*
X0405206Y0375785D01*
X0405202Y0375722D01*
X0405194Y0375661D01*
X0405182Y0375599D01*
X0405166Y0375539D01*
X0405147Y0375479D01*
X0405123Y0375421D01*
X0405097Y0375365D01*
X0405066Y0375311D01*
X0405032Y0375258D01*
X0404995Y0375208D01*
X0404955Y0375160D01*
X0404912Y0375115D01*
X0404866Y0375072D01*
X0404818Y0375033D01*
X0404767Y0374997D01*
X0404714Y0374964D01*
X0404659Y0374934D01*
X0404602Y0374908D01*
X0404544Y0374886D01*
X0404484Y0374868D01*
X0404424Y0374853D01*
X0404362Y0374842D01*
X0404300Y0374835D01*
X0404238Y0374832D01*
X0404175Y0374833D01*
X0404113Y0374838D01*
X0404051Y0374847D01*
X0403990Y0374860D01*
X0403930Y0374876D01*
X0403871Y0374897D01*
X0403813Y0374921D01*
X0403757Y0374949D01*
X0403703Y0374980D01*
X0403651Y0375014D01*
X0403602Y0375052D01*
X0403554Y0375093D01*
X0403510Y0375137D01*
X0403468Y0375183D01*
X0403430Y0375233D01*
X0403394Y0375284D01*
X0403362Y0375338D01*
X0403334Y0375393D01*
X0403308Y0375450D01*
X0403287Y0375509D01*
X0403270Y0375569D01*
X0403256Y0375630D01*
X0403246Y0375691D01*
X0403240Y0375754D01*
X0403238Y0375816D01*
X0407175Y0375816D02*
X0407177Y0375878D01*
X0407183Y0375941D01*
X0407193Y0376002D01*
X0407207Y0376063D01*
X0407224Y0376123D01*
X0407245Y0376182D01*
X0407271Y0376239D01*
X0407299Y0376294D01*
X0407331Y0376348D01*
X0407367Y0376399D01*
X0407405Y0376449D01*
X0407447Y0376495D01*
X0407491Y0376539D01*
X0407539Y0376580D01*
X0407588Y0376618D01*
X0407640Y0376652D01*
X0407694Y0376683D01*
X0407750Y0376711D01*
X0407808Y0376735D01*
X0407867Y0376756D01*
X0407927Y0376772D01*
X0407988Y0376785D01*
X0408050Y0376794D01*
X0408112Y0376799D01*
X0408175Y0376800D01*
X0408237Y0376797D01*
X0408299Y0376790D01*
X0408361Y0376779D01*
X0408421Y0376764D01*
X0408481Y0376746D01*
X0408539Y0376724D01*
X0408596Y0376698D01*
X0408651Y0376668D01*
X0408704Y0376635D01*
X0408755Y0376599D01*
X0408803Y0376560D01*
X0408849Y0376517D01*
X0408892Y0376472D01*
X0408932Y0376424D01*
X0408969Y0376374D01*
X0409003Y0376321D01*
X0409034Y0376267D01*
X0409060Y0376211D01*
X0409084Y0376153D01*
X0409103Y0376093D01*
X0409119Y0376033D01*
X0409131Y0375971D01*
X0409139Y0375910D01*
X0409143Y0375847D01*
X0409143Y0375785D01*
X0409139Y0375722D01*
X0409131Y0375661D01*
X0409119Y0375599D01*
X0409103Y0375539D01*
X0409084Y0375479D01*
X0409060Y0375421D01*
X0409034Y0375365D01*
X0409003Y0375311D01*
X0408969Y0375258D01*
X0408932Y0375208D01*
X0408892Y0375160D01*
X0408849Y0375115D01*
X0408803Y0375072D01*
X0408755Y0375033D01*
X0408704Y0374997D01*
X0408651Y0374964D01*
X0408596Y0374934D01*
X0408539Y0374908D01*
X0408481Y0374886D01*
X0408421Y0374868D01*
X0408361Y0374853D01*
X0408299Y0374842D01*
X0408237Y0374835D01*
X0408175Y0374832D01*
X0408112Y0374833D01*
X0408050Y0374838D01*
X0407988Y0374847D01*
X0407927Y0374860D01*
X0407867Y0374876D01*
X0407808Y0374897D01*
X0407750Y0374921D01*
X0407694Y0374949D01*
X0407640Y0374980D01*
X0407588Y0375014D01*
X0407539Y0375052D01*
X0407491Y0375093D01*
X0407447Y0375137D01*
X0407405Y0375183D01*
X0407367Y0375233D01*
X0407331Y0375284D01*
X0407299Y0375338D01*
X0407271Y0375393D01*
X0407245Y0375450D01*
X0407224Y0375509D01*
X0407207Y0375569D01*
X0407193Y0375630D01*
X0407183Y0375691D01*
X0407177Y0375754D01*
X0407175Y0375816D01*
X0407175Y0371879D02*
X0407177Y0371941D01*
X0407183Y0372004D01*
X0407193Y0372065D01*
X0407207Y0372126D01*
X0407224Y0372186D01*
X0407245Y0372245D01*
X0407271Y0372302D01*
X0407299Y0372357D01*
X0407331Y0372411D01*
X0407367Y0372462D01*
X0407405Y0372512D01*
X0407447Y0372558D01*
X0407491Y0372602D01*
X0407539Y0372643D01*
X0407588Y0372681D01*
X0407640Y0372715D01*
X0407694Y0372746D01*
X0407750Y0372774D01*
X0407808Y0372798D01*
X0407867Y0372819D01*
X0407927Y0372835D01*
X0407988Y0372848D01*
X0408050Y0372857D01*
X0408112Y0372862D01*
X0408175Y0372863D01*
X0408237Y0372860D01*
X0408299Y0372853D01*
X0408361Y0372842D01*
X0408421Y0372827D01*
X0408481Y0372809D01*
X0408539Y0372787D01*
X0408596Y0372761D01*
X0408651Y0372731D01*
X0408704Y0372698D01*
X0408755Y0372662D01*
X0408803Y0372623D01*
X0408849Y0372580D01*
X0408892Y0372535D01*
X0408932Y0372487D01*
X0408969Y0372437D01*
X0409003Y0372384D01*
X0409034Y0372330D01*
X0409060Y0372274D01*
X0409084Y0372216D01*
X0409103Y0372156D01*
X0409119Y0372096D01*
X0409131Y0372034D01*
X0409139Y0371973D01*
X0409143Y0371910D01*
X0409143Y0371848D01*
X0409139Y0371785D01*
X0409131Y0371724D01*
X0409119Y0371662D01*
X0409103Y0371602D01*
X0409084Y0371542D01*
X0409060Y0371484D01*
X0409034Y0371428D01*
X0409003Y0371374D01*
X0408969Y0371321D01*
X0408932Y0371271D01*
X0408892Y0371223D01*
X0408849Y0371178D01*
X0408803Y0371135D01*
X0408755Y0371096D01*
X0408704Y0371060D01*
X0408651Y0371027D01*
X0408596Y0370997D01*
X0408539Y0370971D01*
X0408481Y0370949D01*
X0408421Y0370931D01*
X0408361Y0370916D01*
X0408299Y0370905D01*
X0408237Y0370898D01*
X0408175Y0370895D01*
X0408112Y0370896D01*
X0408050Y0370901D01*
X0407988Y0370910D01*
X0407927Y0370923D01*
X0407867Y0370939D01*
X0407808Y0370960D01*
X0407750Y0370984D01*
X0407694Y0371012D01*
X0407640Y0371043D01*
X0407588Y0371077D01*
X0407539Y0371115D01*
X0407491Y0371156D01*
X0407447Y0371200D01*
X0407405Y0371246D01*
X0407367Y0371296D01*
X0407331Y0371347D01*
X0407299Y0371401D01*
X0407271Y0371456D01*
X0407245Y0371513D01*
X0407224Y0371572D01*
X0407207Y0371632D01*
X0407193Y0371693D01*
X0407183Y0371754D01*
X0407177Y0371817D01*
X0407175Y0371879D01*
X0084340Y0371879D02*
X0084342Y0371941D01*
X0084348Y0372004D01*
X0084358Y0372065D01*
X0084372Y0372126D01*
X0084389Y0372186D01*
X0084410Y0372245D01*
X0084436Y0372302D01*
X0084464Y0372357D01*
X0084496Y0372411D01*
X0084532Y0372462D01*
X0084570Y0372512D01*
X0084612Y0372558D01*
X0084656Y0372602D01*
X0084704Y0372643D01*
X0084753Y0372681D01*
X0084805Y0372715D01*
X0084859Y0372746D01*
X0084915Y0372774D01*
X0084973Y0372798D01*
X0085032Y0372819D01*
X0085092Y0372835D01*
X0085153Y0372848D01*
X0085215Y0372857D01*
X0085277Y0372862D01*
X0085340Y0372863D01*
X0085402Y0372860D01*
X0085464Y0372853D01*
X0085526Y0372842D01*
X0085586Y0372827D01*
X0085646Y0372809D01*
X0085704Y0372787D01*
X0085761Y0372761D01*
X0085816Y0372731D01*
X0085869Y0372698D01*
X0085920Y0372662D01*
X0085968Y0372623D01*
X0086014Y0372580D01*
X0086057Y0372535D01*
X0086097Y0372487D01*
X0086134Y0372437D01*
X0086168Y0372384D01*
X0086199Y0372330D01*
X0086225Y0372274D01*
X0086249Y0372216D01*
X0086268Y0372156D01*
X0086284Y0372096D01*
X0086296Y0372034D01*
X0086304Y0371973D01*
X0086308Y0371910D01*
X0086308Y0371848D01*
X0086304Y0371785D01*
X0086296Y0371724D01*
X0086284Y0371662D01*
X0086268Y0371602D01*
X0086249Y0371542D01*
X0086225Y0371484D01*
X0086199Y0371428D01*
X0086168Y0371374D01*
X0086134Y0371321D01*
X0086097Y0371271D01*
X0086057Y0371223D01*
X0086014Y0371178D01*
X0085968Y0371135D01*
X0085920Y0371096D01*
X0085869Y0371060D01*
X0085816Y0371027D01*
X0085761Y0370997D01*
X0085704Y0370971D01*
X0085646Y0370949D01*
X0085586Y0370931D01*
X0085526Y0370916D01*
X0085464Y0370905D01*
X0085402Y0370898D01*
X0085340Y0370895D01*
X0085277Y0370896D01*
X0085215Y0370901D01*
X0085153Y0370910D01*
X0085092Y0370923D01*
X0085032Y0370939D01*
X0084973Y0370960D01*
X0084915Y0370984D01*
X0084859Y0371012D01*
X0084805Y0371043D01*
X0084753Y0371077D01*
X0084704Y0371115D01*
X0084656Y0371156D01*
X0084612Y0371200D01*
X0084570Y0371246D01*
X0084532Y0371296D01*
X0084496Y0371347D01*
X0084464Y0371401D01*
X0084436Y0371456D01*
X0084410Y0371513D01*
X0084389Y0371572D01*
X0084372Y0371632D01*
X0084358Y0371693D01*
X0084348Y0371754D01*
X0084342Y0371817D01*
X0084340Y0371879D01*
X0080403Y0371879D02*
X0080405Y0371941D01*
X0080411Y0372004D01*
X0080421Y0372065D01*
X0080435Y0372126D01*
X0080452Y0372186D01*
X0080473Y0372245D01*
X0080499Y0372302D01*
X0080527Y0372357D01*
X0080559Y0372411D01*
X0080595Y0372462D01*
X0080633Y0372512D01*
X0080675Y0372558D01*
X0080719Y0372602D01*
X0080767Y0372643D01*
X0080816Y0372681D01*
X0080868Y0372715D01*
X0080922Y0372746D01*
X0080978Y0372774D01*
X0081036Y0372798D01*
X0081095Y0372819D01*
X0081155Y0372835D01*
X0081216Y0372848D01*
X0081278Y0372857D01*
X0081340Y0372862D01*
X0081403Y0372863D01*
X0081465Y0372860D01*
X0081527Y0372853D01*
X0081589Y0372842D01*
X0081649Y0372827D01*
X0081709Y0372809D01*
X0081767Y0372787D01*
X0081824Y0372761D01*
X0081879Y0372731D01*
X0081932Y0372698D01*
X0081983Y0372662D01*
X0082031Y0372623D01*
X0082077Y0372580D01*
X0082120Y0372535D01*
X0082160Y0372487D01*
X0082197Y0372437D01*
X0082231Y0372384D01*
X0082262Y0372330D01*
X0082288Y0372274D01*
X0082312Y0372216D01*
X0082331Y0372156D01*
X0082347Y0372096D01*
X0082359Y0372034D01*
X0082367Y0371973D01*
X0082371Y0371910D01*
X0082371Y0371848D01*
X0082367Y0371785D01*
X0082359Y0371724D01*
X0082347Y0371662D01*
X0082331Y0371602D01*
X0082312Y0371542D01*
X0082288Y0371484D01*
X0082262Y0371428D01*
X0082231Y0371374D01*
X0082197Y0371321D01*
X0082160Y0371271D01*
X0082120Y0371223D01*
X0082077Y0371178D01*
X0082031Y0371135D01*
X0081983Y0371096D01*
X0081932Y0371060D01*
X0081879Y0371027D01*
X0081824Y0370997D01*
X0081767Y0370971D01*
X0081709Y0370949D01*
X0081649Y0370931D01*
X0081589Y0370916D01*
X0081527Y0370905D01*
X0081465Y0370898D01*
X0081403Y0370895D01*
X0081340Y0370896D01*
X0081278Y0370901D01*
X0081216Y0370910D01*
X0081155Y0370923D01*
X0081095Y0370939D01*
X0081036Y0370960D01*
X0080978Y0370984D01*
X0080922Y0371012D01*
X0080868Y0371043D01*
X0080816Y0371077D01*
X0080767Y0371115D01*
X0080719Y0371156D01*
X0080675Y0371200D01*
X0080633Y0371246D01*
X0080595Y0371296D01*
X0080559Y0371347D01*
X0080527Y0371401D01*
X0080499Y0371456D01*
X0080473Y0371513D01*
X0080452Y0371572D01*
X0080435Y0371632D01*
X0080421Y0371693D01*
X0080411Y0371754D01*
X0080405Y0371817D01*
X0080403Y0371879D01*
X0076466Y0371879D02*
X0076468Y0371941D01*
X0076474Y0372004D01*
X0076484Y0372065D01*
X0076498Y0372126D01*
X0076515Y0372186D01*
X0076536Y0372245D01*
X0076562Y0372302D01*
X0076590Y0372357D01*
X0076622Y0372411D01*
X0076658Y0372462D01*
X0076696Y0372512D01*
X0076738Y0372558D01*
X0076782Y0372602D01*
X0076830Y0372643D01*
X0076879Y0372681D01*
X0076931Y0372715D01*
X0076985Y0372746D01*
X0077041Y0372774D01*
X0077099Y0372798D01*
X0077158Y0372819D01*
X0077218Y0372835D01*
X0077279Y0372848D01*
X0077341Y0372857D01*
X0077403Y0372862D01*
X0077466Y0372863D01*
X0077528Y0372860D01*
X0077590Y0372853D01*
X0077652Y0372842D01*
X0077712Y0372827D01*
X0077772Y0372809D01*
X0077830Y0372787D01*
X0077887Y0372761D01*
X0077942Y0372731D01*
X0077995Y0372698D01*
X0078046Y0372662D01*
X0078094Y0372623D01*
X0078140Y0372580D01*
X0078183Y0372535D01*
X0078223Y0372487D01*
X0078260Y0372437D01*
X0078294Y0372384D01*
X0078325Y0372330D01*
X0078351Y0372274D01*
X0078375Y0372216D01*
X0078394Y0372156D01*
X0078410Y0372096D01*
X0078422Y0372034D01*
X0078430Y0371973D01*
X0078434Y0371910D01*
X0078434Y0371848D01*
X0078430Y0371785D01*
X0078422Y0371724D01*
X0078410Y0371662D01*
X0078394Y0371602D01*
X0078375Y0371542D01*
X0078351Y0371484D01*
X0078325Y0371428D01*
X0078294Y0371374D01*
X0078260Y0371321D01*
X0078223Y0371271D01*
X0078183Y0371223D01*
X0078140Y0371178D01*
X0078094Y0371135D01*
X0078046Y0371096D01*
X0077995Y0371060D01*
X0077942Y0371027D01*
X0077887Y0370997D01*
X0077830Y0370971D01*
X0077772Y0370949D01*
X0077712Y0370931D01*
X0077652Y0370916D01*
X0077590Y0370905D01*
X0077528Y0370898D01*
X0077466Y0370895D01*
X0077403Y0370896D01*
X0077341Y0370901D01*
X0077279Y0370910D01*
X0077218Y0370923D01*
X0077158Y0370939D01*
X0077099Y0370960D01*
X0077041Y0370984D01*
X0076985Y0371012D01*
X0076931Y0371043D01*
X0076879Y0371077D01*
X0076830Y0371115D01*
X0076782Y0371156D01*
X0076738Y0371200D01*
X0076696Y0371246D01*
X0076658Y0371296D01*
X0076622Y0371347D01*
X0076590Y0371401D01*
X0076562Y0371456D01*
X0076536Y0371513D01*
X0076515Y0371572D01*
X0076498Y0371632D01*
X0076484Y0371693D01*
X0076474Y0371754D01*
X0076468Y0371817D01*
X0076466Y0371879D01*
X0076466Y0375816D02*
X0076468Y0375878D01*
X0076474Y0375941D01*
X0076484Y0376002D01*
X0076498Y0376063D01*
X0076515Y0376123D01*
X0076536Y0376182D01*
X0076562Y0376239D01*
X0076590Y0376294D01*
X0076622Y0376348D01*
X0076658Y0376399D01*
X0076696Y0376449D01*
X0076738Y0376495D01*
X0076782Y0376539D01*
X0076830Y0376580D01*
X0076879Y0376618D01*
X0076931Y0376652D01*
X0076985Y0376683D01*
X0077041Y0376711D01*
X0077099Y0376735D01*
X0077158Y0376756D01*
X0077218Y0376772D01*
X0077279Y0376785D01*
X0077341Y0376794D01*
X0077403Y0376799D01*
X0077466Y0376800D01*
X0077528Y0376797D01*
X0077590Y0376790D01*
X0077652Y0376779D01*
X0077712Y0376764D01*
X0077772Y0376746D01*
X0077830Y0376724D01*
X0077887Y0376698D01*
X0077942Y0376668D01*
X0077995Y0376635D01*
X0078046Y0376599D01*
X0078094Y0376560D01*
X0078140Y0376517D01*
X0078183Y0376472D01*
X0078223Y0376424D01*
X0078260Y0376374D01*
X0078294Y0376321D01*
X0078325Y0376267D01*
X0078351Y0376211D01*
X0078375Y0376153D01*
X0078394Y0376093D01*
X0078410Y0376033D01*
X0078422Y0375971D01*
X0078430Y0375910D01*
X0078434Y0375847D01*
X0078434Y0375785D01*
X0078430Y0375722D01*
X0078422Y0375661D01*
X0078410Y0375599D01*
X0078394Y0375539D01*
X0078375Y0375479D01*
X0078351Y0375421D01*
X0078325Y0375365D01*
X0078294Y0375311D01*
X0078260Y0375258D01*
X0078223Y0375208D01*
X0078183Y0375160D01*
X0078140Y0375115D01*
X0078094Y0375072D01*
X0078046Y0375033D01*
X0077995Y0374997D01*
X0077942Y0374964D01*
X0077887Y0374934D01*
X0077830Y0374908D01*
X0077772Y0374886D01*
X0077712Y0374868D01*
X0077652Y0374853D01*
X0077590Y0374842D01*
X0077528Y0374835D01*
X0077466Y0374832D01*
X0077403Y0374833D01*
X0077341Y0374838D01*
X0077279Y0374847D01*
X0077218Y0374860D01*
X0077158Y0374876D01*
X0077099Y0374897D01*
X0077041Y0374921D01*
X0076985Y0374949D01*
X0076931Y0374980D01*
X0076879Y0375014D01*
X0076830Y0375052D01*
X0076782Y0375093D01*
X0076738Y0375137D01*
X0076696Y0375183D01*
X0076658Y0375233D01*
X0076622Y0375284D01*
X0076590Y0375338D01*
X0076562Y0375393D01*
X0076536Y0375450D01*
X0076515Y0375509D01*
X0076498Y0375569D01*
X0076484Y0375630D01*
X0076474Y0375691D01*
X0076468Y0375754D01*
X0076466Y0375816D01*
X0076466Y0379753D02*
X0076468Y0379815D01*
X0076474Y0379878D01*
X0076484Y0379939D01*
X0076498Y0380000D01*
X0076515Y0380060D01*
X0076536Y0380119D01*
X0076562Y0380176D01*
X0076590Y0380231D01*
X0076622Y0380285D01*
X0076658Y0380336D01*
X0076696Y0380386D01*
X0076738Y0380432D01*
X0076782Y0380476D01*
X0076830Y0380517D01*
X0076879Y0380555D01*
X0076931Y0380589D01*
X0076985Y0380620D01*
X0077041Y0380648D01*
X0077099Y0380672D01*
X0077158Y0380693D01*
X0077218Y0380709D01*
X0077279Y0380722D01*
X0077341Y0380731D01*
X0077403Y0380736D01*
X0077466Y0380737D01*
X0077528Y0380734D01*
X0077590Y0380727D01*
X0077652Y0380716D01*
X0077712Y0380701D01*
X0077772Y0380683D01*
X0077830Y0380661D01*
X0077887Y0380635D01*
X0077942Y0380605D01*
X0077995Y0380572D01*
X0078046Y0380536D01*
X0078094Y0380497D01*
X0078140Y0380454D01*
X0078183Y0380409D01*
X0078223Y0380361D01*
X0078260Y0380311D01*
X0078294Y0380258D01*
X0078325Y0380204D01*
X0078351Y0380148D01*
X0078375Y0380090D01*
X0078394Y0380030D01*
X0078410Y0379970D01*
X0078422Y0379908D01*
X0078430Y0379847D01*
X0078434Y0379784D01*
X0078434Y0379722D01*
X0078430Y0379659D01*
X0078422Y0379598D01*
X0078410Y0379536D01*
X0078394Y0379476D01*
X0078375Y0379416D01*
X0078351Y0379358D01*
X0078325Y0379302D01*
X0078294Y0379248D01*
X0078260Y0379195D01*
X0078223Y0379145D01*
X0078183Y0379097D01*
X0078140Y0379052D01*
X0078094Y0379009D01*
X0078046Y0378970D01*
X0077995Y0378934D01*
X0077942Y0378901D01*
X0077887Y0378871D01*
X0077830Y0378845D01*
X0077772Y0378823D01*
X0077712Y0378805D01*
X0077652Y0378790D01*
X0077590Y0378779D01*
X0077528Y0378772D01*
X0077466Y0378769D01*
X0077403Y0378770D01*
X0077341Y0378775D01*
X0077279Y0378784D01*
X0077218Y0378797D01*
X0077158Y0378813D01*
X0077099Y0378834D01*
X0077041Y0378858D01*
X0076985Y0378886D01*
X0076931Y0378917D01*
X0076879Y0378951D01*
X0076830Y0378989D01*
X0076782Y0379030D01*
X0076738Y0379074D01*
X0076696Y0379120D01*
X0076658Y0379170D01*
X0076622Y0379221D01*
X0076590Y0379275D01*
X0076562Y0379330D01*
X0076536Y0379387D01*
X0076515Y0379446D01*
X0076498Y0379506D01*
X0076484Y0379567D01*
X0076474Y0379628D01*
X0076468Y0379691D01*
X0076466Y0379753D01*
X0080403Y0379753D02*
X0080405Y0379815D01*
X0080411Y0379878D01*
X0080421Y0379939D01*
X0080435Y0380000D01*
X0080452Y0380060D01*
X0080473Y0380119D01*
X0080499Y0380176D01*
X0080527Y0380231D01*
X0080559Y0380285D01*
X0080595Y0380336D01*
X0080633Y0380386D01*
X0080675Y0380432D01*
X0080719Y0380476D01*
X0080767Y0380517D01*
X0080816Y0380555D01*
X0080868Y0380589D01*
X0080922Y0380620D01*
X0080978Y0380648D01*
X0081036Y0380672D01*
X0081095Y0380693D01*
X0081155Y0380709D01*
X0081216Y0380722D01*
X0081278Y0380731D01*
X0081340Y0380736D01*
X0081403Y0380737D01*
X0081465Y0380734D01*
X0081527Y0380727D01*
X0081589Y0380716D01*
X0081649Y0380701D01*
X0081709Y0380683D01*
X0081767Y0380661D01*
X0081824Y0380635D01*
X0081879Y0380605D01*
X0081932Y0380572D01*
X0081983Y0380536D01*
X0082031Y0380497D01*
X0082077Y0380454D01*
X0082120Y0380409D01*
X0082160Y0380361D01*
X0082197Y0380311D01*
X0082231Y0380258D01*
X0082262Y0380204D01*
X0082288Y0380148D01*
X0082312Y0380090D01*
X0082331Y0380030D01*
X0082347Y0379970D01*
X0082359Y0379908D01*
X0082367Y0379847D01*
X0082371Y0379784D01*
X0082371Y0379722D01*
X0082367Y0379659D01*
X0082359Y0379598D01*
X0082347Y0379536D01*
X0082331Y0379476D01*
X0082312Y0379416D01*
X0082288Y0379358D01*
X0082262Y0379302D01*
X0082231Y0379248D01*
X0082197Y0379195D01*
X0082160Y0379145D01*
X0082120Y0379097D01*
X0082077Y0379052D01*
X0082031Y0379009D01*
X0081983Y0378970D01*
X0081932Y0378934D01*
X0081879Y0378901D01*
X0081824Y0378871D01*
X0081767Y0378845D01*
X0081709Y0378823D01*
X0081649Y0378805D01*
X0081589Y0378790D01*
X0081527Y0378779D01*
X0081465Y0378772D01*
X0081403Y0378769D01*
X0081340Y0378770D01*
X0081278Y0378775D01*
X0081216Y0378784D01*
X0081155Y0378797D01*
X0081095Y0378813D01*
X0081036Y0378834D01*
X0080978Y0378858D01*
X0080922Y0378886D01*
X0080868Y0378917D01*
X0080816Y0378951D01*
X0080767Y0378989D01*
X0080719Y0379030D01*
X0080675Y0379074D01*
X0080633Y0379120D01*
X0080595Y0379170D01*
X0080559Y0379221D01*
X0080527Y0379275D01*
X0080499Y0379330D01*
X0080473Y0379387D01*
X0080452Y0379446D01*
X0080435Y0379506D01*
X0080421Y0379567D01*
X0080411Y0379628D01*
X0080405Y0379691D01*
X0080403Y0379753D01*
X0080403Y0375816D02*
X0080405Y0375878D01*
X0080411Y0375941D01*
X0080421Y0376002D01*
X0080435Y0376063D01*
X0080452Y0376123D01*
X0080473Y0376182D01*
X0080499Y0376239D01*
X0080527Y0376294D01*
X0080559Y0376348D01*
X0080595Y0376399D01*
X0080633Y0376449D01*
X0080675Y0376495D01*
X0080719Y0376539D01*
X0080767Y0376580D01*
X0080816Y0376618D01*
X0080868Y0376652D01*
X0080922Y0376683D01*
X0080978Y0376711D01*
X0081036Y0376735D01*
X0081095Y0376756D01*
X0081155Y0376772D01*
X0081216Y0376785D01*
X0081278Y0376794D01*
X0081340Y0376799D01*
X0081403Y0376800D01*
X0081465Y0376797D01*
X0081527Y0376790D01*
X0081589Y0376779D01*
X0081649Y0376764D01*
X0081709Y0376746D01*
X0081767Y0376724D01*
X0081824Y0376698D01*
X0081879Y0376668D01*
X0081932Y0376635D01*
X0081983Y0376599D01*
X0082031Y0376560D01*
X0082077Y0376517D01*
X0082120Y0376472D01*
X0082160Y0376424D01*
X0082197Y0376374D01*
X0082231Y0376321D01*
X0082262Y0376267D01*
X0082288Y0376211D01*
X0082312Y0376153D01*
X0082331Y0376093D01*
X0082347Y0376033D01*
X0082359Y0375971D01*
X0082367Y0375910D01*
X0082371Y0375847D01*
X0082371Y0375785D01*
X0082367Y0375722D01*
X0082359Y0375661D01*
X0082347Y0375599D01*
X0082331Y0375539D01*
X0082312Y0375479D01*
X0082288Y0375421D01*
X0082262Y0375365D01*
X0082231Y0375311D01*
X0082197Y0375258D01*
X0082160Y0375208D01*
X0082120Y0375160D01*
X0082077Y0375115D01*
X0082031Y0375072D01*
X0081983Y0375033D01*
X0081932Y0374997D01*
X0081879Y0374964D01*
X0081824Y0374934D01*
X0081767Y0374908D01*
X0081709Y0374886D01*
X0081649Y0374868D01*
X0081589Y0374853D01*
X0081527Y0374842D01*
X0081465Y0374835D01*
X0081403Y0374832D01*
X0081340Y0374833D01*
X0081278Y0374838D01*
X0081216Y0374847D01*
X0081155Y0374860D01*
X0081095Y0374876D01*
X0081036Y0374897D01*
X0080978Y0374921D01*
X0080922Y0374949D01*
X0080868Y0374980D01*
X0080816Y0375014D01*
X0080767Y0375052D01*
X0080719Y0375093D01*
X0080675Y0375137D01*
X0080633Y0375183D01*
X0080595Y0375233D01*
X0080559Y0375284D01*
X0080527Y0375338D01*
X0080499Y0375393D01*
X0080473Y0375450D01*
X0080452Y0375509D01*
X0080435Y0375569D01*
X0080421Y0375630D01*
X0080411Y0375691D01*
X0080405Y0375754D01*
X0080403Y0375816D01*
X0084340Y0375816D02*
X0084342Y0375878D01*
X0084348Y0375941D01*
X0084358Y0376002D01*
X0084372Y0376063D01*
X0084389Y0376123D01*
X0084410Y0376182D01*
X0084436Y0376239D01*
X0084464Y0376294D01*
X0084496Y0376348D01*
X0084532Y0376399D01*
X0084570Y0376449D01*
X0084612Y0376495D01*
X0084656Y0376539D01*
X0084704Y0376580D01*
X0084753Y0376618D01*
X0084805Y0376652D01*
X0084859Y0376683D01*
X0084915Y0376711D01*
X0084973Y0376735D01*
X0085032Y0376756D01*
X0085092Y0376772D01*
X0085153Y0376785D01*
X0085215Y0376794D01*
X0085277Y0376799D01*
X0085340Y0376800D01*
X0085402Y0376797D01*
X0085464Y0376790D01*
X0085526Y0376779D01*
X0085586Y0376764D01*
X0085646Y0376746D01*
X0085704Y0376724D01*
X0085761Y0376698D01*
X0085816Y0376668D01*
X0085869Y0376635D01*
X0085920Y0376599D01*
X0085968Y0376560D01*
X0086014Y0376517D01*
X0086057Y0376472D01*
X0086097Y0376424D01*
X0086134Y0376374D01*
X0086168Y0376321D01*
X0086199Y0376267D01*
X0086225Y0376211D01*
X0086249Y0376153D01*
X0086268Y0376093D01*
X0086284Y0376033D01*
X0086296Y0375971D01*
X0086304Y0375910D01*
X0086308Y0375847D01*
X0086308Y0375785D01*
X0086304Y0375722D01*
X0086296Y0375661D01*
X0086284Y0375599D01*
X0086268Y0375539D01*
X0086249Y0375479D01*
X0086225Y0375421D01*
X0086199Y0375365D01*
X0086168Y0375311D01*
X0086134Y0375258D01*
X0086097Y0375208D01*
X0086057Y0375160D01*
X0086014Y0375115D01*
X0085968Y0375072D01*
X0085920Y0375033D01*
X0085869Y0374997D01*
X0085816Y0374964D01*
X0085761Y0374934D01*
X0085704Y0374908D01*
X0085646Y0374886D01*
X0085586Y0374868D01*
X0085526Y0374853D01*
X0085464Y0374842D01*
X0085402Y0374835D01*
X0085340Y0374832D01*
X0085277Y0374833D01*
X0085215Y0374838D01*
X0085153Y0374847D01*
X0085092Y0374860D01*
X0085032Y0374876D01*
X0084973Y0374897D01*
X0084915Y0374921D01*
X0084859Y0374949D01*
X0084805Y0374980D01*
X0084753Y0375014D01*
X0084704Y0375052D01*
X0084656Y0375093D01*
X0084612Y0375137D01*
X0084570Y0375183D01*
X0084532Y0375233D01*
X0084496Y0375284D01*
X0084464Y0375338D01*
X0084436Y0375393D01*
X0084410Y0375450D01*
X0084389Y0375509D01*
X0084372Y0375569D01*
X0084358Y0375630D01*
X0084348Y0375691D01*
X0084342Y0375754D01*
X0084340Y0375816D01*
X0084340Y0379753D02*
X0084342Y0379815D01*
X0084348Y0379878D01*
X0084358Y0379939D01*
X0084372Y0380000D01*
X0084389Y0380060D01*
X0084410Y0380119D01*
X0084436Y0380176D01*
X0084464Y0380231D01*
X0084496Y0380285D01*
X0084532Y0380336D01*
X0084570Y0380386D01*
X0084612Y0380432D01*
X0084656Y0380476D01*
X0084704Y0380517D01*
X0084753Y0380555D01*
X0084805Y0380589D01*
X0084859Y0380620D01*
X0084915Y0380648D01*
X0084973Y0380672D01*
X0085032Y0380693D01*
X0085092Y0380709D01*
X0085153Y0380722D01*
X0085215Y0380731D01*
X0085277Y0380736D01*
X0085340Y0380737D01*
X0085402Y0380734D01*
X0085464Y0380727D01*
X0085526Y0380716D01*
X0085586Y0380701D01*
X0085646Y0380683D01*
X0085704Y0380661D01*
X0085761Y0380635D01*
X0085816Y0380605D01*
X0085869Y0380572D01*
X0085920Y0380536D01*
X0085968Y0380497D01*
X0086014Y0380454D01*
X0086057Y0380409D01*
X0086097Y0380361D01*
X0086134Y0380311D01*
X0086168Y0380258D01*
X0086199Y0380204D01*
X0086225Y0380148D01*
X0086249Y0380090D01*
X0086268Y0380030D01*
X0086284Y0379970D01*
X0086296Y0379908D01*
X0086304Y0379847D01*
X0086308Y0379784D01*
X0086308Y0379722D01*
X0086304Y0379659D01*
X0086296Y0379598D01*
X0086284Y0379536D01*
X0086268Y0379476D01*
X0086249Y0379416D01*
X0086225Y0379358D01*
X0086199Y0379302D01*
X0086168Y0379248D01*
X0086134Y0379195D01*
X0086097Y0379145D01*
X0086057Y0379097D01*
X0086014Y0379052D01*
X0085968Y0379009D01*
X0085920Y0378970D01*
X0085869Y0378934D01*
X0085816Y0378901D01*
X0085761Y0378871D01*
X0085704Y0378845D01*
X0085646Y0378823D01*
X0085586Y0378805D01*
X0085526Y0378790D01*
X0085464Y0378779D01*
X0085402Y0378772D01*
X0085340Y0378769D01*
X0085277Y0378770D01*
X0085215Y0378775D01*
X0085153Y0378784D01*
X0085092Y0378797D01*
X0085032Y0378813D01*
X0084973Y0378834D01*
X0084915Y0378858D01*
X0084859Y0378886D01*
X0084805Y0378917D01*
X0084753Y0378951D01*
X0084704Y0378989D01*
X0084656Y0379030D01*
X0084612Y0379074D01*
X0084570Y0379120D01*
X0084532Y0379170D01*
X0084496Y0379221D01*
X0084464Y0379275D01*
X0084436Y0379330D01*
X0084410Y0379387D01*
X0084389Y0379446D01*
X0084372Y0379506D01*
X0084358Y0379567D01*
X0084348Y0379628D01*
X0084342Y0379691D01*
X0084340Y0379753D01*
X0012096Y0388611D02*
X0012098Y0388742D01*
X0012104Y0388874D01*
X0012114Y0389005D01*
X0012128Y0389136D01*
X0012146Y0389266D01*
X0012168Y0389395D01*
X0012193Y0389524D01*
X0012223Y0389652D01*
X0012257Y0389779D01*
X0012294Y0389906D01*
X0012335Y0390030D01*
X0012380Y0390154D01*
X0012429Y0390276D01*
X0012481Y0390397D01*
X0012537Y0390515D01*
X0012597Y0390633D01*
X0012660Y0390748D01*
X0012727Y0390861D01*
X0012797Y0390973D01*
X0012870Y0391082D01*
X0012946Y0391188D01*
X0013026Y0391293D01*
X0013109Y0391395D01*
X0013195Y0391494D01*
X0013284Y0391591D01*
X0013376Y0391685D01*
X0013471Y0391776D01*
X0013568Y0391865D01*
X0013668Y0391950D01*
X0013771Y0392032D01*
X0013876Y0392111D01*
X0013983Y0392187D01*
X0014093Y0392259D01*
X0014205Y0392328D01*
X0014319Y0392394D01*
X0014434Y0392456D01*
X0014552Y0392515D01*
X0014671Y0392570D01*
X0014792Y0392622D01*
X0014915Y0392669D01*
X0015039Y0392713D01*
X0015164Y0392754D01*
X0015290Y0392790D01*
X0015418Y0392823D01*
X0015546Y0392851D01*
X0015675Y0392876D01*
X0015805Y0392897D01*
X0015935Y0392914D01*
X0016066Y0392927D01*
X0016197Y0392936D01*
X0016328Y0392941D01*
X0016460Y0392942D01*
X0016591Y0392939D01*
X0016723Y0392932D01*
X0016854Y0392921D01*
X0016984Y0392906D01*
X0017114Y0392887D01*
X0017244Y0392864D01*
X0017372Y0392838D01*
X0017500Y0392807D01*
X0017627Y0392772D01*
X0017753Y0392734D01*
X0017877Y0392692D01*
X0018001Y0392646D01*
X0018122Y0392596D01*
X0018242Y0392543D01*
X0018361Y0392486D01*
X0018478Y0392426D01*
X0018592Y0392362D01*
X0018705Y0392294D01*
X0018816Y0392223D01*
X0018925Y0392149D01*
X0019031Y0392072D01*
X0019135Y0391991D01*
X0019236Y0391908D01*
X0019335Y0391821D01*
X0019431Y0391731D01*
X0019524Y0391638D01*
X0019615Y0391543D01*
X0019702Y0391445D01*
X0019787Y0391344D01*
X0019868Y0391241D01*
X0019946Y0391135D01*
X0020021Y0391027D01*
X0020093Y0390917D01*
X0020161Y0390805D01*
X0020226Y0390691D01*
X0020287Y0390574D01*
X0020345Y0390456D01*
X0020399Y0390336D01*
X0020450Y0390215D01*
X0020497Y0390092D01*
X0020540Y0389968D01*
X0020579Y0389843D01*
X0020615Y0389716D01*
X0020646Y0389588D01*
X0020674Y0389460D01*
X0020698Y0389331D01*
X0020718Y0389201D01*
X0020734Y0389070D01*
X0020746Y0388939D01*
X0020754Y0388808D01*
X0020758Y0388677D01*
X0020758Y0388545D01*
X0020754Y0388414D01*
X0020746Y0388283D01*
X0020734Y0388152D01*
X0020718Y0388021D01*
X0020698Y0387891D01*
X0020674Y0387762D01*
X0020646Y0387634D01*
X0020615Y0387506D01*
X0020579Y0387379D01*
X0020540Y0387254D01*
X0020497Y0387130D01*
X0020450Y0387007D01*
X0020399Y0386886D01*
X0020345Y0386766D01*
X0020287Y0386648D01*
X0020226Y0386531D01*
X0020161Y0386417D01*
X0020093Y0386305D01*
X0020021Y0386195D01*
X0019946Y0386087D01*
X0019868Y0385981D01*
X0019787Y0385878D01*
X0019702Y0385777D01*
X0019615Y0385679D01*
X0019524Y0385584D01*
X0019431Y0385491D01*
X0019335Y0385401D01*
X0019236Y0385314D01*
X0019135Y0385231D01*
X0019031Y0385150D01*
X0018925Y0385073D01*
X0018816Y0384999D01*
X0018705Y0384928D01*
X0018593Y0384860D01*
X0018478Y0384796D01*
X0018361Y0384736D01*
X0018242Y0384679D01*
X0018122Y0384626D01*
X0018001Y0384576D01*
X0017877Y0384530D01*
X0017753Y0384488D01*
X0017627Y0384450D01*
X0017500Y0384415D01*
X0017372Y0384384D01*
X0017244Y0384358D01*
X0017114Y0384335D01*
X0016984Y0384316D01*
X0016854Y0384301D01*
X0016723Y0384290D01*
X0016591Y0384283D01*
X0016460Y0384280D01*
X0016328Y0384281D01*
X0016197Y0384286D01*
X0016066Y0384295D01*
X0015935Y0384308D01*
X0015805Y0384325D01*
X0015675Y0384346D01*
X0015546Y0384371D01*
X0015418Y0384399D01*
X0015290Y0384432D01*
X0015164Y0384468D01*
X0015039Y0384509D01*
X0014915Y0384553D01*
X0014792Y0384600D01*
X0014671Y0384652D01*
X0014552Y0384707D01*
X0014434Y0384766D01*
X0014319Y0384828D01*
X0014205Y0384894D01*
X0014093Y0384963D01*
X0013983Y0385035D01*
X0013876Y0385111D01*
X0013771Y0385190D01*
X0013668Y0385272D01*
X0013568Y0385357D01*
X0013471Y0385446D01*
X0013376Y0385537D01*
X0013284Y0385631D01*
X0013195Y0385728D01*
X0013109Y0385827D01*
X0013026Y0385929D01*
X0012946Y0386034D01*
X0012870Y0386140D01*
X0012797Y0386249D01*
X0012727Y0386361D01*
X0012660Y0386474D01*
X0012597Y0386589D01*
X0012537Y0386707D01*
X0012481Y0386825D01*
X0012429Y0386946D01*
X0012380Y0387068D01*
X0012335Y0387192D01*
X0012294Y0387316D01*
X0012257Y0387443D01*
X0012223Y0387570D01*
X0012193Y0387698D01*
X0012168Y0387827D01*
X0012146Y0387956D01*
X0012128Y0388086D01*
X0012114Y0388217D01*
X0012104Y0388348D01*
X0012098Y0388480D01*
X0012096Y0388611D01*
X0010128Y0356131D02*
X0010130Y0356289D01*
X0010136Y0356447D01*
X0010146Y0356605D01*
X0010160Y0356763D01*
X0010178Y0356920D01*
X0010199Y0357077D01*
X0010225Y0357233D01*
X0010255Y0357389D01*
X0010288Y0357544D01*
X0010326Y0357697D01*
X0010367Y0357850D01*
X0010412Y0358002D01*
X0010461Y0358153D01*
X0010514Y0358302D01*
X0010570Y0358450D01*
X0010630Y0358596D01*
X0010694Y0358741D01*
X0010762Y0358884D01*
X0010833Y0359026D01*
X0010907Y0359166D01*
X0010985Y0359303D01*
X0011067Y0359439D01*
X0011151Y0359573D01*
X0011240Y0359704D01*
X0011331Y0359833D01*
X0011426Y0359960D01*
X0011523Y0360085D01*
X0011624Y0360207D01*
X0011728Y0360326D01*
X0011835Y0360443D01*
X0011945Y0360557D01*
X0012058Y0360668D01*
X0012173Y0360777D01*
X0012291Y0360882D01*
X0012412Y0360984D01*
X0012535Y0361084D01*
X0012661Y0361180D01*
X0012789Y0361273D01*
X0012919Y0361363D01*
X0013052Y0361449D01*
X0013187Y0361533D01*
X0013323Y0361612D01*
X0013462Y0361689D01*
X0013603Y0361761D01*
X0013745Y0361831D01*
X0013889Y0361896D01*
X0014035Y0361958D01*
X0014182Y0362016D01*
X0014331Y0362071D01*
X0014481Y0362122D01*
X0014632Y0362169D01*
X0014784Y0362212D01*
X0014937Y0362251D01*
X0015092Y0362287D01*
X0015247Y0362318D01*
X0015403Y0362346D01*
X0015559Y0362370D01*
X0015716Y0362390D01*
X0015874Y0362406D01*
X0016031Y0362418D01*
X0016190Y0362426D01*
X0016348Y0362430D01*
X0016506Y0362430D01*
X0016664Y0362426D01*
X0016823Y0362418D01*
X0016980Y0362406D01*
X0017138Y0362390D01*
X0017295Y0362370D01*
X0017451Y0362346D01*
X0017607Y0362318D01*
X0017762Y0362287D01*
X0017917Y0362251D01*
X0018070Y0362212D01*
X0018222Y0362169D01*
X0018373Y0362122D01*
X0018523Y0362071D01*
X0018672Y0362016D01*
X0018819Y0361958D01*
X0018965Y0361896D01*
X0019109Y0361831D01*
X0019251Y0361761D01*
X0019392Y0361689D01*
X0019531Y0361612D01*
X0019667Y0361533D01*
X0019802Y0361449D01*
X0019935Y0361363D01*
X0020065Y0361273D01*
X0020193Y0361180D01*
X0020319Y0361084D01*
X0020442Y0360984D01*
X0020563Y0360882D01*
X0020681Y0360777D01*
X0020796Y0360668D01*
X0020909Y0360557D01*
X0021019Y0360443D01*
X0021126Y0360326D01*
X0021230Y0360207D01*
X0021331Y0360085D01*
X0021428Y0359960D01*
X0021523Y0359833D01*
X0021614Y0359704D01*
X0021703Y0359573D01*
X0021787Y0359439D01*
X0021869Y0359303D01*
X0021947Y0359166D01*
X0022021Y0359026D01*
X0022092Y0358884D01*
X0022160Y0358741D01*
X0022224Y0358596D01*
X0022284Y0358450D01*
X0022340Y0358302D01*
X0022393Y0358153D01*
X0022442Y0358002D01*
X0022487Y0357850D01*
X0022528Y0357697D01*
X0022566Y0357544D01*
X0022599Y0357389D01*
X0022629Y0357233D01*
X0022655Y0357077D01*
X0022676Y0356920D01*
X0022694Y0356763D01*
X0022708Y0356605D01*
X0022718Y0356447D01*
X0022724Y0356289D01*
X0022726Y0356131D01*
X0022724Y0355973D01*
X0022718Y0355815D01*
X0022708Y0355657D01*
X0022694Y0355499D01*
X0022676Y0355342D01*
X0022655Y0355185D01*
X0022629Y0355029D01*
X0022599Y0354873D01*
X0022566Y0354718D01*
X0022528Y0354565D01*
X0022487Y0354412D01*
X0022442Y0354260D01*
X0022393Y0354109D01*
X0022340Y0353960D01*
X0022284Y0353812D01*
X0022224Y0353666D01*
X0022160Y0353521D01*
X0022092Y0353378D01*
X0022021Y0353236D01*
X0021947Y0353096D01*
X0021869Y0352959D01*
X0021787Y0352823D01*
X0021703Y0352689D01*
X0021614Y0352558D01*
X0021523Y0352429D01*
X0021428Y0352302D01*
X0021331Y0352177D01*
X0021230Y0352055D01*
X0021126Y0351936D01*
X0021019Y0351819D01*
X0020909Y0351705D01*
X0020796Y0351594D01*
X0020681Y0351485D01*
X0020563Y0351380D01*
X0020442Y0351278D01*
X0020319Y0351178D01*
X0020193Y0351082D01*
X0020065Y0350989D01*
X0019935Y0350899D01*
X0019802Y0350813D01*
X0019667Y0350729D01*
X0019531Y0350650D01*
X0019392Y0350573D01*
X0019251Y0350501D01*
X0019109Y0350431D01*
X0018965Y0350366D01*
X0018819Y0350304D01*
X0018672Y0350246D01*
X0018523Y0350191D01*
X0018373Y0350140D01*
X0018222Y0350093D01*
X0018070Y0350050D01*
X0017917Y0350011D01*
X0017762Y0349975D01*
X0017607Y0349944D01*
X0017451Y0349916D01*
X0017295Y0349892D01*
X0017138Y0349872D01*
X0016980Y0349856D01*
X0016823Y0349844D01*
X0016664Y0349836D01*
X0016506Y0349832D01*
X0016348Y0349832D01*
X0016190Y0349836D01*
X0016031Y0349844D01*
X0015874Y0349856D01*
X0015716Y0349872D01*
X0015559Y0349892D01*
X0015403Y0349916D01*
X0015247Y0349944D01*
X0015092Y0349975D01*
X0014937Y0350011D01*
X0014784Y0350050D01*
X0014632Y0350093D01*
X0014481Y0350140D01*
X0014331Y0350191D01*
X0014182Y0350246D01*
X0014035Y0350304D01*
X0013889Y0350366D01*
X0013745Y0350431D01*
X0013603Y0350501D01*
X0013462Y0350573D01*
X0013323Y0350650D01*
X0013187Y0350729D01*
X0013052Y0350813D01*
X0012919Y0350899D01*
X0012789Y0350989D01*
X0012661Y0351082D01*
X0012535Y0351178D01*
X0012412Y0351278D01*
X0012291Y0351380D01*
X0012173Y0351485D01*
X0012058Y0351594D01*
X0011945Y0351705D01*
X0011835Y0351819D01*
X0011728Y0351936D01*
X0011624Y0352055D01*
X0011523Y0352177D01*
X0011426Y0352302D01*
X0011331Y0352429D01*
X0011240Y0352558D01*
X0011151Y0352689D01*
X0011067Y0352823D01*
X0010985Y0352959D01*
X0010907Y0353096D01*
X0010833Y0353236D01*
X0010762Y0353378D01*
X0010694Y0353521D01*
X0010630Y0353666D01*
X0010570Y0353812D01*
X0010514Y0353960D01*
X0010461Y0354109D01*
X0010412Y0354260D01*
X0010367Y0354412D01*
X0010326Y0354565D01*
X0010288Y0354718D01*
X0010255Y0354873D01*
X0010225Y0355029D01*
X0010199Y0355185D01*
X0010178Y0355342D01*
X0010160Y0355499D01*
X0010146Y0355657D01*
X0010136Y0355815D01*
X0010130Y0355973D01*
X0010128Y0356131D01*
D11*
X0002647Y0015580D02*
X0002647Y0001800D01*
X0482962Y0001800D01*
X0482962Y0015580D01*
X0412096Y0015580D01*
X0412096Y0027391D01*
X0482962Y0027391D01*
X0482962Y0369910D01*
X0412096Y0369910D01*
X0412096Y0381721D01*
X0482962Y0381721D01*
X0482962Y0395501D01*
X0002647Y0395501D01*
X0002647Y0381721D01*
X0073513Y0381721D01*
X0073513Y0369910D01*
X0002647Y0369910D01*
X0002647Y0027391D01*
X0073513Y0027391D01*
X0073513Y0015580D01*
X0002647Y0015580D01*
X0089261Y0015580D02*
X0089261Y0027391D01*
X0396348Y0027391D01*
X0396348Y0015580D01*
X0089261Y0015580D01*
X0089261Y0369910D02*
X0089261Y0381721D01*
X0396348Y0381721D01*
X0396348Y0369910D01*
X0089261Y0369910D01*
D12*
X0095167Y0375816D02*
X0390442Y0375816D01*
X0390442Y0021485D02*
X0095167Y0021485D01*
M02*
