G75*
%MOIN*%
%OFA0B0*%
%FSLAX25Y25*%
%IPPOS*%
%LPD*%
%AMOC8*
5,1,8,0,0,1.08239X$1,22.5*
%
%ADD10C,0.02400*%
%ADD11C,0.03937*%
%ADD12C,0.07400*%
D10*
X0425875Y0008690D02*
X0425877Y0008778D01*
X0425883Y0008866D01*
X0425893Y0008954D01*
X0425907Y0009042D01*
X0425924Y0009128D01*
X0425946Y0009214D01*
X0425971Y0009298D01*
X0426001Y0009382D01*
X0426033Y0009464D01*
X0426070Y0009544D01*
X0426110Y0009623D01*
X0426154Y0009700D01*
X0426201Y0009775D01*
X0426251Y0009847D01*
X0426305Y0009918D01*
X0426361Y0009985D01*
X0426421Y0010051D01*
X0426483Y0010113D01*
X0426549Y0010173D01*
X0426616Y0010229D01*
X0426687Y0010283D01*
X0426759Y0010333D01*
X0426834Y0010380D01*
X0426911Y0010424D01*
X0426990Y0010464D01*
X0427070Y0010501D01*
X0427152Y0010533D01*
X0427236Y0010563D01*
X0427320Y0010588D01*
X0427406Y0010610D01*
X0427492Y0010627D01*
X0427580Y0010641D01*
X0427668Y0010651D01*
X0427756Y0010657D01*
X0427844Y0010659D01*
X0427932Y0010657D01*
X0428020Y0010651D01*
X0428108Y0010641D01*
X0428196Y0010627D01*
X0428282Y0010610D01*
X0428368Y0010588D01*
X0428452Y0010563D01*
X0428536Y0010533D01*
X0428618Y0010501D01*
X0428698Y0010464D01*
X0428777Y0010424D01*
X0428854Y0010380D01*
X0428929Y0010333D01*
X0429001Y0010283D01*
X0429072Y0010229D01*
X0429139Y0010173D01*
X0429205Y0010113D01*
X0429267Y0010051D01*
X0429327Y0009985D01*
X0429383Y0009918D01*
X0429437Y0009847D01*
X0429487Y0009775D01*
X0429534Y0009700D01*
X0429578Y0009623D01*
X0429618Y0009544D01*
X0429655Y0009464D01*
X0429687Y0009382D01*
X0429717Y0009298D01*
X0429742Y0009214D01*
X0429764Y0009128D01*
X0429781Y0009042D01*
X0429795Y0008954D01*
X0429805Y0008866D01*
X0429811Y0008778D01*
X0429813Y0008690D01*
X0429811Y0008602D01*
X0429805Y0008514D01*
X0429795Y0008426D01*
X0429781Y0008338D01*
X0429764Y0008252D01*
X0429742Y0008166D01*
X0429717Y0008082D01*
X0429687Y0007998D01*
X0429655Y0007916D01*
X0429618Y0007836D01*
X0429578Y0007757D01*
X0429534Y0007680D01*
X0429487Y0007605D01*
X0429437Y0007533D01*
X0429383Y0007462D01*
X0429327Y0007395D01*
X0429267Y0007329D01*
X0429205Y0007267D01*
X0429139Y0007207D01*
X0429072Y0007151D01*
X0429001Y0007097D01*
X0428929Y0007047D01*
X0428854Y0007000D01*
X0428777Y0006956D01*
X0428698Y0006916D01*
X0428618Y0006879D01*
X0428536Y0006847D01*
X0428452Y0006817D01*
X0428368Y0006792D01*
X0428282Y0006770D01*
X0428196Y0006753D01*
X0428108Y0006739D01*
X0428020Y0006729D01*
X0427932Y0006723D01*
X0427844Y0006721D01*
X0427756Y0006723D01*
X0427668Y0006729D01*
X0427580Y0006739D01*
X0427492Y0006753D01*
X0427406Y0006770D01*
X0427320Y0006792D01*
X0427236Y0006817D01*
X0427152Y0006847D01*
X0427070Y0006879D01*
X0426990Y0006916D01*
X0426911Y0006956D01*
X0426834Y0007000D01*
X0426759Y0007047D01*
X0426687Y0007097D01*
X0426616Y0007151D01*
X0426549Y0007207D01*
X0426483Y0007267D01*
X0426421Y0007329D01*
X0426361Y0007395D01*
X0426305Y0007462D01*
X0426251Y0007533D01*
X0426201Y0007605D01*
X0426154Y0007680D01*
X0426110Y0007757D01*
X0426070Y0007836D01*
X0426033Y0007916D01*
X0426001Y0007998D01*
X0425971Y0008082D01*
X0425946Y0008166D01*
X0425924Y0008252D01*
X0425907Y0008338D01*
X0425893Y0008426D01*
X0425883Y0008514D01*
X0425877Y0008602D01*
X0425875Y0008690D01*
X0446860Y0354900D02*
X0451860Y0359900D01*
X0446860Y0364900D01*
X0441860Y0359900D02*
X0451860Y0359900D01*
X0425875Y0388611D02*
X0425877Y0388699D01*
X0425883Y0388787D01*
X0425893Y0388875D01*
X0425907Y0388963D01*
X0425924Y0389049D01*
X0425946Y0389135D01*
X0425971Y0389219D01*
X0426001Y0389303D01*
X0426033Y0389385D01*
X0426070Y0389465D01*
X0426110Y0389544D01*
X0426154Y0389621D01*
X0426201Y0389696D01*
X0426251Y0389768D01*
X0426305Y0389839D01*
X0426361Y0389906D01*
X0426421Y0389972D01*
X0426483Y0390034D01*
X0426549Y0390094D01*
X0426616Y0390150D01*
X0426687Y0390204D01*
X0426759Y0390254D01*
X0426834Y0390301D01*
X0426911Y0390345D01*
X0426990Y0390385D01*
X0427070Y0390422D01*
X0427152Y0390454D01*
X0427236Y0390484D01*
X0427320Y0390509D01*
X0427406Y0390531D01*
X0427492Y0390548D01*
X0427580Y0390562D01*
X0427668Y0390572D01*
X0427756Y0390578D01*
X0427844Y0390580D01*
X0427932Y0390578D01*
X0428020Y0390572D01*
X0428108Y0390562D01*
X0428196Y0390548D01*
X0428282Y0390531D01*
X0428368Y0390509D01*
X0428452Y0390484D01*
X0428536Y0390454D01*
X0428618Y0390422D01*
X0428698Y0390385D01*
X0428777Y0390345D01*
X0428854Y0390301D01*
X0428929Y0390254D01*
X0429001Y0390204D01*
X0429072Y0390150D01*
X0429139Y0390094D01*
X0429205Y0390034D01*
X0429267Y0389972D01*
X0429327Y0389906D01*
X0429383Y0389839D01*
X0429437Y0389768D01*
X0429487Y0389696D01*
X0429534Y0389621D01*
X0429578Y0389544D01*
X0429618Y0389465D01*
X0429655Y0389385D01*
X0429687Y0389303D01*
X0429717Y0389219D01*
X0429742Y0389135D01*
X0429764Y0389049D01*
X0429781Y0388963D01*
X0429795Y0388875D01*
X0429805Y0388787D01*
X0429811Y0388699D01*
X0429813Y0388611D01*
X0429811Y0388523D01*
X0429805Y0388435D01*
X0429795Y0388347D01*
X0429781Y0388259D01*
X0429764Y0388173D01*
X0429742Y0388087D01*
X0429717Y0388003D01*
X0429687Y0387919D01*
X0429655Y0387837D01*
X0429618Y0387757D01*
X0429578Y0387678D01*
X0429534Y0387601D01*
X0429487Y0387526D01*
X0429437Y0387454D01*
X0429383Y0387383D01*
X0429327Y0387316D01*
X0429267Y0387250D01*
X0429205Y0387188D01*
X0429139Y0387128D01*
X0429072Y0387072D01*
X0429001Y0387018D01*
X0428929Y0386968D01*
X0428854Y0386921D01*
X0428777Y0386877D01*
X0428698Y0386837D01*
X0428618Y0386800D01*
X0428536Y0386768D01*
X0428452Y0386738D01*
X0428368Y0386713D01*
X0428282Y0386691D01*
X0428196Y0386674D01*
X0428108Y0386660D01*
X0428020Y0386650D01*
X0427932Y0386644D01*
X0427844Y0386642D01*
X0427756Y0386644D01*
X0427668Y0386650D01*
X0427580Y0386660D01*
X0427492Y0386674D01*
X0427406Y0386691D01*
X0427320Y0386713D01*
X0427236Y0386738D01*
X0427152Y0386768D01*
X0427070Y0386800D01*
X0426990Y0386837D01*
X0426911Y0386877D01*
X0426834Y0386921D01*
X0426759Y0386968D01*
X0426687Y0387018D01*
X0426616Y0387072D01*
X0426549Y0387128D01*
X0426483Y0387188D01*
X0426421Y0387250D01*
X0426361Y0387316D01*
X0426305Y0387383D01*
X0426251Y0387454D01*
X0426201Y0387526D01*
X0426154Y0387601D01*
X0426110Y0387678D01*
X0426070Y0387757D01*
X0426033Y0387837D01*
X0426001Y0387919D01*
X0425971Y0388003D01*
X0425946Y0388087D01*
X0425924Y0388173D01*
X0425907Y0388259D01*
X0425893Y0388347D01*
X0425883Y0388435D01*
X0425877Y0388523D01*
X0425875Y0388611D01*
X0055796Y0388611D02*
X0055798Y0388699D01*
X0055804Y0388787D01*
X0055814Y0388875D01*
X0055828Y0388963D01*
X0055845Y0389049D01*
X0055867Y0389135D01*
X0055892Y0389219D01*
X0055922Y0389303D01*
X0055954Y0389385D01*
X0055991Y0389465D01*
X0056031Y0389544D01*
X0056075Y0389621D01*
X0056122Y0389696D01*
X0056172Y0389768D01*
X0056226Y0389839D01*
X0056282Y0389906D01*
X0056342Y0389972D01*
X0056404Y0390034D01*
X0056470Y0390094D01*
X0056537Y0390150D01*
X0056608Y0390204D01*
X0056680Y0390254D01*
X0056755Y0390301D01*
X0056832Y0390345D01*
X0056911Y0390385D01*
X0056991Y0390422D01*
X0057073Y0390454D01*
X0057157Y0390484D01*
X0057241Y0390509D01*
X0057327Y0390531D01*
X0057413Y0390548D01*
X0057501Y0390562D01*
X0057589Y0390572D01*
X0057677Y0390578D01*
X0057765Y0390580D01*
X0057853Y0390578D01*
X0057941Y0390572D01*
X0058029Y0390562D01*
X0058117Y0390548D01*
X0058203Y0390531D01*
X0058289Y0390509D01*
X0058373Y0390484D01*
X0058457Y0390454D01*
X0058539Y0390422D01*
X0058619Y0390385D01*
X0058698Y0390345D01*
X0058775Y0390301D01*
X0058850Y0390254D01*
X0058922Y0390204D01*
X0058993Y0390150D01*
X0059060Y0390094D01*
X0059126Y0390034D01*
X0059188Y0389972D01*
X0059248Y0389906D01*
X0059304Y0389839D01*
X0059358Y0389768D01*
X0059408Y0389696D01*
X0059455Y0389621D01*
X0059499Y0389544D01*
X0059539Y0389465D01*
X0059576Y0389385D01*
X0059608Y0389303D01*
X0059638Y0389219D01*
X0059663Y0389135D01*
X0059685Y0389049D01*
X0059702Y0388963D01*
X0059716Y0388875D01*
X0059726Y0388787D01*
X0059732Y0388699D01*
X0059734Y0388611D01*
X0059732Y0388523D01*
X0059726Y0388435D01*
X0059716Y0388347D01*
X0059702Y0388259D01*
X0059685Y0388173D01*
X0059663Y0388087D01*
X0059638Y0388003D01*
X0059608Y0387919D01*
X0059576Y0387837D01*
X0059539Y0387757D01*
X0059499Y0387678D01*
X0059455Y0387601D01*
X0059408Y0387526D01*
X0059358Y0387454D01*
X0059304Y0387383D01*
X0059248Y0387316D01*
X0059188Y0387250D01*
X0059126Y0387188D01*
X0059060Y0387128D01*
X0058993Y0387072D01*
X0058922Y0387018D01*
X0058850Y0386968D01*
X0058775Y0386921D01*
X0058698Y0386877D01*
X0058619Y0386837D01*
X0058539Y0386800D01*
X0058457Y0386768D01*
X0058373Y0386738D01*
X0058289Y0386713D01*
X0058203Y0386691D01*
X0058117Y0386674D01*
X0058029Y0386660D01*
X0057941Y0386650D01*
X0057853Y0386644D01*
X0057765Y0386642D01*
X0057677Y0386644D01*
X0057589Y0386650D01*
X0057501Y0386660D01*
X0057413Y0386674D01*
X0057327Y0386691D01*
X0057241Y0386713D01*
X0057157Y0386738D01*
X0057073Y0386768D01*
X0056991Y0386800D01*
X0056911Y0386837D01*
X0056832Y0386877D01*
X0056755Y0386921D01*
X0056680Y0386968D01*
X0056608Y0387018D01*
X0056537Y0387072D01*
X0056470Y0387128D01*
X0056404Y0387188D01*
X0056342Y0387250D01*
X0056282Y0387316D01*
X0056226Y0387383D01*
X0056172Y0387454D01*
X0056122Y0387526D01*
X0056075Y0387601D01*
X0056031Y0387678D01*
X0055991Y0387757D01*
X0055954Y0387837D01*
X0055922Y0387919D01*
X0055892Y0388003D01*
X0055867Y0388087D01*
X0055845Y0388173D01*
X0055828Y0388259D01*
X0055814Y0388347D01*
X0055804Y0388435D01*
X0055798Y0388523D01*
X0055796Y0388611D01*
D11*
X0028750Y0356150D03*
X0456860Y0356150D03*
X0456860Y0363650D03*
D12*
X0017805Y0053650D03*
X0027805Y0053650D03*
X0037805Y0053650D03*
X0047805Y0053650D03*
X0057805Y0053650D03*
X0067805Y0053650D03*
X0077805Y0053650D03*
X0087805Y0053650D03*
X0097805Y0053650D03*
X0107805Y0053650D03*
X0117805Y0053650D03*
X0127805Y0053650D03*
X0137805Y0053650D03*
X0147805Y0053650D03*
X0157805Y0053650D03*
X0167805Y0053650D03*
X0177805Y0053650D03*
X0187805Y0053650D03*
X0197805Y0053650D03*
X0207805Y0053650D03*
X0217805Y0053650D03*
X0227805Y0053650D03*
X0237805Y0053650D03*
X0247805Y0053650D03*
X0257805Y0053650D03*
X0267805Y0053650D03*
X0277805Y0053650D03*
X0287805Y0053650D03*
X0297805Y0053650D03*
X0307805Y0053650D03*
X0317805Y0053650D03*
X0327805Y0053650D03*
X0337805Y0053650D03*
X0347805Y0053650D03*
X0357805Y0053650D03*
X0367805Y0053650D03*
X0377805Y0053650D03*
X0387805Y0053650D03*
X0397805Y0053650D03*
X0407805Y0053650D03*
X0417805Y0053650D03*
X0427805Y0053650D03*
X0437805Y0053650D03*
X0447805Y0053650D03*
X0457805Y0053650D03*
X0467805Y0053650D03*
X0467805Y0063650D03*
X0457805Y0063650D03*
X0447805Y0063650D03*
X0437805Y0063650D03*
X0427805Y0063650D03*
X0417805Y0063650D03*
X0407805Y0063650D03*
X0397805Y0063650D03*
X0397805Y0073650D03*
X0407805Y0073650D03*
X0417805Y0073650D03*
X0427805Y0073650D03*
X0437805Y0073650D03*
X0447805Y0073650D03*
X0457805Y0073650D03*
X0467805Y0073650D03*
X0467805Y0083650D03*
X0457805Y0083650D03*
X0447805Y0083650D03*
X0437805Y0083650D03*
X0427805Y0083650D03*
X0417805Y0083650D03*
X0407805Y0083650D03*
X0397805Y0083650D03*
X0397805Y0093650D03*
X0407805Y0093650D03*
X0417805Y0093650D03*
X0427805Y0093650D03*
X0437805Y0093650D03*
X0447805Y0093650D03*
X0457805Y0093650D03*
X0467805Y0093650D03*
X0467805Y0103650D03*
X0457805Y0103650D03*
X0447805Y0103650D03*
X0437805Y0103650D03*
X0427805Y0103650D03*
X0417805Y0103650D03*
X0407805Y0103650D03*
X0397805Y0103650D03*
X0397805Y0113650D03*
X0407805Y0113650D03*
X0417805Y0113650D03*
X0427805Y0113650D03*
X0437805Y0113650D03*
X0447805Y0113650D03*
X0457805Y0113650D03*
X0467805Y0113650D03*
X0467805Y0123650D03*
X0457805Y0123650D03*
X0447805Y0123650D03*
X0437805Y0123650D03*
X0427805Y0123650D03*
X0417805Y0123650D03*
X0407805Y0123650D03*
X0397805Y0123650D03*
X0397805Y0133650D03*
X0407805Y0133650D03*
X0417805Y0133650D03*
X0427805Y0133650D03*
X0437805Y0133650D03*
X0447805Y0133650D03*
X0457805Y0133650D03*
X0467805Y0133650D03*
X0467805Y0143650D03*
X0457805Y0143650D03*
X0447805Y0143650D03*
X0437805Y0143650D03*
X0427805Y0143650D03*
X0417805Y0143650D03*
X0407805Y0143650D03*
X0397805Y0143650D03*
X0397805Y0153650D03*
X0407805Y0153650D03*
X0417805Y0153650D03*
X0427805Y0153650D03*
X0437805Y0153650D03*
X0447805Y0153650D03*
X0457805Y0153650D03*
X0467805Y0153650D03*
X0467805Y0163650D03*
X0457805Y0163650D03*
X0447805Y0163650D03*
X0437805Y0163650D03*
X0427805Y0163650D03*
X0417805Y0163650D03*
X0407805Y0163650D03*
X0397805Y0163650D03*
X0397805Y0173650D03*
X0407805Y0173650D03*
X0417805Y0173650D03*
X0427805Y0173650D03*
X0437805Y0173650D03*
X0447805Y0173650D03*
X0457805Y0173650D03*
X0467805Y0173650D03*
X0467805Y0183650D03*
X0457805Y0183650D03*
X0447805Y0183650D03*
X0437805Y0183650D03*
X0427805Y0183650D03*
X0417805Y0183650D03*
X0407805Y0183650D03*
X0397805Y0183650D03*
X0397805Y0193650D03*
X0407805Y0193650D03*
X0417805Y0193650D03*
X0427805Y0193650D03*
X0437805Y0193650D03*
X0447805Y0193650D03*
X0457805Y0193650D03*
X0467805Y0193650D03*
X0467805Y0203650D03*
X0457805Y0203650D03*
X0447805Y0203650D03*
X0437805Y0203650D03*
X0427805Y0203650D03*
X0417805Y0203650D03*
X0407805Y0203650D03*
X0397805Y0203650D03*
X0397805Y0213650D03*
X0407805Y0213650D03*
X0417805Y0213650D03*
X0427805Y0213650D03*
X0437805Y0213650D03*
X0447805Y0213650D03*
X0457805Y0213650D03*
X0467805Y0213650D03*
X0467805Y0223650D03*
X0457805Y0223650D03*
X0447805Y0223650D03*
X0437805Y0223650D03*
X0427805Y0223650D03*
X0417805Y0223650D03*
X0407805Y0223650D03*
X0397805Y0223650D03*
X0397805Y0233650D03*
X0407805Y0233650D03*
X0417805Y0233650D03*
X0427805Y0233650D03*
X0437805Y0233650D03*
X0447805Y0233650D03*
X0457805Y0233650D03*
X0467805Y0233650D03*
X0467805Y0243650D03*
X0457805Y0243650D03*
X0447805Y0243650D03*
X0437805Y0243650D03*
X0427805Y0243650D03*
X0417805Y0243650D03*
X0407805Y0243650D03*
X0397805Y0243650D03*
X0397805Y0253650D03*
X0407805Y0253650D03*
X0417805Y0253650D03*
X0427805Y0253650D03*
X0437805Y0253650D03*
X0447805Y0253650D03*
X0457805Y0253650D03*
X0467805Y0253650D03*
X0467805Y0263650D03*
X0457805Y0263650D03*
X0447805Y0263650D03*
X0437805Y0263650D03*
X0427805Y0263650D03*
X0417805Y0263650D03*
X0407805Y0263650D03*
X0397805Y0263650D03*
X0397805Y0273650D03*
X0407805Y0273650D03*
X0417805Y0273650D03*
X0427805Y0273650D03*
X0437805Y0273650D03*
X0447805Y0273650D03*
X0457805Y0273650D03*
X0467805Y0273650D03*
X0467805Y0283650D03*
X0457805Y0283650D03*
X0447805Y0283650D03*
X0437805Y0283650D03*
X0427805Y0283650D03*
X0417805Y0283650D03*
X0407805Y0283650D03*
X0397805Y0283650D03*
X0397805Y0293650D03*
X0407805Y0293650D03*
X0417805Y0293650D03*
X0427805Y0293650D03*
X0437805Y0293650D03*
X0447805Y0293650D03*
X0457805Y0293650D03*
X0467805Y0293650D03*
X0467805Y0303650D03*
X0457805Y0303650D03*
X0447805Y0303650D03*
X0437805Y0303650D03*
X0427805Y0303650D03*
X0417805Y0303650D03*
X0407805Y0303650D03*
X0397805Y0303650D03*
X0397805Y0313650D03*
X0407805Y0313650D03*
X0417805Y0313650D03*
X0427805Y0313650D03*
X0437805Y0313650D03*
X0447805Y0313650D03*
X0457805Y0313650D03*
X0467805Y0313650D03*
X0467805Y0323650D03*
X0457805Y0323650D03*
X0447805Y0323650D03*
X0437805Y0323650D03*
X0427805Y0323650D03*
X0417805Y0323650D03*
X0407805Y0323650D03*
X0397805Y0323650D03*
X0397805Y0333650D03*
X0407805Y0333650D03*
X0417805Y0333650D03*
X0427805Y0333650D03*
X0437805Y0333650D03*
X0447805Y0333650D03*
X0457805Y0333650D03*
X0467805Y0333650D03*
X0467805Y0343650D03*
X0457805Y0343650D03*
X0447805Y0343650D03*
X0437805Y0343650D03*
X0427805Y0343650D03*
X0417805Y0343650D03*
X0407805Y0343650D03*
X0397805Y0343650D03*
X0387805Y0343650D03*
X0377805Y0343650D03*
X0367805Y0343650D03*
X0357805Y0343650D03*
X0347805Y0343650D03*
X0337805Y0343650D03*
X0327805Y0343650D03*
X0317805Y0343650D03*
X0307805Y0343650D03*
X0297805Y0343650D03*
X0287805Y0343650D03*
X0277805Y0343650D03*
X0267805Y0343650D03*
X0257805Y0343650D03*
X0247805Y0343650D03*
X0237805Y0343650D03*
X0237805Y0333650D03*
X0237805Y0323650D03*
X0247805Y0323650D03*
X0257805Y0323650D03*
X0267805Y0323650D03*
X0277805Y0323650D03*
X0287805Y0323650D03*
X0297805Y0323650D03*
X0307805Y0323650D03*
X0317805Y0323650D03*
X0327805Y0323650D03*
X0337805Y0323650D03*
X0347805Y0323650D03*
X0357805Y0323650D03*
X0367805Y0323650D03*
X0377805Y0323650D03*
X0387805Y0323650D03*
X0387805Y0333650D03*
X0377805Y0333650D03*
X0367805Y0333650D03*
X0357805Y0333650D03*
X0347805Y0333650D03*
X0337805Y0333650D03*
X0327805Y0333650D03*
X0317805Y0333650D03*
X0307805Y0333650D03*
X0297805Y0333650D03*
X0287805Y0333650D03*
X0277805Y0333650D03*
X0267805Y0333650D03*
X0257805Y0333650D03*
X0247805Y0333650D03*
X0247805Y0313650D03*
X0247805Y0303650D03*
X0257805Y0303650D03*
X0267805Y0303650D03*
X0277805Y0303650D03*
X0287805Y0303650D03*
X0297805Y0303650D03*
X0307805Y0303650D03*
X0317805Y0303650D03*
X0327805Y0303650D03*
X0337805Y0303650D03*
X0347805Y0303650D03*
X0357805Y0303650D03*
X0367805Y0303650D03*
X0377805Y0303650D03*
X0387805Y0303650D03*
X0387805Y0313650D03*
X0377805Y0313650D03*
X0367805Y0313650D03*
X0357805Y0313650D03*
X0347805Y0313650D03*
X0337805Y0313650D03*
X0327805Y0313650D03*
X0317805Y0313650D03*
X0307805Y0313650D03*
X0297805Y0313650D03*
X0287805Y0313650D03*
X0277805Y0313650D03*
X0267805Y0313650D03*
X0257805Y0313650D03*
X0237805Y0313650D03*
X0237805Y0303650D03*
X0237805Y0293650D03*
X0237805Y0283650D03*
X0247805Y0283650D03*
X0257805Y0283650D03*
X0267805Y0283650D03*
X0277805Y0283650D03*
X0287805Y0283650D03*
X0297805Y0283650D03*
X0307805Y0283650D03*
X0317805Y0283650D03*
X0327805Y0283650D03*
X0337805Y0283650D03*
X0347805Y0283650D03*
X0357805Y0283650D03*
X0367805Y0283650D03*
X0377805Y0283650D03*
X0387805Y0283650D03*
X0387805Y0293650D03*
X0377805Y0293650D03*
X0367805Y0293650D03*
X0357805Y0293650D03*
X0347805Y0293650D03*
X0337805Y0293650D03*
X0327805Y0293650D03*
X0317805Y0293650D03*
X0307805Y0293650D03*
X0297805Y0293650D03*
X0287805Y0293650D03*
X0277805Y0293650D03*
X0267805Y0293650D03*
X0257805Y0293650D03*
X0247805Y0293650D03*
X0247805Y0273650D03*
X0247805Y0263650D03*
X0257805Y0263650D03*
X0267805Y0263650D03*
X0277805Y0263650D03*
X0287805Y0263650D03*
X0297805Y0263650D03*
X0307805Y0263650D03*
X0317805Y0263650D03*
X0327805Y0263650D03*
X0337805Y0263650D03*
X0347805Y0263650D03*
X0357805Y0263650D03*
X0367805Y0263650D03*
X0377805Y0263650D03*
X0387805Y0263650D03*
X0387805Y0273650D03*
X0377805Y0273650D03*
X0367805Y0273650D03*
X0357805Y0273650D03*
X0347805Y0273650D03*
X0337805Y0273650D03*
X0327805Y0273650D03*
X0317805Y0273650D03*
X0307805Y0273650D03*
X0297805Y0273650D03*
X0287805Y0273650D03*
X0277805Y0273650D03*
X0267805Y0273650D03*
X0257805Y0273650D03*
X0237805Y0273650D03*
X0237805Y0263650D03*
X0237805Y0253650D03*
X0237805Y0243650D03*
X0247805Y0243650D03*
X0257805Y0243650D03*
X0267805Y0243650D03*
X0277805Y0243650D03*
X0287805Y0243650D03*
X0297805Y0243650D03*
X0307805Y0243650D03*
X0317805Y0243650D03*
X0327805Y0243650D03*
X0337805Y0243650D03*
X0347805Y0243650D03*
X0357805Y0243650D03*
X0367805Y0243650D03*
X0377805Y0243650D03*
X0387805Y0243650D03*
X0387805Y0253650D03*
X0377805Y0253650D03*
X0367805Y0253650D03*
X0357805Y0253650D03*
X0347805Y0253650D03*
X0337805Y0253650D03*
X0327805Y0253650D03*
X0317805Y0253650D03*
X0307805Y0253650D03*
X0297805Y0253650D03*
X0287805Y0253650D03*
X0277805Y0253650D03*
X0267805Y0253650D03*
X0257805Y0253650D03*
X0247805Y0253650D03*
X0247805Y0233650D03*
X0247805Y0223650D03*
X0257805Y0223650D03*
X0267805Y0223650D03*
X0277805Y0223650D03*
X0287805Y0223650D03*
X0297805Y0223650D03*
X0307805Y0223650D03*
X0317805Y0223650D03*
X0327805Y0223650D03*
X0337805Y0223650D03*
X0347805Y0223650D03*
X0357805Y0223650D03*
X0367805Y0223650D03*
X0377805Y0223650D03*
X0387805Y0223650D03*
X0387805Y0233650D03*
X0377805Y0233650D03*
X0367805Y0233650D03*
X0357805Y0233650D03*
X0347805Y0233650D03*
X0337805Y0233650D03*
X0327805Y0233650D03*
X0317805Y0233650D03*
X0307805Y0233650D03*
X0297805Y0233650D03*
X0287805Y0233650D03*
X0277805Y0233650D03*
X0267805Y0233650D03*
X0257805Y0233650D03*
X0237805Y0233650D03*
X0237805Y0223650D03*
X0237805Y0213650D03*
X0237805Y0203650D03*
X0247805Y0203650D03*
X0257805Y0203650D03*
X0267805Y0203650D03*
X0277805Y0203650D03*
X0287805Y0203650D03*
X0297805Y0203650D03*
X0307805Y0203650D03*
X0317805Y0203650D03*
X0327805Y0203650D03*
X0337805Y0203650D03*
X0347805Y0203650D03*
X0357805Y0203650D03*
X0367805Y0203650D03*
X0377805Y0203650D03*
X0387805Y0203650D03*
X0387805Y0213650D03*
X0377805Y0213650D03*
X0367805Y0213650D03*
X0357805Y0213650D03*
X0347805Y0213650D03*
X0337805Y0213650D03*
X0327805Y0213650D03*
X0317805Y0213650D03*
X0307805Y0213650D03*
X0297805Y0213650D03*
X0287805Y0213650D03*
X0277805Y0213650D03*
X0267805Y0213650D03*
X0257805Y0213650D03*
X0247805Y0213650D03*
X0247805Y0193650D03*
X0247805Y0183650D03*
X0257805Y0183650D03*
X0267805Y0183650D03*
X0277805Y0183650D03*
X0287805Y0183650D03*
X0297805Y0183650D03*
X0307805Y0183650D03*
X0317805Y0183650D03*
X0327805Y0183650D03*
X0337805Y0183650D03*
X0347805Y0183650D03*
X0357805Y0183650D03*
X0367805Y0183650D03*
X0377805Y0183650D03*
X0387805Y0183650D03*
X0387805Y0193650D03*
X0377805Y0193650D03*
X0367805Y0193650D03*
X0357805Y0193650D03*
X0347805Y0193650D03*
X0337805Y0193650D03*
X0327805Y0193650D03*
X0317805Y0193650D03*
X0307805Y0193650D03*
X0297805Y0193650D03*
X0287805Y0193650D03*
X0277805Y0193650D03*
X0267805Y0193650D03*
X0257805Y0193650D03*
X0237805Y0193650D03*
X0237805Y0183650D03*
X0237805Y0173650D03*
X0237805Y0163650D03*
X0247805Y0163650D03*
X0257805Y0163650D03*
X0267805Y0163650D03*
X0277805Y0163650D03*
X0287805Y0163650D03*
X0297805Y0163650D03*
X0307805Y0163650D03*
X0317805Y0163650D03*
X0327805Y0163650D03*
X0337805Y0163650D03*
X0347805Y0163650D03*
X0357805Y0163650D03*
X0367805Y0163650D03*
X0377805Y0163650D03*
X0387805Y0163650D03*
X0387805Y0173650D03*
X0377805Y0173650D03*
X0367805Y0173650D03*
X0357805Y0173650D03*
X0347805Y0173650D03*
X0337805Y0173650D03*
X0327805Y0173650D03*
X0317805Y0173650D03*
X0307805Y0173650D03*
X0297805Y0173650D03*
X0287805Y0173650D03*
X0277805Y0173650D03*
X0267805Y0173650D03*
X0257805Y0173650D03*
X0247805Y0173650D03*
X0247805Y0153650D03*
X0247805Y0143650D03*
X0257805Y0143650D03*
X0267805Y0143650D03*
X0277805Y0143650D03*
X0287805Y0143650D03*
X0297805Y0143650D03*
X0307805Y0143650D03*
X0317805Y0143650D03*
X0327805Y0143650D03*
X0337805Y0143650D03*
X0347805Y0143650D03*
X0357805Y0143650D03*
X0367805Y0143650D03*
X0377805Y0143650D03*
X0387805Y0143650D03*
X0387805Y0153650D03*
X0377805Y0153650D03*
X0367805Y0153650D03*
X0357805Y0153650D03*
X0347805Y0153650D03*
X0337805Y0153650D03*
X0327805Y0153650D03*
X0317805Y0153650D03*
X0307805Y0153650D03*
X0297805Y0153650D03*
X0287805Y0153650D03*
X0277805Y0153650D03*
X0267805Y0153650D03*
X0257805Y0153650D03*
X0237805Y0153650D03*
X0237805Y0143650D03*
X0237805Y0133650D03*
X0237805Y0123650D03*
X0247805Y0123650D03*
X0257805Y0123650D03*
X0267805Y0123650D03*
X0277805Y0123650D03*
X0287805Y0123650D03*
X0297805Y0123650D03*
X0307805Y0123650D03*
X0317805Y0123650D03*
X0327805Y0123650D03*
X0337805Y0123650D03*
X0347805Y0123650D03*
X0357805Y0123650D03*
X0367805Y0123650D03*
X0377805Y0123650D03*
X0387805Y0123650D03*
X0387805Y0133650D03*
X0377805Y0133650D03*
X0367805Y0133650D03*
X0357805Y0133650D03*
X0347805Y0133650D03*
X0337805Y0133650D03*
X0327805Y0133650D03*
X0317805Y0133650D03*
X0307805Y0133650D03*
X0297805Y0133650D03*
X0287805Y0133650D03*
X0277805Y0133650D03*
X0267805Y0133650D03*
X0257805Y0133650D03*
X0247805Y0133650D03*
X0247805Y0113650D03*
X0247805Y0103650D03*
X0257805Y0103650D03*
X0267805Y0103650D03*
X0277805Y0103650D03*
X0287805Y0103650D03*
X0297805Y0103650D03*
X0307805Y0103650D03*
X0317805Y0103650D03*
X0327805Y0103650D03*
X0337805Y0103650D03*
X0347805Y0103650D03*
X0357805Y0103650D03*
X0367805Y0103650D03*
X0377805Y0103650D03*
X0387805Y0103650D03*
X0387805Y0113650D03*
X0377805Y0113650D03*
X0367805Y0113650D03*
X0357805Y0113650D03*
X0347805Y0113650D03*
X0337805Y0113650D03*
X0327805Y0113650D03*
X0317805Y0113650D03*
X0307805Y0113650D03*
X0297805Y0113650D03*
X0287805Y0113650D03*
X0277805Y0113650D03*
X0267805Y0113650D03*
X0257805Y0113650D03*
X0237805Y0113650D03*
X0237805Y0103650D03*
X0237805Y0093650D03*
X0237805Y0083650D03*
X0247805Y0083650D03*
X0257805Y0083650D03*
X0267805Y0083650D03*
X0277805Y0083650D03*
X0287805Y0083650D03*
X0297805Y0083650D03*
X0307805Y0083650D03*
X0317805Y0083650D03*
X0327805Y0083650D03*
X0337805Y0083650D03*
X0347805Y0083650D03*
X0357805Y0083650D03*
X0367805Y0083650D03*
X0377805Y0083650D03*
X0387805Y0083650D03*
X0387805Y0093650D03*
X0377805Y0093650D03*
X0367805Y0093650D03*
X0357805Y0093650D03*
X0347805Y0093650D03*
X0337805Y0093650D03*
X0327805Y0093650D03*
X0317805Y0093650D03*
X0307805Y0093650D03*
X0297805Y0093650D03*
X0287805Y0093650D03*
X0277805Y0093650D03*
X0267805Y0093650D03*
X0257805Y0093650D03*
X0247805Y0093650D03*
X0247805Y0073650D03*
X0247805Y0063650D03*
X0257805Y0063650D03*
X0267805Y0063650D03*
X0277805Y0063650D03*
X0287805Y0063650D03*
X0297805Y0063650D03*
X0307805Y0063650D03*
X0317805Y0063650D03*
X0327805Y0063650D03*
X0337805Y0063650D03*
X0347805Y0063650D03*
X0357805Y0063650D03*
X0367805Y0063650D03*
X0377805Y0063650D03*
X0387805Y0063650D03*
X0387805Y0073650D03*
X0377805Y0073650D03*
X0367805Y0073650D03*
X0357805Y0073650D03*
X0347805Y0073650D03*
X0337805Y0073650D03*
X0327805Y0073650D03*
X0317805Y0073650D03*
X0307805Y0073650D03*
X0297805Y0073650D03*
X0287805Y0073650D03*
X0277805Y0073650D03*
X0267805Y0073650D03*
X0257805Y0073650D03*
X0237805Y0073650D03*
X0237805Y0063650D03*
X0227805Y0063650D03*
X0217805Y0063650D03*
X0207805Y0063650D03*
X0197805Y0063650D03*
X0187805Y0063650D03*
X0177805Y0063650D03*
X0167805Y0063650D03*
X0157805Y0063650D03*
X0147805Y0063650D03*
X0137805Y0063650D03*
X0127805Y0063650D03*
X0117805Y0063650D03*
X0107805Y0063650D03*
X0097805Y0063650D03*
X0087805Y0063650D03*
X0077805Y0063650D03*
X0077805Y0073650D03*
X0087805Y0073650D03*
X0097805Y0073650D03*
X0107805Y0073650D03*
X0117805Y0073650D03*
X0127805Y0073650D03*
X0137805Y0073650D03*
X0147805Y0073650D03*
X0157805Y0073650D03*
X0167805Y0073650D03*
X0177805Y0073650D03*
X0187805Y0073650D03*
X0197805Y0073650D03*
X0207805Y0073650D03*
X0217805Y0073650D03*
X0227805Y0073650D03*
X0227805Y0083650D03*
X0217805Y0083650D03*
X0207805Y0083650D03*
X0197805Y0083650D03*
X0187805Y0083650D03*
X0177805Y0083650D03*
X0167805Y0083650D03*
X0157805Y0083650D03*
X0147805Y0083650D03*
X0137805Y0083650D03*
X0127805Y0083650D03*
X0117805Y0083650D03*
X0107805Y0083650D03*
X0097805Y0083650D03*
X0087805Y0083650D03*
X0077805Y0083650D03*
X0077805Y0093650D03*
X0087805Y0093650D03*
X0097805Y0093650D03*
X0107805Y0093650D03*
X0117805Y0093650D03*
X0127805Y0093650D03*
X0137805Y0093650D03*
X0147805Y0093650D03*
X0157805Y0093650D03*
X0167805Y0093650D03*
X0177805Y0093650D03*
X0187805Y0093650D03*
X0197805Y0093650D03*
X0207805Y0093650D03*
X0217805Y0093650D03*
X0227805Y0093650D03*
X0227805Y0103650D03*
X0217805Y0103650D03*
X0207805Y0103650D03*
X0197805Y0103650D03*
X0187805Y0103650D03*
X0177805Y0103650D03*
X0167805Y0103650D03*
X0157805Y0103650D03*
X0147805Y0103650D03*
X0137805Y0103650D03*
X0127805Y0103650D03*
X0117805Y0103650D03*
X0107805Y0103650D03*
X0097805Y0103650D03*
X0087805Y0103650D03*
X0077805Y0103650D03*
X0077805Y0113650D03*
X0087805Y0113650D03*
X0097805Y0113650D03*
X0107805Y0113650D03*
X0117805Y0113650D03*
X0127805Y0113650D03*
X0137805Y0113650D03*
X0147805Y0113650D03*
X0157805Y0113650D03*
X0167805Y0113650D03*
X0177805Y0113650D03*
X0187805Y0113650D03*
X0197805Y0113650D03*
X0207805Y0113650D03*
X0217805Y0113650D03*
X0227805Y0113650D03*
X0227805Y0123650D03*
X0217805Y0123650D03*
X0207805Y0123650D03*
X0197805Y0123650D03*
X0187805Y0123650D03*
X0177805Y0123650D03*
X0167805Y0123650D03*
X0157805Y0123650D03*
X0147805Y0123650D03*
X0137805Y0123650D03*
X0127805Y0123650D03*
X0117805Y0123650D03*
X0107805Y0123650D03*
X0097805Y0123650D03*
X0087805Y0123650D03*
X0077805Y0123650D03*
X0077805Y0133650D03*
X0087805Y0133650D03*
X0097805Y0133650D03*
X0107805Y0133650D03*
X0117805Y0133650D03*
X0127805Y0133650D03*
X0137805Y0133650D03*
X0147805Y0133650D03*
X0157805Y0133650D03*
X0167805Y0133650D03*
X0177805Y0133650D03*
X0187805Y0133650D03*
X0197805Y0133650D03*
X0207805Y0133650D03*
X0217805Y0133650D03*
X0227805Y0133650D03*
X0227805Y0143650D03*
X0217805Y0143650D03*
X0207805Y0143650D03*
X0197805Y0143650D03*
X0187805Y0143650D03*
X0177805Y0143650D03*
X0167805Y0143650D03*
X0157805Y0143650D03*
X0147805Y0143650D03*
X0137805Y0143650D03*
X0127805Y0143650D03*
X0117805Y0143650D03*
X0107805Y0143650D03*
X0097805Y0143650D03*
X0087805Y0143650D03*
X0077805Y0143650D03*
X0077805Y0153650D03*
X0087805Y0153650D03*
X0097805Y0153650D03*
X0107805Y0153650D03*
X0117805Y0153650D03*
X0127805Y0153650D03*
X0137805Y0153650D03*
X0147805Y0153650D03*
X0157805Y0153650D03*
X0167805Y0153650D03*
X0177805Y0153650D03*
X0187805Y0153650D03*
X0197805Y0153650D03*
X0207805Y0153650D03*
X0217805Y0153650D03*
X0227805Y0153650D03*
X0227805Y0163650D03*
X0217805Y0163650D03*
X0207805Y0163650D03*
X0197805Y0163650D03*
X0187805Y0163650D03*
X0177805Y0163650D03*
X0167805Y0163650D03*
X0157805Y0163650D03*
X0147805Y0163650D03*
X0137805Y0163650D03*
X0127805Y0163650D03*
X0117805Y0163650D03*
X0107805Y0163650D03*
X0097805Y0163650D03*
X0087805Y0163650D03*
X0077805Y0163650D03*
X0077805Y0173650D03*
X0087805Y0173650D03*
X0097805Y0173650D03*
X0107805Y0173650D03*
X0117805Y0173650D03*
X0127805Y0173650D03*
X0137805Y0173650D03*
X0147805Y0173650D03*
X0157805Y0173650D03*
X0167805Y0173650D03*
X0177805Y0173650D03*
X0187805Y0173650D03*
X0197805Y0173650D03*
X0207805Y0173650D03*
X0217805Y0173650D03*
X0227805Y0173650D03*
X0227805Y0183650D03*
X0217805Y0183650D03*
X0207805Y0183650D03*
X0197805Y0183650D03*
X0187805Y0183650D03*
X0177805Y0183650D03*
X0167805Y0183650D03*
X0157805Y0183650D03*
X0147805Y0183650D03*
X0137805Y0183650D03*
X0127805Y0183650D03*
X0117805Y0183650D03*
X0107805Y0183650D03*
X0097805Y0183650D03*
X0087805Y0183650D03*
X0077805Y0183650D03*
X0077805Y0193650D03*
X0087805Y0193650D03*
X0097805Y0193650D03*
X0107805Y0193650D03*
X0117805Y0193650D03*
X0127805Y0193650D03*
X0137805Y0193650D03*
X0147805Y0193650D03*
X0157805Y0193650D03*
X0167805Y0193650D03*
X0177805Y0193650D03*
X0187805Y0193650D03*
X0197805Y0193650D03*
X0207805Y0193650D03*
X0217805Y0193650D03*
X0227805Y0193650D03*
X0227805Y0203650D03*
X0217805Y0203650D03*
X0207805Y0203650D03*
X0197805Y0203650D03*
X0187805Y0203650D03*
X0177805Y0203650D03*
X0167805Y0203650D03*
X0157805Y0203650D03*
X0147805Y0203650D03*
X0137805Y0203650D03*
X0127805Y0203650D03*
X0117805Y0203650D03*
X0107805Y0203650D03*
X0097805Y0203650D03*
X0087805Y0203650D03*
X0077805Y0203650D03*
X0077805Y0213650D03*
X0087805Y0213650D03*
X0097805Y0213650D03*
X0107805Y0213650D03*
X0117805Y0213650D03*
X0127805Y0213650D03*
X0137805Y0213650D03*
X0147805Y0213650D03*
X0157805Y0213650D03*
X0167805Y0213650D03*
X0177805Y0213650D03*
X0187805Y0213650D03*
X0197805Y0213650D03*
X0207805Y0213650D03*
X0217805Y0213650D03*
X0227805Y0213650D03*
X0227805Y0223650D03*
X0217805Y0223650D03*
X0207805Y0223650D03*
X0197805Y0223650D03*
X0187805Y0223650D03*
X0177805Y0223650D03*
X0167805Y0223650D03*
X0157805Y0223650D03*
X0147805Y0223650D03*
X0137805Y0223650D03*
X0127805Y0223650D03*
X0117805Y0223650D03*
X0107805Y0223650D03*
X0097805Y0223650D03*
X0087805Y0223650D03*
X0077805Y0223650D03*
X0077805Y0233650D03*
X0087805Y0233650D03*
X0097805Y0233650D03*
X0107805Y0233650D03*
X0117805Y0233650D03*
X0127805Y0233650D03*
X0137805Y0233650D03*
X0147805Y0233650D03*
X0157805Y0233650D03*
X0167805Y0233650D03*
X0177805Y0233650D03*
X0187805Y0233650D03*
X0197805Y0233650D03*
X0207805Y0233650D03*
X0217805Y0233650D03*
X0227805Y0233650D03*
X0227805Y0243650D03*
X0217805Y0243650D03*
X0207805Y0243650D03*
X0197805Y0243650D03*
X0187805Y0243650D03*
X0177805Y0243650D03*
X0167805Y0243650D03*
X0157805Y0243650D03*
X0147805Y0243650D03*
X0137805Y0243650D03*
X0127805Y0243650D03*
X0117805Y0243650D03*
X0107805Y0243650D03*
X0097805Y0243650D03*
X0087805Y0243650D03*
X0077805Y0243650D03*
X0077805Y0253650D03*
X0087805Y0253650D03*
X0097805Y0253650D03*
X0107805Y0253650D03*
X0117805Y0253650D03*
X0127805Y0253650D03*
X0137805Y0253650D03*
X0147805Y0253650D03*
X0157805Y0253650D03*
X0167805Y0253650D03*
X0177805Y0253650D03*
X0187805Y0253650D03*
X0197805Y0253650D03*
X0207805Y0253650D03*
X0217805Y0253650D03*
X0227805Y0253650D03*
X0227805Y0263650D03*
X0217805Y0263650D03*
X0207805Y0263650D03*
X0197805Y0263650D03*
X0187805Y0263650D03*
X0177805Y0263650D03*
X0167805Y0263650D03*
X0157805Y0263650D03*
X0147805Y0263650D03*
X0137805Y0263650D03*
X0127805Y0263650D03*
X0117805Y0263650D03*
X0107805Y0263650D03*
X0097805Y0263650D03*
X0087805Y0263650D03*
X0077805Y0263650D03*
X0077805Y0273650D03*
X0087805Y0273650D03*
X0097805Y0273650D03*
X0107805Y0273650D03*
X0117805Y0273650D03*
X0127805Y0273650D03*
X0137805Y0273650D03*
X0147805Y0273650D03*
X0157805Y0273650D03*
X0167805Y0273650D03*
X0177805Y0273650D03*
X0187805Y0273650D03*
X0197805Y0273650D03*
X0207805Y0273650D03*
X0217805Y0273650D03*
X0227805Y0273650D03*
X0227805Y0283650D03*
X0217805Y0283650D03*
X0207805Y0283650D03*
X0197805Y0283650D03*
X0187805Y0283650D03*
X0177805Y0283650D03*
X0167805Y0283650D03*
X0157805Y0283650D03*
X0147805Y0283650D03*
X0137805Y0283650D03*
X0127805Y0283650D03*
X0117805Y0283650D03*
X0107805Y0283650D03*
X0097805Y0283650D03*
X0087805Y0283650D03*
X0077805Y0283650D03*
X0077805Y0293650D03*
X0087805Y0293650D03*
X0097805Y0293650D03*
X0107805Y0293650D03*
X0117805Y0293650D03*
X0127805Y0293650D03*
X0137805Y0293650D03*
X0147805Y0293650D03*
X0157805Y0293650D03*
X0167805Y0293650D03*
X0177805Y0293650D03*
X0187805Y0293650D03*
X0197805Y0293650D03*
X0207805Y0293650D03*
X0217805Y0293650D03*
X0227805Y0293650D03*
X0227805Y0303650D03*
X0217805Y0303650D03*
X0207805Y0303650D03*
X0197805Y0303650D03*
X0187805Y0303650D03*
X0177805Y0303650D03*
X0167805Y0303650D03*
X0157805Y0303650D03*
X0147805Y0303650D03*
X0137805Y0303650D03*
X0127805Y0303650D03*
X0117805Y0303650D03*
X0107805Y0303650D03*
X0097805Y0303650D03*
X0087805Y0303650D03*
X0077805Y0303650D03*
X0077805Y0313650D03*
X0087805Y0313650D03*
X0097805Y0313650D03*
X0107805Y0313650D03*
X0117805Y0313650D03*
X0127805Y0313650D03*
X0137805Y0313650D03*
X0147805Y0313650D03*
X0157805Y0313650D03*
X0167805Y0313650D03*
X0177805Y0313650D03*
X0187805Y0313650D03*
X0197805Y0313650D03*
X0207805Y0313650D03*
X0217805Y0313650D03*
X0227805Y0313650D03*
X0227805Y0323650D03*
X0217805Y0323650D03*
X0207805Y0323650D03*
X0197805Y0323650D03*
X0187805Y0323650D03*
X0177805Y0323650D03*
X0167805Y0323650D03*
X0157805Y0323650D03*
X0147805Y0323650D03*
X0137805Y0323650D03*
X0127805Y0323650D03*
X0117805Y0323650D03*
X0107805Y0323650D03*
X0097805Y0323650D03*
X0087805Y0323650D03*
X0077805Y0323650D03*
X0077805Y0333650D03*
X0087805Y0333650D03*
X0097805Y0333650D03*
X0107805Y0333650D03*
X0117805Y0333650D03*
X0127805Y0333650D03*
X0137805Y0333650D03*
X0147805Y0333650D03*
X0157805Y0333650D03*
X0167805Y0333650D03*
X0177805Y0333650D03*
X0187805Y0333650D03*
X0197805Y0333650D03*
X0207805Y0333650D03*
X0217805Y0333650D03*
X0227805Y0333650D03*
X0227805Y0343650D03*
X0217805Y0343650D03*
X0207805Y0343650D03*
X0197805Y0343650D03*
X0187805Y0343650D03*
X0177805Y0343650D03*
X0167805Y0343650D03*
X0157805Y0343650D03*
X0147805Y0343650D03*
X0137805Y0343650D03*
X0127805Y0343650D03*
X0117805Y0343650D03*
X0107805Y0343650D03*
X0097805Y0343650D03*
X0087805Y0343650D03*
X0077805Y0343650D03*
X0067805Y0343650D03*
X0057805Y0343650D03*
X0047805Y0343650D03*
X0037805Y0343650D03*
X0027805Y0343650D03*
X0017805Y0343650D03*
X0017805Y0333650D03*
X0017805Y0323650D03*
X0027805Y0323650D03*
X0037805Y0323650D03*
X0047805Y0323650D03*
X0057805Y0323650D03*
X0067805Y0323650D03*
X0067805Y0333650D03*
X0057805Y0333650D03*
X0047805Y0333650D03*
X0037805Y0333650D03*
X0027805Y0333650D03*
X0027805Y0313650D03*
X0027805Y0303650D03*
X0037805Y0303650D03*
X0047805Y0303650D03*
X0057805Y0303650D03*
X0067805Y0303650D03*
X0067805Y0313650D03*
X0057805Y0313650D03*
X0047805Y0313650D03*
X0037805Y0313650D03*
X0017805Y0313650D03*
X0017805Y0303650D03*
X0017805Y0293650D03*
X0017805Y0283650D03*
X0027805Y0283650D03*
X0037805Y0283650D03*
X0047805Y0283650D03*
X0057805Y0283650D03*
X0067805Y0283650D03*
X0067805Y0293650D03*
X0057805Y0293650D03*
X0047805Y0293650D03*
X0037805Y0293650D03*
X0027805Y0293650D03*
X0027805Y0273650D03*
X0027805Y0263650D03*
X0037805Y0263650D03*
X0047805Y0263650D03*
X0057805Y0263650D03*
X0067805Y0263650D03*
X0067805Y0273650D03*
X0057805Y0273650D03*
X0047805Y0273650D03*
X0037805Y0273650D03*
X0017805Y0273650D03*
X0017805Y0263650D03*
X0017805Y0253650D03*
X0017805Y0243650D03*
X0027805Y0243650D03*
X0037805Y0243650D03*
X0047805Y0243650D03*
X0057805Y0243650D03*
X0067805Y0243650D03*
X0067805Y0253650D03*
X0057805Y0253650D03*
X0047805Y0253650D03*
X0037805Y0253650D03*
X0027805Y0253650D03*
X0027805Y0233650D03*
X0027805Y0223650D03*
X0037805Y0223650D03*
X0047805Y0223650D03*
X0057805Y0223650D03*
X0067805Y0223650D03*
X0067805Y0233650D03*
X0057805Y0233650D03*
X0047805Y0233650D03*
X0037805Y0233650D03*
X0017805Y0233650D03*
X0017805Y0223650D03*
X0017805Y0213650D03*
X0017805Y0203650D03*
X0027805Y0203650D03*
X0037805Y0203650D03*
X0047805Y0203650D03*
X0057805Y0203650D03*
X0067805Y0203650D03*
X0067805Y0213650D03*
X0057805Y0213650D03*
X0047805Y0213650D03*
X0037805Y0213650D03*
X0027805Y0213650D03*
X0027805Y0193650D03*
X0027805Y0183650D03*
X0037805Y0183650D03*
X0047805Y0183650D03*
X0057805Y0183650D03*
X0067805Y0183650D03*
X0067805Y0193650D03*
X0057805Y0193650D03*
X0047805Y0193650D03*
X0037805Y0193650D03*
X0017805Y0193650D03*
X0017805Y0183650D03*
X0017805Y0173650D03*
X0017805Y0163650D03*
X0027805Y0163650D03*
X0037805Y0163650D03*
X0047805Y0163650D03*
X0057805Y0163650D03*
X0067805Y0163650D03*
X0067805Y0173650D03*
X0057805Y0173650D03*
X0047805Y0173650D03*
X0037805Y0173650D03*
X0027805Y0173650D03*
X0027805Y0153650D03*
X0027805Y0143650D03*
X0037805Y0143650D03*
X0047805Y0143650D03*
X0057805Y0143650D03*
X0067805Y0143650D03*
X0067805Y0153650D03*
X0057805Y0153650D03*
X0047805Y0153650D03*
X0037805Y0153650D03*
X0017805Y0153650D03*
X0017805Y0143650D03*
X0017805Y0133650D03*
X0017805Y0123650D03*
X0027805Y0123650D03*
X0037805Y0123650D03*
X0047805Y0123650D03*
X0057805Y0123650D03*
X0067805Y0123650D03*
X0067805Y0133650D03*
X0057805Y0133650D03*
X0047805Y0133650D03*
X0037805Y0133650D03*
X0027805Y0133650D03*
X0027805Y0113650D03*
X0027805Y0103650D03*
X0037805Y0103650D03*
X0047805Y0103650D03*
X0057805Y0103650D03*
X0067805Y0103650D03*
X0067805Y0113650D03*
X0057805Y0113650D03*
X0047805Y0113650D03*
X0037805Y0113650D03*
X0017805Y0113650D03*
X0017805Y0103650D03*
X0017805Y0093650D03*
X0017805Y0083650D03*
X0027805Y0083650D03*
X0037805Y0083650D03*
X0047805Y0083650D03*
X0057805Y0083650D03*
X0067805Y0083650D03*
X0067805Y0093650D03*
X0057805Y0093650D03*
X0047805Y0093650D03*
X0037805Y0093650D03*
X0027805Y0093650D03*
X0027805Y0073650D03*
X0027805Y0063650D03*
X0037805Y0063650D03*
X0047805Y0063650D03*
X0057805Y0063650D03*
X0067805Y0063650D03*
X0067805Y0073650D03*
X0057805Y0073650D03*
X0047805Y0073650D03*
X0037805Y0073650D03*
X0017805Y0073650D03*
X0017805Y0063650D03*
M02*
