%
M48
M72
T01C0.0197
T02C0.0400
T03C0.0866
T04C0.1260
%
T01
X7745Y1755
X7745Y2149
X7745Y2542
X8139Y2542
X8532Y2542
X8532Y2149
X8139Y2149
X8139Y1755
X8532Y1755
X40028Y1755
X40028Y2149
X40028Y2542
X40422Y2542
X40422Y2149
X40816Y2149
X40816Y2542
X40816Y1755
X40422Y1755
X40422Y37188
X40028Y37188
X40028Y37582
X40028Y37975
X40422Y37975
X40422Y37582
X40816Y37582
X40816Y37975
X40816Y37188
X8532Y37188
X8139Y37188
X8139Y37582
X8139Y37975
X8532Y37975
X8532Y37582
X7745Y37582
X7745Y37975
X7745Y37188
T02
X7780Y34365
X8780Y34365
X9780Y34365
X10780Y34365
X11780Y34365
X12780Y34365
X13780Y34365
X14780Y34365
X15780Y34365
X16780Y34365
X17780Y34365
X18780Y34365
X19780Y34365
X20780Y34365
X21780Y34365
X22780Y34365
X22780Y33365
X21780Y33365
X20780Y33365
X19780Y33365
X18780Y33365
X17780Y33365
X16780Y33365
X15780Y33365
X14780Y33365
X13780Y33365
X12780Y33365
X11780Y33365
X10780Y33365
X9780Y33365
X8780Y33365
X7780Y33365
X7780Y32365
X8780Y32365
X9780Y32365
X10780Y32365
X11780Y32365
X12780Y32365
X13780Y32365
X14780Y32365
X15780Y32365
X16780Y32365
X17780Y32365
X18780Y32365
X19780Y32365
X20780Y32365
X21780Y32365
X22780Y32365
X22780Y31365
X21780Y31365
X20780Y31365
X19780Y31365
X18780Y31365
X17780Y31365
X16780Y31365
X15780Y31365
X14780Y31365
X13780Y31365
X12780Y31365
X11780Y31365
X10780Y31365
X9780Y31365
X8780Y31365
X7780Y31365
X7780Y30365
X8780Y30365
X9780Y30365
X10780Y30365
X11780Y30365
X12780Y30365
X13780Y30365
X14780Y30365
X15780Y30365
X16780Y30365
X17780Y30365
X18780Y30365
X19780Y30365
X20780Y30365
X21780Y30365
X22780Y30365
X22780Y29365
X21780Y29365
X20780Y29365
X19780Y29365
X18780Y29365
X17780Y29365
X16780Y29365
X15780Y29365
X14780Y29365
X13780Y29365
X12780Y29365
X11780Y29365
X10780Y29365
X9780Y29365
X8780Y29365
X7780Y29365
X7780Y28365
X8780Y28365
X9780Y28365
X10780Y28365
X11780Y28365
X12780Y28365
X13780Y28365
X14780Y28365
X15780Y28365
X16780Y28365
X17780Y28365
X18780Y28365
X19780Y28365
X20780Y28365
X21780Y28365
X22780Y28365
X22780Y27365
X21780Y27365
X20780Y27365
X19780Y27365
X18780Y27365
X17780Y27365
X16780Y27365
X15780Y27365
X14780Y27365
X13780Y27365
X12780Y27365
X11780Y27365
X10780Y27365
X9780Y27365
X8780Y27365
X7780Y27365
X7780Y26365
X8780Y26365
X9780Y26365
X10780Y26365
X11780Y26365
X12780Y26365
X13780Y26365
X14780Y26365
X15780Y26365
X16780Y26365
X17780Y26365
X18780Y26365
X19780Y26365
X20780Y26365
X21780Y26365
X22780Y26365
X22780Y25365
X21780Y25365
X20780Y25365
X19780Y25365
X18780Y25365
X17780Y25365
X16780Y25365
X15780Y25365
X14780Y25365
X13780Y25365
X12780Y25365
X11780Y25365
X10780Y25365
X9780Y25365
X8780Y25365
X7780Y25365
X7780Y24365
X8780Y24365
X9780Y24365
X10780Y24365
X11780Y24365
X12780Y24365
X13780Y24365
X14780Y24365
X15780Y24365
X16780Y24365
X17780Y24365
X18780Y24365
X19780Y24365
X20780Y24365
X21780Y24365
X22780Y24365
X22780Y23365
X21780Y23365
X20780Y23365
X19780Y23365
X18780Y23365
X17780Y23365
X16780Y23365
X15780Y23365
X14780Y23365
X13780Y23365
X12780Y23365
X11780Y23365
X10780Y23365
X9780Y23365
X8780Y23365
X7780Y23365
X7780Y22365
X8780Y22365
X9780Y22365
X10780Y22365
X11780Y22365
X12780Y22365
X13780Y22365
X14780Y22365
X15780Y22365
X16780Y22365
X17780Y22365
X18780Y22365
X19780Y22365
X20780Y22365
X21780Y22365
X22780Y22365
X22780Y21365
X21780Y21365
X20780Y21365
X19780Y21365
X18780Y21365
X17780Y21365
X16780Y21365
X15780Y21365
X14780Y21365
X13780Y21365
X12780Y21365
X11780Y21365
X10780Y21365
X9780Y21365
X8780Y21365
X7780Y21365
X7780Y20365
X8780Y20365
X9780Y20365
X10780Y20365
X11780Y20365
X12780Y20365
X13780Y20365
X14780Y20365
X15780Y20365
X16780Y20365
X17780Y20365
X18780Y20365
X19780Y20365
X20780Y20365
X21780Y20365
X22780Y20365
X22780Y19365
X21780Y19365
X20780Y19365
X19780Y19365
X18780Y19365
X17780Y19365
X16780Y19365
X15780Y19365
X14780Y19365
X13780Y19365
X12780Y19365
X11780Y19365
X10780Y19365
X9780Y19365
X8780Y19365
X7780Y19365
X7780Y18365
X8780Y18365
X9780Y18365
X10780Y18365
X11780Y18365
X12780Y18365
X13780Y18365
X14780Y18365
X15780Y18365
X16780Y18365
X17780Y18365
X18780Y18365
X19780Y18365
X20780Y18365
X21780Y18365
X22780Y18365
X22780Y17365
X21780Y17365
X20780Y17365
X19780Y17365
X18780Y17365
X17780Y17365
X16780Y17365
X15780Y17365
X14780Y17365
X13780Y17365
X12780Y17365
X11780Y17365
X10780Y17365
X9780Y17365
X8780Y17365
X7780Y17365
X7780Y16365
X8780Y16365
X9780Y16365
X10780Y16365
X11780Y16365
X12780Y16365
X13780Y16365
X14780Y16365
X15780Y16365
X16780Y16365
X17780Y16365
X18780Y16365
X19780Y16365
X20780Y16365
X21780Y16365
X22780Y16365
X22780Y15365
X21780Y15365
X20780Y15365
X19780Y15365
X18780Y15365
X17780Y15365
X16780Y15365
X15780Y15365
X14780Y15365
X13780Y15365
X12780Y15365
X11780Y15365
X10780Y15365
X9780Y15365
X8780Y15365
X7780Y15365
X7780Y14365
X8780Y14365
X9780Y14365
X10780Y14365
X11780Y14365
X12780Y14365
X13780Y14365
X14780Y14365
X15780Y14365
X16780Y14365
X17780Y14365
X18780Y14365
X19780Y14365
X20780Y14365
X21780Y14365
X22780Y14365
X22780Y13365
X21780Y13365
X20780Y13365
X19780Y13365
X18780Y13365
X17780Y13365
X16780Y13365
X15780Y13365
X14780Y13365
X13780Y13365
X12780Y13365
X11780Y13365
X10780Y13365
X9780Y13365
X8780Y13365
X7780Y13365
X7780Y12365
X8780Y12365
X9780Y12365
X10780Y12365
X11780Y12365
X12780Y12365
X13780Y12365
X14780Y12365
X15780Y12365
X16780Y12365
X17780Y12365
X18780Y12365
X19780Y12365
X20780Y12365
X21780Y12365
X22780Y12365
X22780Y11365
X21780Y11365
X20780Y11365
X19780Y11365
X18780Y11365
X17780Y11365
X16780Y11365
X15780Y11365
X14780Y11365
X13780Y11365
X12780Y11365
X11780Y11365
X10780Y11365
X9780Y11365
X8780Y11365
X7780Y11365
X7780Y10365
X8780Y10365
X9780Y10365
X10780Y10365
X11780Y10365
X12780Y10365
X13780Y10365
X14780Y10365
X15780Y10365
X16780Y10365
X17780Y10365
X18780Y10365
X19780Y10365
X20780Y10365
X21780Y10365
X22780Y10365
X22780Y9365
X21780Y9365
X20780Y9365
X19780Y9365
X18780Y9365
X17780Y9365
X16780Y9365
X15780Y9365
X14780Y9365
X13780Y9365
X12780Y9365
X11780Y9365
X10780Y9365
X9780Y9365
X8780Y9365
X7780Y9365
X7780Y8365
X8780Y8365
X9780Y8365
X10780Y8365
X11780Y8365
X12780Y8365
X13780Y8365
X14780Y8365
X15780Y8365
X16780Y8365
X17780Y8365
X18780Y8365
X19780Y8365
X20780Y8365
X21780Y8365
X22780Y8365
X22780Y7365
X21780Y7365
X20780Y7365
X19780Y7365
X18780Y7365
X17780Y7365
X16780Y7365
X15780Y7365
X14780Y7365
X13780Y7365
X12780Y7365
X11780Y7365
X10780Y7365
X9780Y7365
X8780Y7365
X7780Y7365
X7780Y6365
X8780Y6365
X9780Y6365
X10780Y6365
X11780Y6365
X12780Y6365
X13780Y6365
X14780Y6365
X15780Y6365
X16780Y6365
X17780Y6365
X18780Y6365
X19780Y6365
X20780Y6365
X21780Y6365
X22780Y6365
X22780Y5365
X21780Y5365
X20780Y5365
X19780Y5365
X18780Y5365
X17780Y5365
X16780Y5365
X15780Y5365
X14780Y5365
X13780Y5365
X12780Y5365
X11780Y5365
X10780Y5365
X9780Y5365
X8780Y5365
X7780Y5365
X6780Y5365
X5780Y5365
X4780Y5365
X3780Y5365
X2780Y5365
X1780Y5365
X1780Y6365
X1780Y7365
X2780Y7365
X2780Y6365
X3780Y6365
X3780Y7365
X4780Y7365
X4780Y6365
X5780Y6365
X5780Y7365
X6780Y7365
X6780Y6365
X6780Y8365
X5780Y8365
X4780Y8365
X3780Y8365
X2780Y8365
X1780Y8365
X1780Y9365
X2780Y9365
X3780Y9365
X4780Y9365
X5780Y9365
X6780Y9365
X6780Y10365
X5780Y10365
X4780Y10365
X3780Y10365
X2780Y10365
X1780Y10365
X1780Y11365
X2780Y11365
X3780Y11365
X4780Y11365
X5780Y11365
X6780Y11365
X6780Y12365
X5780Y12365
X4780Y12365
X3780Y12365
X2780Y12365
X1780Y12365
X1780Y13365
X2780Y13365
X3780Y13365
X4780Y13365
X5780Y13365
X6780Y13365
X6780Y14365
X5780Y14365
X4780Y14365
X3780Y14365
X2780Y14365
X1780Y14365
X1780Y15365
X2780Y15365
X3780Y15365
X4780Y15365
X5780Y15365
X6780Y15365
X6780Y16365
X5780Y16365
X4780Y16365
X3780Y16365
X2780Y16365
X1780Y16365
X1780Y17365
X2780Y17365
X3780Y17365
X4780Y17365
X5780Y17365
X6780Y17365
X6780Y18365
X5780Y18365
X4780Y18365
X3780Y18365
X2780Y18365
X1780Y18365
X1780Y19365
X2780Y19365
X3780Y19365
X4780Y19365
X5780Y19365
X6780Y19365
X6780Y20365
X5780Y20365
X4780Y20365
X3780Y20365
X2780Y20365
X1780Y20365
X1780Y21365
X2780Y21365
X3780Y21365
X4780Y21365
X5780Y21365
X6780Y21365
X6780Y22365
X5780Y22365
X4780Y22365
X3780Y22365
X2780Y22365
X1780Y22365
X1780Y23365
X2780Y23365
X3780Y23365
X4780Y23365
X5780Y23365
X6780Y23365
X6780Y24365
X5780Y24365
X4780Y24365
X3780Y24365
X2780Y24365
X1780Y24365
X1780Y25365
X2780Y25365
X3780Y25365
X4780Y25365
X5780Y25365
X6780Y25365
X6780Y26365
X5780Y26365
X4780Y26365
X3780Y26365
X2780Y26365
X1780Y26365
X1780Y27365
X2780Y27365
X3780Y27365
X4780Y27365
X5780Y27365
X6780Y27365
X6780Y28365
X5780Y28365
X4780Y28365
X3780Y28365
X2780Y28365
X1780Y28365
X1780Y29365
X2780Y29365
X3780Y29365
X4780Y29365
X5780Y29365
X6780Y29365
X6780Y30365
X5780Y30365
X4780Y30365
X3780Y30365
X2780Y30365
X1780Y30365
X1780Y31365
X2780Y31365
X3780Y31365
X4780Y31365
X5780Y31365
X6780Y31365
X6780Y32365
X5780Y32365
X4780Y32365
X3780Y32365
X2780Y32365
X1780Y32365
X1780Y33365
X2780Y33365
X3780Y33365
X4780Y33365
X5780Y33365
X6780Y33365
X6780Y34365
X5780Y34365
X4780Y34365
X3780Y34365
X2780Y34365
X1780Y34365
X23780Y34365
X24780Y34365
X25780Y34365
X26780Y34365
X27780Y34365
X28780Y34365
X29780Y34365
X30780Y34365
X31780Y34365
X32780Y34365
X33780Y34365
X34780Y34365
X35780Y34365
X36780Y34365
X37780Y34365
X38780Y34365
X38780Y33365
X37780Y33365
X36780Y33365
X35780Y33365
X34780Y33365
X33780Y33365
X32780Y33365
X31780Y33365
X30780Y33365
X29780Y33365
X28780Y33365
X27780Y33365
X26780Y33365
X25780Y33365
X24780Y33365
X23780Y33365
X23780Y32365
X24780Y32365
X25780Y32365
X26780Y32365
X27780Y32365
X28780Y32365
X29780Y32365
X30780Y32365
X31780Y32365
X32780Y32365
X33780Y32365
X34780Y32365
X35780Y32365
X36780Y32365
X37780Y32365
X38780Y32365
X38780Y31365
X37780Y31365
X36780Y31365
X35780Y31365
X34780Y31365
X33780Y31365
X32780Y31365
X31780Y31365
X30780Y31365
X29780Y31365
X28780Y31365
X27780Y31365
X26780Y31365
X25780Y31365
X24780Y31365
X23780Y31365
X23780Y30365
X24780Y30365
X25780Y30365
X26780Y30365
X27780Y30365
X28780Y30365
X29780Y30365
X30780Y30365
X31780Y30365
X32780Y30365
X33780Y30365
X34780Y30365
X35780Y30365
X36780Y30365
X37780Y30365
X38780Y30365
X38780Y29365
X37780Y29365
X36780Y29365
X35780Y29365
X34780Y29365
X33780Y29365
X32780Y29365
X31780Y29365
X30780Y29365
X29780Y29365
X28780Y29365
X27780Y29365
X26780Y29365
X25780Y29365
X24780Y29365
X23780Y29365
X23780Y28365
X24780Y28365
X25780Y28365
X26780Y28365
X27780Y28365
X28780Y28365
X29780Y28365
X30780Y28365
X31780Y28365
X32780Y28365
X33780Y28365
X34780Y28365
X35780Y28365
X36780Y28365
X37780Y28365
X38780Y28365
X38780Y27365
X37780Y27365
X36780Y27365
X35780Y27365
X34780Y27365
X33780Y27365
X32780Y27365
X31780Y27365
X30780Y27365
X29780Y27365
X28780Y27365
X27780Y27365
X26780Y27365
X25780Y27365
X24780Y27365
X23780Y27365
X23780Y26365
X24780Y26365
X25780Y26365
X26780Y26365
X27780Y26365
X28780Y26365
X29780Y26365
X30780Y26365
X31780Y26365
X32780Y26365
X33780Y26365
X34780Y26365
X35780Y26365
X36780Y26365
X37780Y26365
X38780Y26365
X38780Y25365
X37780Y25365
X36780Y25365
X35780Y25365
X34780Y25365
X33780Y25365
X32780Y25365
X31780Y25365
X30780Y25365
X29780Y25365
X28780Y25365
X27780Y25365
X26780Y25365
X25780Y25365
X24780Y25365
X23780Y25365
X23780Y24365
X24780Y24365
X25780Y24365
X26780Y24365
X27780Y24365
X28780Y24365
X29780Y24365
X30780Y24365
X31780Y24365
X32780Y24365
X33780Y24365
X34780Y24365
X35780Y24365
X36780Y24365
X37780Y24365
X38780Y24365
X38780Y23365
X37780Y23365
X36780Y23365
X35780Y23365
X34780Y23365
X33780Y23365
X32780Y23365
X31780Y23365
X30780Y23365
X29780Y23365
X28780Y23365
X27780Y23365
X26780Y23365
X25780Y23365
X24780Y23365
X23780Y23365
X23780Y22365
X24780Y22365
X25780Y22365
X26780Y22365
X27780Y22365
X28780Y22365
X29780Y22365
X30780Y22365
X31780Y22365
X32780Y22365
X33780Y22365
X34780Y22365
X35780Y22365
X36780Y22365
X37780Y22365
X38780Y22365
X38780Y21365
X37780Y21365
X36780Y21365
X35780Y21365
X34780Y21365
X33780Y21365
X32780Y21365
X31780Y21365
X30780Y21365
X29780Y21365
X28780Y21365
X27780Y21365
X26780Y21365
X25780Y21365
X24780Y21365
X23780Y21365
X23780Y20365
X24780Y20365
X25780Y20365
X26780Y20365
X27780Y20365
X28780Y20365
X29780Y20365
X30780Y20365
X31780Y20365
X32780Y20365
X33780Y20365
X34780Y20365
X35780Y20365
X36780Y20365
X37780Y20365
X38780Y20365
X38780Y19365
X37780Y19365
X36780Y19365
X35780Y19365
X34780Y19365
X33780Y19365
X32780Y19365
X31780Y19365
X30780Y19365
X29780Y19365
X28780Y19365
X27780Y19365
X26780Y19365
X25780Y19365
X24780Y19365
X23780Y19365
X23780Y18365
X24780Y18365
X25780Y18365
X26780Y18365
X27780Y18365
X28780Y18365
X29780Y18365
X30780Y18365
X31780Y18365
X32780Y18365
X33780Y18365
X34780Y18365
X35780Y18365
X36780Y18365
X37780Y18365
X38780Y18365
X38780Y17365
X37780Y17365
X36780Y17365
X35780Y17365
X34780Y17365
X33780Y17365
X32780Y17365
X31780Y17365
X30780Y17365
X29780Y17365
X28780Y17365
X27780Y17365
X26780Y17365
X25780Y17365
X24780Y17365
X23780Y17365
X23780Y16365
X24780Y16365
X25780Y16365
X26780Y16365
X27780Y16365
X28780Y16365
X29780Y16365
X30780Y16365
X31780Y16365
X32780Y16365
X33780Y16365
X34780Y16365
X35780Y16365
X36780Y16365
X37780Y16365
X38780Y16365
X38780Y15365
X37780Y15365
X36780Y15365
X35780Y15365
X34780Y15365
X33780Y15365
X32780Y15365
X31780Y15365
X30780Y15365
X29780Y15365
X28780Y15365
X27780Y15365
X26780Y15365
X25780Y15365
X24780Y15365
X23780Y15365
X23780Y14365
X24780Y14365
X25780Y14365
X26780Y14365
X27780Y14365
X28780Y14365
X29780Y14365
X30780Y14365
X31780Y14365
X32780Y14365
X33780Y14365
X34780Y14365
X35780Y14365
X36780Y14365
X37780Y14365
X38780Y14365
X38780Y13365
X37780Y13365
X36780Y13365
X35780Y13365
X34780Y13365
X33780Y13365
X32780Y13365
X31780Y13365
X30780Y13365
X29780Y13365
X28780Y13365
X27780Y13365
X26780Y13365
X25780Y13365
X24780Y13365
X23780Y13365
X23780Y12365
X24780Y12365
X25780Y12365
X26780Y12365
X27780Y12365
X28780Y12365
X29780Y12365
X30780Y12365
X31780Y12365
X32780Y12365
X33780Y12365
X34780Y12365
X35780Y12365
X36780Y12365
X37780Y12365
X38780Y12365
X38780Y11365
X37780Y11365
X36780Y11365
X35780Y11365
X34780Y11365
X33780Y11365
X32780Y11365
X31780Y11365
X30780Y11365
X29780Y11365
X28780Y11365
X27780Y11365
X26780Y11365
X25780Y11365
X24780Y11365
X23780Y11365
X23780Y10365
X24780Y10365
X25780Y10365
X26780Y10365
X27780Y10365
X28780Y10365
X29780Y10365
X30780Y10365
X31780Y10365
X32780Y10365
X33780Y10365
X34780Y10365
X35780Y10365
X36780Y10365
X37780Y10365
X38780Y10365
X38780Y9365
X37780Y9365
X36780Y9365
X35780Y9365
X34780Y9365
X33780Y9365
X32780Y9365
X31780Y9365
X30780Y9365
X29780Y9365
X28780Y9365
X27780Y9365
X26780Y9365
X25780Y9365
X24780Y9365
X23780Y9365
X23780Y8365
X24780Y8365
X25780Y8365
X26780Y8365
X27780Y8365
X28780Y8365
X29780Y8365
X30780Y8365
X31780Y8365
X32780Y8365
X33780Y8365
X34780Y8365
X35780Y8365
X36780Y8365
X37780Y8365
X38780Y8365
X38780Y7365
X37780Y7365
X36780Y7365
X35780Y7365
X34780Y7365
X33780Y7365
X32780Y7365
X31780Y7365
X30780Y7365
X29780Y7365
X28780Y7365
X27780Y7365
X26780Y7365
X25780Y7365
X24780Y7365
X23780Y7365
X23780Y6365
X24780Y6365
X25780Y6365
X26780Y6365
X27780Y6365
X28780Y6365
X29780Y6365
X30780Y6365
X31780Y6365
X32780Y6365
X33780Y6365
X34780Y6365
X35780Y6365
X36780Y6365
X37780Y6365
X38780Y6365
X38780Y5365
X37780Y5365
X36780Y5365
X35780Y5365
X34780Y5365
X33780Y5365
X32780Y5365
X31780Y5365
X30780Y5365
X29780Y5365
X28780Y5365
X27780Y5365
X26780Y5365
X25780Y5365
X24780Y5365
X23780Y5365
X39780Y5365
X40780Y5365
X41780Y5365
X42780Y5365
X43780Y5365
X44780Y5365
X45780Y5365
X46780Y5365
X46780Y6365
X45780Y6365
X44780Y6365
X43780Y6365
X42780Y6365
X41780Y6365
X40780Y6365
X39780Y6365
X39780Y7365
X40780Y7365
X41780Y7365
X42780Y7365
X43780Y7365
X44780Y7365
X45780Y7365
X46780Y7365
X46780Y8365
X45780Y8365
X44780Y8365
X43780Y8365
X42780Y8365
X41780Y8365
X40780Y8365
X39780Y8365
X39780Y9365
X40780Y9365
X41780Y9365
X42780Y9365
X43780Y9365
X44780Y9365
X45780Y9365
X46780Y9365
X46780Y10365
X45780Y10365
X44780Y10365
X43780Y10365
X42780Y10365
X41780Y10365
X40780Y10365
X39780Y10365
X39780Y11365
X40780Y11365
X41780Y11365
X42780Y11365
X43780Y11365
X44780Y11365
X45780Y11365
X46780Y11365
X46780Y12365
X45780Y12365
X44780Y12365
X43780Y12365
X42780Y12365
X41780Y12365
X40780Y12365
X39780Y12365
X39780Y13365
X40780Y13365
X41780Y13365
X42780Y13365
X43780Y13365
X44780Y13365
X45780Y13365
X46780Y13365
X46780Y14365
X45780Y14365
X44780Y14365
X43780Y14365
X42780Y14365
X41780Y14365
X40780Y14365
X39780Y14365
X39780Y15365
X40780Y15365
X41780Y15365
X42780Y15365
X43780Y15365
X44780Y15365
X45780Y15365
X46780Y15365
X46780Y16365
X45780Y16365
X44780Y16365
X43780Y16365
X42780Y16365
X41780Y16365
X40780Y16365
X39780Y16365
X39780Y17365
X40780Y17365
X41780Y17365
X42780Y17365
X43780Y17365
X44780Y17365
X45780Y17365
X46780Y17365
X46780Y18365
X45780Y18365
X44780Y18365
X43780Y18365
X42780Y18365
X41780Y18365
X40780Y18365
X39780Y18365
X39780Y19365
X40780Y19365
X41780Y19365
X42780Y19365
X43780Y19365
X44780Y19365
X45780Y19365
X46780Y19365
X46780Y20365
X45780Y20365
X44780Y20365
X43780Y20365
X42780Y20365
X41780Y20365
X40780Y20365
X39780Y20365
X39780Y21365
X40780Y21365
X41780Y21365
X42780Y21365
X43780Y21365
X44780Y21365
X45780Y21365
X46780Y21365
X46780Y22365
X45780Y22365
X44780Y22365
X43780Y22365
X42780Y22365
X41780Y22365
X40780Y22365
X39780Y22365
X39780Y23365
X40780Y23365
X41780Y23365
X42780Y23365
X43780Y23365
X44780Y23365
X45780Y23365
X46780Y23365
X46780Y24365
X45780Y24365
X44780Y24365
X43780Y24365
X42780Y24365
X41780Y24365
X40780Y24365
X39780Y24365
X39780Y25365
X40780Y25365
X41780Y25365
X42780Y25365
X43780Y25365
X44780Y25365
X45780Y25365
X46780Y25365
X46780Y26365
X45780Y26365
X44780Y26365
X43780Y26365
X42780Y26365
X41780Y26365
X40780Y26365
X39780Y26365
X39780Y27365
X40780Y27365
X41780Y27365
X42780Y27365
X43780Y27365
X44780Y27365
X45780Y27365
X46780Y27365
X46780Y28365
X45780Y28365
X44780Y28365
X43780Y28365
X42780Y28365
X41780Y28365
X40780Y28365
X39780Y28365
X39780Y29365
X40780Y29365
X41780Y29365
X42780Y29365
X43780Y29365
X44780Y29365
X45780Y29365
X46780Y29365
X46780Y30365
X45780Y30365
X44780Y30365
X43780Y30365
X42780Y30365
X41780Y30365
X40780Y30365
X39780Y30365
X39780Y31365
X40780Y31365
X41780Y31365
X42780Y31365
X43780Y31365
X44780Y31365
X45780Y31365
X46780Y31365
X46780Y32365
X45780Y32365
X44780Y32365
X43780Y32365
X42780Y32365
X41780Y32365
X40780Y32365
X39780Y32365
X39780Y33365
X40780Y33365
X41780Y33365
X42780Y33365
X43780Y33365
X44780Y33365
X45780Y33365
X46780Y33365
X46780Y34365
X45780Y34365
X44780Y34365
X43780Y34365
X42780Y34365
X41780Y34365
X40780Y34365
X39780Y34365
T03
X1643Y869
X46918Y869
X46918Y38861
X1643Y38861
T04
X1643Y35613
X1643Y4117
X46918Y4117
X46918Y35613
M30
