G75*
%MOIN*%
%OFA0B0*%
%FSLAX25Y25*%
%IPPOS*%
%LPD*%
%AMOC8*
5,1,8,0,0,1.08239X$1,22.5*
%
%ADD10C,0.07400*%
D10*
X0017805Y0053650D03*
X0027805Y0053650D03*
X0037805Y0053650D03*
X0047805Y0053650D03*
X0057805Y0053650D03*
X0067805Y0053650D03*
X0077805Y0053650D03*
X0087805Y0053650D03*
X0097805Y0053650D03*
X0107805Y0053650D03*
X0117805Y0053650D03*
X0127805Y0053650D03*
X0137805Y0053650D03*
X0147805Y0053650D03*
X0157805Y0053650D03*
X0167805Y0053650D03*
X0177805Y0053650D03*
X0187805Y0053650D03*
X0197805Y0053650D03*
X0207805Y0053650D03*
X0217805Y0053650D03*
X0227805Y0053650D03*
X0237805Y0053650D03*
X0247805Y0053650D03*
X0257805Y0053650D03*
X0267805Y0053650D03*
X0277805Y0053650D03*
X0287805Y0053650D03*
X0297805Y0053650D03*
X0307805Y0053650D03*
X0317805Y0053650D03*
X0327805Y0053650D03*
X0337805Y0053650D03*
X0347805Y0053650D03*
X0357805Y0053650D03*
X0367805Y0053650D03*
X0377805Y0053650D03*
X0387805Y0053650D03*
X0397805Y0053650D03*
X0407805Y0053650D03*
X0417805Y0053650D03*
X0427805Y0053650D03*
X0437805Y0053650D03*
X0447805Y0053650D03*
X0457805Y0053650D03*
X0467805Y0053650D03*
X0467805Y0063650D03*
X0457805Y0063650D03*
X0447805Y0063650D03*
X0437805Y0063650D03*
X0427805Y0063650D03*
X0417805Y0063650D03*
X0407805Y0063650D03*
X0397805Y0063650D03*
X0397805Y0073650D03*
X0407805Y0073650D03*
X0417805Y0073650D03*
X0427805Y0073650D03*
X0437805Y0073650D03*
X0447805Y0073650D03*
X0457805Y0073650D03*
X0467805Y0073650D03*
X0467805Y0083650D03*
X0457805Y0083650D03*
X0447805Y0083650D03*
X0437805Y0083650D03*
X0427805Y0083650D03*
X0417805Y0083650D03*
X0407805Y0083650D03*
X0397805Y0083650D03*
X0397805Y0093650D03*
X0407805Y0093650D03*
X0417805Y0093650D03*
X0427805Y0093650D03*
X0437805Y0093650D03*
X0447805Y0093650D03*
X0457805Y0093650D03*
X0467805Y0093650D03*
X0467805Y0103650D03*
X0457805Y0103650D03*
X0447805Y0103650D03*
X0437805Y0103650D03*
X0427805Y0103650D03*
X0417805Y0103650D03*
X0407805Y0103650D03*
X0397805Y0103650D03*
X0397805Y0113650D03*
X0407805Y0113650D03*
X0417805Y0113650D03*
X0427805Y0113650D03*
X0437805Y0113650D03*
X0447805Y0113650D03*
X0457805Y0113650D03*
X0467805Y0113650D03*
X0467805Y0123650D03*
X0457805Y0123650D03*
X0447805Y0123650D03*
X0437805Y0123650D03*
X0427805Y0123650D03*
X0417805Y0123650D03*
X0407805Y0123650D03*
X0397805Y0123650D03*
X0397805Y0133650D03*
X0407805Y0133650D03*
X0417805Y0133650D03*
X0427805Y0133650D03*
X0437805Y0133650D03*
X0447805Y0133650D03*
X0457805Y0133650D03*
X0467805Y0133650D03*
X0467805Y0143650D03*
X0457805Y0143650D03*
X0447805Y0143650D03*
X0437805Y0143650D03*
X0427805Y0143650D03*
X0417805Y0143650D03*
X0407805Y0143650D03*
X0397805Y0143650D03*
X0397805Y0153650D03*
X0407805Y0153650D03*
X0417805Y0153650D03*
X0427805Y0153650D03*
X0437805Y0153650D03*
X0447805Y0153650D03*
X0457805Y0153650D03*
X0467805Y0153650D03*
X0467805Y0163650D03*
X0457805Y0163650D03*
X0447805Y0163650D03*
X0437805Y0163650D03*
X0427805Y0163650D03*
X0417805Y0163650D03*
X0407805Y0163650D03*
X0397805Y0163650D03*
X0397805Y0173650D03*
X0407805Y0173650D03*
X0417805Y0173650D03*
X0427805Y0173650D03*
X0437805Y0173650D03*
X0447805Y0173650D03*
X0457805Y0173650D03*
X0467805Y0173650D03*
X0467805Y0183650D03*
X0457805Y0183650D03*
X0447805Y0183650D03*
X0437805Y0183650D03*
X0427805Y0183650D03*
X0417805Y0183650D03*
X0407805Y0183650D03*
X0397805Y0183650D03*
X0397805Y0193650D03*
X0407805Y0193650D03*
X0417805Y0193650D03*
X0427805Y0193650D03*
X0437805Y0193650D03*
X0447805Y0193650D03*
X0457805Y0193650D03*
X0467805Y0193650D03*
X0467805Y0203650D03*
X0457805Y0203650D03*
X0447805Y0203650D03*
X0437805Y0203650D03*
X0427805Y0203650D03*
X0417805Y0203650D03*
X0407805Y0203650D03*
X0397805Y0203650D03*
X0397805Y0213650D03*
X0407805Y0213650D03*
X0417805Y0213650D03*
X0427805Y0213650D03*
X0437805Y0213650D03*
X0447805Y0213650D03*
X0457805Y0213650D03*
X0467805Y0213650D03*
X0467805Y0223650D03*
X0457805Y0223650D03*
X0447805Y0223650D03*
X0437805Y0223650D03*
X0427805Y0223650D03*
X0417805Y0223650D03*
X0407805Y0223650D03*
X0397805Y0223650D03*
X0397805Y0233650D03*
X0407805Y0233650D03*
X0417805Y0233650D03*
X0427805Y0233650D03*
X0437805Y0233650D03*
X0447805Y0233650D03*
X0457805Y0233650D03*
X0467805Y0233650D03*
X0467805Y0243650D03*
X0457805Y0243650D03*
X0447805Y0243650D03*
X0437805Y0243650D03*
X0427805Y0243650D03*
X0417805Y0243650D03*
X0407805Y0243650D03*
X0397805Y0243650D03*
X0397805Y0253650D03*
X0407805Y0253650D03*
X0417805Y0253650D03*
X0427805Y0253650D03*
X0437805Y0253650D03*
X0447805Y0253650D03*
X0457805Y0253650D03*
X0467805Y0253650D03*
X0467805Y0263650D03*
X0457805Y0263650D03*
X0447805Y0263650D03*
X0437805Y0263650D03*
X0427805Y0263650D03*
X0417805Y0263650D03*
X0407805Y0263650D03*
X0397805Y0263650D03*
X0397805Y0273650D03*
X0407805Y0273650D03*
X0417805Y0273650D03*
X0427805Y0273650D03*
X0437805Y0273650D03*
X0447805Y0273650D03*
X0457805Y0273650D03*
X0467805Y0273650D03*
X0467805Y0283650D03*
X0457805Y0283650D03*
X0447805Y0283650D03*
X0437805Y0283650D03*
X0427805Y0283650D03*
X0417805Y0283650D03*
X0407805Y0283650D03*
X0397805Y0283650D03*
X0397805Y0293650D03*
X0407805Y0293650D03*
X0417805Y0293650D03*
X0427805Y0293650D03*
X0437805Y0293650D03*
X0447805Y0293650D03*
X0457805Y0293650D03*
X0467805Y0293650D03*
X0467805Y0303650D03*
X0457805Y0303650D03*
X0447805Y0303650D03*
X0437805Y0303650D03*
X0427805Y0303650D03*
X0417805Y0303650D03*
X0407805Y0303650D03*
X0397805Y0303650D03*
X0397805Y0313650D03*
X0407805Y0313650D03*
X0417805Y0313650D03*
X0427805Y0313650D03*
X0437805Y0313650D03*
X0447805Y0313650D03*
X0457805Y0313650D03*
X0467805Y0313650D03*
X0467805Y0323650D03*
X0457805Y0323650D03*
X0447805Y0323650D03*
X0437805Y0323650D03*
X0427805Y0323650D03*
X0417805Y0323650D03*
X0407805Y0323650D03*
X0397805Y0323650D03*
X0397805Y0333650D03*
X0407805Y0333650D03*
X0417805Y0333650D03*
X0427805Y0333650D03*
X0437805Y0333650D03*
X0447805Y0333650D03*
X0457805Y0333650D03*
X0467805Y0333650D03*
X0467805Y0343650D03*
X0457805Y0343650D03*
X0447805Y0343650D03*
X0437805Y0343650D03*
X0427805Y0343650D03*
X0417805Y0343650D03*
X0407805Y0343650D03*
X0397805Y0343650D03*
X0387805Y0343650D03*
X0377805Y0343650D03*
X0367805Y0343650D03*
X0357805Y0343650D03*
X0347805Y0343650D03*
X0337805Y0343650D03*
X0327805Y0343650D03*
X0317805Y0343650D03*
X0307805Y0343650D03*
X0297805Y0343650D03*
X0287805Y0343650D03*
X0277805Y0343650D03*
X0267805Y0343650D03*
X0257805Y0343650D03*
X0247805Y0343650D03*
X0237805Y0343650D03*
X0237805Y0333650D03*
X0237805Y0323650D03*
X0247805Y0323650D03*
X0257805Y0323650D03*
X0267805Y0323650D03*
X0277805Y0323650D03*
X0287805Y0323650D03*
X0297805Y0323650D03*
X0307805Y0323650D03*
X0317805Y0323650D03*
X0327805Y0323650D03*
X0337805Y0323650D03*
X0347805Y0323650D03*
X0357805Y0323650D03*
X0367805Y0323650D03*
X0377805Y0323650D03*
X0387805Y0323650D03*
X0387805Y0333650D03*
X0377805Y0333650D03*
X0367805Y0333650D03*
X0357805Y0333650D03*
X0347805Y0333650D03*
X0337805Y0333650D03*
X0327805Y0333650D03*
X0317805Y0333650D03*
X0307805Y0333650D03*
X0297805Y0333650D03*
X0287805Y0333650D03*
X0277805Y0333650D03*
X0267805Y0333650D03*
X0257805Y0333650D03*
X0247805Y0333650D03*
X0247805Y0313650D03*
X0247805Y0303650D03*
X0257805Y0303650D03*
X0267805Y0303650D03*
X0277805Y0303650D03*
X0287805Y0303650D03*
X0297805Y0303650D03*
X0307805Y0303650D03*
X0317805Y0303650D03*
X0327805Y0303650D03*
X0337805Y0303650D03*
X0347805Y0303650D03*
X0357805Y0303650D03*
X0367805Y0303650D03*
X0377805Y0303650D03*
X0387805Y0303650D03*
X0387805Y0313650D03*
X0377805Y0313650D03*
X0367805Y0313650D03*
X0357805Y0313650D03*
X0347805Y0313650D03*
X0337805Y0313650D03*
X0327805Y0313650D03*
X0317805Y0313650D03*
X0307805Y0313650D03*
X0297805Y0313650D03*
X0287805Y0313650D03*
X0277805Y0313650D03*
X0267805Y0313650D03*
X0257805Y0313650D03*
X0237805Y0313650D03*
X0237805Y0303650D03*
X0237805Y0293650D03*
X0237805Y0283650D03*
X0247805Y0283650D03*
X0257805Y0283650D03*
X0267805Y0283650D03*
X0277805Y0283650D03*
X0287805Y0283650D03*
X0297805Y0283650D03*
X0307805Y0283650D03*
X0317805Y0283650D03*
X0327805Y0283650D03*
X0337805Y0283650D03*
X0347805Y0283650D03*
X0357805Y0283650D03*
X0367805Y0283650D03*
X0377805Y0283650D03*
X0387805Y0283650D03*
X0387805Y0293650D03*
X0377805Y0293650D03*
X0367805Y0293650D03*
X0357805Y0293650D03*
X0347805Y0293650D03*
X0337805Y0293650D03*
X0327805Y0293650D03*
X0317805Y0293650D03*
X0307805Y0293650D03*
X0297805Y0293650D03*
X0287805Y0293650D03*
X0277805Y0293650D03*
X0267805Y0293650D03*
X0257805Y0293650D03*
X0247805Y0293650D03*
X0247805Y0273650D03*
X0247805Y0263650D03*
X0257805Y0263650D03*
X0267805Y0263650D03*
X0277805Y0263650D03*
X0287805Y0263650D03*
X0297805Y0263650D03*
X0307805Y0263650D03*
X0317805Y0263650D03*
X0327805Y0263650D03*
X0337805Y0263650D03*
X0347805Y0263650D03*
X0357805Y0263650D03*
X0367805Y0263650D03*
X0377805Y0263650D03*
X0387805Y0263650D03*
X0387805Y0273650D03*
X0377805Y0273650D03*
X0367805Y0273650D03*
X0357805Y0273650D03*
X0347805Y0273650D03*
X0337805Y0273650D03*
X0327805Y0273650D03*
X0317805Y0273650D03*
X0307805Y0273650D03*
X0297805Y0273650D03*
X0287805Y0273650D03*
X0277805Y0273650D03*
X0267805Y0273650D03*
X0257805Y0273650D03*
X0237805Y0273650D03*
X0237805Y0263650D03*
X0237805Y0253650D03*
X0237805Y0243650D03*
X0247805Y0243650D03*
X0257805Y0243650D03*
X0267805Y0243650D03*
X0277805Y0243650D03*
X0287805Y0243650D03*
X0297805Y0243650D03*
X0307805Y0243650D03*
X0317805Y0243650D03*
X0327805Y0243650D03*
X0337805Y0243650D03*
X0347805Y0243650D03*
X0357805Y0243650D03*
X0367805Y0243650D03*
X0377805Y0243650D03*
X0387805Y0243650D03*
X0387805Y0253650D03*
X0377805Y0253650D03*
X0367805Y0253650D03*
X0357805Y0253650D03*
X0347805Y0253650D03*
X0337805Y0253650D03*
X0327805Y0253650D03*
X0317805Y0253650D03*
X0307805Y0253650D03*
X0297805Y0253650D03*
X0287805Y0253650D03*
X0277805Y0253650D03*
X0267805Y0253650D03*
X0257805Y0253650D03*
X0247805Y0253650D03*
X0247805Y0233650D03*
X0247805Y0223650D03*
X0257805Y0223650D03*
X0267805Y0223650D03*
X0277805Y0223650D03*
X0287805Y0223650D03*
X0297805Y0223650D03*
X0307805Y0223650D03*
X0317805Y0223650D03*
X0327805Y0223650D03*
X0337805Y0223650D03*
X0347805Y0223650D03*
X0357805Y0223650D03*
X0367805Y0223650D03*
X0377805Y0223650D03*
X0387805Y0223650D03*
X0387805Y0233650D03*
X0377805Y0233650D03*
X0367805Y0233650D03*
X0357805Y0233650D03*
X0347805Y0233650D03*
X0337805Y0233650D03*
X0327805Y0233650D03*
X0317805Y0233650D03*
X0307805Y0233650D03*
X0297805Y0233650D03*
X0287805Y0233650D03*
X0277805Y0233650D03*
X0267805Y0233650D03*
X0257805Y0233650D03*
X0237805Y0233650D03*
X0237805Y0223650D03*
X0237805Y0213650D03*
X0237805Y0203650D03*
X0247805Y0203650D03*
X0257805Y0203650D03*
X0267805Y0203650D03*
X0277805Y0203650D03*
X0287805Y0203650D03*
X0297805Y0203650D03*
X0307805Y0203650D03*
X0317805Y0203650D03*
X0327805Y0203650D03*
X0337805Y0203650D03*
X0347805Y0203650D03*
X0357805Y0203650D03*
X0367805Y0203650D03*
X0377805Y0203650D03*
X0387805Y0203650D03*
X0387805Y0213650D03*
X0377805Y0213650D03*
X0367805Y0213650D03*
X0357805Y0213650D03*
X0347805Y0213650D03*
X0337805Y0213650D03*
X0327805Y0213650D03*
X0317805Y0213650D03*
X0307805Y0213650D03*
X0297805Y0213650D03*
X0287805Y0213650D03*
X0277805Y0213650D03*
X0267805Y0213650D03*
X0257805Y0213650D03*
X0247805Y0213650D03*
X0247805Y0193650D03*
X0247805Y0183650D03*
X0257805Y0183650D03*
X0267805Y0183650D03*
X0277805Y0183650D03*
X0287805Y0183650D03*
X0297805Y0183650D03*
X0307805Y0183650D03*
X0317805Y0183650D03*
X0327805Y0183650D03*
X0337805Y0183650D03*
X0347805Y0183650D03*
X0357805Y0183650D03*
X0367805Y0183650D03*
X0377805Y0183650D03*
X0387805Y0183650D03*
X0387805Y0193650D03*
X0377805Y0193650D03*
X0367805Y0193650D03*
X0357805Y0193650D03*
X0347805Y0193650D03*
X0337805Y0193650D03*
X0327805Y0193650D03*
X0317805Y0193650D03*
X0307805Y0193650D03*
X0297805Y0193650D03*
X0287805Y0193650D03*
X0277805Y0193650D03*
X0267805Y0193650D03*
X0257805Y0193650D03*
X0237805Y0193650D03*
X0237805Y0183650D03*
X0237805Y0173650D03*
X0237805Y0163650D03*
X0247805Y0163650D03*
X0257805Y0163650D03*
X0267805Y0163650D03*
X0277805Y0163650D03*
X0287805Y0163650D03*
X0297805Y0163650D03*
X0307805Y0163650D03*
X0317805Y0163650D03*
X0327805Y0163650D03*
X0337805Y0163650D03*
X0347805Y0163650D03*
X0357805Y0163650D03*
X0367805Y0163650D03*
X0377805Y0163650D03*
X0387805Y0163650D03*
X0387805Y0173650D03*
X0377805Y0173650D03*
X0367805Y0173650D03*
X0357805Y0173650D03*
X0347805Y0173650D03*
X0337805Y0173650D03*
X0327805Y0173650D03*
X0317805Y0173650D03*
X0307805Y0173650D03*
X0297805Y0173650D03*
X0287805Y0173650D03*
X0277805Y0173650D03*
X0267805Y0173650D03*
X0257805Y0173650D03*
X0247805Y0173650D03*
X0247805Y0153650D03*
X0247805Y0143650D03*
X0257805Y0143650D03*
X0267805Y0143650D03*
X0277805Y0143650D03*
X0287805Y0143650D03*
X0297805Y0143650D03*
X0307805Y0143650D03*
X0317805Y0143650D03*
X0327805Y0143650D03*
X0337805Y0143650D03*
X0347805Y0143650D03*
X0357805Y0143650D03*
X0367805Y0143650D03*
X0377805Y0143650D03*
X0387805Y0143650D03*
X0387805Y0153650D03*
X0377805Y0153650D03*
X0367805Y0153650D03*
X0357805Y0153650D03*
X0347805Y0153650D03*
X0337805Y0153650D03*
X0327805Y0153650D03*
X0317805Y0153650D03*
X0307805Y0153650D03*
X0297805Y0153650D03*
X0287805Y0153650D03*
X0277805Y0153650D03*
X0267805Y0153650D03*
X0257805Y0153650D03*
X0237805Y0153650D03*
X0237805Y0143650D03*
X0237805Y0133650D03*
X0237805Y0123650D03*
X0247805Y0123650D03*
X0257805Y0123650D03*
X0267805Y0123650D03*
X0277805Y0123650D03*
X0287805Y0123650D03*
X0297805Y0123650D03*
X0307805Y0123650D03*
X0317805Y0123650D03*
X0327805Y0123650D03*
X0337805Y0123650D03*
X0347805Y0123650D03*
X0357805Y0123650D03*
X0367805Y0123650D03*
X0377805Y0123650D03*
X0387805Y0123650D03*
X0387805Y0133650D03*
X0377805Y0133650D03*
X0367805Y0133650D03*
X0357805Y0133650D03*
X0347805Y0133650D03*
X0337805Y0133650D03*
X0327805Y0133650D03*
X0317805Y0133650D03*
X0307805Y0133650D03*
X0297805Y0133650D03*
X0287805Y0133650D03*
X0277805Y0133650D03*
X0267805Y0133650D03*
X0257805Y0133650D03*
X0247805Y0133650D03*
X0247805Y0113650D03*
X0247805Y0103650D03*
X0257805Y0103650D03*
X0267805Y0103650D03*
X0277805Y0103650D03*
X0287805Y0103650D03*
X0297805Y0103650D03*
X0307805Y0103650D03*
X0317805Y0103650D03*
X0327805Y0103650D03*
X0337805Y0103650D03*
X0347805Y0103650D03*
X0357805Y0103650D03*
X0367805Y0103650D03*
X0377805Y0103650D03*
X0387805Y0103650D03*
X0387805Y0113650D03*
X0377805Y0113650D03*
X0367805Y0113650D03*
X0357805Y0113650D03*
X0347805Y0113650D03*
X0337805Y0113650D03*
X0327805Y0113650D03*
X0317805Y0113650D03*
X0307805Y0113650D03*
X0297805Y0113650D03*
X0287805Y0113650D03*
X0277805Y0113650D03*
X0267805Y0113650D03*
X0257805Y0113650D03*
X0237805Y0113650D03*
X0237805Y0103650D03*
X0237805Y0093650D03*
X0237805Y0083650D03*
X0247805Y0083650D03*
X0257805Y0083650D03*
X0267805Y0083650D03*
X0277805Y0083650D03*
X0287805Y0083650D03*
X0297805Y0083650D03*
X0307805Y0083650D03*
X0317805Y0083650D03*
X0327805Y0083650D03*
X0337805Y0083650D03*
X0347805Y0083650D03*
X0357805Y0083650D03*
X0367805Y0083650D03*
X0377805Y0083650D03*
X0387805Y0083650D03*
X0387805Y0093650D03*
X0377805Y0093650D03*
X0367805Y0093650D03*
X0357805Y0093650D03*
X0347805Y0093650D03*
X0337805Y0093650D03*
X0327805Y0093650D03*
X0317805Y0093650D03*
X0307805Y0093650D03*
X0297805Y0093650D03*
X0287805Y0093650D03*
X0277805Y0093650D03*
X0267805Y0093650D03*
X0257805Y0093650D03*
X0247805Y0093650D03*
X0247805Y0073650D03*
X0247805Y0063650D03*
X0257805Y0063650D03*
X0267805Y0063650D03*
X0277805Y0063650D03*
X0287805Y0063650D03*
X0297805Y0063650D03*
X0307805Y0063650D03*
X0317805Y0063650D03*
X0327805Y0063650D03*
X0337805Y0063650D03*
X0347805Y0063650D03*
X0357805Y0063650D03*
X0367805Y0063650D03*
X0377805Y0063650D03*
X0387805Y0063650D03*
X0387805Y0073650D03*
X0377805Y0073650D03*
X0367805Y0073650D03*
X0357805Y0073650D03*
X0347805Y0073650D03*
X0337805Y0073650D03*
X0327805Y0073650D03*
X0317805Y0073650D03*
X0307805Y0073650D03*
X0297805Y0073650D03*
X0287805Y0073650D03*
X0277805Y0073650D03*
X0267805Y0073650D03*
X0257805Y0073650D03*
X0237805Y0073650D03*
X0237805Y0063650D03*
X0227805Y0063650D03*
X0217805Y0063650D03*
X0207805Y0063650D03*
X0197805Y0063650D03*
X0187805Y0063650D03*
X0177805Y0063650D03*
X0167805Y0063650D03*
X0157805Y0063650D03*
X0147805Y0063650D03*
X0137805Y0063650D03*
X0127805Y0063650D03*
X0117805Y0063650D03*
X0107805Y0063650D03*
X0097805Y0063650D03*
X0087805Y0063650D03*
X0077805Y0063650D03*
X0077805Y0073650D03*
X0087805Y0073650D03*
X0097805Y0073650D03*
X0107805Y0073650D03*
X0117805Y0073650D03*
X0127805Y0073650D03*
X0137805Y0073650D03*
X0147805Y0073650D03*
X0157805Y0073650D03*
X0167805Y0073650D03*
X0177805Y0073650D03*
X0187805Y0073650D03*
X0197805Y0073650D03*
X0207805Y0073650D03*
X0217805Y0073650D03*
X0227805Y0073650D03*
X0227805Y0083650D03*
X0217805Y0083650D03*
X0207805Y0083650D03*
X0197805Y0083650D03*
X0187805Y0083650D03*
X0177805Y0083650D03*
X0167805Y0083650D03*
X0157805Y0083650D03*
X0147805Y0083650D03*
X0137805Y0083650D03*
X0127805Y0083650D03*
X0117805Y0083650D03*
X0107805Y0083650D03*
X0097805Y0083650D03*
X0087805Y0083650D03*
X0077805Y0083650D03*
X0077805Y0093650D03*
X0087805Y0093650D03*
X0097805Y0093650D03*
X0107805Y0093650D03*
X0117805Y0093650D03*
X0127805Y0093650D03*
X0137805Y0093650D03*
X0147805Y0093650D03*
X0157805Y0093650D03*
X0167805Y0093650D03*
X0177805Y0093650D03*
X0187805Y0093650D03*
X0197805Y0093650D03*
X0207805Y0093650D03*
X0217805Y0093650D03*
X0227805Y0093650D03*
X0227805Y0103650D03*
X0217805Y0103650D03*
X0207805Y0103650D03*
X0197805Y0103650D03*
X0187805Y0103650D03*
X0177805Y0103650D03*
X0167805Y0103650D03*
X0157805Y0103650D03*
X0147805Y0103650D03*
X0137805Y0103650D03*
X0127805Y0103650D03*
X0117805Y0103650D03*
X0107805Y0103650D03*
X0097805Y0103650D03*
X0087805Y0103650D03*
X0077805Y0103650D03*
X0077805Y0113650D03*
X0087805Y0113650D03*
X0097805Y0113650D03*
X0107805Y0113650D03*
X0117805Y0113650D03*
X0127805Y0113650D03*
X0137805Y0113650D03*
X0147805Y0113650D03*
X0157805Y0113650D03*
X0167805Y0113650D03*
X0177805Y0113650D03*
X0187805Y0113650D03*
X0197805Y0113650D03*
X0207805Y0113650D03*
X0217805Y0113650D03*
X0227805Y0113650D03*
X0227805Y0123650D03*
X0217805Y0123650D03*
X0207805Y0123650D03*
X0197805Y0123650D03*
X0187805Y0123650D03*
X0177805Y0123650D03*
X0167805Y0123650D03*
X0157805Y0123650D03*
X0147805Y0123650D03*
X0137805Y0123650D03*
X0127805Y0123650D03*
X0117805Y0123650D03*
X0107805Y0123650D03*
X0097805Y0123650D03*
X0087805Y0123650D03*
X0077805Y0123650D03*
X0077805Y0133650D03*
X0087805Y0133650D03*
X0097805Y0133650D03*
X0107805Y0133650D03*
X0117805Y0133650D03*
X0127805Y0133650D03*
X0137805Y0133650D03*
X0147805Y0133650D03*
X0157805Y0133650D03*
X0167805Y0133650D03*
X0177805Y0133650D03*
X0187805Y0133650D03*
X0197805Y0133650D03*
X0207805Y0133650D03*
X0217805Y0133650D03*
X0227805Y0133650D03*
X0227805Y0143650D03*
X0217805Y0143650D03*
X0207805Y0143650D03*
X0197805Y0143650D03*
X0187805Y0143650D03*
X0177805Y0143650D03*
X0167805Y0143650D03*
X0157805Y0143650D03*
X0147805Y0143650D03*
X0137805Y0143650D03*
X0127805Y0143650D03*
X0117805Y0143650D03*
X0107805Y0143650D03*
X0097805Y0143650D03*
X0087805Y0143650D03*
X0077805Y0143650D03*
X0077805Y0153650D03*
X0087805Y0153650D03*
X0097805Y0153650D03*
X0107805Y0153650D03*
X0117805Y0153650D03*
X0127805Y0153650D03*
X0137805Y0153650D03*
X0147805Y0153650D03*
X0157805Y0153650D03*
X0167805Y0153650D03*
X0177805Y0153650D03*
X0187805Y0153650D03*
X0197805Y0153650D03*
X0207805Y0153650D03*
X0217805Y0153650D03*
X0227805Y0153650D03*
X0227805Y0163650D03*
X0217805Y0163650D03*
X0207805Y0163650D03*
X0197805Y0163650D03*
X0187805Y0163650D03*
X0177805Y0163650D03*
X0167805Y0163650D03*
X0157805Y0163650D03*
X0147805Y0163650D03*
X0137805Y0163650D03*
X0127805Y0163650D03*
X0117805Y0163650D03*
X0107805Y0163650D03*
X0097805Y0163650D03*
X0087805Y0163650D03*
X0077805Y0163650D03*
X0077805Y0173650D03*
X0087805Y0173650D03*
X0097805Y0173650D03*
X0107805Y0173650D03*
X0117805Y0173650D03*
X0127805Y0173650D03*
X0137805Y0173650D03*
X0147805Y0173650D03*
X0157805Y0173650D03*
X0167805Y0173650D03*
X0177805Y0173650D03*
X0187805Y0173650D03*
X0197805Y0173650D03*
X0207805Y0173650D03*
X0217805Y0173650D03*
X0227805Y0173650D03*
X0227805Y0183650D03*
X0217805Y0183650D03*
X0207805Y0183650D03*
X0197805Y0183650D03*
X0187805Y0183650D03*
X0177805Y0183650D03*
X0167805Y0183650D03*
X0157805Y0183650D03*
X0147805Y0183650D03*
X0137805Y0183650D03*
X0127805Y0183650D03*
X0117805Y0183650D03*
X0107805Y0183650D03*
X0097805Y0183650D03*
X0087805Y0183650D03*
X0077805Y0183650D03*
X0077805Y0193650D03*
X0087805Y0193650D03*
X0097805Y0193650D03*
X0107805Y0193650D03*
X0117805Y0193650D03*
X0127805Y0193650D03*
X0137805Y0193650D03*
X0147805Y0193650D03*
X0157805Y0193650D03*
X0167805Y0193650D03*
X0177805Y0193650D03*
X0187805Y0193650D03*
X0197805Y0193650D03*
X0207805Y0193650D03*
X0217805Y0193650D03*
X0227805Y0193650D03*
X0227805Y0203650D03*
X0217805Y0203650D03*
X0207805Y0203650D03*
X0197805Y0203650D03*
X0187805Y0203650D03*
X0177805Y0203650D03*
X0167805Y0203650D03*
X0157805Y0203650D03*
X0147805Y0203650D03*
X0137805Y0203650D03*
X0127805Y0203650D03*
X0117805Y0203650D03*
X0107805Y0203650D03*
X0097805Y0203650D03*
X0087805Y0203650D03*
X0077805Y0203650D03*
X0077805Y0213650D03*
X0087805Y0213650D03*
X0097805Y0213650D03*
X0107805Y0213650D03*
X0117805Y0213650D03*
X0127805Y0213650D03*
X0137805Y0213650D03*
X0147805Y0213650D03*
X0157805Y0213650D03*
X0167805Y0213650D03*
X0177805Y0213650D03*
X0187805Y0213650D03*
X0197805Y0213650D03*
X0207805Y0213650D03*
X0217805Y0213650D03*
X0227805Y0213650D03*
X0227805Y0223650D03*
X0217805Y0223650D03*
X0207805Y0223650D03*
X0197805Y0223650D03*
X0187805Y0223650D03*
X0177805Y0223650D03*
X0167805Y0223650D03*
X0157805Y0223650D03*
X0147805Y0223650D03*
X0137805Y0223650D03*
X0127805Y0223650D03*
X0117805Y0223650D03*
X0107805Y0223650D03*
X0097805Y0223650D03*
X0087805Y0223650D03*
X0077805Y0223650D03*
X0077805Y0233650D03*
X0087805Y0233650D03*
X0097805Y0233650D03*
X0107805Y0233650D03*
X0117805Y0233650D03*
X0127805Y0233650D03*
X0137805Y0233650D03*
X0147805Y0233650D03*
X0157805Y0233650D03*
X0167805Y0233650D03*
X0177805Y0233650D03*
X0187805Y0233650D03*
X0197805Y0233650D03*
X0207805Y0233650D03*
X0217805Y0233650D03*
X0227805Y0233650D03*
X0227805Y0243650D03*
X0217805Y0243650D03*
X0207805Y0243650D03*
X0197805Y0243650D03*
X0187805Y0243650D03*
X0177805Y0243650D03*
X0167805Y0243650D03*
X0157805Y0243650D03*
X0147805Y0243650D03*
X0137805Y0243650D03*
X0127805Y0243650D03*
X0117805Y0243650D03*
X0107805Y0243650D03*
X0097805Y0243650D03*
X0087805Y0243650D03*
X0077805Y0243650D03*
X0077805Y0253650D03*
X0087805Y0253650D03*
X0097805Y0253650D03*
X0107805Y0253650D03*
X0117805Y0253650D03*
X0127805Y0253650D03*
X0137805Y0253650D03*
X0147805Y0253650D03*
X0157805Y0253650D03*
X0167805Y0253650D03*
X0177805Y0253650D03*
X0187805Y0253650D03*
X0197805Y0253650D03*
X0207805Y0253650D03*
X0217805Y0253650D03*
X0227805Y0253650D03*
X0227805Y0263650D03*
X0217805Y0263650D03*
X0207805Y0263650D03*
X0197805Y0263650D03*
X0187805Y0263650D03*
X0177805Y0263650D03*
X0167805Y0263650D03*
X0157805Y0263650D03*
X0147805Y0263650D03*
X0137805Y0263650D03*
X0127805Y0263650D03*
X0117805Y0263650D03*
X0107805Y0263650D03*
X0097805Y0263650D03*
X0087805Y0263650D03*
X0077805Y0263650D03*
X0077805Y0273650D03*
X0087805Y0273650D03*
X0097805Y0273650D03*
X0107805Y0273650D03*
X0117805Y0273650D03*
X0127805Y0273650D03*
X0137805Y0273650D03*
X0147805Y0273650D03*
X0157805Y0273650D03*
X0167805Y0273650D03*
X0177805Y0273650D03*
X0187805Y0273650D03*
X0197805Y0273650D03*
X0207805Y0273650D03*
X0217805Y0273650D03*
X0227805Y0273650D03*
X0227805Y0283650D03*
X0217805Y0283650D03*
X0207805Y0283650D03*
X0197805Y0283650D03*
X0187805Y0283650D03*
X0177805Y0283650D03*
X0167805Y0283650D03*
X0157805Y0283650D03*
X0147805Y0283650D03*
X0137805Y0283650D03*
X0127805Y0283650D03*
X0117805Y0283650D03*
X0107805Y0283650D03*
X0097805Y0283650D03*
X0087805Y0283650D03*
X0077805Y0283650D03*
X0077805Y0293650D03*
X0087805Y0293650D03*
X0097805Y0293650D03*
X0107805Y0293650D03*
X0117805Y0293650D03*
X0127805Y0293650D03*
X0137805Y0293650D03*
X0147805Y0293650D03*
X0157805Y0293650D03*
X0167805Y0293650D03*
X0177805Y0293650D03*
X0187805Y0293650D03*
X0197805Y0293650D03*
X0207805Y0293650D03*
X0217805Y0293650D03*
X0227805Y0293650D03*
X0227805Y0303650D03*
X0217805Y0303650D03*
X0207805Y0303650D03*
X0197805Y0303650D03*
X0187805Y0303650D03*
X0177805Y0303650D03*
X0167805Y0303650D03*
X0157805Y0303650D03*
X0147805Y0303650D03*
X0137805Y0303650D03*
X0127805Y0303650D03*
X0117805Y0303650D03*
X0107805Y0303650D03*
X0097805Y0303650D03*
X0087805Y0303650D03*
X0077805Y0303650D03*
X0077805Y0313650D03*
X0087805Y0313650D03*
X0097805Y0313650D03*
X0107805Y0313650D03*
X0117805Y0313650D03*
X0127805Y0313650D03*
X0137805Y0313650D03*
X0147805Y0313650D03*
X0157805Y0313650D03*
X0167805Y0313650D03*
X0177805Y0313650D03*
X0187805Y0313650D03*
X0197805Y0313650D03*
X0207805Y0313650D03*
X0217805Y0313650D03*
X0227805Y0313650D03*
X0227805Y0323650D03*
X0217805Y0323650D03*
X0207805Y0323650D03*
X0197805Y0323650D03*
X0187805Y0323650D03*
X0177805Y0323650D03*
X0167805Y0323650D03*
X0157805Y0323650D03*
X0147805Y0323650D03*
X0137805Y0323650D03*
X0127805Y0323650D03*
X0117805Y0323650D03*
X0107805Y0323650D03*
X0097805Y0323650D03*
X0087805Y0323650D03*
X0077805Y0323650D03*
X0077805Y0333650D03*
X0087805Y0333650D03*
X0097805Y0333650D03*
X0107805Y0333650D03*
X0117805Y0333650D03*
X0127805Y0333650D03*
X0137805Y0333650D03*
X0147805Y0333650D03*
X0157805Y0333650D03*
X0167805Y0333650D03*
X0177805Y0333650D03*
X0187805Y0333650D03*
X0197805Y0333650D03*
X0207805Y0333650D03*
X0217805Y0333650D03*
X0227805Y0333650D03*
X0227805Y0343650D03*
X0217805Y0343650D03*
X0207805Y0343650D03*
X0197805Y0343650D03*
X0187805Y0343650D03*
X0177805Y0343650D03*
X0167805Y0343650D03*
X0157805Y0343650D03*
X0147805Y0343650D03*
X0137805Y0343650D03*
X0127805Y0343650D03*
X0117805Y0343650D03*
X0107805Y0343650D03*
X0097805Y0343650D03*
X0087805Y0343650D03*
X0077805Y0343650D03*
X0067805Y0343650D03*
X0057805Y0343650D03*
X0047805Y0343650D03*
X0037805Y0343650D03*
X0027805Y0343650D03*
X0017805Y0343650D03*
X0017805Y0333650D03*
X0017805Y0323650D03*
X0027805Y0323650D03*
X0037805Y0323650D03*
X0047805Y0323650D03*
X0057805Y0323650D03*
X0067805Y0323650D03*
X0067805Y0333650D03*
X0057805Y0333650D03*
X0047805Y0333650D03*
X0037805Y0333650D03*
X0027805Y0333650D03*
X0027805Y0313650D03*
X0027805Y0303650D03*
X0037805Y0303650D03*
X0047805Y0303650D03*
X0057805Y0303650D03*
X0067805Y0303650D03*
X0067805Y0313650D03*
X0057805Y0313650D03*
X0047805Y0313650D03*
X0037805Y0313650D03*
X0017805Y0313650D03*
X0017805Y0303650D03*
X0017805Y0293650D03*
X0017805Y0283650D03*
X0027805Y0283650D03*
X0037805Y0283650D03*
X0047805Y0283650D03*
X0057805Y0283650D03*
X0067805Y0283650D03*
X0067805Y0293650D03*
X0057805Y0293650D03*
X0047805Y0293650D03*
X0037805Y0293650D03*
X0027805Y0293650D03*
X0027805Y0273650D03*
X0027805Y0263650D03*
X0037805Y0263650D03*
X0047805Y0263650D03*
X0057805Y0263650D03*
X0067805Y0263650D03*
X0067805Y0273650D03*
X0057805Y0273650D03*
X0047805Y0273650D03*
X0037805Y0273650D03*
X0017805Y0273650D03*
X0017805Y0263650D03*
X0017805Y0253650D03*
X0017805Y0243650D03*
X0027805Y0243650D03*
X0037805Y0243650D03*
X0047805Y0243650D03*
X0057805Y0243650D03*
X0067805Y0243650D03*
X0067805Y0253650D03*
X0057805Y0253650D03*
X0047805Y0253650D03*
X0037805Y0253650D03*
X0027805Y0253650D03*
X0027805Y0233650D03*
X0027805Y0223650D03*
X0037805Y0223650D03*
X0047805Y0223650D03*
X0057805Y0223650D03*
X0067805Y0223650D03*
X0067805Y0233650D03*
X0057805Y0233650D03*
X0047805Y0233650D03*
X0037805Y0233650D03*
X0017805Y0233650D03*
X0017805Y0223650D03*
X0017805Y0213650D03*
X0017805Y0203650D03*
X0027805Y0203650D03*
X0037805Y0203650D03*
X0047805Y0203650D03*
X0057805Y0203650D03*
X0067805Y0203650D03*
X0067805Y0213650D03*
X0057805Y0213650D03*
X0047805Y0213650D03*
X0037805Y0213650D03*
X0027805Y0213650D03*
X0027805Y0193650D03*
X0027805Y0183650D03*
X0037805Y0183650D03*
X0047805Y0183650D03*
X0057805Y0183650D03*
X0067805Y0183650D03*
X0067805Y0193650D03*
X0057805Y0193650D03*
X0047805Y0193650D03*
X0037805Y0193650D03*
X0017805Y0193650D03*
X0017805Y0183650D03*
X0017805Y0173650D03*
X0017805Y0163650D03*
X0027805Y0163650D03*
X0037805Y0163650D03*
X0047805Y0163650D03*
X0057805Y0163650D03*
X0067805Y0163650D03*
X0067805Y0173650D03*
X0057805Y0173650D03*
X0047805Y0173650D03*
X0037805Y0173650D03*
X0027805Y0173650D03*
X0027805Y0153650D03*
X0027805Y0143650D03*
X0037805Y0143650D03*
X0047805Y0143650D03*
X0057805Y0143650D03*
X0067805Y0143650D03*
X0067805Y0153650D03*
X0057805Y0153650D03*
X0047805Y0153650D03*
X0037805Y0153650D03*
X0017805Y0153650D03*
X0017805Y0143650D03*
X0017805Y0133650D03*
X0017805Y0123650D03*
X0027805Y0123650D03*
X0037805Y0123650D03*
X0047805Y0123650D03*
X0057805Y0123650D03*
X0067805Y0123650D03*
X0067805Y0133650D03*
X0057805Y0133650D03*
X0047805Y0133650D03*
X0037805Y0133650D03*
X0027805Y0133650D03*
X0027805Y0113650D03*
X0027805Y0103650D03*
X0037805Y0103650D03*
X0047805Y0103650D03*
X0057805Y0103650D03*
X0067805Y0103650D03*
X0067805Y0113650D03*
X0057805Y0113650D03*
X0047805Y0113650D03*
X0037805Y0113650D03*
X0017805Y0113650D03*
X0017805Y0103650D03*
X0017805Y0093650D03*
X0017805Y0083650D03*
X0027805Y0083650D03*
X0037805Y0083650D03*
X0047805Y0083650D03*
X0057805Y0083650D03*
X0067805Y0083650D03*
X0067805Y0093650D03*
X0057805Y0093650D03*
X0047805Y0093650D03*
X0037805Y0093650D03*
X0027805Y0093650D03*
X0027805Y0073650D03*
X0027805Y0063650D03*
X0037805Y0063650D03*
X0047805Y0063650D03*
X0057805Y0063650D03*
X0067805Y0063650D03*
X0067805Y0073650D03*
X0057805Y0073650D03*
X0047805Y0073650D03*
X0037805Y0073650D03*
X0017805Y0073650D03*
X0017805Y0063650D03*
M02*
