G75*
%MOIN*%
%OFA0B0*%
%FSLAX25Y25*%
%IPPOS*%
%LPD*%
%AMOC8*
5,1,8,0,0,1.08239X$1,22.5*
%
%ADD10C,0.02400*%
%ADD11C,0.03937*%
%ADD12C,0.07400*%
D10*
X0307765Y0008690D02*
X0307767Y0008778D01*
X0307773Y0008866D01*
X0307783Y0008954D01*
X0307797Y0009042D01*
X0307814Y0009128D01*
X0307836Y0009214D01*
X0307861Y0009298D01*
X0307891Y0009382D01*
X0307923Y0009464D01*
X0307960Y0009544D01*
X0308000Y0009623D01*
X0308044Y0009700D01*
X0308091Y0009775D01*
X0308141Y0009847D01*
X0308195Y0009918D01*
X0308251Y0009985D01*
X0308311Y0010051D01*
X0308373Y0010113D01*
X0308439Y0010173D01*
X0308506Y0010229D01*
X0308577Y0010283D01*
X0308649Y0010333D01*
X0308724Y0010380D01*
X0308801Y0010424D01*
X0308880Y0010464D01*
X0308960Y0010501D01*
X0309042Y0010533D01*
X0309126Y0010563D01*
X0309210Y0010588D01*
X0309296Y0010610D01*
X0309382Y0010627D01*
X0309470Y0010641D01*
X0309558Y0010651D01*
X0309646Y0010657D01*
X0309734Y0010659D01*
X0309822Y0010657D01*
X0309910Y0010651D01*
X0309998Y0010641D01*
X0310086Y0010627D01*
X0310172Y0010610D01*
X0310258Y0010588D01*
X0310342Y0010563D01*
X0310426Y0010533D01*
X0310508Y0010501D01*
X0310588Y0010464D01*
X0310667Y0010424D01*
X0310744Y0010380D01*
X0310819Y0010333D01*
X0310891Y0010283D01*
X0310962Y0010229D01*
X0311029Y0010173D01*
X0311095Y0010113D01*
X0311157Y0010051D01*
X0311217Y0009985D01*
X0311273Y0009918D01*
X0311327Y0009847D01*
X0311377Y0009775D01*
X0311424Y0009700D01*
X0311468Y0009623D01*
X0311508Y0009544D01*
X0311545Y0009464D01*
X0311577Y0009382D01*
X0311607Y0009298D01*
X0311632Y0009214D01*
X0311654Y0009128D01*
X0311671Y0009042D01*
X0311685Y0008954D01*
X0311695Y0008866D01*
X0311701Y0008778D01*
X0311703Y0008690D01*
X0311701Y0008602D01*
X0311695Y0008514D01*
X0311685Y0008426D01*
X0311671Y0008338D01*
X0311654Y0008252D01*
X0311632Y0008166D01*
X0311607Y0008082D01*
X0311577Y0007998D01*
X0311545Y0007916D01*
X0311508Y0007836D01*
X0311468Y0007757D01*
X0311424Y0007680D01*
X0311377Y0007605D01*
X0311327Y0007533D01*
X0311273Y0007462D01*
X0311217Y0007395D01*
X0311157Y0007329D01*
X0311095Y0007267D01*
X0311029Y0007207D01*
X0310962Y0007151D01*
X0310891Y0007097D01*
X0310819Y0007047D01*
X0310744Y0007000D01*
X0310667Y0006956D01*
X0310588Y0006916D01*
X0310508Y0006879D01*
X0310426Y0006847D01*
X0310342Y0006817D01*
X0310258Y0006792D01*
X0310172Y0006770D01*
X0310086Y0006753D01*
X0309998Y0006739D01*
X0309910Y0006729D01*
X0309822Y0006723D01*
X0309734Y0006721D01*
X0309646Y0006723D01*
X0309558Y0006729D01*
X0309470Y0006739D01*
X0309382Y0006753D01*
X0309296Y0006770D01*
X0309210Y0006792D01*
X0309126Y0006817D01*
X0309042Y0006847D01*
X0308960Y0006879D01*
X0308880Y0006916D01*
X0308801Y0006956D01*
X0308724Y0007000D01*
X0308649Y0007047D01*
X0308577Y0007097D01*
X0308506Y0007151D01*
X0308439Y0007207D01*
X0308373Y0007267D01*
X0308311Y0007329D01*
X0308251Y0007395D01*
X0308195Y0007462D01*
X0308141Y0007533D01*
X0308091Y0007605D01*
X0308044Y0007680D01*
X0308000Y0007757D01*
X0307960Y0007836D01*
X0307923Y0007916D01*
X0307891Y0007998D01*
X0307861Y0008082D01*
X0307836Y0008166D01*
X0307814Y0008252D01*
X0307797Y0008338D01*
X0307783Y0008426D01*
X0307773Y0008514D01*
X0307767Y0008602D01*
X0307765Y0008690D01*
X0328750Y0354900D02*
X0333750Y0359900D01*
X0328750Y0364900D01*
X0323750Y0359900D02*
X0333750Y0359900D01*
X0307765Y0388611D02*
X0307767Y0388699D01*
X0307773Y0388787D01*
X0307783Y0388875D01*
X0307797Y0388963D01*
X0307814Y0389049D01*
X0307836Y0389135D01*
X0307861Y0389219D01*
X0307891Y0389303D01*
X0307923Y0389385D01*
X0307960Y0389465D01*
X0308000Y0389544D01*
X0308044Y0389621D01*
X0308091Y0389696D01*
X0308141Y0389768D01*
X0308195Y0389839D01*
X0308251Y0389906D01*
X0308311Y0389972D01*
X0308373Y0390034D01*
X0308439Y0390094D01*
X0308506Y0390150D01*
X0308577Y0390204D01*
X0308649Y0390254D01*
X0308724Y0390301D01*
X0308801Y0390345D01*
X0308880Y0390385D01*
X0308960Y0390422D01*
X0309042Y0390454D01*
X0309126Y0390484D01*
X0309210Y0390509D01*
X0309296Y0390531D01*
X0309382Y0390548D01*
X0309470Y0390562D01*
X0309558Y0390572D01*
X0309646Y0390578D01*
X0309734Y0390580D01*
X0309822Y0390578D01*
X0309910Y0390572D01*
X0309998Y0390562D01*
X0310086Y0390548D01*
X0310172Y0390531D01*
X0310258Y0390509D01*
X0310342Y0390484D01*
X0310426Y0390454D01*
X0310508Y0390422D01*
X0310588Y0390385D01*
X0310667Y0390345D01*
X0310744Y0390301D01*
X0310819Y0390254D01*
X0310891Y0390204D01*
X0310962Y0390150D01*
X0311029Y0390094D01*
X0311095Y0390034D01*
X0311157Y0389972D01*
X0311217Y0389906D01*
X0311273Y0389839D01*
X0311327Y0389768D01*
X0311377Y0389696D01*
X0311424Y0389621D01*
X0311468Y0389544D01*
X0311508Y0389465D01*
X0311545Y0389385D01*
X0311577Y0389303D01*
X0311607Y0389219D01*
X0311632Y0389135D01*
X0311654Y0389049D01*
X0311671Y0388963D01*
X0311685Y0388875D01*
X0311695Y0388787D01*
X0311701Y0388699D01*
X0311703Y0388611D01*
X0311701Y0388523D01*
X0311695Y0388435D01*
X0311685Y0388347D01*
X0311671Y0388259D01*
X0311654Y0388173D01*
X0311632Y0388087D01*
X0311607Y0388003D01*
X0311577Y0387919D01*
X0311545Y0387837D01*
X0311508Y0387757D01*
X0311468Y0387678D01*
X0311424Y0387601D01*
X0311377Y0387526D01*
X0311327Y0387454D01*
X0311273Y0387383D01*
X0311217Y0387316D01*
X0311157Y0387250D01*
X0311095Y0387188D01*
X0311029Y0387128D01*
X0310962Y0387072D01*
X0310891Y0387018D01*
X0310819Y0386968D01*
X0310744Y0386921D01*
X0310667Y0386877D01*
X0310588Y0386837D01*
X0310508Y0386800D01*
X0310426Y0386768D01*
X0310342Y0386738D01*
X0310258Y0386713D01*
X0310172Y0386691D01*
X0310086Y0386674D01*
X0309998Y0386660D01*
X0309910Y0386650D01*
X0309822Y0386644D01*
X0309734Y0386642D01*
X0309646Y0386644D01*
X0309558Y0386650D01*
X0309470Y0386660D01*
X0309382Y0386674D01*
X0309296Y0386691D01*
X0309210Y0386713D01*
X0309126Y0386738D01*
X0309042Y0386768D01*
X0308960Y0386800D01*
X0308880Y0386837D01*
X0308801Y0386877D01*
X0308724Y0386921D01*
X0308649Y0386968D01*
X0308577Y0387018D01*
X0308506Y0387072D01*
X0308439Y0387128D01*
X0308373Y0387188D01*
X0308311Y0387250D01*
X0308251Y0387316D01*
X0308195Y0387383D01*
X0308141Y0387454D01*
X0308091Y0387526D01*
X0308044Y0387601D01*
X0308000Y0387678D01*
X0307960Y0387757D01*
X0307923Y0387837D01*
X0307891Y0387919D01*
X0307861Y0388003D01*
X0307836Y0388087D01*
X0307814Y0388173D01*
X0307797Y0388259D01*
X0307783Y0388347D01*
X0307773Y0388435D01*
X0307767Y0388523D01*
X0307765Y0388611D01*
X0055796Y0388611D02*
X0055798Y0388699D01*
X0055804Y0388787D01*
X0055814Y0388875D01*
X0055828Y0388963D01*
X0055845Y0389049D01*
X0055867Y0389135D01*
X0055892Y0389219D01*
X0055922Y0389303D01*
X0055954Y0389385D01*
X0055991Y0389465D01*
X0056031Y0389544D01*
X0056075Y0389621D01*
X0056122Y0389696D01*
X0056172Y0389768D01*
X0056226Y0389839D01*
X0056282Y0389906D01*
X0056342Y0389972D01*
X0056404Y0390034D01*
X0056470Y0390094D01*
X0056537Y0390150D01*
X0056608Y0390204D01*
X0056680Y0390254D01*
X0056755Y0390301D01*
X0056832Y0390345D01*
X0056911Y0390385D01*
X0056991Y0390422D01*
X0057073Y0390454D01*
X0057157Y0390484D01*
X0057241Y0390509D01*
X0057327Y0390531D01*
X0057413Y0390548D01*
X0057501Y0390562D01*
X0057589Y0390572D01*
X0057677Y0390578D01*
X0057765Y0390580D01*
X0057853Y0390578D01*
X0057941Y0390572D01*
X0058029Y0390562D01*
X0058117Y0390548D01*
X0058203Y0390531D01*
X0058289Y0390509D01*
X0058373Y0390484D01*
X0058457Y0390454D01*
X0058539Y0390422D01*
X0058619Y0390385D01*
X0058698Y0390345D01*
X0058775Y0390301D01*
X0058850Y0390254D01*
X0058922Y0390204D01*
X0058993Y0390150D01*
X0059060Y0390094D01*
X0059126Y0390034D01*
X0059188Y0389972D01*
X0059248Y0389906D01*
X0059304Y0389839D01*
X0059358Y0389768D01*
X0059408Y0389696D01*
X0059455Y0389621D01*
X0059499Y0389544D01*
X0059539Y0389465D01*
X0059576Y0389385D01*
X0059608Y0389303D01*
X0059638Y0389219D01*
X0059663Y0389135D01*
X0059685Y0389049D01*
X0059702Y0388963D01*
X0059716Y0388875D01*
X0059726Y0388787D01*
X0059732Y0388699D01*
X0059734Y0388611D01*
X0059732Y0388523D01*
X0059726Y0388435D01*
X0059716Y0388347D01*
X0059702Y0388259D01*
X0059685Y0388173D01*
X0059663Y0388087D01*
X0059638Y0388003D01*
X0059608Y0387919D01*
X0059576Y0387837D01*
X0059539Y0387757D01*
X0059499Y0387678D01*
X0059455Y0387601D01*
X0059408Y0387526D01*
X0059358Y0387454D01*
X0059304Y0387383D01*
X0059248Y0387316D01*
X0059188Y0387250D01*
X0059126Y0387188D01*
X0059060Y0387128D01*
X0058993Y0387072D01*
X0058922Y0387018D01*
X0058850Y0386968D01*
X0058775Y0386921D01*
X0058698Y0386877D01*
X0058619Y0386837D01*
X0058539Y0386800D01*
X0058457Y0386768D01*
X0058373Y0386738D01*
X0058289Y0386713D01*
X0058203Y0386691D01*
X0058117Y0386674D01*
X0058029Y0386660D01*
X0057941Y0386650D01*
X0057853Y0386644D01*
X0057765Y0386642D01*
X0057677Y0386644D01*
X0057589Y0386650D01*
X0057501Y0386660D01*
X0057413Y0386674D01*
X0057327Y0386691D01*
X0057241Y0386713D01*
X0057157Y0386738D01*
X0057073Y0386768D01*
X0056991Y0386800D01*
X0056911Y0386837D01*
X0056832Y0386877D01*
X0056755Y0386921D01*
X0056680Y0386968D01*
X0056608Y0387018D01*
X0056537Y0387072D01*
X0056470Y0387128D01*
X0056404Y0387188D01*
X0056342Y0387250D01*
X0056282Y0387316D01*
X0056226Y0387383D01*
X0056172Y0387454D01*
X0056122Y0387526D01*
X0056075Y0387601D01*
X0056031Y0387678D01*
X0055991Y0387757D01*
X0055954Y0387837D01*
X0055922Y0387919D01*
X0055892Y0388003D01*
X0055867Y0388087D01*
X0055845Y0388173D01*
X0055828Y0388259D01*
X0055814Y0388347D01*
X0055804Y0388435D01*
X0055798Y0388523D01*
X0055796Y0388611D01*
D11*
X0028750Y0356150D03*
X0338750Y0356150D03*
X0338750Y0363650D03*
D12*
X0018750Y0053650D03*
X0028750Y0053650D03*
X0038750Y0053650D03*
X0048750Y0053650D03*
X0058750Y0053650D03*
X0068750Y0053650D03*
X0078750Y0053650D03*
X0088750Y0053650D03*
X0098750Y0053650D03*
X0108750Y0053650D03*
X0118750Y0053650D03*
X0128750Y0053650D03*
X0138750Y0053650D03*
X0148750Y0053650D03*
X0158750Y0053650D03*
X0168750Y0053650D03*
X0178750Y0053650D03*
X0188750Y0053650D03*
X0198750Y0053650D03*
X0208750Y0053650D03*
X0218750Y0053650D03*
X0228750Y0053650D03*
X0238750Y0053650D03*
X0248750Y0053650D03*
X0258750Y0053650D03*
X0268750Y0053650D03*
X0278750Y0053650D03*
X0288750Y0053650D03*
X0298750Y0053650D03*
X0308750Y0053650D03*
X0318750Y0053650D03*
X0328750Y0053650D03*
X0338750Y0053650D03*
X0348750Y0053650D03*
X0348750Y0063650D03*
X0348750Y0073650D03*
X0348750Y0083650D03*
X0348750Y0093650D03*
X0348750Y0103650D03*
X0348750Y0113650D03*
X0348750Y0123650D03*
X0348750Y0133650D03*
X0348750Y0143650D03*
X0348750Y0153650D03*
X0348750Y0163650D03*
X0348750Y0173650D03*
X0348750Y0183650D03*
X0348750Y0193650D03*
X0348750Y0203650D03*
X0348750Y0213650D03*
X0348750Y0223650D03*
X0348750Y0233650D03*
X0348750Y0243650D03*
X0348750Y0253650D03*
X0348750Y0263650D03*
X0348750Y0273650D03*
X0348750Y0283650D03*
X0348750Y0293650D03*
X0348750Y0303650D03*
X0348750Y0313650D03*
X0348750Y0323650D03*
X0348750Y0333650D03*
X0348750Y0343650D03*
X0338750Y0343650D03*
X0338750Y0333650D03*
X0338750Y0323650D03*
X0338750Y0313650D03*
X0338750Y0303650D03*
X0338750Y0293650D03*
X0338750Y0283650D03*
X0338750Y0273650D03*
X0338750Y0263650D03*
X0338750Y0253650D03*
X0338750Y0243650D03*
X0338750Y0233650D03*
X0338750Y0223650D03*
X0338750Y0213650D03*
X0338750Y0203650D03*
X0338750Y0193650D03*
X0338750Y0183650D03*
X0338750Y0173650D03*
X0338750Y0163650D03*
X0338750Y0153650D03*
X0338750Y0143650D03*
X0338750Y0133650D03*
X0338750Y0123650D03*
X0338750Y0113650D03*
X0338750Y0103650D03*
X0338750Y0093650D03*
X0338750Y0083650D03*
X0338750Y0073650D03*
X0338750Y0063650D03*
X0328750Y0063650D03*
X0328750Y0073650D03*
X0328750Y0083650D03*
X0328750Y0093650D03*
X0328750Y0103650D03*
X0328750Y0113650D03*
X0328750Y0123650D03*
X0328750Y0133650D03*
X0328750Y0143650D03*
X0328750Y0153650D03*
X0328750Y0163650D03*
X0328750Y0173650D03*
X0328750Y0183650D03*
X0328750Y0193650D03*
X0328750Y0203650D03*
X0328750Y0213650D03*
X0328750Y0223650D03*
X0328750Y0233650D03*
X0328750Y0243650D03*
X0328750Y0253650D03*
X0328750Y0263650D03*
X0328750Y0273650D03*
X0328750Y0283650D03*
X0328750Y0293650D03*
X0328750Y0303650D03*
X0328750Y0313650D03*
X0328750Y0323650D03*
X0328750Y0333650D03*
X0328750Y0343650D03*
X0318750Y0343650D03*
X0308750Y0343650D03*
X0308750Y0333650D03*
X0318750Y0333650D03*
X0318750Y0323650D03*
X0308750Y0323650D03*
X0308750Y0313650D03*
X0318750Y0313650D03*
X0318750Y0303650D03*
X0308750Y0303650D03*
X0308750Y0293650D03*
X0318750Y0293650D03*
X0318750Y0283650D03*
X0308750Y0283650D03*
X0308750Y0273650D03*
X0318750Y0273650D03*
X0318750Y0263650D03*
X0308750Y0263650D03*
X0308750Y0253650D03*
X0318750Y0253650D03*
X0318750Y0243650D03*
X0308750Y0243650D03*
X0308750Y0233650D03*
X0318750Y0233650D03*
X0318750Y0223650D03*
X0308750Y0223650D03*
X0308750Y0213650D03*
X0318750Y0213650D03*
X0318750Y0203650D03*
X0308750Y0203650D03*
X0308750Y0193650D03*
X0318750Y0193650D03*
X0318750Y0183650D03*
X0308750Y0183650D03*
X0308750Y0173650D03*
X0318750Y0173650D03*
X0318750Y0163650D03*
X0308750Y0163650D03*
X0308750Y0153650D03*
X0318750Y0153650D03*
X0318750Y0143650D03*
X0308750Y0143650D03*
X0308750Y0133650D03*
X0318750Y0133650D03*
X0318750Y0123650D03*
X0308750Y0123650D03*
X0308750Y0113650D03*
X0318750Y0113650D03*
X0318750Y0103650D03*
X0308750Y0103650D03*
X0308750Y0093650D03*
X0318750Y0093650D03*
X0318750Y0083650D03*
X0308750Y0083650D03*
X0308750Y0073650D03*
X0318750Y0073650D03*
X0318750Y0063650D03*
X0308750Y0063650D03*
X0298750Y0063650D03*
X0298750Y0073650D03*
X0298750Y0083650D03*
X0298750Y0093650D03*
X0298750Y0103650D03*
X0298750Y0113650D03*
X0298750Y0123650D03*
X0298750Y0133650D03*
X0298750Y0143650D03*
X0298750Y0153650D03*
X0298750Y0163650D03*
X0298750Y0173650D03*
X0298750Y0183650D03*
X0298750Y0193650D03*
X0298750Y0203650D03*
X0298750Y0213650D03*
X0298750Y0223650D03*
X0298750Y0233650D03*
X0298750Y0243650D03*
X0298750Y0253650D03*
X0298750Y0263650D03*
X0298750Y0273650D03*
X0298750Y0283650D03*
X0298750Y0293650D03*
X0298750Y0303650D03*
X0298750Y0313650D03*
X0298750Y0323650D03*
X0298750Y0333650D03*
X0298750Y0343650D03*
X0288750Y0343650D03*
X0288750Y0333650D03*
X0288750Y0323650D03*
X0288750Y0313650D03*
X0288750Y0303650D03*
X0288750Y0293650D03*
X0288750Y0283650D03*
X0288750Y0273650D03*
X0288750Y0263650D03*
X0288750Y0253650D03*
X0288750Y0243650D03*
X0288750Y0233650D03*
X0288750Y0223650D03*
X0288750Y0213650D03*
X0288750Y0203650D03*
X0288750Y0193650D03*
X0288750Y0183650D03*
X0288750Y0173650D03*
X0288750Y0163650D03*
X0288750Y0153650D03*
X0288750Y0143650D03*
X0288750Y0133650D03*
X0288750Y0123650D03*
X0288750Y0113650D03*
X0288750Y0103650D03*
X0288750Y0093650D03*
X0288750Y0083650D03*
X0288750Y0073650D03*
X0288750Y0063650D03*
X0278750Y0063650D03*
X0278750Y0073650D03*
X0268750Y0073650D03*
X0268750Y0063650D03*
X0258750Y0063650D03*
X0258750Y0073650D03*
X0258750Y0083650D03*
X0258750Y0093650D03*
X0268750Y0093650D03*
X0278750Y0093650D03*
X0278750Y0083650D03*
X0268750Y0083650D03*
X0268750Y0103650D03*
X0278750Y0103650D03*
X0278750Y0113650D03*
X0268750Y0113650D03*
X0268750Y0123650D03*
X0278750Y0123650D03*
X0278750Y0133650D03*
X0268750Y0133650D03*
X0268750Y0143650D03*
X0278750Y0143650D03*
X0278750Y0153650D03*
X0268750Y0153650D03*
X0268750Y0163650D03*
X0278750Y0163650D03*
X0278750Y0173650D03*
X0268750Y0173650D03*
X0268750Y0183650D03*
X0278750Y0183650D03*
X0278750Y0193650D03*
X0268750Y0193650D03*
X0268750Y0203650D03*
X0278750Y0203650D03*
X0278750Y0213650D03*
X0268750Y0213650D03*
X0268750Y0223650D03*
X0278750Y0223650D03*
X0278750Y0233650D03*
X0268750Y0233650D03*
X0268750Y0243650D03*
X0278750Y0243650D03*
X0278750Y0253650D03*
X0268750Y0253650D03*
X0268750Y0263650D03*
X0278750Y0263650D03*
X0278750Y0273650D03*
X0268750Y0273650D03*
X0268750Y0283650D03*
X0278750Y0283650D03*
X0278750Y0293650D03*
X0268750Y0293650D03*
X0268750Y0303650D03*
X0278750Y0303650D03*
X0278750Y0313650D03*
X0268750Y0313650D03*
X0268750Y0323650D03*
X0278750Y0323650D03*
X0278750Y0333650D03*
X0268750Y0333650D03*
X0268750Y0343650D03*
X0278750Y0343650D03*
X0258750Y0343650D03*
X0258750Y0333650D03*
X0258750Y0323650D03*
X0258750Y0313650D03*
X0258750Y0303650D03*
X0258750Y0293650D03*
X0258750Y0283650D03*
X0258750Y0273650D03*
X0258750Y0263650D03*
X0258750Y0253650D03*
X0258750Y0243650D03*
X0258750Y0233650D03*
X0258750Y0223650D03*
X0258750Y0213650D03*
X0258750Y0203650D03*
X0258750Y0193650D03*
X0258750Y0183650D03*
X0258750Y0173650D03*
X0258750Y0163650D03*
X0258750Y0153650D03*
X0258750Y0143650D03*
X0258750Y0133650D03*
X0258750Y0123650D03*
X0258750Y0113650D03*
X0258750Y0103650D03*
X0248750Y0103650D03*
X0248750Y0113650D03*
X0238750Y0113650D03*
X0238750Y0103650D03*
X0238750Y0093650D03*
X0248750Y0093650D03*
X0248750Y0083650D03*
X0238750Y0083650D03*
X0238750Y0073650D03*
X0248750Y0073650D03*
X0248750Y0063650D03*
X0238750Y0063650D03*
X0228750Y0063650D03*
X0228750Y0073650D03*
X0228750Y0083650D03*
X0228750Y0093650D03*
X0228750Y0103650D03*
X0228750Y0113650D03*
X0228750Y0123650D03*
X0228750Y0133650D03*
X0238750Y0133650D03*
X0248750Y0133650D03*
X0248750Y0123650D03*
X0238750Y0123650D03*
X0238750Y0143650D03*
X0248750Y0143650D03*
X0248750Y0153650D03*
X0238750Y0153650D03*
X0238750Y0163650D03*
X0248750Y0163650D03*
X0248750Y0173650D03*
X0238750Y0173650D03*
X0238750Y0183650D03*
X0248750Y0183650D03*
X0248750Y0193650D03*
X0238750Y0193650D03*
X0238750Y0203650D03*
X0248750Y0203650D03*
X0248750Y0213650D03*
X0238750Y0213650D03*
X0238750Y0223650D03*
X0248750Y0223650D03*
X0248750Y0233650D03*
X0238750Y0233650D03*
X0238750Y0243650D03*
X0248750Y0243650D03*
X0248750Y0253650D03*
X0238750Y0253650D03*
X0238750Y0263650D03*
X0248750Y0263650D03*
X0248750Y0273650D03*
X0238750Y0273650D03*
X0238750Y0283650D03*
X0248750Y0283650D03*
X0248750Y0293650D03*
X0238750Y0293650D03*
X0238750Y0303650D03*
X0248750Y0303650D03*
X0248750Y0313650D03*
X0238750Y0313650D03*
X0238750Y0323650D03*
X0248750Y0323650D03*
X0248750Y0333650D03*
X0238750Y0333650D03*
X0238750Y0343650D03*
X0248750Y0343650D03*
X0228750Y0343650D03*
X0228750Y0333650D03*
X0228750Y0323650D03*
X0228750Y0313650D03*
X0228750Y0303650D03*
X0228750Y0293650D03*
X0228750Y0283650D03*
X0228750Y0273650D03*
X0228750Y0263650D03*
X0228750Y0253650D03*
X0228750Y0243650D03*
X0228750Y0233650D03*
X0228750Y0223650D03*
X0228750Y0213650D03*
X0228750Y0203650D03*
X0228750Y0193650D03*
X0228750Y0183650D03*
X0228750Y0173650D03*
X0228750Y0163650D03*
X0228750Y0153650D03*
X0228750Y0143650D03*
X0218750Y0143650D03*
X0218750Y0153650D03*
X0218750Y0163650D03*
X0218750Y0173650D03*
X0218750Y0183650D03*
X0218750Y0193650D03*
X0218750Y0203650D03*
X0218750Y0213650D03*
X0218750Y0223650D03*
X0218750Y0233650D03*
X0218750Y0243650D03*
X0218750Y0253650D03*
X0218750Y0263650D03*
X0218750Y0273650D03*
X0218750Y0283650D03*
X0218750Y0293650D03*
X0218750Y0303650D03*
X0218750Y0313650D03*
X0218750Y0323650D03*
X0218750Y0333650D03*
X0218750Y0343650D03*
X0208750Y0343650D03*
X0198750Y0343650D03*
X0198750Y0333650D03*
X0208750Y0333650D03*
X0208750Y0323650D03*
X0198750Y0323650D03*
X0198750Y0313650D03*
X0208750Y0313650D03*
X0208750Y0303650D03*
X0198750Y0303650D03*
X0198750Y0293650D03*
X0208750Y0293650D03*
X0208750Y0283650D03*
X0198750Y0283650D03*
X0198750Y0273650D03*
X0208750Y0273650D03*
X0208750Y0263650D03*
X0198750Y0263650D03*
X0198750Y0253650D03*
X0208750Y0253650D03*
X0208750Y0243650D03*
X0198750Y0243650D03*
X0198750Y0233650D03*
X0208750Y0233650D03*
X0208750Y0223650D03*
X0198750Y0223650D03*
X0198750Y0213650D03*
X0208750Y0213650D03*
X0208750Y0203650D03*
X0198750Y0203650D03*
X0198750Y0193650D03*
X0208750Y0193650D03*
X0208750Y0183650D03*
X0198750Y0183650D03*
X0198750Y0173650D03*
X0208750Y0173650D03*
X0208750Y0163650D03*
X0198750Y0163650D03*
X0198750Y0153650D03*
X0208750Y0153650D03*
X0208750Y0143650D03*
X0198750Y0143650D03*
X0198750Y0133650D03*
X0208750Y0133650D03*
X0208750Y0123650D03*
X0198750Y0123650D03*
X0198750Y0113650D03*
X0208750Y0113650D03*
X0208750Y0103650D03*
X0198750Y0103650D03*
X0198750Y0093650D03*
X0208750Y0093650D03*
X0208750Y0083650D03*
X0198750Y0083650D03*
X0198750Y0073650D03*
X0208750Y0073650D03*
X0208750Y0063650D03*
X0198750Y0063650D03*
X0188750Y0063650D03*
X0188750Y0073650D03*
X0188750Y0083650D03*
X0188750Y0093650D03*
X0188750Y0103650D03*
X0188750Y0113650D03*
X0188750Y0123650D03*
X0188750Y0133650D03*
X0188750Y0143650D03*
X0188750Y0153650D03*
X0188750Y0163650D03*
X0188750Y0173650D03*
X0188750Y0183650D03*
X0188750Y0193650D03*
X0188750Y0203650D03*
X0188750Y0213650D03*
X0188750Y0223650D03*
X0188750Y0233650D03*
X0188750Y0243650D03*
X0188750Y0253650D03*
X0188750Y0263650D03*
X0188750Y0273650D03*
X0188750Y0283650D03*
X0188750Y0293650D03*
X0188750Y0303650D03*
X0188750Y0313650D03*
X0188750Y0323650D03*
X0188750Y0333650D03*
X0188750Y0343650D03*
X0178750Y0343650D03*
X0178750Y0333650D03*
X0178750Y0323650D03*
X0178750Y0313650D03*
X0178750Y0303650D03*
X0178750Y0293650D03*
X0178750Y0283650D03*
X0178750Y0273650D03*
X0178750Y0263650D03*
X0178750Y0253650D03*
X0178750Y0243650D03*
X0178750Y0233650D03*
X0178750Y0223650D03*
X0178750Y0213650D03*
X0178750Y0203650D03*
X0178750Y0193650D03*
X0178750Y0183650D03*
X0178750Y0173650D03*
X0178750Y0163650D03*
X0178750Y0153650D03*
X0178750Y0143650D03*
X0178750Y0133650D03*
X0178750Y0123650D03*
X0178750Y0113650D03*
X0178750Y0103650D03*
X0178750Y0093650D03*
X0178750Y0083650D03*
X0178750Y0073650D03*
X0178750Y0063650D03*
X0168750Y0063650D03*
X0168750Y0073650D03*
X0158750Y0073650D03*
X0158750Y0063650D03*
X0148750Y0063650D03*
X0148750Y0073650D03*
X0148750Y0083650D03*
X0148750Y0093650D03*
X0158750Y0093650D03*
X0168750Y0093650D03*
X0168750Y0083650D03*
X0158750Y0083650D03*
X0158750Y0103650D03*
X0168750Y0103650D03*
X0168750Y0113650D03*
X0158750Y0113650D03*
X0158750Y0123650D03*
X0168750Y0123650D03*
X0168750Y0133650D03*
X0158750Y0133650D03*
X0158750Y0143650D03*
X0168750Y0143650D03*
X0168750Y0153650D03*
X0158750Y0153650D03*
X0158750Y0163650D03*
X0168750Y0163650D03*
X0168750Y0173650D03*
X0158750Y0173650D03*
X0158750Y0183650D03*
X0168750Y0183650D03*
X0168750Y0193650D03*
X0158750Y0193650D03*
X0158750Y0203650D03*
X0168750Y0203650D03*
X0168750Y0213650D03*
X0158750Y0213650D03*
X0158750Y0223650D03*
X0168750Y0223650D03*
X0168750Y0233650D03*
X0158750Y0233650D03*
X0158750Y0243650D03*
X0168750Y0243650D03*
X0168750Y0253650D03*
X0158750Y0253650D03*
X0158750Y0263650D03*
X0168750Y0263650D03*
X0168750Y0273650D03*
X0158750Y0273650D03*
X0158750Y0283650D03*
X0168750Y0283650D03*
X0168750Y0293650D03*
X0158750Y0293650D03*
X0158750Y0303650D03*
X0168750Y0303650D03*
X0168750Y0313650D03*
X0158750Y0313650D03*
X0158750Y0323650D03*
X0168750Y0323650D03*
X0168750Y0333650D03*
X0158750Y0333650D03*
X0158750Y0343650D03*
X0168750Y0343650D03*
X0148750Y0343650D03*
X0148750Y0333650D03*
X0148750Y0323650D03*
X0148750Y0313650D03*
X0148750Y0303650D03*
X0148750Y0293650D03*
X0148750Y0283650D03*
X0148750Y0273650D03*
X0148750Y0263650D03*
X0148750Y0253650D03*
X0148750Y0243650D03*
X0148750Y0233650D03*
X0148750Y0223650D03*
X0148750Y0213650D03*
X0148750Y0203650D03*
X0148750Y0193650D03*
X0148750Y0183650D03*
X0148750Y0173650D03*
X0148750Y0163650D03*
X0148750Y0153650D03*
X0148750Y0143650D03*
X0148750Y0133650D03*
X0148750Y0123650D03*
X0148750Y0113650D03*
X0148750Y0103650D03*
X0138750Y0103650D03*
X0138750Y0113650D03*
X0128750Y0113650D03*
X0128750Y0103650D03*
X0128750Y0093650D03*
X0138750Y0093650D03*
X0138750Y0083650D03*
X0128750Y0083650D03*
X0128750Y0073650D03*
X0138750Y0073650D03*
X0138750Y0063650D03*
X0128750Y0063650D03*
X0118750Y0063650D03*
X0118750Y0073650D03*
X0118750Y0083650D03*
X0118750Y0093650D03*
X0118750Y0103650D03*
X0118750Y0113650D03*
X0118750Y0123650D03*
X0118750Y0133650D03*
X0128750Y0133650D03*
X0138750Y0133650D03*
X0138750Y0123650D03*
X0128750Y0123650D03*
X0128750Y0143650D03*
X0138750Y0143650D03*
X0138750Y0153650D03*
X0128750Y0153650D03*
X0128750Y0163650D03*
X0138750Y0163650D03*
X0138750Y0173650D03*
X0128750Y0173650D03*
X0128750Y0183650D03*
X0138750Y0183650D03*
X0138750Y0193650D03*
X0128750Y0193650D03*
X0128750Y0203650D03*
X0138750Y0203650D03*
X0138750Y0213650D03*
X0128750Y0213650D03*
X0128750Y0223650D03*
X0138750Y0223650D03*
X0138750Y0233650D03*
X0128750Y0233650D03*
X0128750Y0243650D03*
X0138750Y0243650D03*
X0138750Y0253650D03*
X0128750Y0253650D03*
X0128750Y0263650D03*
X0138750Y0263650D03*
X0138750Y0273650D03*
X0128750Y0273650D03*
X0128750Y0283650D03*
X0138750Y0283650D03*
X0138750Y0293650D03*
X0128750Y0293650D03*
X0128750Y0303650D03*
X0138750Y0303650D03*
X0138750Y0313650D03*
X0128750Y0313650D03*
X0128750Y0323650D03*
X0138750Y0323650D03*
X0138750Y0333650D03*
X0128750Y0333650D03*
X0128750Y0343650D03*
X0138750Y0343650D03*
X0118750Y0343650D03*
X0118750Y0333650D03*
X0118750Y0323650D03*
X0118750Y0313650D03*
X0118750Y0303650D03*
X0118750Y0293650D03*
X0118750Y0283650D03*
X0118750Y0273650D03*
X0118750Y0263650D03*
X0118750Y0253650D03*
X0118750Y0243650D03*
X0118750Y0233650D03*
X0118750Y0223650D03*
X0118750Y0213650D03*
X0118750Y0203650D03*
X0118750Y0193650D03*
X0118750Y0183650D03*
X0118750Y0173650D03*
X0118750Y0163650D03*
X0118750Y0153650D03*
X0118750Y0143650D03*
X0108750Y0143650D03*
X0108750Y0153650D03*
X0108750Y0163650D03*
X0108750Y0173650D03*
X0108750Y0183650D03*
X0108750Y0193650D03*
X0108750Y0203650D03*
X0108750Y0213650D03*
X0108750Y0223650D03*
X0108750Y0233650D03*
X0108750Y0243650D03*
X0108750Y0253650D03*
X0108750Y0263650D03*
X0108750Y0273650D03*
X0108750Y0283650D03*
X0108750Y0293650D03*
X0108750Y0303650D03*
X0108750Y0313650D03*
X0108750Y0323650D03*
X0108750Y0333650D03*
X0108750Y0343650D03*
X0098750Y0343650D03*
X0088750Y0343650D03*
X0088750Y0333650D03*
X0098750Y0333650D03*
X0098750Y0323650D03*
X0088750Y0323650D03*
X0088750Y0313650D03*
X0098750Y0313650D03*
X0098750Y0303650D03*
X0088750Y0303650D03*
X0088750Y0293650D03*
X0098750Y0293650D03*
X0098750Y0283650D03*
X0088750Y0283650D03*
X0088750Y0273650D03*
X0098750Y0273650D03*
X0098750Y0263650D03*
X0088750Y0263650D03*
X0088750Y0253650D03*
X0098750Y0253650D03*
X0098750Y0243650D03*
X0088750Y0243650D03*
X0088750Y0233650D03*
X0098750Y0233650D03*
X0098750Y0223650D03*
X0088750Y0223650D03*
X0088750Y0213650D03*
X0098750Y0213650D03*
X0098750Y0203650D03*
X0088750Y0203650D03*
X0088750Y0193650D03*
X0098750Y0193650D03*
X0098750Y0183650D03*
X0088750Y0183650D03*
X0088750Y0173650D03*
X0098750Y0173650D03*
X0098750Y0163650D03*
X0088750Y0163650D03*
X0088750Y0153650D03*
X0098750Y0153650D03*
X0098750Y0143650D03*
X0088750Y0143650D03*
X0088750Y0133650D03*
X0098750Y0133650D03*
X0098750Y0123650D03*
X0088750Y0123650D03*
X0088750Y0113650D03*
X0098750Y0113650D03*
X0098750Y0103650D03*
X0088750Y0103650D03*
X0088750Y0093650D03*
X0098750Y0093650D03*
X0098750Y0083650D03*
X0088750Y0083650D03*
X0088750Y0073650D03*
X0098750Y0073650D03*
X0098750Y0063650D03*
X0088750Y0063650D03*
X0078750Y0063650D03*
X0078750Y0073650D03*
X0078750Y0083650D03*
X0078750Y0093650D03*
X0078750Y0103650D03*
X0078750Y0113650D03*
X0078750Y0123650D03*
X0078750Y0133650D03*
X0078750Y0143650D03*
X0078750Y0153650D03*
X0078750Y0163650D03*
X0078750Y0173650D03*
X0078750Y0183650D03*
X0078750Y0193650D03*
X0078750Y0203650D03*
X0078750Y0213650D03*
X0078750Y0223650D03*
X0078750Y0233650D03*
X0078750Y0243650D03*
X0078750Y0253650D03*
X0078750Y0263650D03*
X0078750Y0273650D03*
X0078750Y0283650D03*
X0078750Y0293650D03*
X0078750Y0303650D03*
X0078750Y0313650D03*
X0078750Y0323650D03*
X0078750Y0333650D03*
X0078750Y0343650D03*
X0068750Y0343650D03*
X0058750Y0343650D03*
X0058750Y0333650D03*
X0068750Y0333650D03*
X0068750Y0323650D03*
X0058750Y0323650D03*
X0058750Y0313650D03*
X0068750Y0313650D03*
X0068750Y0303650D03*
X0058750Y0303650D03*
X0058750Y0293650D03*
X0068750Y0293650D03*
X0068750Y0283650D03*
X0058750Y0283650D03*
X0058750Y0273650D03*
X0068750Y0273650D03*
X0068750Y0263650D03*
X0058750Y0263650D03*
X0058750Y0253650D03*
X0068750Y0253650D03*
X0068750Y0243650D03*
X0058750Y0243650D03*
X0058750Y0233650D03*
X0068750Y0233650D03*
X0068750Y0223650D03*
X0058750Y0223650D03*
X0058750Y0213650D03*
X0068750Y0213650D03*
X0068750Y0203650D03*
X0058750Y0203650D03*
X0058750Y0193650D03*
X0068750Y0193650D03*
X0068750Y0183650D03*
X0058750Y0183650D03*
X0058750Y0173650D03*
X0068750Y0173650D03*
X0068750Y0163650D03*
X0058750Y0163650D03*
X0058750Y0153650D03*
X0068750Y0153650D03*
X0068750Y0143650D03*
X0058750Y0143650D03*
X0058750Y0133650D03*
X0068750Y0133650D03*
X0068750Y0123650D03*
X0058750Y0123650D03*
X0058750Y0113650D03*
X0068750Y0113650D03*
X0068750Y0103650D03*
X0058750Y0103650D03*
X0058750Y0093650D03*
X0068750Y0093650D03*
X0068750Y0083650D03*
X0058750Y0083650D03*
X0058750Y0073650D03*
X0068750Y0073650D03*
X0068750Y0063650D03*
X0058750Y0063650D03*
X0048750Y0063650D03*
X0048750Y0073650D03*
X0048750Y0083650D03*
X0048750Y0093650D03*
X0048750Y0103650D03*
X0048750Y0113650D03*
X0048750Y0123650D03*
X0048750Y0133650D03*
X0048750Y0143650D03*
X0048750Y0153650D03*
X0048750Y0163650D03*
X0048750Y0173650D03*
X0048750Y0183650D03*
X0048750Y0193650D03*
X0048750Y0203650D03*
X0048750Y0213650D03*
X0048750Y0223650D03*
X0048750Y0233650D03*
X0048750Y0243650D03*
X0048750Y0253650D03*
X0048750Y0263650D03*
X0048750Y0273650D03*
X0048750Y0283650D03*
X0048750Y0293650D03*
X0048750Y0303650D03*
X0048750Y0313650D03*
X0048750Y0323650D03*
X0048750Y0333650D03*
X0048750Y0343650D03*
X0038750Y0343650D03*
X0038750Y0333650D03*
X0038750Y0323650D03*
X0038750Y0313650D03*
X0038750Y0303650D03*
X0038750Y0293650D03*
X0038750Y0283650D03*
X0038750Y0273650D03*
X0038750Y0263650D03*
X0038750Y0253650D03*
X0038750Y0243650D03*
X0038750Y0233650D03*
X0038750Y0223650D03*
X0038750Y0213650D03*
X0038750Y0203650D03*
X0038750Y0193650D03*
X0038750Y0183650D03*
X0038750Y0173650D03*
X0038750Y0163650D03*
X0038750Y0153650D03*
X0038750Y0143650D03*
X0038750Y0133650D03*
X0038750Y0123650D03*
X0038750Y0113650D03*
X0038750Y0103650D03*
X0038750Y0093650D03*
X0038750Y0083650D03*
X0038750Y0073650D03*
X0038750Y0063650D03*
X0028750Y0063650D03*
X0028750Y0073650D03*
X0018750Y0073650D03*
X0018750Y0063650D03*
X0018750Y0083650D03*
X0028750Y0083650D03*
X0028750Y0093650D03*
X0018750Y0093650D03*
X0018750Y0103650D03*
X0028750Y0103650D03*
X0028750Y0113650D03*
X0018750Y0113650D03*
X0018750Y0123650D03*
X0028750Y0123650D03*
X0028750Y0133650D03*
X0018750Y0133650D03*
X0018750Y0143650D03*
X0028750Y0143650D03*
X0028750Y0153650D03*
X0018750Y0153650D03*
X0018750Y0163650D03*
X0028750Y0163650D03*
X0028750Y0173650D03*
X0018750Y0173650D03*
X0018750Y0183650D03*
X0028750Y0183650D03*
X0028750Y0193650D03*
X0018750Y0193650D03*
X0018750Y0203650D03*
X0028750Y0203650D03*
X0028750Y0213650D03*
X0018750Y0213650D03*
X0018750Y0223650D03*
X0028750Y0223650D03*
X0028750Y0233650D03*
X0018750Y0233650D03*
X0018750Y0243650D03*
X0028750Y0243650D03*
X0028750Y0253650D03*
X0018750Y0253650D03*
X0018750Y0263650D03*
X0028750Y0263650D03*
X0028750Y0273650D03*
X0018750Y0273650D03*
X0018750Y0283650D03*
X0028750Y0283650D03*
X0028750Y0293650D03*
X0018750Y0293650D03*
X0018750Y0303650D03*
X0028750Y0303650D03*
X0028750Y0313650D03*
X0018750Y0313650D03*
X0018750Y0323650D03*
X0028750Y0323650D03*
X0028750Y0333650D03*
X0018750Y0333650D03*
X0018750Y0343650D03*
X0028750Y0343650D03*
X0108750Y0133650D03*
X0108750Y0123650D03*
X0108750Y0113650D03*
X0108750Y0103650D03*
X0108750Y0093650D03*
X0108750Y0083650D03*
X0108750Y0073650D03*
X0108750Y0063650D03*
X0218750Y0063650D03*
X0218750Y0073650D03*
X0218750Y0083650D03*
X0218750Y0093650D03*
X0218750Y0103650D03*
X0218750Y0113650D03*
X0218750Y0123650D03*
X0218750Y0133650D03*
M02*
