G75*
%MOIN*%
%OFA0B0*%
%FSLAX25Y25*%
%IPPOS*%
%LPD*%
%AMOC8*
5,1,8,0,0,1.08239X$1,22.5*
%
%ADD10C,0.13198*%
%ADD11C,0.02400*%
%ADD12C,0.02569*%
%ADD13C,0.09261*%
%ADD14C,0.04537*%
%ADD15R,0.08000X0.08000*%
%ADD16C,0.07687*%
%ADD17R,0.07687X0.07687*%
%ADD18C,0.08000*%
%ADD19C,0.07687*%
%ADD20R,0.35600X0.05600*%
D10*
X0015802Y0041170D03*
X0015802Y0356131D03*
X0350447Y0356131D03*
X0350447Y0041170D03*
D11*
X0307140Y0008690D02*
X0307142Y0008778D01*
X0307148Y0008866D01*
X0307158Y0008954D01*
X0307172Y0009042D01*
X0307189Y0009128D01*
X0307211Y0009214D01*
X0307236Y0009298D01*
X0307266Y0009382D01*
X0307298Y0009464D01*
X0307335Y0009544D01*
X0307375Y0009623D01*
X0307419Y0009700D01*
X0307466Y0009775D01*
X0307516Y0009847D01*
X0307570Y0009918D01*
X0307626Y0009985D01*
X0307686Y0010051D01*
X0307748Y0010113D01*
X0307814Y0010173D01*
X0307881Y0010229D01*
X0307952Y0010283D01*
X0308024Y0010333D01*
X0308099Y0010380D01*
X0308176Y0010424D01*
X0308255Y0010464D01*
X0308335Y0010501D01*
X0308417Y0010533D01*
X0308501Y0010563D01*
X0308585Y0010588D01*
X0308671Y0010610D01*
X0308757Y0010627D01*
X0308845Y0010641D01*
X0308933Y0010651D01*
X0309021Y0010657D01*
X0309109Y0010659D01*
X0309197Y0010657D01*
X0309285Y0010651D01*
X0309373Y0010641D01*
X0309461Y0010627D01*
X0309547Y0010610D01*
X0309633Y0010588D01*
X0309717Y0010563D01*
X0309801Y0010533D01*
X0309883Y0010501D01*
X0309963Y0010464D01*
X0310042Y0010424D01*
X0310119Y0010380D01*
X0310194Y0010333D01*
X0310266Y0010283D01*
X0310337Y0010229D01*
X0310404Y0010173D01*
X0310470Y0010113D01*
X0310532Y0010051D01*
X0310592Y0009985D01*
X0310648Y0009918D01*
X0310702Y0009847D01*
X0310752Y0009775D01*
X0310799Y0009700D01*
X0310843Y0009623D01*
X0310883Y0009544D01*
X0310920Y0009464D01*
X0310952Y0009382D01*
X0310982Y0009298D01*
X0311007Y0009214D01*
X0311029Y0009128D01*
X0311046Y0009042D01*
X0311060Y0008954D01*
X0311070Y0008866D01*
X0311076Y0008778D01*
X0311078Y0008690D01*
X0311076Y0008602D01*
X0311070Y0008514D01*
X0311060Y0008426D01*
X0311046Y0008338D01*
X0311029Y0008252D01*
X0311007Y0008166D01*
X0310982Y0008082D01*
X0310952Y0007998D01*
X0310920Y0007916D01*
X0310883Y0007836D01*
X0310843Y0007757D01*
X0310799Y0007680D01*
X0310752Y0007605D01*
X0310702Y0007533D01*
X0310648Y0007462D01*
X0310592Y0007395D01*
X0310532Y0007329D01*
X0310470Y0007267D01*
X0310404Y0007207D01*
X0310337Y0007151D01*
X0310266Y0007097D01*
X0310194Y0007047D01*
X0310119Y0007000D01*
X0310042Y0006956D01*
X0309963Y0006916D01*
X0309883Y0006879D01*
X0309801Y0006847D01*
X0309717Y0006817D01*
X0309633Y0006792D01*
X0309547Y0006770D01*
X0309461Y0006753D01*
X0309373Y0006739D01*
X0309285Y0006729D01*
X0309197Y0006723D01*
X0309109Y0006721D01*
X0309021Y0006723D01*
X0308933Y0006729D01*
X0308845Y0006739D01*
X0308757Y0006753D01*
X0308671Y0006770D01*
X0308585Y0006792D01*
X0308501Y0006817D01*
X0308417Y0006847D01*
X0308335Y0006879D01*
X0308255Y0006916D01*
X0308176Y0006956D01*
X0308099Y0007000D01*
X0308024Y0007047D01*
X0307952Y0007097D01*
X0307881Y0007151D01*
X0307814Y0007207D01*
X0307748Y0007267D01*
X0307686Y0007329D01*
X0307626Y0007395D01*
X0307570Y0007462D01*
X0307516Y0007533D01*
X0307466Y0007605D01*
X0307419Y0007680D01*
X0307375Y0007757D01*
X0307335Y0007836D01*
X0307298Y0007916D01*
X0307266Y0007998D01*
X0307236Y0008082D01*
X0307211Y0008166D01*
X0307189Y0008252D01*
X0307172Y0008338D01*
X0307158Y0008426D01*
X0307148Y0008514D01*
X0307142Y0008602D01*
X0307140Y0008690D01*
X0328125Y0354900D02*
X0333125Y0359900D01*
X0328125Y0364900D01*
X0323125Y0359900D02*
X0333125Y0359900D01*
X0307140Y0388611D02*
X0307142Y0388699D01*
X0307148Y0388787D01*
X0307158Y0388875D01*
X0307172Y0388963D01*
X0307189Y0389049D01*
X0307211Y0389135D01*
X0307236Y0389219D01*
X0307266Y0389303D01*
X0307298Y0389385D01*
X0307335Y0389465D01*
X0307375Y0389544D01*
X0307419Y0389621D01*
X0307466Y0389696D01*
X0307516Y0389768D01*
X0307570Y0389839D01*
X0307626Y0389906D01*
X0307686Y0389972D01*
X0307748Y0390034D01*
X0307814Y0390094D01*
X0307881Y0390150D01*
X0307952Y0390204D01*
X0308024Y0390254D01*
X0308099Y0390301D01*
X0308176Y0390345D01*
X0308255Y0390385D01*
X0308335Y0390422D01*
X0308417Y0390454D01*
X0308501Y0390484D01*
X0308585Y0390509D01*
X0308671Y0390531D01*
X0308757Y0390548D01*
X0308845Y0390562D01*
X0308933Y0390572D01*
X0309021Y0390578D01*
X0309109Y0390580D01*
X0309197Y0390578D01*
X0309285Y0390572D01*
X0309373Y0390562D01*
X0309461Y0390548D01*
X0309547Y0390531D01*
X0309633Y0390509D01*
X0309717Y0390484D01*
X0309801Y0390454D01*
X0309883Y0390422D01*
X0309963Y0390385D01*
X0310042Y0390345D01*
X0310119Y0390301D01*
X0310194Y0390254D01*
X0310266Y0390204D01*
X0310337Y0390150D01*
X0310404Y0390094D01*
X0310470Y0390034D01*
X0310532Y0389972D01*
X0310592Y0389906D01*
X0310648Y0389839D01*
X0310702Y0389768D01*
X0310752Y0389696D01*
X0310799Y0389621D01*
X0310843Y0389544D01*
X0310883Y0389465D01*
X0310920Y0389385D01*
X0310952Y0389303D01*
X0310982Y0389219D01*
X0311007Y0389135D01*
X0311029Y0389049D01*
X0311046Y0388963D01*
X0311060Y0388875D01*
X0311070Y0388787D01*
X0311076Y0388699D01*
X0311078Y0388611D01*
X0311076Y0388523D01*
X0311070Y0388435D01*
X0311060Y0388347D01*
X0311046Y0388259D01*
X0311029Y0388173D01*
X0311007Y0388087D01*
X0310982Y0388003D01*
X0310952Y0387919D01*
X0310920Y0387837D01*
X0310883Y0387757D01*
X0310843Y0387678D01*
X0310799Y0387601D01*
X0310752Y0387526D01*
X0310702Y0387454D01*
X0310648Y0387383D01*
X0310592Y0387316D01*
X0310532Y0387250D01*
X0310470Y0387188D01*
X0310404Y0387128D01*
X0310337Y0387072D01*
X0310266Y0387018D01*
X0310194Y0386968D01*
X0310119Y0386921D01*
X0310042Y0386877D01*
X0309963Y0386837D01*
X0309883Y0386800D01*
X0309801Y0386768D01*
X0309717Y0386738D01*
X0309633Y0386713D01*
X0309547Y0386691D01*
X0309461Y0386674D01*
X0309373Y0386660D01*
X0309285Y0386650D01*
X0309197Y0386644D01*
X0309109Y0386642D01*
X0309021Y0386644D01*
X0308933Y0386650D01*
X0308845Y0386660D01*
X0308757Y0386674D01*
X0308671Y0386691D01*
X0308585Y0386713D01*
X0308501Y0386738D01*
X0308417Y0386768D01*
X0308335Y0386800D01*
X0308255Y0386837D01*
X0308176Y0386877D01*
X0308099Y0386921D01*
X0308024Y0386968D01*
X0307952Y0387018D01*
X0307881Y0387072D01*
X0307814Y0387128D01*
X0307748Y0387188D01*
X0307686Y0387250D01*
X0307626Y0387316D01*
X0307570Y0387383D01*
X0307516Y0387454D01*
X0307466Y0387526D01*
X0307419Y0387601D01*
X0307375Y0387678D01*
X0307335Y0387757D01*
X0307298Y0387837D01*
X0307266Y0387919D01*
X0307236Y0388003D01*
X0307211Y0388087D01*
X0307189Y0388173D01*
X0307172Y0388259D01*
X0307158Y0388347D01*
X0307148Y0388435D01*
X0307142Y0388523D01*
X0307140Y0388611D01*
X0055171Y0388611D02*
X0055173Y0388699D01*
X0055179Y0388787D01*
X0055189Y0388875D01*
X0055203Y0388963D01*
X0055220Y0389049D01*
X0055242Y0389135D01*
X0055267Y0389219D01*
X0055297Y0389303D01*
X0055329Y0389385D01*
X0055366Y0389465D01*
X0055406Y0389544D01*
X0055450Y0389621D01*
X0055497Y0389696D01*
X0055547Y0389768D01*
X0055601Y0389839D01*
X0055657Y0389906D01*
X0055717Y0389972D01*
X0055779Y0390034D01*
X0055845Y0390094D01*
X0055912Y0390150D01*
X0055983Y0390204D01*
X0056055Y0390254D01*
X0056130Y0390301D01*
X0056207Y0390345D01*
X0056286Y0390385D01*
X0056366Y0390422D01*
X0056448Y0390454D01*
X0056532Y0390484D01*
X0056616Y0390509D01*
X0056702Y0390531D01*
X0056788Y0390548D01*
X0056876Y0390562D01*
X0056964Y0390572D01*
X0057052Y0390578D01*
X0057140Y0390580D01*
X0057228Y0390578D01*
X0057316Y0390572D01*
X0057404Y0390562D01*
X0057492Y0390548D01*
X0057578Y0390531D01*
X0057664Y0390509D01*
X0057748Y0390484D01*
X0057832Y0390454D01*
X0057914Y0390422D01*
X0057994Y0390385D01*
X0058073Y0390345D01*
X0058150Y0390301D01*
X0058225Y0390254D01*
X0058297Y0390204D01*
X0058368Y0390150D01*
X0058435Y0390094D01*
X0058501Y0390034D01*
X0058563Y0389972D01*
X0058623Y0389906D01*
X0058679Y0389839D01*
X0058733Y0389768D01*
X0058783Y0389696D01*
X0058830Y0389621D01*
X0058874Y0389544D01*
X0058914Y0389465D01*
X0058951Y0389385D01*
X0058983Y0389303D01*
X0059013Y0389219D01*
X0059038Y0389135D01*
X0059060Y0389049D01*
X0059077Y0388963D01*
X0059091Y0388875D01*
X0059101Y0388787D01*
X0059107Y0388699D01*
X0059109Y0388611D01*
X0059107Y0388523D01*
X0059101Y0388435D01*
X0059091Y0388347D01*
X0059077Y0388259D01*
X0059060Y0388173D01*
X0059038Y0388087D01*
X0059013Y0388003D01*
X0058983Y0387919D01*
X0058951Y0387837D01*
X0058914Y0387757D01*
X0058874Y0387678D01*
X0058830Y0387601D01*
X0058783Y0387526D01*
X0058733Y0387454D01*
X0058679Y0387383D01*
X0058623Y0387316D01*
X0058563Y0387250D01*
X0058501Y0387188D01*
X0058435Y0387128D01*
X0058368Y0387072D01*
X0058297Y0387018D01*
X0058225Y0386968D01*
X0058150Y0386921D01*
X0058073Y0386877D01*
X0057994Y0386837D01*
X0057914Y0386800D01*
X0057832Y0386768D01*
X0057748Y0386738D01*
X0057664Y0386713D01*
X0057578Y0386691D01*
X0057492Y0386674D01*
X0057404Y0386660D01*
X0057316Y0386650D01*
X0057228Y0386644D01*
X0057140Y0386642D01*
X0057052Y0386644D01*
X0056964Y0386650D01*
X0056876Y0386660D01*
X0056788Y0386674D01*
X0056702Y0386691D01*
X0056616Y0386713D01*
X0056532Y0386738D01*
X0056448Y0386768D01*
X0056366Y0386800D01*
X0056286Y0386837D01*
X0056207Y0386877D01*
X0056130Y0386921D01*
X0056055Y0386968D01*
X0055983Y0387018D01*
X0055912Y0387072D01*
X0055845Y0387128D01*
X0055779Y0387188D01*
X0055717Y0387250D01*
X0055657Y0387316D01*
X0055601Y0387383D01*
X0055547Y0387454D01*
X0055497Y0387526D01*
X0055450Y0387601D01*
X0055406Y0387678D01*
X0055366Y0387757D01*
X0055329Y0387837D01*
X0055297Y0387919D01*
X0055267Y0388003D01*
X0055242Y0388087D01*
X0055220Y0388173D01*
X0055203Y0388259D01*
X0055189Y0388347D01*
X0055179Y0388435D01*
X0055173Y0388523D01*
X0055171Y0388611D01*
D12*
X0076825Y0379753D03*
X0076825Y0375816D03*
X0076825Y0371879D03*
X0080762Y0371879D03*
X0080762Y0375816D03*
X0080762Y0379753D03*
X0084699Y0379753D03*
X0084699Y0375816D03*
X0084699Y0371879D03*
X0281550Y0371879D03*
X0285487Y0371879D03*
X0285487Y0375816D03*
X0285487Y0379753D03*
X0281550Y0379753D03*
X0281550Y0375816D03*
X0289424Y0375816D03*
X0289424Y0379753D03*
X0289424Y0371879D03*
X0289424Y0025422D03*
X0289424Y0021485D03*
X0289424Y0017548D03*
X0285487Y0017548D03*
X0285487Y0021485D03*
X0285487Y0025422D03*
X0281550Y0025422D03*
X0281550Y0021485D03*
X0281550Y0017548D03*
X0084699Y0017548D03*
X0080762Y0017548D03*
X0080762Y0021485D03*
X0080762Y0025422D03*
X0084699Y0025422D03*
X0084699Y0021485D03*
X0076825Y0021485D03*
X0076825Y0017548D03*
X0076825Y0025422D03*
D13*
X0015802Y0008690D03*
X0350447Y0008690D03*
X0350447Y0388611D03*
X0015802Y0388611D03*
D14*
X0028125Y0356150D03*
X0338125Y0356150D03*
X0338125Y0363650D03*
D15*
X0338125Y0293650D03*
X0338125Y0283650D03*
X0348125Y0283650D03*
X0348125Y0293650D03*
X0348125Y0273650D03*
X0348125Y0263650D03*
X0348125Y0253650D03*
X0348125Y0243650D03*
X0348125Y0233650D03*
X0348125Y0223650D03*
X0348125Y0213650D03*
X0348125Y0203650D03*
X0348125Y0193650D03*
X0348125Y0183650D03*
X0348125Y0173650D03*
X0348125Y0163650D03*
X0348125Y0153650D03*
X0348125Y0143650D03*
X0348125Y0133650D03*
X0348125Y0123650D03*
X0348125Y0113650D03*
X0348125Y0103650D03*
X0338125Y0103650D03*
X0338125Y0113650D03*
X0338125Y0123650D03*
X0338125Y0133650D03*
X0338125Y0143650D03*
X0338125Y0153650D03*
X0338125Y0163650D03*
X0338125Y0173650D03*
X0338125Y0183650D03*
X0338125Y0193650D03*
X0338125Y0203650D03*
X0338125Y0213650D03*
X0338125Y0223650D03*
X0338125Y0233650D03*
X0338125Y0243650D03*
X0338125Y0253650D03*
X0338125Y0263650D03*
X0338125Y0273650D03*
X0318125Y0273650D03*
X0318125Y0263650D03*
X0308125Y0263650D03*
X0308125Y0273650D03*
X0308125Y0283650D03*
X0318125Y0283650D03*
X0318125Y0293650D03*
X0308125Y0293650D03*
X0288125Y0293650D03*
X0288125Y0283650D03*
X0288125Y0273650D03*
X0288125Y0263650D03*
X0288125Y0253650D03*
X0288125Y0243650D03*
X0288125Y0233650D03*
X0288125Y0223650D03*
X0288125Y0213650D03*
X0288125Y0203650D03*
X0288125Y0193650D03*
X0288125Y0183650D03*
X0288125Y0173650D03*
X0288125Y0163650D03*
X0288125Y0153650D03*
X0288125Y0143650D03*
X0288125Y0133650D03*
X0288125Y0123650D03*
X0288125Y0113650D03*
X0288125Y0103650D03*
X0278125Y0103650D03*
X0278125Y0113650D03*
X0268125Y0113650D03*
X0268125Y0103650D03*
X0258125Y0103650D03*
X0258125Y0113650D03*
X0258125Y0123650D03*
X0258125Y0133650D03*
X0268125Y0133650D03*
X0278125Y0133650D03*
X0278125Y0123650D03*
X0268125Y0123650D03*
X0268125Y0143650D03*
X0278125Y0143650D03*
X0278125Y0153650D03*
X0268125Y0153650D03*
X0268125Y0163650D03*
X0278125Y0163650D03*
X0278125Y0173650D03*
X0268125Y0173650D03*
X0268125Y0183650D03*
X0278125Y0183650D03*
X0278125Y0193650D03*
X0268125Y0193650D03*
X0268125Y0203650D03*
X0278125Y0203650D03*
X0278125Y0213650D03*
X0268125Y0213650D03*
X0268125Y0223650D03*
X0278125Y0223650D03*
X0278125Y0233650D03*
X0268125Y0233650D03*
X0268125Y0243650D03*
X0278125Y0243650D03*
X0278125Y0253650D03*
X0268125Y0253650D03*
X0268125Y0263650D03*
X0278125Y0263650D03*
X0278125Y0273650D03*
X0268125Y0273650D03*
X0268125Y0283650D03*
X0278125Y0283650D03*
X0278125Y0293650D03*
X0268125Y0293650D03*
X0258125Y0293650D03*
X0258125Y0283650D03*
X0258125Y0273650D03*
X0258125Y0263650D03*
X0258125Y0253650D03*
X0258125Y0243650D03*
X0258125Y0233650D03*
X0258125Y0223650D03*
X0258125Y0213650D03*
X0258125Y0203650D03*
X0258125Y0193650D03*
X0258125Y0183650D03*
X0258125Y0173650D03*
X0258125Y0163650D03*
X0258125Y0153650D03*
X0258125Y0143650D03*
X0308125Y0143650D03*
X0318125Y0143650D03*
X0318125Y0153650D03*
X0308125Y0153650D03*
X0308125Y0163650D03*
X0318125Y0163650D03*
X0318125Y0173650D03*
X0308125Y0173650D03*
X0308125Y0183650D03*
X0318125Y0183650D03*
X0318125Y0193650D03*
X0308125Y0193650D03*
X0308125Y0203650D03*
X0318125Y0203650D03*
X0318125Y0213650D03*
X0308125Y0213650D03*
X0308125Y0223650D03*
X0318125Y0223650D03*
X0318125Y0233650D03*
X0308125Y0233650D03*
X0308125Y0243650D03*
X0318125Y0243650D03*
X0318125Y0253650D03*
X0308125Y0253650D03*
X0208125Y0253650D03*
X0208125Y0243650D03*
X0198125Y0243650D03*
X0198125Y0253650D03*
X0198125Y0263650D03*
X0208125Y0263650D03*
X0208125Y0273650D03*
X0198125Y0273650D03*
X0198125Y0283650D03*
X0208125Y0283650D03*
X0208125Y0293650D03*
X0198125Y0293650D03*
X0188125Y0293650D03*
X0188125Y0283650D03*
X0188125Y0273650D03*
X0188125Y0263650D03*
X0188125Y0253650D03*
X0188125Y0243650D03*
X0188125Y0233650D03*
X0188125Y0223650D03*
X0198125Y0223650D03*
X0208125Y0223650D03*
X0208125Y0233650D03*
X0198125Y0233650D03*
X0198125Y0213650D03*
X0208125Y0213650D03*
X0208125Y0203650D03*
X0198125Y0203650D03*
X0198125Y0193650D03*
X0208125Y0193650D03*
X0208125Y0183650D03*
X0198125Y0183650D03*
X0198125Y0173650D03*
X0208125Y0173650D03*
X0208125Y0163650D03*
X0198125Y0163650D03*
X0198125Y0153650D03*
X0208125Y0153650D03*
X0208125Y0143650D03*
X0198125Y0143650D03*
X0198125Y0133650D03*
X0208125Y0133650D03*
X0208125Y0123650D03*
X0198125Y0123650D03*
X0198125Y0113650D03*
X0208125Y0113650D03*
X0208125Y0103650D03*
X0198125Y0103650D03*
X0188125Y0103650D03*
X0188125Y0113650D03*
X0188125Y0123650D03*
X0188125Y0133650D03*
X0188125Y0143650D03*
X0188125Y0153650D03*
X0188125Y0163650D03*
X0188125Y0173650D03*
X0188125Y0183650D03*
X0188125Y0193650D03*
X0188125Y0203650D03*
X0188125Y0213650D03*
X0178125Y0213650D03*
X0178125Y0203650D03*
X0178125Y0193650D03*
X0178125Y0183650D03*
X0178125Y0173650D03*
X0178125Y0163650D03*
X0178125Y0153650D03*
X0178125Y0143650D03*
X0178125Y0133650D03*
X0178125Y0123650D03*
X0178125Y0113650D03*
X0178125Y0103650D03*
X0158125Y0103650D03*
X0158125Y0113650D03*
X0158125Y0123650D03*
X0158125Y0133650D03*
X0158125Y0143650D03*
X0158125Y0153650D03*
X0158125Y0163650D03*
X0158125Y0173650D03*
X0158125Y0183650D03*
X0158125Y0193650D03*
X0158125Y0203650D03*
X0158125Y0213650D03*
X0158125Y0223650D03*
X0158125Y0233650D03*
X0158125Y0243650D03*
X0158125Y0253650D03*
X0158125Y0263650D03*
X0158125Y0273650D03*
X0158125Y0283650D03*
X0158125Y0293650D03*
X0148125Y0293650D03*
X0148125Y0283650D03*
X0148125Y0273650D03*
X0148125Y0263650D03*
X0148125Y0253650D03*
X0148125Y0243650D03*
X0148125Y0233650D03*
X0148125Y0223650D03*
X0148125Y0213650D03*
X0148125Y0203650D03*
X0148125Y0193650D03*
X0148125Y0183650D03*
X0148125Y0173650D03*
X0148125Y0163650D03*
X0148125Y0153650D03*
X0148125Y0143650D03*
X0148125Y0133650D03*
X0148125Y0123650D03*
X0148125Y0113650D03*
X0148125Y0103650D03*
X0138125Y0103650D03*
X0138125Y0113650D03*
X0138125Y0123650D03*
X0138125Y0133650D03*
X0138125Y0143650D03*
X0138125Y0153650D03*
X0138125Y0163650D03*
X0138125Y0173650D03*
X0138125Y0183650D03*
X0138125Y0193650D03*
X0138125Y0203650D03*
X0138125Y0213650D03*
X0138125Y0223650D03*
X0138125Y0233650D03*
X0138125Y0243650D03*
X0138125Y0253650D03*
X0138125Y0263650D03*
X0138125Y0273650D03*
X0138125Y0283650D03*
X0138125Y0293650D03*
X0128125Y0293650D03*
X0128125Y0283650D03*
X0128125Y0273650D03*
X0128125Y0263650D03*
X0128125Y0253650D03*
X0128125Y0243650D03*
X0128125Y0233650D03*
X0128125Y0223650D03*
X0128125Y0213650D03*
X0128125Y0203650D03*
X0128125Y0193650D03*
X0128125Y0183650D03*
X0128125Y0173650D03*
X0128125Y0163650D03*
X0128125Y0153650D03*
X0128125Y0143650D03*
X0128125Y0133650D03*
X0128125Y0123650D03*
X0128125Y0113650D03*
X0128125Y0103650D03*
X0078125Y0103650D03*
X0078125Y0113650D03*
X0078125Y0123650D03*
X0078125Y0133650D03*
X0078125Y0143650D03*
X0078125Y0153650D03*
X0078125Y0163650D03*
X0078125Y0173650D03*
X0078125Y0183650D03*
X0078125Y0193650D03*
X0078125Y0203650D03*
X0078125Y0213650D03*
X0078125Y0223650D03*
X0078125Y0233650D03*
X0078125Y0243650D03*
X0078125Y0253650D03*
X0078125Y0263650D03*
X0078125Y0273650D03*
X0078125Y0283650D03*
X0078125Y0293650D03*
X0068125Y0293650D03*
X0068125Y0283650D03*
X0068125Y0273650D03*
X0068125Y0263650D03*
X0068125Y0253650D03*
X0068125Y0243650D03*
X0068125Y0233650D03*
X0068125Y0223650D03*
X0068125Y0213650D03*
X0068125Y0203650D03*
X0068125Y0193650D03*
X0068125Y0183650D03*
X0068125Y0173650D03*
X0068125Y0163650D03*
X0068125Y0153650D03*
X0068125Y0143650D03*
X0068125Y0133650D03*
X0068125Y0123650D03*
X0068125Y0113650D03*
X0068125Y0103650D03*
X0058125Y0103650D03*
X0058125Y0113650D03*
X0048125Y0113650D03*
X0048125Y0103650D03*
X0048125Y0123650D03*
X0058125Y0123650D03*
X0058125Y0133650D03*
X0048125Y0133650D03*
X0048125Y0143650D03*
X0058125Y0143650D03*
X0058125Y0153650D03*
X0048125Y0153650D03*
X0048125Y0163650D03*
X0058125Y0163650D03*
X0058125Y0173650D03*
X0048125Y0173650D03*
X0048125Y0183650D03*
X0058125Y0183650D03*
X0058125Y0193650D03*
X0048125Y0193650D03*
X0048125Y0203650D03*
X0058125Y0203650D03*
X0058125Y0213650D03*
X0048125Y0213650D03*
X0048125Y0223650D03*
X0058125Y0223650D03*
X0058125Y0233650D03*
X0048125Y0233650D03*
X0048125Y0243650D03*
X0058125Y0243650D03*
X0058125Y0253650D03*
X0048125Y0253650D03*
X0048125Y0263650D03*
X0058125Y0263650D03*
X0058125Y0273650D03*
X0048125Y0273650D03*
X0048125Y0283650D03*
X0058125Y0283650D03*
X0058125Y0293650D03*
X0048125Y0293650D03*
X0028125Y0293650D03*
X0028125Y0283650D03*
X0028125Y0273650D03*
X0028125Y0263650D03*
X0028125Y0253650D03*
X0028125Y0243650D03*
X0028125Y0233650D03*
X0028125Y0223650D03*
X0028125Y0213650D03*
X0028125Y0203650D03*
X0028125Y0193650D03*
X0028125Y0183650D03*
X0028125Y0173650D03*
X0028125Y0163650D03*
X0028125Y0153650D03*
X0028125Y0143650D03*
X0028125Y0133650D03*
X0028125Y0123650D03*
X0028125Y0113650D03*
X0028125Y0103650D03*
X0018125Y0103650D03*
X0018125Y0113650D03*
X0018125Y0123650D03*
X0018125Y0133650D03*
X0018125Y0143650D03*
X0018125Y0153650D03*
X0018125Y0163650D03*
X0018125Y0173650D03*
X0018125Y0183650D03*
X0018125Y0193650D03*
X0018125Y0203650D03*
X0018125Y0213650D03*
X0018125Y0223650D03*
X0018125Y0233650D03*
X0018125Y0243650D03*
X0018125Y0253650D03*
X0018125Y0263650D03*
X0018125Y0273650D03*
X0018125Y0283650D03*
X0018125Y0293650D03*
X0178125Y0293650D03*
X0178125Y0283650D03*
X0178125Y0273650D03*
X0178125Y0263650D03*
X0178125Y0253650D03*
X0178125Y0243650D03*
X0178125Y0233650D03*
X0178125Y0223650D03*
X0308125Y0133650D03*
X0318125Y0133650D03*
X0318125Y0123650D03*
X0308125Y0123650D03*
X0308125Y0113650D03*
X0318125Y0113650D03*
X0318125Y0103650D03*
X0308125Y0103650D03*
X0018125Y0083650D03*
X0018125Y0073650D03*
X0018125Y0063650D03*
X0018125Y0053650D03*
D16*
X0083125Y0083650D03*
X0103125Y0083650D03*
X0123125Y0083650D03*
X0143125Y0083650D03*
X0163125Y0083650D03*
X0183125Y0083650D03*
X0203125Y0083650D03*
X0223125Y0083650D03*
X0243125Y0083650D03*
X0263125Y0083650D03*
X0283125Y0083650D03*
X0303125Y0083650D03*
X0283125Y0313650D03*
X0263125Y0313650D03*
X0243125Y0313650D03*
X0223125Y0313650D03*
X0203125Y0313650D03*
X0183125Y0313650D03*
X0163125Y0313650D03*
X0143125Y0313650D03*
X0123125Y0313650D03*
X0103125Y0313650D03*
X0083125Y0313650D03*
X0063125Y0313650D03*
D17*
X0063125Y0083650D03*
X0063125Y0068650D03*
X0063125Y0048650D03*
X0303125Y0313650D03*
X0303125Y0328650D03*
X0303125Y0348650D03*
D18*
X0048125Y0083650D03*
X0048125Y0073650D03*
X0048125Y0063650D03*
X0048125Y0053650D03*
X0038125Y0053650D03*
X0038125Y0063650D03*
X0038125Y0073650D03*
X0038125Y0083650D03*
X0028125Y0083650D03*
X0028125Y0073650D03*
X0028125Y0063650D03*
X0028125Y0053650D03*
D19*
X0083125Y0052194D02*
X0083125Y0045107D01*
X0083125Y0065107D02*
X0083125Y0072194D01*
X0103125Y0072194D02*
X0103125Y0065107D01*
X0103125Y0052194D02*
X0103125Y0045107D01*
X0123125Y0045107D02*
X0123125Y0052194D01*
X0123125Y0065107D02*
X0123125Y0072194D01*
X0143125Y0072194D02*
X0143125Y0065107D01*
X0143125Y0052194D02*
X0143125Y0045107D01*
X0163125Y0045107D02*
X0163125Y0052194D01*
X0163125Y0065107D02*
X0163125Y0072194D01*
X0183125Y0072194D02*
X0183125Y0065107D01*
X0183125Y0052194D02*
X0183125Y0045107D01*
X0203125Y0045107D02*
X0203125Y0052194D01*
X0203125Y0065107D02*
X0203125Y0072194D01*
X0223125Y0072194D02*
X0223125Y0065107D01*
X0223125Y0052194D02*
X0223125Y0045107D01*
X0243125Y0045107D02*
X0243125Y0052194D01*
X0243125Y0065107D02*
X0243125Y0072194D01*
X0263125Y0072194D02*
X0263125Y0065107D01*
X0263125Y0052194D02*
X0263125Y0045107D01*
X0283125Y0045107D02*
X0283125Y0052194D01*
X0283125Y0065107D02*
X0283125Y0072194D01*
X0303125Y0072194D02*
X0303125Y0065107D01*
X0303125Y0052194D02*
X0303125Y0045107D01*
X0283125Y0325107D02*
X0283125Y0332194D01*
X0283125Y0345107D02*
X0283125Y0352194D01*
X0263125Y0352194D02*
X0263125Y0345107D01*
X0263125Y0332194D02*
X0263125Y0325107D01*
X0243125Y0325107D02*
X0243125Y0332194D01*
X0243125Y0345107D02*
X0243125Y0352194D01*
X0223125Y0352194D02*
X0223125Y0345107D01*
X0223125Y0332194D02*
X0223125Y0325107D01*
X0203125Y0325107D02*
X0203125Y0332194D01*
X0203125Y0345107D02*
X0203125Y0352194D01*
X0183125Y0352194D02*
X0183125Y0345107D01*
X0183125Y0332194D02*
X0183125Y0325107D01*
X0163125Y0325107D02*
X0163125Y0332194D01*
X0163125Y0345107D02*
X0163125Y0352194D01*
X0143125Y0352194D02*
X0143125Y0345107D01*
X0143125Y0332194D02*
X0143125Y0325107D01*
X0123125Y0325107D02*
X0123125Y0332194D01*
X0123125Y0345107D02*
X0123125Y0352194D01*
X0103125Y0352194D02*
X0103125Y0345107D01*
X0103125Y0332194D02*
X0103125Y0325107D01*
X0083125Y0325107D02*
X0083125Y0332194D01*
X0083125Y0345107D02*
X0083125Y0352194D01*
X0063125Y0352194D02*
X0063125Y0345107D01*
X0063125Y0332194D02*
X0063125Y0325107D01*
D20*
X0063125Y0293650D03*
X0063125Y0283650D03*
X0063125Y0273650D03*
X0063125Y0263650D03*
X0063125Y0253650D03*
X0063125Y0243650D03*
X0063125Y0233650D03*
X0063125Y0223650D03*
X0063125Y0213650D03*
X0063125Y0203650D03*
X0063125Y0193650D03*
X0063125Y0183650D03*
X0063125Y0173650D03*
X0063125Y0163650D03*
X0063125Y0153650D03*
X0063125Y0143650D03*
X0063125Y0133650D03*
X0063125Y0123650D03*
X0063125Y0113650D03*
X0063125Y0103650D03*
X0143125Y0103650D03*
X0143125Y0113650D03*
X0143125Y0123650D03*
X0143125Y0133650D03*
X0143125Y0143650D03*
X0143125Y0153650D03*
X0143125Y0163650D03*
X0143125Y0173650D03*
X0143125Y0183650D03*
X0143125Y0193650D03*
X0143125Y0203650D03*
X0143125Y0213650D03*
X0143125Y0223650D03*
X0143125Y0233650D03*
X0143125Y0243650D03*
X0143125Y0253650D03*
X0143125Y0263650D03*
X0143125Y0273650D03*
X0143125Y0283650D03*
X0143125Y0293650D03*
X0193125Y0293650D03*
X0193125Y0283650D03*
X0193125Y0273650D03*
X0193125Y0263650D03*
X0193125Y0253650D03*
X0193125Y0243650D03*
X0193125Y0233650D03*
X0193125Y0223650D03*
X0193125Y0213650D03*
X0193125Y0203650D03*
X0193125Y0193650D03*
X0193125Y0183650D03*
X0193125Y0173650D03*
X0193125Y0163650D03*
X0193125Y0153650D03*
X0193125Y0143650D03*
X0193125Y0133650D03*
X0193125Y0123650D03*
X0193125Y0113650D03*
X0193125Y0103650D03*
X0273125Y0103650D03*
X0273125Y0113650D03*
X0273125Y0123650D03*
X0273125Y0133650D03*
X0273125Y0143650D03*
X0273125Y0153650D03*
X0273125Y0163650D03*
X0273125Y0173650D03*
X0273125Y0183650D03*
X0273125Y0193650D03*
X0273125Y0203650D03*
X0273125Y0213650D03*
X0273125Y0223650D03*
X0273125Y0233650D03*
X0273125Y0243650D03*
X0273125Y0253650D03*
X0273125Y0263650D03*
X0273125Y0273650D03*
X0273125Y0283650D03*
X0273125Y0293650D03*
M02*
