%
M48
M72
T01C0.0197
T02C0.0400
T03C0.0472
T04C0.0866
T05C0.1260
%
T01
X7683Y1755
X7683Y2149
X7683Y2542
X8076Y2542
X8076Y2149
X8470Y2149
X8470Y2542
X8470Y1755
X8076Y1755
X28155Y1755
X28155Y2149
X28155Y2542
X28549Y2542
X28549Y2149
X28549Y1755
X28942Y1755
X28942Y2149
X28942Y2542
X28942Y37188
X28942Y37582
X28942Y37975
X28549Y37975
X28549Y37582
X28155Y37582
X28155Y37975
X28155Y37188
X28549Y37188
X8470Y37188
X8470Y37582
X8470Y37975
X8076Y37975
X8076Y37582
X8076Y37188
X7683Y37188
X7683Y37582
X7683Y37975
T02
X7812Y29365
X7812Y28365
X6812Y28365
X6812Y29365
X5812Y29365
X4812Y29365
X4812Y28365
X5812Y28365
X5812Y27365
X4812Y27365
X4812Y26365
X5812Y26365
X5812Y25365
X4812Y25365
X4812Y24365
X5812Y24365
X5812Y23365
X4812Y23365
X4812Y22365
X5812Y22365
X5812Y21365
X4812Y21365
X4812Y20365
X5812Y20365
X5812Y19365
X4812Y19365
X4812Y18365
X5812Y18365
X5812Y17365
X4812Y17365
X4812Y16365
X5812Y16365
X5812Y15365
X4812Y15365
X4812Y14365
X5812Y14365
X5812Y13365
X4812Y13365
X4812Y12365
X5812Y12365
X5812Y11365
X4812Y11365
X4812Y10365
X5812Y10365
X6812Y10365
X6812Y11365
X6812Y12365
X6812Y13365
X6812Y14365
X6812Y15365
X6812Y16365
X6812Y17365
X6812Y18365
X6812Y19365
X6812Y20365
X6812Y21365
X6812Y22365
X6812Y23365
X6812Y24365
X6812Y25365
X6812Y26365
X6812Y27365
X7812Y27365
X7812Y26365
X7812Y25365
X7812Y24365
X7812Y23365
X7812Y22365
X7812Y21365
X7812Y20365
X7812Y19365
X7812Y18365
X7812Y17365
X7812Y16365
X7812Y15365
X7812Y14365
X7812Y13365
X7812Y12365
X7812Y11365
X7812Y10365
X4812Y8365
X3812Y8365
X2812Y8365
X1812Y8365
X1812Y7365
X1812Y6365
X1812Y5365
X2812Y5365
X2812Y6365
X2812Y7365
X3812Y7365
X3812Y6365
X3812Y5365
X4812Y5365
X4812Y6365
X4812Y7365
X2812Y10365
X2812Y11365
X1812Y11365
X1812Y10365
X1812Y12365
X1812Y13365
X1812Y14365
X1812Y15365
X1812Y16365
X1812Y17365
X1812Y18365
X1812Y19365
X1812Y20365
X1812Y21365
X1812Y22365
X1812Y23365
X1812Y24365
X1812Y25365
X1812Y26365
X1812Y27365
X1812Y28365
X1812Y29365
X2812Y29365
X2812Y28365
X2812Y27365
X2812Y26365
X2812Y25365
X2812Y24365
X2812Y23365
X2812Y22365
X2812Y21365
X2812Y20365
X2812Y19365
X2812Y18365
X2812Y17365
X2812Y16365
X2812Y15365
X2812Y14365
X2812Y13365
X2812Y12365
X12812Y12365
X12812Y13365
X12812Y14365
X12812Y15365
X12812Y16365
X12812Y17365
X12812Y18365
X12812Y19365
X12812Y20365
X12812Y21365
X12812Y22365
X12812Y23365
X12812Y24365
X12812Y25365
X12812Y26365
X12812Y27365
X12812Y28365
X12812Y29365
X13812Y29365
X13812Y28365
X13812Y27365
X13812Y26365
X13812Y25365
X13812Y24365
X13812Y23365
X13812Y22365
X13812Y21365
X13812Y20365
X13812Y19365
X13812Y18365
X13812Y17365
X13812Y16365
X13812Y15365
X13812Y14365
X13812Y13365
X13812Y12365
X13812Y11365
X13812Y10365
X12812Y10365
X12812Y11365
X14812Y11365
X14812Y10365
X15812Y10365
X15812Y11365
X15812Y12365
X15812Y13365
X14812Y13365
X14812Y12365
X14812Y14365
X14812Y15365
X14812Y16365
X14812Y17365
X14812Y18365
X14812Y19365
X14812Y20365
X14812Y21365
X14812Y22365
X14812Y23365
X14812Y24365
X14812Y25365
X14812Y26365
X14812Y27365
X14812Y28365
X14812Y29365
X15812Y29365
X15812Y28365
X15812Y27365
X15812Y26365
X15812Y25365
X15812Y24365
X15812Y23365
X15812Y22365
X15812Y21365
X15812Y20365
X15812Y19365
X15812Y18365
X15812Y17365
X15812Y16365
X15812Y15365
X15812Y14365
X17812Y14365
X17812Y15365
X17812Y16365
X17812Y17365
X17812Y18365
X17812Y19365
X17812Y20365
X17812Y21365
X17812Y22365
X17812Y23365
X17812Y24365
X17812Y25365
X17812Y26365
X17812Y27365
X17812Y28365
X17812Y29365
X18812Y29365
X18812Y28365
X18812Y27365
X18812Y26365
X18812Y25365
X18812Y24365
X18812Y23365
X18812Y22365
X18812Y21365
X18812Y20365
X18812Y19365
X18812Y18365
X18812Y17365
X18812Y16365
X18812Y15365
X18812Y14365
X18812Y13365
X18812Y12365
X17812Y12365
X17812Y13365
X17812Y11365
X17812Y10365
X18812Y10365
X18812Y11365
X19812Y11365
X19812Y10365
X20812Y10365
X20812Y11365
X20812Y12365
X19812Y12365
X19812Y13365
X20812Y13365
X20812Y14365
X19812Y14365
X19812Y15365
X20812Y15365
X20812Y16365
X19812Y16365
X19812Y17365
X20812Y17365
X20812Y18365
X19812Y18365
X19812Y19365
X20812Y19365
X20812Y20365
X19812Y20365
X19812Y21365
X20812Y21365
X20812Y22365
X19812Y22365
X19812Y23365
X20812Y23365
X20812Y24365
X19812Y24365
X19812Y25365
X20812Y25365
X20812Y26365
X19812Y26365
X19812Y27365
X20812Y27365
X20812Y28365
X19812Y28365
X19812Y29365
X20812Y29365
X25812Y29365
X25812Y28365
X25812Y27365
X25812Y26365
X25812Y25365
X25812Y24365
X25812Y23365
X25812Y22365
X25812Y21365
X25812Y20365
X25812Y19365
X25812Y18365
X25812Y17365
X25812Y16365
X25812Y15365
X25812Y14365
X25812Y13365
X25812Y12365
X25812Y11365
X25812Y10365
X26812Y10365
X26812Y11365
X27812Y11365
X27812Y10365
X28812Y10365
X28812Y11365
X28812Y12365
X28812Y13365
X27812Y13365
X26812Y13365
X26812Y12365
X27812Y12365
X27812Y14365
X26812Y14365
X26812Y15365
X27812Y15365
X27812Y16365
X26812Y16365
X26812Y17365
X27812Y17365
X27812Y18365
X26812Y18365
X26812Y19365
X27812Y19365
X27812Y20365
X26812Y20365
X26812Y21365
X27812Y21365
X27812Y22365
X26812Y22365
X26812Y23365
X27812Y23365
X27812Y24365
X26812Y24365
X26812Y25365
X27812Y25365
X27812Y26365
X26812Y26365
X26812Y27365
X27812Y27365
X27812Y28365
X26812Y28365
X26812Y29365
X27812Y29365
X28812Y29365
X28812Y28365
X28812Y27365
X28812Y26365
X28812Y25365
X28812Y24365
X28812Y23365
X28812Y22365
X28812Y21365
X28812Y20365
X28812Y19365
X28812Y18365
X28812Y17365
X28812Y16365
X28812Y15365
X28812Y14365
X30812Y14365
X30812Y15365
X31812Y15365
X31812Y14365
X31812Y13365
X30812Y13365
X30812Y12365
X31812Y12365
X31812Y11365
X30812Y11365
X30812Y10365
X31812Y10365
X33812Y10365
X33812Y11365
X33812Y12365
X33812Y13365
X33812Y14365
X33812Y15365
X33812Y16365
X33812Y17365
X33812Y18365
X33812Y19365
X33812Y20365
X33812Y21365
X33812Y22365
X33812Y23365
X33812Y24365
X33812Y25365
X33812Y26365
X33812Y27365
X33812Y28365
X33812Y29365
X34812Y29365
X34812Y28365
X34812Y27365
X34812Y26365
X34812Y25365
X34812Y24365
X34812Y23365
X34812Y22365
X34812Y21365
X34812Y20365
X34812Y19365
X34812Y18365
X34812Y17365
X34812Y16365
X34812Y15365
X34812Y14365
X34812Y13365
X34812Y12365
X34812Y11365
X34812Y10365
X31812Y16365
X30812Y16365
X30812Y17365
X31812Y17365
X31812Y18365
X30812Y18365
X30812Y19365
X31812Y19365
X31812Y20365
X30812Y20365
X30812Y21365
X31812Y21365
X31812Y22365
X30812Y22365
X30812Y23365
X31812Y23365
X31812Y24365
X30812Y24365
X30812Y25365
X31812Y25365
X31812Y26365
X30812Y26365
X30812Y27365
X31812Y27365
X31812Y28365
X30812Y28365
X30812Y29365
X31812Y29365
T03
X30312Y31365
X30312Y32865
X28312Y32865
X28312Y31365
X26312Y31365
X26312Y32865
X24312Y32865
X24312Y31365
X22312Y31365
X22312Y32865
X20312Y32865
X20312Y31365
X18312Y31365
X18312Y32865
X16312Y32865
X16312Y31365
X14312Y31365
X14312Y32865
X14312Y34865
X16312Y34865
X18312Y34865
X20312Y34865
X22312Y34865
X24312Y34865
X26312Y34865
X28312Y34865
X30312Y34865
X12312Y34865
X10312Y34865
X10312Y32865
X10312Y31365
X12312Y31365
X12312Y32865
X8312Y32865
X8312Y31365
X6312Y31365
X6312Y32865
X6312Y34865
X8312Y34865
X8312Y8365
X8312Y6865
X6312Y6865
X6312Y8365
X6312Y4865
X8312Y4865
X10312Y4865
X10312Y6865
X10312Y8365
X12312Y8365
X12312Y6865
X12312Y4865
X14312Y4865
X14312Y6865
X14312Y8365
X16312Y8365
X16312Y6865
X16312Y4865
X18312Y4865
X18312Y6865
X18312Y8365
X20312Y8365
X20312Y6865
X20312Y4865
X22312Y4865
X22312Y6865
X22312Y8365
X24312Y8365
X24312Y6865
X24312Y4865
X26312Y4865
X26312Y6865
X26312Y8365
X28312Y8365
X28312Y6865
X28312Y4865
X30312Y4865
X30312Y6865
X30312Y8365
T04
X1580Y869
X35045Y869
X35045Y38861
X1580Y38861
T05
X1580Y35613
X1580Y4117
X35045Y4117
X35045Y35613
M30
