G75*
%MOIN*%
%OFA0B0*%
%FSLAX25Y25*%
%IPPOS*%
%LPD*%
%AMOC8*
5,1,8,0,0,1.08239X$1,22.5*
%
%ADD10C,0.00000*%
%ADD11C,0.01600*%
%ADD12C,0.11811*%
D10*
X0011471Y0008690D02*
X0011473Y0008821D01*
X0011479Y0008953D01*
X0011489Y0009084D01*
X0011503Y0009215D01*
X0011521Y0009345D01*
X0011543Y0009474D01*
X0011568Y0009603D01*
X0011598Y0009731D01*
X0011632Y0009858D01*
X0011669Y0009985D01*
X0011710Y0010109D01*
X0011755Y0010233D01*
X0011804Y0010355D01*
X0011856Y0010476D01*
X0011912Y0010594D01*
X0011972Y0010712D01*
X0012035Y0010827D01*
X0012102Y0010940D01*
X0012172Y0011052D01*
X0012245Y0011161D01*
X0012321Y0011267D01*
X0012401Y0011372D01*
X0012484Y0011474D01*
X0012570Y0011573D01*
X0012659Y0011670D01*
X0012751Y0011764D01*
X0012846Y0011855D01*
X0012943Y0011944D01*
X0013043Y0012029D01*
X0013146Y0012111D01*
X0013251Y0012190D01*
X0013358Y0012266D01*
X0013468Y0012338D01*
X0013580Y0012407D01*
X0013694Y0012473D01*
X0013809Y0012535D01*
X0013927Y0012594D01*
X0014046Y0012649D01*
X0014167Y0012701D01*
X0014290Y0012748D01*
X0014414Y0012792D01*
X0014539Y0012833D01*
X0014665Y0012869D01*
X0014793Y0012902D01*
X0014921Y0012930D01*
X0015050Y0012955D01*
X0015180Y0012976D01*
X0015310Y0012993D01*
X0015441Y0013006D01*
X0015572Y0013015D01*
X0015703Y0013020D01*
X0015835Y0013021D01*
X0015966Y0013018D01*
X0016098Y0013011D01*
X0016229Y0013000D01*
X0016359Y0012985D01*
X0016489Y0012966D01*
X0016619Y0012943D01*
X0016747Y0012917D01*
X0016875Y0012886D01*
X0017002Y0012851D01*
X0017128Y0012813D01*
X0017252Y0012771D01*
X0017376Y0012725D01*
X0017497Y0012675D01*
X0017617Y0012622D01*
X0017736Y0012565D01*
X0017853Y0012505D01*
X0017967Y0012441D01*
X0018080Y0012373D01*
X0018191Y0012302D01*
X0018300Y0012228D01*
X0018406Y0012151D01*
X0018510Y0012070D01*
X0018611Y0011987D01*
X0018710Y0011900D01*
X0018806Y0011810D01*
X0018899Y0011717D01*
X0018990Y0011622D01*
X0019077Y0011524D01*
X0019162Y0011423D01*
X0019243Y0011320D01*
X0019321Y0011214D01*
X0019396Y0011106D01*
X0019468Y0010996D01*
X0019536Y0010884D01*
X0019601Y0010770D01*
X0019662Y0010653D01*
X0019720Y0010535D01*
X0019774Y0010415D01*
X0019825Y0010294D01*
X0019872Y0010171D01*
X0019915Y0010047D01*
X0019954Y0009922D01*
X0019990Y0009795D01*
X0020021Y0009667D01*
X0020049Y0009539D01*
X0020073Y0009410D01*
X0020093Y0009280D01*
X0020109Y0009149D01*
X0020121Y0009018D01*
X0020129Y0008887D01*
X0020133Y0008756D01*
X0020133Y0008624D01*
X0020129Y0008493D01*
X0020121Y0008362D01*
X0020109Y0008231D01*
X0020093Y0008100D01*
X0020073Y0007970D01*
X0020049Y0007841D01*
X0020021Y0007713D01*
X0019990Y0007585D01*
X0019954Y0007458D01*
X0019915Y0007333D01*
X0019872Y0007209D01*
X0019825Y0007086D01*
X0019774Y0006965D01*
X0019720Y0006845D01*
X0019662Y0006727D01*
X0019601Y0006610D01*
X0019536Y0006496D01*
X0019468Y0006384D01*
X0019396Y0006274D01*
X0019321Y0006166D01*
X0019243Y0006060D01*
X0019162Y0005957D01*
X0019077Y0005856D01*
X0018990Y0005758D01*
X0018899Y0005663D01*
X0018806Y0005570D01*
X0018710Y0005480D01*
X0018611Y0005393D01*
X0018510Y0005310D01*
X0018406Y0005229D01*
X0018300Y0005152D01*
X0018191Y0005078D01*
X0018080Y0005007D01*
X0017968Y0004939D01*
X0017853Y0004875D01*
X0017736Y0004815D01*
X0017617Y0004758D01*
X0017497Y0004705D01*
X0017376Y0004655D01*
X0017252Y0004609D01*
X0017128Y0004567D01*
X0017002Y0004529D01*
X0016875Y0004494D01*
X0016747Y0004463D01*
X0016619Y0004437D01*
X0016489Y0004414D01*
X0016359Y0004395D01*
X0016229Y0004380D01*
X0016098Y0004369D01*
X0015966Y0004362D01*
X0015835Y0004359D01*
X0015703Y0004360D01*
X0015572Y0004365D01*
X0015441Y0004374D01*
X0015310Y0004387D01*
X0015180Y0004404D01*
X0015050Y0004425D01*
X0014921Y0004450D01*
X0014793Y0004478D01*
X0014665Y0004511D01*
X0014539Y0004547D01*
X0014414Y0004588D01*
X0014290Y0004632D01*
X0014167Y0004679D01*
X0014046Y0004731D01*
X0013927Y0004786D01*
X0013809Y0004845D01*
X0013694Y0004907D01*
X0013580Y0004973D01*
X0013468Y0005042D01*
X0013358Y0005114D01*
X0013251Y0005190D01*
X0013146Y0005269D01*
X0013043Y0005351D01*
X0012943Y0005436D01*
X0012846Y0005525D01*
X0012751Y0005616D01*
X0012659Y0005710D01*
X0012570Y0005807D01*
X0012484Y0005906D01*
X0012401Y0006008D01*
X0012321Y0006113D01*
X0012245Y0006219D01*
X0012172Y0006328D01*
X0012102Y0006440D01*
X0012035Y0006553D01*
X0011972Y0006668D01*
X0011912Y0006786D01*
X0011856Y0006904D01*
X0011804Y0007025D01*
X0011755Y0007147D01*
X0011710Y0007271D01*
X0011669Y0007395D01*
X0011632Y0007522D01*
X0011598Y0007649D01*
X0011568Y0007777D01*
X0011543Y0007906D01*
X0011521Y0008035D01*
X0011503Y0008165D01*
X0011489Y0008296D01*
X0011479Y0008427D01*
X0011473Y0008559D01*
X0011471Y0008690D01*
X0009503Y0041170D02*
X0009505Y0041328D01*
X0009511Y0041486D01*
X0009521Y0041644D01*
X0009535Y0041802D01*
X0009553Y0041959D01*
X0009574Y0042116D01*
X0009600Y0042272D01*
X0009630Y0042428D01*
X0009663Y0042583D01*
X0009701Y0042736D01*
X0009742Y0042889D01*
X0009787Y0043041D01*
X0009836Y0043192D01*
X0009889Y0043341D01*
X0009945Y0043489D01*
X0010005Y0043635D01*
X0010069Y0043780D01*
X0010137Y0043923D01*
X0010208Y0044065D01*
X0010282Y0044205D01*
X0010360Y0044342D01*
X0010442Y0044478D01*
X0010526Y0044612D01*
X0010615Y0044743D01*
X0010706Y0044872D01*
X0010801Y0044999D01*
X0010898Y0045124D01*
X0010999Y0045246D01*
X0011103Y0045365D01*
X0011210Y0045482D01*
X0011320Y0045596D01*
X0011433Y0045707D01*
X0011548Y0045816D01*
X0011666Y0045921D01*
X0011787Y0046023D01*
X0011910Y0046123D01*
X0012036Y0046219D01*
X0012164Y0046312D01*
X0012294Y0046402D01*
X0012427Y0046488D01*
X0012562Y0046572D01*
X0012698Y0046651D01*
X0012837Y0046728D01*
X0012978Y0046800D01*
X0013120Y0046870D01*
X0013264Y0046935D01*
X0013410Y0046997D01*
X0013557Y0047055D01*
X0013706Y0047110D01*
X0013856Y0047161D01*
X0014007Y0047208D01*
X0014159Y0047251D01*
X0014312Y0047290D01*
X0014467Y0047326D01*
X0014622Y0047357D01*
X0014778Y0047385D01*
X0014934Y0047409D01*
X0015091Y0047429D01*
X0015249Y0047445D01*
X0015406Y0047457D01*
X0015565Y0047465D01*
X0015723Y0047469D01*
X0015881Y0047469D01*
X0016039Y0047465D01*
X0016198Y0047457D01*
X0016355Y0047445D01*
X0016513Y0047429D01*
X0016670Y0047409D01*
X0016826Y0047385D01*
X0016982Y0047357D01*
X0017137Y0047326D01*
X0017292Y0047290D01*
X0017445Y0047251D01*
X0017597Y0047208D01*
X0017748Y0047161D01*
X0017898Y0047110D01*
X0018047Y0047055D01*
X0018194Y0046997D01*
X0018340Y0046935D01*
X0018484Y0046870D01*
X0018626Y0046800D01*
X0018767Y0046728D01*
X0018906Y0046651D01*
X0019042Y0046572D01*
X0019177Y0046488D01*
X0019310Y0046402D01*
X0019440Y0046312D01*
X0019568Y0046219D01*
X0019694Y0046123D01*
X0019817Y0046023D01*
X0019938Y0045921D01*
X0020056Y0045816D01*
X0020171Y0045707D01*
X0020284Y0045596D01*
X0020394Y0045482D01*
X0020501Y0045365D01*
X0020605Y0045246D01*
X0020706Y0045124D01*
X0020803Y0044999D01*
X0020898Y0044872D01*
X0020989Y0044743D01*
X0021078Y0044612D01*
X0021162Y0044478D01*
X0021244Y0044342D01*
X0021322Y0044205D01*
X0021396Y0044065D01*
X0021467Y0043923D01*
X0021535Y0043780D01*
X0021599Y0043635D01*
X0021659Y0043489D01*
X0021715Y0043341D01*
X0021768Y0043192D01*
X0021817Y0043041D01*
X0021862Y0042889D01*
X0021903Y0042736D01*
X0021941Y0042583D01*
X0021974Y0042428D01*
X0022004Y0042272D01*
X0022030Y0042116D01*
X0022051Y0041959D01*
X0022069Y0041802D01*
X0022083Y0041644D01*
X0022093Y0041486D01*
X0022099Y0041328D01*
X0022101Y0041170D01*
X0022099Y0041012D01*
X0022093Y0040854D01*
X0022083Y0040696D01*
X0022069Y0040538D01*
X0022051Y0040381D01*
X0022030Y0040224D01*
X0022004Y0040068D01*
X0021974Y0039912D01*
X0021941Y0039757D01*
X0021903Y0039604D01*
X0021862Y0039451D01*
X0021817Y0039299D01*
X0021768Y0039148D01*
X0021715Y0038999D01*
X0021659Y0038851D01*
X0021599Y0038705D01*
X0021535Y0038560D01*
X0021467Y0038417D01*
X0021396Y0038275D01*
X0021322Y0038135D01*
X0021244Y0037998D01*
X0021162Y0037862D01*
X0021078Y0037728D01*
X0020989Y0037597D01*
X0020898Y0037468D01*
X0020803Y0037341D01*
X0020706Y0037216D01*
X0020605Y0037094D01*
X0020501Y0036975D01*
X0020394Y0036858D01*
X0020284Y0036744D01*
X0020171Y0036633D01*
X0020056Y0036524D01*
X0019938Y0036419D01*
X0019817Y0036317D01*
X0019694Y0036217D01*
X0019568Y0036121D01*
X0019440Y0036028D01*
X0019310Y0035938D01*
X0019177Y0035852D01*
X0019042Y0035768D01*
X0018906Y0035689D01*
X0018767Y0035612D01*
X0018626Y0035540D01*
X0018484Y0035470D01*
X0018340Y0035405D01*
X0018194Y0035343D01*
X0018047Y0035285D01*
X0017898Y0035230D01*
X0017748Y0035179D01*
X0017597Y0035132D01*
X0017445Y0035089D01*
X0017292Y0035050D01*
X0017137Y0035014D01*
X0016982Y0034983D01*
X0016826Y0034955D01*
X0016670Y0034931D01*
X0016513Y0034911D01*
X0016355Y0034895D01*
X0016198Y0034883D01*
X0016039Y0034875D01*
X0015881Y0034871D01*
X0015723Y0034871D01*
X0015565Y0034875D01*
X0015406Y0034883D01*
X0015249Y0034895D01*
X0015091Y0034911D01*
X0014934Y0034931D01*
X0014778Y0034955D01*
X0014622Y0034983D01*
X0014467Y0035014D01*
X0014312Y0035050D01*
X0014159Y0035089D01*
X0014007Y0035132D01*
X0013856Y0035179D01*
X0013706Y0035230D01*
X0013557Y0035285D01*
X0013410Y0035343D01*
X0013264Y0035405D01*
X0013120Y0035470D01*
X0012978Y0035540D01*
X0012837Y0035612D01*
X0012698Y0035689D01*
X0012562Y0035768D01*
X0012427Y0035852D01*
X0012294Y0035938D01*
X0012164Y0036028D01*
X0012036Y0036121D01*
X0011910Y0036217D01*
X0011787Y0036317D01*
X0011666Y0036419D01*
X0011548Y0036524D01*
X0011433Y0036633D01*
X0011320Y0036744D01*
X0011210Y0036858D01*
X0011103Y0036975D01*
X0010999Y0037094D01*
X0010898Y0037216D01*
X0010801Y0037341D01*
X0010706Y0037468D01*
X0010615Y0037597D01*
X0010526Y0037728D01*
X0010442Y0037862D01*
X0010360Y0037998D01*
X0010282Y0038135D01*
X0010208Y0038275D01*
X0010137Y0038417D01*
X0010069Y0038560D01*
X0010005Y0038705D01*
X0009945Y0038851D01*
X0009889Y0038999D01*
X0009836Y0039148D01*
X0009787Y0039299D01*
X0009742Y0039451D01*
X0009701Y0039604D01*
X0009663Y0039757D01*
X0009630Y0039912D01*
X0009600Y0040068D01*
X0009574Y0040224D01*
X0009553Y0040381D01*
X0009535Y0040538D01*
X0009521Y0040696D01*
X0009511Y0040854D01*
X0009505Y0041012D01*
X0009503Y0041170D01*
X0075841Y0025422D02*
X0075843Y0025484D01*
X0075849Y0025547D01*
X0075859Y0025608D01*
X0075873Y0025669D01*
X0075890Y0025729D01*
X0075911Y0025788D01*
X0075937Y0025845D01*
X0075965Y0025900D01*
X0075997Y0025954D01*
X0076033Y0026005D01*
X0076071Y0026055D01*
X0076113Y0026101D01*
X0076157Y0026145D01*
X0076205Y0026186D01*
X0076254Y0026224D01*
X0076306Y0026258D01*
X0076360Y0026289D01*
X0076416Y0026317D01*
X0076474Y0026341D01*
X0076533Y0026362D01*
X0076593Y0026378D01*
X0076654Y0026391D01*
X0076716Y0026400D01*
X0076778Y0026405D01*
X0076841Y0026406D01*
X0076903Y0026403D01*
X0076965Y0026396D01*
X0077027Y0026385D01*
X0077087Y0026370D01*
X0077147Y0026352D01*
X0077205Y0026330D01*
X0077262Y0026304D01*
X0077317Y0026274D01*
X0077370Y0026241D01*
X0077421Y0026205D01*
X0077469Y0026166D01*
X0077515Y0026123D01*
X0077558Y0026078D01*
X0077598Y0026030D01*
X0077635Y0025980D01*
X0077669Y0025927D01*
X0077700Y0025873D01*
X0077726Y0025817D01*
X0077750Y0025759D01*
X0077769Y0025699D01*
X0077785Y0025639D01*
X0077797Y0025577D01*
X0077805Y0025516D01*
X0077809Y0025453D01*
X0077809Y0025391D01*
X0077805Y0025328D01*
X0077797Y0025267D01*
X0077785Y0025205D01*
X0077769Y0025145D01*
X0077750Y0025085D01*
X0077726Y0025027D01*
X0077700Y0024971D01*
X0077669Y0024917D01*
X0077635Y0024864D01*
X0077598Y0024814D01*
X0077558Y0024766D01*
X0077515Y0024721D01*
X0077469Y0024678D01*
X0077421Y0024639D01*
X0077370Y0024603D01*
X0077317Y0024570D01*
X0077262Y0024540D01*
X0077205Y0024514D01*
X0077147Y0024492D01*
X0077087Y0024474D01*
X0077027Y0024459D01*
X0076965Y0024448D01*
X0076903Y0024441D01*
X0076841Y0024438D01*
X0076778Y0024439D01*
X0076716Y0024444D01*
X0076654Y0024453D01*
X0076593Y0024466D01*
X0076533Y0024482D01*
X0076474Y0024503D01*
X0076416Y0024527D01*
X0076360Y0024555D01*
X0076306Y0024586D01*
X0076254Y0024620D01*
X0076205Y0024658D01*
X0076157Y0024699D01*
X0076113Y0024743D01*
X0076071Y0024789D01*
X0076033Y0024839D01*
X0075997Y0024890D01*
X0075965Y0024944D01*
X0075937Y0024999D01*
X0075911Y0025056D01*
X0075890Y0025115D01*
X0075873Y0025175D01*
X0075859Y0025236D01*
X0075849Y0025297D01*
X0075843Y0025360D01*
X0075841Y0025422D01*
X0075841Y0021485D02*
X0075843Y0021547D01*
X0075849Y0021610D01*
X0075859Y0021671D01*
X0075873Y0021732D01*
X0075890Y0021792D01*
X0075911Y0021851D01*
X0075937Y0021908D01*
X0075965Y0021963D01*
X0075997Y0022017D01*
X0076033Y0022068D01*
X0076071Y0022118D01*
X0076113Y0022164D01*
X0076157Y0022208D01*
X0076205Y0022249D01*
X0076254Y0022287D01*
X0076306Y0022321D01*
X0076360Y0022352D01*
X0076416Y0022380D01*
X0076474Y0022404D01*
X0076533Y0022425D01*
X0076593Y0022441D01*
X0076654Y0022454D01*
X0076716Y0022463D01*
X0076778Y0022468D01*
X0076841Y0022469D01*
X0076903Y0022466D01*
X0076965Y0022459D01*
X0077027Y0022448D01*
X0077087Y0022433D01*
X0077147Y0022415D01*
X0077205Y0022393D01*
X0077262Y0022367D01*
X0077317Y0022337D01*
X0077370Y0022304D01*
X0077421Y0022268D01*
X0077469Y0022229D01*
X0077515Y0022186D01*
X0077558Y0022141D01*
X0077598Y0022093D01*
X0077635Y0022043D01*
X0077669Y0021990D01*
X0077700Y0021936D01*
X0077726Y0021880D01*
X0077750Y0021822D01*
X0077769Y0021762D01*
X0077785Y0021702D01*
X0077797Y0021640D01*
X0077805Y0021579D01*
X0077809Y0021516D01*
X0077809Y0021454D01*
X0077805Y0021391D01*
X0077797Y0021330D01*
X0077785Y0021268D01*
X0077769Y0021208D01*
X0077750Y0021148D01*
X0077726Y0021090D01*
X0077700Y0021034D01*
X0077669Y0020980D01*
X0077635Y0020927D01*
X0077598Y0020877D01*
X0077558Y0020829D01*
X0077515Y0020784D01*
X0077469Y0020741D01*
X0077421Y0020702D01*
X0077370Y0020666D01*
X0077317Y0020633D01*
X0077262Y0020603D01*
X0077205Y0020577D01*
X0077147Y0020555D01*
X0077087Y0020537D01*
X0077027Y0020522D01*
X0076965Y0020511D01*
X0076903Y0020504D01*
X0076841Y0020501D01*
X0076778Y0020502D01*
X0076716Y0020507D01*
X0076654Y0020516D01*
X0076593Y0020529D01*
X0076533Y0020545D01*
X0076474Y0020566D01*
X0076416Y0020590D01*
X0076360Y0020618D01*
X0076306Y0020649D01*
X0076254Y0020683D01*
X0076205Y0020721D01*
X0076157Y0020762D01*
X0076113Y0020806D01*
X0076071Y0020852D01*
X0076033Y0020902D01*
X0075997Y0020953D01*
X0075965Y0021007D01*
X0075937Y0021062D01*
X0075911Y0021119D01*
X0075890Y0021178D01*
X0075873Y0021238D01*
X0075859Y0021299D01*
X0075849Y0021360D01*
X0075843Y0021423D01*
X0075841Y0021485D01*
X0075841Y0017548D02*
X0075843Y0017610D01*
X0075849Y0017673D01*
X0075859Y0017734D01*
X0075873Y0017795D01*
X0075890Y0017855D01*
X0075911Y0017914D01*
X0075937Y0017971D01*
X0075965Y0018026D01*
X0075997Y0018080D01*
X0076033Y0018131D01*
X0076071Y0018181D01*
X0076113Y0018227D01*
X0076157Y0018271D01*
X0076205Y0018312D01*
X0076254Y0018350D01*
X0076306Y0018384D01*
X0076360Y0018415D01*
X0076416Y0018443D01*
X0076474Y0018467D01*
X0076533Y0018488D01*
X0076593Y0018504D01*
X0076654Y0018517D01*
X0076716Y0018526D01*
X0076778Y0018531D01*
X0076841Y0018532D01*
X0076903Y0018529D01*
X0076965Y0018522D01*
X0077027Y0018511D01*
X0077087Y0018496D01*
X0077147Y0018478D01*
X0077205Y0018456D01*
X0077262Y0018430D01*
X0077317Y0018400D01*
X0077370Y0018367D01*
X0077421Y0018331D01*
X0077469Y0018292D01*
X0077515Y0018249D01*
X0077558Y0018204D01*
X0077598Y0018156D01*
X0077635Y0018106D01*
X0077669Y0018053D01*
X0077700Y0017999D01*
X0077726Y0017943D01*
X0077750Y0017885D01*
X0077769Y0017825D01*
X0077785Y0017765D01*
X0077797Y0017703D01*
X0077805Y0017642D01*
X0077809Y0017579D01*
X0077809Y0017517D01*
X0077805Y0017454D01*
X0077797Y0017393D01*
X0077785Y0017331D01*
X0077769Y0017271D01*
X0077750Y0017211D01*
X0077726Y0017153D01*
X0077700Y0017097D01*
X0077669Y0017043D01*
X0077635Y0016990D01*
X0077598Y0016940D01*
X0077558Y0016892D01*
X0077515Y0016847D01*
X0077469Y0016804D01*
X0077421Y0016765D01*
X0077370Y0016729D01*
X0077317Y0016696D01*
X0077262Y0016666D01*
X0077205Y0016640D01*
X0077147Y0016618D01*
X0077087Y0016600D01*
X0077027Y0016585D01*
X0076965Y0016574D01*
X0076903Y0016567D01*
X0076841Y0016564D01*
X0076778Y0016565D01*
X0076716Y0016570D01*
X0076654Y0016579D01*
X0076593Y0016592D01*
X0076533Y0016608D01*
X0076474Y0016629D01*
X0076416Y0016653D01*
X0076360Y0016681D01*
X0076306Y0016712D01*
X0076254Y0016746D01*
X0076205Y0016784D01*
X0076157Y0016825D01*
X0076113Y0016869D01*
X0076071Y0016915D01*
X0076033Y0016965D01*
X0075997Y0017016D01*
X0075965Y0017070D01*
X0075937Y0017125D01*
X0075911Y0017182D01*
X0075890Y0017241D01*
X0075873Y0017301D01*
X0075859Y0017362D01*
X0075849Y0017423D01*
X0075843Y0017486D01*
X0075841Y0017548D01*
X0079778Y0017548D02*
X0079780Y0017610D01*
X0079786Y0017673D01*
X0079796Y0017734D01*
X0079810Y0017795D01*
X0079827Y0017855D01*
X0079848Y0017914D01*
X0079874Y0017971D01*
X0079902Y0018026D01*
X0079934Y0018080D01*
X0079970Y0018131D01*
X0080008Y0018181D01*
X0080050Y0018227D01*
X0080094Y0018271D01*
X0080142Y0018312D01*
X0080191Y0018350D01*
X0080243Y0018384D01*
X0080297Y0018415D01*
X0080353Y0018443D01*
X0080411Y0018467D01*
X0080470Y0018488D01*
X0080530Y0018504D01*
X0080591Y0018517D01*
X0080653Y0018526D01*
X0080715Y0018531D01*
X0080778Y0018532D01*
X0080840Y0018529D01*
X0080902Y0018522D01*
X0080964Y0018511D01*
X0081024Y0018496D01*
X0081084Y0018478D01*
X0081142Y0018456D01*
X0081199Y0018430D01*
X0081254Y0018400D01*
X0081307Y0018367D01*
X0081358Y0018331D01*
X0081406Y0018292D01*
X0081452Y0018249D01*
X0081495Y0018204D01*
X0081535Y0018156D01*
X0081572Y0018106D01*
X0081606Y0018053D01*
X0081637Y0017999D01*
X0081663Y0017943D01*
X0081687Y0017885D01*
X0081706Y0017825D01*
X0081722Y0017765D01*
X0081734Y0017703D01*
X0081742Y0017642D01*
X0081746Y0017579D01*
X0081746Y0017517D01*
X0081742Y0017454D01*
X0081734Y0017393D01*
X0081722Y0017331D01*
X0081706Y0017271D01*
X0081687Y0017211D01*
X0081663Y0017153D01*
X0081637Y0017097D01*
X0081606Y0017043D01*
X0081572Y0016990D01*
X0081535Y0016940D01*
X0081495Y0016892D01*
X0081452Y0016847D01*
X0081406Y0016804D01*
X0081358Y0016765D01*
X0081307Y0016729D01*
X0081254Y0016696D01*
X0081199Y0016666D01*
X0081142Y0016640D01*
X0081084Y0016618D01*
X0081024Y0016600D01*
X0080964Y0016585D01*
X0080902Y0016574D01*
X0080840Y0016567D01*
X0080778Y0016564D01*
X0080715Y0016565D01*
X0080653Y0016570D01*
X0080591Y0016579D01*
X0080530Y0016592D01*
X0080470Y0016608D01*
X0080411Y0016629D01*
X0080353Y0016653D01*
X0080297Y0016681D01*
X0080243Y0016712D01*
X0080191Y0016746D01*
X0080142Y0016784D01*
X0080094Y0016825D01*
X0080050Y0016869D01*
X0080008Y0016915D01*
X0079970Y0016965D01*
X0079934Y0017016D01*
X0079902Y0017070D01*
X0079874Y0017125D01*
X0079848Y0017182D01*
X0079827Y0017241D01*
X0079810Y0017301D01*
X0079796Y0017362D01*
X0079786Y0017423D01*
X0079780Y0017486D01*
X0079778Y0017548D01*
X0079778Y0021485D02*
X0079780Y0021547D01*
X0079786Y0021610D01*
X0079796Y0021671D01*
X0079810Y0021732D01*
X0079827Y0021792D01*
X0079848Y0021851D01*
X0079874Y0021908D01*
X0079902Y0021963D01*
X0079934Y0022017D01*
X0079970Y0022068D01*
X0080008Y0022118D01*
X0080050Y0022164D01*
X0080094Y0022208D01*
X0080142Y0022249D01*
X0080191Y0022287D01*
X0080243Y0022321D01*
X0080297Y0022352D01*
X0080353Y0022380D01*
X0080411Y0022404D01*
X0080470Y0022425D01*
X0080530Y0022441D01*
X0080591Y0022454D01*
X0080653Y0022463D01*
X0080715Y0022468D01*
X0080778Y0022469D01*
X0080840Y0022466D01*
X0080902Y0022459D01*
X0080964Y0022448D01*
X0081024Y0022433D01*
X0081084Y0022415D01*
X0081142Y0022393D01*
X0081199Y0022367D01*
X0081254Y0022337D01*
X0081307Y0022304D01*
X0081358Y0022268D01*
X0081406Y0022229D01*
X0081452Y0022186D01*
X0081495Y0022141D01*
X0081535Y0022093D01*
X0081572Y0022043D01*
X0081606Y0021990D01*
X0081637Y0021936D01*
X0081663Y0021880D01*
X0081687Y0021822D01*
X0081706Y0021762D01*
X0081722Y0021702D01*
X0081734Y0021640D01*
X0081742Y0021579D01*
X0081746Y0021516D01*
X0081746Y0021454D01*
X0081742Y0021391D01*
X0081734Y0021330D01*
X0081722Y0021268D01*
X0081706Y0021208D01*
X0081687Y0021148D01*
X0081663Y0021090D01*
X0081637Y0021034D01*
X0081606Y0020980D01*
X0081572Y0020927D01*
X0081535Y0020877D01*
X0081495Y0020829D01*
X0081452Y0020784D01*
X0081406Y0020741D01*
X0081358Y0020702D01*
X0081307Y0020666D01*
X0081254Y0020633D01*
X0081199Y0020603D01*
X0081142Y0020577D01*
X0081084Y0020555D01*
X0081024Y0020537D01*
X0080964Y0020522D01*
X0080902Y0020511D01*
X0080840Y0020504D01*
X0080778Y0020501D01*
X0080715Y0020502D01*
X0080653Y0020507D01*
X0080591Y0020516D01*
X0080530Y0020529D01*
X0080470Y0020545D01*
X0080411Y0020566D01*
X0080353Y0020590D01*
X0080297Y0020618D01*
X0080243Y0020649D01*
X0080191Y0020683D01*
X0080142Y0020721D01*
X0080094Y0020762D01*
X0080050Y0020806D01*
X0080008Y0020852D01*
X0079970Y0020902D01*
X0079934Y0020953D01*
X0079902Y0021007D01*
X0079874Y0021062D01*
X0079848Y0021119D01*
X0079827Y0021178D01*
X0079810Y0021238D01*
X0079796Y0021299D01*
X0079786Y0021360D01*
X0079780Y0021423D01*
X0079778Y0021485D01*
X0079778Y0025422D02*
X0079780Y0025484D01*
X0079786Y0025547D01*
X0079796Y0025608D01*
X0079810Y0025669D01*
X0079827Y0025729D01*
X0079848Y0025788D01*
X0079874Y0025845D01*
X0079902Y0025900D01*
X0079934Y0025954D01*
X0079970Y0026005D01*
X0080008Y0026055D01*
X0080050Y0026101D01*
X0080094Y0026145D01*
X0080142Y0026186D01*
X0080191Y0026224D01*
X0080243Y0026258D01*
X0080297Y0026289D01*
X0080353Y0026317D01*
X0080411Y0026341D01*
X0080470Y0026362D01*
X0080530Y0026378D01*
X0080591Y0026391D01*
X0080653Y0026400D01*
X0080715Y0026405D01*
X0080778Y0026406D01*
X0080840Y0026403D01*
X0080902Y0026396D01*
X0080964Y0026385D01*
X0081024Y0026370D01*
X0081084Y0026352D01*
X0081142Y0026330D01*
X0081199Y0026304D01*
X0081254Y0026274D01*
X0081307Y0026241D01*
X0081358Y0026205D01*
X0081406Y0026166D01*
X0081452Y0026123D01*
X0081495Y0026078D01*
X0081535Y0026030D01*
X0081572Y0025980D01*
X0081606Y0025927D01*
X0081637Y0025873D01*
X0081663Y0025817D01*
X0081687Y0025759D01*
X0081706Y0025699D01*
X0081722Y0025639D01*
X0081734Y0025577D01*
X0081742Y0025516D01*
X0081746Y0025453D01*
X0081746Y0025391D01*
X0081742Y0025328D01*
X0081734Y0025267D01*
X0081722Y0025205D01*
X0081706Y0025145D01*
X0081687Y0025085D01*
X0081663Y0025027D01*
X0081637Y0024971D01*
X0081606Y0024917D01*
X0081572Y0024864D01*
X0081535Y0024814D01*
X0081495Y0024766D01*
X0081452Y0024721D01*
X0081406Y0024678D01*
X0081358Y0024639D01*
X0081307Y0024603D01*
X0081254Y0024570D01*
X0081199Y0024540D01*
X0081142Y0024514D01*
X0081084Y0024492D01*
X0081024Y0024474D01*
X0080964Y0024459D01*
X0080902Y0024448D01*
X0080840Y0024441D01*
X0080778Y0024438D01*
X0080715Y0024439D01*
X0080653Y0024444D01*
X0080591Y0024453D01*
X0080530Y0024466D01*
X0080470Y0024482D01*
X0080411Y0024503D01*
X0080353Y0024527D01*
X0080297Y0024555D01*
X0080243Y0024586D01*
X0080191Y0024620D01*
X0080142Y0024658D01*
X0080094Y0024699D01*
X0080050Y0024743D01*
X0080008Y0024789D01*
X0079970Y0024839D01*
X0079934Y0024890D01*
X0079902Y0024944D01*
X0079874Y0024999D01*
X0079848Y0025056D01*
X0079827Y0025115D01*
X0079810Y0025175D01*
X0079796Y0025236D01*
X0079786Y0025297D01*
X0079780Y0025360D01*
X0079778Y0025422D01*
X0083715Y0025422D02*
X0083717Y0025484D01*
X0083723Y0025547D01*
X0083733Y0025608D01*
X0083747Y0025669D01*
X0083764Y0025729D01*
X0083785Y0025788D01*
X0083811Y0025845D01*
X0083839Y0025900D01*
X0083871Y0025954D01*
X0083907Y0026005D01*
X0083945Y0026055D01*
X0083987Y0026101D01*
X0084031Y0026145D01*
X0084079Y0026186D01*
X0084128Y0026224D01*
X0084180Y0026258D01*
X0084234Y0026289D01*
X0084290Y0026317D01*
X0084348Y0026341D01*
X0084407Y0026362D01*
X0084467Y0026378D01*
X0084528Y0026391D01*
X0084590Y0026400D01*
X0084652Y0026405D01*
X0084715Y0026406D01*
X0084777Y0026403D01*
X0084839Y0026396D01*
X0084901Y0026385D01*
X0084961Y0026370D01*
X0085021Y0026352D01*
X0085079Y0026330D01*
X0085136Y0026304D01*
X0085191Y0026274D01*
X0085244Y0026241D01*
X0085295Y0026205D01*
X0085343Y0026166D01*
X0085389Y0026123D01*
X0085432Y0026078D01*
X0085472Y0026030D01*
X0085509Y0025980D01*
X0085543Y0025927D01*
X0085574Y0025873D01*
X0085600Y0025817D01*
X0085624Y0025759D01*
X0085643Y0025699D01*
X0085659Y0025639D01*
X0085671Y0025577D01*
X0085679Y0025516D01*
X0085683Y0025453D01*
X0085683Y0025391D01*
X0085679Y0025328D01*
X0085671Y0025267D01*
X0085659Y0025205D01*
X0085643Y0025145D01*
X0085624Y0025085D01*
X0085600Y0025027D01*
X0085574Y0024971D01*
X0085543Y0024917D01*
X0085509Y0024864D01*
X0085472Y0024814D01*
X0085432Y0024766D01*
X0085389Y0024721D01*
X0085343Y0024678D01*
X0085295Y0024639D01*
X0085244Y0024603D01*
X0085191Y0024570D01*
X0085136Y0024540D01*
X0085079Y0024514D01*
X0085021Y0024492D01*
X0084961Y0024474D01*
X0084901Y0024459D01*
X0084839Y0024448D01*
X0084777Y0024441D01*
X0084715Y0024438D01*
X0084652Y0024439D01*
X0084590Y0024444D01*
X0084528Y0024453D01*
X0084467Y0024466D01*
X0084407Y0024482D01*
X0084348Y0024503D01*
X0084290Y0024527D01*
X0084234Y0024555D01*
X0084180Y0024586D01*
X0084128Y0024620D01*
X0084079Y0024658D01*
X0084031Y0024699D01*
X0083987Y0024743D01*
X0083945Y0024789D01*
X0083907Y0024839D01*
X0083871Y0024890D01*
X0083839Y0024944D01*
X0083811Y0024999D01*
X0083785Y0025056D01*
X0083764Y0025115D01*
X0083747Y0025175D01*
X0083733Y0025236D01*
X0083723Y0025297D01*
X0083717Y0025360D01*
X0083715Y0025422D01*
X0083715Y0021485D02*
X0083717Y0021547D01*
X0083723Y0021610D01*
X0083733Y0021671D01*
X0083747Y0021732D01*
X0083764Y0021792D01*
X0083785Y0021851D01*
X0083811Y0021908D01*
X0083839Y0021963D01*
X0083871Y0022017D01*
X0083907Y0022068D01*
X0083945Y0022118D01*
X0083987Y0022164D01*
X0084031Y0022208D01*
X0084079Y0022249D01*
X0084128Y0022287D01*
X0084180Y0022321D01*
X0084234Y0022352D01*
X0084290Y0022380D01*
X0084348Y0022404D01*
X0084407Y0022425D01*
X0084467Y0022441D01*
X0084528Y0022454D01*
X0084590Y0022463D01*
X0084652Y0022468D01*
X0084715Y0022469D01*
X0084777Y0022466D01*
X0084839Y0022459D01*
X0084901Y0022448D01*
X0084961Y0022433D01*
X0085021Y0022415D01*
X0085079Y0022393D01*
X0085136Y0022367D01*
X0085191Y0022337D01*
X0085244Y0022304D01*
X0085295Y0022268D01*
X0085343Y0022229D01*
X0085389Y0022186D01*
X0085432Y0022141D01*
X0085472Y0022093D01*
X0085509Y0022043D01*
X0085543Y0021990D01*
X0085574Y0021936D01*
X0085600Y0021880D01*
X0085624Y0021822D01*
X0085643Y0021762D01*
X0085659Y0021702D01*
X0085671Y0021640D01*
X0085679Y0021579D01*
X0085683Y0021516D01*
X0085683Y0021454D01*
X0085679Y0021391D01*
X0085671Y0021330D01*
X0085659Y0021268D01*
X0085643Y0021208D01*
X0085624Y0021148D01*
X0085600Y0021090D01*
X0085574Y0021034D01*
X0085543Y0020980D01*
X0085509Y0020927D01*
X0085472Y0020877D01*
X0085432Y0020829D01*
X0085389Y0020784D01*
X0085343Y0020741D01*
X0085295Y0020702D01*
X0085244Y0020666D01*
X0085191Y0020633D01*
X0085136Y0020603D01*
X0085079Y0020577D01*
X0085021Y0020555D01*
X0084961Y0020537D01*
X0084901Y0020522D01*
X0084839Y0020511D01*
X0084777Y0020504D01*
X0084715Y0020501D01*
X0084652Y0020502D01*
X0084590Y0020507D01*
X0084528Y0020516D01*
X0084467Y0020529D01*
X0084407Y0020545D01*
X0084348Y0020566D01*
X0084290Y0020590D01*
X0084234Y0020618D01*
X0084180Y0020649D01*
X0084128Y0020683D01*
X0084079Y0020721D01*
X0084031Y0020762D01*
X0083987Y0020806D01*
X0083945Y0020852D01*
X0083907Y0020902D01*
X0083871Y0020953D01*
X0083839Y0021007D01*
X0083811Y0021062D01*
X0083785Y0021119D01*
X0083764Y0021178D01*
X0083747Y0021238D01*
X0083733Y0021299D01*
X0083723Y0021360D01*
X0083717Y0021423D01*
X0083715Y0021485D01*
X0083715Y0017548D02*
X0083717Y0017610D01*
X0083723Y0017673D01*
X0083733Y0017734D01*
X0083747Y0017795D01*
X0083764Y0017855D01*
X0083785Y0017914D01*
X0083811Y0017971D01*
X0083839Y0018026D01*
X0083871Y0018080D01*
X0083907Y0018131D01*
X0083945Y0018181D01*
X0083987Y0018227D01*
X0084031Y0018271D01*
X0084079Y0018312D01*
X0084128Y0018350D01*
X0084180Y0018384D01*
X0084234Y0018415D01*
X0084290Y0018443D01*
X0084348Y0018467D01*
X0084407Y0018488D01*
X0084467Y0018504D01*
X0084528Y0018517D01*
X0084590Y0018526D01*
X0084652Y0018531D01*
X0084715Y0018532D01*
X0084777Y0018529D01*
X0084839Y0018522D01*
X0084901Y0018511D01*
X0084961Y0018496D01*
X0085021Y0018478D01*
X0085079Y0018456D01*
X0085136Y0018430D01*
X0085191Y0018400D01*
X0085244Y0018367D01*
X0085295Y0018331D01*
X0085343Y0018292D01*
X0085389Y0018249D01*
X0085432Y0018204D01*
X0085472Y0018156D01*
X0085509Y0018106D01*
X0085543Y0018053D01*
X0085574Y0017999D01*
X0085600Y0017943D01*
X0085624Y0017885D01*
X0085643Y0017825D01*
X0085659Y0017765D01*
X0085671Y0017703D01*
X0085679Y0017642D01*
X0085683Y0017579D01*
X0085683Y0017517D01*
X0085679Y0017454D01*
X0085671Y0017393D01*
X0085659Y0017331D01*
X0085643Y0017271D01*
X0085624Y0017211D01*
X0085600Y0017153D01*
X0085574Y0017097D01*
X0085543Y0017043D01*
X0085509Y0016990D01*
X0085472Y0016940D01*
X0085432Y0016892D01*
X0085389Y0016847D01*
X0085343Y0016804D01*
X0085295Y0016765D01*
X0085244Y0016729D01*
X0085191Y0016696D01*
X0085136Y0016666D01*
X0085079Y0016640D01*
X0085021Y0016618D01*
X0084961Y0016600D01*
X0084901Y0016585D01*
X0084839Y0016574D01*
X0084777Y0016567D01*
X0084715Y0016564D01*
X0084652Y0016565D01*
X0084590Y0016570D01*
X0084528Y0016579D01*
X0084467Y0016592D01*
X0084407Y0016608D01*
X0084348Y0016629D01*
X0084290Y0016653D01*
X0084234Y0016681D01*
X0084180Y0016712D01*
X0084128Y0016746D01*
X0084079Y0016784D01*
X0084031Y0016825D01*
X0083987Y0016869D01*
X0083945Y0016915D01*
X0083907Y0016965D01*
X0083871Y0017016D01*
X0083839Y0017070D01*
X0083811Y0017125D01*
X0083785Y0017182D01*
X0083764Y0017241D01*
X0083747Y0017301D01*
X0083733Y0017362D01*
X0083723Y0017423D01*
X0083717Y0017486D01*
X0083715Y0017548D01*
X0280566Y0017548D02*
X0280568Y0017610D01*
X0280574Y0017673D01*
X0280584Y0017734D01*
X0280598Y0017795D01*
X0280615Y0017855D01*
X0280636Y0017914D01*
X0280662Y0017971D01*
X0280690Y0018026D01*
X0280722Y0018080D01*
X0280758Y0018131D01*
X0280796Y0018181D01*
X0280838Y0018227D01*
X0280882Y0018271D01*
X0280930Y0018312D01*
X0280979Y0018350D01*
X0281031Y0018384D01*
X0281085Y0018415D01*
X0281141Y0018443D01*
X0281199Y0018467D01*
X0281258Y0018488D01*
X0281318Y0018504D01*
X0281379Y0018517D01*
X0281441Y0018526D01*
X0281503Y0018531D01*
X0281566Y0018532D01*
X0281628Y0018529D01*
X0281690Y0018522D01*
X0281752Y0018511D01*
X0281812Y0018496D01*
X0281872Y0018478D01*
X0281930Y0018456D01*
X0281987Y0018430D01*
X0282042Y0018400D01*
X0282095Y0018367D01*
X0282146Y0018331D01*
X0282194Y0018292D01*
X0282240Y0018249D01*
X0282283Y0018204D01*
X0282323Y0018156D01*
X0282360Y0018106D01*
X0282394Y0018053D01*
X0282425Y0017999D01*
X0282451Y0017943D01*
X0282475Y0017885D01*
X0282494Y0017825D01*
X0282510Y0017765D01*
X0282522Y0017703D01*
X0282530Y0017642D01*
X0282534Y0017579D01*
X0282534Y0017517D01*
X0282530Y0017454D01*
X0282522Y0017393D01*
X0282510Y0017331D01*
X0282494Y0017271D01*
X0282475Y0017211D01*
X0282451Y0017153D01*
X0282425Y0017097D01*
X0282394Y0017043D01*
X0282360Y0016990D01*
X0282323Y0016940D01*
X0282283Y0016892D01*
X0282240Y0016847D01*
X0282194Y0016804D01*
X0282146Y0016765D01*
X0282095Y0016729D01*
X0282042Y0016696D01*
X0281987Y0016666D01*
X0281930Y0016640D01*
X0281872Y0016618D01*
X0281812Y0016600D01*
X0281752Y0016585D01*
X0281690Y0016574D01*
X0281628Y0016567D01*
X0281566Y0016564D01*
X0281503Y0016565D01*
X0281441Y0016570D01*
X0281379Y0016579D01*
X0281318Y0016592D01*
X0281258Y0016608D01*
X0281199Y0016629D01*
X0281141Y0016653D01*
X0281085Y0016681D01*
X0281031Y0016712D01*
X0280979Y0016746D01*
X0280930Y0016784D01*
X0280882Y0016825D01*
X0280838Y0016869D01*
X0280796Y0016915D01*
X0280758Y0016965D01*
X0280722Y0017016D01*
X0280690Y0017070D01*
X0280662Y0017125D01*
X0280636Y0017182D01*
X0280615Y0017241D01*
X0280598Y0017301D01*
X0280584Y0017362D01*
X0280574Y0017423D01*
X0280568Y0017486D01*
X0280566Y0017548D01*
X0280566Y0021485D02*
X0280568Y0021547D01*
X0280574Y0021610D01*
X0280584Y0021671D01*
X0280598Y0021732D01*
X0280615Y0021792D01*
X0280636Y0021851D01*
X0280662Y0021908D01*
X0280690Y0021963D01*
X0280722Y0022017D01*
X0280758Y0022068D01*
X0280796Y0022118D01*
X0280838Y0022164D01*
X0280882Y0022208D01*
X0280930Y0022249D01*
X0280979Y0022287D01*
X0281031Y0022321D01*
X0281085Y0022352D01*
X0281141Y0022380D01*
X0281199Y0022404D01*
X0281258Y0022425D01*
X0281318Y0022441D01*
X0281379Y0022454D01*
X0281441Y0022463D01*
X0281503Y0022468D01*
X0281566Y0022469D01*
X0281628Y0022466D01*
X0281690Y0022459D01*
X0281752Y0022448D01*
X0281812Y0022433D01*
X0281872Y0022415D01*
X0281930Y0022393D01*
X0281987Y0022367D01*
X0282042Y0022337D01*
X0282095Y0022304D01*
X0282146Y0022268D01*
X0282194Y0022229D01*
X0282240Y0022186D01*
X0282283Y0022141D01*
X0282323Y0022093D01*
X0282360Y0022043D01*
X0282394Y0021990D01*
X0282425Y0021936D01*
X0282451Y0021880D01*
X0282475Y0021822D01*
X0282494Y0021762D01*
X0282510Y0021702D01*
X0282522Y0021640D01*
X0282530Y0021579D01*
X0282534Y0021516D01*
X0282534Y0021454D01*
X0282530Y0021391D01*
X0282522Y0021330D01*
X0282510Y0021268D01*
X0282494Y0021208D01*
X0282475Y0021148D01*
X0282451Y0021090D01*
X0282425Y0021034D01*
X0282394Y0020980D01*
X0282360Y0020927D01*
X0282323Y0020877D01*
X0282283Y0020829D01*
X0282240Y0020784D01*
X0282194Y0020741D01*
X0282146Y0020702D01*
X0282095Y0020666D01*
X0282042Y0020633D01*
X0281987Y0020603D01*
X0281930Y0020577D01*
X0281872Y0020555D01*
X0281812Y0020537D01*
X0281752Y0020522D01*
X0281690Y0020511D01*
X0281628Y0020504D01*
X0281566Y0020501D01*
X0281503Y0020502D01*
X0281441Y0020507D01*
X0281379Y0020516D01*
X0281318Y0020529D01*
X0281258Y0020545D01*
X0281199Y0020566D01*
X0281141Y0020590D01*
X0281085Y0020618D01*
X0281031Y0020649D01*
X0280979Y0020683D01*
X0280930Y0020721D01*
X0280882Y0020762D01*
X0280838Y0020806D01*
X0280796Y0020852D01*
X0280758Y0020902D01*
X0280722Y0020953D01*
X0280690Y0021007D01*
X0280662Y0021062D01*
X0280636Y0021119D01*
X0280615Y0021178D01*
X0280598Y0021238D01*
X0280584Y0021299D01*
X0280574Y0021360D01*
X0280568Y0021423D01*
X0280566Y0021485D01*
X0280566Y0025422D02*
X0280568Y0025484D01*
X0280574Y0025547D01*
X0280584Y0025608D01*
X0280598Y0025669D01*
X0280615Y0025729D01*
X0280636Y0025788D01*
X0280662Y0025845D01*
X0280690Y0025900D01*
X0280722Y0025954D01*
X0280758Y0026005D01*
X0280796Y0026055D01*
X0280838Y0026101D01*
X0280882Y0026145D01*
X0280930Y0026186D01*
X0280979Y0026224D01*
X0281031Y0026258D01*
X0281085Y0026289D01*
X0281141Y0026317D01*
X0281199Y0026341D01*
X0281258Y0026362D01*
X0281318Y0026378D01*
X0281379Y0026391D01*
X0281441Y0026400D01*
X0281503Y0026405D01*
X0281566Y0026406D01*
X0281628Y0026403D01*
X0281690Y0026396D01*
X0281752Y0026385D01*
X0281812Y0026370D01*
X0281872Y0026352D01*
X0281930Y0026330D01*
X0281987Y0026304D01*
X0282042Y0026274D01*
X0282095Y0026241D01*
X0282146Y0026205D01*
X0282194Y0026166D01*
X0282240Y0026123D01*
X0282283Y0026078D01*
X0282323Y0026030D01*
X0282360Y0025980D01*
X0282394Y0025927D01*
X0282425Y0025873D01*
X0282451Y0025817D01*
X0282475Y0025759D01*
X0282494Y0025699D01*
X0282510Y0025639D01*
X0282522Y0025577D01*
X0282530Y0025516D01*
X0282534Y0025453D01*
X0282534Y0025391D01*
X0282530Y0025328D01*
X0282522Y0025267D01*
X0282510Y0025205D01*
X0282494Y0025145D01*
X0282475Y0025085D01*
X0282451Y0025027D01*
X0282425Y0024971D01*
X0282394Y0024917D01*
X0282360Y0024864D01*
X0282323Y0024814D01*
X0282283Y0024766D01*
X0282240Y0024721D01*
X0282194Y0024678D01*
X0282146Y0024639D01*
X0282095Y0024603D01*
X0282042Y0024570D01*
X0281987Y0024540D01*
X0281930Y0024514D01*
X0281872Y0024492D01*
X0281812Y0024474D01*
X0281752Y0024459D01*
X0281690Y0024448D01*
X0281628Y0024441D01*
X0281566Y0024438D01*
X0281503Y0024439D01*
X0281441Y0024444D01*
X0281379Y0024453D01*
X0281318Y0024466D01*
X0281258Y0024482D01*
X0281199Y0024503D01*
X0281141Y0024527D01*
X0281085Y0024555D01*
X0281031Y0024586D01*
X0280979Y0024620D01*
X0280930Y0024658D01*
X0280882Y0024699D01*
X0280838Y0024743D01*
X0280796Y0024789D01*
X0280758Y0024839D01*
X0280722Y0024890D01*
X0280690Y0024944D01*
X0280662Y0024999D01*
X0280636Y0025056D01*
X0280615Y0025115D01*
X0280598Y0025175D01*
X0280584Y0025236D01*
X0280574Y0025297D01*
X0280568Y0025360D01*
X0280566Y0025422D01*
X0284503Y0025422D02*
X0284505Y0025484D01*
X0284511Y0025547D01*
X0284521Y0025608D01*
X0284535Y0025669D01*
X0284552Y0025729D01*
X0284573Y0025788D01*
X0284599Y0025845D01*
X0284627Y0025900D01*
X0284659Y0025954D01*
X0284695Y0026005D01*
X0284733Y0026055D01*
X0284775Y0026101D01*
X0284819Y0026145D01*
X0284867Y0026186D01*
X0284916Y0026224D01*
X0284968Y0026258D01*
X0285022Y0026289D01*
X0285078Y0026317D01*
X0285136Y0026341D01*
X0285195Y0026362D01*
X0285255Y0026378D01*
X0285316Y0026391D01*
X0285378Y0026400D01*
X0285440Y0026405D01*
X0285503Y0026406D01*
X0285565Y0026403D01*
X0285627Y0026396D01*
X0285689Y0026385D01*
X0285749Y0026370D01*
X0285809Y0026352D01*
X0285867Y0026330D01*
X0285924Y0026304D01*
X0285979Y0026274D01*
X0286032Y0026241D01*
X0286083Y0026205D01*
X0286131Y0026166D01*
X0286177Y0026123D01*
X0286220Y0026078D01*
X0286260Y0026030D01*
X0286297Y0025980D01*
X0286331Y0025927D01*
X0286362Y0025873D01*
X0286388Y0025817D01*
X0286412Y0025759D01*
X0286431Y0025699D01*
X0286447Y0025639D01*
X0286459Y0025577D01*
X0286467Y0025516D01*
X0286471Y0025453D01*
X0286471Y0025391D01*
X0286467Y0025328D01*
X0286459Y0025267D01*
X0286447Y0025205D01*
X0286431Y0025145D01*
X0286412Y0025085D01*
X0286388Y0025027D01*
X0286362Y0024971D01*
X0286331Y0024917D01*
X0286297Y0024864D01*
X0286260Y0024814D01*
X0286220Y0024766D01*
X0286177Y0024721D01*
X0286131Y0024678D01*
X0286083Y0024639D01*
X0286032Y0024603D01*
X0285979Y0024570D01*
X0285924Y0024540D01*
X0285867Y0024514D01*
X0285809Y0024492D01*
X0285749Y0024474D01*
X0285689Y0024459D01*
X0285627Y0024448D01*
X0285565Y0024441D01*
X0285503Y0024438D01*
X0285440Y0024439D01*
X0285378Y0024444D01*
X0285316Y0024453D01*
X0285255Y0024466D01*
X0285195Y0024482D01*
X0285136Y0024503D01*
X0285078Y0024527D01*
X0285022Y0024555D01*
X0284968Y0024586D01*
X0284916Y0024620D01*
X0284867Y0024658D01*
X0284819Y0024699D01*
X0284775Y0024743D01*
X0284733Y0024789D01*
X0284695Y0024839D01*
X0284659Y0024890D01*
X0284627Y0024944D01*
X0284599Y0024999D01*
X0284573Y0025056D01*
X0284552Y0025115D01*
X0284535Y0025175D01*
X0284521Y0025236D01*
X0284511Y0025297D01*
X0284505Y0025360D01*
X0284503Y0025422D01*
X0284503Y0021485D02*
X0284505Y0021547D01*
X0284511Y0021610D01*
X0284521Y0021671D01*
X0284535Y0021732D01*
X0284552Y0021792D01*
X0284573Y0021851D01*
X0284599Y0021908D01*
X0284627Y0021963D01*
X0284659Y0022017D01*
X0284695Y0022068D01*
X0284733Y0022118D01*
X0284775Y0022164D01*
X0284819Y0022208D01*
X0284867Y0022249D01*
X0284916Y0022287D01*
X0284968Y0022321D01*
X0285022Y0022352D01*
X0285078Y0022380D01*
X0285136Y0022404D01*
X0285195Y0022425D01*
X0285255Y0022441D01*
X0285316Y0022454D01*
X0285378Y0022463D01*
X0285440Y0022468D01*
X0285503Y0022469D01*
X0285565Y0022466D01*
X0285627Y0022459D01*
X0285689Y0022448D01*
X0285749Y0022433D01*
X0285809Y0022415D01*
X0285867Y0022393D01*
X0285924Y0022367D01*
X0285979Y0022337D01*
X0286032Y0022304D01*
X0286083Y0022268D01*
X0286131Y0022229D01*
X0286177Y0022186D01*
X0286220Y0022141D01*
X0286260Y0022093D01*
X0286297Y0022043D01*
X0286331Y0021990D01*
X0286362Y0021936D01*
X0286388Y0021880D01*
X0286412Y0021822D01*
X0286431Y0021762D01*
X0286447Y0021702D01*
X0286459Y0021640D01*
X0286467Y0021579D01*
X0286471Y0021516D01*
X0286471Y0021454D01*
X0286467Y0021391D01*
X0286459Y0021330D01*
X0286447Y0021268D01*
X0286431Y0021208D01*
X0286412Y0021148D01*
X0286388Y0021090D01*
X0286362Y0021034D01*
X0286331Y0020980D01*
X0286297Y0020927D01*
X0286260Y0020877D01*
X0286220Y0020829D01*
X0286177Y0020784D01*
X0286131Y0020741D01*
X0286083Y0020702D01*
X0286032Y0020666D01*
X0285979Y0020633D01*
X0285924Y0020603D01*
X0285867Y0020577D01*
X0285809Y0020555D01*
X0285749Y0020537D01*
X0285689Y0020522D01*
X0285627Y0020511D01*
X0285565Y0020504D01*
X0285503Y0020501D01*
X0285440Y0020502D01*
X0285378Y0020507D01*
X0285316Y0020516D01*
X0285255Y0020529D01*
X0285195Y0020545D01*
X0285136Y0020566D01*
X0285078Y0020590D01*
X0285022Y0020618D01*
X0284968Y0020649D01*
X0284916Y0020683D01*
X0284867Y0020721D01*
X0284819Y0020762D01*
X0284775Y0020806D01*
X0284733Y0020852D01*
X0284695Y0020902D01*
X0284659Y0020953D01*
X0284627Y0021007D01*
X0284599Y0021062D01*
X0284573Y0021119D01*
X0284552Y0021178D01*
X0284535Y0021238D01*
X0284521Y0021299D01*
X0284511Y0021360D01*
X0284505Y0021423D01*
X0284503Y0021485D01*
X0284503Y0017548D02*
X0284505Y0017610D01*
X0284511Y0017673D01*
X0284521Y0017734D01*
X0284535Y0017795D01*
X0284552Y0017855D01*
X0284573Y0017914D01*
X0284599Y0017971D01*
X0284627Y0018026D01*
X0284659Y0018080D01*
X0284695Y0018131D01*
X0284733Y0018181D01*
X0284775Y0018227D01*
X0284819Y0018271D01*
X0284867Y0018312D01*
X0284916Y0018350D01*
X0284968Y0018384D01*
X0285022Y0018415D01*
X0285078Y0018443D01*
X0285136Y0018467D01*
X0285195Y0018488D01*
X0285255Y0018504D01*
X0285316Y0018517D01*
X0285378Y0018526D01*
X0285440Y0018531D01*
X0285503Y0018532D01*
X0285565Y0018529D01*
X0285627Y0018522D01*
X0285689Y0018511D01*
X0285749Y0018496D01*
X0285809Y0018478D01*
X0285867Y0018456D01*
X0285924Y0018430D01*
X0285979Y0018400D01*
X0286032Y0018367D01*
X0286083Y0018331D01*
X0286131Y0018292D01*
X0286177Y0018249D01*
X0286220Y0018204D01*
X0286260Y0018156D01*
X0286297Y0018106D01*
X0286331Y0018053D01*
X0286362Y0017999D01*
X0286388Y0017943D01*
X0286412Y0017885D01*
X0286431Y0017825D01*
X0286447Y0017765D01*
X0286459Y0017703D01*
X0286467Y0017642D01*
X0286471Y0017579D01*
X0286471Y0017517D01*
X0286467Y0017454D01*
X0286459Y0017393D01*
X0286447Y0017331D01*
X0286431Y0017271D01*
X0286412Y0017211D01*
X0286388Y0017153D01*
X0286362Y0017097D01*
X0286331Y0017043D01*
X0286297Y0016990D01*
X0286260Y0016940D01*
X0286220Y0016892D01*
X0286177Y0016847D01*
X0286131Y0016804D01*
X0286083Y0016765D01*
X0286032Y0016729D01*
X0285979Y0016696D01*
X0285924Y0016666D01*
X0285867Y0016640D01*
X0285809Y0016618D01*
X0285749Y0016600D01*
X0285689Y0016585D01*
X0285627Y0016574D01*
X0285565Y0016567D01*
X0285503Y0016564D01*
X0285440Y0016565D01*
X0285378Y0016570D01*
X0285316Y0016579D01*
X0285255Y0016592D01*
X0285195Y0016608D01*
X0285136Y0016629D01*
X0285078Y0016653D01*
X0285022Y0016681D01*
X0284968Y0016712D01*
X0284916Y0016746D01*
X0284867Y0016784D01*
X0284819Y0016825D01*
X0284775Y0016869D01*
X0284733Y0016915D01*
X0284695Y0016965D01*
X0284659Y0017016D01*
X0284627Y0017070D01*
X0284599Y0017125D01*
X0284573Y0017182D01*
X0284552Y0017241D01*
X0284535Y0017301D01*
X0284521Y0017362D01*
X0284511Y0017423D01*
X0284505Y0017486D01*
X0284503Y0017548D01*
X0288440Y0017548D02*
X0288442Y0017610D01*
X0288448Y0017673D01*
X0288458Y0017734D01*
X0288472Y0017795D01*
X0288489Y0017855D01*
X0288510Y0017914D01*
X0288536Y0017971D01*
X0288564Y0018026D01*
X0288596Y0018080D01*
X0288632Y0018131D01*
X0288670Y0018181D01*
X0288712Y0018227D01*
X0288756Y0018271D01*
X0288804Y0018312D01*
X0288853Y0018350D01*
X0288905Y0018384D01*
X0288959Y0018415D01*
X0289015Y0018443D01*
X0289073Y0018467D01*
X0289132Y0018488D01*
X0289192Y0018504D01*
X0289253Y0018517D01*
X0289315Y0018526D01*
X0289377Y0018531D01*
X0289440Y0018532D01*
X0289502Y0018529D01*
X0289564Y0018522D01*
X0289626Y0018511D01*
X0289686Y0018496D01*
X0289746Y0018478D01*
X0289804Y0018456D01*
X0289861Y0018430D01*
X0289916Y0018400D01*
X0289969Y0018367D01*
X0290020Y0018331D01*
X0290068Y0018292D01*
X0290114Y0018249D01*
X0290157Y0018204D01*
X0290197Y0018156D01*
X0290234Y0018106D01*
X0290268Y0018053D01*
X0290299Y0017999D01*
X0290325Y0017943D01*
X0290349Y0017885D01*
X0290368Y0017825D01*
X0290384Y0017765D01*
X0290396Y0017703D01*
X0290404Y0017642D01*
X0290408Y0017579D01*
X0290408Y0017517D01*
X0290404Y0017454D01*
X0290396Y0017393D01*
X0290384Y0017331D01*
X0290368Y0017271D01*
X0290349Y0017211D01*
X0290325Y0017153D01*
X0290299Y0017097D01*
X0290268Y0017043D01*
X0290234Y0016990D01*
X0290197Y0016940D01*
X0290157Y0016892D01*
X0290114Y0016847D01*
X0290068Y0016804D01*
X0290020Y0016765D01*
X0289969Y0016729D01*
X0289916Y0016696D01*
X0289861Y0016666D01*
X0289804Y0016640D01*
X0289746Y0016618D01*
X0289686Y0016600D01*
X0289626Y0016585D01*
X0289564Y0016574D01*
X0289502Y0016567D01*
X0289440Y0016564D01*
X0289377Y0016565D01*
X0289315Y0016570D01*
X0289253Y0016579D01*
X0289192Y0016592D01*
X0289132Y0016608D01*
X0289073Y0016629D01*
X0289015Y0016653D01*
X0288959Y0016681D01*
X0288905Y0016712D01*
X0288853Y0016746D01*
X0288804Y0016784D01*
X0288756Y0016825D01*
X0288712Y0016869D01*
X0288670Y0016915D01*
X0288632Y0016965D01*
X0288596Y0017016D01*
X0288564Y0017070D01*
X0288536Y0017125D01*
X0288510Y0017182D01*
X0288489Y0017241D01*
X0288472Y0017301D01*
X0288458Y0017362D01*
X0288448Y0017423D01*
X0288442Y0017486D01*
X0288440Y0017548D01*
X0288440Y0021485D02*
X0288442Y0021547D01*
X0288448Y0021610D01*
X0288458Y0021671D01*
X0288472Y0021732D01*
X0288489Y0021792D01*
X0288510Y0021851D01*
X0288536Y0021908D01*
X0288564Y0021963D01*
X0288596Y0022017D01*
X0288632Y0022068D01*
X0288670Y0022118D01*
X0288712Y0022164D01*
X0288756Y0022208D01*
X0288804Y0022249D01*
X0288853Y0022287D01*
X0288905Y0022321D01*
X0288959Y0022352D01*
X0289015Y0022380D01*
X0289073Y0022404D01*
X0289132Y0022425D01*
X0289192Y0022441D01*
X0289253Y0022454D01*
X0289315Y0022463D01*
X0289377Y0022468D01*
X0289440Y0022469D01*
X0289502Y0022466D01*
X0289564Y0022459D01*
X0289626Y0022448D01*
X0289686Y0022433D01*
X0289746Y0022415D01*
X0289804Y0022393D01*
X0289861Y0022367D01*
X0289916Y0022337D01*
X0289969Y0022304D01*
X0290020Y0022268D01*
X0290068Y0022229D01*
X0290114Y0022186D01*
X0290157Y0022141D01*
X0290197Y0022093D01*
X0290234Y0022043D01*
X0290268Y0021990D01*
X0290299Y0021936D01*
X0290325Y0021880D01*
X0290349Y0021822D01*
X0290368Y0021762D01*
X0290384Y0021702D01*
X0290396Y0021640D01*
X0290404Y0021579D01*
X0290408Y0021516D01*
X0290408Y0021454D01*
X0290404Y0021391D01*
X0290396Y0021330D01*
X0290384Y0021268D01*
X0290368Y0021208D01*
X0290349Y0021148D01*
X0290325Y0021090D01*
X0290299Y0021034D01*
X0290268Y0020980D01*
X0290234Y0020927D01*
X0290197Y0020877D01*
X0290157Y0020829D01*
X0290114Y0020784D01*
X0290068Y0020741D01*
X0290020Y0020702D01*
X0289969Y0020666D01*
X0289916Y0020633D01*
X0289861Y0020603D01*
X0289804Y0020577D01*
X0289746Y0020555D01*
X0289686Y0020537D01*
X0289626Y0020522D01*
X0289564Y0020511D01*
X0289502Y0020504D01*
X0289440Y0020501D01*
X0289377Y0020502D01*
X0289315Y0020507D01*
X0289253Y0020516D01*
X0289192Y0020529D01*
X0289132Y0020545D01*
X0289073Y0020566D01*
X0289015Y0020590D01*
X0288959Y0020618D01*
X0288905Y0020649D01*
X0288853Y0020683D01*
X0288804Y0020721D01*
X0288756Y0020762D01*
X0288712Y0020806D01*
X0288670Y0020852D01*
X0288632Y0020902D01*
X0288596Y0020953D01*
X0288564Y0021007D01*
X0288536Y0021062D01*
X0288510Y0021119D01*
X0288489Y0021178D01*
X0288472Y0021238D01*
X0288458Y0021299D01*
X0288448Y0021360D01*
X0288442Y0021423D01*
X0288440Y0021485D01*
X0288440Y0025422D02*
X0288442Y0025484D01*
X0288448Y0025547D01*
X0288458Y0025608D01*
X0288472Y0025669D01*
X0288489Y0025729D01*
X0288510Y0025788D01*
X0288536Y0025845D01*
X0288564Y0025900D01*
X0288596Y0025954D01*
X0288632Y0026005D01*
X0288670Y0026055D01*
X0288712Y0026101D01*
X0288756Y0026145D01*
X0288804Y0026186D01*
X0288853Y0026224D01*
X0288905Y0026258D01*
X0288959Y0026289D01*
X0289015Y0026317D01*
X0289073Y0026341D01*
X0289132Y0026362D01*
X0289192Y0026378D01*
X0289253Y0026391D01*
X0289315Y0026400D01*
X0289377Y0026405D01*
X0289440Y0026406D01*
X0289502Y0026403D01*
X0289564Y0026396D01*
X0289626Y0026385D01*
X0289686Y0026370D01*
X0289746Y0026352D01*
X0289804Y0026330D01*
X0289861Y0026304D01*
X0289916Y0026274D01*
X0289969Y0026241D01*
X0290020Y0026205D01*
X0290068Y0026166D01*
X0290114Y0026123D01*
X0290157Y0026078D01*
X0290197Y0026030D01*
X0290234Y0025980D01*
X0290268Y0025927D01*
X0290299Y0025873D01*
X0290325Y0025817D01*
X0290349Y0025759D01*
X0290368Y0025699D01*
X0290384Y0025639D01*
X0290396Y0025577D01*
X0290404Y0025516D01*
X0290408Y0025453D01*
X0290408Y0025391D01*
X0290404Y0025328D01*
X0290396Y0025267D01*
X0290384Y0025205D01*
X0290368Y0025145D01*
X0290349Y0025085D01*
X0290325Y0025027D01*
X0290299Y0024971D01*
X0290268Y0024917D01*
X0290234Y0024864D01*
X0290197Y0024814D01*
X0290157Y0024766D01*
X0290114Y0024721D01*
X0290068Y0024678D01*
X0290020Y0024639D01*
X0289969Y0024603D01*
X0289916Y0024570D01*
X0289861Y0024540D01*
X0289804Y0024514D01*
X0289746Y0024492D01*
X0289686Y0024474D01*
X0289626Y0024459D01*
X0289564Y0024448D01*
X0289502Y0024441D01*
X0289440Y0024438D01*
X0289377Y0024439D01*
X0289315Y0024444D01*
X0289253Y0024453D01*
X0289192Y0024466D01*
X0289132Y0024482D01*
X0289073Y0024503D01*
X0289015Y0024527D01*
X0288959Y0024555D01*
X0288905Y0024586D01*
X0288853Y0024620D01*
X0288804Y0024658D01*
X0288756Y0024699D01*
X0288712Y0024743D01*
X0288670Y0024789D01*
X0288632Y0024839D01*
X0288596Y0024890D01*
X0288564Y0024944D01*
X0288536Y0024999D01*
X0288510Y0025056D01*
X0288489Y0025115D01*
X0288472Y0025175D01*
X0288458Y0025236D01*
X0288448Y0025297D01*
X0288442Y0025360D01*
X0288440Y0025422D01*
X0344148Y0041170D02*
X0344150Y0041328D01*
X0344156Y0041486D01*
X0344166Y0041644D01*
X0344180Y0041802D01*
X0344198Y0041959D01*
X0344219Y0042116D01*
X0344245Y0042272D01*
X0344275Y0042428D01*
X0344308Y0042583D01*
X0344346Y0042736D01*
X0344387Y0042889D01*
X0344432Y0043041D01*
X0344481Y0043192D01*
X0344534Y0043341D01*
X0344590Y0043489D01*
X0344650Y0043635D01*
X0344714Y0043780D01*
X0344782Y0043923D01*
X0344853Y0044065D01*
X0344927Y0044205D01*
X0345005Y0044342D01*
X0345087Y0044478D01*
X0345171Y0044612D01*
X0345260Y0044743D01*
X0345351Y0044872D01*
X0345446Y0044999D01*
X0345543Y0045124D01*
X0345644Y0045246D01*
X0345748Y0045365D01*
X0345855Y0045482D01*
X0345965Y0045596D01*
X0346078Y0045707D01*
X0346193Y0045816D01*
X0346311Y0045921D01*
X0346432Y0046023D01*
X0346555Y0046123D01*
X0346681Y0046219D01*
X0346809Y0046312D01*
X0346939Y0046402D01*
X0347072Y0046488D01*
X0347207Y0046572D01*
X0347343Y0046651D01*
X0347482Y0046728D01*
X0347623Y0046800D01*
X0347765Y0046870D01*
X0347909Y0046935D01*
X0348055Y0046997D01*
X0348202Y0047055D01*
X0348351Y0047110D01*
X0348501Y0047161D01*
X0348652Y0047208D01*
X0348804Y0047251D01*
X0348957Y0047290D01*
X0349112Y0047326D01*
X0349267Y0047357D01*
X0349423Y0047385D01*
X0349579Y0047409D01*
X0349736Y0047429D01*
X0349894Y0047445D01*
X0350051Y0047457D01*
X0350210Y0047465D01*
X0350368Y0047469D01*
X0350526Y0047469D01*
X0350684Y0047465D01*
X0350843Y0047457D01*
X0351000Y0047445D01*
X0351158Y0047429D01*
X0351315Y0047409D01*
X0351471Y0047385D01*
X0351627Y0047357D01*
X0351782Y0047326D01*
X0351937Y0047290D01*
X0352090Y0047251D01*
X0352242Y0047208D01*
X0352393Y0047161D01*
X0352543Y0047110D01*
X0352692Y0047055D01*
X0352839Y0046997D01*
X0352985Y0046935D01*
X0353129Y0046870D01*
X0353271Y0046800D01*
X0353412Y0046728D01*
X0353551Y0046651D01*
X0353687Y0046572D01*
X0353822Y0046488D01*
X0353955Y0046402D01*
X0354085Y0046312D01*
X0354213Y0046219D01*
X0354339Y0046123D01*
X0354462Y0046023D01*
X0354583Y0045921D01*
X0354701Y0045816D01*
X0354816Y0045707D01*
X0354929Y0045596D01*
X0355039Y0045482D01*
X0355146Y0045365D01*
X0355250Y0045246D01*
X0355351Y0045124D01*
X0355448Y0044999D01*
X0355543Y0044872D01*
X0355634Y0044743D01*
X0355723Y0044612D01*
X0355807Y0044478D01*
X0355889Y0044342D01*
X0355967Y0044205D01*
X0356041Y0044065D01*
X0356112Y0043923D01*
X0356180Y0043780D01*
X0356244Y0043635D01*
X0356304Y0043489D01*
X0356360Y0043341D01*
X0356413Y0043192D01*
X0356462Y0043041D01*
X0356507Y0042889D01*
X0356548Y0042736D01*
X0356586Y0042583D01*
X0356619Y0042428D01*
X0356649Y0042272D01*
X0356675Y0042116D01*
X0356696Y0041959D01*
X0356714Y0041802D01*
X0356728Y0041644D01*
X0356738Y0041486D01*
X0356744Y0041328D01*
X0356746Y0041170D01*
X0356744Y0041012D01*
X0356738Y0040854D01*
X0356728Y0040696D01*
X0356714Y0040538D01*
X0356696Y0040381D01*
X0356675Y0040224D01*
X0356649Y0040068D01*
X0356619Y0039912D01*
X0356586Y0039757D01*
X0356548Y0039604D01*
X0356507Y0039451D01*
X0356462Y0039299D01*
X0356413Y0039148D01*
X0356360Y0038999D01*
X0356304Y0038851D01*
X0356244Y0038705D01*
X0356180Y0038560D01*
X0356112Y0038417D01*
X0356041Y0038275D01*
X0355967Y0038135D01*
X0355889Y0037998D01*
X0355807Y0037862D01*
X0355723Y0037728D01*
X0355634Y0037597D01*
X0355543Y0037468D01*
X0355448Y0037341D01*
X0355351Y0037216D01*
X0355250Y0037094D01*
X0355146Y0036975D01*
X0355039Y0036858D01*
X0354929Y0036744D01*
X0354816Y0036633D01*
X0354701Y0036524D01*
X0354583Y0036419D01*
X0354462Y0036317D01*
X0354339Y0036217D01*
X0354213Y0036121D01*
X0354085Y0036028D01*
X0353955Y0035938D01*
X0353822Y0035852D01*
X0353687Y0035768D01*
X0353551Y0035689D01*
X0353412Y0035612D01*
X0353271Y0035540D01*
X0353129Y0035470D01*
X0352985Y0035405D01*
X0352839Y0035343D01*
X0352692Y0035285D01*
X0352543Y0035230D01*
X0352393Y0035179D01*
X0352242Y0035132D01*
X0352090Y0035089D01*
X0351937Y0035050D01*
X0351782Y0035014D01*
X0351627Y0034983D01*
X0351471Y0034955D01*
X0351315Y0034931D01*
X0351158Y0034911D01*
X0351000Y0034895D01*
X0350843Y0034883D01*
X0350684Y0034875D01*
X0350526Y0034871D01*
X0350368Y0034871D01*
X0350210Y0034875D01*
X0350051Y0034883D01*
X0349894Y0034895D01*
X0349736Y0034911D01*
X0349579Y0034931D01*
X0349423Y0034955D01*
X0349267Y0034983D01*
X0349112Y0035014D01*
X0348957Y0035050D01*
X0348804Y0035089D01*
X0348652Y0035132D01*
X0348501Y0035179D01*
X0348351Y0035230D01*
X0348202Y0035285D01*
X0348055Y0035343D01*
X0347909Y0035405D01*
X0347765Y0035470D01*
X0347623Y0035540D01*
X0347482Y0035612D01*
X0347343Y0035689D01*
X0347207Y0035768D01*
X0347072Y0035852D01*
X0346939Y0035938D01*
X0346809Y0036028D01*
X0346681Y0036121D01*
X0346555Y0036217D01*
X0346432Y0036317D01*
X0346311Y0036419D01*
X0346193Y0036524D01*
X0346078Y0036633D01*
X0345965Y0036744D01*
X0345855Y0036858D01*
X0345748Y0036975D01*
X0345644Y0037094D01*
X0345543Y0037216D01*
X0345446Y0037341D01*
X0345351Y0037468D01*
X0345260Y0037597D01*
X0345171Y0037728D01*
X0345087Y0037862D01*
X0345005Y0037998D01*
X0344927Y0038135D01*
X0344853Y0038275D01*
X0344782Y0038417D01*
X0344714Y0038560D01*
X0344650Y0038705D01*
X0344590Y0038851D01*
X0344534Y0038999D01*
X0344481Y0039148D01*
X0344432Y0039299D01*
X0344387Y0039451D01*
X0344346Y0039604D01*
X0344308Y0039757D01*
X0344275Y0039912D01*
X0344245Y0040068D01*
X0344219Y0040224D01*
X0344198Y0040381D01*
X0344180Y0040538D01*
X0344166Y0040696D01*
X0344156Y0040854D01*
X0344150Y0041012D01*
X0344148Y0041170D01*
X0346116Y0008690D02*
X0346118Y0008821D01*
X0346124Y0008953D01*
X0346134Y0009084D01*
X0346148Y0009215D01*
X0346166Y0009345D01*
X0346188Y0009474D01*
X0346213Y0009603D01*
X0346243Y0009731D01*
X0346277Y0009858D01*
X0346314Y0009985D01*
X0346355Y0010109D01*
X0346400Y0010233D01*
X0346449Y0010355D01*
X0346501Y0010476D01*
X0346557Y0010594D01*
X0346617Y0010712D01*
X0346680Y0010827D01*
X0346747Y0010940D01*
X0346817Y0011052D01*
X0346890Y0011161D01*
X0346966Y0011267D01*
X0347046Y0011372D01*
X0347129Y0011474D01*
X0347215Y0011573D01*
X0347304Y0011670D01*
X0347396Y0011764D01*
X0347491Y0011855D01*
X0347588Y0011944D01*
X0347688Y0012029D01*
X0347791Y0012111D01*
X0347896Y0012190D01*
X0348003Y0012266D01*
X0348113Y0012338D01*
X0348225Y0012407D01*
X0348339Y0012473D01*
X0348454Y0012535D01*
X0348572Y0012594D01*
X0348691Y0012649D01*
X0348812Y0012701D01*
X0348935Y0012748D01*
X0349059Y0012792D01*
X0349184Y0012833D01*
X0349310Y0012869D01*
X0349438Y0012902D01*
X0349566Y0012930D01*
X0349695Y0012955D01*
X0349825Y0012976D01*
X0349955Y0012993D01*
X0350086Y0013006D01*
X0350217Y0013015D01*
X0350348Y0013020D01*
X0350480Y0013021D01*
X0350611Y0013018D01*
X0350743Y0013011D01*
X0350874Y0013000D01*
X0351004Y0012985D01*
X0351134Y0012966D01*
X0351264Y0012943D01*
X0351392Y0012917D01*
X0351520Y0012886D01*
X0351647Y0012851D01*
X0351773Y0012813D01*
X0351897Y0012771D01*
X0352021Y0012725D01*
X0352142Y0012675D01*
X0352262Y0012622D01*
X0352381Y0012565D01*
X0352498Y0012505D01*
X0352612Y0012441D01*
X0352725Y0012373D01*
X0352836Y0012302D01*
X0352945Y0012228D01*
X0353051Y0012151D01*
X0353155Y0012070D01*
X0353256Y0011987D01*
X0353355Y0011900D01*
X0353451Y0011810D01*
X0353544Y0011717D01*
X0353635Y0011622D01*
X0353722Y0011524D01*
X0353807Y0011423D01*
X0353888Y0011320D01*
X0353966Y0011214D01*
X0354041Y0011106D01*
X0354113Y0010996D01*
X0354181Y0010884D01*
X0354246Y0010770D01*
X0354307Y0010653D01*
X0354365Y0010535D01*
X0354419Y0010415D01*
X0354470Y0010294D01*
X0354517Y0010171D01*
X0354560Y0010047D01*
X0354599Y0009922D01*
X0354635Y0009795D01*
X0354666Y0009667D01*
X0354694Y0009539D01*
X0354718Y0009410D01*
X0354738Y0009280D01*
X0354754Y0009149D01*
X0354766Y0009018D01*
X0354774Y0008887D01*
X0354778Y0008756D01*
X0354778Y0008624D01*
X0354774Y0008493D01*
X0354766Y0008362D01*
X0354754Y0008231D01*
X0354738Y0008100D01*
X0354718Y0007970D01*
X0354694Y0007841D01*
X0354666Y0007713D01*
X0354635Y0007585D01*
X0354599Y0007458D01*
X0354560Y0007333D01*
X0354517Y0007209D01*
X0354470Y0007086D01*
X0354419Y0006965D01*
X0354365Y0006845D01*
X0354307Y0006727D01*
X0354246Y0006610D01*
X0354181Y0006496D01*
X0354113Y0006384D01*
X0354041Y0006274D01*
X0353966Y0006166D01*
X0353888Y0006060D01*
X0353807Y0005957D01*
X0353722Y0005856D01*
X0353635Y0005758D01*
X0353544Y0005663D01*
X0353451Y0005570D01*
X0353355Y0005480D01*
X0353256Y0005393D01*
X0353155Y0005310D01*
X0353051Y0005229D01*
X0352945Y0005152D01*
X0352836Y0005078D01*
X0352725Y0005007D01*
X0352613Y0004939D01*
X0352498Y0004875D01*
X0352381Y0004815D01*
X0352262Y0004758D01*
X0352142Y0004705D01*
X0352021Y0004655D01*
X0351897Y0004609D01*
X0351773Y0004567D01*
X0351647Y0004529D01*
X0351520Y0004494D01*
X0351392Y0004463D01*
X0351264Y0004437D01*
X0351134Y0004414D01*
X0351004Y0004395D01*
X0350874Y0004380D01*
X0350743Y0004369D01*
X0350611Y0004362D01*
X0350480Y0004359D01*
X0350348Y0004360D01*
X0350217Y0004365D01*
X0350086Y0004374D01*
X0349955Y0004387D01*
X0349825Y0004404D01*
X0349695Y0004425D01*
X0349566Y0004450D01*
X0349438Y0004478D01*
X0349310Y0004511D01*
X0349184Y0004547D01*
X0349059Y0004588D01*
X0348935Y0004632D01*
X0348812Y0004679D01*
X0348691Y0004731D01*
X0348572Y0004786D01*
X0348454Y0004845D01*
X0348339Y0004907D01*
X0348225Y0004973D01*
X0348113Y0005042D01*
X0348003Y0005114D01*
X0347896Y0005190D01*
X0347791Y0005269D01*
X0347688Y0005351D01*
X0347588Y0005436D01*
X0347491Y0005525D01*
X0347396Y0005616D01*
X0347304Y0005710D01*
X0347215Y0005807D01*
X0347129Y0005906D01*
X0347046Y0006008D01*
X0346966Y0006113D01*
X0346890Y0006219D01*
X0346817Y0006328D01*
X0346747Y0006440D01*
X0346680Y0006553D01*
X0346617Y0006668D01*
X0346557Y0006786D01*
X0346501Y0006904D01*
X0346449Y0007025D01*
X0346400Y0007147D01*
X0346355Y0007271D01*
X0346314Y0007395D01*
X0346277Y0007522D01*
X0346243Y0007649D01*
X0346213Y0007777D01*
X0346188Y0007906D01*
X0346166Y0008035D01*
X0346148Y0008165D01*
X0346134Y0008296D01*
X0346124Y0008427D01*
X0346118Y0008559D01*
X0346116Y0008690D01*
X0344148Y0356131D02*
X0344150Y0356289D01*
X0344156Y0356447D01*
X0344166Y0356605D01*
X0344180Y0356763D01*
X0344198Y0356920D01*
X0344219Y0357077D01*
X0344245Y0357233D01*
X0344275Y0357389D01*
X0344308Y0357544D01*
X0344346Y0357697D01*
X0344387Y0357850D01*
X0344432Y0358002D01*
X0344481Y0358153D01*
X0344534Y0358302D01*
X0344590Y0358450D01*
X0344650Y0358596D01*
X0344714Y0358741D01*
X0344782Y0358884D01*
X0344853Y0359026D01*
X0344927Y0359166D01*
X0345005Y0359303D01*
X0345087Y0359439D01*
X0345171Y0359573D01*
X0345260Y0359704D01*
X0345351Y0359833D01*
X0345446Y0359960D01*
X0345543Y0360085D01*
X0345644Y0360207D01*
X0345748Y0360326D01*
X0345855Y0360443D01*
X0345965Y0360557D01*
X0346078Y0360668D01*
X0346193Y0360777D01*
X0346311Y0360882D01*
X0346432Y0360984D01*
X0346555Y0361084D01*
X0346681Y0361180D01*
X0346809Y0361273D01*
X0346939Y0361363D01*
X0347072Y0361449D01*
X0347207Y0361533D01*
X0347343Y0361612D01*
X0347482Y0361689D01*
X0347623Y0361761D01*
X0347765Y0361831D01*
X0347909Y0361896D01*
X0348055Y0361958D01*
X0348202Y0362016D01*
X0348351Y0362071D01*
X0348501Y0362122D01*
X0348652Y0362169D01*
X0348804Y0362212D01*
X0348957Y0362251D01*
X0349112Y0362287D01*
X0349267Y0362318D01*
X0349423Y0362346D01*
X0349579Y0362370D01*
X0349736Y0362390D01*
X0349894Y0362406D01*
X0350051Y0362418D01*
X0350210Y0362426D01*
X0350368Y0362430D01*
X0350526Y0362430D01*
X0350684Y0362426D01*
X0350843Y0362418D01*
X0351000Y0362406D01*
X0351158Y0362390D01*
X0351315Y0362370D01*
X0351471Y0362346D01*
X0351627Y0362318D01*
X0351782Y0362287D01*
X0351937Y0362251D01*
X0352090Y0362212D01*
X0352242Y0362169D01*
X0352393Y0362122D01*
X0352543Y0362071D01*
X0352692Y0362016D01*
X0352839Y0361958D01*
X0352985Y0361896D01*
X0353129Y0361831D01*
X0353271Y0361761D01*
X0353412Y0361689D01*
X0353551Y0361612D01*
X0353687Y0361533D01*
X0353822Y0361449D01*
X0353955Y0361363D01*
X0354085Y0361273D01*
X0354213Y0361180D01*
X0354339Y0361084D01*
X0354462Y0360984D01*
X0354583Y0360882D01*
X0354701Y0360777D01*
X0354816Y0360668D01*
X0354929Y0360557D01*
X0355039Y0360443D01*
X0355146Y0360326D01*
X0355250Y0360207D01*
X0355351Y0360085D01*
X0355448Y0359960D01*
X0355543Y0359833D01*
X0355634Y0359704D01*
X0355723Y0359573D01*
X0355807Y0359439D01*
X0355889Y0359303D01*
X0355967Y0359166D01*
X0356041Y0359026D01*
X0356112Y0358884D01*
X0356180Y0358741D01*
X0356244Y0358596D01*
X0356304Y0358450D01*
X0356360Y0358302D01*
X0356413Y0358153D01*
X0356462Y0358002D01*
X0356507Y0357850D01*
X0356548Y0357697D01*
X0356586Y0357544D01*
X0356619Y0357389D01*
X0356649Y0357233D01*
X0356675Y0357077D01*
X0356696Y0356920D01*
X0356714Y0356763D01*
X0356728Y0356605D01*
X0356738Y0356447D01*
X0356744Y0356289D01*
X0356746Y0356131D01*
X0356744Y0355973D01*
X0356738Y0355815D01*
X0356728Y0355657D01*
X0356714Y0355499D01*
X0356696Y0355342D01*
X0356675Y0355185D01*
X0356649Y0355029D01*
X0356619Y0354873D01*
X0356586Y0354718D01*
X0356548Y0354565D01*
X0356507Y0354412D01*
X0356462Y0354260D01*
X0356413Y0354109D01*
X0356360Y0353960D01*
X0356304Y0353812D01*
X0356244Y0353666D01*
X0356180Y0353521D01*
X0356112Y0353378D01*
X0356041Y0353236D01*
X0355967Y0353096D01*
X0355889Y0352959D01*
X0355807Y0352823D01*
X0355723Y0352689D01*
X0355634Y0352558D01*
X0355543Y0352429D01*
X0355448Y0352302D01*
X0355351Y0352177D01*
X0355250Y0352055D01*
X0355146Y0351936D01*
X0355039Y0351819D01*
X0354929Y0351705D01*
X0354816Y0351594D01*
X0354701Y0351485D01*
X0354583Y0351380D01*
X0354462Y0351278D01*
X0354339Y0351178D01*
X0354213Y0351082D01*
X0354085Y0350989D01*
X0353955Y0350899D01*
X0353822Y0350813D01*
X0353687Y0350729D01*
X0353551Y0350650D01*
X0353412Y0350573D01*
X0353271Y0350501D01*
X0353129Y0350431D01*
X0352985Y0350366D01*
X0352839Y0350304D01*
X0352692Y0350246D01*
X0352543Y0350191D01*
X0352393Y0350140D01*
X0352242Y0350093D01*
X0352090Y0350050D01*
X0351937Y0350011D01*
X0351782Y0349975D01*
X0351627Y0349944D01*
X0351471Y0349916D01*
X0351315Y0349892D01*
X0351158Y0349872D01*
X0351000Y0349856D01*
X0350843Y0349844D01*
X0350684Y0349836D01*
X0350526Y0349832D01*
X0350368Y0349832D01*
X0350210Y0349836D01*
X0350051Y0349844D01*
X0349894Y0349856D01*
X0349736Y0349872D01*
X0349579Y0349892D01*
X0349423Y0349916D01*
X0349267Y0349944D01*
X0349112Y0349975D01*
X0348957Y0350011D01*
X0348804Y0350050D01*
X0348652Y0350093D01*
X0348501Y0350140D01*
X0348351Y0350191D01*
X0348202Y0350246D01*
X0348055Y0350304D01*
X0347909Y0350366D01*
X0347765Y0350431D01*
X0347623Y0350501D01*
X0347482Y0350573D01*
X0347343Y0350650D01*
X0347207Y0350729D01*
X0347072Y0350813D01*
X0346939Y0350899D01*
X0346809Y0350989D01*
X0346681Y0351082D01*
X0346555Y0351178D01*
X0346432Y0351278D01*
X0346311Y0351380D01*
X0346193Y0351485D01*
X0346078Y0351594D01*
X0345965Y0351705D01*
X0345855Y0351819D01*
X0345748Y0351936D01*
X0345644Y0352055D01*
X0345543Y0352177D01*
X0345446Y0352302D01*
X0345351Y0352429D01*
X0345260Y0352558D01*
X0345171Y0352689D01*
X0345087Y0352823D01*
X0345005Y0352959D01*
X0344927Y0353096D01*
X0344853Y0353236D01*
X0344782Y0353378D01*
X0344714Y0353521D01*
X0344650Y0353666D01*
X0344590Y0353812D01*
X0344534Y0353960D01*
X0344481Y0354109D01*
X0344432Y0354260D01*
X0344387Y0354412D01*
X0344346Y0354565D01*
X0344308Y0354718D01*
X0344275Y0354873D01*
X0344245Y0355029D01*
X0344219Y0355185D01*
X0344198Y0355342D01*
X0344180Y0355499D01*
X0344166Y0355657D01*
X0344156Y0355815D01*
X0344150Y0355973D01*
X0344148Y0356131D01*
X0346116Y0388611D02*
X0346118Y0388742D01*
X0346124Y0388874D01*
X0346134Y0389005D01*
X0346148Y0389136D01*
X0346166Y0389266D01*
X0346188Y0389395D01*
X0346213Y0389524D01*
X0346243Y0389652D01*
X0346277Y0389779D01*
X0346314Y0389906D01*
X0346355Y0390030D01*
X0346400Y0390154D01*
X0346449Y0390276D01*
X0346501Y0390397D01*
X0346557Y0390515D01*
X0346617Y0390633D01*
X0346680Y0390748D01*
X0346747Y0390861D01*
X0346817Y0390973D01*
X0346890Y0391082D01*
X0346966Y0391188D01*
X0347046Y0391293D01*
X0347129Y0391395D01*
X0347215Y0391494D01*
X0347304Y0391591D01*
X0347396Y0391685D01*
X0347491Y0391776D01*
X0347588Y0391865D01*
X0347688Y0391950D01*
X0347791Y0392032D01*
X0347896Y0392111D01*
X0348003Y0392187D01*
X0348113Y0392259D01*
X0348225Y0392328D01*
X0348339Y0392394D01*
X0348454Y0392456D01*
X0348572Y0392515D01*
X0348691Y0392570D01*
X0348812Y0392622D01*
X0348935Y0392669D01*
X0349059Y0392713D01*
X0349184Y0392754D01*
X0349310Y0392790D01*
X0349438Y0392823D01*
X0349566Y0392851D01*
X0349695Y0392876D01*
X0349825Y0392897D01*
X0349955Y0392914D01*
X0350086Y0392927D01*
X0350217Y0392936D01*
X0350348Y0392941D01*
X0350480Y0392942D01*
X0350611Y0392939D01*
X0350743Y0392932D01*
X0350874Y0392921D01*
X0351004Y0392906D01*
X0351134Y0392887D01*
X0351264Y0392864D01*
X0351392Y0392838D01*
X0351520Y0392807D01*
X0351647Y0392772D01*
X0351773Y0392734D01*
X0351897Y0392692D01*
X0352021Y0392646D01*
X0352142Y0392596D01*
X0352262Y0392543D01*
X0352381Y0392486D01*
X0352498Y0392426D01*
X0352612Y0392362D01*
X0352725Y0392294D01*
X0352836Y0392223D01*
X0352945Y0392149D01*
X0353051Y0392072D01*
X0353155Y0391991D01*
X0353256Y0391908D01*
X0353355Y0391821D01*
X0353451Y0391731D01*
X0353544Y0391638D01*
X0353635Y0391543D01*
X0353722Y0391445D01*
X0353807Y0391344D01*
X0353888Y0391241D01*
X0353966Y0391135D01*
X0354041Y0391027D01*
X0354113Y0390917D01*
X0354181Y0390805D01*
X0354246Y0390691D01*
X0354307Y0390574D01*
X0354365Y0390456D01*
X0354419Y0390336D01*
X0354470Y0390215D01*
X0354517Y0390092D01*
X0354560Y0389968D01*
X0354599Y0389843D01*
X0354635Y0389716D01*
X0354666Y0389588D01*
X0354694Y0389460D01*
X0354718Y0389331D01*
X0354738Y0389201D01*
X0354754Y0389070D01*
X0354766Y0388939D01*
X0354774Y0388808D01*
X0354778Y0388677D01*
X0354778Y0388545D01*
X0354774Y0388414D01*
X0354766Y0388283D01*
X0354754Y0388152D01*
X0354738Y0388021D01*
X0354718Y0387891D01*
X0354694Y0387762D01*
X0354666Y0387634D01*
X0354635Y0387506D01*
X0354599Y0387379D01*
X0354560Y0387254D01*
X0354517Y0387130D01*
X0354470Y0387007D01*
X0354419Y0386886D01*
X0354365Y0386766D01*
X0354307Y0386648D01*
X0354246Y0386531D01*
X0354181Y0386417D01*
X0354113Y0386305D01*
X0354041Y0386195D01*
X0353966Y0386087D01*
X0353888Y0385981D01*
X0353807Y0385878D01*
X0353722Y0385777D01*
X0353635Y0385679D01*
X0353544Y0385584D01*
X0353451Y0385491D01*
X0353355Y0385401D01*
X0353256Y0385314D01*
X0353155Y0385231D01*
X0353051Y0385150D01*
X0352945Y0385073D01*
X0352836Y0384999D01*
X0352725Y0384928D01*
X0352613Y0384860D01*
X0352498Y0384796D01*
X0352381Y0384736D01*
X0352262Y0384679D01*
X0352142Y0384626D01*
X0352021Y0384576D01*
X0351897Y0384530D01*
X0351773Y0384488D01*
X0351647Y0384450D01*
X0351520Y0384415D01*
X0351392Y0384384D01*
X0351264Y0384358D01*
X0351134Y0384335D01*
X0351004Y0384316D01*
X0350874Y0384301D01*
X0350743Y0384290D01*
X0350611Y0384283D01*
X0350480Y0384280D01*
X0350348Y0384281D01*
X0350217Y0384286D01*
X0350086Y0384295D01*
X0349955Y0384308D01*
X0349825Y0384325D01*
X0349695Y0384346D01*
X0349566Y0384371D01*
X0349438Y0384399D01*
X0349310Y0384432D01*
X0349184Y0384468D01*
X0349059Y0384509D01*
X0348935Y0384553D01*
X0348812Y0384600D01*
X0348691Y0384652D01*
X0348572Y0384707D01*
X0348454Y0384766D01*
X0348339Y0384828D01*
X0348225Y0384894D01*
X0348113Y0384963D01*
X0348003Y0385035D01*
X0347896Y0385111D01*
X0347791Y0385190D01*
X0347688Y0385272D01*
X0347588Y0385357D01*
X0347491Y0385446D01*
X0347396Y0385537D01*
X0347304Y0385631D01*
X0347215Y0385728D01*
X0347129Y0385827D01*
X0347046Y0385929D01*
X0346966Y0386034D01*
X0346890Y0386140D01*
X0346817Y0386249D01*
X0346747Y0386361D01*
X0346680Y0386474D01*
X0346617Y0386589D01*
X0346557Y0386707D01*
X0346501Y0386825D01*
X0346449Y0386946D01*
X0346400Y0387068D01*
X0346355Y0387192D01*
X0346314Y0387316D01*
X0346277Y0387443D01*
X0346243Y0387570D01*
X0346213Y0387698D01*
X0346188Y0387827D01*
X0346166Y0387956D01*
X0346148Y0388086D01*
X0346134Y0388217D01*
X0346124Y0388348D01*
X0346118Y0388480D01*
X0346116Y0388611D01*
X0288440Y0379753D02*
X0288442Y0379815D01*
X0288448Y0379878D01*
X0288458Y0379939D01*
X0288472Y0380000D01*
X0288489Y0380060D01*
X0288510Y0380119D01*
X0288536Y0380176D01*
X0288564Y0380231D01*
X0288596Y0380285D01*
X0288632Y0380336D01*
X0288670Y0380386D01*
X0288712Y0380432D01*
X0288756Y0380476D01*
X0288804Y0380517D01*
X0288853Y0380555D01*
X0288905Y0380589D01*
X0288959Y0380620D01*
X0289015Y0380648D01*
X0289073Y0380672D01*
X0289132Y0380693D01*
X0289192Y0380709D01*
X0289253Y0380722D01*
X0289315Y0380731D01*
X0289377Y0380736D01*
X0289440Y0380737D01*
X0289502Y0380734D01*
X0289564Y0380727D01*
X0289626Y0380716D01*
X0289686Y0380701D01*
X0289746Y0380683D01*
X0289804Y0380661D01*
X0289861Y0380635D01*
X0289916Y0380605D01*
X0289969Y0380572D01*
X0290020Y0380536D01*
X0290068Y0380497D01*
X0290114Y0380454D01*
X0290157Y0380409D01*
X0290197Y0380361D01*
X0290234Y0380311D01*
X0290268Y0380258D01*
X0290299Y0380204D01*
X0290325Y0380148D01*
X0290349Y0380090D01*
X0290368Y0380030D01*
X0290384Y0379970D01*
X0290396Y0379908D01*
X0290404Y0379847D01*
X0290408Y0379784D01*
X0290408Y0379722D01*
X0290404Y0379659D01*
X0290396Y0379598D01*
X0290384Y0379536D01*
X0290368Y0379476D01*
X0290349Y0379416D01*
X0290325Y0379358D01*
X0290299Y0379302D01*
X0290268Y0379248D01*
X0290234Y0379195D01*
X0290197Y0379145D01*
X0290157Y0379097D01*
X0290114Y0379052D01*
X0290068Y0379009D01*
X0290020Y0378970D01*
X0289969Y0378934D01*
X0289916Y0378901D01*
X0289861Y0378871D01*
X0289804Y0378845D01*
X0289746Y0378823D01*
X0289686Y0378805D01*
X0289626Y0378790D01*
X0289564Y0378779D01*
X0289502Y0378772D01*
X0289440Y0378769D01*
X0289377Y0378770D01*
X0289315Y0378775D01*
X0289253Y0378784D01*
X0289192Y0378797D01*
X0289132Y0378813D01*
X0289073Y0378834D01*
X0289015Y0378858D01*
X0288959Y0378886D01*
X0288905Y0378917D01*
X0288853Y0378951D01*
X0288804Y0378989D01*
X0288756Y0379030D01*
X0288712Y0379074D01*
X0288670Y0379120D01*
X0288632Y0379170D01*
X0288596Y0379221D01*
X0288564Y0379275D01*
X0288536Y0379330D01*
X0288510Y0379387D01*
X0288489Y0379446D01*
X0288472Y0379506D01*
X0288458Y0379567D01*
X0288448Y0379628D01*
X0288442Y0379691D01*
X0288440Y0379753D01*
X0284503Y0379753D02*
X0284505Y0379815D01*
X0284511Y0379878D01*
X0284521Y0379939D01*
X0284535Y0380000D01*
X0284552Y0380060D01*
X0284573Y0380119D01*
X0284599Y0380176D01*
X0284627Y0380231D01*
X0284659Y0380285D01*
X0284695Y0380336D01*
X0284733Y0380386D01*
X0284775Y0380432D01*
X0284819Y0380476D01*
X0284867Y0380517D01*
X0284916Y0380555D01*
X0284968Y0380589D01*
X0285022Y0380620D01*
X0285078Y0380648D01*
X0285136Y0380672D01*
X0285195Y0380693D01*
X0285255Y0380709D01*
X0285316Y0380722D01*
X0285378Y0380731D01*
X0285440Y0380736D01*
X0285503Y0380737D01*
X0285565Y0380734D01*
X0285627Y0380727D01*
X0285689Y0380716D01*
X0285749Y0380701D01*
X0285809Y0380683D01*
X0285867Y0380661D01*
X0285924Y0380635D01*
X0285979Y0380605D01*
X0286032Y0380572D01*
X0286083Y0380536D01*
X0286131Y0380497D01*
X0286177Y0380454D01*
X0286220Y0380409D01*
X0286260Y0380361D01*
X0286297Y0380311D01*
X0286331Y0380258D01*
X0286362Y0380204D01*
X0286388Y0380148D01*
X0286412Y0380090D01*
X0286431Y0380030D01*
X0286447Y0379970D01*
X0286459Y0379908D01*
X0286467Y0379847D01*
X0286471Y0379784D01*
X0286471Y0379722D01*
X0286467Y0379659D01*
X0286459Y0379598D01*
X0286447Y0379536D01*
X0286431Y0379476D01*
X0286412Y0379416D01*
X0286388Y0379358D01*
X0286362Y0379302D01*
X0286331Y0379248D01*
X0286297Y0379195D01*
X0286260Y0379145D01*
X0286220Y0379097D01*
X0286177Y0379052D01*
X0286131Y0379009D01*
X0286083Y0378970D01*
X0286032Y0378934D01*
X0285979Y0378901D01*
X0285924Y0378871D01*
X0285867Y0378845D01*
X0285809Y0378823D01*
X0285749Y0378805D01*
X0285689Y0378790D01*
X0285627Y0378779D01*
X0285565Y0378772D01*
X0285503Y0378769D01*
X0285440Y0378770D01*
X0285378Y0378775D01*
X0285316Y0378784D01*
X0285255Y0378797D01*
X0285195Y0378813D01*
X0285136Y0378834D01*
X0285078Y0378858D01*
X0285022Y0378886D01*
X0284968Y0378917D01*
X0284916Y0378951D01*
X0284867Y0378989D01*
X0284819Y0379030D01*
X0284775Y0379074D01*
X0284733Y0379120D01*
X0284695Y0379170D01*
X0284659Y0379221D01*
X0284627Y0379275D01*
X0284599Y0379330D01*
X0284573Y0379387D01*
X0284552Y0379446D01*
X0284535Y0379506D01*
X0284521Y0379567D01*
X0284511Y0379628D01*
X0284505Y0379691D01*
X0284503Y0379753D01*
X0280566Y0379753D02*
X0280568Y0379815D01*
X0280574Y0379878D01*
X0280584Y0379939D01*
X0280598Y0380000D01*
X0280615Y0380060D01*
X0280636Y0380119D01*
X0280662Y0380176D01*
X0280690Y0380231D01*
X0280722Y0380285D01*
X0280758Y0380336D01*
X0280796Y0380386D01*
X0280838Y0380432D01*
X0280882Y0380476D01*
X0280930Y0380517D01*
X0280979Y0380555D01*
X0281031Y0380589D01*
X0281085Y0380620D01*
X0281141Y0380648D01*
X0281199Y0380672D01*
X0281258Y0380693D01*
X0281318Y0380709D01*
X0281379Y0380722D01*
X0281441Y0380731D01*
X0281503Y0380736D01*
X0281566Y0380737D01*
X0281628Y0380734D01*
X0281690Y0380727D01*
X0281752Y0380716D01*
X0281812Y0380701D01*
X0281872Y0380683D01*
X0281930Y0380661D01*
X0281987Y0380635D01*
X0282042Y0380605D01*
X0282095Y0380572D01*
X0282146Y0380536D01*
X0282194Y0380497D01*
X0282240Y0380454D01*
X0282283Y0380409D01*
X0282323Y0380361D01*
X0282360Y0380311D01*
X0282394Y0380258D01*
X0282425Y0380204D01*
X0282451Y0380148D01*
X0282475Y0380090D01*
X0282494Y0380030D01*
X0282510Y0379970D01*
X0282522Y0379908D01*
X0282530Y0379847D01*
X0282534Y0379784D01*
X0282534Y0379722D01*
X0282530Y0379659D01*
X0282522Y0379598D01*
X0282510Y0379536D01*
X0282494Y0379476D01*
X0282475Y0379416D01*
X0282451Y0379358D01*
X0282425Y0379302D01*
X0282394Y0379248D01*
X0282360Y0379195D01*
X0282323Y0379145D01*
X0282283Y0379097D01*
X0282240Y0379052D01*
X0282194Y0379009D01*
X0282146Y0378970D01*
X0282095Y0378934D01*
X0282042Y0378901D01*
X0281987Y0378871D01*
X0281930Y0378845D01*
X0281872Y0378823D01*
X0281812Y0378805D01*
X0281752Y0378790D01*
X0281690Y0378779D01*
X0281628Y0378772D01*
X0281566Y0378769D01*
X0281503Y0378770D01*
X0281441Y0378775D01*
X0281379Y0378784D01*
X0281318Y0378797D01*
X0281258Y0378813D01*
X0281199Y0378834D01*
X0281141Y0378858D01*
X0281085Y0378886D01*
X0281031Y0378917D01*
X0280979Y0378951D01*
X0280930Y0378989D01*
X0280882Y0379030D01*
X0280838Y0379074D01*
X0280796Y0379120D01*
X0280758Y0379170D01*
X0280722Y0379221D01*
X0280690Y0379275D01*
X0280662Y0379330D01*
X0280636Y0379387D01*
X0280615Y0379446D01*
X0280598Y0379506D01*
X0280584Y0379567D01*
X0280574Y0379628D01*
X0280568Y0379691D01*
X0280566Y0379753D01*
X0280566Y0375816D02*
X0280568Y0375878D01*
X0280574Y0375941D01*
X0280584Y0376002D01*
X0280598Y0376063D01*
X0280615Y0376123D01*
X0280636Y0376182D01*
X0280662Y0376239D01*
X0280690Y0376294D01*
X0280722Y0376348D01*
X0280758Y0376399D01*
X0280796Y0376449D01*
X0280838Y0376495D01*
X0280882Y0376539D01*
X0280930Y0376580D01*
X0280979Y0376618D01*
X0281031Y0376652D01*
X0281085Y0376683D01*
X0281141Y0376711D01*
X0281199Y0376735D01*
X0281258Y0376756D01*
X0281318Y0376772D01*
X0281379Y0376785D01*
X0281441Y0376794D01*
X0281503Y0376799D01*
X0281566Y0376800D01*
X0281628Y0376797D01*
X0281690Y0376790D01*
X0281752Y0376779D01*
X0281812Y0376764D01*
X0281872Y0376746D01*
X0281930Y0376724D01*
X0281987Y0376698D01*
X0282042Y0376668D01*
X0282095Y0376635D01*
X0282146Y0376599D01*
X0282194Y0376560D01*
X0282240Y0376517D01*
X0282283Y0376472D01*
X0282323Y0376424D01*
X0282360Y0376374D01*
X0282394Y0376321D01*
X0282425Y0376267D01*
X0282451Y0376211D01*
X0282475Y0376153D01*
X0282494Y0376093D01*
X0282510Y0376033D01*
X0282522Y0375971D01*
X0282530Y0375910D01*
X0282534Y0375847D01*
X0282534Y0375785D01*
X0282530Y0375722D01*
X0282522Y0375661D01*
X0282510Y0375599D01*
X0282494Y0375539D01*
X0282475Y0375479D01*
X0282451Y0375421D01*
X0282425Y0375365D01*
X0282394Y0375311D01*
X0282360Y0375258D01*
X0282323Y0375208D01*
X0282283Y0375160D01*
X0282240Y0375115D01*
X0282194Y0375072D01*
X0282146Y0375033D01*
X0282095Y0374997D01*
X0282042Y0374964D01*
X0281987Y0374934D01*
X0281930Y0374908D01*
X0281872Y0374886D01*
X0281812Y0374868D01*
X0281752Y0374853D01*
X0281690Y0374842D01*
X0281628Y0374835D01*
X0281566Y0374832D01*
X0281503Y0374833D01*
X0281441Y0374838D01*
X0281379Y0374847D01*
X0281318Y0374860D01*
X0281258Y0374876D01*
X0281199Y0374897D01*
X0281141Y0374921D01*
X0281085Y0374949D01*
X0281031Y0374980D01*
X0280979Y0375014D01*
X0280930Y0375052D01*
X0280882Y0375093D01*
X0280838Y0375137D01*
X0280796Y0375183D01*
X0280758Y0375233D01*
X0280722Y0375284D01*
X0280690Y0375338D01*
X0280662Y0375393D01*
X0280636Y0375450D01*
X0280615Y0375509D01*
X0280598Y0375569D01*
X0280584Y0375630D01*
X0280574Y0375691D01*
X0280568Y0375754D01*
X0280566Y0375816D01*
X0280566Y0371879D02*
X0280568Y0371941D01*
X0280574Y0372004D01*
X0280584Y0372065D01*
X0280598Y0372126D01*
X0280615Y0372186D01*
X0280636Y0372245D01*
X0280662Y0372302D01*
X0280690Y0372357D01*
X0280722Y0372411D01*
X0280758Y0372462D01*
X0280796Y0372512D01*
X0280838Y0372558D01*
X0280882Y0372602D01*
X0280930Y0372643D01*
X0280979Y0372681D01*
X0281031Y0372715D01*
X0281085Y0372746D01*
X0281141Y0372774D01*
X0281199Y0372798D01*
X0281258Y0372819D01*
X0281318Y0372835D01*
X0281379Y0372848D01*
X0281441Y0372857D01*
X0281503Y0372862D01*
X0281566Y0372863D01*
X0281628Y0372860D01*
X0281690Y0372853D01*
X0281752Y0372842D01*
X0281812Y0372827D01*
X0281872Y0372809D01*
X0281930Y0372787D01*
X0281987Y0372761D01*
X0282042Y0372731D01*
X0282095Y0372698D01*
X0282146Y0372662D01*
X0282194Y0372623D01*
X0282240Y0372580D01*
X0282283Y0372535D01*
X0282323Y0372487D01*
X0282360Y0372437D01*
X0282394Y0372384D01*
X0282425Y0372330D01*
X0282451Y0372274D01*
X0282475Y0372216D01*
X0282494Y0372156D01*
X0282510Y0372096D01*
X0282522Y0372034D01*
X0282530Y0371973D01*
X0282534Y0371910D01*
X0282534Y0371848D01*
X0282530Y0371785D01*
X0282522Y0371724D01*
X0282510Y0371662D01*
X0282494Y0371602D01*
X0282475Y0371542D01*
X0282451Y0371484D01*
X0282425Y0371428D01*
X0282394Y0371374D01*
X0282360Y0371321D01*
X0282323Y0371271D01*
X0282283Y0371223D01*
X0282240Y0371178D01*
X0282194Y0371135D01*
X0282146Y0371096D01*
X0282095Y0371060D01*
X0282042Y0371027D01*
X0281987Y0370997D01*
X0281930Y0370971D01*
X0281872Y0370949D01*
X0281812Y0370931D01*
X0281752Y0370916D01*
X0281690Y0370905D01*
X0281628Y0370898D01*
X0281566Y0370895D01*
X0281503Y0370896D01*
X0281441Y0370901D01*
X0281379Y0370910D01*
X0281318Y0370923D01*
X0281258Y0370939D01*
X0281199Y0370960D01*
X0281141Y0370984D01*
X0281085Y0371012D01*
X0281031Y0371043D01*
X0280979Y0371077D01*
X0280930Y0371115D01*
X0280882Y0371156D01*
X0280838Y0371200D01*
X0280796Y0371246D01*
X0280758Y0371296D01*
X0280722Y0371347D01*
X0280690Y0371401D01*
X0280662Y0371456D01*
X0280636Y0371513D01*
X0280615Y0371572D01*
X0280598Y0371632D01*
X0280584Y0371693D01*
X0280574Y0371754D01*
X0280568Y0371817D01*
X0280566Y0371879D01*
X0284503Y0371879D02*
X0284505Y0371941D01*
X0284511Y0372004D01*
X0284521Y0372065D01*
X0284535Y0372126D01*
X0284552Y0372186D01*
X0284573Y0372245D01*
X0284599Y0372302D01*
X0284627Y0372357D01*
X0284659Y0372411D01*
X0284695Y0372462D01*
X0284733Y0372512D01*
X0284775Y0372558D01*
X0284819Y0372602D01*
X0284867Y0372643D01*
X0284916Y0372681D01*
X0284968Y0372715D01*
X0285022Y0372746D01*
X0285078Y0372774D01*
X0285136Y0372798D01*
X0285195Y0372819D01*
X0285255Y0372835D01*
X0285316Y0372848D01*
X0285378Y0372857D01*
X0285440Y0372862D01*
X0285503Y0372863D01*
X0285565Y0372860D01*
X0285627Y0372853D01*
X0285689Y0372842D01*
X0285749Y0372827D01*
X0285809Y0372809D01*
X0285867Y0372787D01*
X0285924Y0372761D01*
X0285979Y0372731D01*
X0286032Y0372698D01*
X0286083Y0372662D01*
X0286131Y0372623D01*
X0286177Y0372580D01*
X0286220Y0372535D01*
X0286260Y0372487D01*
X0286297Y0372437D01*
X0286331Y0372384D01*
X0286362Y0372330D01*
X0286388Y0372274D01*
X0286412Y0372216D01*
X0286431Y0372156D01*
X0286447Y0372096D01*
X0286459Y0372034D01*
X0286467Y0371973D01*
X0286471Y0371910D01*
X0286471Y0371848D01*
X0286467Y0371785D01*
X0286459Y0371724D01*
X0286447Y0371662D01*
X0286431Y0371602D01*
X0286412Y0371542D01*
X0286388Y0371484D01*
X0286362Y0371428D01*
X0286331Y0371374D01*
X0286297Y0371321D01*
X0286260Y0371271D01*
X0286220Y0371223D01*
X0286177Y0371178D01*
X0286131Y0371135D01*
X0286083Y0371096D01*
X0286032Y0371060D01*
X0285979Y0371027D01*
X0285924Y0370997D01*
X0285867Y0370971D01*
X0285809Y0370949D01*
X0285749Y0370931D01*
X0285689Y0370916D01*
X0285627Y0370905D01*
X0285565Y0370898D01*
X0285503Y0370895D01*
X0285440Y0370896D01*
X0285378Y0370901D01*
X0285316Y0370910D01*
X0285255Y0370923D01*
X0285195Y0370939D01*
X0285136Y0370960D01*
X0285078Y0370984D01*
X0285022Y0371012D01*
X0284968Y0371043D01*
X0284916Y0371077D01*
X0284867Y0371115D01*
X0284819Y0371156D01*
X0284775Y0371200D01*
X0284733Y0371246D01*
X0284695Y0371296D01*
X0284659Y0371347D01*
X0284627Y0371401D01*
X0284599Y0371456D01*
X0284573Y0371513D01*
X0284552Y0371572D01*
X0284535Y0371632D01*
X0284521Y0371693D01*
X0284511Y0371754D01*
X0284505Y0371817D01*
X0284503Y0371879D01*
X0284503Y0375816D02*
X0284505Y0375878D01*
X0284511Y0375941D01*
X0284521Y0376002D01*
X0284535Y0376063D01*
X0284552Y0376123D01*
X0284573Y0376182D01*
X0284599Y0376239D01*
X0284627Y0376294D01*
X0284659Y0376348D01*
X0284695Y0376399D01*
X0284733Y0376449D01*
X0284775Y0376495D01*
X0284819Y0376539D01*
X0284867Y0376580D01*
X0284916Y0376618D01*
X0284968Y0376652D01*
X0285022Y0376683D01*
X0285078Y0376711D01*
X0285136Y0376735D01*
X0285195Y0376756D01*
X0285255Y0376772D01*
X0285316Y0376785D01*
X0285378Y0376794D01*
X0285440Y0376799D01*
X0285503Y0376800D01*
X0285565Y0376797D01*
X0285627Y0376790D01*
X0285689Y0376779D01*
X0285749Y0376764D01*
X0285809Y0376746D01*
X0285867Y0376724D01*
X0285924Y0376698D01*
X0285979Y0376668D01*
X0286032Y0376635D01*
X0286083Y0376599D01*
X0286131Y0376560D01*
X0286177Y0376517D01*
X0286220Y0376472D01*
X0286260Y0376424D01*
X0286297Y0376374D01*
X0286331Y0376321D01*
X0286362Y0376267D01*
X0286388Y0376211D01*
X0286412Y0376153D01*
X0286431Y0376093D01*
X0286447Y0376033D01*
X0286459Y0375971D01*
X0286467Y0375910D01*
X0286471Y0375847D01*
X0286471Y0375785D01*
X0286467Y0375722D01*
X0286459Y0375661D01*
X0286447Y0375599D01*
X0286431Y0375539D01*
X0286412Y0375479D01*
X0286388Y0375421D01*
X0286362Y0375365D01*
X0286331Y0375311D01*
X0286297Y0375258D01*
X0286260Y0375208D01*
X0286220Y0375160D01*
X0286177Y0375115D01*
X0286131Y0375072D01*
X0286083Y0375033D01*
X0286032Y0374997D01*
X0285979Y0374964D01*
X0285924Y0374934D01*
X0285867Y0374908D01*
X0285809Y0374886D01*
X0285749Y0374868D01*
X0285689Y0374853D01*
X0285627Y0374842D01*
X0285565Y0374835D01*
X0285503Y0374832D01*
X0285440Y0374833D01*
X0285378Y0374838D01*
X0285316Y0374847D01*
X0285255Y0374860D01*
X0285195Y0374876D01*
X0285136Y0374897D01*
X0285078Y0374921D01*
X0285022Y0374949D01*
X0284968Y0374980D01*
X0284916Y0375014D01*
X0284867Y0375052D01*
X0284819Y0375093D01*
X0284775Y0375137D01*
X0284733Y0375183D01*
X0284695Y0375233D01*
X0284659Y0375284D01*
X0284627Y0375338D01*
X0284599Y0375393D01*
X0284573Y0375450D01*
X0284552Y0375509D01*
X0284535Y0375569D01*
X0284521Y0375630D01*
X0284511Y0375691D01*
X0284505Y0375754D01*
X0284503Y0375816D01*
X0288440Y0375816D02*
X0288442Y0375878D01*
X0288448Y0375941D01*
X0288458Y0376002D01*
X0288472Y0376063D01*
X0288489Y0376123D01*
X0288510Y0376182D01*
X0288536Y0376239D01*
X0288564Y0376294D01*
X0288596Y0376348D01*
X0288632Y0376399D01*
X0288670Y0376449D01*
X0288712Y0376495D01*
X0288756Y0376539D01*
X0288804Y0376580D01*
X0288853Y0376618D01*
X0288905Y0376652D01*
X0288959Y0376683D01*
X0289015Y0376711D01*
X0289073Y0376735D01*
X0289132Y0376756D01*
X0289192Y0376772D01*
X0289253Y0376785D01*
X0289315Y0376794D01*
X0289377Y0376799D01*
X0289440Y0376800D01*
X0289502Y0376797D01*
X0289564Y0376790D01*
X0289626Y0376779D01*
X0289686Y0376764D01*
X0289746Y0376746D01*
X0289804Y0376724D01*
X0289861Y0376698D01*
X0289916Y0376668D01*
X0289969Y0376635D01*
X0290020Y0376599D01*
X0290068Y0376560D01*
X0290114Y0376517D01*
X0290157Y0376472D01*
X0290197Y0376424D01*
X0290234Y0376374D01*
X0290268Y0376321D01*
X0290299Y0376267D01*
X0290325Y0376211D01*
X0290349Y0376153D01*
X0290368Y0376093D01*
X0290384Y0376033D01*
X0290396Y0375971D01*
X0290404Y0375910D01*
X0290408Y0375847D01*
X0290408Y0375785D01*
X0290404Y0375722D01*
X0290396Y0375661D01*
X0290384Y0375599D01*
X0290368Y0375539D01*
X0290349Y0375479D01*
X0290325Y0375421D01*
X0290299Y0375365D01*
X0290268Y0375311D01*
X0290234Y0375258D01*
X0290197Y0375208D01*
X0290157Y0375160D01*
X0290114Y0375115D01*
X0290068Y0375072D01*
X0290020Y0375033D01*
X0289969Y0374997D01*
X0289916Y0374964D01*
X0289861Y0374934D01*
X0289804Y0374908D01*
X0289746Y0374886D01*
X0289686Y0374868D01*
X0289626Y0374853D01*
X0289564Y0374842D01*
X0289502Y0374835D01*
X0289440Y0374832D01*
X0289377Y0374833D01*
X0289315Y0374838D01*
X0289253Y0374847D01*
X0289192Y0374860D01*
X0289132Y0374876D01*
X0289073Y0374897D01*
X0289015Y0374921D01*
X0288959Y0374949D01*
X0288905Y0374980D01*
X0288853Y0375014D01*
X0288804Y0375052D01*
X0288756Y0375093D01*
X0288712Y0375137D01*
X0288670Y0375183D01*
X0288632Y0375233D01*
X0288596Y0375284D01*
X0288564Y0375338D01*
X0288536Y0375393D01*
X0288510Y0375450D01*
X0288489Y0375509D01*
X0288472Y0375569D01*
X0288458Y0375630D01*
X0288448Y0375691D01*
X0288442Y0375754D01*
X0288440Y0375816D01*
X0288440Y0371879D02*
X0288442Y0371941D01*
X0288448Y0372004D01*
X0288458Y0372065D01*
X0288472Y0372126D01*
X0288489Y0372186D01*
X0288510Y0372245D01*
X0288536Y0372302D01*
X0288564Y0372357D01*
X0288596Y0372411D01*
X0288632Y0372462D01*
X0288670Y0372512D01*
X0288712Y0372558D01*
X0288756Y0372602D01*
X0288804Y0372643D01*
X0288853Y0372681D01*
X0288905Y0372715D01*
X0288959Y0372746D01*
X0289015Y0372774D01*
X0289073Y0372798D01*
X0289132Y0372819D01*
X0289192Y0372835D01*
X0289253Y0372848D01*
X0289315Y0372857D01*
X0289377Y0372862D01*
X0289440Y0372863D01*
X0289502Y0372860D01*
X0289564Y0372853D01*
X0289626Y0372842D01*
X0289686Y0372827D01*
X0289746Y0372809D01*
X0289804Y0372787D01*
X0289861Y0372761D01*
X0289916Y0372731D01*
X0289969Y0372698D01*
X0290020Y0372662D01*
X0290068Y0372623D01*
X0290114Y0372580D01*
X0290157Y0372535D01*
X0290197Y0372487D01*
X0290234Y0372437D01*
X0290268Y0372384D01*
X0290299Y0372330D01*
X0290325Y0372274D01*
X0290349Y0372216D01*
X0290368Y0372156D01*
X0290384Y0372096D01*
X0290396Y0372034D01*
X0290404Y0371973D01*
X0290408Y0371910D01*
X0290408Y0371848D01*
X0290404Y0371785D01*
X0290396Y0371724D01*
X0290384Y0371662D01*
X0290368Y0371602D01*
X0290349Y0371542D01*
X0290325Y0371484D01*
X0290299Y0371428D01*
X0290268Y0371374D01*
X0290234Y0371321D01*
X0290197Y0371271D01*
X0290157Y0371223D01*
X0290114Y0371178D01*
X0290068Y0371135D01*
X0290020Y0371096D01*
X0289969Y0371060D01*
X0289916Y0371027D01*
X0289861Y0370997D01*
X0289804Y0370971D01*
X0289746Y0370949D01*
X0289686Y0370931D01*
X0289626Y0370916D01*
X0289564Y0370905D01*
X0289502Y0370898D01*
X0289440Y0370895D01*
X0289377Y0370896D01*
X0289315Y0370901D01*
X0289253Y0370910D01*
X0289192Y0370923D01*
X0289132Y0370939D01*
X0289073Y0370960D01*
X0289015Y0370984D01*
X0288959Y0371012D01*
X0288905Y0371043D01*
X0288853Y0371077D01*
X0288804Y0371115D01*
X0288756Y0371156D01*
X0288712Y0371200D01*
X0288670Y0371246D01*
X0288632Y0371296D01*
X0288596Y0371347D01*
X0288564Y0371401D01*
X0288536Y0371456D01*
X0288510Y0371513D01*
X0288489Y0371572D01*
X0288472Y0371632D01*
X0288458Y0371693D01*
X0288448Y0371754D01*
X0288442Y0371817D01*
X0288440Y0371879D01*
X0083715Y0371879D02*
X0083717Y0371941D01*
X0083723Y0372004D01*
X0083733Y0372065D01*
X0083747Y0372126D01*
X0083764Y0372186D01*
X0083785Y0372245D01*
X0083811Y0372302D01*
X0083839Y0372357D01*
X0083871Y0372411D01*
X0083907Y0372462D01*
X0083945Y0372512D01*
X0083987Y0372558D01*
X0084031Y0372602D01*
X0084079Y0372643D01*
X0084128Y0372681D01*
X0084180Y0372715D01*
X0084234Y0372746D01*
X0084290Y0372774D01*
X0084348Y0372798D01*
X0084407Y0372819D01*
X0084467Y0372835D01*
X0084528Y0372848D01*
X0084590Y0372857D01*
X0084652Y0372862D01*
X0084715Y0372863D01*
X0084777Y0372860D01*
X0084839Y0372853D01*
X0084901Y0372842D01*
X0084961Y0372827D01*
X0085021Y0372809D01*
X0085079Y0372787D01*
X0085136Y0372761D01*
X0085191Y0372731D01*
X0085244Y0372698D01*
X0085295Y0372662D01*
X0085343Y0372623D01*
X0085389Y0372580D01*
X0085432Y0372535D01*
X0085472Y0372487D01*
X0085509Y0372437D01*
X0085543Y0372384D01*
X0085574Y0372330D01*
X0085600Y0372274D01*
X0085624Y0372216D01*
X0085643Y0372156D01*
X0085659Y0372096D01*
X0085671Y0372034D01*
X0085679Y0371973D01*
X0085683Y0371910D01*
X0085683Y0371848D01*
X0085679Y0371785D01*
X0085671Y0371724D01*
X0085659Y0371662D01*
X0085643Y0371602D01*
X0085624Y0371542D01*
X0085600Y0371484D01*
X0085574Y0371428D01*
X0085543Y0371374D01*
X0085509Y0371321D01*
X0085472Y0371271D01*
X0085432Y0371223D01*
X0085389Y0371178D01*
X0085343Y0371135D01*
X0085295Y0371096D01*
X0085244Y0371060D01*
X0085191Y0371027D01*
X0085136Y0370997D01*
X0085079Y0370971D01*
X0085021Y0370949D01*
X0084961Y0370931D01*
X0084901Y0370916D01*
X0084839Y0370905D01*
X0084777Y0370898D01*
X0084715Y0370895D01*
X0084652Y0370896D01*
X0084590Y0370901D01*
X0084528Y0370910D01*
X0084467Y0370923D01*
X0084407Y0370939D01*
X0084348Y0370960D01*
X0084290Y0370984D01*
X0084234Y0371012D01*
X0084180Y0371043D01*
X0084128Y0371077D01*
X0084079Y0371115D01*
X0084031Y0371156D01*
X0083987Y0371200D01*
X0083945Y0371246D01*
X0083907Y0371296D01*
X0083871Y0371347D01*
X0083839Y0371401D01*
X0083811Y0371456D01*
X0083785Y0371513D01*
X0083764Y0371572D01*
X0083747Y0371632D01*
X0083733Y0371693D01*
X0083723Y0371754D01*
X0083717Y0371817D01*
X0083715Y0371879D01*
X0079778Y0371879D02*
X0079780Y0371941D01*
X0079786Y0372004D01*
X0079796Y0372065D01*
X0079810Y0372126D01*
X0079827Y0372186D01*
X0079848Y0372245D01*
X0079874Y0372302D01*
X0079902Y0372357D01*
X0079934Y0372411D01*
X0079970Y0372462D01*
X0080008Y0372512D01*
X0080050Y0372558D01*
X0080094Y0372602D01*
X0080142Y0372643D01*
X0080191Y0372681D01*
X0080243Y0372715D01*
X0080297Y0372746D01*
X0080353Y0372774D01*
X0080411Y0372798D01*
X0080470Y0372819D01*
X0080530Y0372835D01*
X0080591Y0372848D01*
X0080653Y0372857D01*
X0080715Y0372862D01*
X0080778Y0372863D01*
X0080840Y0372860D01*
X0080902Y0372853D01*
X0080964Y0372842D01*
X0081024Y0372827D01*
X0081084Y0372809D01*
X0081142Y0372787D01*
X0081199Y0372761D01*
X0081254Y0372731D01*
X0081307Y0372698D01*
X0081358Y0372662D01*
X0081406Y0372623D01*
X0081452Y0372580D01*
X0081495Y0372535D01*
X0081535Y0372487D01*
X0081572Y0372437D01*
X0081606Y0372384D01*
X0081637Y0372330D01*
X0081663Y0372274D01*
X0081687Y0372216D01*
X0081706Y0372156D01*
X0081722Y0372096D01*
X0081734Y0372034D01*
X0081742Y0371973D01*
X0081746Y0371910D01*
X0081746Y0371848D01*
X0081742Y0371785D01*
X0081734Y0371724D01*
X0081722Y0371662D01*
X0081706Y0371602D01*
X0081687Y0371542D01*
X0081663Y0371484D01*
X0081637Y0371428D01*
X0081606Y0371374D01*
X0081572Y0371321D01*
X0081535Y0371271D01*
X0081495Y0371223D01*
X0081452Y0371178D01*
X0081406Y0371135D01*
X0081358Y0371096D01*
X0081307Y0371060D01*
X0081254Y0371027D01*
X0081199Y0370997D01*
X0081142Y0370971D01*
X0081084Y0370949D01*
X0081024Y0370931D01*
X0080964Y0370916D01*
X0080902Y0370905D01*
X0080840Y0370898D01*
X0080778Y0370895D01*
X0080715Y0370896D01*
X0080653Y0370901D01*
X0080591Y0370910D01*
X0080530Y0370923D01*
X0080470Y0370939D01*
X0080411Y0370960D01*
X0080353Y0370984D01*
X0080297Y0371012D01*
X0080243Y0371043D01*
X0080191Y0371077D01*
X0080142Y0371115D01*
X0080094Y0371156D01*
X0080050Y0371200D01*
X0080008Y0371246D01*
X0079970Y0371296D01*
X0079934Y0371347D01*
X0079902Y0371401D01*
X0079874Y0371456D01*
X0079848Y0371513D01*
X0079827Y0371572D01*
X0079810Y0371632D01*
X0079796Y0371693D01*
X0079786Y0371754D01*
X0079780Y0371817D01*
X0079778Y0371879D01*
X0075841Y0371879D02*
X0075843Y0371941D01*
X0075849Y0372004D01*
X0075859Y0372065D01*
X0075873Y0372126D01*
X0075890Y0372186D01*
X0075911Y0372245D01*
X0075937Y0372302D01*
X0075965Y0372357D01*
X0075997Y0372411D01*
X0076033Y0372462D01*
X0076071Y0372512D01*
X0076113Y0372558D01*
X0076157Y0372602D01*
X0076205Y0372643D01*
X0076254Y0372681D01*
X0076306Y0372715D01*
X0076360Y0372746D01*
X0076416Y0372774D01*
X0076474Y0372798D01*
X0076533Y0372819D01*
X0076593Y0372835D01*
X0076654Y0372848D01*
X0076716Y0372857D01*
X0076778Y0372862D01*
X0076841Y0372863D01*
X0076903Y0372860D01*
X0076965Y0372853D01*
X0077027Y0372842D01*
X0077087Y0372827D01*
X0077147Y0372809D01*
X0077205Y0372787D01*
X0077262Y0372761D01*
X0077317Y0372731D01*
X0077370Y0372698D01*
X0077421Y0372662D01*
X0077469Y0372623D01*
X0077515Y0372580D01*
X0077558Y0372535D01*
X0077598Y0372487D01*
X0077635Y0372437D01*
X0077669Y0372384D01*
X0077700Y0372330D01*
X0077726Y0372274D01*
X0077750Y0372216D01*
X0077769Y0372156D01*
X0077785Y0372096D01*
X0077797Y0372034D01*
X0077805Y0371973D01*
X0077809Y0371910D01*
X0077809Y0371848D01*
X0077805Y0371785D01*
X0077797Y0371724D01*
X0077785Y0371662D01*
X0077769Y0371602D01*
X0077750Y0371542D01*
X0077726Y0371484D01*
X0077700Y0371428D01*
X0077669Y0371374D01*
X0077635Y0371321D01*
X0077598Y0371271D01*
X0077558Y0371223D01*
X0077515Y0371178D01*
X0077469Y0371135D01*
X0077421Y0371096D01*
X0077370Y0371060D01*
X0077317Y0371027D01*
X0077262Y0370997D01*
X0077205Y0370971D01*
X0077147Y0370949D01*
X0077087Y0370931D01*
X0077027Y0370916D01*
X0076965Y0370905D01*
X0076903Y0370898D01*
X0076841Y0370895D01*
X0076778Y0370896D01*
X0076716Y0370901D01*
X0076654Y0370910D01*
X0076593Y0370923D01*
X0076533Y0370939D01*
X0076474Y0370960D01*
X0076416Y0370984D01*
X0076360Y0371012D01*
X0076306Y0371043D01*
X0076254Y0371077D01*
X0076205Y0371115D01*
X0076157Y0371156D01*
X0076113Y0371200D01*
X0076071Y0371246D01*
X0076033Y0371296D01*
X0075997Y0371347D01*
X0075965Y0371401D01*
X0075937Y0371456D01*
X0075911Y0371513D01*
X0075890Y0371572D01*
X0075873Y0371632D01*
X0075859Y0371693D01*
X0075849Y0371754D01*
X0075843Y0371817D01*
X0075841Y0371879D01*
X0075841Y0375816D02*
X0075843Y0375878D01*
X0075849Y0375941D01*
X0075859Y0376002D01*
X0075873Y0376063D01*
X0075890Y0376123D01*
X0075911Y0376182D01*
X0075937Y0376239D01*
X0075965Y0376294D01*
X0075997Y0376348D01*
X0076033Y0376399D01*
X0076071Y0376449D01*
X0076113Y0376495D01*
X0076157Y0376539D01*
X0076205Y0376580D01*
X0076254Y0376618D01*
X0076306Y0376652D01*
X0076360Y0376683D01*
X0076416Y0376711D01*
X0076474Y0376735D01*
X0076533Y0376756D01*
X0076593Y0376772D01*
X0076654Y0376785D01*
X0076716Y0376794D01*
X0076778Y0376799D01*
X0076841Y0376800D01*
X0076903Y0376797D01*
X0076965Y0376790D01*
X0077027Y0376779D01*
X0077087Y0376764D01*
X0077147Y0376746D01*
X0077205Y0376724D01*
X0077262Y0376698D01*
X0077317Y0376668D01*
X0077370Y0376635D01*
X0077421Y0376599D01*
X0077469Y0376560D01*
X0077515Y0376517D01*
X0077558Y0376472D01*
X0077598Y0376424D01*
X0077635Y0376374D01*
X0077669Y0376321D01*
X0077700Y0376267D01*
X0077726Y0376211D01*
X0077750Y0376153D01*
X0077769Y0376093D01*
X0077785Y0376033D01*
X0077797Y0375971D01*
X0077805Y0375910D01*
X0077809Y0375847D01*
X0077809Y0375785D01*
X0077805Y0375722D01*
X0077797Y0375661D01*
X0077785Y0375599D01*
X0077769Y0375539D01*
X0077750Y0375479D01*
X0077726Y0375421D01*
X0077700Y0375365D01*
X0077669Y0375311D01*
X0077635Y0375258D01*
X0077598Y0375208D01*
X0077558Y0375160D01*
X0077515Y0375115D01*
X0077469Y0375072D01*
X0077421Y0375033D01*
X0077370Y0374997D01*
X0077317Y0374964D01*
X0077262Y0374934D01*
X0077205Y0374908D01*
X0077147Y0374886D01*
X0077087Y0374868D01*
X0077027Y0374853D01*
X0076965Y0374842D01*
X0076903Y0374835D01*
X0076841Y0374832D01*
X0076778Y0374833D01*
X0076716Y0374838D01*
X0076654Y0374847D01*
X0076593Y0374860D01*
X0076533Y0374876D01*
X0076474Y0374897D01*
X0076416Y0374921D01*
X0076360Y0374949D01*
X0076306Y0374980D01*
X0076254Y0375014D01*
X0076205Y0375052D01*
X0076157Y0375093D01*
X0076113Y0375137D01*
X0076071Y0375183D01*
X0076033Y0375233D01*
X0075997Y0375284D01*
X0075965Y0375338D01*
X0075937Y0375393D01*
X0075911Y0375450D01*
X0075890Y0375509D01*
X0075873Y0375569D01*
X0075859Y0375630D01*
X0075849Y0375691D01*
X0075843Y0375754D01*
X0075841Y0375816D01*
X0075841Y0379753D02*
X0075843Y0379815D01*
X0075849Y0379878D01*
X0075859Y0379939D01*
X0075873Y0380000D01*
X0075890Y0380060D01*
X0075911Y0380119D01*
X0075937Y0380176D01*
X0075965Y0380231D01*
X0075997Y0380285D01*
X0076033Y0380336D01*
X0076071Y0380386D01*
X0076113Y0380432D01*
X0076157Y0380476D01*
X0076205Y0380517D01*
X0076254Y0380555D01*
X0076306Y0380589D01*
X0076360Y0380620D01*
X0076416Y0380648D01*
X0076474Y0380672D01*
X0076533Y0380693D01*
X0076593Y0380709D01*
X0076654Y0380722D01*
X0076716Y0380731D01*
X0076778Y0380736D01*
X0076841Y0380737D01*
X0076903Y0380734D01*
X0076965Y0380727D01*
X0077027Y0380716D01*
X0077087Y0380701D01*
X0077147Y0380683D01*
X0077205Y0380661D01*
X0077262Y0380635D01*
X0077317Y0380605D01*
X0077370Y0380572D01*
X0077421Y0380536D01*
X0077469Y0380497D01*
X0077515Y0380454D01*
X0077558Y0380409D01*
X0077598Y0380361D01*
X0077635Y0380311D01*
X0077669Y0380258D01*
X0077700Y0380204D01*
X0077726Y0380148D01*
X0077750Y0380090D01*
X0077769Y0380030D01*
X0077785Y0379970D01*
X0077797Y0379908D01*
X0077805Y0379847D01*
X0077809Y0379784D01*
X0077809Y0379722D01*
X0077805Y0379659D01*
X0077797Y0379598D01*
X0077785Y0379536D01*
X0077769Y0379476D01*
X0077750Y0379416D01*
X0077726Y0379358D01*
X0077700Y0379302D01*
X0077669Y0379248D01*
X0077635Y0379195D01*
X0077598Y0379145D01*
X0077558Y0379097D01*
X0077515Y0379052D01*
X0077469Y0379009D01*
X0077421Y0378970D01*
X0077370Y0378934D01*
X0077317Y0378901D01*
X0077262Y0378871D01*
X0077205Y0378845D01*
X0077147Y0378823D01*
X0077087Y0378805D01*
X0077027Y0378790D01*
X0076965Y0378779D01*
X0076903Y0378772D01*
X0076841Y0378769D01*
X0076778Y0378770D01*
X0076716Y0378775D01*
X0076654Y0378784D01*
X0076593Y0378797D01*
X0076533Y0378813D01*
X0076474Y0378834D01*
X0076416Y0378858D01*
X0076360Y0378886D01*
X0076306Y0378917D01*
X0076254Y0378951D01*
X0076205Y0378989D01*
X0076157Y0379030D01*
X0076113Y0379074D01*
X0076071Y0379120D01*
X0076033Y0379170D01*
X0075997Y0379221D01*
X0075965Y0379275D01*
X0075937Y0379330D01*
X0075911Y0379387D01*
X0075890Y0379446D01*
X0075873Y0379506D01*
X0075859Y0379567D01*
X0075849Y0379628D01*
X0075843Y0379691D01*
X0075841Y0379753D01*
X0079778Y0379753D02*
X0079780Y0379815D01*
X0079786Y0379878D01*
X0079796Y0379939D01*
X0079810Y0380000D01*
X0079827Y0380060D01*
X0079848Y0380119D01*
X0079874Y0380176D01*
X0079902Y0380231D01*
X0079934Y0380285D01*
X0079970Y0380336D01*
X0080008Y0380386D01*
X0080050Y0380432D01*
X0080094Y0380476D01*
X0080142Y0380517D01*
X0080191Y0380555D01*
X0080243Y0380589D01*
X0080297Y0380620D01*
X0080353Y0380648D01*
X0080411Y0380672D01*
X0080470Y0380693D01*
X0080530Y0380709D01*
X0080591Y0380722D01*
X0080653Y0380731D01*
X0080715Y0380736D01*
X0080778Y0380737D01*
X0080840Y0380734D01*
X0080902Y0380727D01*
X0080964Y0380716D01*
X0081024Y0380701D01*
X0081084Y0380683D01*
X0081142Y0380661D01*
X0081199Y0380635D01*
X0081254Y0380605D01*
X0081307Y0380572D01*
X0081358Y0380536D01*
X0081406Y0380497D01*
X0081452Y0380454D01*
X0081495Y0380409D01*
X0081535Y0380361D01*
X0081572Y0380311D01*
X0081606Y0380258D01*
X0081637Y0380204D01*
X0081663Y0380148D01*
X0081687Y0380090D01*
X0081706Y0380030D01*
X0081722Y0379970D01*
X0081734Y0379908D01*
X0081742Y0379847D01*
X0081746Y0379784D01*
X0081746Y0379722D01*
X0081742Y0379659D01*
X0081734Y0379598D01*
X0081722Y0379536D01*
X0081706Y0379476D01*
X0081687Y0379416D01*
X0081663Y0379358D01*
X0081637Y0379302D01*
X0081606Y0379248D01*
X0081572Y0379195D01*
X0081535Y0379145D01*
X0081495Y0379097D01*
X0081452Y0379052D01*
X0081406Y0379009D01*
X0081358Y0378970D01*
X0081307Y0378934D01*
X0081254Y0378901D01*
X0081199Y0378871D01*
X0081142Y0378845D01*
X0081084Y0378823D01*
X0081024Y0378805D01*
X0080964Y0378790D01*
X0080902Y0378779D01*
X0080840Y0378772D01*
X0080778Y0378769D01*
X0080715Y0378770D01*
X0080653Y0378775D01*
X0080591Y0378784D01*
X0080530Y0378797D01*
X0080470Y0378813D01*
X0080411Y0378834D01*
X0080353Y0378858D01*
X0080297Y0378886D01*
X0080243Y0378917D01*
X0080191Y0378951D01*
X0080142Y0378989D01*
X0080094Y0379030D01*
X0080050Y0379074D01*
X0080008Y0379120D01*
X0079970Y0379170D01*
X0079934Y0379221D01*
X0079902Y0379275D01*
X0079874Y0379330D01*
X0079848Y0379387D01*
X0079827Y0379446D01*
X0079810Y0379506D01*
X0079796Y0379567D01*
X0079786Y0379628D01*
X0079780Y0379691D01*
X0079778Y0379753D01*
X0079778Y0375816D02*
X0079780Y0375878D01*
X0079786Y0375941D01*
X0079796Y0376002D01*
X0079810Y0376063D01*
X0079827Y0376123D01*
X0079848Y0376182D01*
X0079874Y0376239D01*
X0079902Y0376294D01*
X0079934Y0376348D01*
X0079970Y0376399D01*
X0080008Y0376449D01*
X0080050Y0376495D01*
X0080094Y0376539D01*
X0080142Y0376580D01*
X0080191Y0376618D01*
X0080243Y0376652D01*
X0080297Y0376683D01*
X0080353Y0376711D01*
X0080411Y0376735D01*
X0080470Y0376756D01*
X0080530Y0376772D01*
X0080591Y0376785D01*
X0080653Y0376794D01*
X0080715Y0376799D01*
X0080778Y0376800D01*
X0080840Y0376797D01*
X0080902Y0376790D01*
X0080964Y0376779D01*
X0081024Y0376764D01*
X0081084Y0376746D01*
X0081142Y0376724D01*
X0081199Y0376698D01*
X0081254Y0376668D01*
X0081307Y0376635D01*
X0081358Y0376599D01*
X0081406Y0376560D01*
X0081452Y0376517D01*
X0081495Y0376472D01*
X0081535Y0376424D01*
X0081572Y0376374D01*
X0081606Y0376321D01*
X0081637Y0376267D01*
X0081663Y0376211D01*
X0081687Y0376153D01*
X0081706Y0376093D01*
X0081722Y0376033D01*
X0081734Y0375971D01*
X0081742Y0375910D01*
X0081746Y0375847D01*
X0081746Y0375785D01*
X0081742Y0375722D01*
X0081734Y0375661D01*
X0081722Y0375599D01*
X0081706Y0375539D01*
X0081687Y0375479D01*
X0081663Y0375421D01*
X0081637Y0375365D01*
X0081606Y0375311D01*
X0081572Y0375258D01*
X0081535Y0375208D01*
X0081495Y0375160D01*
X0081452Y0375115D01*
X0081406Y0375072D01*
X0081358Y0375033D01*
X0081307Y0374997D01*
X0081254Y0374964D01*
X0081199Y0374934D01*
X0081142Y0374908D01*
X0081084Y0374886D01*
X0081024Y0374868D01*
X0080964Y0374853D01*
X0080902Y0374842D01*
X0080840Y0374835D01*
X0080778Y0374832D01*
X0080715Y0374833D01*
X0080653Y0374838D01*
X0080591Y0374847D01*
X0080530Y0374860D01*
X0080470Y0374876D01*
X0080411Y0374897D01*
X0080353Y0374921D01*
X0080297Y0374949D01*
X0080243Y0374980D01*
X0080191Y0375014D01*
X0080142Y0375052D01*
X0080094Y0375093D01*
X0080050Y0375137D01*
X0080008Y0375183D01*
X0079970Y0375233D01*
X0079934Y0375284D01*
X0079902Y0375338D01*
X0079874Y0375393D01*
X0079848Y0375450D01*
X0079827Y0375509D01*
X0079810Y0375569D01*
X0079796Y0375630D01*
X0079786Y0375691D01*
X0079780Y0375754D01*
X0079778Y0375816D01*
X0083715Y0375816D02*
X0083717Y0375878D01*
X0083723Y0375941D01*
X0083733Y0376002D01*
X0083747Y0376063D01*
X0083764Y0376123D01*
X0083785Y0376182D01*
X0083811Y0376239D01*
X0083839Y0376294D01*
X0083871Y0376348D01*
X0083907Y0376399D01*
X0083945Y0376449D01*
X0083987Y0376495D01*
X0084031Y0376539D01*
X0084079Y0376580D01*
X0084128Y0376618D01*
X0084180Y0376652D01*
X0084234Y0376683D01*
X0084290Y0376711D01*
X0084348Y0376735D01*
X0084407Y0376756D01*
X0084467Y0376772D01*
X0084528Y0376785D01*
X0084590Y0376794D01*
X0084652Y0376799D01*
X0084715Y0376800D01*
X0084777Y0376797D01*
X0084839Y0376790D01*
X0084901Y0376779D01*
X0084961Y0376764D01*
X0085021Y0376746D01*
X0085079Y0376724D01*
X0085136Y0376698D01*
X0085191Y0376668D01*
X0085244Y0376635D01*
X0085295Y0376599D01*
X0085343Y0376560D01*
X0085389Y0376517D01*
X0085432Y0376472D01*
X0085472Y0376424D01*
X0085509Y0376374D01*
X0085543Y0376321D01*
X0085574Y0376267D01*
X0085600Y0376211D01*
X0085624Y0376153D01*
X0085643Y0376093D01*
X0085659Y0376033D01*
X0085671Y0375971D01*
X0085679Y0375910D01*
X0085683Y0375847D01*
X0085683Y0375785D01*
X0085679Y0375722D01*
X0085671Y0375661D01*
X0085659Y0375599D01*
X0085643Y0375539D01*
X0085624Y0375479D01*
X0085600Y0375421D01*
X0085574Y0375365D01*
X0085543Y0375311D01*
X0085509Y0375258D01*
X0085472Y0375208D01*
X0085432Y0375160D01*
X0085389Y0375115D01*
X0085343Y0375072D01*
X0085295Y0375033D01*
X0085244Y0374997D01*
X0085191Y0374964D01*
X0085136Y0374934D01*
X0085079Y0374908D01*
X0085021Y0374886D01*
X0084961Y0374868D01*
X0084901Y0374853D01*
X0084839Y0374842D01*
X0084777Y0374835D01*
X0084715Y0374832D01*
X0084652Y0374833D01*
X0084590Y0374838D01*
X0084528Y0374847D01*
X0084467Y0374860D01*
X0084407Y0374876D01*
X0084348Y0374897D01*
X0084290Y0374921D01*
X0084234Y0374949D01*
X0084180Y0374980D01*
X0084128Y0375014D01*
X0084079Y0375052D01*
X0084031Y0375093D01*
X0083987Y0375137D01*
X0083945Y0375183D01*
X0083907Y0375233D01*
X0083871Y0375284D01*
X0083839Y0375338D01*
X0083811Y0375393D01*
X0083785Y0375450D01*
X0083764Y0375509D01*
X0083747Y0375569D01*
X0083733Y0375630D01*
X0083723Y0375691D01*
X0083717Y0375754D01*
X0083715Y0375816D01*
X0083715Y0379753D02*
X0083717Y0379815D01*
X0083723Y0379878D01*
X0083733Y0379939D01*
X0083747Y0380000D01*
X0083764Y0380060D01*
X0083785Y0380119D01*
X0083811Y0380176D01*
X0083839Y0380231D01*
X0083871Y0380285D01*
X0083907Y0380336D01*
X0083945Y0380386D01*
X0083987Y0380432D01*
X0084031Y0380476D01*
X0084079Y0380517D01*
X0084128Y0380555D01*
X0084180Y0380589D01*
X0084234Y0380620D01*
X0084290Y0380648D01*
X0084348Y0380672D01*
X0084407Y0380693D01*
X0084467Y0380709D01*
X0084528Y0380722D01*
X0084590Y0380731D01*
X0084652Y0380736D01*
X0084715Y0380737D01*
X0084777Y0380734D01*
X0084839Y0380727D01*
X0084901Y0380716D01*
X0084961Y0380701D01*
X0085021Y0380683D01*
X0085079Y0380661D01*
X0085136Y0380635D01*
X0085191Y0380605D01*
X0085244Y0380572D01*
X0085295Y0380536D01*
X0085343Y0380497D01*
X0085389Y0380454D01*
X0085432Y0380409D01*
X0085472Y0380361D01*
X0085509Y0380311D01*
X0085543Y0380258D01*
X0085574Y0380204D01*
X0085600Y0380148D01*
X0085624Y0380090D01*
X0085643Y0380030D01*
X0085659Y0379970D01*
X0085671Y0379908D01*
X0085679Y0379847D01*
X0085683Y0379784D01*
X0085683Y0379722D01*
X0085679Y0379659D01*
X0085671Y0379598D01*
X0085659Y0379536D01*
X0085643Y0379476D01*
X0085624Y0379416D01*
X0085600Y0379358D01*
X0085574Y0379302D01*
X0085543Y0379248D01*
X0085509Y0379195D01*
X0085472Y0379145D01*
X0085432Y0379097D01*
X0085389Y0379052D01*
X0085343Y0379009D01*
X0085295Y0378970D01*
X0085244Y0378934D01*
X0085191Y0378901D01*
X0085136Y0378871D01*
X0085079Y0378845D01*
X0085021Y0378823D01*
X0084961Y0378805D01*
X0084901Y0378790D01*
X0084839Y0378779D01*
X0084777Y0378772D01*
X0084715Y0378769D01*
X0084652Y0378770D01*
X0084590Y0378775D01*
X0084528Y0378784D01*
X0084467Y0378797D01*
X0084407Y0378813D01*
X0084348Y0378834D01*
X0084290Y0378858D01*
X0084234Y0378886D01*
X0084180Y0378917D01*
X0084128Y0378951D01*
X0084079Y0378989D01*
X0084031Y0379030D01*
X0083987Y0379074D01*
X0083945Y0379120D01*
X0083907Y0379170D01*
X0083871Y0379221D01*
X0083839Y0379275D01*
X0083811Y0379330D01*
X0083785Y0379387D01*
X0083764Y0379446D01*
X0083747Y0379506D01*
X0083733Y0379567D01*
X0083723Y0379628D01*
X0083717Y0379691D01*
X0083715Y0379753D01*
X0011471Y0388611D02*
X0011473Y0388742D01*
X0011479Y0388874D01*
X0011489Y0389005D01*
X0011503Y0389136D01*
X0011521Y0389266D01*
X0011543Y0389395D01*
X0011568Y0389524D01*
X0011598Y0389652D01*
X0011632Y0389779D01*
X0011669Y0389906D01*
X0011710Y0390030D01*
X0011755Y0390154D01*
X0011804Y0390276D01*
X0011856Y0390397D01*
X0011912Y0390515D01*
X0011972Y0390633D01*
X0012035Y0390748D01*
X0012102Y0390861D01*
X0012172Y0390973D01*
X0012245Y0391082D01*
X0012321Y0391188D01*
X0012401Y0391293D01*
X0012484Y0391395D01*
X0012570Y0391494D01*
X0012659Y0391591D01*
X0012751Y0391685D01*
X0012846Y0391776D01*
X0012943Y0391865D01*
X0013043Y0391950D01*
X0013146Y0392032D01*
X0013251Y0392111D01*
X0013358Y0392187D01*
X0013468Y0392259D01*
X0013580Y0392328D01*
X0013694Y0392394D01*
X0013809Y0392456D01*
X0013927Y0392515D01*
X0014046Y0392570D01*
X0014167Y0392622D01*
X0014290Y0392669D01*
X0014414Y0392713D01*
X0014539Y0392754D01*
X0014665Y0392790D01*
X0014793Y0392823D01*
X0014921Y0392851D01*
X0015050Y0392876D01*
X0015180Y0392897D01*
X0015310Y0392914D01*
X0015441Y0392927D01*
X0015572Y0392936D01*
X0015703Y0392941D01*
X0015835Y0392942D01*
X0015966Y0392939D01*
X0016098Y0392932D01*
X0016229Y0392921D01*
X0016359Y0392906D01*
X0016489Y0392887D01*
X0016619Y0392864D01*
X0016747Y0392838D01*
X0016875Y0392807D01*
X0017002Y0392772D01*
X0017128Y0392734D01*
X0017252Y0392692D01*
X0017376Y0392646D01*
X0017497Y0392596D01*
X0017617Y0392543D01*
X0017736Y0392486D01*
X0017853Y0392426D01*
X0017967Y0392362D01*
X0018080Y0392294D01*
X0018191Y0392223D01*
X0018300Y0392149D01*
X0018406Y0392072D01*
X0018510Y0391991D01*
X0018611Y0391908D01*
X0018710Y0391821D01*
X0018806Y0391731D01*
X0018899Y0391638D01*
X0018990Y0391543D01*
X0019077Y0391445D01*
X0019162Y0391344D01*
X0019243Y0391241D01*
X0019321Y0391135D01*
X0019396Y0391027D01*
X0019468Y0390917D01*
X0019536Y0390805D01*
X0019601Y0390691D01*
X0019662Y0390574D01*
X0019720Y0390456D01*
X0019774Y0390336D01*
X0019825Y0390215D01*
X0019872Y0390092D01*
X0019915Y0389968D01*
X0019954Y0389843D01*
X0019990Y0389716D01*
X0020021Y0389588D01*
X0020049Y0389460D01*
X0020073Y0389331D01*
X0020093Y0389201D01*
X0020109Y0389070D01*
X0020121Y0388939D01*
X0020129Y0388808D01*
X0020133Y0388677D01*
X0020133Y0388545D01*
X0020129Y0388414D01*
X0020121Y0388283D01*
X0020109Y0388152D01*
X0020093Y0388021D01*
X0020073Y0387891D01*
X0020049Y0387762D01*
X0020021Y0387634D01*
X0019990Y0387506D01*
X0019954Y0387379D01*
X0019915Y0387254D01*
X0019872Y0387130D01*
X0019825Y0387007D01*
X0019774Y0386886D01*
X0019720Y0386766D01*
X0019662Y0386648D01*
X0019601Y0386531D01*
X0019536Y0386417D01*
X0019468Y0386305D01*
X0019396Y0386195D01*
X0019321Y0386087D01*
X0019243Y0385981D01*
X0019162Y0385878D01*
X0019077Y0385777D01*
X0018990Y0385679D01*
X0018899Y0385584D01*
X0018806Y0385491D01*
X0018710Y0385401D01*
X0018611Y0385314D01*
X0018510Y0385231D01*
X0018406Y0385150D01*
X0018300Y0385073D01*
X0018191Y0384999D01*
X0018080Y0384928D01*
X0017968Y0384860D01*
X0017853Y0384796D01*
X0017736Y0384736D01*
X0017617Y0384679D01*
X0017497Y0384626D01*
X0017376Y0384576D01*
X0017252Y0384530D01*
X0017128Y0384488D01*
X0017002Y0384450D01*
X0016875Y0384415D01*
X0016747Y0384384D01*
X0016619Y0384358D01*
X0016489Y0384335D01*
X0016359Y0384316D01*
X0016229Y0384301D01*
X0016098Y0384290D01*
X0015966Y0384283D01*
X0015835Y0384280D01*
X0015703Y0384281D01*
X0015572Y0384286D01*
X0015441Y0384295D01*
X0015310Y0384308D01*
X0015180Y0384325D01*
X0015050Y0384346D01*
X0014921Y0384371D01*
X0014793Y0384399D01*
X0014665Y0384432D01*
X0014539Y0384468D01*
X0014414Y0384509D01*
X0014290Y0384553D01*
X0014167Y0384600D01*
X0014046Y0384652D01*
X0013927Y0384707D01*
X0013809Y0384766D01*
X0013694Y0384828D01*
X0013580Y0384894D01*
X0013468Y0384963D01*
X0013358Y0385035D01*
X0013251Y0385111D01*
X0013146Y0385190D01*
X0013043Y0385272D01*
X0012943Y0385357D01*
X0012846Y0385446D01*
X0012751Y0385537D01*
X0012659Y0385631D01*
X0012570Y0385728D01*
X0012484Y0385827D01*
X0012401Y0385929D01*
X0012321Y0386034D01*
X0012245Y0386140D01*
X0012172Y0386249D01*
X0012102Y0386361D01*
X0012035Y0386474D01*
X0011972Y0386589D01*
X0011912Y0386707D01*
X0011856Y0386825D01*
X0011804Y0386946D01*
X0011755Y0387068D01*
X0011710Y0387192D01*
X0011669Y0387316D01*
X0011632Y0387443D01*
X0011598Y0387570D01*
X0011568Y0387698D01*
X0011543Y0387827D01*
X0011521Y0387956D01*
X0011503Y0388086D01*
X0011489Y0388217D01*
X0011479Y0388348D01*
X0011473Y0388480D01*
X0011471Y0388611D01*
X0009503Y0356131D02*
X0009505Y0356289D01*
X0009511Y0356447D01*
X0009521Y0356605D01*
X0009535Y0356763D01*
X0009553Y0356920D01*
X0009574Y0357077D01*
X0009600Y0357233D01*
X0009630Y0357389D01*
X0009663Y0357544D01*
X0009701Y0357697D01*
X0009742Y0357850D01*
X0009787Y0358002D01*
X0009836Y0358153D01*
X0009889Y0358302D01*
X0009945Y0358450D01*
X0010005Y0358596D01*
X0010069Y0358741D01*
X0010137Y0358884D01*
X0010208Y0359026D01*
X0010282Y0359166D01*
X0010360Y0359303D01*
X0010442Y0359439D01*
X0010526Y0359573D01*
X0010615Y0359704D01*
X0010706Y0359833D01*
X0010801Y0359960D01*
X0010898Y0360085D01*
X0010999Y0360207D01*
X0011103Y0360326D01*
X0011210Y0360443D01*
X0011320Y0360557D01*
X0011433Y0360668D01*
X0011548Y0360777D01*
X0011666Y0360882D01*
X0011787Y0360984D01*
X0011910Y0361084D01*
X0012036Y0361180D01*
X0012164Y0361273D01*
X0012294Y0361363D01*
X0012427Y0361449D01*
X0012562Y0361533D01*
X0012698Y0361612D01*
X0012837Y0361689D01*
X0012978Y0361761D01*
X0013120Y0361831D01*
X0013264Y0361896D01*
X0013410Y0361958D01*
X0013557Y0362016D01*
X0013706Y0362071D01*
X0013856Y0362122D01*
X0014007Y0362169D01*
X0014159Y0362212D01*
X0014312Y0362251D01*
X0014467Y0362287D01*
X0014622Y0362318D01*
X0014778Y0362346D01*
X0014934Y0362370D01*
X0015091Y0362390D01*
X0015249Y0362406D01*
X0015406Y0362418D01*
X0015565Y0362426D01*
X0015723Y0362430D01*
X0015881Y0362430D01*
X0016039Y0362426D01*
X0016198Y0362418D01*
X0016355Y0362406D01*
X0016513Y0362390D01*
X0016670Y0362370D01*
X0016826Y0362346D01*
X0016982Y0362318D01*
X0017137Y0362287D01*
X0017292Y0362251D01*
X0017445Y0362212D01*
X0017597Y0362169D01*
X0017748Y0362122D01*
X0017898Y0362071D01*
X0018047Y0362016D01*
X0018194Y0361958D01*
X0018340Y0361896D01*
X0018484Y0361831D01*
X0018626Y0361761D01*
X0018767Y0361689D01*
X0018906Y0361612D01*
X0019042Y0361533D01*
X0019177Y0361449D01*
X0019310Y0361363D01*
X0019440Y0361273D01*
X0019568Y0361180D01*
X0019694Y0361084D01*
X0019817Y0360984D01*
X0019938Y0360882D01*
X0020056Y0360777D01*
X0020171Y0360668D01*
X0020284Y0360557D01*
X0020394Y0360443D01*
X0020501Y0360326D01*
X0020605Y0360207D01*
X0020706Y0360085D01*
X0020803Y0359960D01*
X0020898Y0359833D01*
X0020989Y0359704D01*
X0021078Y0359573D01*
X0021162Y0359439D01*
X0021244Y0359303D01*
X0021322Y0359166D01*
X0021396Y0359026D01*
X0021467Y0358884D01*
X0021535Y0358741D01*
X0021599Y0358596D01*
X0021659Y0358450D01*
X0021715Y0358302D01*
X0021768Y0358153D01*
X0021817Y0358002D01*
X0021862Y0357850D01*
X0021903Y0357697D01*
X0021941Y0357544D01*
X0021974Y0357389D01*
X0022004Y0357233D01*
X0022030Y0357077D01*
X0022051Y0356920D01*
X0022069Y0356763D01*
X0022083Y0356605D01*
X0022093Y0356447D01*
X0022099Y0356289D01*
X0022101Y0356131D01*
X0022099Y0355973D01*
X0022093Y0355815D01*
X0022083Y0355657D01*
X0022069Y0355499D01*
X0022051Y0355342D01*
X0022030Y0355185D01*
X0022004Y0355029D01*
X0021974Y0354873D01*
X0021941Y0354718D01*
X0021903Y0354565D01*
X0021862Y0354412D01*
X0021817Y0354260D01*
X0021768Y0354109D01*
X0021715Y0353960D01*
X0021659Y0353812D01*
X0021599Y0353666D01*
X0021535Y0353521D01*
X0021467Y0353378D01*
X0021396Y0353236D01*
X0021322Y0353096D01*
X0021244Y0352959D01*
X0021162Y0352823D01*
X0021078Y0352689D01*
X0020989Y0352558D01*
X0020898Y0352429D01*
X0020803Y0352302D01*
X0020706Y0352177D01*
X0020605Y0352055D01*
X0020501Y0351936D01*
X0020394Y0351819D01*
X0020284Y0351705D01*
X0020171Y0351594D01*
X0020056Y0351485D01*
X0019938Y0351380D01*
X0019817Y0351278D01*
X0019694Y0351178D01*
X0019568Y0351082D01*
X0019440Y0350989D01*
X0019310Y0350899D01*
X0019177Y0350813D01*
X0019042Y0350729D01*
X0018906Y0350650D01*
X0018767Y0350573D01*
X0018626Y0350501D01*
X0018484Y0350431D01*
X0018340Y0350366D01*
X0018194Y0350304D01*
X0018047Y0350246D01*
X0017898Y0350191D01*
X0017748Y0350140D01*
X0017597Y0350093D01*
X0017445Y0350050D01*
X0017292Y0350011D01*
X0017137Y0349975D01*
X0016982Y0349944D01*
X0016826Y0349916D01*
X0016670Y0349892D01*
X0016513Y0349872D01*
X0016355Y0349856D01*
X0016198Y0349844D01*
X0016039Y0349836D01*
X0015881Y0349832D01*
X0015723Y0349832D01*
X0015565Y0349836D01*
X0015406Y0349844D01*
X0015249Y0349856D01*
X0015091Y0349872D01*
X0014934Y0349892D01*
X0014778Y0349916D01*
X0014622Y0349944D01*
X0014467Y0349975D01*
X0014312Y0350011D01*
X0014159Y0350050D01*
X0014007Y0350093D01*
X0013856Y0350140D01*
X0013706Y0350191D01*
X0013557Y0350246D01*
X0013410Y0350304D01*
X0013264Y0350366D01*
X0013120Y0350431D01*
X0012978Y0350501D01*
X0012837Y0350573D01*
X0012698Y0350650D01*
X0012562Y0350729D01*
X0012427Y0350813D01*
X0012294Y0350899D01*
X0012164Y0350989D01*
X0012036Y0351082D01*
X0011910Y0351178D01*
X0011787Y0351278D01*
X0011666Y0351380D01*
X0011548Y0351485D01*
X0011433Y0351594D01*
X0011320Y0351705D01*
X0011210Y0351819D01*
X0011103Y0351936D01*
X0010999Y0352055D01*
X0010898Y0352177D01*
X0010801Y0352302D01*
X0010706Y0352429D01*
X0010615Y0352558D01*
X0010526Y0352689D01*
X0010442Y0352823D01*
X0010360Y0352959D01*
X0010282Y0353096D01*
X0010208Y0353236D01*
X0010137Y0353378D01*
X0010069Y0353521D01*
X0010005Y0353666D01*
X0009945Y0353812D01*
X0009889Y0353960D01*
X0009836Y0354109D01*
X0009787Y0354260D01*
X0009742Y0354412D01*
X0009701Y0354565D01*
X0009663Y0354718D01*
X0009630Y0354873D01*
X0009600Y0355029D01*
X0009574Y0355185D01*
X0009553Y0355342D01*
X0009535Y0355499D01*
X0009521Y0355657D01*
X0009511Y0355815D01*
X0009505Y0355973D01*
X0009503Y0356131D01*
D11*
X0002022Y0015580D02*
X0002022Y0001800D01*
X0364227Y0001800D01*
X0364227Y0015580D01*
X0293361Y0015580D01*
X0293361Y0027391D01*
X0364227Y0027391D01*
X0364227Y0369910D01*
X0293361Y0369910D01*
X0293361Y0381721D01*
X0364227Y0381721D01*
X0364227Y0395501D01*
X0002022Y0395501D01*
X0002022Y0381721D01*
X0072888Y0381721D01*
X0072888Y0369910D01*
X0002022Y0369910D01*
X0002022Y0027391D01*
X0072888Y0027391D01*
X0072888Y0015580D01*
X0002022Y0015580D01*
X0088636Y0015580D02*
X0088636Y0027391D01*
X0277613Y0027391D01*
X0277613Y0015580D01*
X0088636Y0015580D01*
X0088636Y0369910D02*
X0088636Y0381721D01*
X0277613Y0381721D01*
X0277613Y0369910D01*
X0088636Y0369910D01*
D12*
X0094542Y0375816D02*
X0271707Y0375816D01*
X0271707Y0021485D02*
X0094542Y0021485D01*
M02*
