G75*
%MOIN*%
%OFA0B0*%
%FSLAX25Y25*%
%IPPOS*%
%LPD*%
%AMOC8*
5,1,8,0,0,1.08239X$1,22.5*
%
%ADD10R,0.07400X0.07400*%
%ADD11C,0.07087*%
%ADD12R,0.07087X0.07087*%
%ADD13C,0.07400*%
%ADD14C,0.07087*%
%ADD15R,0.35000X0.05000*%
%ADD16C,0.01600*%
%ADD17C,0.07000*%
D10*
X0018125Y0053650D03*
X0018125Y0063650D03*
X0018125Y0073650D03*
X0018125Y0083650D03*
X0018125Y0103650D03*
X0018125Y0113650D03*
X0028125Y0113650D03*
X0028125Y0103650D03*
X0028125Y0123650D03*
X0028125Y0133650D03*
X0028125Y0143650D03*
X0028125Y0153650D03*
X0028125Y0163650D03*
X0028125Y0173650D03*
X0028125Y0183650D03*
X0028125Y0193650D03*
X0028125Y0203650D03*
X0028125Y0213650D03*
X0028125Y0223650D03*
X0028125Y0233650D03*
X0028125Y0243650D03*
X0028125Y0253650D03*
X0028125Y0263650D03*
X0028125Y0273650D03*
X0028125Y0283650D03*
X0028125Y0293650D03*
X0018125Y0293650D03*
X0018125Y0283650D03*
X0018125Y0273650D03*
X0018125Y0263650D03*
X0018125Y0253650D03*
X0018125Y0243650D03*
X0018125Y0233650D03*
X0018125Y0223650D03*
X0018125Y0213650D03*
X0018125Y0203650D03*
X0018125Y0193650D03*
X0018125Y0183650D03*
X0018125Y0173650D03*
X0018125Y0163650D03*
X0018125Y0153650D03*
X0018125Y0143650D03*
X0018125Y0133650D03*
X0018125Y0123650D03*
X0048125Y0123650D03*
X0058125Y0123650D03*
X0058125Y0133650D03*
X0048125Y0133650D03*
X0048125Y0143650D03*
X0058125Y0143650D03*
X0058125Y0153650D03*
X0048125Y0153650D03*
X0048125Y0163650D03*
X0058125Y0163650D03*
X0058125Y0173650D03*
X0048125Y0173650D03*
X0048125Y0183650D03*
X0058125Y0183650D03*
X0058125Y0193650D03*
X0048125Y0193650D03*
X0048125Y0203650D03*
X0058125Y0203650D03*
X0058125Y0213650D03*
X0048125Y0213650D03*
X0048125Y0223650D03*
X0058125Y0223650D03*
X0058125Y0233650D03*
X0048125Y0233650D03*
X0048125Y0243650D03*
X0058125Y0243650D03*
X0058125Y0253650D03*
X0048125Y0253650D03*
X0048125Y0263650D03*
X0058125Y0263650D03*
X0058125Y0273650D03*
X0048125Y0273650D03*
X0048125Y0283650D03*
X0058125Y0283650D03*
X0058125Y0293650D03*
X0048125Y0293650D03*
X0068125Y0293650D03*
X0068125Y0283650D03*
X0078125Y0283650D03*
X0078125Y0293650D03*
X0078125Y0273650D03*
X0078125Y0263650D03*
X0078125Y0253650D03*
X0078125Y0243650D03*
X0078125Y0233650D03*
X0078125Y0223650D03*
X0078125Y0213650D03*
X0078125Y0203650D03*
X0078125Y0193650D03*
X0078125Y0183650D03*
X0078125Y0173650D03*
X0078125Y0163650D03*
X0078125Y0153650D03*
X0078125Y0143650D03*
X0078125Y0133650D03*
X0078125Y0123650D03*
X0078125Y0113650D03*
X0078125Y0103650D03*
X0068125Y0103650D03*
X0068125Y0113650D03*
X0068125Y0123650D03*
X0068125Y0133650D03*
X0068125Y0143650D03*
X0068125Y0153650D03*
X0068125Y0163650D03*
X0068125Y0173650D03*
X0068125Y0183650D03*
X0068125Y0193650D03*
X0068125Y0203650D03*
X0068125Y0213650D03*
X0068125Y0223650D03*
X0068125Y0233650D03*
X0068125Y0243650D03*
X0068125Y0253650D03*
X0068125Y0263650D03*
X0068125Y0273650D03*
X0128125Y0273650D03*
X0128125Y0263650D03*
X0138125Y0263650D03*
X0138125Y0273650D03*
X0148125Y0273650D03*
X0148125Y0263650D03*
X0158125Y0263650D03*
X0158125Y0273650D03*
X0158125Y0283650D03*
X0158125Y0293650D03*
X0148125Y0293650D03*
X0148125Y0283650D03*
X0138125Y0283650D03*
X0138125Y0293650D03*
X0128125Y0293650D03*
X0128125Y0283650D03*
X0128125Y0253650D03*
X0128125Y0243650D03*
X0138125Y0243650D03*
X0138125Y0253650D03*
X0148125Y0253650D03*
X0148125Y0243650D03*
X0158125Y0243650D03*
X0158125Y0253650D03*
X0178125Y0253650D03*
X0178125Y0243650D03*
X0188125Y0243650D03*
X0188125Y0253650D03*
X0198125Y0253650D03*
X0208125Y0253650D03*
X0208125Y0243650D03*
X0198125Y0243650D03*
X0198125Y0233650D03*
X0208125Y0233650D03*
X0208125Y0223650D03*
X0198125Y0223650D03*
X0198125Y0213650D03*
X0208125Y0213650D03*
X0208125Y0203650D03*
X0198125Y0203650D03*
X0198125Y0193650D03*
X0208125Y0193650D03*
X0208125Y0183650D03*
X0198125Y0183650D03*
X0198125Y0173650D03*
X0208125Y0173650D03*
X0208125Y0163650D03*
X0198125Y0163650D03*
X0198125Y0153650D03*
X0208125Y0153650D03*
X0208125Y0143650D03*
X0198125Y0143650D03*
X0198125Y0133650D03*
X0208125Y0133650D03*
X0208125Y0123650D03*
X0198125Y0123650D03*
X0198125Y0113650D03*
X0208125Y0113650D03*
X0208125Y0103650D03*
X0198125Y0103650D03*
X0188125Y0103650D03*
X0188125Y0113650D03*
X0188125Y0123650D03*
X0188125Y0133650D03*
X0188125Y0143650D03*
X0188125Y0153650D03*
X0188125Y0163650D03*
X0188125Y0173650D03*
X0188125Y0183650D03*
X0188125Y0193650D03*
X0188125Y0203650D03*
X0188125Y0213650D03*
X0188125Y0223650D03*
X0188125Y0233650D03*
X0178125Y0233650D03*
X0178125Y0223650D03*
X0178125Y0213650D03*
X0178125Y0203650D03*
X0178125Y0193650D03*
X0178125Y0183650D03*
X0178125Y0173650D03*
X0178125Y0163650D03*
X0178125Y0153650D03*
X0178125Y0143650D03*
X0178125Y0133650D03*
X0178125Y0123650D03*
X0178125Y0113650D03*
X0178125Y0103650D03*
X0158125Y0103650D03*
X0158125Y0113650D03*
X0158125Y0123650D03*
X0158125Y0133650D03*
X0158125Y0143650D03*
X0158125Y0153650D03*
X0158125Y0163650D03*
X0158125Y0173650D03*
X0158125Y0183650D03*
X0158125Y0193650D03*
X0158125Y0203650D03*
X0158125Y0213650D03*
X0158125Y0223650D03*
X0158125Y0233650D03*
X0148125Y0233650D03*
X0148125Y0223650D03*
X0148125Y0213650D03*
X0148125Y0203650D03*
X0148125Y0193650D03*
X0148125Y0183650D03*
X0148125Y0173650D03*
X0148125Y0163650D03*
X0148125Y0153650D03*
X0148125Y0143650D03*
X0148125Y0133650D03*
X0148125Y0123650D03*
X0148125Y0113650D03*
X0148125Y0103650D03*
X0138125Y0103650D03*
X0138125Y0113650D03*
X0138125Y0123650D03*
X0138125Y0133650D03*
X0138125Y0143650D03*
X0138125Y0153650D03*
X0138125Y0163650D03*
X0138125Y0173650D03*
X0138125Y0183650D03*
X0138125Y0193650D03*
X0138125Y0203650D03*
X0138125Y0213650D03*
X0138125Y0223650D03*
X0138125Y0233650D03*
X0128125Y0233650D03*
X0128125Y0223650D03*
X0128125Y0213650D03*
X0128125Y0203650D03*
X0128125Y0193650D03*
X0128125Y0183650D03*
X0128125Y0173650D03*
X0128125Y0163650D03*
X0128125Y0153650D03*
X0128125Y0143650D03*
X0128125Y0133650D03*
X0128125Y0123650D03*
X0128125Y0113650D03*
X0128125Y0103650D03*
X0058125Y0103650D03*
X0058125Y0113650D03*
X0048125Y0113650D03*
X0048125Y0103650D03*
X0178125Y0263650D03*
X0178125Y0273650D03*
X0188125Y0273650D03*
X0188125Y0263650D03*
X0198125Y0263650D03*
X0208125Y0263650D03*
X0208125Y0273650D03*
X0198125Y0273650D03*
X0198125Y0283650D03*
X0208125Y0283650D03*
X0208125Y0293650D03*
X0198125Y0293650D03*
X0188125Y0293650D03*
X0188125Y0283650D03*
X0178125Y0283650D03*
X0178125Y0293650D03*
X0258125Y0293650D03*
X0258125Y0283650D03*
X0268125Y0283650D03*
X0278125Y0283650D03*
X0278125Y0293650D03*
X0268125Y0293650D03*
X0288125Y0293650D03*
X0288125Y0283650D03*
X0288125Y0273650D03*
X0288125Y0263650D03*
X0288125Y0253650D03*
X0288125Y0243650D03*
X0288125Y0233650D03*
X0288125Y0223650D03*
X0288125Y0213650D03*
X0288125Y0203650D03*
X0288125Y0193650D03*
X0288125Y0183650D03*
X0288125Y0173650D03*
X0288125Y0163650D03*
X0288125Y0153650D03*
X0288125Y0143650D03*
X0288125Y0133650D03*
X0288125Y0123650D03*
X0288125Y0113650D03*
X0288125Y0103650D03*
X0278125Y0103650D03*
X0278125Y0113650D03*
X0268125Y0113650D03*
X0268125Y0103650D03*
X0258125Y0103650D03*
X0258125Y0113650D03*
X0258125Y0123650D03*
X0258125Y0133650D03*
X0268125Y0133650D03*
X0278125Y0133650D03*
X0278125Y0123650D03*
X0268125Y0123650D03*
X0268125Y0143650D03*
X0278125Y0143650D03*
X0278125Y0153650D03*
X0268125Y0153650D03*
X0268125Y0163650D03*
X0278125Y0163650D03*
X0278125Y0173650D03*
X0268125Y0173650D03*
X0268125Y0183650D03*
X0278125Y0183650D03*
X0278125Y0193650D03*
X0268125Y0193650D03*
X0268125Y0203650D03*
X0278125Y0203650D03*
X0278125Y0213650D03*
X0268125Y0213650D03*
X0268125Y0223650D03*
X0278125Y0223650D03*
X0278125Y0233650D03*
X0268125Y0233650D03*
X0268125Y0243650D03*
X0278125Y0243650D03*
X0278125Y0253650D03*
X0268125Y0253650D03*
X0268125Y0263650D03*
X0278125Y0263650D03*
X0278125Y0273650D03*
X0268125Y0273650D03*
X0258125Y0273650D03*
X0258125Y0263650D03*
X0258125Y0253650D03*
X0258125Y0243650D03*
X0258125Y0233650D03*
X0258125Y0223650D03*
X0258125Y0213650D03*
X0258125Y0203650D03*
X0258125Y0193650D03*
X0258125Y0183650D03*
X0258125Y0173650D03*
X0258125Y0163650D03*
X0258125Y0153650D03*
X0258125Y0143650D03*
X0308125Y0143650D03*
X0318125Y0143650D03*
X0318125Y0153650D03*
X0308125Y0153650D03*
X0308125Y0163650D03*
X0318125Y0163650D03*
X0318125Y0173650D03*
X0308125Y0173650D03*
X0308125Y0183650D03*
X0318125Y0183650D03*
X0318125Y0193650D03*
X0308125Y0193650D03*
X0308125Y0203650D03*
X0318125Y0203650D03*
X0318125Y0213650D03*
X0308125Y0213650D03*
X0308125Y0223650D03*
X0318125Y0223650D03*
X0318125Y0233650D03*
X0308125Y0233650D03*
X0308125Y0243650D03*
X0318125Y0243650D03*
X0318125Y0253650D03*
X0308125Y0253650D03*
X0308125Y0263650D03*
X0318125Y0263650D03*
X0318125Y0273650D03*
X0308125Y0273650D03*
X0308125Y0283650D03*
X0318125Y0283650D03*
X0318125Y0293650D03*
X0308125Y0293650D03*
X0338125Y0293650D03*
X0338125Y0283650D03*
X0348125Y0283650D03*
X0348125Y0293650D03*
X0348125Y0273650D03*
X0348125Y0263650D03*
X0348125Y0253650D03*
X0348125Y0243650D03*
X0348125Y0233650D03*
X0348125Y0223650D03*
X0348125Y0213650D03*
X0348125Y0203650D03*
X0348125Y0193650D03*
X0348125Y0183650D03*
X0348125Y0173650D03*
X0348125Y0163650D03*
X0348125Y0153650D03*
X0348125Y0143650D03*
X0348125Y0133650D03*
X0348125Y0123650D03*
X0348125Y0113650D03*
X0348125Y0103650D03*
X0338125Y0103650D03*
X0338125Y0113650D03*
X0338125Y0123650D03*
X0338125Y0133650D03*
X0338125Y0143650D03*
X0338125Y0153650D03*
X0338125Y0163650D03*
X0338125Y0173650D03*
X0338125Y0183650D03*
X0338125Y0193650D03*
X0338125Y0203650D03*
X0338125Y0213650D03*
X0338125Y0223650D03*
X0338125Y0233650D03*
X0338125Y0243650D03*
X0338125Y0253650D03*
X0338125Y0263650D03*
X0338125Y0273650D03*
X0318125Y0133650D03*
X0318125Y0123650D03*
X0308125Y0123650D03*
X0308125Y0133650D03*
X0308125Y0113650D03*
X0318125Y0113650D03*
X0318125Y0103650D03*
X0308125Y0103650D03*
D11*
X0303125Y0083650D03*
X0283125Y0083650D03*
X0263125Y0083650D03*
X0243125Y0083650D03*
X0223125Y0083650D03*
X0203125Y0083650D03*
X0183125Y0083650D03*
X0163125Y0083650D03*
X0143125Y0083650D03*
X0123125Y0083650D03*
X0103125Y0083650D03*
X0083125Y0083650D03*
X0083125Y0313650D03*
X0063125Y0313650D03*
X0103125Y0313650D03*
X0123125Y0313650D03*
X0143125Y0313650D03*
X0163125Y0313650D03*
X0183125Y0313650D03*
X0203125Y0313650D03*
X0223125Y0313650D03*
X0243125Y0313650D03*
X0263125Y0313650D03*
X0283125Y0313650D03*
D12*
X0303125Y0313650D03*
X0303125Y0328650D03*
X0303125Y0348650D03*
X0063125Y0083650D03*
X0063125Y0068650D03*
X0063125Y0048650D03*
D13*
X0048125Y0053650D03*
X0048125Y0063650D03*
X0048125Y0073650D03*
X0048125Y0083650D03*
X0038125Y0083650D03*
X0038125Y0073650D03*
X0038125Y0063650D03*
X0038125Y0053650D03*
X0028125Y0053650D03*
X0028125Y0063650D03*
X0028125Y0073650D03*
X0028125Y0083650D03*
D14*
X0083125Y0072194D02*
X0083125Y0065107D01*
X0083125Y0052194D02*
X0083125Y0045107D01*
X0103125Y0045107D02*
X0103125Y0052194D01*
X0103125Y0065107D02*
X0103125Y0072194D01*
X0123125Y0072194D02*
X0123125Y0065107D01*
X0123125Y0052194D02*
X0123125Y0045107D01*
X0143125Y0045107D02*
X0143125Y0052194D01*
X0143125Y0065107D02*
X0143125Y0072194D01*
X0163125Y0072194D02*
X0163125Y0065107D01*
X0163125Y0052194D02*
X0163125Y0045107D01*
X0183125Y0045107D02*
X0183125Y0052194D01*
X0183125Y0065107D02*
X0183125Y0072194D01*
X0203125Y0072194D02*
X0203125Y0065107D01*
X0203125Y0052194D02*
X0203125Y0045107D01*
X0223125Y0045107D02*
X0223125Y0052194D01*
X0223125Y0065107D02*
X0223125Y0072194D01*
X0243125Y0072194D02*
X0243125Y0065107D01*
X0243125Y0052194D02*
X0243125Y0045107D01*
X0263125Y0045107D02*
X0263125Y0052194D01*
X0263125Y0065107D02*
X0263125Y0072194D01*
X0283125Y0072194D02*
X0283125Y0065107D01*
X0283125Y0052194D02*
X0283125Y0045107D01*
X0303125Y0045107D02*
X0303125Y0052194D01*
X0303125Y0065107D02*
X0303125Y0072194D01*
X0283125Y0325107D02*
X0283125Y0332194D01*
X0283125Y0345107D02*
X0283125Y0352194D01*
X0263125Y0352194D02*
X0263125Y0345107D01*
X0263125Y0332194D02*
X0263125Y0325107D01*
X0243125Y0325107D02*
X0243125Y0332194D01*
X0243125Y0345107D02*
X0243125Y0352194D01*
X0223125Y0352194D02*
X0223125Y0345107D01*
X0223125Y0332194D02*
X0223125Y0325107D01*
X0203125Y0325107D02*
X0203125Y0332194D01*
X0203125Y0345107D02*
X0203125Y0352194D01*
X0183125Y0352194D02*
X0183125Y0345107D01*
X0183125Y0332194D02*
X0183125Y0325107D01*
X0163125Y0325107D02*
X0163125Y0332194D01*
X0163125Y0345107D02*
X0163125Y0352194D01*
X0143125Y0352194D02*
X0143125Y0345107D01*
X0143125Y0332194D02*
X0143125Y0325107D01*
X0123125Y0325107D02*
X0123125Y0332194D01*
X0123125Y0345107D02*
X0123125Y0352194D01*
X0103125Y0352194D02*
X0103125Y0345107D01*
X0103125Y0332194D02*
X0103125Y0325107D01*
X0083125Y0325107D02*
X0083125Y0332194D01*
X0083125Y0345107D02*
X0083125Y0352194D01*
X0063125Y0352194D02*
X0063125Y0345107D01*
X0063125Y0332194D02*
X0063125Y0325107D01*
D15*
X0063125Y0293650D03*
X0063125Y0283650D03*
X0063125Y0273650D03*
X0063125Y0263650D03*
X0063125Y0253650D03*
X0063125Y0243650D03*
X0063125Y0233650D03*
X0063125Y0223650D03*
X0063125Y0213650D03*
X0063125Y0203650D03*
X0063125Y0193650D03*
X0063125Y0183650D03*
X0063125Y0173650D03*
X0063125Y0163650D03*
X0063125Y0153650D03*
X0063125Y0143650D03*
X0063125Y0133650D03*
X0063125Y0123650D03*
X0063125Y0113650D03*
X0063125Y0103650D03*
X0143125Y0103650D03*
X0143125Y0113650D03*
X0143125Y0123650D03*
X0143125Y0133650D03*
X0143125Y0143650D03*
X0143125Y0153650D03*
X0143125Y0163650D03*
X0143125Y0173650D03*
X0143125Y0183650D03*
X0143125Y0193650D03*
X0143125Y0203650D03*
X0143125Y0213650D03*
X0143125Y0223650D03*
X0143125Y0233650D03*
X0143125Y0243650D03*
X0143125Y0253650D03*
X0143125Y0263650D03*
X0143125Y0273650D03*
X0143125Y0283650D03*
X0143125Y0293650D03*
X0193125Y0293650D03*
X0193125Y0283650D03*
X0193125Y0273650D03*
X0193125Y0263650D03*
X0193125Y0253650D03*
X0193125Y0243650D03*
X0193125Y0233650D03*
X0193125Y0223650D03*
X0193125Y0213650D03*
X0193125Y0203650D03*
X0193125Y0193650D03*
X0193125Y0183650D03*
X0193125Y0173650D03*
X0193125Y0163650D03*
X0193125Y0153650D03*
X0193125Y0143650D03*
X0193125Y0133650D03*
X0193125Y0123650D03*
X0193125Y0113650D03*
X0193125Y0103650D03*
X0273125Y0103650D03*
X0273125Y0113650D03*
X0273125Y0123650D03*
X0273125Y0133650D03*
X0273125Y0143650D03*
X0273125Y0153650D03*
X0273125Y0163650D03*
X0273125Y0173650D03*
X0273125Y0183650D03*
X0273125Y0193650D03*
X0273125Y0203650D03*
X0273125Y0213650D03*
X0273125Y0223650D03*
X0273125Y0233650D03*
X0273125Y0243650D03*
X0273125Y0253650D03*
X0273125Y0263650D03*
X0273125Y0273650D03*
X0273125Y0283650D03*
X0273125Y0293650D03*
D16*
X0268125Y0293650D01*
X0268125Y0283650D02*
X0273125Y0283650D01*
X0273125Y0273650D02*
X0268125Y0273650D01*
X0268125Y0263650D02*
X0273125Y0263650D01*
X0273125Y0253650D02*
X0268125Y0253650D01*
X0268125Y0243650D02*
X0273125Y0243650D01*
X0273125Y0233650D02*
X0268125Y0233650D01*
X0268125Y0223650D02*
X0273125Y0223650D01*
X0273125Y0213650D02*
X0268125Y0213650D01*
X0268125Y0203650D02*
X0273125Y0203650D01*
X0273125Y0193650D02*
X0268125Y0193650D01*
X0268125Y0183650D02*
X0273125Y0183650D01*
X0273125Y0173650D02*
X0268125Y0173650D01*
X0268125Y0163650D02*
X0273125Y0163650D01*
X0278125Y0163650D01*
X0278125Y0153650D02*
X0273125Y0153650D01*
X0273125Y0143650D02*
X0278125Y0143650D01*
X0278125Y0133650D02*
X0273125Y0133650D01*
X0273125Y0123650D02*
X0278125Y0123650D01*
X0278125Y0113650D02*
X0273125Y0113650D01*
X0273125Y0103650D02*
X0268125Y0103650D01*
X0263125Y0103650D01*
X0268125Y0103650D01*
X0308125Y0103650D02*
X0308125Y0098650D01*
X0333125Y0098650D01*
X0338125Y0103650D01*
X0333125Y0108650D02*
X0338125Y0113650D01*
X0333125Y0108650D02*
X0308125Y0108650D01*
X0308125Y0113650D01*
X0308125Y0108650D02*
X0218125Y0108650D01*
X0213125Y0113650D01*
X0208125Y0113650D01*
X0208125Y0103650D02*
X0203125Y0103650D01*
X0198125Y0103650D01*
X0193125Y0103650D01*
X0198125Y0103650D01*
X0193125Y0103650D01*
X0198125Y0103650D01*
X0193125Y0103650D01*
X0198125Y0103650D01*
X0208125Y0103650D02*
X0213125Y0103650D01*
X0218125Y0098650D01*
X0308125Y0098650D01*
X0308125Y0118650D02*
X0308125Y0123650D01*
X0308125Y0128650D02*
X0308125Y0133650D01*
X0308125Y0128650D02*
X0333125Y0128650D01*
X0338125Y0133650D01*
X0333125Y0138650D02*
X0338125Y0143650D01*
X0333125Y0138650D02*
X0308125Y0138650D01*
X0308125Y0143650D01*
X0308125Y0148650D02*
X0308125Y0153650D01*
X0308125Y0148650D02*
X0333125Y0148650D01*
X0338125Y0153650D01*
X0333125Y0158650D02*
X0338125Y0163650D01*
X0333125Y0158650D02*
X0308125Y0158650D01*
X0308125Y0163650D01*
X0308125Y0168650D02*
X0308125Y0173650D01*
X0308125Y0168650D02*
X0333125Y0168650D01*
X0338125Y0173650D01*
X0333125Y0178650D02*
X0338125Y0183650D01*
X0333125Y0178650D02*
X0308125Y0178650D01*
X0308125Y0183650D01*
X0308125Y0188650D02*
X0308125Y0193650D01*
X0308125Y0188650D02*
X0333125Y0188650D01*
X0338125Y0193650D01*
X0333125Y0198650D02*
X0338125Y0203650D01*
X0333125Y0198650D02*
X0308125Y0198650D01*
X0308125Y0203650D01*
X0308125Y0198650D02*
X0218125Y0198650D01*
X0213125Y0203650D01*
X0208125Y0203650D01*
X0208125Y0213650D02*
X0213125Y0213650D01*
X0218125Y0208650D01*
X0308125Y0208650D01*
X0308125Y0213650D01*
X0308125Y0208650D02*
X0333125Y0208650D01*
X0338125Y0213650D01*
X0333125Y0218650D02*
X0338125Y0223650D01*
X0333125Y0218650D02*
X0308125Y0218650D01*
X0308125Y0223650D01*
X0308125Y0218650D02*
X0218125Y0218650D01*
X0213125Y0223650D01*
X0208125Y0223650D01*
X0208125Y0233650D02*
X0213125Y0233650D01*
X0218125Y0228650D01*
X0308125Y0228650D01*
X0308125Y0233650D01*
X0308125Y0228650D02*
X0333125Y0228650D01*
X0338125Y0233650D01*
X0333125Y0238650D02*
X0338125Y0243650D01*
X0333125Y0238650D02*
X0308125Y0238650D01*
X0308125Y0243650D01*
X0308125Y0238650D02*
X0218125Y0238650D01*
X0213125Y0243650D01*
X0208125Y0243650D01*
X0208125Y0253650D02*
X0213125Y0253650D01*
X0218125Y0248650D01*
X0308125Y0248650D01*
X0308125Y0253650D01*
X0308125Y0248650D02*
X0333125Y0248650D01*
X0338125Y0253650D01*
X0333125Y0258650D02*
X0338125Y0263650D01*
X0333125Y0258650D02*
X0308125Y0258650D01*
X0308125Y0263650D01*
X0308125Y0258650D02*
X0218125Y0258650D01*
X0213125Y0263650D01*
X0208125Y0263650D01*
X0208125Y0273650D02*
X0213125Y0273650D01*
X0218125Y0268650D01*
X0308125Y0268650D01*
X0308125Y0273650D01*
X0308125Y0268650D02*
X0333125Y0268650D01*
X0338125Y0273650D01*
X0333125Y0278650D02*
X0338125Y0283650D01*
X0333125Y0278650D02*
X0308125Y0278650D01*
X0308125Y0283650D01*
X0308125Y0278650D02*
X0218125Y0278650D01*
X0213125Y0283650D01*
X0208125Y0283650D01*
X0208125Y0293650D02*
X0213125Y0293650D01*
X0218125Y0288650D01*
X0308125Y0288650D01*
X0308125Y0293650D01*
X0308125Y0288650D02*
X0333125Y0288650D01*
X0338125Y0293650D01*
X0308125Y0188650D02*
X0218125Y0188650D01*
X0213125Y0193650D01*
X0208125Y0193650D01*
X0208125Y0183650D02*
X0213125Y0183650D01*
X0218125Y0178650D01*
X0308125Y0178650D01*
X0308125Y0168650D02*
X0218125Y0168650D01*
X0213125Y0173650D01*
X0208125Y0173650D01*
X0208125Y0163650D02*
X0213125Y0163650D01*
X0218125Y0158650D01*
X0308125Y0158650D01*
X0308125Y0148650D02*
X0218125Y0148650D01*
X0213125Y0153650D01*
X0208125Y0153650D01*
X0208125Y0143650D02*
X0213125Y0143650D01*
X0218125Y0138650D01*
X0308125Y0138650D01*
X0308125Y0128650D02*
X0218125Y0128650D01*
X0213125Y0133650D01*
X0208125Y0133650D01*
X0208125Y0123650D02*
X0213125Y0123650D01*
X0218125Y0118650D01*
X0308125Y0118650D01*
X0333125Y0118650D01*
X0338125Y0123650D01*
X0193125Y0123650D02*
X0188125Y0123650D01*
X0188125Y0133650D02*
X0193125Y0133650D01*
X0193125Y0143650D02*
X0188125Y0143650D01*
X0188125Y0153650D02*
X0193125Y0153650D01*
X0193125Y0163650D02*
X0188125Y0163650D01*
X0188125Y0173650D02*
X0193125Y0173650D01*
X0193125Y0183650D02*
X0188125Y0183650D01*
X0188125Y0193650D02*
X0193125Y0193650D01*
X0193125Y0203650D02*
X0188125Y0203650D01*
X0188125Y0213650D02*
X0193125Y0213650D01*
X0193125Y0223650D02*
X0188125Y0223650D01*
X0188125Y0233650D02*
X0193125Y0233650D01*
X0193125Y0243650D02*
X0188125Y0243650D01*
X0188125Y0253650D02*
X0193125Y0253650D01*
X0193125Y0263650D02*
X0188125Y0263650D01*
X0188125Y0273650D02*
X0193125Y0273650D01*
X0193125Y0283650D02*
X0188125Y0283650D01*
X0188125Y0293650D02*
X0193125Y0293650D01*
X0178125Y0293650D02*
X0173125Y0293650D01*
X0168125Y0288650D01*
X0088125Y0288650D01*
X0083125Y0293650D01*
X0078125Y0293650D01*
X0078125Y0283650D02*
X0083125Y0283650D01*
X0088125Y0278650D01*
X0168125Y0278650D01*
X0173125Y0283650D01*
X0178125Y0283650D01*
X0178125Y0273650D02*
X0173125Y0273650D01*
X0168125Y0268650D01*
X0088125Y0268650D01*
X0083125Y0273650D01*
X0078125Y0273650D01*
X0078125Y0263650D02*
X0083125Y0263650D01*
X0088125Y0258650D01*
X0168125Y0258650D01*
X0173125Y0263650D01*
X0178125Y0263650D01*
X0178125Y0253650D02*
X0173125Y0253650D01*
X0168125Y0248650D01*
X0088125Y0248650D01*
X0083125Y0253650D01*
X0078125Y0253650D01*
X0078125Y0243650D02*
X0083125Y0243650D01*
X0088125Y0238650D01*
X0168125Y0238650D01*
X0173125Y0243650D01*
X0178125Y0243650D01*
X0178125Y0233650D02*
X0173125Y0233650D01*
X0168125Y0228650D01*
X0088125Y0228650D01*
X0083125Y0233650D01*
X0078125Y0233650D01*
X0078125Y0223650D02*
X0083125Y0223650D01*
X0088125Y0218650D01*
X0168125Y0218650D01*
X0173125Y0223650D01*
X0178125Y0223650D01*
X0178125Y0213650D02*
X0173125Y0213650D01*
X0168125Y0208650D01*
X0088125Y0208650D01*
X0083125Y0213650D01*
X0078125Y0213650D01*
X0078125Y0203650D02*
X0083125Y0203650D01*
X0088125Y0198650D01*
X0168125Y0198650D01*
X0173125Y0203650D01*
X0178125Y0203650D01*
X0178125Y0193650D02*
X0173125Y0193650D01*
X0168125Y0188650D01*
X0088125Y0188650D01*
X0083125Y0193650D01*
X0078125Y0193650D01*
X0078125Y0183650D02*
X0083125Y0183650D01*
X0088125Y0178650D01*
X0168125Y0178650D01*
X0173125Y0183650D01*
X0178125Y0183650D01*
X0178125Y0173650D02*
X0173125Y0173650D01*
X0168125Y0168650D01*
X0088125Y0168650D01*
X0083125Y0173650D01*
X0078125Y0173650D01*
X0078125Y0163650D02*
X0083125Y0163650D01*
X0088125Y0158650D01*
X0168125Y0158650D01*
X0173125Y0163650D01*
X0178125Y0163650D01*
X0178125Y0153650D02*
X0173125Y0153650D01*
X0168125Y0148650D01*
X0088125Y0148650D01*
X0083125Y0153650D01*
X0078125Y0153650D01*
X0078125Y0143650D02*
X0083125Y0143650D01*
X0088125Y0138650D01*
X0168125Y0138650D01*
X0173125Y0143650D01*
X0178125Y0143650D01*
X0178125Y0133650D02*
X0173125Y0133650D01*
X0168125Y0128650D01*
X0088125Y0128650D01*
X0083125Y0133650D01*
X0078125Y0133650D01*
X0078125Y0123650D02*
X0083125Y0123650D01*
X0088125Y0118650D01*
X0168125Y0118650D01*
X0173125Y0123650D01*
X0178125Y0123650D01*
X0178125Y0113650D02*
X0173125Y0113650D01*
X0168125Y0108650D01*
X0088125Y0108650D01*
X0083125Y0113650D01*
X0078125Y0113650D01*
X0078125Y0103650D02*
X0083125Y0103650D01*
X0088125Y0098650D01*
X0168125Y0098650D01*
X0173125Y0103650D01*
X0178125Y0103650D01*
X0188125Y0113650D02*
X0193125Y0113650D01*
X0143125Y0113650D02*
X0138125Y0113650D01*
X0138125Y0103650D02*
X0143125Y0103650D01*
X0143125Y0123650D02*
X0138125Y0123650D01*
X0138125Y0133650D02*
X0143125Y0133650D01*
X0143125Y0143650D02*
X0138125Y0143650D01*
X0138125Y0153650D02*
X0143125Y0153650D01*
X0143125Y0163650D02*
X0138125Y0163650D01*
X0138125Y0173650D02*
X0143125Y0173650D01*
X0143125Y0183650D02*
X0138125Y0183650D01*
X0138125Y0193650D02*
X0143125Y0193650D01*
X0143125Y0203650D02*
X0138125Y0203650D01*
X0138125Y0213650D02*
X0143125Y0213650D01*
X0143125Y0223650D02*
X0138125Y0223650D01*
X0138125Y0233650D02*
X0143125Y0233650D01*
X0143125Y0243650D02*
X0138125Y0243650D01*
X0138125Y0253650D02*
X0143125Y0253650D01*
X0143125Y0263650D02*
X0138125Y0263650D01*
X0138125Y0273650D02*
X0143125Y0273650D01*
X0143125Y0283650D02*
X0138125Y0283650D01*
X0138125Y0293650D02*
X0143125Y0293650D01*
X0068125Y0293650D02*
X0063125Y0293650D01*
X0058125Y0293650D01*
X0058125Y0283650D02*
X0063125Y0283650D01*
X0068125Y0283650D01*
X0068125Y0273650D02*
X0063125Y0273650D01*
X0058125Y0273650D01*
X0058125Y0263650D02*
X0063125Y0263650D01*
X0068125Y0263650D01*
X0068125Y0253650D02*
X0063125Y0253650D01*
X0058125Y0253650D01*
X0058125Y0243650D02*
X0063125Y0243650D01*
X0068125Y0243650D01*
X0068125Y0233650D02*
X0063125Y0233650D01*
X0058125Y0233650D01*
X0058125Y0223650D02*
X0063125Y0223650D01*
X0068125Y0223650D01*
X0068125Y0213650D02*
X0063125Y0213650D01*
X0058125Y0213650D01*
X0058125Y0203650D02*
X0063125Y0203650D01*
X0068125Y0203650D01*
X0068125Y0193650D02*
X0063125Y0193650D01*
X0058125Y0193650D01*
X0063125Y0193650D01*
X0058125Y0193650D01*
X0058125Y0183650D02*
X0063125Y0183650D01*
X0068125Y0183650D01*
X0063125Y0183650D02*
X0058125Y0183650D01*
X0063125Y0183650D01*
X0063125Y0173650D02*
X0058125Y0173650D01*
X0063125Y0173650D01*
X0068125Y0173650D01*
X0063125Y0173650D02*
X0058125Y0173650D01*
X0058125Y0163650D02*
X0063125Y0163650D01*
X0068125Y0163650D01*
X0063125Y0163650D02*
X0058125Y0163650D01*
X0063125Y0163650D01*
X0063125Y0153650D02*
X0058125Y0153650D01*
X0063125Y0153650D01*
X0068125Y0153650D01*
X0063125Y0153650D02*
X0058125Y0153650D01*
X0058125Y0143650D02*
X0063125Y0143650D01*
X0068125Y0143650D01*
X0063125Y0143650D02*
X0058125Y0143650D01*
X0063125Y0143650D01*
X0063125Y0133650D02*
X0058125Y0133650D01*
X0063125Y0133650D01*
X0068125Y0133650D01*
X0063125Y0133650D02*
X0058125Y0133650D01*
X0058125Y0123650D02*
X0063125Y0123650D01*
X0058125Y0123650D01*
X0063125Y0123650D01*
X0058125Y0123650D01*
X0063125Y0123650D01*
X0063125Y0113650D02*
X0058125Y0113650D01*
X0058125Y0103650D02*
X0063125Y0103650D01*
X0068125Y0103650D01*
X0078125Y0103650D01*
X0068125Y0103650D02*
X0063125Y0103650D01*
D17*
X0063125Y0083650D02*
X0063125Y0068650D01*
X0063125Y0048650D01*
X0083125Y0048650D02*
X0083125Y0068650D01*
X0083125Y0083650D01*
X0103125Y0083650D02*
X0103125Y0068650D01*
X0103125Y0048650D01*
X0123125Y0048650D02*
X0123125Y0068650D01*
X0123125Y0083650D01*
X0143125Y0083650D02*
X0143125Y0068650D01*
X0143125Y0048650D01*
X0163125Y0048650D02*
X0163125Y0068650D01*
X0163125Y0083650D01*
X0183125Y0083650D02*
X0183125Y0068650D01*
X0183125Y0048650D01*
X0203125Y0048650D02*
X0203125Y0068650D01*
X0203125Y0083650D01*
X0223125Y0083650D02*
X0223125Y0068650D01*
X0223125Y0048650D01*
X0243125Y0048650D02*
X0243125Y0068650D01*
X0243125Y0083650D01*
X0263125Y0083650D02*
X0263125Y0068650D01*
X0263125Y0048650D01*
X0283125Y0048650D02*
X0283125Y0068650D01*
X0283125Y0083650D01*
X0303125Y0083650D02*
X0303125Y0068650D01*
X0303125Y0048650D01*
X0303125Y0313650D02*
X0303125Y0328650D01*
X0303125Y0348650D01*
X0283125Y0348650D02*
X0283125Y0328650D01*
X0283125Y0313650D01*
X0263125Y0313650D02*
X0263125Y0328650D01*
X0263125Y0348650D01*
X0243125Y0348650D02*
X0243125Y0328650D01*
X0243125Y0313650D01*
X0223125Y0313650D02*
X0223125Y0328650D01*
X0223125Y0348650D01*
X0203125Y0348650D02*
X0203125Y0328650D01*
X0203125Y0313650D01*
X0183125Y0313650D02*
X0183125Y0328650D01*
X0183125Y0348650D01*
X0163125Y0348650D02*
X0163125Y0328650D01*
X0163125Y0313650D01*
X0143125Y0313650D02*
X0143125Y0328650D01*
X0143125Y0348650D01*
X0123125Y0348650D02*
X0123125Y0328650D01*
X0123125Y0313650D01*
X0103125Y0313650D02*
X0103125Y0328650D01*
X0103125Y0348650D01*
X0083125Y0348650D02*
X0083125Y0328650D01*
X0083125Y0313650D01*
X0063125Y0313650D02*
X0063125Y0328650D01*
X0063125Y0348650D01*
M02*
