G75*
%MOIN*%
%OFA0B0*%
%FSLAX25Y25*%
%IPPOS*%
%LPD*%
%AMOC8*
5,1,8,0,0,1.08239X$1,22.5*
%
%ADD10C,0.01200*%
%ADD11C,0.00600*%
%ADD12C,0.00700*%
%ADD13C,0.02400*%
%ADD14C,0.01600*%
%ADD15C,0.00500*%
%ADD16C,0.00787*%
%ADD17C,0.00800*%
D10*
X0109350Y0356750D02*
X0115221Y0356750D01*
X0118557Y0356750D02*
X0118557Y0362622D01*
X0121493Y0365558D01*
X0124429Y0362622D01*
X0124429Y0356750D01*
X0127765Y0356750D02*
X0127765Y0365558D01*
X0130701Y0362622D01*
X0133637Y0365558D01*
X0133637Y0356750D01*
X0136973Y0356750D02*
X0142845Y0356750D01*
X0146181Y0358218D02*
X0147649Y0356750D01*
X0150585Y0356750D01*
X0152053Y0358218D01*
X0152053Y0364090D01*
X0150585Y0365558D01*
X0147649Y0365558D01*
X0146181Y0364090D01*
X0146181Y0358218D01*
X0136973Y0356750D02*
X0136973Y0365558D01*
X0124429Y0361154D02*
X0118557Y0361154D01*
X0109350Y0365558D02*
X0109350Y0356750D01*
X0155389Y0356750D02*
X0161261Y0356750D01*
X0164597Y0356750D02*
X0167533Y0356750D01*
X0166065Y0356750D02*
X0166065Y0365558D01*
X0164597Y0365558D02*
X0167533Y0365558D01*
X0161261Y0365558D02*
X0155389Y0365558D01*
X0155389Y0356750D01*
X0155389Y0361154D02*
X0158325Y0361154D01*
X0177187Y0357400D02*
X0182812Y0357400D01*
X0184687Y0357400D02*
X0190312Y0357400D01*
X0190312Y0359275D02*
X0186562Y0359275D01*
X0186562Y0361150D01*
X0190312Y0361150D01*
X0190312Y0359275D01*
X0190312Y0363025D02*
X0186562Y0363025D01*
X0186562Y0364900D01*
X0188437Y0364900D02*
X0188437Y0363650D01*
X0190312Y0363025D02*
X0190312Y0364900D01*
X0190312Y0366775D02*
X0186562Y0366775D01*
X0184687Y0366775D02*
X0184687Y0357400D01*
X0182812Y0359275D02*
X0180937Y0359275D01*
X0180937Y0361150D01*
X0182812Y0361150D01*
X0180937Y0361150D02*
X0179062Y0361150D01*
X0179062Y0359275D01*
X0180937Y0359275D01*
X0177187Y0357400D02*
X0177187Y0366775D01*
X0179062Y0366775D02*
X0182812Y0366775D01*
X0182812Y0364900D02*
X0179062Y0364900D01*
X0179062Y0366775D01*
X0179062Y0364900D02*
X0179062Y0363025D01*
X0182812Y0363025D01*
X0199350Y0362622D02*
X0199350Y0356750D01*
X0199350Y0361154D02*
X0205221Y0361154D01*
X0205221Y0362622D02*
X0205221Y0356750D01*
X0208557Y0358218D02*
X0214429Y0364090D01*
X0214429Y0358218D01*
X0212961Y0356750D01*
X0210025Y0356750D01*
X0208557Y0358218D01*
X0208557Y0364090D01*
X0210025Y0365558D01*
X0212961Y0365558D01*
X0214429Y0364090D01*
X0217765Y0364090D02*
X0219233Y0365558D01*
X0222169Y0365558D01*
X0223637Y0364090D01*
X0223637Y0358218D01*
X0222169Y0356750D01*
X0219233Y0356750D01*
X0217765Y0358218D01*
X0219233Y0361154D02*
X0223637Y0361154D01*
X0219233Y0361154D02*
X0217765Y0362622D01*
X0217765Y0364090D01*
X0226973Y0364090D02*
X0228441Y0365558D01*
X0231377Y0365558D01*
X0232845Y0364090D01*
X0232845Y0362622D01*
X0226973Y0356750D01*
X0232845Y0356750D01*
X0236181Y0358218D02*
X0237649Y0356750D01*
X0240585Y0356750D01*
X0242053Y0358218D01*
X0242053Y0361154D01*
X0240585Y0362622D01*
X0239117Y0362622D01*
X0236181Y0361154D01*
X0236181Y0365558D01*
X0242053Y0365558D01*
X0245389Y0364090D02*
X0246857Y0365558D01*
X0249793Y0365558D01*
X0251261Y0364090D01*
X0245389Y0358218D01*
X0246857Y0356750D01*
X0249793Y0356750D01*
X0251261Y0358218D01*
X0251261Y0364090D01*
X0254597Y0364090D02*
X0254597Y0358218D01*
X0260468Y0364090D01*
X0260468Y0358218D01*
X0259000Y0356750D01*
X0256065Y0356750D01*
X0254597Y0358218D01*
X0254597Y0364090D02*
X0256065Y0365558D01*
X0259000Y0365558D01*
X0260468Y0364090D01*
X0245389Y0364090D02*
X0245389Y0358218D01*
X0205221Y0362622D02*
X0202285Y0365558D01*
X0199350Y0362622D01*
D11*
X0355300Y0293652D02*
X0358235Y0293652D01*
X0359903Y0292184D02*
X0362839Y0295120D01*
X0362839Y0292184D01*
X0362105Y0291450D01*
X0360637Y0291450D01*
X0359903Y0292184D01*
X0359903Y0295120D01*
X0360637Y0295854D01*
X0362105Y0295854D01*
X0362839Y0295120D01*
X0357501Y0295854D02*
X0357501Y0291450D01*
X0355300Y0293652D02*
X0357501Y0295854D01*
X0357501Y0285854D02*
X0358235Y0285120D01*
X0358235Y0284386D01*
X0357501Y0283652D01*
X0358235Y0282918D01*
X0358235Y0282184D01*
X0357501Y0281450D01*
X0356033Y0281450D01*
X0355300Y0282184D01*
X0356767Y0283652D02*
X0357501Y0283652D01*
X0357501Y0285854D02*
X0356033Y0285854D01*
X0355300Y0285120D01*
X0359903Y0285120D02*
X0359903Y0284386D01*
X0360637Y0283652D01*
X0362839Y0283652D01*
X0362839Y0282184D02*
X0362839Y0285120D01*
X0362105Y0285854D01*
X0360637Y0285854D01*
X0359903Y0285120D01*
X0359903Y0282184D02*
X0360637Y0281450D01*
X0362105Y0281450D01*
X0362839Y0282184D01*
X0362105Y0275854D02*
X0362839Y0275120D01*
X0362839Y0274386D01*
X0362105Y0273652D01*
X0360637Y0273652D01*
X0359903Y0274386D01*
X0359903Y0275120D01*
X0360637Y0275854D01*
X0362105Y0275854D01*
X0362105Y0273652D02*
X0362839Y0272918D01*
X0362839Y0272184D01*
X0362105Y0271450D01*
X0360637Y0271450D01*
X0359903Y0272184D01*
X0359903Y0272918D01*
X0360637Y0273652D01*
X0358235Y0272918D02*
X0358235Y0272184D01*
X0357501Y0271450D01*
X0356033Y0271450D01*
X0355300Y0272184D01*
X0356767Y0273652D02*
X0357501Y0273652D01*
X0358235Y0272918D01*
X0357501Y0273652D02*
X0358235Y0274386D01*
X0358235Y0275120D01*
X0357501Y0275854D01*
X0356033Y0275854D01*
X0355300Y0275120D01*
X0356033Y0265854D02*
X0355300Y0265120D01*
X0356033Y0265854D02*
X0357501Y0265854D01*
X0358235Y0265120D01*
X0358235Y0264386D01*
X0357501Y0263652D01*
X0358235Y0262918D01*
X0358235Y0262184D01*
X0357501Y0261450D01*
X0356033Y0261450D01*
X0355300Y0262184D01*
X0356767Y0263652D02*
X0357501Y0263652D01*
X0359903Y0262184D02*
X0359903Y0261450D01*
X0359903Y0262184D02*
X0362839Y0265120D01*
X0362839Y0265854D01*
X0359903Y0265854D01*
X0357501Y0255854D02*
X0358235Y0255120D01*
X0358235Y0254386D01*
X0357501Y0253652D01*
X0358235Y0252918D01*
X0358235Y0252184D01*
X0357501Y0251450D01*
X0356033Y0251450D01*
X0355300Y0252184D01*
X0356767Y0253652D02*
X0357501Y0253652D01*
X0357501Y0255854D02*
X0356033Y0255854D01*
X0355300Y0255120D01*
X0359903Y0253652D02*
X0362105Y0253652D01*
X0362839Y0252918D01*
X0362839Y0252184D01*
X0362105Y0251450D01*
X0360637Y0251450D01*
X0359903Y0252184D01*
X0359903Y0253652D01*
X0361371Y0255120D01*
X0362839Y0255854D01*
X0362839Y0245854D02*
X0359903Y0245854D01*
X0359903Y0243652D01*
X0361371Y0244386D01*
X0362105Y0244386D01*
X0362839Y0243652D01*
X0362839Y0242184D01*
X0362105Y0241450D01*
X0360637Y0241450D01*
X0359903Y0242184D01*
X0358235Y0242184D02*
X0358235Y0242918D01*
X0357501Y0243652D01*
X0356767Y0243652D01*
X0357501Y0243652D02*
X0358235Y0244386D01*
X0358235Y0245120D01*
X0357501Y0245854D01*
X0356033Y0245854D01*
X0355300Y0245120D01*
X0355300Y0242184D02*
X0356033Y0241450D01*
X0357501Y0241450D01*
X0358235Y0242184D01*
X0357501Y0235854D02*
X0358235Y0235120D01*
X0358235Y0234386D01*
X0357501Y0233652D01*
X0358235Y0232918D01*
X0358235Y0232184D01*
X0357501Y0231450D01*
X0356033Y0231450D01*
X0355300Y0232184D01*
X0356767Y0233652D02*
X0357501Y0233652D01*
X0357501Y0235854D02*
X0356033Y0235854D01*
X0355300Y0235120D01*
X0359903Y0233652D02*
X0362839Y0233652D01*
X0362105Y0231450D02*
X0362105Y0235854D01*
X0359903Y0233652D01*
X0360637Y0225854D02*
X0362105Y0225854D01*
X0362839Y0225120D01*
X0362839Y0224386D01*
X0362105Y0223652D01*
X0362839Y0222918D01*
X0362839Y0222184D01*
X0362105Y0221450D01*
X0360637Y0221450D01*
X0359903Y0222184D01*
X0358235Y0222184D02*
X0358235Y0222918D01*
X0357501Y0223652D01*
X0356767Y0223652D01*
X0357501Y0223652D02*
X0358235Y0224386D01*
X0358235Y0225120D01*
X0357501Y0225854D01*
X0356033Y0225854D01*
X0355300Y0225120D01*
X0355300Y0222184D02*
X0356033Y0221450D01*
X0357501Y0221450D01*
X0358235Y0222184D01*
X0359903Y0225120D02*
X0360637Y0225854D01*
X0361371Y0223652D02*
X0362105Y0223652D01*
X0362105Y0215854D02*
X0360637Y0215854D01*
X0359903Y0215120D01*
X0358235Y0215120D02*
X0358235Y0214386D01*
X0357501Y0213652D01*
X0358235Y0212918D01*
X0358235Y0212184D01*
X0357501Y0211450D01*
X0356033Y0211450D01*
X0355300Y0212184D01*
X0356767Y0213652D02*
X0357501Y0213652D01*
X0358235Y0215120D02*
X0357501Y0215854D01*
X0356033Y0215854D01*
X0355300Y0215120D01*
X0359903Y0211450D02*
X0362839Y0214386D01*
X0362839Y0215120D01*
X0362105Y0215854D01*
X0362839Y0211450D02*
X0359903Y0211450D01*
X0361371Y0205854D02*
X0361371Y0201450D01*
X0359903Y0201450D02*
X0362839Y0201450D01*
X0359903Y0204386D02*
X0361371Y0205854D01*
X0358235Y0205120D02*
X0358235Y0204386D01*
X0357501Y0203652D01*
X0358235Y0202918D01*
X0358235Y0202184D01*
X0357501Y0201450D01*
X0356033Y0201450D01*
X0355300Y0202184D01*
X0356767Y0203652D02*
X0357501Y0203652D01*
X0358235Y0205120D02*
X0357501Y0205854D01*
X0356033Y0205854D01*
X0355300Y0205120D01*
X0356033Y0195854D02*
X0355300Y0195120D01*
X0356033Y0195854D02*
X0357501Y0195854D01*
X0358235Y0195120D01*
X0358235Y0194386D01*
X0357501Y0193652D01*
X0358235Y0192918D01*
X0358235Y0192184D01*
X0357501Y0191450D01*
X0356033Y0191450D01*
X0355300Y0192184D01*
X0356767Y0193652D02*
X0357501Y0193652D01*
X0359903Y0192184D02*
X0362839Y0195120D01*
X0362839Y0192184D01*
X0362105Y0191450D01*
X0360637Y0191450D01*
X0359903Y0192184D01*
X0359903Y0195120D01*
X0360637Y0195854D01*
X0362105Y0195854D01*
X0362839Y0195120D01*
X0362105Y0185854D02*
X0360637Y0185854D01*
X0359903Y0185120D01*
X0359903Y0184386D01*
X0360637Y0183652D01*
X0362839Y0183652D01*
X0362839Y0182184D02*
X0362839Y0185120D01*
X0362105Y0185854D01*
X0362839Y0182184D02*
X0362105Y0181450D01*
X0360637Y0181450D01*
X0359903Y0182184D01*
X0358235Y0181450D02*
X0355300Y0181450D01*
X0358235Y0184386D01*
X0358235Y0185120D01*
X0357501Y0185854D01*
X0356033Y0185854D01*
X0355300Y0185120D01*
X0356033Y0175854D02*
X0355300Y0175120D01*
X0356033Y0175854D02*
X0357501Y0175854D01*
X0358235Y0175120D01*
X0358235Y0174386D01*
X0355300Y0171450D01*
X0358235Y0171450D01*
X0359903Y0172184D02*
X0359903Y0172918D01*
X0360637Y0173652D01*
X0362105Y0173652D01*
X0362839Y0172918D01*
X0362839Y0172184D01*
X0362105Y0171450D01*
X0360637Y0171450D01*
X0359903Y0172184D01*
X0360637Y0173652D02*
X0359903Y0174386D01*
X0359903Y0175120D01*
X0360637Y0175854D01*
X0362105Y0175854D01*
X0362839Y0175120D01*
X0362839Y0174386D01*
X0362105Y0173652D01*
X0362839Y0165854D02*
X0362839Y0165120D01*
X0359903Y0162184D01*
X0359903Y0161450D01*
X0358235Y0161450D02*
X0355300Y0161450D01*
X0358235Y0164386D01*
X0358235Y0165120D01*
X0357501Y0165854D01*
X0356033Y0165854D01*
X0355300Y0165120D01*
X0359903Y0165854D02*
X0362839Y0165854D01*
X0362839Y0155854D02*
X0361371Y0155120D01*
X0359903Y0153652D01*
X0362105Y0153652D01*
X0362839Y0152918D01*
X0362839Y0152184D01*
X0362105Y0151450D01*
X0360637Y0151450D01*
X0359903Y0152184D01*
X0359903Y0153652D01*
X0358235Y0154386D02*
X0358235Y0155120D01*
X0357501Y0155854D01*
X0356033Y0155854D01*
X0355300Y0155120D01*
X0358235Y0154386D02*
X0355300Y0151450D01*
X0358235Y0151450D01*
X0357501Y0145854D02*
X0356033Y0145854D01*
X0355300Y0145120D01*
X0357501Y0145854D02*
X0358235Y0145120D01*
X0358235Y0144386D01*
X0355300Y0141450D01*
X0358235Y0141450D01*
X0359903Y0142184D02*
X0360637Y0141450D01*
X0362105Y0141450D01*
X0362839Y0142184D01*
X0362839Y0143652D01*
X0362105Y0144386D01*
X0361371Y0144386D01*
X0359903Y0143652D01*
X0359903Y0145854D01*
X0362839Y0145854D01*
X0362105Y0135854D02*
X0359903Y0133652D01*
X0362839Y0133652D01*
X0362105Y0131450D02*
X0362105Y0135854D01*
X0358235Y0135120D02*
X0358235Y0134386D01*
X0355300Y0131450D01*
X0358235Y0131450D01*
X0358235Y0135120D02*
X0357501Y0135854D01*
X0356033Y0135854D01*
X0355300Y0135120D01*
X0356033Y0125854D02*
X0355300Y0125120D01*
X0356033Y0125854D02*
X0357501Y0125854D01*
X0358235Y0125120D01*
X0358235Y0124386D01*
X0355300Y0121450D01*
X0358235Y0121450D01*
X0359903Y0122184D02*
X0360637Y0121450D01*
X0362105Y0121450D01*
X0362839Y0122184D01*
X0362839Y0122918D01*
X0362105Y0123652D01*
X0361371Y0123652D01*
X0362105Y0123652D02*
X0362839Y0124386D01*
X0362839Y0125120D01*
X0362105Y0125854D01*
X0360637Y0125854D01*
X0359903Y0125120D01*
X0360637Y0115854D02*
X0359903Y0115120D01*
X0360637Y0115854D02*
X0362105Y0115854D01*
X0362839Y0115120D01*
X0362839Y0114386D01*
X0359903Y0111450D01*
X0362839Y0111450D01*
X0358235Y0111450D02*
X0355300Y0111450D01*
X0358235Y0114386D01*
X0358235Y0115120D01*
X0357501Y0115854D01*
X0356033Y0115854D01*
X0355300Y0115120D01*
X0356033Y0105854D02*
X0355300Y0105120D01*
X0356033Y0105854D02*
X0357501Y0105854D01*
X0358235Y0105120D01*
X0358235Y0104386D01*
X0355300Y0101450D01*
X0358235Y0101450D01*
X0359903Y0101450D02*
X0362839Y0101450D01*
X0361371Y0101450D02*
X0361371Y0105854D01*
X0359903Y0104386D01*
X0012381Y0105120D02*
X0012381Y0102184D01*
X0011647Y0101450D01*
X0010180Y0101450D01*
X0009446Y0102184D01*
X0012381Y0105120D01*
X0011647Y0105854D01*
X0010180Y0105854D01*
X0009446Y0105120D01*
X0009446Y0102184D01*
X0007777Y0101450D02*
X0004842Y0101450D01*
X0007777Y0104386D01*
X0007777Y0105120D01*
X0007044Y0105854D01*
X0005576Y0105854D01*
X0004842Y0105120D01*
X0004842Y0111450D02*
X0007777Y0111450D01*
X0006310Y0111450D02*
X0006310Y0115854D01*
X0004842Y0114386D01*
X0009446Y0114386D02*
X0010180Y0113652D01*
X0012381Y0113652D01*
X0012381Y0112184D02*
X0012381Y0115120D01*
X0011647Y0115854D01*
X0010180Y0115854D01*
X0009446Y0115120D01*
X0009446Y0114386D01*
X0009446Y0112184D02*
X0010180Y0111450D01*
X0011647Y0111450D01*
X0012381Y0112184D01*
X0011647Y0121450D02*
X0010180Y0121450D01*
X0009446Y0122184D01*
X0009446Y0122918D01*
X0010180Y0123652D01*
X0011647Y0123652D01*
X0012381Y0122918D01*
X0012381Y0122184D01*
X0011647Y0121450D01*
X0011647Y0123652D02*
X0012381Y0124386D01*
X0012381Y0125120D01*
X0011647Y0125854D01*
X0010180Y0125854D01*
X0009446Y0125120D01*
X0009446Y0124386D01*
X0010180Y0123652D01*
X0007777Y0121450D02*
X0004842Y0121450D01*
X0006310Y0121450D02*
X0006310Y0125854D01*
X0004842Y0124386D01*
X0004842Y0131450D02*
X0007777Y0131450D01*
X0006310Y0131450D02*
X0006310Y0135854D01*
X0004842Y0134386D01*
X0009446Y0135854D02*
X0012381Y0135854D01*
X0012381Y0135120D01*
X0009446Y0132184D01*
X0009446Y0131450D01*
X0010180Y0141450D02*
X0011647Y0141450D01*
X0012381Y0142184D01*
X0012381Y0142918D01*
X0011647Y0143652D01*
X0009446Y0143652D01*
X0009446Y0142184D01*
X0010180Y0141450D01*
X0009446Y0143652D02*
X0010913Y0145120D01*
X0012381Y0145854D01*
X0007777Y0141450D02*
X0004842Y0141450D01*
X0006310Y0141450D02*
X0006310Y0145854D01*
X0004842Y0144386D01*
X0004842Y0151450D02*
X0007777Y0151450D01*
X0006310Y0151450D02*
X0006310Y0155854D01*
X0004842Y0154386D01*
X0009446Y0153652D02*
X0009446Y0155854D01*
X0012381Y0155854D01*
X0011647Y0154386D02*
X0010913Y0154386D01*
X0009446Y0153652D01*
X0009446Y0152184D02*
X0010180Y0151450D01*
X0011647Y0151450D01*
X0012381Y0152184D01*
X0012381Y0153652D01*
X0011647Y0154386D01*
X0011647Y0161450D02*
X0011647Y0165854D01*
X0009446Y0163652D01*
X0012381Y0163652D01*
X0007777Y0161450D02*
X0004842Y0161450D01*
X0006310Y0161450D02*
X0006310Y0165854D01*
X0004842Y0164386D01*
X0004842Y0171450D02*
X0007777Y0171450D01*
X0006310Y0171450D02*
X0006310Y0175854D01*
X0004842Y0174386D01*
X0009446Y0175120D02*
X0010180Y0175854D01*
X0011647Y0175854D01*
X0012381Y0175120D01*
X0012381Y0174386D01*
X0011647Y0173652D01*
X0012381Y0172918D01*
X0012381Y0172184D01*
X0011647Y0171450D01*
X0010180Y0171450D01*
X0009446Y0172184D01*
X0010913Y0173652D02*
X0011647Y0173652D01*
X0012381Y0181450D02*
X0009446Y0181450D01*
X0012381Y0184386D01*
X0012381Y0185120D01*
X0011647Y0185854D01*
X0010180Y0185854D01*
X0009446Y0185120D01*
X0006310Y0185854D02*
X0006310Y0181450D01*
X0007777Y0181450D02*
X0004842Y0181450D01*
X0004842Y0184386D02*
X0006310Y0185854D01*
X0006310Y0191450D02*
X0006310Y0195854D01*
X0004842Y0194386D01*
X0004842Y0191450D02*
X0007777Y0191450D01*
X0009446Y0191450D02*
X0012381Y0191450D01*
X0010913Y0191450D02*
X0010913Y0195854D01*
X0009446Y0194386D01*
X0010180Y0201450D02*
X0009446Y0202184D01*
X0012381Y0205120D01*
X0012381Y0202184D01*
X0011647Y0201450D01*
X0010180Y0201450D01*
X0009446Y0202184D02*
X0009446Y0205120D01*
X0010180Y0205854D01*
X0011647Y0205854D01*
X0012381Y0205120D01*
X0007777Y0201450D02*
X0004842Y0201450D01*
X0006310Y0201450D02*
X0006310Y0205854D01*
X0004842Y0204386D01*
X0010180Y0211450D02*
X0011647Y0211450D01*
X0012381Y0212184D01*
X0012381Y0215120D01*
X0011647Y0215854D01*
X0010180Y0215854D01*
X0009446Y0215120D01*
X0009446Y0214386D01*
X0010180Y0213652D01*
X0012381Y0213652D01*
X0010180Y0211450D02*
X0009446Y0212184D01*
X0010180Y0221450D02*
X0009446Y0222184D01*
X0009446Y0222918D01*
X0010180Y0223652D01*
X0011647Y0223652D01*
X0012381Y0222918D01*
X0012381Y0222184D01*
X0011647Y0221450D01*
X0010180Y0221450D01*
X0010180Y0223652D02*
X0009446Y0224386D01*
X0009446Y0225120D01*
X0010180Y0225854D01*
X0011647Y0225854D01*
X0012381Y0225120D01*
X0012381Y0224386D01*
X0011647Y0223652D01*
X0009446Y0231450D02*
X0009446Y0232184D01*
X0012381Y0235120D01*
X0012381Y0235854D01*
X0009446Y0235854D01*
X0010180Y0241450D02*
X0011647Y0241450D01*
X0012381Y0242184D01*
X0012381Y0242918D01*
X0011647Y0243652D01*
X0009446Y0243652D01*
X0009446Y0242184D01*
X0010180Y0241450D01*
X0009446Y0243652D02*
X0010914Y0245120D01*
X0012381Y0245854D01*
X0011647Y0251450D02*
X0010180Y0251450D01*
X0009446Y0252184D01*
X0009446Y0253652D02*
X0010914Y0254386D01*
X0011647Y0254386D01*
X0012381Y0253652D01*
X0012381Y0252184D01*
X0011647Y0251450D01*
X0009446Y0253652D02*
X0009446Y0255854D01*
X0012381Y0255854D01*
X0011647Y0261450D02*
X0011647Y0265854D01*
X0009446Y0263652D01*
X0012381Y0263652D01*
X0011647Y0271450D02*
X0010180Y0271450D01*
X0009446Y0272184D01*
X0010914Y0273652D02*
X0011647Y0273652D01*
X0012381Y0272918D01*
X0012381Y0272184D01*
X0011647Y0271450D01*
X0011647Y0273652D02*
X0012381Y0274386D01*
X0012381Y0275120D01*
X0011647Y0275854D01*
X0010180Y0275854D01*
X0009446Y0275120D01*
X0009446Y0281450D02*
X0012381Y0284386D01*
X0012381Y0285120D01*
X0011647Y0285854D01*
X0010180Y0285854D01*
X0009446Y0285120D01*
X0009446Y0281450D02*
X0012381Y0281450D01*
X0012381Y0291450D02*
X0009446Y0291450D01*
X0010914Y0291450D02*
X0010914Y0295854D01*
X0009446Y0294386D01*
X0008653Y0085854D02*
X0008653Y0082184D01*
X0009387Y0081450D01*
X0010855Y0081450D01*
X0011589Y0082184D01*
X0011589Y0085854D01*
X0006985Y0085854D02*
X0006985Y0082918D01*
X0005517Y0081450D01*
X0004050Y0082918D01*
X0004050Y0085854D01*
D12*
X0108824Y0012392D02*
X0108824Y0006087D01*
X0113028Y0006087D01*
X0115269Y0006087D02*
X0115269Y0010291D01*
X0117371Y0012392D01*
X0119473Y0010291D01*
X0119473Y0006087D01*
X0121715Y0006087D02*
X0121715Y0012392D01*
X0123817Y0010291D01*
X0125919Y0012392D01*
X0125919Y0006087D01*
X0128160Y0006087D02*
X0132364Y0006087D01*
X0134606Y0007138D02*
X0135657Y0006087D01*
X0137759Y0006087D01*
X0138810Y0007138D01*
X0138810Y0011341D01*
X0137759Y0012392D01*
X0135657Y0012392D01*
X0134606Y0011341D01*
X0134606Y0007138D01*
X0141051Y0006087D02*
X0141051Y0012392D01*
X0145255Y0012392D01*
X0147497Y0012392D02*
X0149599Y0012392D01*
X0148548Y0012392D02*
X0148548Y0006087D01*
X0147497Y0006087D02*
X0149599Y0006087D01*
X0145255Y0006087D02*
X0141051Y0006087D01*
X0141051Y0009240D02*
X0143153Y0009240D01*
X0158239Y0009240D02*
X0162443Y0009240D01*
X0162443Y0010291D02*
X0162443Y0006087D01*
X0164685Y0007138D02*
X0168888Y0011341D01*
X0168888Y0007138D01*
X0167838Y0006087D01*
X0165736Y0006087D01*
X0164685Y0007138D01*
X0164685Y0011341D01*
X0165736Y0012392D01*
X0167838Y0012392D01*
X0168888Y0011341D01*
X0171130Y0011341D02*
X0171130Y0010291D01*
X0172181Y0009240D01*
X0175334Y0009240D01*
X0175334Y0011341D02*
X0174283Y0012392D01*
X0172181Y0012392D01*
X0171130Y0011341D01*
X0171130Y0007138D02*
X0172181Y0006087D01*
X0174283Y0006087D01*
X0175334Y0007138D01*
X0175334Y0011341D01*
X0177576Y0011341D02*
X0178627Y0012392D01*
X0180729Y0012392D01*
X0181779Y0011341D01*
X0181779Y0010291D01*
X0177576Y0006087D01*
X0181779Y0006087D01*
X0184021Y0007138D02*
X0185072Y0006087D01*
X0187174Y0006087D01*
X0188225Y0007138D01*
X0188225Y0009240D01*
X0187174Y0010291D01*
X0186123Y0010291D01*
X0184021Y0009240D01*
X0184021Y0012392D01*
X0188225Y0012392D01*
X0190467Y0011341D02*
X0191518Y0012392D01*
X0193620Y0012392D01*
X0194670Y0011341D01*
X0190467Y0007138D01*
X0191518Y0006087D01*
X0193620Y0006087D01*
X0194670Y0007138D01*
X0194670Y0011341D01*
X0196912Y0011341D02*
X0197963Y0012392D01*
X0200065Y0012392D01*
X0201116Y0011341D01*
X0196912Y0007138D01*
X0197963Y0006087D01*
X0200065Y0006087D01*
X0201116Y0007138D01*
X0201116Y0011341D01*
X0196912Y0011341D02*
X0196912Y0007138D01*
X0190467Y0007138D02*
X0190467Y0011341D01*
X0162443Y0010291D02*
X0160341Y0012392D01*
X0158239Y0010291D01*
X0158239Y0006087D01*
X0128160Y0006087D02*
X0128160Y0012392D01*
X0119473Y0009240D02*
X0115269Y0009240D01*
X0237249Y0011341D02*
X0238300Y0012392D01*
X0240402Y0012392D01*
X0241453Y0011341D01*
X0241453Y0010291D01*
X0237249Y0006087D01*
X0241453Y0006087D01*
X0243695Y0007138D02*
X0243695Y0011341D01*
X0244746Y0012392D01*
X0246847Y0012392D01*
X0247898Y0011341D01*
X0243695Y0007138D01*
X0244746Y0006087D01*
X0246847Y0006087D01*
X0247898Y0007138D01*
X0247898Y0011341D01*
X0250140Y0011341D02*
X0251191Y0012392D01*
X0253293Y0012392D01*
X0254344Y0011341D01*
X0254344Y0010291D01*
X0250140Y0006087D01*
X0254344Y0006087D01*
X0256586Y0006087D02*
X0260789Y0010291D01*
X0260789Y0011341D01*
X0259738Y0012392D01*
X0257637Y0012392D01*
X0256586Y0011341D01*
X0256586Y0006087D02*
X0260789Y0006087D01*
X0263031Y0007138D02*
X0267235Y0011341D01*
X0267235Y0007138D01*
X0266184Y0006087D01*
X0264082Y0006087D01*
X0263031Y0007138D01*
X0263031Y0011341D01*
X0264082Y0012392D01*
X0266184Y0012392D01*
X0267235Y0011341D01*
X0269477Y0012392D02*
X0269477Y0009240D01*
X0271578Y0010291D01*
X0272629Y0010291D01*
X0273680Y0009240D01*
X0273680Y0007138D01*
X0272629Y0006087D01*
X0270528Y0006087D01*
X0269477Y0007138D01*
X0269477Y0012392D02*
X0273680Y0012392D01*
X0275922Y0010291D02*
X0278024Y0012392D01*
X0278024Y0006087D01*
X0275922Y0006087D02*
X0280126Y0006087D01*
X0282368Y0007138D02*
X0283419Y0006087D01*
X0285520Y0006087D01*
X0286571Y0007138D01*
X0286571Y0009240D01*
X0285520Y0010291D01*
X0284469Y0010291D01*
X0282368Y0009240D01*
X0282368Y0012392D01*
X0286571Y0012392D01*
X0285520Y0386008D02*
X0283419Y0386008D01*
X0282368Y0387059D01*
X0282368Y0389161D02*
X0284469Y0390212D01*
X0285520Y0390212D01*
X0286571Y0389161D01*
X0286571Y0387059D01*
X0285520Y0386008D01*
X0282368Y0389161D02*
X0282368Y0392314D01*
X0286571Y0392314D01*
X0280126Y0386008D02*
X0275922Y0386008D01*
X0278024Y0386008D02*
X0278024Y0392314D01*
X0275922Y0390212D01*
X0273680Y0389161D02*
X0273680Y0387059D01*
X0272629Y0386008D01*
X0270528Y0386008D01*
X0269477Y0387059D01*
X0269477Y0389161D02*
X0271578Y0390212D01*
X0272629Y0390212D01*
X0273680Y0389161D01*
X0273680Y0392314D02*
X0269477Y0392314D01*
X0269477Y0389161D01*
X0267235Y0391263D02*
X0263031Y0387059D01*
X0264082Y0386008D01*
X0266184Y0386008D01*
X0267235Y0387059D01*
X0267235Y0391263D01*
X0266184Y0392314D01*
X0264082Y0392314D01*
X0263031Y0391263D01*
X0263031Y0387059D01*
X0260789Y0386008D02*
X0256586Y0386008D01*
X0260789Y0390212D01*
X0260789Y0391263D01*
X0259738Y0392314D01*
X0257637Y0392314D01*
X0256586Y0391263D01*
X0254344Y0391263D02*
X0253293Y0392314D01*
X0251191Y0392314D01*
X0250140Y0391263D01*
X0247898Y0391263D02*
X0247898Y0387059D01*
X0246847Y0386008D01*
X0244746Y0386008D01*
X0243695Y0387059D01*
X0247898Y0391263D01*
X0246847Y0392314D01*
X0244746Y0392314D01*
X0243695Y0391263D01*
X0243695Y0387059D01*
X0241453Y0386008D02*
X0237249Y0386008D01*
X0241453Y0390212D01*
X0241453Y0391263D01*
X0240402Y0392314D01*
X0238300Y0392314D01*
X0237249Y0391263D01*
X0250140Y0386008D02*
X0254344Y0390212D01*
X0254344Y0391263D01*
X0254344Y0386008D02*
X0250140Y0386008D01*
X0201116Y0387059D02*
X0200065Y0386008D01*
X0197963Y0386008D01*
X0196912Y0387059D01*
X0201116Y0391263D01*
X0201116Y0387059D01*
X0196912Y0387059D02*
X0196912Y0391263D01*
X0197963Y0392314D01*
X0200065Y0392314D01*
X0201116Y0391263D01*
X0194670Y0391263D02*
X0194670Y0387059D01*
X0193620Y0386008D01*
X0191518Y0386008D01*
X0190467Y0387059D01*
X0194670Y0391263D01*
X0193620Y0392314D01*
X0191518Y0392314D01*
X0190467Y0391263D01*
X0190467Y0387059D01*
X0188225Y0387059D02*
X0187174Y0386008D01*
X0185072Y0386008D01*
X0184021Y0387059D01*
X0184021Y0389161D02*
X0186123Y0390212D01*
X0187174Y0390212D01*
X0188225Y0389161D01*
X0188225Y0387059D01*
X0184021Y0389161D02*
X0184021Y0392314D01*
X0188225Y0392314D01*
X0181779Y0391263D02*
X0180729Y0392314D01*
X0178627Y0392314D01*
X0177576Y0391263D01*
X0175334Y0391263D02*
X0175334Y0387059D01*
X0174283Y0386008D01*
X0172181Y0386008D01*
X0171130Y0387059D01*
X0168888Y0387059D02*
X0167838Y0386008D01*
X0165736Y0386008D01*
X0164685Y0387059D01*
X0168888Y0391263D01*
X0168888Y0387059D01*
X0171130Y0390212D02*
X0172181Y0389161D01*
X0175334Y0389161D01*
X0175334Y0391263D02*
X0174283Y0392314D01*
X0172181Y0392314D01*
X0171130Y0391263D01*
X0171130Y0390212D01*
X0168888Y0391263D02*
X0167838Y0392314D01*
X0165736Y0392314D01*
X0164685Y0391263D01*
X0164685Y0387059D01*
X0162443Y0386008D02*
X0162443Y0390212D01*
X0160341Y0392314D01*
X0158239Y0390212D01*
X0158239Y0386008D01*
X0158239Y0389161D02*
X0162443Y0389161D01*
X0149599Y0392314D02*
X0147497Y0392314D01*
X0148548Y0392314D02*
X0148548Y0386008D01*
X0147497Y0386008D02*
X0149599Y0386008D01*
X0145255Y0386008D02*
X0141051Y0386008D01*
X0141051Y0392314D01*
X0145255Y0392314D01*
X0143153Y0389161D02*
X0141051Y0389161D01*
X0138810Y0391263D02*
X0137759Y0392314D01*
X0135657Y0392314D01*
X0134606Y0391263D01*
X0134606Y0387059D01*
X0135657Y0386008D01*
X0137759Y0386008D01*
X0138810Y0387059D01*
X0138810Y0391263D01*
X0132364Y0386008D02*
X0128160Y0386008D01*
X0128160Y0392314D01*
X0125919Y0392314D02*
X0125919Y0386008D01*
X0121715Y0386008D02*
X0121715Y0392314D01*
X0123817Y0390212D01*
X0125919Y0392314D01*
X0119473Y0390212D02*
X0119473Y0386008D01*
X0119473Y0389161D02*
X0115269Y0389161D01*
X0115269Y0390212D02*
X0115269Y0386008D01*
X0113028Y0386008D02*
X0108824Y0386008D01*
X0108824Y0392314D01*
X0115269Y0390212D02*
X0117371Y0392314D01*
X0119473Y0390212D01*
X0177576Y0386008D02*
X0181779Y0390212D01*
X0181779Y0391263D01*
X0181779Y0386008D02*
X0177576Y0386008D01*
D13*
X0038080Y0008690D02*
X0026269Y0008690D01*
X0034143Y0012627D02*
X0034143Y0004753D01*
X0038080Y0008690D01*
X0034143Y0012627D01*
X0319576Y0008690D02*
X0319578Y0008778D01*
X0319584Y0008866D01*
X0319594Y0008954D01*
X0319608Y0009042D01*
X0319625Y0009128D01*
X0319647Y0009214D01*
X0319672Y0009298D01*
X0319702Y0009382D01*
X0319734Y0009464D01*
X0319771Y0009544D01*
X0319811Y0009623D01*
X0319855Y0009700D01*
X0319902Y0009775D01*
X0319952Y0009847D01*
X0320006Y0009918D01*
X0320062Y0009985D01*
X0320122Y0010051D01*
X0320184Y0010113D01*
X0320250Y0010173D01*
X0320317Y0010229D01*
X0320388Y0010283D01*
X0320460Y0010333D01*
X0320535Y0010380D01*
X0320612Y0010424D01*
X0320691Y0010464D01*
X0320771Y0010501D01*
X0320853Y0010533D01*
X0320937Y0010563D01*
X0321021Y0010588D01*
X0321107Y0010610D01*
X0321193Y0010627D01*
X0321281Y0010641D01*
X0321369Y0010651D01*
X0321457Y0010657D01*
X0321545Y0010659D01*
X0321633Y0010657D01*
X0321721Y0010651D01*
X0321809Y0010641D01*
X0321897Y0010627D01*
X0321983Y0010610D01*
X0322069Y0010588D01*
X0322153Y0010563D01*
X0322237Y0010533D01*
X0322319Y0010501D01*
X0322399Y0010464D01*
X0322478Y0010424D01*
X0322555Y0010380D01*
X0322630Y0010333D01*
X0322702Y0010283D01*
X0322773Y0010229D01*
X0322840Y0010173D01*
X0322906Y0010113D01*
X0322968Y0010051D01*
X0323028Y0009985D01*
X0323084Y0009918D01*
X0323138Y0009847D01*
X0323188Y0009775D01*
X0323235Y0009700D01*
X0323279Y0009623D01*
X0323319Y0009544D01*
X0323356Y0009464D01*
X0323388Y0009382D01*
X0323418Y0009298D01*
X0323443Y0009214D01*
X0323465Y0009128D01*
X0323482Y0009042D01*
X0323496Y0008954D01*
X0323506Y0008866D01*
X0323512Y0008778D01*
X0323514Y0008690D01*
X0323512Y0008602D01*
X0323506Y0008514D01*
X0323496Y0008426D01*
X0323482Y0008338D01*
X0323465Y0008252D01*
X0323443Y0008166D01*
X0323418Y0008082D01*
X0323388Y0007998D01*
X0323356Y0007916D01*
X0323319Y0007836D01*
X0323279Y0007757D01*
X0323235Y0007680D01*
X0323188Y0007605D01*
X0323138Y0007533D01*
X0323084Y0007462D01*
X0323028Y0007395D01*
X0322968Y0007329D01*
X0322906Y0007267D01*
X0322840Y0007207D01*
X0322773Y0007151D01*
X0322702Y0007097D01*
X0322630Y0007047D01*
X0322555Y0007000D01*
X0322478Y0006956D01*
X0322399Y0006916D01*
X0322319Y0006879D01*
X0322237Y0006847D01*
X0322153Y0006817D01*
X0322069Y0006792D01*
X0321983Y0006770D01*
X0321897Y0006753D01*
X0321809Y0006739D01*
X0321721Y0006729D01*
X0321633Y0006723D01*
X0321545Y0006721D01*
X0321457Y0006723D01*
X0321369Y0006729D01*
X0321281Y0006739D01*
X0321193Y0006753D01*
X0321107Y0006770D01*
X0321021Y0006792D01*
X0320937Y0006817D01*
X0320853Y0006847D01*
X0320771Y0006879D01*
X0320691Y0006916D01*
X0320612Y0006956D01*
X0320535Y0007000D01*
X0320460Y0007047D01*
X0320388Y0007097D01*
X0320317Y0007151D01*
X0320250Y0007207D01*
X0320184Y0007267D01*
X0320122Y0007329D01*
X0320062Y0007395D01*
X0320006Y0007462D01*
X0319952Y0007533D01*
X0319902Y0007605D01*
X0319855Y0007680D01*
X0319811Y0007757D01*
X0319771Y0007836D01*
X0319734Y0007916D01*
X0319702Y0007998D01*
X0319672Y0008082D01*
X0319647Y0008166D01*
X0319625Y0008252D01*
X0319608Y0008338D01*
X0319594Y0008426D01*
X0319584Y0008514D01*
X0319578Y0008602D01*
X0319576Y0008690D01*
X0329419Y0008690D02*
X0341230Y0008690D01*
X0337293Y0004753D01*
X0337293Y0012627D01*
X0341230Y0008690D01*
X0337293Y0384674D02*
X0337293Y0392548D01*
X0341230Y0388611D01*
X0337293Y0384674D01*
X0341230Y0388611D02*
X0329419Y0388611D01*
X0319576Y0388611D02*
X0319578Y0388699D01*
X0319584Y0388787D01*
X0319594Y0388875D01*
X0319608Y0388963D01*
X0319625Y0389049D01*
X0319647Y0389135D01*
X0319672Y0389219D01*
X0319702Y0389303D01*
X0319734Y0389385D01*
X0319771Y0389465D01*
X0319811Y0389544D01*
X0319855Y0389621D01*
X0319902Y0389696D01*
X0319952Y0389768D01*
X0320006Y0389839D01*
X0320062Y0389906D01*
X0320122Y0389972D01*
X0320184Y0390034D01*
X0320250Y0390094D01*
X0320317Y0390150D01*
X0320388Y0390204D01*
X0320460Y0390254D01*
X0320535Y0390301D01*
X0320612Y0390345D01*
X0320691Y0390385D01*
X0320771Y0390422D01*
X0320853Y0390454D01*
X0320937Y0390484D01*
X0321021Y0390509D01*
X0321107Y0390531D01*
X0321193Y0390548D01*
X0321281Y0390562D01*
X0321369Y0390572D01*
X0321457Y0390578D01*
X0321545Y0390580D01*
X0321633Y0390578D01*
X0321721Y0390572D01*
X0321809Y0390562D01*
X0321897Y0390548D01*
X0321983Y0390531D01*
X0322069Y0390509D01*
X0322153Y0390484D01*
X0322237Y0390454D01*
X0322319Y0390422D01*
X0322399Y0390385D01*
X0322478Y0390345D01*
X0322555Y0390301D01*
X0322630Y0390254D01*
X0322702Y0390204D01*
X0322773Y0390150D01*
X0322840Y0390094D01*
X0322906Y0390034D01*
X0322968Y0389972D01*
X0323028Y0389906D01*
X0323084Y0389839D01*
X0323138Y0389768D01*
X0323188Y0389696D01*
X0323235Y0389621D01*
X0323279Y0389544D01*
X0323319Y0389465D01*
X0323356Y0389385D01*
X0323388Y0389303D01*
X0323418Y0389219D01*
X0323443Y0389135D01*
X0323465Y0389049D01*
X0323482Y0388963D01*
X0323496Y0388875D01*
X0323506Y0388787D01*
X0323512Y0388699D01*
X0323514Y0388611D01*
X0323512Y0388523D01*
X0323506Y0388435D01*
X0323496Y0388347D01*
X0323482Y0388259D01*
X0323465Y0388173D01*
X0323443Y0388087D01*
X0323418Y0388003D01*
X0323388Y0387919D01*
X0323356Y0387837D01*
X0323319Y0387757D01*
X0323279Y0387678D01*
X0323235Y0387601D01*
X0323188Y0387526D01*
X0323138Y0387454D01*
X0323084Y0387383D01*
X0323028Y0387316D01*
X0322968Y0387250D01*
X0322906Y0387188D01*
X0322840Y0387128D01*
X0322773Y0387072D01*
X0322702Y0387018D01*
X0322630Y0386968D01*
X0322555Y0386921D01*
X0322478Y0386877D01*
X0322399Y0386837D01*
X0322319Y0386800D01*
X0322237Y0386768D01*
X0322153Y0386738D01*
X0322069Y0386713D01*
X0321983Y0386691D01*
X0321897Y0386674D01*
X0321809Y0386660D01*
X0321721Y0386650D01*
X0321633Y0386644D01*
X0321545Y0386642D01*
X0321457Y0386644D01*
X0321369Y0386650D01*
X0321281Y0386660D01*
X0321193Y0386674D01*
X0321107Y0386691D01*
X0321021Y0386713D01*
X0320937Y0386738D01*
X0320853Y0386768D01*
X0320771Y0386800D01*
X0320691Y0386837D01*
X0320612Y0386877D01*
X0320535Y0386921D01*
X0320460Y0386968D01*
X0320388Y0387018D01*
X0320317Y0387072D01*
X0320250Y0387128D01*
X0320184Y0387188D01*
X0320122Y0387250D01*
X0320062Y0387316D01*
X0320006Y0387383D01*
X0319952Y0387454D01*
X0319902Y0387526D01*
X0319855Y0387601D01*
X0319811Y0387678D01*
X0319771Y0387757D01*
X0319734Y0387837D01*
X0319702Y0387919D01*
X0319672Y0388003D01*
X0319647Y0388087D01*
X0319625Y0388173D01*
X0319608Y0388259D01*
X0319594Y0388347D01*
X0319584Y0388435D01*
X0319578Y0388523D01*
X0319576Y0388611D01*
X0043985Y0388611D02*
X0043987Y0388699D01*
X0043993Y0388787D01*
X0044003Y0388875D01*
X0044017Y0388963D01*
X0044034Y0389049D01*
X0044056Y0389135D01*
X0044081Y0389219D01*
X0044111Y0389303D01*
X0044143Y0389385D01*
X0044180Y0389465D01*
X0044220Y0389544D01*
X0044264Y0389621D01*
X0044311Y0389696D01*
X0044361Y0389768D01*
X0044415Y0389839D01*
X0044471Y0389906D01*
X0044531Y0389972D01*
X0044593Y0390034D01*
X0044659Y0390094D01*
X0044726Y0390150D01*
X0044797Y0390204D01*
X0044869Y0390254D01*
X0044944Y0390301D01*
X0045021Y0390345D01*
X0045100Y0390385D01*
X0045180Y0390422D01*
X0045262Y0390454D01*
X0045346Y0390484D01*
X0045430Y0390509D01*
X0045516Y0390531D01*
X0045602Y0390548D01*
X0045690Y0390562D01*
X0045778Y0390572D01*
X0045866Y0390578D01*
X0045954Y0390580D01*
X0046042Y0390578D01*
X0046130Y0390572D01*
X0046218Y0390562D01*
X0046306Y0390548D01*
X0046392Y0390531D01*
X0046478Y0390509D01*
X0046562Y0390484D01*
X0046646Y0390454D01*
X0046728Y0390422D01*
X0046808Y0390385D01*
X0046887Y0390345D01*
X0046964Y0390301D01*
X0047039Y0390254D01*
X0047111Y0390204D01*
X0047182Y0390150D01*
X0047249Y0390094D01*
X0047315Y0390034D01*
X0047377Y0389972D01*
X0047437Y0389906D01*
X0047493Y0389839D01*
X0047547Y0389768D01*
X0047597Y0389696D01*
X0047644Y0389621D01*
X0047688Y0389544D01*
X0047728Y0389465D01*
X0047765Y0389385D01*
X0047797Y0389303D01*
X0047827Y0389219D01*
X0047852Y0389135D01*
X0047874Y0389049D01*
X0047891Y0388963D01*
X0047905Y0388875D01*
X0047915Y0388787D01*
X0047921Y0388699D01*
X0047923Y0388611D01*
X0047921Y0388523D01*
X0047915Y0388435D01*
X0047905Y0388347D01*
X0047891Y0388259D01*
X0047874Y0388173D01*
X0047852Y0388087D01*
X0047827Y0388003D01*
X0047797Y0387919D01*
X0047765Y0387837D01*
X0047728Y0387757D01*
X0047688Y0387678D01*
X0047644Y0387601D01*
X0047597Y0387526D01*
X0047547Y0387454D01*
X0047493Y0387383D01*
X0047437Y0387316D01*
X0047377Y0387250D01*
X0047315Y0387188D01*
X0047249Y0387128D01*
X0047182Y0387072D01*
X0047111Y0387018D01*
X0047039Y0386968D01*
X0046964Y0386921D01*
X0046887Y0386877D01*
X0046808Y0386837D01*
X0046728Y0386800D01*
X0046646Y0386768D01*
X0046562Y0386738D01*
X0046478Y0386713D01*
X0046392Y0386691D01*
X0046306Y0386674D01*
X0046218Y0386660D01*
X0046130Y0386650D01*
X0046042Y0386644D01*
X0045954Y0386642D01*
X0045866Y0386644D01*
X0045778Y0386650D01*
X0045690Y0386660D01*
X0045602Y0386674D01*
X0045516Y0386691D01*
X0045430Y0386713D01*
X0045346Y0386738D01*
X0045262Y0386768D01*
X0045180Y0386800D01*
X0045100Y0386837D01*
X0045021Y0386877D01*
X0044944Y0386921D01*
X0044869Y0386968D01*
X0044797Y0387018D01*
X0044726Y0387072D01*
X0044659Y0387128D01*
X0044593Y0387188D01*
X0044531Y0387250D01*
X0044471Y0387316D01*
X0044415Y0387383D01*
X0044361Y0387454D01*
X0044311Y0387526D01*
X0044264Y0387601D01*
X0044220Y0387678D01*
X0044180Y0387757D01*
X0044143Y0387837D01*
X0044111Y0387919D01*
X0044081Y0388003D01*
X0044056Y0388087D01*
X0044034Y0388173D01*
X0044017Y0388259D01*
X0044003Y0388347D01*
X0043993Y0388435D01*
X0043987Y0388523D01*
X0043985Y0388611D01*
X0038080Y0388611D02*
X0034143Y0384674D01*
X0034143Y0392548D01*
X0038080Y0388611D01*
X0026269Y0388611D01*
D14*
X0063750Y0293650D02*
X0063752Y0293749D01*
X0063758Y0293849D01*
X0063768Y0293948D01*
X0063782Y0294046D01*
X0063799Y0294144D01*
X0063821Y0294241D01*
X0063846Y0294337D01*
X0063875Y0294432D01*
X0063908Y0294526D01*
X0063945Y0294618D01*
X0063985Y0294709D01*
X0064029Y0294798D01*
X0064077Y0294886D01*
X0064128Y0294971D01*
X0064182Y0295054D01*
X0064239Y0295136D01*
X0064300Y0295214D01*
X0064364Y0295291D01*
X0064430Y0295364D01*
X0064500Y0295435D01*
X0064572Y0295503D01*
X0064647Y0295569D01*
X0064725Y0295631D01*
X0064805Y0295690D01*
X0064887Y0295746D01*
X0064971Y0295798D01*
X0065058Y0295847D01*
X0065146Y0295893D01*
X0065236Y0295935D01*
X0065328Y0295974D01*
X0065421Y0296009D01*
X0065515Y0296040D01*
X0065611Y0296067D01*
X0065708Y0296090D01*
X0065805Y0296110D01*
X0065903Y0296126D01*
X0066002Y0296138D01*
X0066101Y0296146D01*
X0066200Y0296150D01*
X0066300Y0296150D01*
X0066399Y0296146D01*
X0066498Y0296138D01*
X0066597Y0296126D01*
X0066695Y0296110D01*
X0066792Y0296090D01*
X0066889Y0296067D01*
X0066985Y0296040D01*
X0067079Y0296009D01*
X0067172Y0295974D01*
X0067264Y0295935D01*
X0067354Y0295893D01*
X0067442Y0295847D01*
X0067529Y0295798D01*
X0067613Y0295746D01*
X0067695Y0295690D01*
X0067775Y0295631D01*
X0067853Y0295569D01*
X0067928Y0295503D01*
X0068000Y0295435D01*
X0068070Y0295364D01*
X0068136Y0295291D01*
X0068200Y0295214D01*
X0068261Y0295136D01*
X0068318Y0295054D01*
X0068372Y0294971D01*
X0068423Y0294886D01*
X0068471Y0294798D01*
X0068515Y0294709D01*
X0068555Y0294618D01*
X0068592Y0294526D01*
X0068625Y0294432D01*
X0068654Y0294337D01*
X0068679Y0294241D01*
X0068701Y0294144D01*
X0068718Y0294046D01*
X0068732Y0293948D01*
X0068742Y0293849D01*
X0068748Y0293749D01*
X0068750Y0293650D01*
X0068748Y0293551D01*
X0068742Y0293451D01*
X0068732Y0293352D01*
X0068718Y0293254D01*
X0068701Y0293156D01*
X0068679Y0293059D01*
X0068654Y0292963D01*
X0068625Y0292868D01*
X0068592Y0292774D01*
X0068555Y0292682D01*
X0068515Y0292591D01*
X0068471Y0292502D01*
X0068423Y0292414D01*
X0068372Y0292329D01*
X0068318Y0292246D01*
X0068261Y0292164D01*
X0068200Y0292086D01*
X0068136Y0292009D01*
X0068070Y0291936D01*
X0068000Y0291865D01*
X0067928Y0291797D01*
X0067853Y0291731D01*
X0067775Y0291669D01*
X0067695Y0291610D01*
X0067613Y0291554D01*
X0067529Y0291502D01*
X0067442Y0291453D01*
X0067354Y0291407D01*
X0067264Y0291365D01*
X0067172Y0291326D01*
X0067079Y0291291D01*
X0066985Y0291260D01*
X0066889Y0291233D01*
X0066792Y0291210D01*
X0066695Y0291190D01*
X0066597Y0291174D01*
X0066498Y0291162D01*
X0066399Y0291154D01*
X0066300Y0291150D01*
X0066200Y0291150D01*
X0066101Y0291154D01*
X0066002Y0291162D01*
X0065903Y0291174D01*
X0065805Y0291190D01*
X0065708Y0291210D01*
X0065611Y0291233D01*
X0065515Y0291260D01*
X0065421Y0291291D01*
X0065328Y0291326D01*
X0065236Y0291365D01*
X0065146Y0291407D01*
X0065058Y0291453D01*
X0064971Y0291502D01*
X0064887Y0291554D01*
X0064805Y0291610D01*
X0064725Y0291669D01*
X0064647Y0291731D01*
X0064572Y0291797D01*
X0064500Y0291865D01*
X0064430Y0291936D01*
X0064364Y0292009D01*
X0064300Y0292086D01*
X0064239Y0292164D01*
X0064182Y0292246D01*
X0064128Y0292329D01*
X0064077Y0292414D01*
X0064029Y0292502D01*
X0063985Y0292591D01*
X0063945Y0292682D01*
X0063908Y0292774D01*
X0063875Y0292868D01*
X0063846Y0292963D01*
X0063821Y0293059D01*
X0063799Y0293156D01*
X0063782Y0293254D01*
X0063768Y0293352D01*
X0063758Y0293451D01*
X0063752Y0293551D01*
X0063750Y0293650D01*
X0193750Y0293650D02*
X0193752Y0293749D01*
X0193758Y0293849D01*
X0193768Y0293948D01*
X0193782Y0294046D01*
X0193799Y0294144D01*
X0193821Y0294241D01*
X0193846Y0294337D01*
X0193875Y0294432D01*
X0193908Y0294526D01*
X0193945Y0294618D01*
X0193985Y0294709D01*
X0194029Y0294798D01*
X0194077Y0294886D01*
X0194128Y0294971D01*
X0194182Y0295054D01*
X0194239Y0295136D01*
X0194300Y0295214D01*
X0194364Y0295291D01*
X0194430Y0295364D01*
X0194500Y0295435D01*
X0194572Y0295503D01*
X0194647Y0295569D01*
X0194725Y0295631D01*
X0194805Y0295690D01*
X0194887Y0295746D01*
X0194971Y0295798D01*
X0195058Y0295847D01*
X0195146Y0295893D01*
X0195236Y0295935D01*
X0195328Y0295974D01*
X0195421Y0296009D01*
X0195515Y0296040D01*
X0195611Y0296067D01*
X0195708Y0296090D01*
X0195805Y0296110D01*
X0195903Y0296126D01*
X0196002Y0296138D01*
X0196101Y0296146D01*
X0196200Y0296150D01*
X0196300Y0296150D01*
X0196399Y0296146D01*
X0196498Y0296138D01*
X0196597Y0296126D01*
X0196695Y0296110D01*
X0196792Y0296090D01*
X0196889Y0296067D01*
X0196985Y0296040D01*
X0197079Y0296009D01*
X0197172Y0295974D01*
X0197264Y0295935D01*
X0197354Y0295893D01*
X0197442Y0295847D01*
X0197529Y0295798D01*
X0197613Y0295746D01*
X0197695Y0295690D01*
X0197775Y0295631D01*
X0197853Y0295569D01*
X0197928Y0295503D01*
X0198000Y0295435D01*
X0198070Y0295364D01*
X0198136Y0295291D01*
X0198200Y0295214D01*
X0198261Y0295136D01*
X0198318Y0295054D01*
X0198372Y0294971D01*
X0198423Y0294886D01*
X0198471Y0294798D01*
X0198515Y0294709D01*
X0198555Y0294618D01*
X0198592Y0294526D01*
X0198625Y0294432D01*
X0198654Y0294337D01*
X0198679Y0294241D01*
X0198701Y0294144D01*
X0198718Y0294046D01*
X0198732Y0293948D01*
X0198742Y0293849D01*
X0198748Y0293749D01*
X0198750Y0293650D01*
X0198748Y0293551D01*
X0198742Y0293451D01*
X0198732Y0293352D01*
X0198718Y0293254D01*
X0198701Y0293156D01*
X0198679Y0293059D01*
X0198654Y0292963D01*
X0198625Y0292868D01*
X0198592Y0292774D01*
X0198555Y0292682D01*
X0198515Y0292591D01*
X0198471Y0292502D01*
X0198423Y0292414D01*
X0198372Y0292329D01*
X0198318Y0292246D01*
X0198261Y0292164D01*
X0198200Y0292086D01*
X0198136Y0292009D01*
X0198070Y0291936D01*
X0198000Y0291865D01*
X0197928Y0291797D01*
X0197853Y0291731D01*
X0197775Y0291669D01*
X0197695Y0291610D01*
X0197613Y0291554D01*
X0197529Y0291502D01*
X0197442Y0291453D01*
X0197354Y0291407D01*
X0197264Y0291365D01*
X0197172Y0291326D01*
X0197079Y0291291D01*
X0196985Y0291260D01*
X0196889Y0291233D01*
X0196792Y0291210D01*
X0196695Y0291190D01*
X0196597Y0291174D01*
X0196498Y0291162D01*
X0196399Y0291154D01*
X0196300Y0291150D01*
X0196200Y0291150D01*
X0196101Y0291154D01*
X0196002Y0291162D01*
X0195903Y0291174D01*
X0195805Y0291190D01*
X0195708Y0291210D01*
X0195611Y0291233D01*
X0195515Y0291260D01*
X0195421Y0291291D01*
X0195328Y0291326D01*
X0195236Y0291365D01*
X0195146Y0291407D01*
X0195058Y0291453D01*
X0194971Y0291502D01*
X0194887Y0291554D01*
X0194805Y0291610D01*
X0194725Y0291669D01*
X0194647Y0291731D01*
X0194572Y0291797D01*
X0194500Y0291865D01*
X0194430Y0291936D01*
X0194364Y0292009D01*
X0194300Y0292086D01*
X0194239Y0292164D01*
X0194182Y0292246D01*
X0194128Y0292329D01*
X0194077Y0292414D01*
X0194029Y0292502D01*
X0193985Y0292591D01*
X0193945Y0292682D01*
X0193908Y0292774D01*
X0193875Y0292868D01*
X0193846Y0292963D01*
X0193821Y0293059D01*
X0193799Y0293156D01*
X0193782Y0293254D01*
X0193768Y0293352D01*
X0193758Y0293451D01*
X0193752Y0293551D01*
X0193750Y0293650D01*
X0056250Y0086150D02*
X0056250Y0081150D01*
X0058750Y0083650D01*
X0056250Y0086150D01*
D15*
X0048750Y0096150D02*
X0158750Y0096150D01*
X0158750Y0098650D01*
X0160127Y0090540D02*
X0148316Y0090540D01*
X0140442Y0090540D02*
X0128631Y0090540D01*
X0120757Y0090540D02*
X0108946Y0090540D01*
X0101072Y0090540D02*
X0089261Y0090540D01*
X0081387Y0090540D02*
X0073120Y0090540D01*
X0073120Y0075776D01*
X0314064Y0075776D01*
X0314064Y0090540D01*
X0305797Y0090540D01*
X0303750Y0096150D02*
X0323750Y0096150D01*
X0323750Y0098650D01*
X0333750Y0098650D02*
X0333750Y0096150D01*
X0353750Y0096150D01*
X0353750Y0098650D01*
X0314064Y0075540D02*
X0305797Y0075540D01*
X0297923Y0075540D02*
X0286112Y0075540D01*
X0278238Y0075540D02*
X0266427Y0075540D01*
X0258553Y0075540D02*
X0246742Y0075540D01*
X0238868Y0075540D02*
X0227057Y0075540D01*
X0219183Y0075540D02*
X0207372Y0075540D01*
X0199498Y0075540D02*
X0187687Y0075540D01*
X0179813Y0075540D02*
X0168001Y0075540D01*
X0160127Y0075540D02*
X0148316Y0075540D01*
X0140442Y0075540D02*
X0128631Y0075540D01*
X0120757Y0075540D02*
X0108946Y0075540D01*
X0101072Y0075540D02*
X0089261Y0075540D01*
X0081387Y0075540D02*
X0073120Y0075540D01*
X0073120Y0028296D01*
X0314064Y0028296D01*
X0314064Y0075540D01*
X0297923Y0090540D02*
X0286112Y0090540D01*
X0288750Y0096150D02*
X0288750Y0098650D01*
X0288750Y0096150D02*
X0178750Y0096150D01*
X0178750Y0098650D01*
X0179813Y0090540D02*
X0168001Y0090540D01*
X0187687Y0090540D02*
X0199498Y0090540D01*
X0207372Y0090540D02*
X0219183Y0090540D01*
X0227057Y0090540D02*
X0238868Y0090540D01*
X0246742Y0090540D02*
X0258553Y0090540D01*
X0266427Y0090540D02*
X0278238Y0090540D01*
X0303750Y0096150D02*
X0303750Y0098650D01*
X0305797Y0055540D02*
X0314064Y0055540D01*
X0314064Y0040776D01*
X0073120Y0040776D01*
X0073120Y0055540D01*
X0081387Y0055540D01*
X0089261Y0055540D02*
X0101072Y0055540D01*
X0108946Y0055540D02*
X0120757Y0055540D01*
X0128631Y0055540D02*
X0140442Y0055540D01*
X0148316Y0055540D02*
X0160127Y0055540D01*
X0168001Y0055540D02*
X0179813Y0055540D01*
X0187687Y0055540D02*
X0199498Y0055540D01*
X0207372Y0055540D02*
X0219183Y0055540D01*
X0227057Y0055540D02*
X0238868Y0055540D01*
X0246742Y0055540D02*
X0258553Y0055540D01*
X0266427Y0055540D02*
X0278238Y0055540D01*
X0286112Y0055540D02*
X0297923Y0055540D01*
X0302500Y0291775D02*
X0302500Y0295525D01*
X0304375Y0293650D01*
X0302500Y0291775D01*
X0302500Y0291872D02*
X0302596Y0291872D01*
X0302500Y0292371D02*
X0303095Y0292371D01*
X0303593Y0292869D02*
X0302500Y0292869D01*
X0302500Y0293368D02*
X0304092Y0293368D01*
X0304159Y0293866D02*
X0302500Y0293866D01*
X0302500Y0294365D02*
X0303660Y0294365D01*
X0303162Y0294863D02*
X0302500Y0294863D01*
X0302500Y0295362D02*
X0302663Y0295362D01*
X0303750Y0298650D02*
X0303750Y0301150D01*
X0323750Y0301150D01*
X0323750Y0298650D01*
X0332500Y0295525D02*
X0332500Y0291775D01*
X0334375Y0293650D01*
X0332500Y0295525D01*
X0332500Y0295362D02*
X0332663Y0295362D01*
X0332500Y0294863D02*
X0333162Y0294863D01*
X0333660Y0294365D02*
X0332500Y0294365D01*
X0332500Y0293866D02*
X0334159Y0293866D01*
X0334092Y0293368D02*
X0332500Y0293368D01*
X0332500Y0292869D02*
X0333593Y0292869D01*
X0333095Y0292371D02*
X0332500Y0292371D01*
X0332500Y0291872D02*
X0332596Y0291872D01*
X0333750Y0298650D02*
X0333750Y0301150D01*
X0353750Y0301150D01*
X0353750Y0298650D01*
X0294379Y0306761D02*
X0286112Y0306761D01*
X0288750Y0301150D02*
X0288750Y0298650D01*
X0288750Y0301150D02*
X0178750Y0301150D01*
X0178750Y0298650D01*
X0179813Y0306761D02*
X0168001Y0306761D01*
X0160127Y0306761D02*
X0148316Y0306761D01*
X0140442Y0306761D02*
X0128631Y0306761D01*
X0120757Y0306761D02*
X0108946Y0306761D01*
X0101072Y0306761D02*
X0089261Y0306761D01*
X0081387Y0306761D02*
X0069576Y0306761D01*
X0061702Y0306761D02*
X0053435Y0306761D01*
X0053435Y0321524D01*
X0294379Y0321524D01*
X0294379Y0306761D01*
X0294379Y0321761D02*
X0286112Y0321761D01*
X0278238Y0321761D02*
X0266427Y0321761D01*
X0258553Y0321761D02*
X0246742Y0321761D01*
X0238868Y0321761D02*
X0227057Y0321761D01*
X0219183Y0321761D02*
X0207372Y0321761D01*
X0199498Y0321761D02*
X0187687Y0321761D01*
X0179813Y0321761D02*
X0168001Y0321761D01*
X0160127Y0321761D02*
X0148316Y0321761D01*
X0140442Y0321761D02*
X0128631Y0321761D01*
X0120757Y0321761D02*
X0108946Y0321761D01*
X0101072Y0321761D02*
X0089261Y0321761D01*
X0081387Y0321761D02*
X0069576Y0321761D01*
X0061702Y0321761D02*
X0053435Y0321761D01*
X0053435Y0369005D01*
X0294379Y0369005D01*
X0294379Y0321761D01*
X0278238Y0306761D02*
X0266427Y0306761D01*
X0258553Y0306761D02*
X0246742Y0306761D01*
X0238868Y0306761D02*
X0227057Y0306761D01*
X0219183Y0306761D02*
X0207372Y0306761D01*
X0199498Y0306761D02*
X0187687Y0306761D01*
X0158750Y0301150D02*
X0158750Y0298650D01*
X0158750Y0301150D02*
X0048750Y0301150D01*
X0048750Y0298650D01*
X0053435Y0341761D02*
X0061702Y0341761D01*
X0069576Y0341761D02*
X0081387Y0341761D01*
X0089261Y0341761D02*
X0101072Y0341761D01*
X0108946Y0341761D02*
X0120757Y0341761D01*
X0128631Y0341761D02*
X0140442Y0341761D01*
X0148316Y0341761D02*
X0160127Y0341761D01*
X0168001Y0341761D02*
X0179813Y0341761D01*
X0187687Y0341761D02*
X0199498Y0341761D01*
X0207372Y0341761D02*
X0219183Y0341761D01*
X0227057Y0341761D02*
X0238868Y0341761D01*
X0246742Y0341761D02*
X0258553Y0341761D01*
X0266427Y0341761D02*
X0278238Y0341761D01*
X0286112Y0341761D02*
X0294379Y0341761D01*
X0294379Y0356524D01*
X0053435Y0356524D01*
X0053435Y0341761D01*
X0048750Y0098650D02*
X0048750Y0096150D01*
D16*
X0023356Y0082088D02*
X0023358Y0082127D01*
X0023364Y0082166D01*
X0023374Y0082204D01*
X0023387Y0082241D01*
X0023404Y0082276D01*
X0023424Y0082310D01*
X0023448Y0082341D01*
X0023475Y0082370D01*
X0023504Y0082396D01*
X0023536Y0082419D01*
X0023570Y0082439D01*
X0023606Y0082455D01*
X0023643Y0082467D01*
X0023682Y0082476D01*
X0023721Y0082481D01*
X0023760Y0082482D01*
X0023799Y0082479D01*
X0023838Y0082472D01*
X0023875Y0082461D01*
X0023912Y0082447D01*
X0023947Y0082429D01*
X0023980Y0082408D01*
X0024011Y0082383D01*
X0024039Y0082356D01*
X0024064Y0082326D01*
X0024086Y0082293D01*
X0024105Y0082259D01*
X0024120Y0082223D01*
X0024132Y0082185D01*
X0024140Y0082147D01*
X0024144Y0082108D01*
X0024144Y0082068D01*
X0024140Y0082029D01*
X0024132Y0081991D01*
X0024120Y0081953D01*
X0024105Y0081917D01*
X0024086Y0081883D01*
X0024064Y0081850D01*
X0024039Y0081820D01*
X0024011Y0081793D01*
X0023980Y0081768D01*
X0023947Y0081747D01*
X0023912Y0081729D01*
X0023875Y0081715D01*
X0023838Y0081704D01*
X0023799Y0081697D01*
X0023760Y0081694D01*
X0023721Y0081695D01*
X0023682Y0081700D01*
X0023643Y0081709D01*
X0023606Y0081721D01*
X0023570Y0081737D01*
X0023536Y0081757D01*
X0023504Y0081780D01*
X0023475Y0081806D01*
X0023448Y0081835D01*
X0023424Y0081866D01*
X0023404Y0081900D01*
X0023387Y0081935D01*
X0023374Y0081972D01*
X0023364Y0082010D01*
X0023358Y0082049D01*
X0023356Y0082088D01*
X0023356Y0072088D02*
X0023358Y0072127D01*
X0023364Y0072166D01*
X0023374Y0072204D01*
X0023387Y0072241D01*
X0023404Y0072276D01*
X0023424Y0072310D01*
X0023448Y0072341D01*
X0023475Y0072370D01*
X0023504Y0072396D01*
X0023536Y0072419D01*
X0023570Y0072439D01*
X0023606Y0072455D01*
X0023643Y0072467D01*
X0023682Y0072476D01*
X0023721Y0072481D01*
X0023760Y0072482D01*
X0023799Y0072479D01*
X0023838Y0072472D01*
X0023875Y0072461D01*
X0023912Y0072447D01*
X0023947Y0072429D01*
X0023980Y0072408D01*
X0024011Y0072383D01*
X0024039Y0072356D01*
X0024064Y0072326D01*
X0024086Y0072293D01*
X0024105Y0072259D01*
X0024120Y0072223D01*
X0024132Y0072185D01*
X0024140Y0072147D01*
X0024144Y0072108D01*
X0024144Y0072068D01*
X0024140Y0072029D01*
X0024132Y0071991D01*
X0024120Y0071953D01*
X0024105Y0071917D01*
X0024086Y0071883D01*
X0024064Y0071850D01*
X0024039Y0071820D01*
X0024011Y0071793D01*
X0023980Y0071768D01*
X0023947Y0071747D01*
X0023912Y0071729D01*
X0023875Y0071715D01*
X0023838Y0071704D01*
X0023799Y0071697D01*
X0023760Y0071694D01*
X0023721Y0071695D01*
X0023682Y0071700D01*
X0023643Y0071709D01*
X0023606Y0071721D01*
X0023570Y0071737D01*
X0023536Y0071757D01*
X0023504Y0071780D01*
X0023475Y0071806D01*
X0023448Y0071835D01*
X0023424Y0071866D01*
X0023404Y0071900D01*
X0023387Y0071935D01*
X0023374Y0071972D01*
X0023364Y0072010D01*
X0023358Y0072049D01*
X0023356Y0072088D01*
X0023356Y0062088D02*
X0023358Y0062127D01*
X0023364Y0062166D01*
X0023374Y0062204D01*
X0023387Y0062241D01*
X0023404Y0062276D01*
X0023424Y0062310D01*
X0023448Y0062341D01*
X0023475Y0062370D01*
X0023504Y0062396D01*
X0023536Y0062419D01*
X0023570Y0062439D01*
X0023606Y0062455D01*
X0023643Y0062467D01*
X0023682Y0062476D01*
X0023721Y0062481D01*
X0023760Y0062482D01*
X0023799Y0062479D01*
X0023838Y0062472D01*
X0023875Y0062461D01*
X0023912Y0062447D01*
X0023947Y0062429D01*
X0023980Y0062408D01*
X0024011Y0062383D01*
X0024039Y0062356D01*
X0024064Y0062326D01*
X0024086Y0062293D01*
X0024105Y0062259D01*
X0024120Y0062223D01*
X0024132Y0062185D01*
X0024140Y0062147D01*
X0024144Y0062108D01*
X0024144Y0062068D01*
X0024140Y0062029D01*
X0024132Y0061991D01*
X0024120Y0061953D01*
X0024105Y0061917D01*
X0024086Y0061883D01*
X0024064Y0061850D01*
X0024039Y0061820D01*
X0024011Y0061793D01*
X0023980Y0061768D01*
X0023947Y0061747D01*
X0023912Y0061729D01*
X0023875Y0061715D01*
X0023838Y0061704D01*
X0023799Y0061697D01*
X0023760Y0061694D01*
X0023721Y0061695D01*
X0023682Y0061700D01*
X0023643Y0061709D01*
X0023606Y0061721D01*
X0023570Y0061737D01*
X0023536Y0061757D01*
X0023504Y0061780D01*
X0023475Y0061806D01*
X0023448Y0061835D01*
X0023424Y0061866D01*
X0023404Y0061900D01*
X0023387Y0061935D01*
X0023374Y0061972D01*
X0023364Y0062010D01*
X0023358Y0062049D01*
X0023356Y0062088D01*
X0023356Y0052088D02*
X0023358Y0052127D01*
X0023364Y0052166D01*
X0023374Y0052204D01*
X0023387Y0052241D01*
X0023404Y0052276D01*
X0023424Y0052310D01*
X0023448Y0052341D01*
X0023475Y0052370D01*
X0023504Y0052396D01*
X0023536Y0052419D01*
X0023570Y0052439D01*
X0023606Y0052455D01*
X0023643Y0052467D01*
X0023682Y0052476D01*
X0023721Y0052481D01*
X0023760Y0052482D01*
X0023799Y0052479D01*
X0023838Y0052472D01*
X0023875Y0052461D01*
X0023912Y0052447D01*
X0023947Y0052429D01*
X0023980Y0052408D01*
X0024011Y0052383D01*
X0024039Y0052356D01*
X0024064Y0052326D01*
X0024086Y0052293D01*
X0024105Y0052259D01*
X0024120Y0052223D01*
X0024132Y0052185D01*
X0024140Y0052147D01*
X0024144Y0052108D01*
X0024144Y0052068D01*
X0024140Y0052029D01*
X0024132Y0051991D01*
X0024120Y0051953D01*
X0024105Y0051917D01*
X0024086Y0051883D01*
X0024064Y0051850D01*
X0024039Y0051820D01*
X0024011Y0051793D01*
X0023980Y0051768D01*
X0023947Y0051747D01*
X0023912Y0051729D01*
X0023875Y0051715D01*
X0023838Y0051704D01*
X0023799Y0051697D01*
X0023760Y0051694D01*
X0023721Y0051695D01*
X0023682Y0051700D01*
X0023643Y0051709D01*
X0023606Y0051721D01*
X0023570Y0051737D01*
X0023536Y0051757D01*
X0023504Y0051780D01*
X0023475Y0051806D01*
X0023448Y0051835D01*
X0023424Y0051866D01*
X0023404Y0051900D01*
X0023387Y0051935D01*
X0023374Y0051972D01*
X0023364Y0052010D01*
X0023358Y0052049D01*
X0023356Y0052088D01*
D17*
X0023750Y0051150D02*
X0026250Y0048650D01*
X0031250Y0048650D01*
X0033750Y0051150D01*
X0036250Y0048650D01*
X0041250Y0048650D01*
X0043750Y0051150D01*
X0046250Y0048650D01*
X0051250Y0048650D01*
X0053750Y0051150D01*
X0053750Y0056150D01*
X0051250Y0058650D01*
X0046250Y0058650D01*
X0043750Y0056150D01*
X0041250Y0058650D01*
X0036250Y0058650D01*
X0033750Y0056150D01*
X0031250Y0058650D01*
X0026250Y0058650D01*
X0023750Y0056150D01*
X0023750Y0058650D01*
X0013750Y0058650D01*
X0013750Y0056150D01*
X0013750Y0051150D01*
X0013750Y0048650D01*
X0023750Y0048650D01*
X0023750Y0051150D01*
X0023750Y0058650D02*
X0023750Y0061150D01*
X0026250Y0058650D01*
X0031250Y0058650D01*
X0033750Y0061150D01*
X0036250Y0058650D01*
X0041250Y0058650D01*
X0043750Y0061150D01*
X0046250Y0058650D01*
X0051250Y0058650D01*
X0053750Y0061150D01*
X0053750Y0066150D01*
X0051250Y0068650D01*
X0046250Y0068650D01*
X0043750Y0066150D01*
X0041250Y0068650D01*
X0036250Y0068650D01*
X0033750Y0066150D01*
X0031250Y0068650D01*
X0026250Y0068650D01*
X0023750Y0066150D01*
X0023750Y0068650D01*
X0013750Y0068650D01*
X0013750Y0066150D01*
X0013750Y0061150D01*
X0013750Y0058650D01*
X0023750Y0058650D01*
X0023750Y0068650D02*
X0013750Y0068650D01*
X0013750Y0071150D01*
X0013750Y0076150D01*
X0013750Y0078650D01*
X0023750Y0078650D01*
X0023750Y0076150D01*
X0026250Y0078650D01*
X0031250Y0078650D01*
X0033750Y0076150D01*
X0036250Y0078650D01*
X0041250Y0078650D01*
X0043750Y0076150D01*
X0046250Y0078650D01*
X0051250Y0078650D01*
X0053750Y0076150D01*
X0053750Y0071150D01*
X0051250Y0068650D01*
X0046250Y0068650D01*
X0043750Y0071150D01*
X0041250Y0068650D01*
X0036250Y0068650D01*
X0033750Y0071150D01*
X0031250Y0068650D01*
X0026250Y0068650D01*
X0023750Y0071150D01*
X0023750Y0068650D01*
X0023750Y0078650D02*
X0023750Y0081150D01*
X0026250Y0078650D01*
X0031250Y0078650D01*
X0033750Y0081150D01*
X0036250Y0078650D01*
X0041250Y0078650D01*
X0043750Y0081150D01*
X0046250Y0078650D01*
X0051250Y0078650D01*
X0053750Y0081150D01*
X0053750Y0086150D01*
X0051250Y0088650D01*
X0046250Y0088650D01*
X0043750Y0086150D01*
X0041250Y0088650D01*
X0036250Y0088650D01*
X0033750Y0086150D01*
X0031250Y0088650D01*
X0026250Y0088650D01*
X0023750Y0086150D01*
X0023750Y0088650D01*
X0013750Y0088650D01*
X0013750Y0086150D01*
X0013750Y0081150D01*
X0013750Y0078650D01*
X0023750Y0078650D01*
M02*
