%
M48
M72
T01C0.0197
T02C0.0236
T03C0.0400
T04C0.0472
T05C0.0866
T06C0.1260
%
T01
X7745Y1755
X7745Y2149
X7745Y2542
X8139Y2542
X8532Y2542
X8532Y2149
X8139Y2149
X8139Y1755
X8532Y1755
X28217Y1755
X28217Y2149
X28217Y2542
X28611Y2542
X28611Y2149
X28611Y1755
X29005Y1755
X29005Y2149
X29005Y2542
X29005Y37188
X29005Y37582
X29005Y37975
X28611Y37975
X28611Y37582
X28217Y37582
X28217Y37975
X28217Y37188
X28611Y37188
X8532Y37188
X8139Y37188
X8139Y37582
X8139Y37975
X8532Y37975
X8532Y37582
X7745Y37582
X7745Y37975
X7745Y37188
T02
X7625Y9865
X20625Y9865
T03
X18875Y10365
X18875Y11365
X18875Y12365
X18875Y13365
X18875Y14365
X18875Y15365
X18875Y16365
X18875Y17365
X18875Y18365
X18875Y19365
X18875Y20365
X18875Y21365
X18875Y22365
X18875Y23365
X18875Y24365
X18875Y25365
X18875Y26365
X18875Y27365
X18875Y28365
X18875Y29365
X17875Y29365
X17875Y28365
X17875Y27365
X17875Y26365
X17875Y25365
X17875Y24365
X17875Y23365
X17875Y22365
X17875Y21365
X17875Y20365
X17875Y19365
X17875Y18365
X17875Y17365
X17875Y16365
X17875Y15365
X17875Y14365
X17875Y13365
X17875Y12365
X17875Y11365
X17875Y10365
X15875Y10365
X15875Y11365
X15875Y12365
X15875Y13365
X15875Y14365
X15875Y15365
X15875Y16365
X15875Y17365
X15875Y18365
X15875Y19365
X15875Y20365
X15875Y21365
X15875Y22365
X15875Y23365
X15875Y24365
X15875Y25365
X15875Y26365
X15875Y27365
X15875Y28365
X15875Y29365
X14875Y29365
X14875Y28365
X14875Y27365
X14875Y26365
X14875Y25365
X14875Y24365
X14875Y23365
X14875Y22365
X14875Y21365
X14875Y20365
X14875Y19365
X14875Y18365
X14875Y17365
X14875Y16365
X14875Y15365
X14875Y14365
X14875Y13365
X14875Y12365
X14875Y11365
X14875Y10365
X5875Y10365
X5875Y11365
X5875Y12365
X5875Y13365
X5875Y14365
X5875Y15365
X5875Y16365
X5875Y17365
X5875Y18365
X5875Y19365
X5875Y20365
X5875Y21365
X5875Y22365
X5875Y23365
X5875Y24365
X5875Y25365
X5875Y26365
X5875Y27365
X5875Y28365
X5875Y29365
X4875Y29365
X4875Y28365
X4875Y27365
X4875Y26365
X4875Y25365
X4875Y24365
X4875Y23365
X4875Y22365
X4875Y21365
X4875Y20365
X4875Y19365
X4875Y18365
X4875Y17365
X4875Y16365
X4875Y15365
X4875Y14365
X4875Y13365
X4875Y12365
X4875Y11365
X4875Y10365
X4875Y8365
X4875Y7365
X4875Y6365
X4875Y5365
X3875Y5365
X3875Y6365
X3875Y7365
X3875Y8365
X2875Y8365
X1875Y8365
X1875Y7365
X2875Y7365
X2875Y6365
X1875Y6365
X1875Y5365
X2875Y5365
X2875Y10365
X2875Y11365
X1875Y11365
X1875Y10365
X1875Y12365
X2875Y12365
X2875Y13365
X1875Y13365
X1875Y14365
X2875Y14365
X2875Y15365
X1875Y15365
X1875Y16365
X2875Y16365
X2875Y17365
X1875Y17365
X1875Y18365
X2875Y18365
X2875Y19365
X1875Y19365
X1875Y20365
X2875Y20365
X2875Y21365
X1875Y21365
X1875Y22365
X2875Y22365
X2875Y23365
X1875Y23365
X1875Y24365
X2875Y24365
X2875Y25365
X1875Y25365
X1875Y26365
X2875Y26365
X2875Y27365
X1875Y27365
X1875Y28365
X2875Y28365
X2875Y29365
X1875Y29365
X27875Y29365
X27875Y28365
X28875Y28365
X28875Y29365
X28875Y27365
X28875Y26365
X28875Y25365
X28875Y24365
X28875Y23365
X28875Y22365
X28875Y21365
X28875Y20365
X28875Y19365
X28875Y18365
X28875Y17365
X28875Y16365
X28875Y15365
X28875Y14365
X28875Y13365
X28875Y12365
X28875Y11365
X28875Y10365
X27875Y10365
X27875Y11365
X27875Y12365
X27875Y13365
X27875Y14365
X27875Y15365
X27875Y16365
X27875Y17365
X27875Y18365
X27875Y19365
X27875Y20365
X27875Y21365
X27875Y22365
X27875Y23365
X27875Y24365
X27875Y25365
X27875Y26365
X27875Y27365
X30875Y27365
X31875Y27365
X31875Y26365
X30875Y26365
X30875Y25365
X31875Y25365
X31875Y24365
X30875Y24365
X30875Y23365
X31875Y23365
X31875Y22365
X30875Y22365
X30875Y21365
X31875Y21365
X31875Y20365
X30875Y20365
X30875Y19365
X31875Y19365
X31875Y18365
X30875Y18365
X30875Y17365
X31875Y17365
X31875Y16365
X30875Y16365
X30875Y15365
X31875Y15365
X31875Y14365
X30875Y14365
X30875Y13365
X31875Y13365
X31875Y12365
X30875Y12365
X30875Y11365
X31875Y11365
X31875Y10365
X30875Y10365
X33875Y10365
X33875Y11365
X34875Y11365
X34875Y10365
X34875Y12365
X34875Y13365
X34875Y14365
X34875Y15365
X34875Y16365
X34875Y17365
X34875Y18365
X34875Y19365
X34875Y20365
X34875Y21365
X34875Y22365
X34875Y23365
X34875Y24365
X34875Y25365
X34875Y26365
X34875Y27365
X34875Y28365
X34875Y29365
X33875Y29365
X33875Y28365
X33875Y27365
X33875Y26365
X33875Y25365
X33875Y24365
X33875Y23365
X33875Y22365
X33875Y21365
X33875Y20365
X33875Y19365
X33875Y18365
X33875Y17365
X33875Y16365
X33875Y15365
X33875Y14365
X33875Y13365
X33875Y12365
X31875Y28365
X31875Y29365
X30875Y29365
X30875Y28365
T04
X30375Y31365
X30186Y32865
X30186Y34865
X28217Y34865
X26249Y34865
X24280Y34865
X24280Y32865
X24375Y31365
X26375Y31365
X26249Y32865
X28217Y32865
X28375Y31365
X22375Y31365
X22312Y32865
X20343Y32865
X20375Y31365
X18375Y31365
X18375Y32865
X18375Y34865
X20343Y34865
X22312Y34865
X16406Y34865
X14438Y34865
X14438Y32865
X14375Y31365
X16375Y31365
X16406Y32865
X12469Y32865
X12375Y31365
X10375Y31365
X10501Y32865
X8532Y32865
X8375Y31365
X6375Y31365
X6564Y32865
X6564Y34865
X8532Y34865
X10501Y34865
X12469Y34865
X12375Y8365
X12469Y6865
X10501Y6865
X10375Y8365
X8532Y6865
X8375Y8365
X6375Y8365
X6564Y6865
X6564Y4865
X8532Y4865
X10501Y4865
X12469Y4865
X14438Y4865
X16406Y4865
X16406Y6865
X16375Y8365
X14375Y8365
X14438Y6865
X18375Y6865
X18375Y8365
X20375Y8365
X20343Y6865
X22312Y6865
X22375Y8365
X24375Y8365
X24280Y6865
X26249Y6865
X26375Y8365
X28217Y6865
X28375Y8365
X30375Y8365
X30186Y6865
X30186Y4865
X28217Y4865
X26249Y4865
X24280Y4865
X22312Y4865
X20343Y4865
X18375Y4865
T05
X1643Y869
X35107Y869
X35107Y38861
X1643Y38861
T06
X1643Y35613
X1643Y4117
X35107Y4117
X35107Y35613
M30
