G75*
%MOIN*%
%OFA0B0*%
%FSLAX25Y25*%
%IPPOS*%
%LPD*%
%AMOC8*
5,1,8,0,0,1.08239X$1,22.5*
%
%ADD10R,0.15000X0.05000*%
%ADD11R,0.05000X0.05000*%
D10*
X0053750Y0103650D03*
X0053750Y0113650D03*
X0053750Y0123650D03*
X0053750Y0133650D03*
X0053750Y0143650D03*
X0053750Y0153650D03*
X0053750Y0163650D03*
X0053750Y0173650D03*
X0053750Y0183650D03*
X0053750Y0193650D03*
X0053750Y0203650D03*
X0053750Y0213650D03*
X0053750Y0223650D03*
X0053750Y0233650D03*
X0053750Y0243650D03*
X0053750Y0253650D03*
X0053750Y0263650D03*
X0053750Y0273650D03*
X0053750Y0283650D03*
X0053750Y0293650D03*
X0153750Y0293650D03*
X0153750Y0283650D03*
X0153750Y0273650D03*
X0153750Y0263650D03*
X0153750Y0253650D03*
X0153750Y0243650D03*
X0153750Y0233650D03*
X0153750Y0223650D03*
X0153750Y0213650D03*
X0153750Y0203650D03*
X0153750Y0193650D03*
X0153750Y0183650D03*
X0153750Y0173650D03*
X0153750Y0163650D03*
X0153750Y0153650D03*
X0153750Y0143650D03*
X0153750Y0133650D03*
X0153750Y0123650D03*
X0153750Y0113650D03*
X0153750Y0103650D03*
X0183750Y0103650D03*
X0183750Y0113650D03*
X0183750Y0123650D03*
X0183750Y0133650D03*
X0183750Y0143650D03*
X0183750Y0153650D03*
X0183750Y0163650D03*
X0183750Y0173650D03*
X0183750Y0183650D03*
X0183750Y0193650D03*
X0183750Y0203650D03*
X0183750Y0213650D03*
X0183750Y0223650D03*
X0183750Y0233650D03*
X0183750Y0243650D03*
X0183750Y0253650D03*
X0183750Y0263650D03*
X0183750Y0273650D03*
X0183750Y0283650D03*
X0183750Y0293650D03*
X0283750Y0293650D03*
X0283750Y0283650D03*
X0283750Y0273650D03*
X0283750Y0263650D03*
X0283750Y0253650D03*
X0283750Y0243650D03*
X0283750Y0233650D03*
X0283750Y0223650D03*
X0283750Y0213650D03*
X0283750Y0203650D03*
X0283750Y0193650D03*
X0283750Y0183650D03*
X0283750Y0173650D03*
X0283750Y0163650D03*
X0283750Y0153650D03*
X0283750Y0143650D03*
X0283750Y0133650D03*
X0283750Y0123650D03*
X0283750Y0113650D03*
X0283750Y0103650D03*
D11*
X0198750Y0103650D03*
X0068750Y0103650D03*
M02*
