G75*
%MOIN*%
%OFA0B0*%
%FSLAX25Y25*%
%IPPOS*%
%LPD*%
%AMOC8*
5,1,8,0,0,1.08239X$1,22.5*
%
%ADD10C,0.00600*%
%ADD11C,0.01200*%
%ADD12C,0.00500*%
%ADD13C,0.00800*%
D10*
X0004769Y0081450D02*
X0004035Y0082184D01*
X0004035Y0085854D01*
X0006971Y0085854D02*
X0006971Y0082184D01*
X0006237Y0081450D01*
X0004769Y0081450D01*
X0008639Y0082918D02*
X0008639Y0085854D01*
X0011575Y0085854D02*
X0011575Y0082918D01*
X0010107Y0081450D01*
X0008639Y0082918D01*
X0009264Y0101450D02*
X0012200Y0101450D01*
X0009264Y0104386D01*
X0009264Y0105120D01*
X0009998Y0105854D01*
X0011466Y0105854D01*
X0012200Y0105120D01*
X0007596Y0105120D02*
X0007596Y0102184D01*
X0004660Y0105120D01*
X0004660Y0102184D01*
X0005394Y0101450D01*
X0006862Y0101450D01*
X0007596Y0102184D01*
X0007596Y0105120D02*
X0006862Y0105854D01*
X0005394Y0105854D01*
X0004660Y0105120D01*
X0005394Y0111450D02*
X0004660Y0112184D01*
X0004660Y0115120D01*
X0005394Y0115854D01*
X0006862Y0115854D01*
X0007596Y0115120D01*
X0007596Y0114386D01*
X0006862Y0113652D01*
X0004660Y0113652D01*
X0005394Y0111450D02*
X0006862Y0111450D01*
X0007596Y0112184D01*
X0009264Y0111450D02*
X0012200Y0111450D01*
X0010732Y0111450D02*
X0010732Y0115854D01*
X0012200Y0114386D01*
X0012200Y0121450D02*
X0009264Y0121450D01*
X0010732Y0121450D02*
X0010732Y0125854D01*
X0012200Y0124386D01*
X0007596Y0124386D02*
X0007596Y0125120D01*
X0006862Y0125854D01*
X0005394Y0125854D01*
X0004660Y0125120D01*
X0004660Y0124386D01*
X0005394Y0123652D01*
X0006862Y0123652D01*
X0007596Y0124386D01*
X0006862Y0123652D02*
X0007596Y0122918D01*
X0007596Y0122184D01*
X0006862Y0121450D01*
X0005394Y0121450D01*
X0004660Y0122184D01*
X0004660Y0122918D01*
X0005394Y0123652D01*
X0007596Y0131450D02*
X0007596Y0132184D01*
X0004660Y0135120D01*
X0004660Y0135854D01*
X0007596Y0135854D01*
X0010732Y0135854D02*
X0010732Y0131450D01*
X0012200Y0131450D02*
X0009264Y0131450D01*
X0012200Y0134386D02*
X0010732Y0135854D01*
X0010732Y0141450D02*
X0010732Y0145854D01*
X0012200Y0144386D01*
X0012200Y0141450D02*
X0009264Y0141450D01*
X0007596Y0142184D02*
X0006862Y0141450D01*
X0005394Y0141450D01*
X0004660Y0142184D01*
X0004660Y0142918D01*
X0005394Y0143652D01*
X0007596Y0143652D01*
X0007596Y0142184D01*
X0007596Y0143652D02*
X0006128Y0145120D01*
X0004660Y0145854D01*
X0005394Y0151450D02*
X0006862Y0151450D01*
X0007596Y0152184D01*
X0007596Y0153652D02*
X0006128Y0154386D01*
X0005394Y0154386D01*
X0004660Y0153652D01*
X0004660Y0152184D01*
X0005394Y0151450D01*
X0007596Y0153652D02*
X0007596Y0155854D01*
X0004660Y0155854D01*
X0005394Y0161450D02*
X0005394Y0165854D01*
X0007596Y0163652D01*
X0004660Y0163652D01*
X0009264Y0161450D02*
X0012200Y0161450D01*
X0010732Y0161450D02*
X0010732Y0165854D01*
X0012200Y0164386D01*
X0012200Y0171450D02*
X0009264Y0171450D01*
X0010732Y0171450D02*
X0010732Y0175854D01*
X0012200Y0174386D01*
X0007596Y0175120D02*
X0006862Y0175854D01*
X0005394Y0175854D01*
X0004660Y0175120D01*
X0004660Y0174386D01*
X0005394Y0173652D01*
X0004660Y0172918D01*
X0004660Y0172184D01*
X0005394Y0171450D01*
X0006862Y0171450D01*
X0007596Y0172184D01*
X0006128Y0173652D02*
X0005394Y0173652D01*
X0004660Y0181450D02*
X0007596Y0181450D01*
X0004660Y0184386D01*
X0004660Y0185120D01*
X0005394Y0185854D01*
X0006862Y0185854D01*
X0007596Y0185120D01*
X0010732Y0185854D02*
X0010732Y0181450D01*
X0012200Y0181450D02*
X0009264Y0181450D01*
X0012200Y0184386D02*
X0010732Y0185854D01*
X0010732Y0191450D02*
X0010732Y0195854D01*
X0012200Y0194386D01*
X0012200Y0191450D02*
X0009264Y0191450D01*
X0007596Y0191450D02*
X0004660Y0191450D01*
X0006128Y0191450D02*
X0006128Y0195854D01*
X0007596Y0194386D01*
X0006862Y0201450D02*
X0007596Y0202184D01*
X0004660Y0205120D01*
X0004660Y0202184D01*
X0005394Y0201450D01*
X0006862Y0201450D01*
X0007596Y0202184D02*
X0007596Y0205120D01*
X0006862Y0205854D01*
X0005394Y0205854D01*
X0004660Y0205120D01*
X0009264Y0201450D02*
X0012200Y0201450D01*
X0010732Y0201450D02*
X0010732Y0205854D01*
X0012200Y0204386D01*
X0011466Y0211450D02*
X0009998Y0211450D01*
X0009264Y0212184D01*
X0009264Y0215120D01*
X0009998Y0215854D01*
X0011466Y0215854D01*
X0012200Y0215120D01*
X0012200Y0214386D01*
X0011466Y0213652D01*
X0009264Y0213652D01*
X0011466Y0211450D02*
X0012200Y0212184D01*
X0011466Y0221450D02*
X0009998Y0221450D01*
X0009264Y0222184D01*
X0009264Y0222918D01*
X0009998Y0223652D01*
X0011466Y0223652D01*
X0012200Y0224386D01*
X0012200Y0225120D01*
X0011466Y0225854D01*
X0009998Y0225854D01*
X0009264Y0225120D01*
X0009264Y0224386D01*
X0009998Y0223652D01*
X0011466Y0223652D02*
X0012200Y0222918D01*
X0012200Y0222184D01*
X0011466Y0221450D01*
X0012200Y0231450D02*
X0012200Y0232184D01*
X0009264Y0235120D01*
X0009264Y0235854D01*
X0012200Y0235854D01*
X0011466Y0241450D02*
X0009998Y0241450D01*
X0009264Y0242184D01*
X0009264Y0242918D01*
X0009998Y0243652D01*
X0012200Y0243652D01*
X0012200Y0242184D01*
X0011466Y0241450D01*
X0012200Y0243652D02*
X0010732Y0245120D01*
X0009264Y0245854D01*
X0009998Y0251450D02*
X0011466Y0251450D01*
X0012200Y0252184D01*
X0012200Y0253652D02*
X0010732Y0254386D01*
X0009998Y0254386D01*
X0009264Y0253652D01*
X0009264Y0252184D01*
X0009998Y0251450D01*
X0012200Y0253652D02*
X0012200Y0255854D01*
X0009264Y0255854D01*
X0009998Y0261450D02*
X0009998Y0265854D01*
X0012200Y0263652D01*
X0009264Y0263652D01*
X0009998Y0271450D02*
X0011466Y0271450D01*
X0012200Y0272184D01*
X0010732Y0273652D02*
X0009998Y0273652D01*
X0009264Y0272918D01*
X0009264Y0272184D01*
X0009998Y0271450D01*
X0009998Y0273652D02*
X0009264Y0274386D01*
X0009264Y0275120D01*
X0009998Y0275854D01*
X0011466Y0275854D01*
X0012200Y0275120D01*
X0012200Y0281450D02*
X0009264Y0281450D01*
X0012200Y0281450D02*
X0009264Y0284386D01*
X0009264Y0285120D01*
X0009998Y0285854D01*
X0011466Y0285854D01*
X0012200Y0285120D01*
X0012200Y0291450D02*
X0009264Y0291450D01*
X0010732Y0291450D02*
X0010732Y0295854D01*
X0012200Y0294386D01*
X0010732Y0155854D02*
X0010732Y0151450D01*
X0012200Y0151450D02*
X0009264Y0151450D01*
X0012200Y0154386D02*
X0010732Y0155854D01*
X0355118Y0155854D02*
X0356586Y0155120D01*
X0358053Y0153652D01*
X0355852Y0153652D01*
X0355118Y0152918D01*
X0355118Y0152184D01*
X0355852Y0151450D01*
X0357320Y0151450D01*
X0358053Y0152184D01*
X0358053Y0153652D01*
X0359722Y0154386D02*
X0359722Y0155120D01*
X0360456Y0155854D01*
X0361923Y0155854D01*
X0362657Y0155120D01*
X0359722Y0154386D02*
X0362657Y0151450D01*
X0359722Y0151450D01*
X0360456Y0145854D02*
X0361923Y0145854D01*
X0362657Y0145120D01*
X0360456Y0145854D02*
X0359722Y0145120D01*
X0359722Y0144386D01*
X0362657Y0141450D01*
X0359722Y0141450D01*
X0358053Y0142184D02*
X0357320Y0141450D01*
X0355852Y0141450D01*
X0355118Y0142184D01*
X0355118Y0143652D01*
X0355852Y0144386D01*
X0356586Y0144386D01*
X0358053Y0143652D01*
X0358053Y0145854D01*
X0355118Y0145854D01*
X0355852Y0135854D02*
X0358053Y0133652D01*
X0355118Y0133652D01*
X0355852Y0131450D02*
X0355852Y0135854D01*
X0359722Y0135120D02*
X0359722Y0134386D01*
X0362657Y0131450D01*
X0359722Y0131450D01*
X0359722Y0135120D02*
X0360456Y0135854D01*
X0361923Y0135854D01*
X0362657Y0135120D01*
X0361923Y0125854D02*
X0362657Y0125120D01*
X0361923Y0125854D02*
X0360456Y0125854D01*
X0359722Y0125120D01*
X0359722Y0124386D01*
X0362657Y0121450D01*
X0359722Y0121450D01*
X0358053Y0122184D02*
X0357320Y0121450D01*
X0355852Y0121450D01*
X0355118Y0122184D01*
X0355118Y0122918D01*
X0355852Y0123652D01*
X0356586Y0123652D01*
X0355852Y0123652D02*
X0355118Y0124386D01*
X0355118Y0125120D01*
X0355852Y0125854D01*
X0357320Y0125854D01*
X0358053Y0125120D01*
X0357320Y0115854D02*
X0355852Y0115854D01*
X0355118Y0115120D01*
X0355118Y0114386D01*
X0358053Y0111450D01*
X0355118Y0111450D01*
X0358053Y0115120D02*
X0357320Y0115854D01*
X0359722Y0115120D02*
X0360456Y0115854D01*
X0361923Y0115854D01*
X0362657Y0115120D01*
X0359722Y0115120D02*
X0359722Y0114386D01*
X0362657Y0111450D01*
X0359722Y0111450D01*
X0360456Y0105854D02*
X0361923Y0105854D01*
X0362657Y0105120D01*
X0360456Y0105854D02*
X0359722Y0105120D01*
X0359722Y0104386D01*
X0362657Y0101450D01*
X0359722Y0101450D01*
X0358053Y0101450D02*
X0355118Y0101450D01*
X0356586Y0101450D02*
X0356586Y0105854D01*
X0358053Y0104386D01*
X0358053Y0161450D02*
X0358053Y0162184D01*
X0355118Y0165120D01*
X0355118Y0165854D01*
X0358053Y0165854D01*
X0359722Y0165120D02*
X0360456Y0165854D01*
X0361923Y0165854D01*
X0362657Y0165120D01*
X0359722Y0165120D02*
X0359722Y0164386D01*
X0362657Y0161450D01*
X0359722Y0161450D01*
X0359722Y0171450D02*
X0362657Y0171450D01*
X0359722Y0174386D01*
X0359722Y0175120D01*
X0360456Y0175854D01*
X0361923Y0175854D01*
X0362657Y0175120D01*
X0358053Y0175120D02*
X0358053Y0174386D01*
X0357320Y0173652D01*
X0355852Y0173652D01*
X0355118Y0172918D01*
X0355118Y0172184D01*
X0355852Y0171450D01*
X0357320Y0171450D01*
X0358053Y0172184D01*
X0358053Y0172918D01*
X0357320Y0173652D01*
X0355852Y0173652D02*
X0355118Y0174386D01*
X0355118Y0175120D01*
X0355852Y0175854D01*
X0357320Y0175854D01*
X0358053Y0175120D01*
X0357320Y0181450D02*
X0355852Y0181450D01*
X0355118Y0182184D01*
X0355118Y0185120D01*
X0355852Y0185854D01*
X0357320Y0185854D01*
X0358053Y0185120D01*
X0358053Y0184386D01*
X0357320Y0183652D01*
X0355118Y0183652D01*
X0357320Y0181450D02*
X0358053Y0182184D01*
X0359722Y0181450D02*
X0362657Y0181450D01*
X0359722Y0184386D01*
X0359722Y0185120D01*
X0360456Y0185854D01*
X0361923Y0185854D01*
X0362657Y0185120D01*
X0361923Y0191450D02*
X0362657Y0192184D01*
X0361923Y0191450D02*
X0360456Y0191450D01*
X0359722Y0192184D01*
X0359722Y0192918D01*
X0360456Y0193652D01*
X0361189Y0193652D01*
X0360456Y0193652D02*
X0359722Y0194386D01*
X0359722Y0195120D01*
X0360456Y0195854D01*
X0361923Y0195854D01*
X0362657Y0195120D01*
X0358053Y0195120D02*
X0358053Y0192184D01*
X0355118Y0195120D01*
X0355118Y0192184D01*
X0355852Y0191450D01*
X0357320Y0191450D01*
X0358053Y0192184D01*
X0358053Y0195120D02*
X0357320Y0195854D01*
X0355852Y0195854D01*
X0355118Y0195120D01*
X0355118Y0201450D02*
X0358053Y0201450D01*
X0356586Y0201450D02*
X0356586Y0205854D01*
X0358053Y0204386D01*
X0359722Y0204386D02*
X0360456Y0203652D01*
X0359722Y0202918D01*
X0359722Y0202184D01*
X0360456Y0201450D01*
X0361923Y0201450D01*
X0362657Y0202184D01*
X0361189Y0203652D02*
X0360456Y0203652D01*
X0359722Y0204386D02*
X0359722Y0205120D01*
X0360456Y0205854D01*
X0361923Y0205854D01*
X0362657Y0205120D01*
X0361923Y0211450D02*
X0362657Y0212184D01*
X0361923Y0211450D02*
X0360456Y0211450D01*
X0359722Y0212184D01*
X0359722Y0212918D01*
X0360456Y0213652D01*
X0361189Y0213652D01*
X0360456Y0213652D02*
X0359722Y0214386D01*
X0359722Y0215120D01*
X0360456Y0215854D01*
X0361923Y0215854D01*
X0362657Y0215120D01*
X0358053Y0215120D02*
X0357320Y0215854D01*
X0355852Y0215854D01*
X0355118Y0215120D01*
X0355118Y0214386D01*
X0358053Y0211450D01*
X0355118Y0211450D01*
X0355852Y0221450D02*
X0357320Y0221450D01*
X0358053Y0222184D01*
X0359722Y0222184D02*
X0359722Y0222918D01*
X0360456Y0223652D01*
X0361189Y0223652D01*
X0360456Y0223652D02*
X0359722Y0224386D01*
X0359722Y0225120D01*
X0360456Y0225854D01*
X0361923Y0225854D01*
X0362657Y0225120D01*
X0362657Y0222184D02*
X0361923Y0221450D01*
X0360456Y0221450D01*
X0359722Y0222184D01*
X0358053Y0225120D02*
X0357320Y0225854D01*
X0355852Y0225854D01*
X0355118Y0225120D01*
X0355118Y0224386D01*
X0355852Y0223652D01*
X0355118Y0222918D01*
X0355118Y0222184D01*
X0355852Y0221450D01*
X0355852Y0223652D02*
X0356586Y0223652D01*
X0355852Y0231450D02*
X0355852Y0235854D01*
X0358053Y0233652D01*
X0355118Y0233652D01*
X0359722Y0232918D02*
X0359722Y0232184D01*
X0360456Y0231450D01*
X0361923Y0231450D01*
X0362657Y0232184D01*
X0361189Y0233652D02*
X0360456Y0233652D01*
X0359722Y0232918D01*
X0360456Y0233652D02*
X0359722Y0234386D01*
X0359722Y0235120D01*
X0360456Y0235854D01*
X0361923Y0235854D01*
X0362657Y0235120D01*
X0361923Y0241450D02*
X0362657Y0242184D01*
X0361923Y0241450D02*
X0360456Y0241450D01*
X0359722Y0242184D01*
X0359722Y0242918D01*
X0360456Y0243652D01*
X0361189Y0243652D01*
X0360456Y0243652D02*
X0359722Y0244386D01*
X0359722Y0245120D01*
X0360456Y0245854D01*
X0361923Y0245854D01*
X0362657Y0245120D01*
X0358053Y0245854D02*
X0358053Y0243652D01*
X0356586Y0244386D01*
X0355852Y0244386D01*
X0355118Y0243652D01*
X0355118Y0242184D01*
X0355852Y0241450D01*
X0357320Y0241450D01*
X0358053Y0242184D01*
X0358053Y0245854D02*
X0355118Y0245854D01*
X0355852Y0251450D02*
X0355118Y0252184D01*
X0355118Y0252918D01*
X0355852Y0253652D01*
X0358053Y0253652D01*
X0358053Y0252184D01*
X0357320Y0251450D01*
X0355852Y0251450D01*
X0358053Y0253652D02*
X0356586Y0255120D01*
X0355118Y0255854D01*
X0358053Y0261450D02*
X0358053Y0262184D01*
X0355118Y0265120D01*
X0355118Y0265854D01*
X0358053Y0265854D01*
X0359722Y0265120D02*
X0359722Y0264386D01*
X0360456Y0263652D01*
X0359722Y0262918D01*
X0359722Y0262184D01*
X0360456Y0261450D01*
X0361923Y0261450D01*
X0362657Y0262184D01*
X0361189Y0263652D02*
X0360456Y0263652D01*
X0359722Y0265120D02*
X0360456Y0265854D01*
X0361923Y0265854D01*
X0362657Y0265120D01*
X0361923Y0271450D02*
X0362657Y0272184D01*
X0361923Y0271450D02*
X0360456Y0271450D01*
X0359722Y0272184D01*
X0359722Y0272918D01*
X0360456Y0273652D01*
X0361189Y0273652D01*
X0360456Y0273652D02*
X0359722Y0274386D01*
X0359722Y0275120D01*
X0360456Y0275854D01*
X0361923Y0275854D01*
X0362657Y0275120D01*
X0358053Y0275120D02*
X0358053Y0274386D01*
X0357320Y0273652D01*
X0355852Y0273652D01*
X0355118Y0272918D01*
X0355118Y0272184D01*
X0355852Y0271450D01*
X0357320Y0271450D01*
X0358053Y0272184D01*
X0358053Y0272918D01*
X0357320Y0273652D01*
X0355852Y0273652D02*
X0355118Y0274386D01*
X0355118Y0275120D01*
X0355852Y0275854D01*
X0357320Y0275854D01*
X0358053Y0275120D01*
X0357320Y0281450D02*
X0355852Y0281450D01*
X0355118Y0282184D01*
X0355118Y0285120D01*
X0355852Y0285854D01*
X0357320Y0285854D01*
X0358053Y0285120D01*
X0358053Y0284386D01*
X0357320Y0283652D01*
X0355118Y0283652D01*
X0357320Y0281450D02*
X0358053Y0282184D01*
X0359722Y0282184D02*
X0360456Y0281450D01*
X0361923Y0281450D01*
X0362657Y0282184D01*
X0361189Y0283652D02*
X0360456Y0283652D01*
X0359722Y0282918D01*
X0359722Y0282184D01*
X0360456Y0283652D02*
X0359722Y0284386D01*
X0359722Y0285120D01*
X0360456Y0285854D01*
X0361923Y0285854D01*
X0362657Y0285120D01*
X0360456Y0291450D02*
X0360456Y0295854D01*
X0362657Y0293652D01*
X0359722Y0293652D01*
X0358053Y0292184D02*
X0358053Y0295120D01*
X0357320Y0295854D01*
X0355852Y0295854D01*
X0355118Y0295120D01*
X0358053Y0292184D01*
X0357320Y0291450D01*
X0355852Y0291450D01*
X0355118Y0292184D01*
X0355118Y0295120D01*
X0360456Y0255854D02*
X0359722Y0255120D01*
X0359722Y0254386D01*
X0360456Y0253652D01*
X0359722Y0252918D01*
X0359722Y0252184D01*
X0360456Y0251450D01*
X0361923Y0251450D01*
X0362657Y0252184D01*
X0361189Y0253652D02*
X0360456Y0253652D01*
X0360456Y0255854D02*
X0361923Y0255854D01*
X0362657Y0255120D01*
D11*
X0255650Y0356750D02*
X0249778Y0356750D01*
X0246442Y0356750D02*
X0246442Y0362622D01*
X0243506Y0365558D01*
X0240570Y0362622D01*
X0240570Y0356750D01*
X0237234Y0356750D02*
X0237234Y0365558D01*
X0234298Y0362622D01*
X0231362Y0365558D01*
X0231362Y0356750D01*
X0228026Y0356750D02*
X0222154Y0356750D01*
X0218818Y0358218D02*
X0217350Y0356750D01*
X0214414Y0356750D01*
X0212946Y0358218D01*
X0212946Y0364090D01*
X0214414Y0365558D01*
X0217350Y0365558D01*
X0218818Y0364090D01*
X0218818Y0358218D01*
X0209610Y0356750D02*
X0209610Y0365558D01*
X0203739Y0365558D01*
X0200402Y0365558D02*
X0197467Y0365558D01*
X0198934Y0365558D02*
X0198934Y0356750D01*
X0197467Y0356750D02*
X0200402Y0356750D01*
X0203739Y0356750D02*
X0209610Y0356750D01*
X0209610Y0361154D02*
X0206674Y0361154D01*
X0190312Y0357400D02*
X0184687Y0357400D01*
X0182812Y0357400D02*
X0177187Y0357400D01*
X0177187Y0359275D02*
X0177187Y0361150D01*
X0180937Y0361150D01*
X0180937Y0359275D01*
X0177187Y0359275D01*
X0177187Y0363025D02*
X0177187Y0364900D01*
X0177187Y0363025D02*
X0180937Y0363025D01*
X0180937Y0364900D01*
X0179062Y0364900D02*
X0179062Y0363650D01*
X0180937Y0366775D02*
X0177187Y0366775D01*
X0182812Y0366775D02*
X0182812Y0357400D01*
X0184687Y0359275D02*
X0186562Y0359275D01*
X0186562Y0361150D01*
X0184687Y0361150D01*
X0186562Y0361150D02*
X0188437Y0361150D01*
X0188437Y0359275D01*
X0186562Y0359275D01*
X0190312Y0357400D02*
X0190312Y0366775D01*
X0188437Y0366775D02*
X0184687Y0366775D01*
X0184687Y0364900D02*
X0188437Y0364900D01*
X0188437Y0366775D01*
X0188437Y0364900D02*
X0188437Y0363025D01*
X0184687Y0363025D01*
X0168150Y0362622D02*
X0168150Y0356750D01*
X0168150Y0361154D02*
X0162278Y0361154D01*
X0162278Y0362622D02*
X0162278Y0356750D01*
X0158942Y0358218D02*
X0153070Y0364090D01*
X0153070Y0358218D01*
X0154538Y0356750D01*
X0157474Y0356750D01*
X0158942Y0358218D01*
X0158942Y0364090D01*
X0157474Y0365558D01*
X0154538Y0365558D01*
X0153070Y0364090D01*
X0149734Y0364090D02*
X0148266Y0365558D01*
X0145330Y0365558D01*
X0143862Y0364090D01*
X0143862Y0358218D01*
X0145330Y0356750D01*
X0148266Y0356750D01*
X0149734Y0358218D01*
X0148266Y0361154D02*
X0143862Y0361154D01*
X0148266Y0361154D02*
X0149734Y0362622D01*
X0149734Y0364090D01*
X0140526Y0364090D02*
X0139058Y0365558D01*
X0136122Y0365558D01*
X0134654Y0364090D01*
X0134654Y0362622D01*
X0140526Y0356750D01*
X0134654Y0356750D01*
X0131318Y0358218D02*
X0129850Y0356750D01*
X0126914Y0356750D01*
X0125446Y0358218D01*
X0125446Y0361154D01*
X0126914Y0362622D01*
X0128382Y0362622D01*
X0131318Y0361154D01*
X0131318Y0365558D01*
X0125446Y0365558D01*
X0122110Y0364090D02*
X0120642Y0365558D01*
X0117706Y0365558D01*
X0116239Y0364090D01*
X0122110Y0358218D01*
X0120642Y0356750D01*
X0117706Y0356750D01*
X0116239Y0358218D01*
X0116239Y0364090D01*
X0112902Y0364090D02*
X0112902Y0358218D01*
X0107031Y0364090D01*
X0107031Y0358218D01*
X0108499Y0356750D01*
X0111434Y0356750D01*
X0112902Y0358218D01*
X0112902Y0364090D02*
X0111434Y0365558D01*
X0108499Y0365558D01*
X0107031Y0364090D01*
X0122110Y0364090D02*
X0122110Y0358218D01*
X0162278Y0362622D02*
X0165214Y0365558D01*
X0168150Y0362622D01*
X0228026Y0365558D02*
X0228026Y0356750D01*
X0240570Y0361154D02*
X0246442Y0361154D01*
X0255650Y0365558D02*
X0255650Y0356750D01*
D12*
X0033750Y0301150D02*
X0013750Y0301150D01*
X0013750Y0298650D01*
X0033750Y0298650D02*
X0033750Y0301150D01*
X0035000Y0295525D02*
X0035000Y0291775D01*
X0033125Y0293650D01*
X0035000Y0295525D01*
X0035000Y0295362D02*
X0034836Y0295362D01*
X0035000Y0294863D02*
X0034337Y0294863D01*
X0033839Y0294365D02*
X0035000Y0294365D01*
X0035000Y0293866D02*
X0033340Y0293866D01*
X0033407Y0293368D02*
X0035000Y0293368D01*
X0035000Y0292869D02*
X0033906Y0292869D01*
X0034404Y0292371D02*
X0035000Y0292371D01*
X0035000Y0291872D02*
X0034903Y0291872D01*
X0033750Y0098650D02*
X0033750Y0096150D01*
X0013750Y0096150D01*
X0013750Y0098650D01*
D13*
X0013750Y0048650D02*
X0023750Y0048650D01*
X0023750Y0051150D01*
X0026250Y0048650D01*
X0031250Y0048650D01*
X0033750Y0051150D01*
X0036250Y0048650D01*
X0041250Y0048650D01*
X0043750Y0051150D01*
X0046250Y0048650D01*
X0051250Y0048650D01*
X0053750Y0051150D01*
X0053750Y0056150D01*
X0051250Y0058650D01*
X0046250Y0058650D01*
X0043750Y0056150D01*
X0041250Y0058650D01*
X0036250Y0058650D01*
X0033750Y0056150D01*
X0031250Y0058650D01*
X0026250Y0058650D01*
X0023750Y0056150D01*
X0023750Y0058650D01*
X0013750Y0058650D01*
X0013750Y0056150D01*
X0013750Y0051150D01*
X0013750Y0048650D01*
X0013750Y0058650D02*
X0023750Y0058650D01*
X0023750Y0061150D01*
X0026250Y0058650D01*
X0031250Y0058650D01*
X0033750Y0061150D01*
X0036250Y0058650D01*
X0041250Y0058650D01*
X0043750Y0061150D01*
X0046250Y0058650D01*
X0051250Y0058650D01*
X0053750Y0061150D01*
X0053750Y0066150D01*
X0051250Y0068650D01*
X0046250Y0068650D01*
X0043750Y0066150D01*
X0041250Y0068650D01*
X0036250Y0068650D01*
X0033750Y0066150D01*
X0031250Y0068650D01*
X0026250Y0068650D01*
X0023750Y0066150D01*
X0023750Y0068650D01*
X0013750Y0068650D01*
X0013750Y0066150D01*
X0013750Y0061150D01*
X0013750Y0058650D01*
X0013750Y0068650D02*
X0023750Y0068650D01*
X0023750Y0071150D01*
X0026250Y0068650D01*
X0031250Y0068650D01*
X0033750Y0071150D01*
X0036250Y0068650D01*
X0041250Y0068650D01*
X0043750Y0071150D01*
X0046250Y0068650D01*
X0051250Y0068650D01*
X0053750Y0071150D01*
X0053750Y0076150D01*
X0051250Y0078650D01*
X0046250Y0078650D01*
X0043750Y0076150D01*
X0041250Y0078650D01*
X0036250Y0078650D01*
X0033750Y0076150D01*
X0031250Y0078650D01*
X0026250Y0078650D01*
X0023750Y0076150D01*
X0023750Y0078650D01*
X0013750Y0078650D01*
X0013750Y0076150D01*
X0013750Y0071150D01*
X0013750Y0068650D01*
X0013750Y0078650D02*
X0023750Y0078650D01*
X0023750Y0081150D01*
X0026250Y0078650D01*
X0031250Y0078650D01*
X0033750Y0081150D01*
X0036250Y0078650D01*
X0041250Y0078650D01*
X0043750Y0081150D01*
X0046250Y0078650D01*
X0051250Y0078650D01*
X0053750Y0081150D01*
X0053750Y0086150D01*
X0051250Y0088650D01*
X0046250Y0088650D01*
X0043750Y0086150D01*
X0041250Y0088650D01*
X0036250Y0088650D01*
X0033750Y0086150D01*
X0031250Y0088650D01*
X0026250Y0088650D01*
X0023750Y0086150D01*
X0023750Y0088650D01*
X0013750Y0088650D01*
X0013750Y0086150D01*
X0013750Y0081150D01*
X0013750Y0078650D01*
M02*
