%
M48
M72
T01C0.0197
T02C0.0400
T03C0.0866
T04C0.1260
%
T01
X12765Y1755
X13158Y1755
X13158Y2149
X13158Y2542
X12765Y2542
X12765Y2149
X13552Y2149
X13552Y2542
X13552Y1755
X45048Y1755
X45048Y2149
X45048Y2542
X45442Y2542
X45442Y2149
X45836Y2149
X45836Y2542
X45836Y1755
X45442Y1755
X45442Y37188
X45442Y37582
X45442Y37975
X45836Y37975
X45836Y37582
X45836Y37188
X45048Y37188
X45048Y37582
X45048Y37975
X13552Y37975
X13552Y37582
X13158Y37582
X13158Y37975
X12765Y37975
X12765Y37582
X12765Y37188
X13158Y37188
X13552Y37188
T02
X13800Y34365
X12800Y34365
X11800Y34365
X10800Y34365
X9800Y34365
X8800Y34365
X7800Y34365
X6800Y34365
X5800Y34365
X4800Y34365
X3800Y34365
X2800Y34365
X1800Y34365
X1800Y33365
X2800Y33365
X2800Y32365
X1800Y32365
X1800Y31365
X2800Y31365
X2800Y30365
X1800Y30365
X1800Y29365
X2800Y29365
X2800Y28365
X1800Y28365
X1800Y27365
X2800Y27365
X2800Y26365
X1800Y26365
X1800Y25365
X2800Y25365
X2800Y24365
X1800Y24365
X1800Y23365
X2800Y23365
X2800Y22365
X1800Y22365
X1800Y21365
X2800Y21365
X2800Y20365
X1800Y20365
X1800Y19365
X2800Y19365
X2800Y18365
X1800Y18365
X1800Y17365
X2800Y17365
X2800Y16365
X1800Y16365
X1800Y15365
X2800Y15365
X2800Y14365
X1800Y14365
X1800Y13365
X2800Y13365
X2800Y12365
X1800Y12365
X1800Y11365
X2800Y11365
X2800Y10365
X1800Y10365
X1800Y9365
X2800Y9365
X2800Y8365
X1800Y8365
X1800Y7365
X2800Y7365
X2800Y6365
X1800Y6365
X1800Y5365
X2800Y5365
X3800Y5365
X4800Y5365
X5800Y5365
X6800Y5365
X7800Y5365
X8800Y5365
X9800Y5365
X10800Y5365
X11800Y5365
X12800Y5365
X13800Y5365
X14800Y5365
X15800Y5365
X16800Y5365
X17800Y5365
X18800Y5365
X19800Y5365
X20800Y5365
X21800Y5365
X22800Y5365
X23800Y5365
X24800Y5365
X25800Y5365
X26800Y5365
X27800Y5365
X28800Y5365
X29800Y5365
X30800Y5365
X31800Y5365
X32800Y5365
X33800Y5365
X34800Y5365
X35800Y5365
X36800Y5365
X37800Y5365
X38800Y5365
X39800Y5365
X40800Y5365
X41800Y5365
X42800Y5365
X43800Y5365
X44800Y5365
X45800Y5365
X46800Y5365
X47800Y5365
X48800Y5365
X49800Y5365
X50800Y5365
X51800Y5365
X52800Y5365
X53800Y5365
X54800Y5365
X55800Y5365
X56800Y5365
X56800Y6365
X55800Y6365
X54800Y6365
X53800Y6365
X52800Y6365
X51800Y6365
X50800Y6365
X49800Y6365
X48800Y6365
X47800Y6365
X46800Y6365
X45800Y6365
X44800Y6365
X43800Y6365
X42800Y6365
X41800Y6365
X40800Y6365
X39800Y6365
X38800Y6365
X37800Y6365
X36800Y6365
X35800Y6365
X34800Y6365
X33800Y6365
X32800Y6365
X31800Y6365
X30800Y6365
X29800Y6365
X28800Y6365
X27800Y6365
X26800Y6365
X25800Y6365
X24800Y6365
X23800Y6365
X22800Y6365
X21800Y6365
X20800Y6365
X19800Y6365
X18800Y6365
X17800Y6365
X16800Y6365
X15800Y6365
X14800Y6365
X13800Y6365
X12800Y6365
X11800Y6365
X10800Y6365
X9800Y6365
X8800Y6365
X7800Y6365
X6800Y6365
X5800Y6365
X4800Y6365
X3800Y6365
X3800Y7365
X4800Y7365
X5800Y7365
X6800Y7365
X7800Y7365
X8800Y7365
X9800Y7365
X10800Y7365
X11800Y7365
X12800Y7365
X13800Y7365
X14800Y7365
X15800Y7365
X16800Y7365
X17800Y7365
X18800Y7365
X19800Y7365
X20800Y7365
X21800Y7365
X22800Y7365
X23800Y7365
X24800Y7365
X25800Y7365
X26800Y7365
X27800Y7365
X28800Y7365
X29800Y7365
X30800Y7365
X31800Y7365
X32800Y7365
X33800Y7365
X34800Y7365
X35800Y7365
X36800Y7365
X37800Y7365
X38800Y7365
X39800Y7365
X40800Y7365
X41800Y7365
X42800Y7365
X43800Y7365
X44800Y7365
X45800Y7365
X46800Y7365
X47800Y7365
X48800Y7365
X49800Y7365
X50800Y7365
X51800Y7365
X52800Y7365
X53800Y7365
X54800Y7365
X55800Y7365
X56800Y7365
X56800Y8365
X55800Y8365
X54800Y8365
X53800Y8365
X52800Y8365
X51800Y8365
X50800Y8365
X49800Y8365
X48800Y8365
X47800Y8365
X46800Y8365
X45800Y8365
X44800Y8365
X43800Y8365
X42800Y8365
X41800Y8365
X40800Y8365
X39800Y8365
X38800Y8365
X37800Y8365
X36800Y8365
X35800Y8365
X34800Y8365
X33800Y8365
X32800Y8365
X31800Y8365
X30800Y8365
X29800Y8365
X28800Y8365
X27800Y8365
X26800Y8365
X25800Y8365
X24800Y8365
X23800Y8365
X22800Y8365
X21800Y8365
X20800Y8365
X19800Y8365
X18800Y8365
X17800Y8365
X16800Y8365
X15800Y8365
X14800Y8365
X13800Y8365
X12800Y8365
X11800Y8365
X10800Y8365
X9800Y8365
X8800Y8365
X7800Y8365
X6800Y8365
X5800Y8365
X4800Y8365
X3800Y8365
X3800Y9365
X4800Y9365
X5800Y9365
X6800Y9365
X7800Y9365
X8800Y9365
X9800Y9365
X10800Y9365
X11800Y9365
X12800Y9365
X13800Y9365
X14800Y9365
X15800Y9365
X16800Y9365
X17800Y9365
X18800Y9365
X19800Y9365
X20800Y9365
X21800Y9365
X22800Y9365
X23800Y9365
X24800Y9365
X25800Y9365
X26800Y9365
X27800Y9365
X28800Y9365
X29800Y9365
X30800Y9365
X31800Y9365
X32800Y9365
X33800Y9365
X34800Y9365
X35800Y9365
X36800Y9365
X37800Y9365
X38800Y9365
X39800Y9365
X40800Y9365
X41800Y9365
X42800Y9365
X43800Y9365
X44800Y9365
X45800Y9365
X46800Y9365
X47800Y9365
X48800Y9365
X49800Y9365
X50800Y9365
X51800Y9365
X52800Y9365
X53800Y9365
X54800Y9365
X55800Y9365
X56800Y9365
X56800Y10365
X55800Y10365
X54800Y10365
X53800Y10365
X52800Y10365
X51800Y10365
X50800Y10365
X49800Y10365
X48800Y10365
X47800Y10365
X46800Y10365
X45800Y10365
X44800Y10365
X43800Y10365
X42800Y10365
X41800Y10365
X40800Y10365
X39800Y10365
X38800Y10365
X37800Y10365
X36800Y10365
X35800Y10365
X34800Y10365
X33800Y10365
X32800Y10365
X31800Y10365
X30800Y10365
X29800Y10365
X28800Y10365
X27800Y10365
X26800Y10365
X25800Y10365
X24800Y10365
X23800Y10365
X22800Y10365
X21800Y10365
X20800Y10365
X19800Y10365
X18800Y10365
X17800Y10365
X16800Y10365
X15800Y10365
X14800Y10365
X13800Y10365
X12800Y10365
X11800Y10365
X10800Y10365
X9800Y10365
X8800Y10365
X7800Y10365
X6800Y10365
X5800Y10365
X4800Y10365
X3800Y10365
X3800Y11365
X4800Y11365
X5800Y11365
X6800Y11365
X7800Y11365
X8800Y11365
X9800Y11365
X10800Y11365
X11800Y11365
X12800Y11365
X13800Y11365
X14800Y11365
X15800Y11365
X16800Y11365
X17800Y11365
X18800Y11365
X19800Y11365
X20800Y11365
X21800Y11365
X22800Y11365
X23800Y11365
X24800Y11365
X25800Y11365
X26800Y11365
X27800Y11365
X28800Y11365
X29800Y11365
X30800Y11365
X31800Y11365
X32800Y11365
X33800Y11365
X34800Y11365
X35800Y11365
X36800Y11365
X37800Y11365
X38800Y11365
X39800Y11365
X40800Y11365
X41800Y11365
X42800Y11365
X43800Y11365
X44800Y11365
X45800Y11365
X46800Y11365
X47800Y11365
X48800Y11365
X49800Y11365
X50800Y11365
X51800Y11365
X52800Y11365
X53800Y11365
X54800Y11365
X55800Y11365
X56800Y11365
X56800Y12365
X55800Y12365
X54800Y12365
X53800Y12365
X52800Y12365
X51800Y12365
X50800Y12365
X49800Y12365
X48800Y12365
X47800Y12365
X46800Y12365
X45800Y12365
X44800Y12365
X43800Y12365
X42800Y12365
X41800Y12365
X40800Y12365
X39800Y12365
X38800Y12365
X37800Y12365
X36800Y12365
X35800Y12365
X34800Y12365
X33800Y12365
X32800Y12365
X31800Y12365
X30800Y12365
X29800Y12365
X28800Y12365
X27800Y12365
X26800Y12365
X25800Y12365
X24800Y12365
X23800Y12365
X22800Y12365
X21800Y12365
X20800Y12365
X19800Y12365
X18800Y12365
X17800Y12365
X16800Y12365
X15800Y12365
X14800Y12365
X13800Y12365
X12800Y12365
X11800Y12365
X10800Y12365
X9800Y12365
X8800Y12365
X7800Y12365
X6800Y12365
X5800Y12365
X4800Y12365
X3800Y12365
X3800Y13365
X4800Y13365
X5800Y13365
X6800Y13365
X7800Y13365
X8800Y13365
X9800Y13365
X10800Y13365
X11800Y13365
X12800Y13365
X13800Y13365
X14800Y13365
X15800Y13365
X16800Y13365
X17800Y13365
X18800Y13365
X19800Y13365
X20800Y13365
X21800Y13365
X22800Y13365
X23800Y13365
X24800Y13365
X25800Y13365
X26800Y13365
X27800Y13365
X28800Y13365
X29800Y13365
X30800Y13365
X31800Y13365
X32800Y13365
X33800Y13365
X34800Y13365
X35800Y13365
X36800Y13365
X37800Y13365
X38800Y13365
X39800Y13365
X40800Y13365
X41800Y13365
X42800Y13365
X43800Y13365
X44800Y13365
X45800Y13365
X46800Y13365
X47800Y13365
X48800Y13365
X49800Y13365
X50800Y13365
X51800Y13365
X52800Y13365
X53800Y13365
X54800Y13365
X55800Y13365
X56800Y13365
X56800Y14365
X55800Y14365
X54800Y14365
X53800Y14365
X52800Y14365
X51800Y14365
X50800Y14365
X49800Y14365
X48800Y14365
X47800Y14365
X46800Y14365
X45800Y14365
X44800Y14365
X43800Y14365
X42800Y14365
X41800Y14365
X40800Y14365
X39800Y14365
X38800Y14365
X37800Y14365
X36800Y14365
X35800Y14365
X34800Y14365
X33800Y14365
X32800Y14365
X31800Y14365
X30800Y14365
X29800Y14365
X28800Y14365
X27800Y14365
X26800Y14365
X25800Y14365
X24800Y14365
X23800Y14365
X22800Y14365
X21800Y14365
X20800Y14365
X19800Y14365
X18800Y14365
X17800Y14365
X16800Y14365
X15800Y14365
X14800Y14365
X13800Y14365
X12800Y14365
X11800Y14365
X10800Y14365
X9800Y14365
X8800Y14365
X7800Y14365
X6800Y14365
X5800Y14365
X4800Y14365
X3800Y14365
X3800Y15365
X4800Y15365
X5800Y15365
X6800Y15365
X7800Y15365
X8800Y15365
X9800Y15365
X10800Y15365
X11800Y15365
X12800Y15365
X13800Y15365
X14800Y15365
X15800Y15365
X16800Y15365
X17800Y15365
X18800Y15365
X19800Y15365
X20800Y15365
X21800Y15365
X22800Y15365
X23800Y15365
X24800Y15365
X25800Y15365
X26800Y15365
X27800Y15365
X28800Y15365
X29800Y15365
X30800Y15365
X31800Y15365
X32800Y15365
X33800Y15365
X34800Y15365
X35800Y15365
X36800Y15365
X37800Y15365
X38800Y15365
X39800Y15365
X40800Y15365
X41800Y15365
X42800Y15365
X43800Y15365
X44800Y15365
X45800Y15365
X46800Y15365
X47800Y15365
X48800Y15365
X49800Y15365
X50800Y15365
X51800Y15365
X52800Y15365
X53800Y15365
X54800Y15365
X55800Y15365
X56800Y15365
X56800Y16365
X55800Y16365
X54800Y16365
X53800Y16365
X52800Y16365
X51800Y16365
X50800Y16365
X49800Y16365
X48800Y16365
X47800Y16365
X46800Y16365
X45800Y16365
X44800Y16365
X43800Y16365
X42800Y16365
X41800Y16365
X40800Y16365
X39800Y16365
X38800Y16365
X37800Y16365
X36800Y16365
X35800Y16365
X34800Y16365
X33800Y16365
X32800Y16365
X31800Y16365
X30800Y16365
X29800Y16365
X28800Y16365
X27800Y16365
X26800Y16365
X25800Y16365
X24800Y16365
X23800Y16365
X22800Y16365
X21800Y16365
X20800Y16365
X19800Y16365
X18800Y16365
X17800Y16365
X16800Y16365
X15800Y16365
X14800Y16365
X13800Y16365
X12800Y16365
X11800Y16365
X10800Y16365
X9800Y16365
X8800Y16365
X7800Y16365
X6800Y16365
X5800Y16365
X4800Y16365
X3800Y16365
X3800Y17365
X4800Y17365
X5800Y17365
X6800Y17365
X7800Y17365
X8800Y17365
X9800Y17365
X10800Y17365
X11800Y17365
X12800Y17365
X13800Y17365
X14800Y17365
X15800Y17365
X16800Y17365
X17800Y17365
X18800Y17365
X19800Y17365
X20800Y17365
X21800Y17365
X22800Y17365
X23800Y17365
X24800Y17365
X25800Y17365
X26800Y17365
X27800Y17365
X28800Y17365
X29800Y17365
X30800Y17365
X31800Y17365
X32800Y17365
X33800Y17365
X34800Y17365
X35800Y17365
X36800Y17365
X37800Y17365
X38800Y17365
X39800Y17365
X40800Y17365
X41800Y17365
X42800Y17365
X43800Y17365
X44800Y17365
X45800Y17365
X46800Y17365
X47800Y17365
X48800Y17365
X49800Y17365
X50800Y17365
X51800Y17365
X52800Y17365
X53800Y17365
X54800Y17365
X55800Y17365
X56800Y17365
X56800Y18365
X55800Y18365
X54800Y18365
X53800Y18365
X52800Y18365
X51800Y18365
X50800Y18365
X49800Y18365
X48800Y18365
X47800Y18365
X46800Y18365
X45800Y18365
X44800Y18365
X43800Y18365
X42800Y18365
X41800Y18365
X40800Y18365
X39800Y18365
X38800Y18365
X37800Y18365
X36800Y18365
X35800Y18365
X34800Y18365
X33800Y18365
X32800Y18365
X31800Y18365
X30800Y18365
X29800Y18365
X28800Y18365
X27800Y18365
X26800Y18365
X25800Y18365
X24800Y18365
X23800Y18365
X22800Y18365
X21800Y18365
X20800Y18365
X19800Y18365
X18800Y18365
X17800Y18365
X16800Y18365
X15800Y18365
X14800Y18365
X13800Y18365
X12800Y18365
X11800Y18365
X10800Y18365
X9800Y18365
X8800Y18365
X7800Y18365
X6800Y18365
X5800Y18365
X4800Y18365
X3800Y18365
X3800Y19365
X4800Y19365
X5800Y19365
X6800Y19365
X7800Y19365
X8800Y19365
X9800Y19365
X10800Y19365
X11800Y19365
X12800Y19365
X13800Y19365
X14800Y19365
X15800Y19365
X16800Y19365
X17800Y19365
X18800Y19365
X19800Y19365
X20800Y19365
X21800Y19365
X22800Y19365
X23800Y19365
X24800Y19365
X25800Y19365
X26800Y19365
X27800Y19365
X28800Y19365
X29800Y19365
X30800Y19365
X31800Y19365
X32800Y19365
X33800Y19365
X34800Y19365
X35800Y19365
X36800Y19365
X37800Y19365
X38800Y19365
X39800Y19365
X40800Y19365
X41800Y19365
X42800Y19365
X43800Y19365
X44800Y19365
X45800Y19365
X46800Y19365
X47800Y19365
X48800Y19365
X49800Y19365
X50800Y19365
X51800Y19365
X52800Y19365
X53800Y19365
X54800Y19365
X55800Y19365
X56800Y19365
X56800Y20365
X55800Y20365
X54800Y20365
X53800Y20365
X52800Y20365
X51800Y20365
X50800Y20365
X49800Y20365
X48800Y20365
X47800Y20365
X46800Y20365
X45800Y20365
X44800Y20365
X43800Y20365
X42800Y20365
X41800Y20365
X40800Y20365
X39800Y20365
X38800Y20365
X37800Y20365
X36800Y20365
X35800Y20365
X34800Y20365
X33800Y20365
X32800Y20365
X31800Y20365
X30800Y20365
X29800Y20365
X28800Y20365
X27800Y20365
X26800Y20365
X25800Y20365
X24800Y20365
X23800Y20365
X22800Y20365
X21800Y20365
X20800Y20365
X19800Y20365
X18800Y20365
X17800Y20365
X16800Y20365
X15800Y20365
X14800Y20365
X13800Y20365
X12800Y20365
X11800Y20365
X10800Y20365
X9800Y20365
X8800Y20365
X7800Y20365
X6800Y20365
X5800Y20365
X4800Y20365
X3800Y20365
X3800Y21365
X4800Y21365
X5800Y21365
X6800Y21365
X7800Y21365
X8800Y21365
X9800Y21365
X10800Y21365
X11800Y21365
X12800Y21365
X13800Y21365
X14800Y21365
X15800Y21365
X16800Y21365
X17800Y21365
X18800Y21365
X19800Y21365
X20800Y21365
X21800Y21365
X22800Y21365
X23800Y21365
X24800Y21365
X25800Y21365
X26800Y21365
X27800Y21365
X28800Y21365
X29800Y21365
X30800Y21365
X31800Y21365
X32800Y21365
X33800Y21365
X34800Y21365
X35800Y21365
X36800Y21365
X37800Y21365
X38800Y21365
X39800Y21365
X40800Y21365
X41800Y21365
X42800Y21365
X43800Y21365
X44800Y21365
X45800Y21365
X46800Y21365
X47800Y21365
X48800Y21365
X49800Y21365
X50800Y21365
X51800Y21365
X52800Y21365
X53800Y21365
X54800Y21365
X55800Y21365
X56800Y21365
X56800Y22365
X55800Y22365
X54800Y22365
X53800Y22365
X52800Y22365
X51800Y22365
X50800Y22365
X49800Y22365
X48800Y22365
X47800Y22365
X46800Y22365
X45800Y22365
X44800Y22365
X43800Y22365
X42800Y22365
X41800Y22365
X40800Y22365
X39800Y22365
X38800Y22365
X37800Y22365
X36800Y22365
X35800Y22365
X34800Y22365
X33800Y22365
X32800Y22365
X31800Y22365
X30800Y22365
X29800Y22365
X28800Y22365
X27800Y22365
X26800Y22365
X25800Y22365
X24800Y22365
X23800Y22365
X22800Y22365
X21800Y22365
X20800Y22365
X19800Y22365
X18800Y22365
X17800Y22365
X16800Y22365
X15800Y22365
X14800Y22365
X13800Y22365
X12800Y22365
X11800Y22365
X10800Y22365
X9800Y22365
X8800Y22365
X7800Y22365
X6800Y22365
X5800Y22365
X4800Y22365
X3800Y22365
X3800Y23365
X4800Y23365
X5800Y23365
X6800Y23365
X7800Y23365
X8800Y23365
X9800Y23365
X10800Y23365
X11800Y23365
X12800Y23365
X13800Y23365
X14800Y23365
X15800Y23365
X16800Y23365
X17800Y23365
X18800Y23365
X19800Y23365
X20800Y23365
X21800Y23365
X22800Y23365
X23800Y23365
X24800Y23365
X25800Y23365
X26800Y23365
X27800Y23365
X28800Y23365
X29800Y23365
X30800Y23365
X31800Y23365
X32800Y23365
X33800Y23365
X34800Y23365
X35800Y23365
X36800Y23365
X37800Y23365
X38800Y23365
X39800Y23365
X40800Y23365
X41800Y23365
X42800Y23365
X43800Y23365
X44800Y23365
X45800Y23365
X46800Y23365
X47800Y23365
X48800Y23365
X49800Y23365
X50800Y23365
X51800Y23365
X52800Y23365
X53800Y23365
X54800Y23365
X55800Y23365
X56800Y23365
X56800Y24365
X55800Y24365
X54800Y24365
X53800Y24365
X52800Y24365
X51800Y24365
X50800Y24365
X49800Y24365
X48800Y24365
X47800Y24365
X46800Y24365
X45800Y24365
X44800Y24365
X43800Y24365
X42800Y24365
X41800Y24365
X40800Y24365
X39800Y24365
X38800Y24365
X37800Y24365
X36800Y24365
X35800Y24365
X34800Y24365
X33800Y24365
X32800Y24365
X31800Y24365
X30800Y24365
X29800Y24365
X28800Y24365
X27800Y24365
X26800Y24365
X25800Y24365
X24800Y24365
X23800Y24365
X22800Y24365
X21800Y24365
X20800Y24365
X19800Y24365
X18800Y24365
X17800Y24365
X16800Y24365
X15800Y24365
X14800Y24365
X13800Y24365
X12800Y24365
X11800Y24365
X10800Y24365
X9800Y24365
X8800Y24365
X7800Y24365
X6800Y24365
X5800Y24365
X4800Y24365
X3800Y24365
X3800Y25365
X4800Y25365
X5800Y25365
X6800Y25365
X7800Y25365
X8800Y25365
X9800Y25365
X10800Y25365
X11800Y25365
X12800Y25365
X13800Y25365
X14800Y25365
X15800Y25365
X16800Y25365
X17800Y25365
X18800Y25365
X19800Y25365
X20800Y25365
X21800Y25365
X22800Y25365
X23800Y25365
X24800Y25365
X25800Y25365
X26800Y25365
X27800Y25365
X28800Y25365
X29800Y25365
X30800Y25365
X31800Y25365
X32800Y25365
X33800Y25365
X34800Y25365
X35800Y25365
X36800Y25365
X37800Y25365
X38800Y25365
X39800Y25365
X40800Y25365
X41800Y25365
X42800Y25365
X43800Y25365
X44800Y25365
X45800Y25365
X46800Y25365
X47800Y25365
X48800Y25365
X49800Y25365
X50800Y25365
X51800Y25365
X52800Y25365
X53800Y25365
X54800Y25365
X55800Y25365
X56800Y25365
X56800Y26365
X55800Y26365
X54800Y26365
X53800Y26365
X52800Y26365
X51800Y26365
X50800Y26365
X49800Y26365
X48800Y26365
X47800Y26365
X46800Y26365
X45800Y26365
X44800Y26365
X43800Y26365
X42800Y26365
X41800Y26365
X40800Y26365
X39800Y26365
X38800Y26365
X37800Y26365
X36800Y26365
X35800Y26365
X34800Y26365
X33800Y26365
X32800Y26365
X31800Y26365
X30800Y26365
X29800Y26365
X28800Y26365
X27800Y26365
X26800Y26365
X25800Y26365
X24800Y26365
X23800Y26365
X22800Y26365
X21800Y26365
X20800Y26365
X19800Y26365
X18800Y26365
X17800Y26365
X16800Y26365
X15800Y26365
X14800Y26365
X13800Y26365
X12800Y26365
X11800Y26365
X10800Y26365
X9800Y26365
X8800Y26365
X7800Y26365
X6800Y26365
X5800Y26365
X4800Y26365
X3800Y26365
X3800Y27365
X4800Y27365
X5800Y27365
X6800Y27365
X7800Y27365
X8800Y27365
X9800Y27365
X10800Y27365
X11800Y27365
X12800Y27365
X13800Y27365
X14800Y27365
X15800Y27365
X16800Y27365
X17800Y27365
X18800Y27365
X19800Y27365
X20800Y27365
X21800Y27365
X22800Y27365
X23800Y27365
X24800Y27365
X25800Y27365
X26800Y27365
X27800Y27365
X28800Y27365
X29800Y27365
X30800Y27365
X31800Y27365
X32800Y27365
X33800Y27365
X34800Y27365
X35800Y27365
X36800Y27365
X37800Y27365
X38800Y27365
X39800Y27365
X40800Y27365
X41800Y27365
X42800Y27365
X43800Y27365
X44800Y27365
X45800Y27365
X46800Y27365
X47800Y27365
X48800Y27365
X49800Y27365
X50800Y27365
X51800Y27365
X52800Y27365
X53800Y27365
X54800Y27365
X55800Y27365
X56800Y27365
X56800Y28365
X55800Y28365
X54800Y28365
X53800Y28365
X52800Y28365
X51800Y28365
X50800Y28365
X49800Y28365
X48800Y28365
X47800Y28365
X46800Y28365
X45800Y28365
X44800Y28365
X43800Y28365
X42800Y28365
X41800Y28365
X40800Y28365
X39800Y28365
X38800Y28365
X37800Y28365
X36800Y28365
X35800Y28365
X34800Y28365
X33800Y28365
X32800Y28365
X31800Y28365
X30800Y28365
X29800Y28365
X28800Y28365
X27800Y28365
X26800Y28365
X25800Y28365
X24800Y28365
X23800Y28365
X22800Y28365
X21800Y28365
X20800Y28365
X19800Y28365
X18800Y28365
X17800Y28365
X16800Y28365
X15800Y28365
X14800Y28365
X13800Y28365
X12800Y28365
X11800Y28365
X10800Y28365
X9800Y28365
X8800Y28365
X7800Y28365
X6800Y28365
X5800Y28365
X4800Y28365
X3800Y28365
X3800Y29365
X4800Y29365
X5800Y29365
X6800Y29365
X7800Y29365
X8800Y29365
X9800Y29365
X10800Y29365
X11800Y29365
X12800Y29365
X13800Y29365
X14800Y29365
X15800Y29365
X16800Y29365
X17800Y29365
X18800Y29365
X19800Y29365
X20800Y29365
X21800Y29365
X22800Y29365
X23800Y29365
X24800Y29365
X25800Y29365
X26800Y29365
X27800Y29365
X28800Y29365
X29800Y29365
X30800Y29365
X31800Y29365
X32800Y29365
X33800Y29365
X34800Y29365
X35800Y29365
X36800Y29365
X37800Y29365
X38800Y29365
X39800Y29365
X40800Y29365
X41800Y29365
X42800Y29365
X43800Y29365
X44800Y29365
X45800Y29365
X46800Y29365
X47800Y29365
X48800Y29365
X49800Y29365
X50800Y29365
X51800Y29365
X52800Y29365
X53800Y29365
X54800Y29365
X55800Y29365
X56800Y29365
X56800Y30365
X55800Y30365
X54800Y30365
X53800Y30365
X52800Y30365
X51800Y30365
X50800Y30365
X49800Y30365
X48800Y30365
X47800Y30365
X46800Y30365
X45800Y30365
X44800Y30365
X43800Y30365
X42800Y30365
X41800Y30365
X40800Y30365
X39800Y30365
X38800Y30365
X37800Y30365
X36800Y30365
X35800Y30365
X34800Y30365
X33800Y30365
X32800Y30365
X31800Y30365
X30800Y30365
X29800Y30365
X28800Y30365
X27800Y30365
X26800Y30365
X25800Y30365
X24800Y30365
X23800Y30365
X22800Y30365
X21800Y30365
X20800Y30365
X19800Y30365
X18800Y30365
X17800Y30365
X16800Y30365
X15800Y30365
X14800Y30365
X13800Y30365
X12800Y30365
X11800Y30365
X10800Y30365
X9800Y30365
X8800Y30365
X7800Y30365
X6800Y30365
X5800Y30365
X4800Y30365
X3800Y30365
X3800Y31365
X4800Y31365
X5800Y31365
X6800Y31365
X7800Y31365
X8800Y31365
X9800Y31365
X10800Y31365
X11800Y31365
X12800Y31365
X13800Y31365
X14800Y31365
X15800Y31365
X16800Y31365
X17800Y31365
X18800Y31365
X19800Y31365
X20800Y31365
X21800Y31365
X22800Y31365
X23800Y31365
X24800Y31365
X25800Y31365
X26800Y31365
X27800Y31365
X28800Y31365
X29800Y31365
X30800Y31365
X31800Y31365
X32800Y31365
X33800Y31365
X34800Y31365
X35800Y31365
X36800Y31365
X37800Y31365
X38800Y31365
X39800Y31365
X40800Y31365
X41800Y31365
X42800Y31365
X43800Y31365
X44800Y31365
X45800Y31365
X46800Y31365
X47800Y31365
X48800Y31365
X49800Y31365
X50800Y31365
X51800Y31365
X52800Y31365
X53800Y31365
X54800Y31365
X55800Y31365
X56800Y31365
X56800Y32365
X55800Y32365
X54800Y32365
X53800Y32365
X52800Y32365
X51800Y32365
X50800Y32365
X49800Y32365
X48800Y32365
X47800Y32365
X46800Y32365
X45800Y32365
X44800Y32365
X43800Y32365
X42800Y32365
X41800Y32365
X40800Y32365
X39800Y32365
X38800Y32365
X37800Y32365
X36800Y32365
X35800Y32365
X34800Y32365
X33800Y32365
X32800Y32365
X31800Y32365
X30800Y32365
X29800Y32365
X28800Y32365
X27800Y32365
X26800Y32365
X25800Y32365
X24800Y32365
X23800Y32365
X22800Y32365
X21800Y32365
X20800Y32365
X19800Y32365
X18800Y32365
X17800Y32365
X16800Y32365
X15800Y32365
X14800Y32365
X13800Y32365
X12800Y32365
X11800Y32365
X10800Y32365
X9800Y32365
X8800Y32365
X7800Y32365
X6800Y32365
X5800Y32365
X4800Y32365
X3800Y32365
X3800Y33365
X4800Y33365
X5800Y33365
X6800Y33365
X7800Y33365
X8800Y33365
X9800Y33365
X10800Y33365
X11800Y33365
X12800Y33365
X13800Y33365
X14800Y33365
X15800Y33365
X16800Y33365
X17800Y33365
X18800Y33365
X19800Y33365
X20800Y33365
X21800Y33365
X22800Y33365
X23800Y33365
X24800Y33365
X25800Y33365
X26800Y33365
X27800Y33365
X28800Y33365
X29800Y33365
X30800Y33365
X31800Y33365
X32800Y33365
X33800Y33365
X34800Y33365
X35800Y33365
X36800Y33365
X37800Y33365
X38800Y33365
X39800Y33365
X40800Y33365
X41800Y33365
X42800Y33365
X43800Y33365
X44800Y33365
X45800Y33365
X46800Y33365
X47800Y33365
X48800Y33365
X49800Y33365
X50800Y33365
X51800Y33365
X52800Y33365
X53800Y33365
X54800Y33365
X55800Y33365
X56800Y33365
X56800Y34365
X55800Y34365
X54800Y34365
X53800Y34365
X52800Y34365
X51800Y34365
X50800Y34365
X49800Y34365
X48800Y34365
X47800Y34365
X46800Y34365
X45800Y34365
X44800Y34365
X43800Y34365
X42800Y34365
X41800Y34365
X40800Y34365
X39800Y34365
X38800Y34365
X37800Y34365
X36800Y34365
X35800Y34365
X34800Y34365
X33800Y34365
X32800Y34365
X31800Y34365
X30800Y34365
X29800Y34365
X28800Y34365
X27800Y34365
X26800Y34365
X25800Y34365
X24800Y34365
X23800Y34365
X22800Y34365
X21800Y34365
X20800Y34365
X19800Y34365
X18800Y34365
X17800Y34365
X16800Y34365
X15800Y34365
X14800Y34365
T03
X1643Y869
X1643Y38861
X56958Y38861
X56958Y869
T04
X56958Y4058
X56958Y35672
X1643Y35672
X1643Y4058
M30
