G75*
%MOIN*%
%OFA0B0*%
%FSLAX25Y25*%
%IPPOS*%
%LPD*%
%AMOC8*
5,1,8,0,0,1.08239X$1,22.5*
%
%ADD10C,0.02400*%
%ADD11C,0.03937*%
%ADD12C,0.07400*%
D10*
X0526269Y0008690D02*
X0526271Y0008778D01*
X0526277Y0008866D01*
X0526287Y0008954D01*
X0526301Y0009042D01*
X0526318Y0009128D01*
X0526340Y0009214D01*
X0526365Y0009298D01*
X0526395Y0009382D01*
X0526427Y0009464D01*
X0526464Y0009544D01*
X0526504Y0009623D01*
X0526548Y0009700D01*
X0526595Y0009775D01*
X0526645Y0009847D01*
X0526699Y0009918D01*
X0526755Y0009985D01*
X0526815Y0010051D01*
X0526877Y0010113D01*
X0526943Y0010173D01*
X0527010Y0010229D01*
X0527081Y0010283D01*
X0527153Y0010333D01*
X0527228Y0010380D01*
X0527305Y0010424D01*
X0527384Y0010464D01*
X0527464Y0010501D01*
X0527546Y0010533D01*
X0527630Y0010563D01*
X0527714Y0010588D01*
X0527800Y0010610D01*
X0527886Y0010627D01*
X0527974Y0010641D01*
X0528062Y0010651D01*
X0528150Y0010657D01*
X0528238Y0010659D01*
X0528326Y0010657D01*
X0528414Y0010651D01*
X0528502Y0010641D01*
X0528590Y0010627D01*
X0528676Y0010610D01*
X0528762Y0010588D01*
X0528846Y0010563D01*
X0528930Y0010533D01*
X0529012Y0010501D01*
X0529092Y0010464D01*
X0529171Y0010424D01*
X0529248Y0010380D01*
X0529323Y0010333D01*
X0529395Y0010283D01*
X0529466Y0010229D01*
X0529533Y0010173D01*
X0529599Y0010113D01*
X0529661Y0010051D01*
X0529721Y0009985D01*
X0529777Y0009918D01*
X0529831Y0009847D01*
X0529881Y0009775D01*
X0529928Y0009700D01*
X0529972Y0009623D01*
X0530012Y0009544D01*
X0530049Y0009464D01*
X0530081Y0009382D01*
X0530111Y0009298D01*
X0530136Y0009214D01*
X0530158Y0009128D01*
X0530175Y0009042D01*
X0530189Y0008954D01*
X0530199Y0008866D01*
X0530205Y0008778D01*
X0530207Y0008690D01*
X0530205Y0008602D01*
X0530199Y0008514D01*
X0530189Y0008426D01*
X0530175Y0008338D01*
X0530158Y0008252D01*
X0530136Y0008166D01*
X0530111Y0008082D01*
X0530081Y0007998D01*
X0530049Y0007916D01*
X0530012Y0007836D01*
X0529972Y0007757D01*
X0529928Y0007680D01*
X0529881Y0007605D01*
X0529831Y0007533D01*
X0529777Y0007462D01*
X0529721Y0007395D01*
X0529661Y0007329D01*
X0529599Y0007267D01*
X0529533Y0007207D01*
X0529466Y0007151D01*
X0529395Y0007097D01*
X0529323Y0007047D01*
X0529248Y0007000D01*
X0529171Y0006956D01*
X0529092Y0006916D01*
X0529012Y0006879D01*
X0528930Y0006847D01*
X0528846Y0006817D01*
X0528762Y0006792D01*
X0528676Y0006770D01*
X0528590Y0006753D01*
X0528502Y0006739D01*
X0528414Y0006729D01*
X0528326Y0006723D01*
X0528238Y0006721D01*
X0528150Y0006723D01*
X0528062Y0006729D01*
X0527974Y0006739D01*
X0527886Y0006753D01*
X0527800Y0006770D01*
X0527714Y0006792D01*
X0527630Y0006817D01*
X0527546Y0006847D01*
X0527464Y0006879D01*
X0527384Y0006916D01*
X0527305Y0006956D01*
X0527228Y0007000D01*
X0527153Y0007047D01*
X0527081Y0007097D01*
X0527010Y0007151D01*
X0526943Y0007207D01*
X0526877Y0007267D01*
X0526815Y0007329D01*
X0526755Y0007395D01*
X0526699Y0007462D01*
X0526645Y0007533D01*
X0526595Y0007605D01*
X0526548Y0007680D01*
X0526504Y0007757D01*
X0526464Y0007836D01*
X0526427Y0007916D01*
X0526395Y0007998D01*
X0526365Y0008082D01*
X0526340Y0008166D01*
X0526318Y0008252D01*
X0526301Y0008338D01*
X0526287Y0008426D01*
X0526277Y0008514D01*
X0526271Y0008602D01*
X0526269Y0008690D01*
X0547253Y0354900D02*
X0552253Y0359900D01*
X0547253Y0364900D01*
X0542253Y0359900D02*
X0552253Y0359900D01*
X0526269Y0388611D02*
X0526271Y0388699D01*
X0526277Y0388787D01*
X0526287Y0388875D01*
X0526301Y0388963D01*
X0526318Y0389049D01*
X0526340Y0389135D01*
X0526365Y0389219D01*
X0526395Y0389303D01*
X0526427Y0389385D01*
X0526464Y0389465D01*
X0526504Y0389544D01*
X0526548Y0389621D01*
X0526595Y0389696D01*
X0526645Y0389768D01*
X0526699Y0389839D01*
X0526755Y0389906D01*
X0526815Y0389972D01*
X0526877Y0390034D01*
X0526943Y0390094D01*
X0527010Y0390150D01*
X0527081Y0390204D01*
X0527153Y0390254D01*
X0527228Y0390301D01*
X0527305Y0390345D01*
X0527384Y0390385D01*
X0527464Y0390422D01*
X0527546Y0390454D01*
X0527630Y0390484D01*
X0527714Y0390509D01*
X0527800Y0390531D01*
X0527886Y0390548D01*
X0527974Y0390562D01*
X0528062Y0390572D01*
X0528150Y0390578D01*
X0528238Y0390580D01*
X0528326Y0390578D01*
X0528414Y0390572D01*
X0528502Y0390562D01*
X0528590Y0390548D01*
X0528676Y0390531D01*
X0528762Y0390509D01*
X0528846Y0390484D01*
X0528930Y0390454D01*
X0529012Y0390422D01*
X0529092Y0390385D01*
X0529171Y0390345D01*
X0529248Y0390301D01*
X0529323Y0390254D01*
X0529395Y0390204D01*
X0529466Y0390150D01*
X0529533Y0390094D01*
X0529599Y0390034D01*
X0529661Y0389972D01*
X0529721Y0389906D01*
X0529777Y0389839D01*
X0529831Y0389768D01*
X0529881Y0389696D01*
X0529928Y0389621D01*
X0529972Y0389544D01*
X0530012Y0389465D01*
X0530049Y0389385D01*
X0530081Y0389303D01*
X0530111Y0389219D01*
X0530136Y0389135D01*
X0530158Y0389049D01*
X0530175Y0388963D01*
X0530189Y0388875D01*
X0530199Y0388787D01*
X0530205Y0388699D01*
X0530207Y0388611D01*
X0530205Y0388523D01*
X0530199Y0388435D01*
X0530189Y0388347D01*
X0530175Y0388259D01*
X0530158Y0388173D01*
X0530136Y0388087D01*
X0530111Y0388003D01*
X0530081Y0387919D01*
X0530049Y0387837D01*
X0530012Y0387757D01*
X0529972Y0387678D01*
X0529928Y0387601D01*
X0529881Y0387526D01*
X0529831Y0387454D01*
X0529777Y0387383D01*
X0529721Y0387316D01*
X0529661Y0387250D01*
X0529599Y0387188D01*
X0529533Y0387128D01*
X0529466Y0387072D01*
X0529395Y0387018D01*
X0529323Y0386968D01*
X0529248Y0386921D01*
X0529171Y0386877D01*
X0529092Y0386837D01*
X0529012Y0386800D01*
X0528930Y0386768D01*
X0528846Y0386738D01*
X0528762Y0386713D01*
X0528676Y0386691D01*
X0528590Y0386674D01*
X0528502Y0386660D01*
X0528414Y0386650D01*
X0528326Y0386644D01*
X0528238Y0386642D01*
X0528150Y0386644D01*
X0528062Y0386650D01*
X0527974Y0386660D01*
X0527886Y0386674D01*
X0527800Y0386691D01*
X0527714Y0386713D01*
X0527630Y0386738D01*
X0527546Y0386768D01*
X0527464Y0386800D01*
X0527384Y0386837D01*
X0527305Y0386877D01*
X0527228Y0386921D01*
X0527153Y0386968D01*
X0527081Y0387018D01*
X0527010Y0387072D01*
X0526943Y0387128D01*
X0526877Y0387188D01*
X0526815Y0387250D01*
X0526755Y0387316D01*
X0526699Y0387383D01*
X0526645Y0387454D01*
X0526595Y0387526D01*
X0526548Y0387601D01*
X0526504Y0387678D01*
X0526464Y0387757D01*
X0526427Y0387837D01*
X0526395Y0387919D01*
X0526365Y0388003D01*
X0526340Y0388087D01*
X0526318Y0388173D01*
X0526301Y0388259D01*
X0526287Y0388347D01*
X0526277Y0388435D01*
X0526271Y0388523D01*
X0526269Y0388611D01*
X0055796Y0388611D02*
X0055798Y0388699D01*
X0055804Y0388787D01*
X0055814Y0388875D01*
X0055828Y0388963D01*
X0055845Y0389049D01*
X0055867Y0389135D01*
X0055892Y0389219D01*
X0055922Y0389303D01*
X0055954Y0389385D01*
X0055991Y0389465D01*
X0056031Y0389544D01*
X0056075Y0389621D01*
X0056122Y0389696D01*
X0056172Y0389768D01*
X0056226Y0389839D01*
X0056282Y0389906D01*
X0056342Y0389972D01*
X0056404Y0390034D01*
X0056470Y0390094D01*
X0056537Y0390150D01*
X0056608Y0390204D01*
X0056680Y0390254D01*
X0056755Y0390301D01*
X0056832Y0390345D01*
X0056911Y0390385D01*
X0056991Y0390422D01*
X0057073Y0390454D01*
X0057157Y0390484D01*
X0057241Y0390509D01*
X0057327Y0390531D01*
X0057413Y0390548D01*
X0057501Y0390562D01*
X0057589Y0390572D01*
X0057677Y0390578D01*
X0057765Y0390580D01*
X0057853Y0390578D01*
X0057941Y0390572D01*
X0058029Y0390562D01*
X0058117Y0390548D01*
X0058203Y0390531D01*
X0058289Y0390509D01*
X0058373Y0390484D01*
X0058457Y0390454D01*
X0058539Y0390422D01*
X0058619Y0390385D01*
X0058698Y0390345D01*
X0058775Y0390301D01*
X0058850Y0390254D01*
X0058922Y0390204D01*
X0058993Y0390150D01*
X0059060Y0390094D01*
X0059126Y0390034D01*
X0059188Y0389972D01*
X0059248Y0389906D01*
X0059304Y0389839D01*
X0059358Y0389768D01*
X0059408Y0389696D01*
X0059455Y0389621D01*
X0059499Y0389544D01*
X0059539Y0389465D01*
X0059576Y0389385D01*
X0059608Y0389303D01*
X0059638Y0389219D01*
X0059663Y0389135D01*
X0059685Y0389049D01*
X0059702Y0388963D01*
X0059716Y0388875D01*
X0059726Y0388787D01*
X0059732Y0388699D01*
X0059734Y0388611D01*
X0059732Y0388523D01*
X0059726Y0388435D01*
X0059716Y0388347D01*
X0059702Y0388259D01*
X0059685Y0388173D01*
X0059663Y0388087D01*
X0059638Y0388003D01*
X0059608Y0387919D01*
X0059576Y0387837D01*
X0059539Y0387757D01*
X0059499Y0387678D01*
X0059455Y0387601D01*
X0059408Y0387526D01*
X0059358Y0387454D01*
X0059304Y0387383D01*
X0059248Y0387316D01*
X0059188Y0387250D01*
X0059126Y0387188D01*
X0059060Y0387128D01*
X0058993Y0387072D01*
X0058922Y0387018D01*
X0058850Y0386968D01*
X0058775Y0386921D01*
X0058698Y0386877D01*
X0058619Y0386837D01*
X0058539Y0386800D01*
X0058457Y0386768D01*
X0058373Y0386738D01*
X0058289Y0386713D01*
X0058203Y0386691D01*
X0058117Y0386674D01*
X0058029Y0386660D01*
X0057941Y0386650D01*
X0057853Y0386644D01*
X0057765Y0386642D01*
X0057677Y0386644D01*
X0057589Y0386650D01*
X0057501Y0386660D01*
X0057413Y0386674D01*
X0057327Y0386691D01*
X0057241Y0386713D01*
X0057157Y0386738D01*
X0057073Y0386768D01*
X0056991Y0386800D01*
X0056911Y0386837D01*
X0056832Y0386877D01*
X0056755Y0386921D01*
X0056680Y0386968D01*
X0056608Y0387018D01*
X0056537Y0387072D01*
X0056470Y0387128D01*
X0056404Y0387188D01*
X0056342Y0387250D01*
X0056282Y0387316D01*
X0056226Y0387383D01*
X0056172Y0387454D01*
X0056122Y0387526D01*
X0056075Y0387601D01*
X0056031Y0387678D01*
X0055991Y0387757D01*
X0055954Y0387837D01*
X0055922Y0387919D01*
X0055892Y0388003D01*
X0055867Y0388087D01*
X0055845Y0388173D01*
X0055828Y0388259D01*
X0055814Y0388347D01*
X0055804Y0388435D01*
X0055798Y0388523D01*
X0055796Y0388611D01*
D11*
X0028750Y0356150D03*
X0557253Y0356150D03*
X0557253Y0363650D03*
D12*
X0018001Y0053650D03*
X0028001Y0053650D03*
X0038001Y0053650D03*
X0048001Y0053650D03*
X0058001Y0053650D03*
X0068001Y0053650D03*
X0078001Y0053650D03*
X0088001Y0053650D03*
X0098001Y0053650D03*
X0108001Y0053650D03*
X0118001Y0053650D03*
X0128001Y0053650D03*
X0138001Y0053650D03*
X0148001Y0053650D03*
X0158001Y0053650D03*
X0168001Y0053650D03*
X0178001Y0053650D03*
X0188001Y0053650D03*
X0198001Y0053650D03*
X0208001Y0053650D03*
X0218001Y0053650D03*
X0228001Y0053650D03*
X0238001Y0053650D03*
X0248001Y0053650D03*
X0258001Y0053650D03*
X0268001Y0053650D03*
X0278001Y0053650D03*
X0288001Y0053650D03*
X0298001Y0053650D03*
X0308001Y0053650D03*
X0318001Y0053650D03*
X0328001Y0053650D03*
X0338001Y0053650D03*
X0348001Y0053650D03*
X0358001Y0053650D03*
X0368001Y0053650D03*
X0378001Y0053650D03*
X0388001Y0053650D03*
X0398001Y0053650D03*
X0408001Y0053650D03*
X0418001Y0053650D03*
X0428001Y0053650D03*
X0438001Y0053650D03*
X0448001Y0053650D03*
X0458001Y0053650D03*
X0468001Y0053650D03*
X0478001Y0053650D03*
X0488001Y0053650D03*
X0498001Y0053650D03*
X0508001Y0053650D03*
X0518001Y0053650D03*
X0528001Y0053650D03*
X0538001Y0053650D03*
X0548001Y0053650D03*
X0558001Y0053650D03*
X0568001Y0053650D03*
X0568001Y0063650D03*
X0558001Y0063650D03*
X0548001Y0063650D03*
X0538001Y0063650D03*
X0528001Y0063650D03*
X0518001Y0063650D03*
X0508001Y0063650D03*
X0498001Y0063650D03*
X0488001Y0063650D03*
X0478001Y0063650D03*
X0468001Y0063650D03*
X0458001Y0063650D03*
X0448001Y0063650D03*
X0438001Y0063650D03*
X0428001Y0063650D03*
X0418001Y0063650D03*
X0408001Y0063650D03*
X0398001Y0063650D03*
X0388001Y0063650D03*
X0378001Y0063650D03*
X0368001Y0063650D03*
X0358001Y0063650D03*
X0348001Y0063650D03*
X0338001Y0063650D03*
X0328001Y0063650D03*
X0318001Y0063650D03*
X0308001Y0063650D03*
X0298001Y0063650D03*
X0288001Y0063650D03*
X0278001Y0063650D03*
X0268001Y0063650D03*
X0258001Y0063650D03*
X0248001Y0063650D03*
X0238001Y0063650D03*
X0228001Y0063650D03*
X0218001Y0063650D03*
X0208001Y0063650D03*
X0198001Y0063650D03*
X0188001Y0063650D03*
X0178001Y0063650D03*
X0168001Y0063650D03*
X0158001Y0063650D03*
X0148001Y0063650D03*
X0138001Y0063650D03*
X0128001Y0063650D03*
X0118001Y0063650D03*
X0108001Y0063650D03*
X0098001Y0063650D03*
X0088001Y0063650D03*
X0078001Y0063650D03*
X0068001Y0063650D03*
X0058001Y0063650D03*
X0048001Y0063650D03*
X0038001Y0063650D03*
X0028001Y0063650D03*
X0018001Y0063650D03*
X0018001Y0073650D03*
X0028001Y0073650D03*
X0038001Y0073650D03*
X0048001Y0073650D03*
X0058001Y0073650D03*
X0068001Y0073650D03*
X0078001Y0073650D03*
X0088001Y0073650D03*
X0098001Y0073650D03*
X0108001Y0073650D03*
X0118001Y0073650D03*
X0128001Y0073650D03*
X0138001Y0073650D03*
X0148001Y0073650D03*
X0158001Y0073650D03*
X0168001Y0073650D03*
X0178001Y0073650D03*
X0188001Y0073650D03*
X0198001Y0073650D03*
X0208001Y0073650D03*
X0218001Y0073650D03*
X0228001Y0073650D03*
X0238001Y0073650D03*
X0248001Y0073650D03*
X0258001Y0073650D03*
X0268001Y0073650D03*
X0278001Y0073650D03*
X0288001Y0073650D03*
X0298001Y0073650D03*
X0308001Y0073650D03*
X0318001Y0073650D03*
X0328001Y0073650D03*
X0338001Y0073650D03*
X0348001Y0073650D03*
X0358001Y0073650D03*
X0368001Y0073650D03*
X0378001Y0073650D03*
X0388001Y0073650D03*
X0398001Y0073650D03*
X0408001Y0073650D03*
X0418001Y0073650D03*
X0428001Y0073650D03*
X0438001Y0073650D03*
X0448001Y0073650D03*
X0458001Y0073650D03*
X0468001Y0073650D03*
X0478001Y0073650D03*
X0488001Y0073650D03*
X0498001Y0073650D03*
X0508001Y0073650D03*
X0518001Y0073650D03*
X0528001Y0073650D03*
X0538001Y0073650D03*
X0548001Y0073650D03*
X0558001Y0073650D03*
X0568001Y0073650D03*
X0568001Y0083650D03*
X0558001Y0083650D03*
X0548001Y0083650D03*
X0538001Y0083650D03*
X0528001Y0083650D03*
X0518001Y0083650D03*
X0508001Y0083650D03*
X0498001Y0083650D03*
X0488001Y0083650D03*
X0478001Y0083650D03*
X0468001Y0083650D03*
X0458001Y0083650D03*
X0448001Y0083650D03*
X0438001Y0083650D03*
X0428001Y0083650D03*
X0418001Y0083650D03*
X0408001Y0083650D03*
X0398001Y0083650D03*
X0388001Y0083650D03*
X0378001Y0083650D03*
X0368001Y0083650D03*
X0358001Y0083650D03*
X0348001Y0083650D03*
X0338001Y0083650D03*
X0328001Y0083650D03*
X0318001Y0083650D03*
X0308001Y0083650D03*
X0298001Y0083650D03*
X0288001Y0083650D03*
X0278001Y0083650D03*
X0268001Y0083650D03*
X0258001Y0083650D03*
X0248001Y0083650D03*
X0238001Y0083650D03*
X0228001Y0083650D03*
X0218001Y0083650D03*
X0208001Y0083650D03*
X0198001Y0083650D03*
X0188001Y0083650D03*
X0178001Y0083650D03*
X0168001Y0083650D03*
X0158001Y0083650D03*
X0148001Y0083650D03*
X0138001Y0083650D03*
X0128001Y0083650D03*
X0118001Y0083650D03*
X0108001Y0083650D03*
X0098001Y0083650D03*
X0088001Y0083650D03*
X0078001Y0083650D03*
X0068001Y0083650D03*
X0058001Y0083650D03*
X0048001Y0083650D03*
X0038001Y0083650D03*
X0028001Y0083650D03*
X0018001Y0083650D03*
X0018001Y0093650D03*
X0028001Y0093650D03*
X0038001Y0093650D03*
X0048001Y0093650D03*
X0058001Y0093650D03*
X0068001Y0093650D03*
X0078001Y0093650D03*
X0088001Y0093650D03*
X0098001Y0093650D03*
X0108001Y0093650D03*
X0118001Y0093650D03*
X0128001Y0093650D03*
X0138001Y0093650D03*
X0148001Y0093650D03*
X0158001Y0093650D03*
X0168001Y0093650D03*
X0178001Y0093650D03*
X0188001Y0093650D03*
X0198001Y0093650D03*
X0208001Y0093650D03*
X0218001Y0093650D03*
X0228001Y0093650D03*
X0238001Y0093650D03*
X0248001Y0093650D03*
X0258001Y0093650D03*
X0268001Y0093650D03*
X0278001Y0093650D03*
X0288001Y0093650D03*
X0298001Y0093650D03*
X0308001Y0093650D03*
X0318001Y0093650D03*
X0328001Y0093650D03*
X0338001Y0093650D03*
X0348001Y0093650D03*
X0358001Y0093650D03*
X0368001Y0093650D03*
X0378001Y0093650D03*
X0388001Y0093650D03*
X0398001Y0093650D03*
X0408001Y0093650D03*
X0418001Y0093650D03*
X0428001Y0093650D03*
X0438001Y0093650D03*
X0448001Y0093650D03*
X0458001Y0093650D03*
X0468001Y0093650D03*
X0478001Y0093650D03*
X0488001Y0093650D03*
X0498001Y0093650D03*
X0508001Y0093650D03*
X0518001Y0093650D03*
X0528001Y0093650D03*
X0538001Y0093650D03*
X0548001Y0093650D03*
X0558001Y0093650D03*
X0568001Y0093650D03*
X0568001Y0103650D03*
X0558001Y0103650D03*
X0548001Y0103650D03*
X0538001Y0103650D03*
X0528001Y0103650D03*
X0518001Y0103650D03*
X0508001Y0103650D03*
X0498001Y0103650D03*
X0488001Y0103650D03*
X0478001Y0103650D03*
X0468001Y0103650D03*
X0458001Y0103650D03*
X0448001Y0103650D03*
X0438001Y0103650D03*
X0428001Y0103650D03*
X0418001Y0103650D03*
X0408001Y0103650D03*
X0398001Y0103650D03*
X0388001Y0103650D03*
X0378001Y0103650D03*
X0368001Y0103650D03*
X0358001Y0103650D03*
X0348001Y0103650D03*
X0338001Y0103650D03*
X0328001Y0103650D03*
X0318001Y0103650D03*
X0308001Y0103650D03*
X0298001Y0103650D03*
X0288001Y0103650D03*
X0278001Y0103650D03*
X0268001Y0103650D03*
X0258001Y0103650D03*
X0248001Y0103650D03*
X0238001Y0103650D03*
X0228001Y0103650D03*
X0218001Y0103650D03*
X0208001Y0103650D03*
X0198001Y0103650D03*
X0188001Y0103650D03*
X0178001Y0103650D03*
X0168001Y0103650D03*
X0158001Y0103650D03*
X0148001Y0103650D03*
X0138001Y0103650D03*
X0128001Y0103650D03*
X0118001Y0103650D03*
X0108001Y0103650D03*
X0098001Y0103650D03*
X0088001Y0103650D03*
X0078001Y0103650D03*
X0068001Y0103650D03*
X0058001Y0103650D03*
X0048001Y0103650D03*
X0038001Y0103650D03*
X0028001Y0103650D03*
X0018001Y0103650D03*
X0018001Y0113650D03*
X0028001Y0113650D03*
X0038001Y0113650D03*
X0048001Y0113650D03*
X0058001Y0113650D03*
X0068001Y0113650D03*
X0078001Y0113650D03*
X0088001Y0113650D03*
X0098001Y0113650D03*
X0108001Y0113650D03*
X0118001Y0113650D03*
X0128001Y0113650D03*
X0138001Y0113650D03*
X0148001Y0113650D03*
X0158001Y0113650D03*
X0168001Y0113650D03*
X0178001Y0113650D03*
X0188001Y0113650D03*
X0198001Y0113650D03*
X0208001Y0113650D03*
X0218001Y0113650D03*
X0228001Y0113650D03*
X0238001Y0113650D03*
X0248001Y0113650D03*
X0258001Y0113650D03*
X0268001Y0113650D03*
X0278001Y0113650D03*
X0288001Y0113650D03*
X0298001Y0113650D03*
X0308001Y0113650D03*
X0318001Y0113650D03*
X0328001Y0113650D03*
X0338001Y0113650D03*
X0348001Y0113650D03*
X0358001Y0113650D03*
X0368001Y0113650D03*
X0378001Y0113650D03*
X0388001Y0113650D03*
X0398001Y0113650D03*
X0408001Y0113650D03*
X0418001Y0113650D03*
X0428001Y0113650D03*
X0438001Y0113650D03*
X0448001Y0113650D03*
X0458001Y0113650D03*
X0468001Y0113650D03*
X0478001Y0113650D03*
X0488001Y0113650D03*
X0498001Y0113650D03*
X0508001Y0113650D03*
X0518001Y0113650D03*
X0528001Y0113650D03*
X0538001Y0113650D03*
X0548001Y0113650D03*
X0558001Y0113650D03*
X0568001Y0113650D03*
X0568001Y0123650D03*
X0558001Y0123650D03*
X0548001Y0123650D03*
X0538001Y0123650D03*
X0528001Y0123650D03*
X0518001Y0123650D03*
X0508001Y0123650D03*
X0498001Y0123650D03*
X0488001Y0123650D03*
X0478001Y0123650D03*
X0468001Y0123650D03*
X0458001Y0123650D03*
X0448001Y0123650D03*
X0438001Y0123650D03*
X0428001Y0123650D03*
X0418001Y0123650D03*
X0408001Y0123650D03*
X0398001Y0123650D03*
X0388001Y0123650D03*
X0378001Y0123650D03*
X0368001Y0123650D03*
X0358001Y0123650D03*
X0348001Y0123650D03*
X0338001Y0123650D03*
X0328001Y0123650D03*
X0318001Y0123650D03*
X0308001Y0123650D03*
X0298001Y0123650D03*
X0288001Y0123650D03*
X0278001Y0123650D03*
X0268001Y0123650D03*
X0258001Y0123650D03*
X0248001Y0123650D03*
X0238001Y0123650D03*
X0228001Y0123650D03*
X0218001Y0123650D03*
X0208001Y0123650D03*
X0198001Y0123650D03*
X0188001Y0123650D03*
X0178001Y0123650D03*
X0168001Y0123650D03*
X0158001Y0123650D03*
X0148001Y0123650D03*
X0138001Y0123650D03*
X0128001Y0123650D03*
X0118001Y0123650D03*
X0108001Y0123650D03*
X0098001Y0123650D03*
X0088001Y0123650D03*
X0078001Y0123650D03*
X0068001Y0123650D03*
X0058001Y0123650D03*
X0048001Y0123650D03*
X0038001Y0123650D03*
X0028001Y0123650D03*
X0018001Y0123650D03*
X0018001Y0133650D03*
X0028001Y0133650D03*
X0038001Y0133650D03*
X0048001Y0133650D03*
X0058001Y0133650D03*
X0068001Y0133650D03*
X0078001Y0133650D03*
X0088001Y0133650D03*
X0098001Y0133650D03*
X0108001Y0133650D03*
X0118001Y0133650D03*
X0128001Y0133650D03*
X0138001Y0133650D03*
X0148001Y0133650D03*
X0158001Y0133650D03*
X0168001Y0133650D03*
X0178001Y0133650D03*
X0188001Y0133650D03*
X0198001Y0133650D03*
X0208001Y0133650D03*
X0218001Y0133650D03*
X0228001Y0133650D03*
X0238001Y0133650D03*
X0248001Y0133650D03*
X0258001Y0133650D03*
X0268001Y0133650D03*
X0278001Y0133650D03*
X0288001Y0133650D03*
X0298001Y0133650D03*
X0308001Y0133650D03*
X0318001Y0133650D03*
X0328001Y0133650D03*
X0338001Y0133650D03*
X0348001Y0133650D03*
X0358001Y0133650D03*
X0368001Y0133650D03*
X0378001Y0133650D03*
X0388001Y0133650D03*
X0398001Y0133650D03*
X0408001Y0133650D03*
X0418001Y0133650D03*
X0428001Y0133650D03*
X0438001Y0133650D03*
X0448001Y0133650D03*
X0458001Y0133650D03*
X0468001Y0133650D03*
X0478001Y0133650D03*
X0488001Y0133650D03*
X0498001Y0133650D03*
X0508001Y0133650D03*
X0518001Y0133650D03*
X0528001Y0133650D03*
X0538001Y0133650D03*
X0548001Y0133650D03*
X0558001Y0133650D03*
X0568001Y0133650D03*
X0568001Y0143650D03*
X0558001Y0143650D03*
X0548001Y0143650D03*
X0538001Y0143650D03*
X0528001Y0143650D03*
X0518001Y0143650D03*
X0508001Y0143650D03*
X0498001Y0143650D03*
X0488001Y0143650D03*
X0478001Y0143650D03*
X0468001Y0143650D03*
X0458001Y0143650D03*
X0448001Y0143650D03*
X0438001Y0143650D03*
X0428001Y0143650D03*
X0418001Y0143650D03*
X0408001Y0143650D03*
X0398001Y0143650D03*
X0388001Y0143650D03*
X0378001Y0143650D03*
X0368001Y0143650D03*
X0358001Y0143650D03*
X0348001Y0143650D03*
X0338001Y0143650D03*
X0328001Y0143650D03*
X0318001Y0143650D03*
X0308001Y0143650D03*
X0298001Y0143650D03*
X0288001Y0143650D03*
X0278001Y0143650D03*
X0268001Y0143650D03*
X0258001Y0143650D03*
X0248001Y0143650D03*
X0238001Y0143650D03*
X0228001Y0143650D03*
X0218001Y0143650D03*
X0208001Y0143650D03*
X0198001Y0143650D03*
X0188001Y0143650D03*
X0178001Y0143650D03*
X0168001Y0143650D03*
X0158001Y0143650D03*
X0148001Y0143650D03*
X0138001Y0143650D03*
X0128001Y0143650D03*
X0118001Y0143650D03*
X0108001Y0143650D03*
X0098001Y0143650D03*
X0088001Y0143650D03*
X0078001Y0143650D03*
X0068001Y0143650D03*
X0058001Y0143650D03*
X0048001Y0143650D03*
X0038001Y0143650D03*
X0028001Y0143650D03*
X0018001Y0143650D03*
X0018001Y0153650D03*
X0028001Y0153650D03*
X0038001Y0153650D03*
X0048001Y0153650D03*
X0058001Y0153650D03*
X0068001Y0153650D03*
X0078001Y0153650D03*
X0088001Y0153650D03*
X0098001Y0153650D03*
X0108001Y0153650D03*
X0118001Y0153650D03*
X0128001Y0153650D03*
X0138001Y0153650D03*
X0148001Y0153650D03*
X0158001Y0153650D03*
X0168001Y0153650D03*
X0178001Y0153650D03*
X0188001Y0153650D03*
X0198001Y0153650D03*
X0208001Y0153650D03*
X0218001Y0153650D03*
X0228001Y0153650D03*
X0238001Y0153650D03*
X0248001Y0153650D03*
X0258001Y0153650D03*
X0268001Y0153650D03*
X0278001Y0153650D03*
X0288001Y0153650D03*
X0298001Y0153650D03*
X0308001Y0153650D03*
X0318001Y0153650D03*
X0328001Y0153650D03*
X0338001Y0153650D03*
X0348001Y0153650D03*
X0358001Y0153650D03*
X0368001Y0153650D03*
X0378001Y0153650D03*
X0388001Y0153650D03*
X0398001Y0153650D03*
X0408001Y0153650D03*
X0418001Y0153650D03*
X0428001Y0153650D03*
X0438001Y0153650D03*
X0448001Y0153650D03*
X0458001Y0153650D03*
X0468001Y0153650D03*
X0478001Y0153650D03*
X0488001Y0153650D03*
X0498001Y0153650D03*
X0508001Y0153650D03*
X0518001Y0153650D03*
X0528001Y0153650D03*
X0538001Y0153650D03*
X0548001Y0153650D03*
X0558001Y0153650D03*
X0568001Y0153650D03*
X0568001Y0163650D03*
X0558001Y0163650D03*
X0548001Y0163650D03*
X0538001Y0163650D03*
X0528001Y0163650D03*
X0518001Y0163650D03*
X0508001Y0163650D03*
X0498001Y0163650D03*
X0488001Y0163650D03*
X0478001Y0163650D03*
X0468001Y0163650D03*
X0458001Y0163650D03*
X0448001Y0163650D03*
X0438001Y0163650D03*
X0428001Y0163650D03*
X0418001Y0163650D03*
X0408001Y0163650D03*
X0398001Y0163650D03*
X0388001Y0163650D03*
X0378001Y0163650D03*
X0368001Y0163650D03*
X0358001Y0163650D03*
X0348001Y0163650D03*
X0338001Y0163650D03*
X0328001Y0163650D03*
X0318001Y0163650D03*
X0308001Y0163650D03*
X0298001Y0163650D03*
X0288001Y0163650D03*
X0278001Y0163650D03*
X0268001Y0163650D03*
X0258001Y0163650D03*
X0248001Y0163650D03*
X0238001Y0163650D03*
X0228001Y0163650D03*
X0218001Y0163650D03*
X0208001Y0163650D03*
X0198001Y0163650D03*
X0188001Y0163650D03*
X0178001Y0163650D03*
X0168001Y0163650D03*
X0158001Y0163650D03*
X0148001Y0163650D03*
X0138001Y0163650D03*
X0128001Y0163650D03*
X0118001Y0163650D03*
X0108001Y0163650D03*
X0098001Y0163650D03*
X0088001Y0163650D03*
X0078001Y0163650D03*
X0068001Y0163650D03*
X0058001Y0163650D03*
X0048001Y0163650D03*
X0038001Y0163650D03*
X0028001Y0163650D03*
X0018001Y0163650D03*
X0018001Y0173650D03*
X0028001Y0173650D03*
X0038001Y0173650D03*
X0048001Y0173650D03*
X0058001Y0173650D03*
X0068001Y0173650D03*
X0078001Y0173650D03*
X0088001Y0173650D03*
X0098001Y0173650D03*
X0108001Y0173650D03*
X0118001Y0173650D03*
X0128001Y0173650D03*
X0138001Y0173650D03*
X0148001Y0173650D03*
X0158001Y0173650D03*
X0168001Y0173650D03*
X0178001Y0173650D03*
X0188001Y0173650D03*
X0198001Y0173650D03*
X0208001Y0173650D03*
X0218001Y0173650D03*
X0228001Y0173650D03*
X0238001Y0173650D03*
X0248001Y0173650D03*
X0258001Y0173650D03*
X0268001Y0173650D03*
X0278001Y0173650D03*
X0288001Y0173650D03*
X0298001Y0173650D03*
X0308001Y0173650D03*
X0318001Y0173650D03*
X0328001Y0173650D03*
X0338001Y0173650D03*
X0348001Y0173650D03*
X0358001Y0173650D03*
X0368001Y0173650D03*
X0378001Y0173650D03*
X0388001Y0173650D03*
X0398001Y0173650D03*
X0408001Y0173650D03*
X0418001Y0173650D03*
X0428001Y0173650D03*
X0438001Y0173650D03*
X0448001Y0173650D03*
X0458001Y0173650D03*
X0468001Y0173650D03*
X0478001Y0173650D03*
X0488001Y0173650D03*
X0498001Y0173650D03*
X0508001Y0173650D03*
X0518001Y0173650D03*
X0528001Y0173650D03*
X0538001Y0173650D03*
X0548001Y0173650D03*
X0558001Y0173650D03*
X0568001Y0173650D03*
X0568001Y0183650D03*
X0558001Y0183650D03*
X0548001Y0183650D03*
X0538001Y0183650D03*
X0528001Y0183650D03*
X0518001Y0183650D03*
X0508001Y0183650D03*
X0498001Y0183650D03*
X0488001Y0183650D03*
X0478001Y0183650D03*
X0468001Y0183650D03*
X0458001Y0183650D03*
X0448001Y0183650D03*
X0438001Y0183650D03*
X0428001Y0183650D03*
X0418001Y0183650D03*
X0408001Y0183650D03*
X0398001Y0183650D03*
X0388001Y0183650D03*
X0378001Y0183650D03*
X0368001Y0183650D03*
X0358001Y0183650D03*
X0348001Y0183650D03*
X0338001Y0183650D03*
X0328001Y0183650D03*
X0318001Y0183650D03*
X0308001Y0183650D03*
X0298001Y0183650D03*
X0288001Y0183650D03*
X0278001Y0183650D03*
X0268001Y0183650D03*
X0258001Y0183650D03*
X0248001Y0183650D03*
X0238001Y0183650D03*
X0228001Y0183650D03*
X0218001Y0183650D03*
X0208001Y0183650D03*
X0198001Y0183650D03*
X0188001Y0183650D03*
X0178001Y0183650D03*
X0168001Y0183650D03*
X0158001Y0183650D03*
X0148001Y0183650D03*
X0138001Y0183650D03*
X0128001Y0183650D03*
X0118001Y0183650D03*
X0108001Y0183650D03*
X0098001Y0183650D03*
X0088001Y0183650D03*
X0078001Y0183650D03*
X0068001Y0183650D03*
X0058001Y0183650D03*
X0048001Y0183650D03*
X0038001Y0183650D03*
X0028001Y0183650D03*
X0018001Y0183650D03*
X0018001Y0193650D03*
X0028001Y0193650D03*
X0038001Y0193650D03*
X0048001Y0193650D03*
X0058001Y0193650D03*
X0068001Y0193650D03*
X0078001Y0193650D03*
X0088001Y0193650D03*
X0098001Y0193650D03*
X0108001Y0193650D03*
X0118001Y0193650D03*
X0128001Y0193650D03*
X0138001Y0193650D03*
X0148001Y0193650D03*
X0158001Y0193650D03*
X0168001Y0193650D03*
X0178001Y0193650D03*
X0188001Y0193650D03*
X0198001Y0193650D03*
X0208001Y0193650D03*
X0218001Y0193650D03*
X0228001Y0193650D03*
X0238001Y0193650D03*
X0248001Y0193650D03*
X0258001Y0193650D03*
X0268001Y0193650D03*
X0278001Y0193650D03*
X0288001Y0193650D03*
X0298001Y0193650D03*
X0308001Y0193650D03*
X0318001Y0193650D03*
X0328001Y0193650D03*
X0338001Y0193650D03*
X0348001Y0193650D03*
X0358001Y0193650D03*
X0368001Y0193650D03*
X0378001Y0193650D03*
X0388001Y0193650D03*
X0398001Y0193650D03*
X0408001Y0193650D03*
X0418001Y0193650D03*
X0428001Y0193650D03*
X0438001Y0193650D03*
X0448001Y0193650D03*
X0458001Y0193650D03*
X0468001Y0193650D03*
X0478001Y0193650D03*
X0488001Y0193650D03*
X0498001Y0193650D03*
X0508001Y0193650D03*
X0518001Y0193650D03*
X0528001Y0193650D03*
X0538001Y0193650D03*
X0548001Y0193650D03*
X0558001Y0193650D03*
X0568001Y0193650D03*
X0568001Y0203650D03*
X0558001Y0203650D03*
X0548001Y0203650D03*
X0538001Y0203650D03*
X0528001Y0203650D03*
X0518001Y0203650D03*
X0508001Y0203650D03*
X0498001Y0203650D03*
X0488001Y0203650D03*
X0478001Y0203650D03*
X0468001Y0203650D03*
X0458001Y0203650D03*
X0448001Y0203650D03*
X0438001Y0203650D03*
X0428001Y0203650D03*
X0418001Y0203650D03*
X0408001Y0203650D03*
X0398001Y0203650D03*
X0388001Y0203650D03*
X0378001Y0203650D03*
X0368001Y0203650D03*
X0358001Y0203650D03*
X0348001Y0203650D03*
X0338001Y0203650D03*
X0328001Y0203650D03*
X0318001Y0203650D03*
X0308001Y0203650D03*
X0298001Y0203650D03*
X0288001Y0203650D03*
X0278001Y0203650D03*
X0268001Y0203650D03*
X0258001Y0203650D03*
X0248001Y0203650D03*
X0238001Y0203650D03*
X0228001Y0203650D03*
X0218001Y0203650D03*
X0208001Y0203650D03*
X0198001Y0203650D03*
X0188001Y0203650D03*
X0178001Y0203650D03*
X0168001Y0203650D03*
X0158001Y0203650D03*
X0148001Y0203650D03*
X0138001Y0203650D03*
X0128001Y0203650D03*
X0118001Y0203650D03*
X0108001Y0203650D03*
X0098001Y0203650D03*
X0088001Y0203650D03*
X0078001Y0203650D03*
X0068001Y0203650D03*
X0058001Y0203650D03*
X0048001Y0203650D03*
X0038001Y0203650D03*
X0028001Y0203650D03*
X0018001Y0203650D03*
X0018001Y0213650D03*
X0028001Y0213650D03*
X0038001Y0213650D03*
X0048001Y0213650D03*
X0058001Y0213650D03*
X0068001Y0213650D03*
X0078001Y0213650D03*
X0088001Y0213650D03*
X0098001Y0213650D03*
X0108001Y0213650D03*
X0118001Y0213650D03*
X0128001Y0213650D03*
X0138001Y0213650D03*
X0148001Y0213650D03*
X0158001Y0213650D03*
X0168001Y0213650D03*
X0178001Y0213650D03*
X0188001Y0213650D03*
X0198001Y0213650D03*
X0208001Y0213650D03*
X0218001Y0213650D03*
X0228001Y0213650D03*
X0238001Y0213650D03*
X0248001Y0213650D03*
X0258001Y0213650D03*
X0268001Y0213650D03*
X0278001Y0213650D03*
X0288001Y0213650D03*
X0298001Y0213650D03*
X0308001Y0213650D03*
X0318001Y0213650D03*
X0328001Y0213650D03*
X0338001Y0213650D03*
X0348001Y0213650D03*
X0358001Y0213650D03*
X0368001Y0213650D03*
X0378001Y0213650D03*
X0388001Y0213650D03*
X0398001Y0213650D03*
X0408001Y0213650D03*
X0418001Y0213650D03*
X0428001Y0213650D03*
X0438001Y0213650D03*
X0448001Y0213650D03*
X0458001Y0213650D03*
X0468001Y0213650D03*
X0478001Y0213650D03*
X0488001Y0213650D03*
X0498001Y0213650D03*
X0508001Y0213650D03*
X0518001Y0213650D03*
X0528001Y0213650D03*
X0538001Y0213650D03*
X0548001Y0213650D03*
X0558001Y0213650D03*
X0568001Y0213650D03*
X0568001Y0223650D03*
X0558001Y0223650D03*
X0548001Y0223650D03*
X0538001Y0223650D03*
X0528001Y0223650D03*
X0518001Y0223650D03*
X0508001Y0223650D03*
X0498001Y0223650D03*
X0488001Y0223650D03*
X0478001Y0223650D03*
X0468001Y0223650D03*
X0458001Y0223650D03*
X0448001Y0223650D03*
X0438001Y0223650D03*
X0428001Y0223650D03*
X0418001Y0223650D03*
X0408001Y0223650D03*
X0398001Y0223650D03*
X0388001Y0223650D03*
X0378001Y0223650D03*
X0368001Y0223650D03*
X0358001Y0223650D03*
X0348001Y0223650D03*
X0338001Y0223650D03*
X0328001Y0223650D03*
X0318001Y0223650D03*
X0308001Y0223650D03*
X0298001Y0223650D03*
X0288001Y0223650D03*
X0278001Y0223650D03*
X0268001Y0223650D03*
X0258001Y0223650D03*
X0248001Y0223650D03*
X0238001Y0223650D03*
X0228001Y0223650D03*
X0218001Y0223650D03*
X0208001Y0223650D03*
X0198001Y0223650D03*
X0188001Y0223650D03*
X0178001Y0223650D03*
X0168001Y0223650D03*
X0158001Y0223650D03*
X0148001Y0223650D03*
X0138001Y0223650D03*
X0128001Y0223650D03*
X0118001Y0223650D03*
X0108001Y0223650D03*
X0098001Y0223650D03*
X0088001Y0223650D03*
X0078001Y0223650D03*
X0068001Y0223650D03*
X0058001Y0223650D03*
X0048001Y0223650D03*
X0038001Y0223650D03*
X0028001Y0223650D03*
X0018001Y0223650D03*
X0018001Y0233650D03*
X0028001Y0233650D03*
X0038001Y0233650D03*
X0048001Y0233650D03*
X0058001Y0233650D03*
X0068001Y0233650D03*
X0078001Y0233650D03*
X0088001Y0233650D03*
X0098001Y0233650D03*
X0108001Y0233650D03*
X0118001Y0233650D03*
X0128001Y0233650D03*
X0138001Y0233650D03*
X0148001Y0233650D03*
X0158001Y0233650D03*
X0168001Y0233650D03*
X0178001Y0233650D03*
X0188001Y0233650D03*
X0198001Y0233650D03*
X0208001Y0233650D03*
X0218001Y0233650D03*
X0228001Y0233650D03*
X0238001Y0233650D03*
X0248001Y0233650D03*
X0258001Y0233650D03*
X0268001Y0233650D03*
X0278001Y0233650D03*
X0288001Y0233650D03*
X0298001Y0233650D03*
X0308001Y0233650D03*
X0318001Y0233650D03*
X0328001Y0233650D03*
X0338001Y0233650D03*
X0348001Y0233650D03*
X0358001Y0233650D03*
X0368001Y0233650D03*
X0378001Y0233650D03*
X0388001Y0233650D03*
X0398001Y0233650D03*
X0408001Y0233650D03*
X0418001Y0233650D03*
X0428001Y0233650D03*
X0438001Y0233650D03*
X0448001Y0233650D03*
X0458001Y0233650D03*
X0468001Y0233650D03*
X0478001Y0233650D03*
X0488001Y0233650D03*
X0498001Y0233650D03*
X0508001Y0233650D03*
X0518001Y0233650D03*
X0528001Y0233650D03*
X0538001Y0233650D03*
X0548001Y0233650D03*
X0558001Y0233650D03*
X0568001Y0233650D03*
X0568001Y0243650D03*
X0558001Y0243650D03*
X0548001Y0243650D03*
X0538001Y0243650D03*
X0528001Y0243650D03*
X0518001Y0243650D03*
X0508001Y0243650D03*
X0498001Y0243650D03*
X0488001Y0243650D03*
X0478001Y0243650D03*
X0468001Y0243650D03*
X0458001Y0243650D03*
X0448001Y0243650D03*
X0438001Y0243650D03*
X0428001Y0243650D03*
X0418001Y0243650D03*
X0408001Y0243650D03*
X0398001Y0243650D03*
X0388001Y0243650D03*
X0378001Y0243650D03*
X0368001Y0243650D03*
X0358001Y0243650D03*
X0348001Y0243650D03*
X0338001Y0243650D03*
X0328001Y0243650D03*
X0318001Y0243650D03*
X0308001Y0243650D03*
X0298001Y0243650D03*
X0288001Y0243650D03*
X0278001Y0243650D03*
X0268001Y0243650D03*
X0258001Y0243650D03*
X0248001Y0243650D03*
X0238001Y0243650D03*
X0228001Y0243650D03*
X0218001Y0243650D03*
X0208001Y0243650D03*
X0198001Y0243650D03*
X0188001Y0243650D03*
X0178001Y0243650D03*
X0168001Y0243650D03*
X0158001Y0243650D03*
X0148001Y0243650D03*
X0138001Y0243650D03*
X0128001Y0243650D03*
X0118001Y0243650D03*
X0108001Y0243650D03*
X0098001Y0243650D03*
X0088001Y0243650D03*
X0078001Y0243650D03*
X0068001Y0243650D03*
X0058001Y0243650D03*
X0048001Y0243650D03*
X0038001Y0243650D03*
X0028001Y0243650D03*
X0018001Y0243650D03*
X0018001Y0253650D03*
X0028001Y0253650D03*
X0038001Y0253650D03*
X0048001Y0253650D03*
X0058001Y0253650D03*
X0068001Y0253650D03*
X0078001Y0253650D03*
X0088001Y0253650D03*
X0098001Y0253650D03*
X0108001Y0253650D03*
X0118001Y0253650D03*
X0128001Y0253650D03*
X0138001Y0253650D03*
X0148001Y0253650D03*
X0158001Y0253650D03*
X0168001Y0253650D03*
X0178001Y0253650D03*
X0188001Y0253650D03*
X0198001Y0253650D03*
X0208001Y0253650D03*
X0218001Y0253650D03*
X0228001Y0253650D03*
X0238001Y0253650D03*
X0248001Y0253650D03*
X0258001Y0253650D03*
X0268001Y0253650D03*
X0278001Y0253650D03*
X0288001Y0253650D03*
X0298001Y0253650D03*
X0308001Y0253650D03*
X0318001Y0253650D03*
X0328001Y0253650D03*
X0338001Y0253650D03*
X0348001Y0253650D03*
X0358001Y0253650D03*
X0368001Y0253650D03*
X0378001Y0253650D03*
X0388001Y0253650D03*
X0398001Y0253650D03*
X0408001Y0253650D03*
X0418001Y0253650D03*
X0428001Y0253650D03*
X0438001Y0253650D03*
X0448001Y0253650D03*
X0458001Y0253650D03*
X0468001Y0253650D03*
X0478001Y0253650D03*
X0488001Y0253650D03*
X0498001Y0253650D03*
X0508001Y0253650D03*
X0518001Y0253650D03*
X0528001Y0253650D03*
X0538001Y0253650D03*
X0548001Y0253650D03*
X0558001Y0253650D03*
X0568001Y0253650D03*
X0568001Y0263650D03*
X0558001Y0263650D03*
X0548001Y0263650D03*
X0538001Y0263650D03*
X0528001Y0263650D03*
X0518001Y0263650D03*
X0508001Y0263650D03*
X0498001Y0263650D03*
X0488001Y0263650D03*
X0478001Y0263650D03*
X0468001Y0263650D03*
X0458001Y0263650D03*
X0448001Y0263650D03*
X0438001Y0263650D03*
X0428001Y0263650D03*
X0418001Y0263650D03*
X0408001Y0263650D03*
X0398001Y0263650D03*
X0388001Y0263650D03*
X0378001Y0263650D03*
X0368001Y0263650D03*
X0358001Y0263650D03*
X0348001Y0263650D03*
X0338001Y0263650D03*
X0328001Y0263650D03*
X0318001Y0263650D03*
X0308001Y0263650D03*
X0298001Y0263650D03*
X0288001Y0263650D03*
X0278001Y0263650D03*
X0268001Y0263650D03*
X0258001Y0263650D03*
X0248001Y0263650D03*
X0238001Y0263650D03*
X0228001Y0263650D03*
X0218001Y0263650D03*
X0208001Y0263650D03*
X0198001Y0263650D03*
X0188001Y0263650D03*
X0178001Y0263650D03*
X0168001Y0263650D03*
X0158001Y0263650D03*
X0148001Y0263650D03*
X0138001Y0263650D03*
X0128001Y0263650D03*
X0118001Y0263650D03*
X0108001Y0263650D03*
X0098001Y0263650D03*
X0088001Y0263650D03*
X0078001Y0263650D03*
X0068001Y0263650D03*
X0058001Y0263650D03*
X0048001Y0263650D03*
X0038001Y0263650D03*
X0028001Y0263650D03*
X0018001Y0263650D03*
X0018001Y0273650D03*
X0028001Y0273650D03*
X0038001Y0273650D03*
X0048001Y0273650D03*
X0058001Y0273650D03*
X0068001Y0273650D03*
X0078001Y0273650D03*
X0088001Y0273650D03*
X0098001Y0273650D03*
X0108001Y0273650D03*
X0118001Y0273650D03*
X0128001Y0273650D03*
X0138001Y0273650D03*
X0148001Y0273650D03*
X0158001Y0273650D03*
X0168001Y0273650D03*
X0178001Y0273650D03*
X0188001Y0273650D03*
X0198001Y0273650D03*
X0208001Y0273650D03*
X0218001Y0273650D03*
X0228001Y0273650D03*
X0238001Y0273650D03*
X0248001Y0273650D03*
X0258001Y0273650D03*
X0268001Y0273650D03*
X0278001Y0273650D03*
X0288001Y0273650D03*
X0298001Y0273650D03*
X0308001Y0273650D03*
X0318001Y0273650D03*
X0328001Y0273650D03*
X0338001Y0273650D03*
X0348001Y0273650D03*
X0358001Y0273650D03*
X0368001Y0273650D03*
X0378001Y0273650D03*
X0388001Y0273650D03*
X0398001Y0273650D03*
X0408001Y0273650D03*
X0418001Y0273650D03*
X0428001Y0273650D03*
X0438001Y0273650D03*
X0448001Y0273650D03*
X0458001Y0273650D03*
X0468001Y0273650D03*
X0478001Y0273650D03*
X0488001Y0273650D03*
X0498001Y0273650D03*
X0508001Y0273650D03*
X0518001Y0273650D03*
X0528001Y0273650D03*
X0538001Y0273650D03*
X0548001Y0273650D03*
X0558001Y0273650D03*
X0568001Y0273650D03*
X0568001Y0283650D03*
X0558001Y0283650D03*
X0548001Y0283650D03*
X0538001Y0283650D03*
X0528001Y0283650D03*
X0518001Y0283650D03*
X0508001Y0283650D03*
X0498001Y0283650D03*
X0488001Y0283650D03*
X0478001Y0283650D03*
X0468001Y0283650D03*
X0458001Y0283650D03*
X0448001Y0283650D03*
X0438001Y0283650D03*
X0428001Y0283650D03*
X0418001Y0283650D03*
X0408001Y0283650D03*
X0398001Y0283650D03*
X0388001Y0283650D03*
X0378001Y0283650D03*
X0368001Y0283650D03*
X0358001Y0283650D03*
X0348001Y0283650D03*
X0338001Y0283650D03*
X0328001Y0283650D03*
X0318001Y0283650D03*
X0308001Y0283650D03*
X0298001Y0283650D03*
X0288001Y0283650D03*
X0278001Y0283650D03*
X0268001Y0283650D03*
X0258001Y0283650D03*
X0248001Y0283650D03*
X0238001Y0283650D03*
X0228001Y0283650D03*
X0218001Y0283650D03*
X0208001Y0283650D03*
X0198001Y0283650D03*
X0188001Y0283650D03*
X0178001Y0283650D03*
X0168001Y0283650D03*
X0158001Y0283650D03*
X0148001Y0283650D03*
X0138001Y0283650D03*
X0128001Y0283650D03*
X0118001Y0283650D03*
X0108001Y0283650D03*
X0098001Y0283650D03*
X0088001Y0283650D03*
X0078001Y0283650D03*
X0068001Y0283650D03*
X0058001Y0283650D03*
X0048001Y0283650D03*
X0038001Y0283650D03*
X0028001Y0283650D03*
X0018001Y0283650D03*
X0018001Y0293650D03*
X0028001Y0293650D03*
X0038001Y0293650D03*
X0048001Y0293650D03*
X0058001Y0293650D03*
X0068001Y0293650D03*
X0078001Y0293650D03*
X0088001Y0293650D03*
X0098001Y0293650D03*
X0108001Y0293650D03*
X0118001Y0293650D03*
X0128001Y0293650D03*
X0138001Y0293650D03*
X0148001Y0293650D03*
X0158001Y0293650D03*
X0168001Y0293650D03*
X0178001Y0293650D03*
X0188001Y0293650D03*
X0198001Y0293650D03*
X0208001Y0293650D03*
X0218001Y0293650D03*
X0228001Y0293650D03*
X0238001Y0293650D03*
X0248001Y0293650D03*
X0258001Y0293650D03*
X0268001Y0293650D03*
X0278001Y0293650D03*
X0288001Y0293650D03*
X0298001Y0293650D03*
X0308001Y0293650D03*
X0318001Y0293650D03*
X0328001Y0293650D03*
X0338001Y0293650D03*
X0348001Y0293650D03*
X0358001Y0293650D03*
X0368001Y0293650D03*
X0378001Y0293650D03*
X0388001Y0293650D03*
X0398001Y0293650D03*
X0408001Y0293650D03*
X0418001Y0293650D03*
X0428001Y0293650D03*
X0438001Y0293650D03*
X0448001Y0293650D03*
X0458001Y0293650D03*
X0468001Y0293650D03*
X0478001Y0293650D03*
X0488001Y0293650D03*
X0498001Y0293650D03*
X0508001Y0293650D03*
X0518001Y0293650D03*
X0528001Y0293650D03*
X0538001Y0293650D03*
X0548001Y0293650D03*
X0558001Y0293650D03*
X0568001Y0293650D03*
X0568001Y0303650D03*
X0558001Y0303650D03*
X0548001Y0303650D03*
X0538001Y0303650D03*
X0528001Y0303650D03*
X0518001Y0303650D03*
X0508001Y0303650D03*
X0498001Y0303650D03*
X0488001Y0303650D03*
X0478001Y0303650D03*
X0468001Y0303650D03*
X0458001Y0303650D03*
X0448001Y0303650D03*
X0438001Y0303650D03*
X0428001Y0303650D03*
X0418001Y0303650D03*
X0408001Y0303650D03*
X0398001Y0303650D03*
X0388001Y0303650D03*
X0378001Y0303650D03*
X0368001Y0303650D03*
X0358001Y0303650D03*
X0348001Y0303650D03*
X0338001Y0303650D03*
X0328001Y0303650D03*
X0318001Y0303650D03*
X0308001Y0303650D03*
X0298001Y0303650D03*
X0288001Y0303650D03*
X0278001Y0303650D03*
X0268001Y0303650D03*
X0258001Y0303650D03*
X0248001Y0303650D03*
X0238001Y0303650D03*
X0228001Y0303650D03*
X0218001Y0303650D03*
X0208001Y0303650D03*
X0198001Y0303650D03*
X0188001Y0303650D03*
X0178001Y0303650D03*
X0168001Y0303650D03*
X0158001Y0303650D03*
X0148001Y0303650D03*
X0138001Y0303650D03*
X0128001Y0303650D03*
X0118001Y0303650D03*
X0108001Y0303650D03*
X0098001Y0303650D03*
X0088001Y0303650D03*
X0078001Y0303650D03*
X0068001Y0303650D03*
X0058001Y0303650D03*
X0048001Y0303650D03*
X0038001Y0303650D03*
X0028001Y0303650D03*
X0018001Y0303650D03*
X0018001Y0313650D03*
X0028001Y0313650D03*
X0038001Y0313650D03*
X0048001Y0313650D03*
X0058001Y0313650D03*
X0068001Y0313650D03*
X0078001Y0313650D03*
X0088001Y0313650D03*
X0098001Y0313650D03*
X0108001Y0313650D03*
X0118001Y0313650D03*
X0128001Y0313650D03*
X0138001Y0313650D03*
X0148001Y0313650D03*
X0158001Y0313650D03*
X0168001Y0313650D03*
X0178001Y0313650D03*
X0188001Y0313650D03*
X0198001Y0313650D03*
X0208001Y0313650D03*
X0218001Y0313650D03*
X0228001Y0313650D03*
X0238001Y0313650D03*
X0248001Y0313650D03*
X0258001Y0313650D03*
X0268001Y0313650D03*
X0278001Y0313650D03*
X0288001Y0313650D03*
X0298001Y0313650D03*
X0308001Y0313650D03*
X0318001Y0313650D03*
X0328001Y0313650D03*
X0338001Y0313650D03*
X0348001Y0313650D03*
X0358001Y0313650D03*
X0368001Y0313650D03*
X0378001Y0313650D03*
X0388001Y0313650D03*
X0398001Y0313650D03*
X0408001Y0313650D03*
X0418001Y0313650D03*
X0428001Y0313650D03*
X0438001Y0313650D03*
X0448001Y0313650D03*
X0458001Y0313650D03*
X0468001Y0313650D03*
X0478001Y0313650D03*
X0488001Y0313650D03*
X0498001Y0313650D03*
X0508001Y0313650D03*
X0518001Y0313650D03*
X0528001Y0313650D03*
X0538001Y0313650D03*
X0548001Y0313650D03*
X0558001Y0313650D03*
X0568001Y0313650D03*
X0568001Y0323650D03*
X0558001Y0323650D03*
X0548001Y0323650D03*
X0538001Y0323650D03*
X0528001Y0323650D03*
X0518001Y0323650D03*
X0508001Y0323650D03*
X0498001Y0323650D03*
X0488001Y0323650D03*
X0478001Y0323650D03*
X0468001Y0323650D03*
X0458001Y0323650D03*
X0448001Y0323650D03*
X0438001Y0323650D03*
X0428001Y0323650D03*
X0418001Y0323650D03*
X0408001Y0323650D03*
X0398001Y0323650D03*
X0388001Y0323650D03*
X0378001Y0323650D03*
X0368001Y0323650D03*
X0358001Y0323650D03*
X0348001Y0323650D03*
X0338001Y0323650D03*
X0328001Y0323650D03*
X0318001Y0323650D03*
X0308001Y0323650D03*
X0298001Y0323650D03*
X0288001Y0323650D03*
X0278001Y0323650D03*
X0268001Y0323650D03*
X0258001Y0323650D03*
X0248001Y0323650D03*
X0238001Y0323650D03*
X0228001Y0323650D03*
X0218001Y0323650D03*
X0208001Y0323650D03*
X0198001Y0323650D03*
X0188001Y0323650D03*
X0178001Y0323650D03*
X0168001Y0323650D03*
X0158001Y0323650D03*
X0148001Y0323650D03*
X0138001Y0323650D03*
X0128001Y0323650D03*
X0118001Y0323650D03*
X0108001Y0323650D03*
X0098001Y0323650D03*
X0088001Y0323650D03*
X0078001Y0323650D03*
X0068001Y0323650D03*
X0058001Y0323650D03*
X0048001Y0323650D03*
X0038001Y0323650D03*
X0028001Y0323650D03*
X0018001Y0323650D03*
X0018001Y0333650D03*
X0028001Y0333650D03*
X0038001Y0333650D03*
X0048001Y0333650D03*
X0058001Y0333650D03*
X0068001Y0333650D03*
X0078001Y0333650D03*
X0088001Y0333650D03*
X0098001Y0333650D03*
X0108001Y0333650D03*
X0118001Y0333650D03*
X0128001Y0333650D03*
X0138001Y0333650D03*
X0148001Y0333650D03*
X0158001Y0333650D03*
X0168001Y0333650D03*
X0178001Y0333650D03*
X0188001Y0333650D03*
X0198001Y0333650D03*
X0208001Y0333650D03*
X0218001Y0333650D03*
X0228001Y0333650D03*
X0238001Y0333650D03*
X0248001Y0333650D03*
X0258001Y0333650D03*
X0268001Y0333650D03*
X0278001Y0333650D03*
X0288001Y0333650D03*
X0298001Y0333650D03*
X0308001Y0333650D03*
X0318001Y0333650D03*
X0328001Y0333650D03*
X0338001Y0333650D03*
X0348001Y0333650D03*
X0358001Y0333650D03*
X0368001Y0333650D03*
X0378001Y0333650D03*
X0388001Y0333650D03*
X0398001Y0333650D03*
X0408001Y0333650D03*
X0418001Y0333650D03*
X0428001Y0333650D03*
X0438001Y0333650D03*
X0448001Y0333650D03*
X0458001Y0333650D03*
X0468001Y0333650D03*
X0478001Y0333650D03*
X0488001Y0333650D03*
X0498001Y0333650D03*
X0508001Y0333650D03*
X0518001Y0333650D03*
X0528001Y0333650D03*
X0538001Y0333650D03*
X0548001Y0333650D03*
X0558001Y0333650D03*
X0568001Y0333650D03*
X0568001Y0343650D03*
X0558001Y0343650D03*
X0548001Y0343650D03*
X0538001Y0343650D03*
X0528001Y0343650D03*
X0518001Y0343650D03*
X0508001Y0343650D03*
X0498001Y0343650D03*
X0488001Y0343650D03*
X0478001Y0343650D03*
X0468001Y0343650D03*
X0458001Y0343650D03*
X0448001Y0343650D03*
X0438001Y0343650D03*
X0428001Y0343650D03*
X0418001Y0343650D03*
X0408001Y0343650D03*
X0398001Y0343650D03*
X0388001Y0343650D03*
X0378001Y0343650D03*
X0368001Y0343650D03*
X0358001Y0343650D03*
X0348001Y0343650D03*
X0338001Y0343650D03*
X0328001Y0343650D03*
X0318001Y0343650D03*
X0308001Y0343650D03*
X0298001Y0343650D03*
X0288001Y0343650D03*
X0278001Y0343650D03*
X0268001Y0343650D03*
X0258001Y0343650D03*
X0248001Y0343650D03*
X0238001Y0343650D03*
X0228001Y0343650D03*
X0218001Y0343650D03*
X0208001Y0343650D03*
X0198001Y0343650D03*
X0188001Y0343650D03*
X0178001Y0343650D03*
X0168001Y0343650D03*
X0158001Y0343650D03*
X0148001Y0343650D03*
X0138001Y0343650D03*
X0128001Y0343650D03*
X0118001Y0343650D03*
X0108001Y0343650D03*
X0098001Y0343650D03*
X0088001Y0343650D03*
X0078001Y0343650D03*
X0068001Y0343650D03*
X0058001Y0343650D03*
X0048001Y0343650D03*
X0038001Y0343650D03*
X0028001Y0343650D03*
X0018001Y0343650D03*
M02*
