G75*
%MOIN*%
%OFA0B0*%
%FSLAX25Y25*%
%IPPOS*%
%LPD*%
%AMOC8*
5,1,8,0,0,1.08239X$1,22.5*
%
%ADD10C,0.00000*%
%ADD11C,0.01600*%
%ADD12C,0.11811*%
D10*
X0012096Y0008690D02*
X0012098Y0008821D01*
X0012104Y0008953D01*
X0012114Y0009084D01*
X0012128Y0009215D01*
X0012146Y0009345D01*
X0012168Y0009474D01*
X0012193Y0009603D01*
X0012223Y0009731D01*
X0012257Y0009858D01*
X0012294Y0009985D01*
X0012335Y0010109D01*
X0012380Y0010233D01*
X0012429Y0010355D01*
X0012481Y0010476D01*
X0012537Y0010594D01*
X0012597Y0010712D01*
X0012660Y0010827D01*
X0012727Y0010940D01*
X0012797Y0011052D01*
X0012870Y0011161D01*
X0012946Y0011267D01*
X0013026Y0011372D01*
X0013109Y0011474D01*
X0013195Y0011573D01*
X0013284Y0011670D01*
X0013376Y0011764D01*
X0013471Y0011855D01*
X0013568Y0011944D01*
X0013668Y0012029D01*
X0013771Y0012111D01*
X0013876Y0012190D01*
X0013983Y0012266D01*
X0014093Y0012338D01*
X0014205Y0012407D01*
X0014319Y0012473D01*
X0014434Y0012535D01*
X0014552Y0012594D01*
X0014671Y0012649D01*
X0014792Y0012701D01*
X0014915Y0012748D01*
X0015039Y0012792D01*
X0015164Y0012833D01*
X0015290Y0012869D01*
X0015418Y0012902D01*
X0015546Y0012930D01*
X0015675Y0012955D01*
X0015805Y0012976D01*
X0015935Y0012993D01*
X0016066Y0013006D01*
X0016197Y0013015D01*
X0016328Y0013020D01*
X0016460Y0013021D01*
X0016591Y0013018D01*
X0016723Y0013011D01*
X0016854Y0013000D01*
X0016984Y0012985D01*
X0017114Y0012966D01*
X0017244Y0012943D01*
X0017372Y0012917D01*
X0017500Y0012886D01*
X0017627Y0012851D01*
X0017753Y0012813D01*
X0017877Y0012771D01*
X0018001Y0012725D01*
X0018122Y0012675D01*
X0018242Y0012622D01*
X0018361Y0012565D01*
X0018478Y0012505D01*
X0018592Y0012441D01*
X0018705Y0012373D01*
X0018816Y0012302D01*
X0018925Y0012228D01*
X0019031Y0012151D01*
X0019135Y0012070D01*
X0019236Y0011987D01*
X0019335Y0011900D01*
X0019431Y0011810D01*
X0019524Y0011717D01*
X0019615Y0011622D01*
X0019702Y0011524D01*
X0019787Y0011423D01*
X0019868Y0011320D01*
X0019946Y0011214D01*
X0020021Y0011106D01*
X0020093Y0010996D01*
X0020161Y0010884D01*
X0020226Y0010770D01*
X0020287Y0010653D01*
X0020345Y0010535D01*
X0020399Y0010415D01*
X0020450Y0010294D01*
X0020497Y0010171D01*
X0020540Y0010047D01*
X0020579Y0009922D01*
X0020615Y0009795D01*
X0020646Y0009667D01*
X0020674Y0009539D01*
X0020698Y0009410D01*
X0020718Y0009280D01*
X0020734Y0009149D01*
X0020746Y0009018D01*
X0020754Y0008887D01*
X0020758Y0008756D01*
X0020758Y0008624D01*
X0020754Y0008493D01*
X0020746Y0008362D01*
X0020734Y0008231D01*
X0020718Y0008100D01*
X0020698Y0007970D01*
X0020674Y0007841D01*
X0020646Y0007713D01*
X0020615Y0007585D01*
X0020579Y0007458D01*
X0020540Y0007333D01*
X0020497Y0007209D01*
X0020450Y0007086D01*
X0020399Y0006965D01*
X0020345Y0006845D01*
X0020287Y0006727D01*
X0020226Y0006610D01*
X0020161Y0006496D01*
X0020093Y0006384D01*
X0020021Y0006274D01*
X0019946Y0006166D01*
X0019868Y0006060D01*
X0019787Y0005957D01*
X0019702Y0005856D01*
X0019615Y0005758D01*
X0019524Y0005663D01*
X0019431Y0005570D01*
X0019335Y0005480D01*
X0019236Y0005393D01*
X0019135Y0005310D01*
X0019031Y0005229D01*
X0018925Y0005152D01*
X0018816Y0005078D01*
X0018705Y0005007D01*
X0018593Y0004939D01*
X0018478Y0004875D01*
X0018361Y0004815D01*
X0018242Y0004758D01*
X0018122Y0004705D01*
X0018001Y0004655D01*
X0017877Y0004609D01*
X0017753Y0004567D01*
X0017627Y0004529D01*
X0017500Y0004494D01*
X0017372Y0004463D01*
X0017244Y0004437D01*
X0017114Y0004414D01*
X0016984Y0004395D01*
X0016854Y0004380D01*
X0016723Y0004369D01*
X0016591Y0004362D01*
X0016460Y0004359D01*
X0016328Y0004360D01*
X0016197Y0004365D01*
X0016066Y0004374D01*
X0015935Y0004387D01*
X0015805Y0004404D01*
X0015675Y0004425D01*
X0015546Y0004450D01*
X0015418Y0004478D01*
X0015290Y0004511D01*
X0015164Y0004547D01*
X0015039Y0004588D01*
X0014915Y0004632D01*
X0014792Y0004679D01*
X0014671Y0004731D01*
X0014552Y0004786D01*
X0014434Y0004845D01*
X0014319Y0004907D01*
X0014205Y0004973D01*
X0014093Y0005042D01*
X0013983Y0005114D01*
X0013876Y0005190D01*
X0013771Y0005269D01*
X0013668Y0005351D01*
X0013568Y0005436D01*
X0013471Y0005525D01*
X0013376Y0005616D01*
X0013284Y0005710D01*
X0013195Y0005807D01*
X0013109Y0005906D01*
X0013026Y0006008D01*
X0012946Y0006113D01*
X0012870Y0006219D01*
X0012797Y0006328D01*
X0012727Y0006440D01*
X0012660Y0006553D01*
X0012597Y0006668D01*
X0012537Y0006786D01*
X0012481Y0006904D01*
X0012429Y0007025D01*
X0012380Y0007147D01*
X0012335Y0007271D01*
X0012294Y0007395D01*
X0012257Y0007522D01*
X0012223Y0007649D01*
X0012193Y0007777D01*
X0012168Y0007906D01*
X0012146Y0008035D01*
X0012128Y0008165D01*
X0012114Y0008296D01*
X0012104Y0008427D01*
X0012098Y0008559D01*
X0012096Y0008690D01*
X0010128Y0040580D02*
X0010130Y0040738D01*
X0010136Y0040896D01*
X0010146Y0041054D01*
X0010160Y0041212D01*
X0010178Y0041369D01*
X0010199Y0041526D01*
X0010225Y0041682D01*
X0010255Y0041838D01*
X0010288Y0041993D01*
X0010326Y0042146D01*
X0010367Y0042299D01*
X0010412Y0042451D01*
X0010461Y0042602D01*
X0010514Y0042751D01*
X0010570Y0042899D01*
X0010630Y0043045D01*
X0010694Y0043190D01*
X0010762Y0043333D01*
X0010833Y0043475D01*
X0010907Y0043615D01*
X0010985Y0043752D01*
X0011067Y0043888D01*
X0011151Y0044022D01*
X0011240Y0044153D01*
X0011331Y0044282D01*
X0011426Y0044409D01*
X0011523Y0044534D01*
X0011624Y0044656D01*
X0011728Y0044775D01*
X0011835Y0044892D01*
X0011945Y0045006D01*
X0012058Y0045117D01*
X0012173Y0045226D01*
X0012291Y0045331D01*
X0012412Y0045433D01*
X0012535Y0045533D01*
X0012661Y0045629D01*
X0012789Y0045722D01*
X0012919Y0045812D01*
X0013052Y0045898D01*
X0013187Y0045982D01*
X0013323Y0046061D01*
X0013462Y0046138D01*
X0013603Y0046210D01*
X0013745Y0046280D01*
X0013889Y0046345D01*
X0014035Y0046407D01*
X0014182Y0046465D01*
X0014331Y0046520D01*
X0014481Y0046571D01*
X0014632Y0046618D01*
X0014784Y0046661D01*
X0014937Y0046700D01*
X0015092Y0046736D01*
X0015247Y0046767D01*
X0015403Y0046795D01*
X0015559Y0046819D01*
X0015716Y0046839D01*
X0015874Y0046855D01*
X0016031Y0046867D01*
X0016190Y0046875D01*
X0016348Y0046879D01*
X0016506Y0046879D01*
X0016664Y0046875D01*
X0016823Y0046867D01*
X0016980Y0046855D01*
X0017138Y0046839D01*
X0017295Y0046819D01*
X0017451Y0046795D01*
X0017607Y0046767D01*
X0017762Y0046736D01*
X0017917Y0046700D01*
X0018070Y0046661D01*
X0018222Y0046618D01*
X0018373Y0046571D01*
X0018523Y0046520D01*
X0018672Y0046465D01*
X0018819Y0046407D01*
X0018965Y0046345D01*
X0019109Y0046280D01*
X0019251Y0046210D01*
X0019392Y0046138D01*
X0019531Y0046061D01*
X0019667Y0045982D01*
X0019802Y0045898D01*
X0019935Y0045812D01*
X0020065Y0045722D01*
X0020193Y0045629D01*
X0020319Y0045533D01*
X0020442Y0045433D01*
X0020563Y0045331D01*
X0020681Y0045226D01*
X0020796Y0045117D01*
X0020909Y0045006D01*
X0021019Y0044892D01*
X0021126Y0044775D01*
X0021230Y0044656D01*
X0021331Y0044534D01*
X0021428Y0044409D01*
X0021523Y0044282D01*
X0021614Y0044153D01*
X0021703Y0044022D01*
X0021787Y0043888D01*
X0021869Y0043752D01*
X0021947Y0043615D01*
X0022021Y0043475D01*
X0022092Y0043333D01*
X0022160Y0043190D01*
X0022224Y0043045D01*
X0022284Y0042899D01*
X0022340Y0042751D01*
X0022393Y0042602D01*
X0022442Y0042451D01*
X0022487Y0042299D01*
X0022528Y0042146D01*
X0022566Y0041993D01*
X0022599Y0041838D01*
X0022629Y0041682D01*
X0022655Y0041526D01*
X0022676Y0041369D01*
X0022694Y0041212D01*
X0022708Y0041054D01*
X0022718Y0040896D01*
X0022724Y0040738D01*
X0022726Y0040580D01*
X0022724Y0040422D01*
X0022718Y0040264D01*
X0022708Y0040106D01*
X0022694Y0039948D01*
X0022676Y0039791D01*
X0022655Y0039634D01*
X0022629Y0039478D01*
X0022599Y0039322D01*
X0022566Y0039167D01*
X0022528Y0039014D01*
X0022487Y0038861D01*
X0022442Y0038709D01*
X0022393Y0038558D01*
X0022340Y0038409D01*
X0022284Y0038261D01*
X0022224Y0038115D01*
X0022160Y0037970D01*
X0022092Y0037827D01*
X0022021Y0037685D01*
X0021947Y0037545D01*
X0021869Y0037408D01*
X0021787Y0037272D01*
X0021703Y0037138D01*
X0021614Y0037007D01*
X0021523Y0036878D01*
X0021428Y0036751D01*
X0021331Y0036626D01*
X0021230Y0036504D01*
X0021126Y0036385D01*
X0021019Y0036268D01*
X0020909Y0036154D01*
X0020796Y0036043D01*
X0020681Y0035934D01*
X0020563Y0035829D01*
X0020442Y0035727D01*
X0020319Y0035627D01*
X0020193Y0035531D01*
X0020065Y0035438D01*
X0019935Y0035348D01*
X0019802Y0035262D01*
X0019667Y0035178D01*
X0019531Y0035099D01*
X0019392Y0035022D01*
X0019251Y0034950D01*
X0019109Y0034880D01*
X0018965Y0034815D01*
X0018819Y0034753D01*
X0018672Y0034695D01*
X0018523Y0034640D01*
X0018373Y0034589D01*
X0018222Y0034542D01*
X0018070Y0034499D01*
X0017917Y0034460D01*
X0017762Y0034424D01*
X0017607Y0034393D01*
X0017451Y0034365D01*
X0017295Y0034341D01*
X0017138Y0034321D01*
X0016980Y0034305D01*
X0016823Y0034293D01*
X0016664Y0034285D01*
X0016506Y0034281D01*
X0016348Y0034281D01*
X0016190Y0034285D01*
X0016031Y0034293D01*
X0015874Y0034305D01*
X0015716Y0034321D01*
X0015559Y0034341D01*
X0015403Y0034365D01*
X0015247Y0034393D01*
X0015092Y0034424D01*
X0014937Y0034460D01*
X0014784Y0034499D01*
X0014632Y0034542D01*
X0014481Y0034589D01*
X0014331Y0034640D01*
X0014182Y0034695D01*
X0014035Y0034753D01*
X0013889Y0034815D01*
X0013745Y0034880D01*
X0013603Y0034950D01*
X0013462Y0035022D01*
X0013323Y0035099D01*
X0013187Y0035178D01*
X0013052Y0035262D01*
X0012919Y0035348D01*
X0012789Y0035438D01*
X0012661Y0035531D01*
X0012535Y0035627D01*
X0012412Y0035727D01*
X0012291Y0035829D01*
X0012173Y0035934D01*
X0012058Y0036043D01*
X0011945Y0036154D01*
X0011835Y0036268D01*
X0011728Y0036385D01*
X0011624Y0036504D01*
X0011523Y0036626D01*
X0011426Y0036751D01*
X0011331Y0036878D01*
X0011240Y0037007D01*
X0011151Y0037138D01*
X0011067Y0037272D01*
X0010985Y0037408D01*
X0010907Y0037545D01*
X0010833Y0037685D01*
X0010762Y0037827D01*
X0010694Y0037970D01*
X0010630Y0038115D01*
X0010570Y0038261D01*
X0010514Y0038409D01*
X0010461Y0038558D01*
X0010412Y0038709D01*
X0010367Y0038861D01*
X0010326Y0039014D01*
X0010288Y0039167D01*
X0010255Y0039322D01*
X0010225Y0039478D01*
X0010199Y0039634D01*
X0010178Y0039791D01*
X0010160Y0039948D01*
X0010146Y0040106D01*
X0010136Y0040264D01*
X0010130Y0040422D01*
X0010128Y0040580D01*
X0126663Y0025422D02*
X0126665Y0025484D01*
X0126671Y0025547D01*
X0126681Y0025608D01*
X0126695Y0025669D01*
X0126712Y0025729D01*
X0126733Y0025788D01*
X0126759Y0025845D01*
X0126787Y0025900D01*
X0126819Y0025954D01*
X0126855Y0026005D01*
X0126893Y0026055D01*
X0126935Y0026101D01*
X0126979Y0026145D01*
X0127027Y0026186D01*
X0127076Y0026224D01*
X0127128Y0026258D01*
X0127182Y0026289D01*
X0127238Y0026317D01*
X0127296Y0026341D01*
X0127355Y0026362D01*
X0127415Y0026378D01*
X0127476Y0026391D01*
X0127538Y0026400D01*
X0127600Y0026405D01*
X0127663Y0026406D01*
X0127725Y0026403D01*
X0127787Y0026396D01*
X0127849Y0026385D01*
X0127909Y0026370D01*
X0127969Y0026352D01*
X0128027Y0026330D01*
X0128084Y0026304D01*
X0128139Y0026274D01*
X0128192Y0026241D01*
X0128243Y0026205D01*
X0128291Y0026166D01*
X0128337Y0026123D01*
X0128380Y0026078D01*
X0128420Y0026030D01*
X0128457Y0025980D01*
X0128491Y0025927D01*
X0128522Y0025873D01*
X0128548Y0025817D01*
X0128572Y0025759D01*
X0128591Y0025699D01*
X0128607Y0025639D01*
X0128619Y0025577D01*
X0128627Y0025516D01*
X0128631Y0025453D01*
X0128631Y0025391D01*
X0128627Y0025328D01*
X0128619Y0025267D01*
X0128607Y0025205D01*
X0128591Y0025145D01*
X0128572Y0025085D01*
X0128548Y0025027D01*
X0128522Y0024971D01*
X0128491Y0024917D01*
X0128457Y0024864D01*
X0128420Y0024814D01*
X0128380Y0024766D01*
X0128337Y0024721D01*
X0128291Y0024678D01*
X0128243Y0024639D01*
X0128192Y0024603D01*
X0128139Y0024570D01*
X0128084Y0024540D01*
X0128027Y0024514D01*
X0127969Y0024492D01*
X0127909Y0024474D01*
X0127849Y0024459D01*
X0127787Y0024448D01*
X0127725Y0024441D01*
X0127663Y0024438D01*
X0127600Y0024439D01*
X0127538Y0024444D01*
X0127476Y0024453D01*
X0127415Y0024466D01*
X0127355Y0024482D01*
X0127296Y0024503D01*
X0127238Y0024527D01*
X0127182Y0024555D01*
X0127128Y0024586D01*
X0127076Y0024620D01*
X0127027Y0024658D01*
X0126979Y0024699D01*
X0126935Y0024743D01*
X0126893Y0024789D01*
X0126855Y0024839D01*
X0126819Y0024890D01*
X0126787Y0024944D01*
X0126759Y0024999D01*
X0126733Y0025056D01*
X0126712Y0025115D01*
X0126695Y0025175D01*
X0126681Y0025236D01*
X0126671Y0025297D01*
X0126665Y0025360D01*
X0126663Y0025422D01*
X0126663Y0021485D02*
X0126665Y0021547D01*
X0126671Y0021610D01*
X0126681Y0021671D01*
X0126695Y0021732D01*
X0126712Y0021792D01*
X0126733Y0021851D01*
X0126759Y0021908D01*
X0126787Y0021963D01*
X0126819Y0022017D01*
X0126855Y0022068D01*
X0126893Y0022118D01*
X0126935Y0022164D01*
X0126979Y0022208D01*
X0127027Y0022249D01*
X0127076Y0022287D01*
X0127128Y0022321D01*
X0127182Y0022352D01*
X0127238Y0022380D01*
X0127296Y0022404D01*
X0127355Y0022425D01*
X0127415Y0022441D01*
X0127476Y0022454D01*
X0127538Y0022463D01*
X0127600Y0022468D01*
X0127663Y0022469D01*
X0127725Y0022466D01*
X0127787Y0022459D01*
X0127849Y0022448D01*
X0127909Y0022433D01*
X0127969Y0022415D01*
X0128027Y0022393D01*
X0128084Y0022367D01*
X0128139Y0022337D01*
X0128192Y0022304D01*
X0128243Y0022268D01*
X0128291Y0022229D01*
X0128337Y0022186D01*
X0128380Y0022141D01*
X0128420Y0022093D01*
X0128457Y0022043D01*
X0128491Y0021990D01*
X0128522Y0021936D01*
X0128548Y0021880D01*
X0128572Y0021822D01*
X0128591Y0021762D01*
X0128607Y0021702D01*
X0128619Y0021640D01*
X0128627Y0021579D01*
X0128631Y0021516D01*
X0128631Y0021454D01*
X0128627Y0021391D01*
X0128619Y0021330D01*
X0128607Y0021268D01*
X0128591Y0021208D01*
X0128572Y0021148D01*
X0128548Y0021090D01*
X0128522Y0021034D01*
X0128491Y0020980D01*
X0128457Y0020927D01*
X0128420Y0020877D01*
X0128380Y0020829D01*
X0128337Y0020784D01*
X0128291Y0020741D01*
X0128243Y0020702D01*
X0128192Y0020666D01*
X0128139Y0020633D01*
X0128084Y0020603D01*
X0128027Y0020577D01*
X0127969Y0020555D01*
X0127909Y0020537D01*
X0127849Y0020522D01*
X0127787Y0020511D01*
X0127725Y0020504D01*
X0127663Y0020501D01*
X0127600Y0020502D01*
X0127538Y0020507D01*
X0127476Y0020516D01*
X0127415Y0020529D01*
X0127355Y0020545D01*
X0127296Y0020566D01*
X0127238Y0020590D01*
X0127182Y0020618D01*
X0127128Y0020649D01*
X0127076Y0020683D01*
X0127027Y0020721D01*
X0126979Y0020762D01*
X0126935Y0020806D01*
X0126893Y0020852D01*
X0126855Y0020902D01*
X0126819Y0020953D01*
X0126787Y0021007D01*
X0126759Y0021062D01*
X0126733Y0021119D01*
X0126712Y0021178D01*
X0126695Y0021238D01*
X0126681Y0021299D01*
X0126671Y0021360D01*
X0126665Y0021423D01*
X0126663Y0021485D01*
X0126663Y0017548D02*
X0126665Y0017610D01*
X0126671Y0017673D01*
X0126681Y0017734D01*
X0126695Y0017795D01*
X0126712Y0017855D01*
X0126733Y0017914D01*
X0126759Y0017971D01*
X0126787Y0018026D01*
X0126819Y0018080D01*
X0126855Y0018131D01*
X0126893Y0018181D01*
X0126935Y0018227D01*
X0126979Y0018271D01*
X0127027Y0018312D01*
X0127076Y0018350D01*
X0127128Y0018384D01*
X0127182Y0018415D01*
X0127238Y0018443D01*
X0127296Y0018467D01*
X0127355Y0018488D01*
X0127415Y0018504D01*
X0127476Y0018517D01*
X0127538Y0018526D01*
X0127600Y0018531D01*
X0127663Y0018532D01*
X0127725Y0018529D01*
X0127787Y0018522D01*
X0127849Y0018511D01*
X0127909Y0018496D01*
X0127969Y0018478D01*
X0128027Y0018456D01*
X0128084Y0018430D01*
X0128139Y0018400D01*
X0128192Y0018367D01*
X0128243Y0018331D01*
X0128291Y0018292D01*
X0128337Y0018249D01*
X0128380Y0018204D01*
X0128420Y0018156D01*
X0128457Y0018106D01*
X0128491Y0018053D01*
X0128522Y0017999D01*
X0128548Y0017943D01*
X0128572Y0017885D01*
X0128591Y0017825D01*
X0128607Y0017765D01*
X0128619Y0017703D01*
X0128627Y0017642D01*
X0128631Y0017579D01*
X0128631Y0017517D01*
X0128627Y0017454D01*
X0128619Y0017393D01*
X0128607Y0017331D01*
X0128591Y0017271D01*
X0128572Y0017211D01*
X0128548Y0017153D01*
X0128522Y0017097D01*
X0128491Y0017043D01*
X0128457Y0016990D01*
X0128420Y0016940D01*
X0128380Y0016892D01*
X0128337Y0016847D01*
X0128291Y0016804D01*
X0128243Y0016765D01*
X0128192Y0016729D01*
X0128139Y0016696D01*
X0128084Y0016666D01*
X0128027Y0016640D01*
X0127969Y0016618D01*
X0127909Y0016600D01*
X0127849Y0016585D01*
X0127787Y0016574D01*
X0127725Y0016567D01*
X0127663Y0016564D01*
X0127600Y0016565D01*
X0127538Y0016570D01*
X0127476Y0016579D01*
X0127415Y0016592D01*
X0127355Y0016608D01*
X0127296Y0016629D01*
X0127238Y0016653D01*
X0127182Y0016681D01*
X0127128Y0016712D01*
X0127076Y0016746D01*
X0127027Y0016784D01*
X0126979Y0016825D01*
X0126935Y0016869D01*
X0126893Y0016915D01*
X0126855Y0016965D01*
X0126819Y0017016D01*
X0126787Y0017070D01*
X0126759Y0017125D01*
X0126733Y0017182D01*
X0126712Y0017241D01*
X0126695Y0017301D01*
X0126681Y0017362D01*
X0126671Y0017423D01*
X0126665Y0017486D01*
X0126663Y0017548D01*
X0130600Y0017548D02*
X0130602Y0017610D01*
X0130608Y0017673D01*
X0130618Y0017734D01*
X0130632Y0017795D01*
X0130649Y0017855D01*
X0130670Y0017914D01*
X0130696Y0017971D01*
X0130724Y0018026D01*
X0130756Y0018080D01*
X0130792Y0018131D01*
X0130830Y0018181D01*
X0130872Y0018227D01*
X0130916Y0018271D01*
X0130964Y0018312D01*
X0131013Y0018350D01*
X0131065Y0018384D01*
X0131119Y0018415D01*
X0131175Y0018443D01*
X0131233Y0018467D01*
X0131292Y0018488D01*
X0131352Y0018504D01*
X0131413Y0018517D01*
X0131475Y0018526D01*
X0131537Y0018531D01*
X0131600Y0018532D01*
X0131662Y0018529D01*
X0131724Y0018522D01*
X0131786Y0018511D01*
X0131846Y0018496D01*
X0131906Y0018478D01*
X0131964Y0018456D01*
X0132021Y0018430D01*
X0132076Y0018400D01*
X0132129Y0018367D01*
X0132180Y0018331D01*
X0132228Y0018292D01*
X0132274Y0018249D01*
X0132317Y0018204D01*
X0132357Y0018156D01*
X0132394Y0018106D01*
X0132428Y0018053D01*
X0132459Y0017999D01*
X0132485Y0017943D01*
X0132509Y0017885D01*
X0132528Y0017825D01*
X0132544Y0017765D01*
X0132556Y0017703D01*
X0132564Y0017642D01*
X0132568Y0017579D01*
X0132568Y0017517D01*
X0132564Y0017454D01*
X0132556Y0017393D01*
X0132544Y0017331D01*
X0132528Y0017271D01*
X0132509Y0017211D01*
X0132485Y0017153D01*
X0132459Y0017097D01*
X0132428Y0017043D01*
X0132394Y0016990D01*
X0132357Y0016940D01*
X0132317Y0016892D01*
X0132274Y0016847D01*
X0132228Y0016804D01*
X0132180Y0016765D01*
X0132129Y0016729D01*
X0132076Y0016696D01*
X0132021Y0016666D01*
X0131964Y0016640D01*
X0131906Y0016618D01*
X0131846Y0016600D01*
X0131786Y0016585D01*
X0131724Y0016574D01*
X0131662Y0016567D01*
X0131600Y0016564D01*
X0131537Y0016565D01*
X0131475Y0016570D01*
X0131413Y0016579D01*
X0131352Y0016592D01*
X0131292Y0016608D01*
X0131233Y0016629D01*
X0131175Y0016653D01*
X0131119Y0016681D01*
X0131065Y0016712D01*
X0131013Y0016746D01*
X0130964Y0016784D01*
X0130916Y0016825D01*
X0130872Y0016869D01*
X0130830Y0016915D01*
X0130792Y0016965D01*
X0130756Y0017016D01*
X0130724Y0017070D01*
X0130696Y0017125D01*
X0130670Y0017182D01*
X0130649Y0017241D01*
X0130632Y0017301D01*
X0130618Y0017362D01*
X0130608Y0017423D01*
X0130602Y0017486D01*
X0130600Y0017548D01*
X0130600Y0021485D02*
X0130602Y0021547D01*
X0130608Y0021610D01*
X0130618Y0021671D01*
X0130632Y0021732D01*
X0130649Y0021792D01*
X0130670Y0021851D01*
X0130696Y0021908D01*
X0130724Y0021963D01*
X0130756Y0022017D01*
X0130792Y0022068D01*
X0130830Y0022118D01*
X0130872Y0022164D01*
X0130916Y0022208D01*
X0130964Y0022249D01*
X0131013Y0022287D01*
X0131065Y0022321D01*
X0131119Y0022352D01*
X0131175Y0022380D01*
X0131233Y0022404D01*
X0131292Y0022425D01*
X0131352Y0022441D01*
X0131413Y0022454D01*
X0131475Y0022463D01*
X0131537Y0022468D01*
X0131600Y0022469D01*
X0131662Y0022466D01*
X0131724Y0022459D01*
X0131786Y0022448D01*
X0131846Y0022433D01*
X0131906Y0022415D01*
X0131964Y0022393D01*
X0132021Y0022367D01*
X0132076Y0022337D01*
X0132129Y0022304D01*
X0132180Y0022268D01*
X0132228Y0022229D01*
X0132274Y0022186D01*
X0132317Y0022141D01*
X0132357Y0022093D01*
X0132394Y0022043D01*
X0132428Y0021990D01*
X0132459Y0021936D01*
X0132485Y0021880D01*
X0132509Y0021822D01*
X0132528Y0021762D01*
X0132544Y0021702D01*
X0132556Y0021640D01*
X0132564Y0021579D01*
X0132568Y0021516D01*
X0132568Y0021454D01*
X0132564Y0021391D01*
X0132556Y0021330D01*
X0132544Y0021268D01*
X0132528Y0021208D01*
X0132509Y0021148D01*
X0132485Y0021090D01*
X0132459Y0021034D01*
X0132428Y0020980D01*
X0132394Y0020927D01*
X0132357Y0020877D01*
X0132317Y0020829D01*
X0132274Y0020784D01*
X0132228Y0020741D01*
X0132180Y0020702D01*
X0132129Y0020666D01*
X0132076Y0020633D01*
X0132021Y0020603D01*
X0131964Y0020577D01*
X0131906Y0020555D01*
X0131846Y0020537D01*
X0131786Y0020522D01*
X0131724Y0020511D01*
X0131662Y0020504D01*
X0131600Y0020501D01*
X0131537Y0020502D01*
X0131475Y0020507D01*
X0131413Y0020516D01*
X0131352Y0020529D01*
X0131292Y0020545D01*
X0131233Y0020566D01*
X0131175Y0020590D01*
X0131119Y0020618D01*
X0131065Y0020649D01*
X0131013Y0020683D01*
X0130964Y0020721D01*
X0130916Y0020762D01*
X0130872Y0020806D01*
X0130830Y0020852D01*
X0130792Y0020902D01*
X0130756Y0020953D01*
X0130724Y0021007D01*
X0130696Y0021062D01*
X0130670Y0021119D01*
X0130649Y0021178D01*
X0130632Y0021238D01*
X0130618Y0021299D01*
X0130608Y0021360D01*
X0130602Y0021423D01*
X0130600Y0021485D01*
X0130600Y0025422D02*
X0130602Y0025484D01*
X0130608Y0025547D01*
X0130618Y0025608D01*
X0130632Y0025669D01*
X0130649Y0025729D01*
X0130670Y0025788D01*
X0130696Y0025845D01*
X0130724Y0025900D01*
X0130756Y0025954D01*
X0130792Y0026005D01*
X0130830Y0026055D01*
X0130872Y0026101D01*
X0130916Y0026145D01*
X0130964Y0026186D01*
X0131013Y0026224D01*
X0131065Y0026258D01*
X0131119Y0026289D01*
X0131175Y0026317D01*
X0131233Y0026341D01*
X0131292Y0026362D01*
X0131352Y0026378D01*
X0131413Y0026391D01*
X0131475Y0026400D01*
X0131537Y0026405D01*
X0131600Y0026406D01*
X0131662Y0026403D01*
X0131724Y0026396D01*
X0131786Y0026385D01*
X0131846Y0026370D01*
X0131906Y0026352D01*
X0131964Y0026330D01*
X0132021Y0026304D01*
X0132076Y0026274D01*
X0132129Y0026241D01*
X0132180Y0026205D01*
X0132228Y0026166D01*
X0132274Y0026123D01*
X0132317Y0026078D01*
X0132357Y0026030D01*
X0132394Y0025980D01*
X0132428Y0025927D01*
X0132459Y0025873D01*
X0132485Y0025817D01*
X0132509Y0025759D01*
X0132528Y0025699D01*
X0132544Y0025639D01*
X0132556Y0025577D01*
X0132564Y0025516D01*
X0132568Y0025453D01*
X0132568Y0025391D01*
X0132564Y0025328D01*
X0132556Y0025267D01*
X0132544Y0025205D01*
X0132528Y0025145D01*
X0132509Y0025085D01*
X0132485Y0025027D01*
X0132459Y0024971D01*
X0132428Y0024917D01*
X0132394Y0024864D01*
X0132357Y0024814D01*
X0132317Y0024766D01*
X0132274Y0024721D01*
X0132228Y0024678D01*
X0132180Y0024639D01*
X0132129Y0024603D01*
X0132076Y0024570D01*
X0132021Y0024540D01*
X0131964Y0024514D01*
X0131906Y0024492D01*
X0131846Y0024474D01*
X0131786Y0024459D01*
X0131724Y0024448D01*
X0131662Y0024441D01*
X0131600Y0024438D01*
X0131537Y0024439D01*
X0131475Y0024444D01*
X0131413Y0024453D01*
X0131352Y0024466D01*
X0131292Y0024482D01*
X0131233Y0024503D01*
X0131175Y0024527D01*
X0131119Y0024555D01*
X0131065Y0024586D01*
X0131013Y0024620D01*
X0130964Y0024658D01*
X0130916Y0024699D01*
X0130872Y0024743D01*
X0130830Y0024789D01*
X0130792Y0024839D01*
X0130756Y0024890D01*
X0130724Y0024944D01*
X0130696Y0024999D01*
X0130670Y0025056D01*
X0130649Y0025115D01*
X0130632Y0025175D01*
X0130618Y0025236D01*
X0130608Y0025297D01*
X0130602Y0025360D01*
X0130600Y0025422D01*
X0134537Y0025422D02*
X0134539Y0025484D01*
X0134545Y0025547D01*
X0134555Y0025608D01*
X0134569Y0025669D01*
X0134586Y0025729D01*
X0134607Y0025788D01*
X0134633Y0025845D01*
X0134661Y0025900D01*
X0134693Y0025954D01*
X0134729Y0026005D01*
X0134767Y0026055D01*
X0134809Y0026101D01*
X0134853Y0026145D01*
X0134901Y0026186D01*
X0134950Y0026224D01*
X0135002Y0026258D01*
X0135056Y0026289D01*
X0135112Y0026317D01*
X0135170Y0026341D01*
X0135229Y0026362D01*
X0135289Y0026378D01*
X0135350Y0026391D01*
X0135412Y0026400D01*
X0135474Y0026405D01*
X0135537Y0026406D01*
X0135599Y0026403D01*
X0135661Y0026396D01*
X0135723Y0026385D01*
X0135783Y0026370D01*
X0135843Y0026352D01*
X0135901Y0026330D01*
X0135958Y0026304D01*
X0136013Y0026274D01*
X0136066Y0026241D01*
X0136117Y0026205D01*
X0136165Y0026166D01*
X0136211Y0026123D01*
X0136254Y0026078D01*
X0136294Y0026030D01*
X0136331Y0025980D01*
X0136365Y0025927D01*
X0136396Y0025873D01*
X0136422Y0025817D01*
X0136446Y0025759D01*
X0136465Y0025699D01*
X0136481Y0025639D01*
X0136493Y0025577D01*
X0136501Y0025516D01*
X0136505Y0025453D01*
X0136505Y0025391D01*
X0136501Y0025328D01*
X0136493Y0025267D01*
X0136481Y0025205D01*
X0136465Y0025145D01*
X0136446Y0025085D01*
X0136422Y0025027D01*
X0136396Y0024971D01*
X0136365Y0024917D01*
X0136331Y0024864D01*
X0136294Y0024814D01*
X0136254Y0024766D01*
X0136211Y0024721D01*
X0136165Y0024678D01*
X0136117Y0024639D01*
X0136066Y0024603D01*
X0136013Y0024570D01*
X0135958Y0024540D01*
X0135901Y0024514D01*
X0135843Y0024492D01*
X0135783Y0024474D01*
X0135723Y0024459D01*
X0135661Y0024448D01*
X0135599Y0024441D01*
X0135537Y0024438D01*
X0135474Y0024439D01*
X0135412Y0024444D01*
X0135350Y0024453D01*
X0135289Y0024466D01*
X0135229Y0024482D01*
X0135170Y0024503D01*
X0135112Y0024527D01*
X0135056Y0024555D01*
X0135002Y0024586D01*
X0134950Y0024620D01*
X0134901Y0024658D01*
X0134853Y0024699D01*
X0134809Y0024743D01*
X0134767Y0024789D01*
X0134729Y0024839D01*
X0134693Y0024890D01*
X0134661Y0024944D01*
X0134633Y0024999D01*
X0134607Y0025056D01*
X0134586Y0025115D01*
X0134569Y0025175D01*
X0134555Y0025236D01*
X0134545Y0025297D01*
X0134539Y0025360D01*
X0134537Y0025422D01*
X0134537Y0021485D02*
X0134539Y0021547D01*
X0134545Y0021610D01*
X0134555Y0021671D01*
X0134569Y0021732D01*
X0134586Y0021792D01*
X0134607Y0021851D01*
X0134633Y0021908D01*
X0134661Y0021963D01*
X0134693Y0022017D01*
X0134729Y0022068D01*
X0134767Y0022118D01*
X0134809Y0022164D01*
X0134853Y0022208D01*
X0134901Y0022249D01*
X0134950Y0022287D01*
X0135002Y0022321D01*
X0135056Y0022352D01*
X0135112Y0022380D01*
X0135170Y0022404D01*
X0135229Y0022425D01*
X0135289Y0022441D01*
X0135350Y0022454D01*
X0135412Y0022463D01*
X0135474Y0022468D01*
X0135537Y0022469D01*
X0135599Y0022466D01*
X0135661Y0022459D01*
X0135723Y0022448D01*
X0135783Y0022433D01*
X0135843Y0022415D01*
X0135901Y0022393D01*
X0135958Y0022367D01*
X0136013Y0022337D01*
X0136066Y0022304D01*
X0136117Y0022268D01*
X0136165Y0022229D01*
X0136211Y0022186D01*
X0136254Y0022141D01*
X0136294Y0022093D01*
X0136331Y0022043D01*
X0136365Y0021990D01*
X0136396Y0021936D01*
X0136422Y0021880D01*
X0136446Y0021822D01*
X0136465Y0021762D01*
X0136481Y0021702D01*
X0136493Y0021640D01*
X0136501Y0021579D01*
X0136505Y0021516D01*
X0136505Y0021454D01*
X0136501Y0021391D01*
X0136493Y0021330D01*
X0136481Y0021268D01*
X0136465Y0021208D01*
X0136446Y0021148D01*
X0136422Y0021090D01*
X0136396Y0021034D01*
X0136365Y0020980D01*
X0136331Y0020927D01*
X0136294Y0020877D01*
X0136254Y0020829D01*
X0136211Y0020784D01*
X0136165Y0020741D01*
X0136117Y0020702D01*
X0136066Y0020666D01*
X0136013Y0020633D01*
X0135958Y0020603D01*
X0135901Y0020577D01*
X0135843Y0020555D01*
X0135783Y0020537D01*
X0135723Y0020522D01*
X0135661Y0020511D01*
X0135599Y0020504D01*
X0135537Y0020501D01*
X0135474Y0020502D01*
X0135412Y0020507D01*
X0135350Y0020516D01*
X0135289Y0020529D01*
X0135229Y0020545D01*
X0135170Y0020566D01*
X0135112Y0020590D01*
X0135056Y0020618D01*
X0135002Y0020649D01*
X0134950Y0020683D01*
X0134901Y0020721D01*
X0134853Y0020762D01*
X0134809Y0020806D01*
X0134767Y0020852D01*
X0134729Y0020902D01*
X0134693Y0020953D01*
X0134661Y0021007D01*
X0134633Y0021062D01*
X0134607Y0021119D01*
X0134586Y0021178D01*
X0134569Y0021238D01*
X0134555Y0021299D01*
X0134545Y0021360D01*
X0134539Y0021423D01*
X0134537Y0021485D01*
X0134537Y0017548D02*
X0134539Y0017610D01*
X0134545Y0017673D01*
X0134555Y0017734D01*
X0134569Y0017795D01*
X0134586Y0017855D01*
X0134607Y0017914D01*
X0134633Y0017971D01*
X0134661Y0018026D01*
X0134693Y0018080D01*
X0134729Y0018131D01*
X0134767Y0018181D01*
X0134809Y0018227D01*
X0134853Y0018271D01*
X0134901Y0018312D01*
X0134950Y0018350D01*
X0135002Y0018384D01*
X0135056Y0018415D01*
X0135112Y0018443D01*
X0135170Y0018467D01*
X0135229Y0018488D01*
X0135289Y0018504D01*
X0135350Y0018517D01*
X0135412Y0018526D01*
X0135474Y0018531D01*
X0135537Y0018532D01*
X0135599Y0018529D01*
X0135661Y0018522D01*
X0135723Y0018511D01*
X0135783Y0018496D01*
X0135843Y0018478D01*
X0135901Y0018456D01*
X0135958Y0018430D01*
X0136013Y0018400D01*
X0136066Y0018367D01*
X0136117Y0018331D01*
X0136165Y0018292D01*
X0136211Y0018249D01*
X0136254Y0018204D01*
X0136294Y0018156D01*
X0136331Y0018106D01*
X0136365Y0018053D01*
X0136396Y0017999D01*
X0136422Y0017943D01*
X0136446Y0017885D01*
X0136465Y0017825D01*
X0136481Y0017765D01*
X0136493Y0017703D01*
X0136501Y0017642D01*
X0136505Y0017579D01*
X0136505Y0017517D01*
X0136501Y0017454D01*
X0136493Y0017393D01*
X0136481Y0017331D01*
X0136465Y0017271D01*
X0136446Y0017211D01*
X0136422Y0017153D01*
X0136396Y0017097D01*
X0136365Y0017043D01*
X0136331Y0016990D01*
X0136294Y0016940D01*
X0136254Y0016892D01*
X0136211Y0016847D01*
X0136165Y0016804D01*
X0136117Y0016765D01*
X0136066Y0016729D01*
X0136013Y0016696D01*
X0135958Y0016666D01*
X0135901Y0016640D01*
X0135843Y0016618D01*
X0135783Y0016600D01*
X0135723Y0016585D01*
X0135661Y0016574D01*
X0135599Y0016567D01*
X0135537Y0016564D01*
X0135474Y0016565D01*
X0135412Y0016570D01*
X0135350Y0016579D01*
X0135289Y0016592D01*
X0135229Y0016608D01*
X0135170Y0016629D01*
X0135112Y0016653D01*
X0135056Y0016681D01*
X0135002Y0016712D01*
X0134950Y0016746D01*
X0134901Y0016784D01*
X0134853Y0016825D01*
X0134809Y0016869D01*
X0134767Y0016915D01*
X0134729Y0016965D01*
X0134693Y0017016D01*
X0134661Y0017070D01*
X0134633Y0017125D01*
X0134607Y0017182D01*
X0134586Y0017241D01*
X0134569Y0017301D01*
X0134555Y0017362D01*
X0134545Y0017423D01*
X0134539Y0017486D01*
X0134537Y0017548D01*
X0449498Y0017548D02*
X0449500Y0017610D01*
X0449506Y0017673D01*
X0449516Y0017734D01*
X0449530Y0017795D01*
X0449547Y0017855D01*
X0449568Y0017914D01*
X0449594Y0017971D01*
X0449622Y0018026D01*
X0449654Y0018080D01*
X0449690Y0018131D01*
X0449728Y0018181D01*
X0449770Y0018227D01*
X0449814Y0018271D01*
X0449862Y0018312D01*
X0449911Y0018350D01*
X0449963Y0018384D01*
X0450017Y0018415D01*
X0450073Y0018443D01*
X0450131Y0018467D01*
X0450190Y0018488D01*
X0450250Y0018504D01*
X0450311Y0018517D01*
X0450373Y0018526D01*
X0450435Y0018531D01*
X0450498Y0018532D01*
X0450560Y0018529D01*
X0450622Y0018522D01*
X0450684Y0018511D01*
X0450744Y0018496D01*
X0450804Y0018478D01*
X0450862Y0018456D01*
X0450919Y0018430D01*
X0450974Y0018400D01*
X0451027Y0018367D01*
X0451078Y0018331D01*
X0451126Y0018292D01*
X0451172Y0018249D01*
X0451215Y0018204D01*
X0451255Y0018156D01*
X0451292Y0018106D01*
X0451326Y0018053D01*
X0451357Y0017999D01*
X0451383Y0017943D01*
X0451407Y0017885D01*
X0451426Y0017825D01*
X0451442Y0017765D01*
X0451454Y0017703D01*
X0451462Y0017642D01*
X0451466Y0017579D01*
X0451466Y0017517D01*
X0451462Y0017454D01*
X0451454Y0017393D01*
X0451442Y0017331D01*
X0451426Y0017271D01*
X0451407Y0017211D01*
X0451383Y0017153D01*
X0451357Y0017097D01*
X0451326Y0017043D01*
X0451292Y0016990D01*
X0451255Y0016940D01*
X0451215Y0016892D01*
X0451172Y0016847D01*
X0451126Y0016804D01*
X0451078Y0016765D01*
X0451027Y0016729D01*
X0450974Y0016696D01*
X0450919Y0016666D01*
X0450862Y0016640D01*
X0450804Y0016618D01*
X0450744Y0016600D01*
X0450684Y0016585D01*
X0450622Y0016574D01*
X0450560Y0016567D01*
X0450498Y0016564D01*
X0450435Y0016565D01*
X0450373Y0016570D01*
X0450311Y0016579D01*
X0450250Y0016592D01*
X0450190Y0016608D01*
X0450131Y0016629D01*
X0450073Y0016653D01*
X0450017Y0016681D01*
X0449963Y0016712D01*
X0449911Y0016746D01*
X0449862Y0016784D01*
X0449814Y0016825D01*
X0449770Y0016869D01*
X0449728Y0016915D01*
X0449690Y0016965D01*
X0449654Y0017016D01*
X0449622Y0017070D01*
X0449594Y0017125D01*
X0449568Y0017182D01*
X0449547Y0017241D01*
X0449530Y0017301D01*
X0449516Y0017362D01*
X0449506Y0017423D01*
X0449500Y0017486D01*
X0449498Y0017548D01*
X0449498Y0021485D02*
X0449500Y0021547D01*
X0449506Y0021610D01*
X0449516Y0021671D01*
X0449530Y0021732D01*
X0449547Y0021792D01*
X0449568Y0021851D01*
X0449594Y0021908D01*
X0449622Y0021963D01*
X0449654Y0022017D01*
X0449690Y0022068D01*
X0449728Y0022118D01*
X0449770Y0022164D01*
X0449814Y0022208D01*
X0449862Y0022249D01*
X0449911Y0022287D01*
X0449963Y0022321D01*
X0450017Y0022352D01*
X0450073Y0022380D01*
X0450131Y0022404D01*
X0450190Y0022425D01*
X0450250Y0022441D01*
X0450311Y0022454D01*
X0450373Y0022463D01*
X0450435Y0022468D01*
X0450498Y0022469D01*
X0450560Y0022466D01*
X0450622Y0022459D01*
X0450684Y0022448D01*
X0450744Y0022433D01*
X0450804Y0022415D01*
X0450862Y0022393D01*
X0450919Y0022367D01*
X0450974Y0022337D01*
X0451027Y0022304D01*
X0451078Y0022268D01*
X0451126Y0022229D01*
X0451172Y0022186D01*
X0451215Y0022141D01*
X0451255Y0022093D01*
X0451292Y0022043D01*
X0451326Y0021990D01*
X0451357Y0021936D01*
X0451383Y0021880D01*
X0451407Y0021822D01*
X0451426Y0021762D01*
X0451442Y0021702D01*
X0451454Y0021640D01*
X0451462Y0021579D01*
X0451466Y0021516D01*
X0451466Y0021454D01*
X0451462Y0021391D01*
X0451454Y0021330D01*
X0451442Y0021268D01*
X0451426Y0021208D01*
X0451407Y0021148D01*
X0451383Y0021090D01*
X0451357Y0021034D01*
X0451326Y0020980D01*
X0451292Y0020927D01*
X0451255Y0020877D01*
X0451215Y0020829D01*
X0451172Y0020784D01*
X0451126Y0020741D01*
X0451078Y0020702D01*
X0451027Y0020666D01*
X0450974Y0020633D01*
X0450919Y0020603D01*
X0450862Y0020577D01*
X0450804Y0020555D01*
X0450744Y0020537D01*
X0450684Y0020522D01*
X0450622Y0020511D01*
X0450560Y0020504D01*
X0450498Y0020501D01*
X0450435Y0020502D01*
X0450373Y0020507D01*
X0450311Y0020516D01*
X0450250Y0020529D01*
X0450190Y0020545D01*
X0450131Y0020566D01*
X0450073Y0020590D01*
X0450017Y0020618D01*
X0449963Y0020649D01*
X0449911Y0020683D01*
X0449862Y0020721D01*
X0449814Y0020762D01*
X0449770Y0020806D01*
X0449728Y0020852D01*
X0449690Y0020902D01*
X0449654Y0020953D01*
X0449622Y0021007D01*
X0449594Y0021062D01*
X0449568Y0021119D01*
X0449547Y0021178D01*
X0449530Y0021238D01*
X0449516Y0021299D01*
X0449506Y0021360D01*
X0449500Y0021423D01*
X0449498Y0021485D01*
X0449498Y0025422D02*
X0449500Y0025484D01*
X0449506Y0025547D01*
X0449516Y0025608D01*
X0449530Y0025669D01*
X0449547Y0025729D01*
X0449568Y0025788D01*
X0449594Y0025845D01*
X0449622Y0025900D01*
X0449654Y0025954D01*
X0449690Y0026005D01*
X0449728Y0026055D01*
X0449770Y0026101D01*
X0449814Y0026145D01*
X0449862Y0026186D01*
X0449911Y0026224D01*
X0449963Y0026258D01*
X0450017Y0026289D01*
X0450073Y0026317D01*
X0450131Y0026341D01*
X0450190Y0026362D01*
X0450250Y0026378D01*
X0450311Y0026391D01*
X0450373Y0026400D01*
X0450435Y0026405D01*
X0450498Y0026406D01*
X0450560Y0026403D01*
X0450622Y0026396D01*
X0450684Y0026385D01*
X0450744Y0026370D01*
X0450804Y0026352D01*
X0450862Y0026330D01*
X0450919Y0026304D01*
X0450974Y0026274D01*
X0451027Y0026241D01*
X0451078Y0026205D01*
X0451126Y0026166D01*
X0451172Y0026123D01*
X0451215Y0026078D01*
X0451255Y0026030D01*
X0451292Y0025980D01*
X0451326Y0025927D01*
X0451357Y0025873D01*
X0451383Y0025817D01*
X0451407Y0025759D01*
X0451426Y0025699D01*
X0451442Y0025639D01*
X0451454Y0025577D01*
X0451462Y0025516D01*
X0451466Y0025453D01*
X0451466Y0025391D01*
X0451462Y0025328D01*
X0451454Y0025267D01*
X0451442Y0025205D01*
X0451426Y0025145D01*
X0451407Y0025085D01*
X0451383Y0025027D01*
X0451357Y0024971D01*
X0451326Y0024917D01*
X0451292Y0024864D01*
X0451255Y0024814D01*
X0451215Y0024766D01*
X0451172Y0024721D01*
X0451126Y0024678D01*
X0451078Y0024639D01*
X0451027Y0024603D01*
X0450974Y0024570D01*
X0450919Y0024540D01*
X0450862Y0024514D01*
X0450804Y0024492D01*
X0450744Y0024474D01*
X0450684Y0024459D01*
X0450622Y0024448D01*
X0450560Y0024441D01*
X0450498Y0024438D01*
X0450435Y0024439D01*
X0450373Y0024444D01*
X0450311Y0024453D01*
X0450250Y0024466D01*
X0450190Y0024482D01*
X0450131Y0024503D01*
X0450073Y0024527D01*
X0450017Y0024555D01*
X0449963Y0024586D01*
X0449911Y0024620D01*
X0449862Y0024658D01*
X0449814Y0024699D01*
X0449770Y0024743D01*
X0449728Y0024789D01*
X0449690Y0024839D01*
X0449654Y0024890D01*
X0449622Y0024944D01*
X0449594Y0024999D01*
X0449568Y0025056D01*
X0449547Y0025115D01*
X0449530Y0025175D01*
X0449516Y0025236D01*
X0449506Y0025297D01*
X0449500Y0025360D01*
X0449498Y0025422D01*
X0453435Y0025422D02*
X0453437Y0025484D01*
X0453443Y0025547D01*
X0453453Y0025608D01*
X0453467Y0025669D01*
X0453484Y0025729D01*
X0453505Y0025788D01*
X0453531Y0025845D01*
X0453559Y0025900D01*
X0453591Y0025954D01*
X0453627Y0026005D01*
X0453665Y0026055D01*
X0453707Y0026101D01*
X0453751Y0026145D01*
X0453799Y0026186D01*
X0453848Y0026224D01*
X0453900Y0026258D01*
X0453954Y0026289D01*
X0454010Y0026317D01*
X0454068Y0026341D01*
X0454127Y0026362D01*
X0454187Y0026378D01*
X0454248Y0026391D01*
X0454310Y0026400D01*
X0454372Y0026405D01*
X0454435Y0026406D01*
X0454497Y0026403D01*
X0454559Y0026396D01*
X0454621Y0026385D01*
X0454681Y0026370D01*
X0454741Y0026352D01*
X0454799Y0026330D01*
X0454856Y0026304D01*
X0454911Y0026274D01*
X0454964Y0026241D01*
X0455015Y0026205D01*
X0455063Y0026166D01*
X0455109Y0026123D01*
X0455152Y0026078D01*
X0455192Y0026030D01*
X0455229Y0025980D01*
X0455263Y0025927D01*
X0455294Y0025873D01*
X0455320Y0025817D01*
X0455344Y0025759D01*
X0455363Y0025699D01*
X0455379Y0025639D01*
X0455391Y0025577D01*
X0455399Y0025516D01*
X0455403Y0025453D01*
X0455403Y0025391D01*
X0455399Y0025328D01*
X0455391Y0025267D01*
X0455379Y0025205D01*
X0455363Y0025145D01*
X0455344Y0025085D01*
X0455320Y0025027D01*
X0455294Y0024971D01*
X0455263Y0024917D01*
X0455229Y0024864D01*
X0455192Y0024814D01*
X0455152Y0024766D01*
X0455109Y0024721D01*
X0455063Y0024678D01*
X0455015Y0024639D01*
X0454964Y0024603D01*
X0454911Y0024570D01*
X0454856Y0024540D01*
X0454799Y0024514D01*
X0454741Y0024492D01*
X0454681Y0024474D01*
X0454621Y0024459D01*
X0454559Y0024448D01*
X0454497Y0024441D01*
X0454435Y0024438D01*
X0454372Y0024439D01*
X0454310Y0024444D01*
X0454248Y0024453D01*
X0454187Y0024466D01*
X0454127Y0024482D01*
X0454068Y0024503D01*
X0454010Y0024527D01*
X0453954Y0024555D01*
X0453900Y0024586D01*
X0453848Y0024620D01*
X0453799Y0024658D01*
X0453751Y0024699D01*
X0453707Y0024743D01*
X0453665Y0024789D01*
X0453627Y0024839D01*
X0453591Y0024890D01*
X0453559Y0024944D01*
X0453531Y0024999D01*
X0453505Y0025056D01*
X0453484Y0025115D01*
X0453467Y0025175D01*
X0453453Y0025236D01*
X0453443Y0025297D01*
X0453437Y0025360D01*
X0453435Y0025422D01*
X0453435Y0021485D02*
X0453437Y0021547D01*
X0453443Y0021610D01*
X0453453Y0021671D01*
X0453467Y0021732D01*
X0453484Y0021792D01*
X0453505Y0021851D01*
X0453531Y0021908D01*
X0453559Y0021963D01*
X0453591Y0022017D01*
X0453627Y0022068D01*
X0453665Y0022118D01*
X0453707Y0022164D01*
X0453751Y0022208D01*
X0453799Y0022249D01*
X0453848Y0022287D01*
X0453900Y0022321D01*
X0453954Y0022352D01*
X0454010Y0022380D01*
X0454068Y0022404D01*
X0454127Y0022425D01*
X0454187Y0022441D01*
X0454248Y0022454D01*
X0454310Y0022463D01*
X0454372Y0022468D01*
X0454435Y0022469D01*
X0454497Y0022466D01*
X0454559Y0022459D01*
X0454621Y0022448D01*
X0454681Y0022433D01*
X0454741Y0022415D01*
X0454799Y0022393D01*
X0454856Y0022367D01*
X0454911Y0022337D01*
X0454964Y0022304D01*
X0455015Y0022268D01*
X0455063Y0022229D01*
X0455109Y0022186D01*
X0455152Y0022141D01*
X0455192Y0022093D01*
X0455229Y0022043D01*
X0455263Y0021990D01*
X0455294Y0021936D01*
X0455320Y0021880D01*
X0455344Y0021822D01*
X0455363Y0021762D01*
X0455379Y0021702D01*
X0455391Y0021640D01*
X0455399Y0021579D01*
X0455403Y0021516D01*
X0455403Y0021454D01*
X0455399Y0021391D01*
X0455391Y0021330D01*
X0455379Y0021268D01*
X0455363Y0021208D01*
X0455344Y0021148D01*
X0455320Y0021090D01*
X0455294Y0021034D01*
X0455263Y0020980D01*
X0455229Y0020927D01*
X0455192Y0020877D01*
X0455152Y0020829D01*
X0455109Y0020784D01*
X0455063Y0020741D01*
X0455015Y0020702D01*
X0454964Y0020666D01*
X0454911Y0020633D01*
X0454856Y0020603D01*
X0454799Y0020577D01*
X0454741Y0020555D01*
X0454681Y0020537D01*
X0454621Y0020522D01*
X0454559Y0020511D01*
X0454497Y0020504D01*
X0454435Y0020501D01*
X0454372Y0020502D01*
X0454310Y0020507D01*
X0454248Y0020516D01*
X0454187Y0020529D01*
X0454127Y0020545D01*
X0454068Y0020566D01*
X0454010Y0020590D01*
X0453954Y0020618D01*
X0453900Y0020649D01*
X0453848Y0020683D01*
X0453799Y0020721D01*
X0453751Y0020762D01*
X0453707Y0020806D01*
X0453665Y0020852D01*
X0453627Y0020902D01*
X0453591Y0020953D01*
X0453559Y0021007D01*
X0453531Y0021062D01*
X0453505Y0021119D01*
X0453484Y0021178D01*
X0453467Y0021238D01*
X0453453Y0021299D01*
X0453443Y0021360D01*
X0453437Y0021423D01*
X0453435Y0021485D01*
X0453435Y0017548D02*
X0453437Y0017610D01*
X0453443Y0017673D01*
X0453453Y0017734D01*
X0453467Y0017795D01*
X0453484Y0017855D01*
X0453505Y0017914D01*
X0453531Y0017971D01*
X0453559Y0018026D01*
X0453591Y0018080D01*
X0453627Y0018131D01*
X0453665Y0018181D01*
X0453707Y0018227D01*
X0453751Y0018271D01*
X0453799Y0018312D01*
X0453848Y0018350D01*
X0453900Y0018384D01*
X0453954Y0018415D01*
X0454010Y0018443D01*
X0454068Y0018467D01*
X0454127Y0018488D01*
X0454187Y0018504D01*
X0454248Y0018517D01*
X0454310Y0018526D01*
X0454372Y0018531D01*
X0454435Y0018532D01*
X0454497Y0018529D01*
X0454559Y0018522D01*
X0454621Y0018511D01*
X0454681Y0018496D01*
X0454741Y0018478D01*
X0454799Y0018456D01*
X0454856Y0018430D01*
X0454911Y0018400D01*
X0454964Y0018367D01*
X0455015Y0018331D01*
X0455063Y0018292D01*
X0455109Y0018249D01*
X0455152Y0018204D01*
X0455192Y0018156D01*
X0455229Y0018106D01*
X0455263Y0018053D01*
X0455294Y0017999D01*
X0455320Y0017943D01*
X0455344Y0017885D01*
X0455363Y0017825D01*
X0455379Y0017765D01*
X0455391Y0017703D01*
X0455399Y0017642D01*
X0455403Y0017579D01*
X0455403Y0017517D01*
X0455399Y0017454D01*
X0455391Y0017393D01*
X0455379Y0017331D01*
X0455363Y0017271D01*
X0455344Y0017211D01*
X0455320Y0017153D01*
X0455294Y0017097D01*
X0455263Y0017043D01*
X0455229Y0016990D01*
X0455192Y0016940D01*
X0455152Y0016892D01*
X0455109Y0016847D01*
X0455063Y0016804D01*
X0455015Y0016765D01*
X0454964Y0016729D01*
X0454911Y0016696D01*
X0454856Y0016666D01*
X0454799Y0016640D01*
X0454741Y0016618D01*
X0454681Y0016600D01*
X0454621Y0016585D01*
X0454559Y0016574D01*
X0454497Y0016567D01*
X0454435Y0016564D01*
X0454372Y0016565D01*
X0454310Y0016570D01*
X0454248Y0016579D01*
X0454187Y0016592D01*
X0454127Y0016608D01*
X0454068Y0016629D01*
X0454010Y0016653D01*
X0453954Y0016681D01*
X0453900Y0016712D01*
X0453848Y0016746D01*
X0453799Y0016784D01*
X0453751Y0016825D01*
X0453707Y0016869D01*
X0453665Y0016915D01*
X0453627Y0016965D01*
X0453591Y0017016D01*
X0453559Y0017070D01*
X0453531Y0017125D01*
X0453505Y0017182D01*
X0453484Y0017241D01*
X0453467Y0017301D01*
X0453453Y0017362D01*
X0453443Y0017423D01*
X0453437Y0017486D01*
X0453435Y0017548D01*
X0457372Y0017548D02*
X0457374Y0017610D01*
X0457380Y0017673D01*
X0457390Y0017734D01*
X0457404Y0017795D01*
X0457421Y0017855D01*
X0457442Y0017914D01*
X0457468Y0017971D01*
X0457496Y0018026D01*
X0457528Y0018080D01*
X0457564Y0018131D01*
X0457602Y0018181D01*
X0457644Y0018227D01*
X0457688Y0018271D01*
X0457736Y0018312D01*
X0457785Y0018350D01*
X0457837Y0018384D01*
X0457891Y0018415D01*
X0457947Y0018443D01*
X0458005Y0018467D01*
X0458064Y0018488D01*
X0458124Y0018504D01*
X0458185Y0018517D01*
X0458247Y0018526D01*
X0458309Y0018531D01*
X0458372Y0018532D01*
X0458434Y0018529D01*
X0458496Y0018522D01*
X0458558Y0018511D01*
X0458618Y0018496D01*
X0458678Y0018478D01*
X0458736Y0018456D01*
X0458793Y0018430D01*
X0458848Y0018400D01*
X0458901Y0018367D01*
X0458952Y0018331D01*
X0459000Y0018292D01*
X0459046Y0018249D01*
X0459089Y0018204D01*
X0459129Y0018156D01*
X0459166Y0018106D01*
X0459200Y0018053D01*
X0459231Y0017999D01*
X0459257Y0017943D01*
X0459281Y0017885D01*
X0459300Y0017825D01*
X0459316Y0017765D01*
X0459328Y0017703D01*
X0459336Y0017642D01*
X0459340Y0017579D01*
X0459340Y0017517D01*
X0459336Y0017454D01*
X0459328Y0017393D01*
X0459316Y0017331D01*
X0459300Y0017271D01*
X0459281Y0017211D01*
X0459257Y0017153D01*
X0459231Y0017097D01*
X0459200Y0017043D01*
X0459166Y0016990D01*
X0459129Y0016940D01*
X0459089Y0016892D01*
X0459046Y0016847D01*
X0459000Y0016804D01*
X0458952Y0016765D01*
X0458901Y0016729D01*
X0458848Y0016696D01*
X0458793Y0016666D01*
X0458736Y0016640D01*
X0458678Y0016618D01*
X0458618Y0016600D01*
X0458558Y0016585D01*
X0458496Y0016574D01*
X0458434Y0016567D01*
X0458372Y0016564D01*
X0458309Y0016565D01*
X0458247Y0016570D01*
X0458185Y0016579D01*
X0458124Y0016592D01*
X0458064Y0016608D01*
X0458005Y0016629D01*
X0457947Y0016653D01*
X0457891Y0016681D01*
X0457837Y0016712D01*
X0457785Y0016746D01*
X0457736Y0016784D01*
X0457688Y0016825D01*
X0457644Y0016869D01*
X0457602Y0016915D01*
X0457564Y0016965D01*
X0457528Y0017016D01*
X0457496Y0017070D01*
X0457468Y0017125D01*
X0457442Y0017182D01*
X0457421Y0017241D01*
X0457404Y0017301D01*
X0457390Y0017362D01*
X0457380Y0017423D01*
X0457374Y0017486D01*
X0457372Y0017548D01*
X0457372Y0021485D02*
X0457374Y0021547D01*
X0457380Y0021610D01*
X0457390Y0021671D01*
X0457404Y0021732D01*
X0457421Y0021792D01*
X0457442Y0021851D01*
X0457468Y0021908D01*
X0457496Y0021963D01*
X0457528Y0022017D01*
X0457564Y0022068D01*
X0457602Y0022118D01*
X0457644Y0022164D01*
X0457688Y0022208D01*
X0457736Y0022249D01*
X0457785Y0022287D01*
X0457837Y0022321D01*
X0457891Y0022352D01*
X0457947Y0022380D01*
X0458005Y0022404D01*
X0458064Y0022425D01*
X0458124Y0022441D01*
X0458185Y0022454D01*
X0458247Y0022463D01*
X0458309Y0022468D01*
X0458372Y0022469D01*
X0458434Y0022466D01*
X0458496Y0022459D01*
X0458558Y0022448D01*
X0458618Y0022433D01*
X0458678Y0022415D01*
X0458736Y0022393D01*
X0458793Y0022367D01*
X0458848Y0022337D01*
X0458901Y0022304D01*
X0458952Y0022268D01*
X0459000Y0022229D01*
X0459046Y0022186D01*
X0459089Y0022141D01*
X0459129Y0022093D01*
X0459166Y0022043D01*
X0459200Y0021990D01*
X0459231Y0021936D01*
X0459257Y0021880D01*
X0459281Y0021822D01*
X0459300Y0021762D01*
X0459316Y0021702D01*
X0459328Y0021640D01*
X0459336Y0021579D01*
X0459340Y0021516D01*
X0459340Y0021454D01*
X0459336Y0021391D01*
X0459328Y0021330D01*
X0459316Y0021268D01*
X0459300Y0021208D01*
X0459281Y0021148D01*
X0459257Y0021090D01*
X0459231Y0021034D01*
X0459200Y0020980D01*
X0459166Y0020927D01*
X0459129Y0020877D01*
X0459089Y0020829D01*
X0459046Y0020784D01*
X0459000Y0020741D01*
X0458952Y0020702D01*
X0458901Y0020666D01*
X0458848Y0020633D01*
X0458793Y0020603D01*
X0458736Y0020577D01*
X0458678Y0020555D01*
X0458618Y0020537D01*
X0458558Y0020522D01*
X0458496Y0020511D01*
X0458434Y0020504D01*
X0458372Y0020501D01*
X0458309Y0020502D01*
X0458247Y0020507D01*
X0458185Y0020516D01*
X0458124Y0020529D01*
X0458064Y0020545D01*
X0458005Y0020566D01*
X0457947Y0020590D01*
X0457891Y0020618D01*
X0457837Y0020649D01*
X0457785Y0020683D01*
X0457736Y0020721D01*
X0457688Y0020762D01*
X0457644Y0020806D01*
X0457602Y0020852D01*
X0457564Y0020902D01*
X0457528Y0020953D01*
X0457496Y0021007D01*
X0457468Y0021062D01*
X0457442Y0021119D01*
X0457421Y0021178D01*
X0457404Y0021238D01*
X0457390Y0021299D01*
X0457380Y0021360D01*
X0457374Y0021423D01*
X0457372Y0021485D01*
X0457372Y0025422D02*
X0457374Y0025484D01*
X0457380Y0025547D01*
X0457390Y0025608D01*
X0457404Y0025669D01*
X0457421Y0025729D01*
X0457442Y0025788D01*
X0457468Y0025845D01*
X0457496Y0025900D01*
X0457528Y0025954D01*
X0457564Y0026005D01*
X0457602Y0026055D01*
X0457644Y0026101D01*
X0457688Y0026145D01*
X0457736Y0026186D01*
X0457785Y0026224D01*
X0457837Y0026258D01*
X0457891Y0026289D01*
X0457947Y0026317D01*
X0458005Y0026341D01*
X0458064Y0026362D01*
X0458124Y0026378D01*
X0458185Y0026391D01*
X0458247Y0026400D01*
X0458309Y0026405D01*
X0458372Y0026406D01*
X0458434Y0026403D01*
X0458496Y0026396D01*
X0458558Y0026385D01*
X0458618Y0026370D01*
X0458678Y0026352D01*
X0458736Y0026330D01*
X0458793Y0026304D01*
X0458848Y0026274D01*
X0458901Y0026241D01*
X0458952Y0026205D01*
X0459000Y0026166D01*
X0459046Y0026123D01*
X0459089Y0026078D01*
X0459129Y0026030D01*
X0459166Y0025980D01*
X0459200Y0025927D01*
X0459231Y0025873D01*
X0459257Y0025817D01*
X0459281Y0025759D01*
X0459300Y0025699D01*
X0459316Y0025639D01*
X0459328Y0025577D01*
X0459336Y0025516D01*
X0459340Y0025453D01*
X0459340Y0025391D01*
X0459336Y0025328D01*
X0459328Y0025267D01*
X0459316Y0025205D01*
X0459300Y0025145D01*
X0459281Y0025085D01*
X0459257Y0025027D01*
X0459231Y0024971D01*
X0459200Y0024917D01*
X0459166Y0024864D01*
X0459129Y0024814D01*
X0459089Y0024766D01*
X0459046Y0024721D01*
X0459000Y0024678D01*
X0458952Y0024639D01*
X0458901Y0024603D01*
X0458848Y0024570D01*
X0458793Y0024540D01*
X0458736Y0024514D01*
X0458678Y0024492D01*
X0458618Y0024474D01*
X0458558Y0024459D01*
X0458496Y0024448D01*
X0458434Y0024441D01*
X0458372Y0024438D01*
X0458309Y0024439D01*
X0458247Y0024444D01*
X0458185Y0024453D01*
X0458124Y0024466D01*
X0458064Y0024482D01*
X0458005Y0024503D01*
X0457947Y0024527D01*
X0457891Y0024555D01*
X0457837Y0024586D01*
X0457785Y0024620D01*
X0457736Y0024658D01*
X0457688Y0024699D01*
X0457644Y0024743D01*
X0457602Y0024789D01*
X0457564Y0024839D01*
X0457528Y0024890D01*
X0457496Y0024944D01*
X0457468Y0024999D01*
X0457442Y0025056D01*
X0457421Y0025115D01*
X0457404Y0025175D01*
X0457390Y0025236D01*
X0457380Y0025297D01*
X0457374Y0025360D01*
X0457372Y0025422D01*
X0563277Y0040580D02*
X0563279Y0040738D01*
X0563285Y0040896D01*
X0563295Y0041054D01*
X0563309Y0041212D01*
X0563327Y0041369D01*
X0563348Y0041526D01*
X0563374Y0041682D01*
X0563404Y0041838D01*
X0563437Y0041993D01*
X0563475Y0042146D01*
X0563516Y0042299D01*
X0563561Y0042451D01*
X0563610Y0042602D01*
X0563663Y0042751D01*
X0563719Y0042899D01*
X0563779Y0043045D01*
X0563843Y0043190D01*
X0563911Y0043333D01*
X0563982Y0043475D01*
X0564056Y0043615D01*
X0564134Y0043752D01*
X0564216Y0043888D01*
X0564300Y0044022D01*
X0564389Y0044153D01*
X0564480Y0044282D01*
X0564575Y0044409D01*
X0564672Y0044534D01*
X0564773Y0044656D01*
X0564877Y0044775D01*
X0564984Y0044892D01*
X0565094Y0045006D01*
X0565207Y0045117D01*
X0565322Y0045226D01*
X0565440Y0045331D01*
X0565561Y0045433D01*
X0565684Y0045533D01*
X0565810Y0045629D01*
X0565938Y0045722D01*
X0566068Y0045812D01*
X0566201Y0045898D01*
X0566336Y0045982D01*
X0566472Y0046061D01*
X0566611Y0046138D01*
X0566752Y0046210D01*
X0566894Y0046280D01*
X0567038Y0046345D01*
X0567184Y0046407D01*
X0567331Y0046465D01*
X0567480Y0046520D01*
X0567630Y0046571D01*
X0567781Y0046618D01*
X0567933Y0046661D01*
X0568086Y0046700D01*
X0568241Y0046736D01*
X0568396Y0046767D01*
X0568552Y0046795D01*
X0568708Y0046819D01*
X0568865Y0046839D01*
X0569023Y0046855D01*
X0569180Y0046867D01*
X0569339Y0046875D01*
X0569497Y0046879D01*
X0569655Y0046879D01*
X0569813Y0046875D01*
X0569972Y0046867D01*
X0570129Y0046855D01*
X0570287Y0046839D01*
X0570444Y0046819D01*
X0570600Y0046795D01*
X0570756Y0046767D01*
X0570911Y0046736D01*
X0571066Y0046700D01*
X0571219Y0046661D01*
X0571371Y0046618D01*
X0571522Y0046571D01*
X0571672Y0046520D01*
X0571821Y0046465D01*
X0571968Y0046407D01*
X0572114Y0046345D01*
X0572258Y0046280D01*
X0572400Y0046210D01*
X0572541Y0046138D01*
X0572680Y0046061D01*
X0572816Y0045982D01*
X0572951Y0045898D01*
X0573084Y0045812D01*
X0573214Y0045722D01*
X0573342Y0045629D01*
X0573468Y0045533D01*
X0573591Y0045433D01*
X0573712Y0045331D01*
X0573830Y0045226D01*
X0573945Y0045117D01*
X0574058Y0045006D01*
X0574168Y0044892D01*
X0574275Y0044775D01*
X0574379Y0044656D01*
X0574480Y0044534D01*
X0574577Y0044409D01*
X0574672Y0044282D01*
X0574763Y0044153D01*
X0574852Y0044022D01*
X0574936Y0043888D01*
X0575018Y0043752D01*
X0575096Y0043615D01*
X0575170Y0043475D01*
X0575241Y0043333D01*
X0575309Y0043190D01*
X0575373Y0043045D01*
X0575433Y0042899D01*
X0575489Y0042751D01*
X0575542Y0042602D01*
X0575591Y0042451D01*
X0575636Y0042299D01*
X0575677Y0042146D01*
X0575715Y0041993D01*
X0575748Y0041838D01*
X0575778Y0041682D01*
X0575804Y0041526D01*
X0575825Y0041369D01*
X0575843Y0041212D01*
X0575857Y0041054D01*
X0575867Y0040896D01*
X0575873Y0040738D01*
X0575875Y0040580D01*
X0575873Y0040422D01*
X0575867Y0040264D01*
X0575857Y0040106D01*
X0575843Y0039948D01*
X0575825Y0039791D01*
X0575804Y0039634D01*
X0575778Y0039478D01*
X0575748Y0039322D01*
X0575715Y0039167D01*
X0575677Y0039014D01*
X0575636Y0038861D01*
X0575591Y0038709D01*
X0575542Y0038558D01*
X0575489Y0038409D01*
X0575433Y0038261D01*
X0575373Y0038115D01*
X0575309Y0037970D01*
X0575241Y0037827D01*
X0575170Y0037685D01*
X0575096Y0037545D01*
X0575018Y0037408D01*
X0574936Y0037272D01*
X0574852Y0037138D01*
X0574763Y0037007D01*
X0574672Y0036878D01*
X0574577Y0036751D01*
X0574480Y0036626D01*
X0574379Y0036504D01*
X0574275Y0036385D01*
X0574168Y0036268D01*
X0574058Y0036154D01*
X0573945Y0036043D01*
X0573830Y0035934D01*
X0573712Y0035829D01*
X0573591Y0035727D01*
X0573468Y0035627D01*
X0573342Y0035531D01*
X0573214Y0035438D01*
X0573084Y0035348D01*
X0572951Y0035262D01*
X0572816Y0035178D01*
X0572680Y0035099D01*
X0572541Y0035022D01*
X0572400Y0034950D01*
X0572258Y0034880D01*
X0572114Y0034815D01*
X0571968Y0034753D01*
X0571821Y0034695D01*
X0571672Y0034640D01*
X0571522Y0034589D01*
X0571371Y0034542D01*
X0571219Y0034499D01*
X0571066Y0034460D01*
X0570911Y0034424D01*
X0570756Y0034393D01*
X0570600Y0034365D01*
X0570444Y0034341D01*
X0570287Y0034321D01*
X0570129Y0034305D01*
X0569972Y0034293D01*
X0569813Y0034285D01*
X0569655Y0034281D01*
X0569497Y0034281D01*
X0569339Y0034285D01*
X0569180Y0034293D01*
X0569023Y0034305D01*
X0568865Y0034321D01*
X0568708Y0034341D01*
X0568552Y0034365D01*
X0568396Y0034393D01*
X0568241Y0034424D01*
X0568086Y0034460D01*
X0567933Y0034499D01*
X0567781Y0034542D01*
X0567630Y0034589D01*
X0567480Y0034640D01*
X0567331Y0034695D01*
X0567184Y0034753D01*
X0567038Y0034815D01*
X0566894Y0034880D01*
X0566752Y0034950D01*
X0566611Y0035022D01*
X0566472Y0035099D01*
X0566336Y0035178D01*
X0566201Y0035262D01*
X0566068Y0035348D01*
X0565938Y0035438D01*
X0565810Y0035531D01*
X0565684Y0035627D01*
X0565561Y0035727D01*
X0565440Y0035829D01*
X0565322Y0035934D01*
X0565207Y0036043D01*
X0565094Y0036154D01*
X0564984Y0036268D01*
X0564877Y0036385D01*
X0564773Y0036504D01*
X0564672Y0036626D01*
X0564575Y0036751D01*
X0564480Y0036878D01*
X0564389Y0037007D01*
X0564300Y0037138D01*
X0564216Y0037272D01*
X0564134Y0037408D01*
X0564056Y0037545D01*
X0563982Y0037685D01*
X0563911Y0037827D01*
X0563843Y0037970D01*
X0563779Y0038115D01*
X0563719Y0038261D01*
X0563663Y0038409D01*
X0563610Y0038558D01*
X0563561Y0038709D01*
X0563516Y0038861D01*
X0563475Y0039014D01*
X0563437Y0039167D01*
X0563404Y0039322D01*
X0563374Y0039478D01*
X0563348Y0039634D01*
X0563327Y0039791D01*
X0563309Y0039948D01*
X0563295Y0040106D01*
X0563285Y0040264D01*
X0563279Y0040422D01*
X0563277Y0040580D01*
X0565245Y0008690D02*
X0565247Y0008821D01*
X0565253Y0008953D01*
X0565263Y0009084D01*
X0565277Y0009215D01*
X0565295Y0009345D01*
X0565317Y0009474D01*
X0565342Y0009603D01*
X0565372Y0009731D01*
X0565406Y0009858D01*
X0565443Y0009985D01*
X0565484Y0010109D01*
X0565529Y0010233D01*
X0565578Y0010355D01*
X0565630Y0010476D01*
X0565686Y0010594D01*
X0565746Y0010712D01*
X0565809Y0010827D01*
X0565876Y0010940D01*
X0565946Y0011052D01*
X0566019Y0011161D01*
X0566095Y0011267D01*
X0566175Y0011372D01*
X0566258Y0011474D01*
X0566344Y0011573D01*
X0566433Y0011670D01*
X0566525Y0011764D01*
X0566620Y0011855D01*
X0566717Y0011944D01*
X0566817Y0012029D01*
X0566920Y0012111D01*
X0567025Y0012190D01*
X0567132Y0012266D01*
X0567242Y0012338D01*
X0567354Y0012407D01*
X0567468Y0012473D01*
X0567583Y0012535D01*
X0567701Y0012594D01*
X0567820Y0012649D01*
X0567941Y0012701D01*
X0568064Y0012748D01*
X0568188Y0012792D01*
X0568313Y0012833D01*
X0568439Y0012869D01*
X0568567Y0012902D01*
X0568695Y0012930D01*
X0568824Y0012955D01*
X0568954Y0012976D01*
X0569084Y0012993D01*
X0569215Y0013006D01*
X0569346Y0013015D01*
X0569477Y0013020D01*
X0569609Y0013021D01*
X0569740Y0013018D01*
X0569872Y0013011D01*
X0570003Y0013000D01*
X0570133Y0012985D01*
X0570263Y0012966D01*
X0570393Y0012943D01*
X0570521Y0012917D01*
X0570649Y0012886D01*
X0570776Y0012851D01*
X0570902Y0012813D01*
X0571026Y0012771D01*
X0571150Y0012725D01*
X0571271Y0012675D01*
X0571391Y0012622D01*
X0571510Y0012565D01*
X0571627Y0012505D01*
X0571741Y0012441D01*
X0571854Y0012373D01*
X0571965Y0012302D01*
X0572074Y0012228D01*
X0572180Y0012151D01*
X0572284Y0012070D01*
X0572385Y0011987D01*
X0572484Y0011900D01*
X0572580Y0011810D01*
X0572673Y0011717D01*
X0572764Y0011622D01*
X0572851Y0011524D01*
X0572936Y0011423D01*
X0573017Y0011320D01*
X0573095Y0011214D01*
X0573170Y0011106D01*
X0573242Y0010996D01*
X0573310Y0010884D01*
X0573375Y0010770D01*
X0573436Y0010653D01*
X0573494Y0010535D01*
X0573548Y0010415D01*
X0573599Y0010294D01*
X0573646Y0010171D01*
X0573689Y0010047D01*
X0573728Y0009922D01*
X0573764Y0009795D01*
X0573795Y0009667D01*
X0573823Y0009539D01*
X0573847Y0009410D01*
X0573867Y0009280D01*
X0573883Y0009149D01*
X0573895Y0009018D01*
X0573903Y0008887D01*
X0573907Y0008756D01*
X0573907Y0008624D01*
X0573903Y0008493D01*
X0573895Y0008362D01*
X0573883Y0008231D01*
X0573867Y0008100D01*
X0573847Y0007970D01*
X0573823Y0007841D01*
X0573795Y0007713D01*
X0573764Y0007585D01*
X0573728Y0007458D01*
X0573689Y0007333D01*
X0573646Y0007209D01*
X0573599Y0007086D01*
X0573548Y0006965D01*
X0573494Y0006845D01*
X0573436Y0006727D01*
X0573375Y0006610D01*
X0573310Y0006496D01*
X0573242Y0006384D01*
X0573170Y0006274D01*
X0573095Y0006166D01*
X0573017Y0006060D01*
X0572936Y0005957D01*
X0572851Y0005856D01*
X0572764Y0005758D01*
X0572673Y0005663D01*
X0572580Y0005570D01*
X0572484Y0005480D01*
X0572385Y0005393D01*
X0572284Y0005310D01*
X0572180Y0005229D01*
X0572074Y0005152D01*
X0571965Y0005078D01*
X0571854Y0005007D01*
X0571742Y0004939D01*
X0571627Y0004875D01*
X0571510Y0004815D01*
X0571391Y0004758D01*
X0571271Y0004705D01*
X0571150Y0004655D01*
X0571026Y0004609D01*
X0570902Y0004567D01*
X0570776Y0004529D01*
X0570649Y0004494D01*
X0570521Y0004463D01*
X0570393Y0004437D01*
X0570263Y0004414D01*
X0570133Y0004395D01*
X0570003Y0004380D01*
X0569872Y0004369D01*
X0569740Y0004362D01*
X0569609Y0004359D01*
X0569477Y0004360D01*
X0569346Y0004365D01*
X0569215Y0004374D01*
X0569084Y0004387D01*
X0568954Y0004404D01*
X0568824Y0004425D01*
X0568695Y0004450D01*
X0568567Y0004478D01*
X0568439Y0004511D01*
X0568313Y0004547D01*
X0568188Y0004588D01*
X0568064Y0004632D01*
X0567941Y0004679D01*
X0567820Y0004731D01*
X0567701Y0004786D01*
X0567583Y0004845D01*
X0567468Y0004907D01*
X0567354Y0004973D01*
X0567242Y0005042D01*
X0567132Y0005114D01*
X0567025Y0005190D01*
X0566920Y0005269D01*
X0566817Y0005351D01*
X0566717Y0005436D01*
X0566620Y0005525D01*
X0566525Y0005616D01*
X0566433Y0005710D01*
X0566344Y0005807D01*
X0566258Y0005906D01*
X0566175Y0006008D01*
X0566095Y0006113D01*
X0566019Y0006219D01*
X0565946Y0006328D01*
X0565876Y0006440D01*
X0565809Y0006553D01*
X0565746Y0006668D01*
X0565686Y0006786D01*
X0565630Y0006904D01*
X0565578Y0007025D01*
X0565529Y0007147D01*
X0565484Y0007271D01*
X0565443Y0007395D01*
X0565406Y0007522D01*
X0565372Y0007649D01*
X0565342Y0007777D01*
X0565317Y0007906D01*
X0565295Y0008035D01*
X0565277Y0008165D01*
X0565263Y0008296D01*
X0565253Y0008427D01*
X0565247Y0008559D01*
X0565245Y0008690D01*
X0563277Y0356721D02*
X0563279Y0356879D01*
X0563285Y0357037D01*
X0563295Y0357195D01*
X0563309Y0357353D01*
X0563327Y0357510D01*
X0563348Y0357667D01*
X0563374Y0357823D01*
X0563404Y0357979D01*
X0563437Y0358134D01*
X0563475Y0358287D01*
X0563516Y0358440D01*
X0563561Y0358592D01*
X0563610Y0358743D01*
X0563663Y0358892D01*
X0563719Y0359040D01*
X0563779Y0359186D01*
X0563843Y0359331D01*
X0563911Y0359474D01*
X0563982Y0359616D01*
X0564056Y0359756D01*
X0564134Y0359893D01*
X0564216Y0360029D01*
X0564300Y0360163D01*
X0564389Y0360294D01*
X0564480Y0360423D01*
X0564575Y0360550D01*
X0564672Y0360675D01*
X0564773Y0360797D01*
X0564877Y0360916D01*
X0564984Y0361033D01*
X0565094Y0361147D01*
X0565207Y0361258D01*
X0565322Y0361367D01*
X0565440Y0361472D01*
X0565561Y0361574D01*
X0565684Y0361674D01*
X0565810Y0361770D01*
X0565938Y0361863D01*
X0566068Y0361953D01*
X0566201Y0362039D01*
X0566336Y0362123D01*
X0566472Y0362202D01*
X0566611Y0362279D01*
X0566752Y0362351D01*
X0566894Y0362421D01*
X0567038Y0362486D01*
X0567184Y0362548D01*
X0567331Y0362606D01*
X0567480Y0362661D01*
X0567630Y0362712D01*
X0567781Y0362759D01*
X0567933Y0362802D01*
X0568086Y0362841D01*
X0568241Y0362877D01*
X0568396Y0362908D01*
X0568552Y0362936D01*
X0568708Y0362960D01*
X0568865Y0362980D01*
X0569023Y0362996D01*
X0569180Y0363008D01*
X0569339Y0363016D01*
X0569497Y0363020D01*
X0569655Y0363020D01*
X0569813Y0363016D01*
X0569972Y0363008D01*
X0570129Y0362996D01*
X0570287Y0362980D01*
X0570444Y0362960D01*
X0570600Y0362936D01*
X0570756Y0362908D01*
X0570911Y0362877D01*
X0571066Y0362841D01*
X0571219Y0362802D01*
X0571371Y0362759D01*
X0571522Y0362712D01*
X0571672Y0362661D01*
X0571821Y0362606D01*
X0571968Y0362548D01*
X0572114Y0362486D01*
X0572258Y0362421D01*
X0572400Y0362351D01*
X0572541Y0362279D01*
X0572680Y0362202D01*
X0572816Y0362123D01*
X0572951Y0362039D01*
X0573084Y0361953D01*
X0573214Y0361863D01*
X0573342Y0361770D01*
X0573468Y0361674D01*
X0573591Y0361574D01*
X0573712Y0361472D01*
X0573830Y0361367D01*
X0573945Y0361258D01*
X0574058Y0361147D01*
X0574168Y0361033D01*
X0574275Y0360916D01*
X0574379Y0360797D01*
X0574480Y0360675D01*
X0574577Y0360550D01*
X0574672Y0360423D01*
X0574763Y0360294D01*
X0574852Y0360163D01*
X0574936Y0360029D01*
X0575018Y0359893D01*
X0575096Y0359756D01*
X0575170Y0359616D01*
X0575241Y0359474D01*
X0575309Y0359331D01*
X0575373Y0359186D01*
X0575433Y0359040D01*
X0575489Y0358892D01*
X0575542Y0358743D01*
X0575591Y0358592D01*
X0575636Y0358440D01*
X0575677Y0358287D01*
X0575715Y0358134D01*
X0575748Y0357979D01*
X0575778Y0357823D01*
X0575804Y0357667D01*
X0575825Y0357510D01*
X0575843Y0357353D01*
X0575857Y0357195D01*
X0575867Y0357037D01*
X0575873Y0356879D01*
X0575875Y0356721D01*
X0575873Y0356563D01*
X0575867Y0356405D01*
X0575857Y0356247D01*
X0575843Y0356089D01*
X0575825Y0355932D01*
X0575804Y0355775D01*
X0575778Y0355619D01*
X0575748Y0355463D01*
X0575715Y0355308D01*
X0575677Y0355155D01*
X0575636Y0355002D01*
X0575591Y0354850D01*
X0575542Y0354699D01*
X0575489Y0354550D01*
X0575433Y0354402D01*
X0575373Y0354256D01*
X0575309Y0354111D01*
X0575241Y0353968D01*
X0575170Y0353826D01*
X0575096Y0353686D01*
X0575018Y0353549D01*
X0574936Y0353413D01*
X0574852Y0353279D01*
X0574763Y0353148D01*
X0574672Y0353019D01*
X0574577Y0352892D01*
X0574480Y0352767D01*
X0574379Y0352645D01*
X0574275Y0352526D01*
X0574168Y0352409D01*
X0574058Y0352295D01*
X0573945Y0352184D01*
X0573830Y0352075D01*
X0573712Y0351970D01*
X0573591Y0351868D01*
X0573468Y0351768D01*
X0573342Y0351672D01*
X0573214Y0351579D01*
X0573084Y0351489D01*
X0572951Y0351403D01*
X0572816Y0351319D01*
X0572680Y0351240D01*
X0572541Y0351163D01*
X0572400Y0351091D01*
X0572258Y0351021D01*
X0572114Y0350956D01*
X0571968Y0350894D01*
X0571821Y0350836D01*
X0571672Y0350781D01*
X0571522Y0350730D01*
X0571371Y0350683D01*
X0571219Y0350640D01*
X0571066Y0350601D01*
X0570911Y0350565D01*
X0570756Y0350534D01*
X0570600Y0350506D01*
X0570444Y0350482D01*
X0570287Y0350462D01*
X0570129Y0350446D01*
X0569972Y0350434D01*
X0569813Y0350426D01*
X0569655Y0350422D01*
X0569497Y0350422D01*
X0569339Y0350426D01*
X0569180Y0350434D01*
X0569023Y0350446D01*
X0568865Y0350462D01*
X0568708Y0350482D01*
X0568552Y0350506D01*
X0568396Y0350534D01*
X0568241Y0350565D01*
X0568086Y0350601D01*
X0567933Y0350640D01*
X0567781Y0350683D01*
X0567630Y0350730D01*
X0567480Y0350781D01*
X0567331Y0350836D01*
X0567184Y0350894D01*
X0567038Y0350956D01*
X0566894Y0351021D01*
X0566752Y0351091D01*
X0566611Y0351163D01*
X0566472Y0351240D01*
X0566336Y0351319D01*
X0566201Y0351403D01*
X0566068Y0351489D01*
X0565938Y0351579D01*
X0565810Y0351672D01*
X0565684Y0351768D01*
X0565561Y0351868D01*
X0565440Y0351970D01*
X0565322Y0352075D01*
X0565207Y0352184D01*
X0565094Y0352295D01*
X0564984Y0352409D01*
X0564877Y0352526D01*
X0564773Y0352645D01*
X0564672Y0352767D01*
X0564575Y0352892D01*
X0564480Y0353019D01*
X0564389Y0353148D01*
X0564300Y0353279D01*
X0564216Y0353413D01*
X0564134Y0353549D01*
X0564056Y0353686D01*
X0563982Y0353826D01*
X0563911Y0353968D01*
X0563843Y0354111D01*
X0563779Y0354256D01*
X0563719Y0354402D01*
X0563663Y0354550D01*
X0563610Y0354699D01*
X0563561Y0354850D01*
X0563516Y0355002D01*
X0563475Y0355155D01*
X0563437Y0355308D01*
X0563404Y0355463D01*
X0563374Y0355619D01*
X0563348Y0355775D01*
X0563327Y0355932D01*
X0563309Y0356089D01*
X0563295Y0356247D01*
X0563285Y0356405D01*
X0563279Y0356563D01*
X0563277Y0356721D01*
X0565245Y0388611D02*
X0565247Y0388742D01*
X0565253Y0388874D01*
X0565263Y0389005D01*
X0565277Y0389136D01*
X0565295Y0389266D01*
X0565317Y0389395D01*
X0565342Y0389524D01*
X0565372Y0389652D01*
X0565406Y0389779D01*
X0565443Y0389906D01*
X0565484Y0390030D01*
X0565529Y0390154D01*
X0565578Y0390276D01*
X0565630Y0390397D01*
X0565686Y0390515D01*
X0565746Y0390633D01*
X0565809Y0390748D01*
X0565876Y0390861D01*
X0565946Y0390973D01*
X0566019Y0391082D01*
X0566095Y0391188D01*
X0566175Y0391293D01*
X0566258Y0391395D01*
X0566344Y0391494D01*
X0566433Y0391591D01*
X0566525Y0391685D01*
X0566620Y0391776D01*
X0566717Y0391865D01*
X0566817Y0391950D01*
X0566920Y0392032D01*
X0567025Y0392111D01*
X0567132Y0392187D01*
X0567242Y0392259D01*
X0567354Y0392328D01*
X0567468Y0392394D01*
X0567583Y0392456D01*
X0567701Y0392515D01*
X0567820Y0392570D01*
X0567941Y0392622D01*
X0568064Y0392669D01*
X0568188Y0392713D01*
X0568313Y0392754D01*
X0568439Y0392790D01*
X0568567Y0392823D01*
X0568695Y0392851D01*
X0568824Y0392876D01*
X0568954Y0392897D01*
X0569084Y0392914D01*
X0569215Y0392927D01*
X0569346Y0392936D01*
X0569477Y0392941D01*
X0569609Y0392942D01*
X0569740Y0392939D01*
X0569872Y0392932D01*
X0570003Y0392921D01*
X0570133Y0392906D01*
X0570263Y0392887D01*
X0570393Y0392864D01*
X0570521Y0392838D01*
X0570649Y0392807D01*
X0570776Y0392772D01*
X0570902Y0392734D01*
X0571026Y0392692D01*
X0571150Y0392646D01*
X0571271Y0392596D01*
X0571391Y0392543D01*
X0571510Y0392486D01*
X0571627Y0392426D01*
X0571741Y0392362D01*
X0571854Y0392294D01*
X0571965Y0392223D01*
X0572074Y0392149D01*
X0572180Y0392072D01*
X0572284Y0391991D01*
X0572385Y0391908D01*
X0572484Y0391821D01*
X0572580Y0391731D01*
X0572673Y0391638D01*
X0572764Y0391543D01*
X0572851Y0391445D01*
X0572936Y0391344D01*
X0573017Y0391241D01*
X0573095Y0391135D01*
X0573170Y0391027D01*
X0573242Y0390917D01*
X0573310Y0390805D01*
X0573375Y0390691D01*
X0573436Y0390574D01*
X0573494Y0390456D01*
X0573548Y0390336D01*
X0573599Y0390215D01*
X0573646Y0390092D01*
X0573689Y0389968D01*
X0573728Y0389843D01*
X0573764Y0389716D01*
X0573795Y0389588D01*
X0573823Y0389460D01*
X0573847Y0389331D01*
X0573867Y0389201D01*
X0573883Y0389070D01*
X0573895Y0388939D01*
X0573903Y0388808D01*
X0573907Y0388677D01*
X0573907Y0388545D01*
X0573903Y0388414D01*
X0573895Y0388283D01*
X0573883Y0388152D01*
X0573867Y0388021D01*
X0573847Y0387891D01*
X0573823Y0387762D01*
X0573795Y0387634D01*
X0573764Y0387506D01*
X0573728Y0387379D01*
X0573689Y0387254D01*
X0573646Y0387130D01*
X0573599Y0387007D01*
X0573548Y0386886D01*
X0573494Y0386766D01*
X0573436Y0386648D01*
X0573375Y0386531D01*
X0573310Y0386417D01*
X0573242Y0386305D01*
X0573170Y0386195D01*
X0573095Y0386087D01*
X0573017Y0385981D01*
X0572936Y0385878D01*
X0572851Y0385777D01*
X0572764Y0385679D01*
X0572673Y0385584D01*
X0572580Y0385491D01*
X0572484Y0385401D01*
X0572385Y0385314D01*
X0572284Y0385231D01*
X0572180Y0385150D01*
X0572074Y0385073D01*
X0571965Y0384999D01*
X0571854Y0384928D01*
X0571742Y0384860D01*
X0571627Y0384796D01*
X0571510Y0384736D01*
X0571391Y0384679D01*
X0571271Y0384626D01*
X0571150Y0384576D01*
X0571026Y0384530D01*
X0570902Y0384488D01*
X0570776Y0384450D01*
X0570649Y0384415D01*
X0570521Y0384384D01*
X0570393Y0384358D01*
X0570263Y0384335D01*
X0570133Y0384316D01*
X0570003Y0384301D01*
X0569872Y0384290D01*
X0569740Y0384283D01*
X0569609Y0384280D01*
X0569477Y0384281D01*
X0569346Y0384286D01*
X0569215Y0384295D01*
X0569084Y0384308D01*
X0568954Y0384325D01*
X0568824Y0384346D01*
X0568695Y0384371D01*
X0568567Y0384399D01*
X0568439Y0384432D01*
X0568313Y0384468D01*
X0568188Y0384509D01*
X0568064Y0384553D01*
X0567941Y0384600D01*
X0567820Y0384652D01*
X0567701Y0384707D01*
X0567583Y0384766D01*
X0567468Y0384828D01*
X0567354Y0384894D01*
X0567242Y0384963D01*
X0567132Y0385035D01*
X0567025Y0385111D01*
X0566920Y0385190D01*
X0566817Y0385272D01*
X0566717Y0385357D01*
X0566620Y0385446D01*
X0566525Y0385537D01*
X0566433Y0385631D01*
X0566344Y0385728D01*
X0566258Y0385827D01*
X0566175Y0385929D01*
X0566095Y0386034D01*
X0566019Y0386140D01*
X0565946Y0386249D01*
X0565876Y0386361D01*
X0565809Y0386474D01*
X0565746Y0386589D01*
X0565686Y0386707D01*
X0565630Y0386825D01*
X0565578Y0386946D01*
X0565529Y0387068D01*
X0565484Y0387192D01*
X0565443Y0387316D01*
X0565406Y0387443D01*
X0565372Y0387570D01*
X0565342Y0387698D01*
X0565317Y0387827D01*
X0565295Y0387956D01*
X0565277Y0388086D01*
X0565263Y0388217D01*
X0565253Y0388348D01*
X0565247Y0388480D01*
X0565245Y0388611D01*
X0457372Y0379753D02*
X0457374Y0379815D01*
X0457380Y0379878D01*
X0457390Y0379939D01*
X0457404Y0380000D01*
X0457421Y0380060D01*
X0457442Y0380119D01*
X0457468Y0380176D01*
X0457496Y0380231D01*
X0457528Y0380285D01*
X0457564Y0380336D01*
X0457602Y0380386D01*
X0457644Y0380432D01*
X0457688Y0380476D01*
X0457736Y0380517D01*
X0457785Y0380555D01*
X0457837Y0380589D01*
X0457891Y0380620D01*
X0457947Y0380648D01*
X0458005Y0380672D01*
X0458064Y0380693D01*
X0458124Y0380709D01*
X0458185Y0380722D01*
X0458247Y0380731D01*
X0458309Y0380736D01*
X0458372Y0380737D01*
X0458434Y0380734D01*
X0458496Y0380727D01*
X0458558Y0380716D01*
X0458618Y0380701D01*
X0458678Y0380683D01*
X0458736Y0380661D01*
X0458793Y0380635D01*
X0458848Y0380605D01*
X0458901Y0380572D01*
X0458952Y0380536D01*
X0459000Y0380497D01*
X0459046Y0380454D01*
X0459089Y0380409D01*
X0459129Y0380361D01*
X0459166Y0380311D01*
X0459200Y0380258D01*
X0459231Y0380204D01*
X0459257Y0380148D01*
X0459281Y0380090D01*
X0459300Y0380030D01*
X0459316Y0379970D01*
X0459328Y0379908D01*
X0459336Y0379847D01*
X0459340Y0379784D01*
X0459340Y0379722D01*
X0459336Y0379659D01*
X0459328Y0379598D01*
X0459316Y0379536D01*
X0459300Y0379476D01*
X0459281Y0379416D01*
X0459257Y0379358D01*
X0459231Y0379302D01*
X0459200Y0379248D01*
X0459166Y0379195D01*
X0459129Y0379145D01*
X0459089Y0379097D01*
X0459046Y0379052D01*
X0459000Y0379009D01*
X0458952Y0378970D01*
X0458901Y0378934D01*
X0458848Y0378901D01*
X0458793Y0378871D01*
X0458736Y0378845D01*
X0458678Y0378823D01*
X0458618Y0378805D01*
X0458558Y0378790D01*
X0458496Y0378779D01*
X0458434Y0378772D01*
X0458372Y0378769D01*
X0458309Y0378770D01*
X0458247Y0378775D01*
X0458185Y0378784D01*
X0458124Y0378797D01*
X0458064Y0378813D01*
X0458005Y0378834D01*
X0457947Y0378858D01*
X0457891Y0378886D01*
X0457837Y0378917D01*
X0457785Y0378951D01*
X0457736Y0378989D01*
X0457688Y0379030D01*
X0457644Y0379074D01*
X0457602Y0379120D01*
X0457564Y0379170D01*
X0457528Y0379221D01*
X0457496Y0379275D01*
X0457468Y0379330D01*
X0457442Y0379387D01*
X0457421Y0379446D01*
X0457404Y0379506D01*
X0457390Y0379567D01*
X0457380Y0379628D01*
X0457374Y0379691D01*
X0457372Y0379753D01*
X0453435Y0379753D02*
X0453437Y0379815D01*
X0453443Y0379878D01*
X0453453Y0379939D01*
X0453467Y0380000D01*
X0453484Y0380060D01*
X0453505Y0380119D01*
X0453531Y0380176D01*
X0453559Y0380231D01*
X0453591Y0380285D01*
X0453627Y0380336D01*
X0453665Y0380386D01*
X0453707Y0380432D01*
X0453751Y0380476D01*
X0453799Y0380517D01*
X0453848Y0380555D01*
X0453900Y0380589D01*
X0453954Y0380620D01*
X0454010Y0380648D01*
X0454068Y0380672D01*
X0454127Y0380693D01*
X0454187Y0380709D01*
X0454248Y0380722D01*
X0454310Y0380731D01*
X0454372Y0380736D01*
X0454435Y0380737D01*
X0454497Y0380734D01*
X0454559Y0380727D01*
X0454621Y0380716D01*
X0454681Y0380701D01*
X0454741Y0380683D01*
X0454799Y0380661D01*
X0454856Y0380635D01*
X0454911Y0380605D01*
X0454964Y0380572D01*
X0455015Y0380536D01*
X0455063Y0380497D01*
X0455109Y0380454D01*
X0455152Y0380409D01*
X0455192Y0380361D01*
X0455229Y0380311D01*
X0455263Y0380258D01*
X0455294Y0380204D01*
X0455320Y0380148D01*
X0455344Y0380090D01*
X0455363Y0380030D01*
X0455379Y0379970D01*
X0455391Y0379908D01*
X0455399Y0379847D01*
X0455403Y0379784D01*
X0455403Y0379722D01*
X0455399Y0379659D01*
X0455391Y0379598D01*
X0455379Y0379536D01*
X0455363Y0379476D01*
X0455344Y0379416D01*
X0455320Y0379358D01*
X0455294Y0379302D01*
X0455263Y0379248D01*
X0455229Y0379195D01*
X0455192Y0379145D01*
X0455152Y0379097D01*
X0455109Y0379052D01*
X0455063Y0379009D01*
X0455015Y0378970D01*
X0454964Y0378934D01*
X0454911Y0378901D01*
X0454856Y0378871D01*
X0454799Y0378845D01*
X0454741Y0378823D01*
X0454681Y0378805D01*
X0454621Y0378790D01*
X0454559Y0378779D01*
X0454497Y0378772D01*
X0454435Y0378769D01*
X0454372Y0378770D01*
X0454310Y0378775D01*
X0454248Y0378784D01*
X0454187Y0378797D01*
X0454127Y0378813D01*
X0454068Y0378834D01*
X0454010Y0378858D01*
X0453954Y0378886D01*
X0453900Y0378917D01*
X0453848Y0378951D01*
X0453799Y0378989D01*
X0453751Y0379030D01*
X0453707Y0379074D01*
X0453665Y0379120D01*
X0453627Y0379170D01*
X0453591Y0379221D01*
X0453559Y0379275D01*
X0453531Y0379330D01*
X0453505Y0379387D01*
X0453484Y0379446D01*
X0453467Y0379506D01*
X0453453Y0379567D01*
X0453443Y0379628D01*
X0453437Y0379691D01*
X0453435Y0379753D01*
X0449498Y0379753D02*
X0449500Y0379815D01*
X0449506Y0379878D01*
X0449516Y0379939D01*
X0449530Y0380000D01*
X0449547Y0380060D01*
X0449568Y0380119D01*
X0449594Y0380176D01*
X0449622Y0380231D01*
X0449654Y0380285D01*
X0449690Y0380336D01*
X0449728Y0380386D01*
X0449770Y0380432D01*
X0449814Y0380476D01*
X0449862Y0380517D01*
X0449911Y0380555D01*
X0449963Y0380589D01*
X0450017Y0380620D01*
X0450073Y0380648D01*
X0450131Y0380672D01*
X0450190Y0380693D01*
X0450250Y0380709D01*
X0450311Y0380722D01*
X0450373Y0380731D01*
X0450435Y0380736D01*
X0450498Y0380737D01*
X0450560Y0380734D01*
X0450622Y0380727D01*
X0450684Y0380716D01*
X0450744Y0380701D01*
X0450804Y0380683D01*
X0450862Y0380661D01*
X0450919Y0380635D01*
X0450974Y0380605D01*
X0451027Y0380572D01*
X0451078Y0380536D01*
X0451126Y0380497D01*
X0451172Y0380454D01*
X0451215Y0380409D01*
X0451255Y0380361D01*
X0451292Y0380311D01*
X0451326Y0380258D01*
X0451357Y0380204D01*
X0451383Y0380148D01*
X0451407Y0380090D01*
X0451426Y0380030D01*
X0451442Y0379970D01*
X0451454Y0379908D01*
X0451462Y0379847D01*
X0451466Y0379784D01*
X0451466Y0379722D01*
X0451462Y0379659D01*
X0451454Y0379598D01*
X0451442Y0379536D01*
X0451426Y0379476D01*
X0451407Y0379416D01*
X0451383Y0379358D01*
X0451357Y0379302D01*
X0451326Y0379248D01*
X0451292Y0379195D01*
X0451255Y0379145D01*
X0451215Y0379097D01*
X0451172Y0379052D01*
X0451126Y0379009D01*
X0451078Y0378970D01*
X0451027Y0378934D01*
X0450974Y0378901D01*
X0450919Y0378871D01*
X0450862Y0378845D01*
X0450804Y0378823D01*
X0450744Y0378805D01*
X0450684Y0378790D01*
X0450622Y0378779D01*
X0450560Y0378772D01*
X0450498Y0378769D01*
X0450435Y0378770D01*
X0450373Y0378775D01*
X0450311Y0378784D01*
X0450250Y0378797D01*
X0450190Y0378813D01*
X0450131Y0378834D01*
X0450073Y0378858D01*
X0450017Y0378886D01*
X0449963Y0378917D01*
X0449911Y0378951D01*
X0449862Y0378989D01*
X0449814Y0379030D01*
X0449770Y0379074D01*
X0449728Y0379120D01*
X0449690Y0379170D01*
X0449654Y0379221D01*
X0449622Y0379275D01*
X0449594Y0379330D01*
X0449568Y0379387D01*
X0449547Y0379446D01*
X0449530Y0379506D01*
X0449516Y0379567D01*
X0449506Y0379628D01*
X0449500Y0379691D01*
X0449498Y0379753D01*
X0449498Y0375816D02*
X0449500Y0375878D01*
X0449506Y0375941D01*
X0449516Y0376002D01*
X0449530Y0376063D01*
X0449547Y0376123D01*
X0449568Y0376182D01*
X0449594Y0376239D01*
X0449622Y0376294D01*
X0449654Y0376348D01*
X0449690Y0376399D01*
X0449728Y0376449D01*
X0449770Y0376495D01*
X0449814Y0376539D01*
X0449862Y0376580D01*
X0449911Y0376618D01*
X0449963Y0376652D01*
X0450017Y0376683D01*
X0450073Y0376711D01*
X0450131Y0376735D01*
X0450190Y0376756D01*
X0450250Y0376772D01*
X0450311Y0376785D01*
X0450373Y0376794D01*
X0450435Y0376799D01*
X0450498Y0376800D01*
X0450560Y0376797D01*
X0450622Y0376790D01*
X0450684Y0376779D01*
X0450744Y0376764D01*
X0450804Y0376746D01*
X0450862Y0376724D01*
X0450919Y0376698D01*
X0450974Y0376668D01*
X0451027Y0376635D01*
X0451078Y0376599D01*
X0451126Y0376560D01*
X0451172Y0376517D01*
X0451215Y0376472D01*
X0451255Y0376424D01*
X0451292Y0376374D01*
X0451326Y0376321D01*
X0451357Y0376267D01*
X0451383Y0376211D01*
X0451407Y0376153D01*
X0451426Y0376093D01*
X0451442Y0376033D01*
X0451454Y0375971D01*
X0451462Y0375910D01*
X0451466Y0375847D01*
X0451466Y0375785D01*
X0451462Y0375722D01*
X0451454Y0375661D01*
X0451442Y0375599D01*
X0451426Y0375539D01*
X0451407Y0375479D01*
X0451383Y0375421D01*
X0451357Y0375365D01*
X0451326Y0375311D01*
X0451292Y0375258D01*
X0451255Y0375208D01*
X0451215Y0375160D01*
X0451172Y0375115D01*
X0451126Y0375072D01*
X0451078Y0375033D01*
X0451027Y0374997D01*
X0450974Y0374964D01*
X0450919Y0374934D01*
X0450862Y0374908D01*
X0450804Y0374886D01*
X0450744Y0374868D01*
X0450684Y0374853D01*
X0450622Y0374842D01*
X0450560Y0374835D01*
X0450498Y0374832D01*
X0450435Y0374833D01*
X0450373Y0374838D01*
X0450311Y0374847D01*
X0450250Y0374860D01*
X0450190Y0374876D01*
X0450131Y0374897D01*
X0450073Y0374921D01*
X0450017Y0374949D01*
X0449963Y0374980D01*
X0449911Y0375014D01*
X0449862Y0375052D01*
X0449814Y0375093D01*
X0449770Y0375137D01*
X0449728Y0375183D01*
X0449690Y0375233D01*
X0449654Y0375284D01*
X0449622Y0375338D01*
X0449594Y0375393D01*
X0449568Y0375450D01*
X0449547Y0375509D01*
X0449530Y0375569D01*
X0449516Y0375630D01*
X0449506Y0375691D01*
X0449500Y0375754D01*
X0449498Y0375816D01*
X0449498Y0371879D02*
X0449500Y0371941D01*
X0449506Y0372004D01*
X0449516Y0372065D01*
X0449530Y0372126D01*
X0449547Y0372186D01*
X0449568Y0372245D01*
X0449594Y0372302D01*
X0449622Y0372357D01*
X0449654Y0372411D01*
X0449690Y0372462D01*
X0449728Y0372512D01*
X0449770Y0372558D01*
X0449814Y0372602D01*
X0449862Y0372643D01*
X0449911Y0372681D01*
X0449963Y0372715D01*
X0450017Y0372746D01*
X0450073Y0372774D01*
X0450131Y0372798D01*
X0450190Y0372819D01*
X0450250Y0372835D01*
X0450311Y0372848D01*
X0450373Y0372857D01*
X0450435Y0372862D01*
X0450498Y0372863D01*
X0450560Y0372860D01*
X0450622Y0372853D01*
X0450684Y0372842D01*
X0450744Y0372827D01*
X0450804Y0372809D01*
X0450862Y0372787D01*
X0450919Y0372761D01*
X0450974Y0372731D01*
X0451027Y0372698D01*
X0451078Y0372662D01*
X0451126Y0372623D01*
X0451172Y0372580D01*
X0451215Y0372535D01*
X0451255Y0372487D01*
X0451292Y0372437D01*
X0451326Y0372384D01*
X0451357Y0372330D01*
X0451383Y0372274D01*
X0451407Y0372216D01*
X0451426Y0372156D01*
X0451442Y0372096D01*
X0451454Y0372034D01*
X0451462Y0371973D01*
X0451466Y0371910D01*
X0451466Y0371848D01*
X0451462Y0371785D01*
X0451454Y0371724D01*
X0451442Y0371662D01*
X0451426Y0371602D01*
X0451407Y0371542D01*
X0451383Y0371484D01*
X0451357Y0371428D01*
X0451326Y0371374D01*
X0451292Y0371321D01*
X0451255Y0371271D01*
X0451215Y0371223D01*
X0451172Y0371178D01*
X0451126Y0371135D01*
X0451078Y0371096D01*
X0451027Y0371060D01*
X0450974Y0371027D01*
X0450919Y0370997D01*
X0450862Y0370971D01*
X0450804Y0370949D01*
X0450744Y0370931D01*
X0450684Y0370916D01*
X0450622Y0370905D01*
X0450560Y0370898D01*
X0450498Y0370895D01*
X0450435Y0370896D01*
X0450373Y0370901D01*
X0450311Y0370910D01*
X0450250Y0370923D01*
X0450190Y0370939D01*
X0450131Y0370960D01*
X0450073Y0370984D01*
X0450017Y0371012D01*
X0449963Y0371043D01*
X0449911Y0371077D01*
X0449862Y0371115D01*
X0449814Y0371156D01*
X0449770Y0371200D01*
X0449728Y0371246D01*
X0449690Y0371296D01*
X0449654Y0371347D01*
X0449622Y0371401D01*
X0449594Y0371456D01*
X0449568Y0371513D01*
X0449547Y0371572D01*
X0449530Y0371632D01*
X0449516Y0371693D01*
X0449506Y0371754D01*
X0449500Y0371817D01*
X0449498Y0371879D01*
X0453435Y0371879D02*
X0453437Y0371941D01*
X0453443Y0372004D01*
X0453453Y0372065D01*
X0453467Y0372126D01*
X0453484Y0372186D01*
X0453505Y0372245D01*
X0453531Y0372302D01*
X0453559Y0372357D01*
X0453591Y0372411D01*
X0453627Y0372462D01*
X0453665Y0372512D01*
X0453707Y0372558D01*
X0453751Y0372602D01*
X0453799Y0372643D01*
X0453848Y0372681D01*
X0453900Y0372715D01*
X0453954Y0372746D01*
X0454010Y0372774D01*
X0454068Y0372798D01*
X0454127Y0372819D01*
X0454187Y0372835D01*
X0454248Y0372848D01*
X0454310Y0372857D01*
X0454372Y0372862D01*
X0454435Y0372863D01*
X0454497Y0372860D01*
X0454559Y0372853D01*
X0454621Y0372842D01*
X0454681Y0372827D01*
X0454741Y0372809D01*
X0454799Y0372787D01*
X0454856Y0372761D01*
X0454911Y0372731D01*
X0454964Y0372698D01*
X0455015Y0372662D01*
X0455063Y0372623D01*
X0455109Y0372580D01*
X0455152Y0372535D01*
X0455192Y0372487D01*
X0455229Y0372437D01*
X0455263Y0372384D01*
X0455294Y0372330D01*
X0455320Y0372274D01*
X0455344Y0372216D01*
X0455363Y0372156D01*
X0455379Y0372096D01*
X0455391Y0372034D01*
X0455399Y0371973D01*
X0455403Y0371910D01*
X0455403Y0371848D01*
X0455399Y0371785D01*
X0455391Y0371724D01*
X0455379Y0371662D01*
X0455363Y0371602D01*
X0455344Y0371542D01*
X0455320Y0371484D01*
X0455294Y0371428D01*
X0455263Y0371374D01*
X0455229Y0371321D01*
X0455192Y0371271D01*
X0455152Y0371223D01*
X0455109Y0371178D01*
X0455063Y0371135D01*
X0455015Y0371096D01*
X0454964Y0371060D01*
X0454911Y0371027D01*
X0454856Y0370997D01*
X0454799Y0370971D01*
X0454741Y0370949D01*
X0454681Y0370931D01*
X0454621Y0370916D01*
X0454559Y0370905D01*
X0454497Y0370898D01*
X0454435Y0370895D01*
X0454372Y0370896D01*
X0454310Y0370901D01*
X0454248Y0370910D01*
X0454187Y0370923D01*
X0454127Y0370939D01*
X0454068Y0370960D01*
X0454010Y0370984D01*
X0453954Y0371012D01*
X0453900Y0371043D01*
X0453848Y0371077D01*
X0453799Y0371115D01*
X0453751Y0371156D01*
X0453707Y0371200D01*
X0453665Y0371246D01*
X0453627Y0371296D01*
X0453591Y0371347D01*
X0453559Y0371401D01*
X0453531Y0371456D01*
X0453505Y0371513D01*
X0453484Y0371572D01*
X0453467Y0371632D01*
X0453453Y0371693D01*
X0453443Y0371754D01*
X0453437Y0371817D01*
X0453435Y0371879D01*
X0453435Y0375816D02*
X0453437Y0375878D01*
X0453443Y0375941D01*
X0453453Y0376002D01*
X0453467Y0376063D01*
X0453484Y0376123D01*
X0453505Y0376182D01*
X0453531Y0376239D01*
X0453559Y0376294D01*
X0453591Y0376348D01*
X0453627Y0376399D01*
X0453665Y0376449D01*
X0453707Y0376495D01*
X0453751Y0376539D01*
X0453799Y0376580D01*
X0453848Y0376618D01*
X0453900Y0376652D01*
X0453954Y0376683D01*
X0454010Y0376711D01*
X0454068Y0376735D01*
X0454127Y0376756D01*
X0454187Y0376772D01*
X0454248Y0376785D01*
X0454310Y0376794D01*
X0454372Y0376799D01*
X0454435Y0376800D01*
X0454497Y0376797D01*
X0454559Y0376790D01*
X0454621Y0376779D01*
X0454681Y0376764D01*
X0454741Y0376746D01*
X0454799Y0376724D01*
X0454856Y0376698D01*
X0454911Y0376668D01*
X0454964Y0376635D01*
X0455015Y0376599D01*
X0455063Y0376560D01*
X0455109Y0376517D01*
X0455152Y0376472D01*
X0455192Y0376424D01*
X0455229Y0376374D01*
X0455263Y0376321D01*
X0455294Y0376267D01*
X0455320Y0376211D01*
X0455344Y0376153D01*
X0455363Y0376093D01*
X0455379Y0376033D01*
X0455391Y0375971D01*
X0455399Y0375910D01*
X0455403Y0375847D01*
X0455403Y0375785D01*
X0455399Y0375722D01*
X0455391Y0375661D01*
X0455379Y0375599D01*
X0455363Y0375539D01*
X0455344Y0375479D01*
X0455320Y0375421D01*
X0455294Y0375365D01*
X0455263Y0375311D01*
X0455229Y0375258D01*
X0455192Y0375208D01*
X0455152Y0375160D01*
X0455109Y0375115D01*
X0455063Y0375072D01*
X0455015Y0375033D01*
X0454964Y0374997D01*
X0454911Y0374964D01*
X0454856Y0374934D01*
X0454799Y0374908D01*
X0454741Y0374886D01*
X0454681Y0374868D01*
X0454621Y0374853D01*
X0454559Y0374842D01*
X0454497Y0374835D01*
X0454435Y0374832D01*
X0454372Y0374833D01*
X0454310Y0374838D01*
X0454248Y0374847D01*
X0454187Y0374860D01*
X0454127Y0374876D01*
X0454068Y0374897D01*
X0454010Y0374921D01*
X0453954Y0374949D01*
X0453900Y0374980D01*
X0453848Y0375014D01*
X0453799Y0375052D01*
X0453751Y0375093D01*
X0453707Y0375137D01*
X0453665Y0375183D01*
X0453627Y0375233D01*
X0453591Y0375284D01*
X0453559Y0375338D01*
X0453531Y0375393D01*
X0453505Y0375450D01*
X0453484Y0375509D01*
X0453467Y0375569D01*
X0453453Y0375630D01*
X0453443Y0375691D01*
X0453437Y0375754D01*
X0453435Y0375816D01*
X0457372Y0375816D02*
X0457374Y0375878D01*
X0457380Y0375941D01*
X0457390Y0376002D01*
X0457404Y0376063D01*
X0457421Y0376123D01*
X0457442Y0376182D01*
X0457468Y0376239D01*
X0457496Y0376294D01*
X0457528Y0376348D01*
X0457564Y0376399D01*
X0457602Y0376449D01*
X0457644Y0376495D01*
X0457688Y0376539D01*
X0457736Y0376580D01*
X0457785Y0376618D01*
X0457837Y0376652D01*
X0457891Y0376683D01*
X0457947Y0376711D01*
X0458005Y0376735D01*
X0458064Y0376756D01*
X0458124Y0376772D01*
X0458185Y0376785D01*
X0458247Y0376794D01*
X0458309Y0376799D01*
X0458372Y0376800D01*
X0458434Y0376797D01*
X0458496Y0376790D01*
X0458558Y0376779D01*
X0458618Y0376764D01*
X0458678Y0376746D01*
X0458736Y0376724D01*
X0458793Y0376698D01*
X0458848Y0376668D01*
X0458901Y0376635D01*
X0458952Y0376599D01*
X0459000Y0376560D01*
X0459046Y0376517D01*
X0459089Y0376472D01*
X0459129Y0376424D01*
X0459166Y0376374D01*
X0459200Y0376321D01*
X0459231Y0376267D01*
X0459257Y0376211D01*
X0459281Y0376153D01*
X0459300Y0376093D01*
X0459316Y0376033D01*
X0459328Y0375971D01*
X0459336Y0375910D01*
X0459340Y0375847D01*
X0459340Y0375785D01*
X0459336Y0375722D01*
X0459328Y0375661D01*
X0459316Y0375599D01*
X0459300Y0375539D01*
X0459281Y0375479D01*
X0459257Y0375421D01*
X0459231Y0375365D01*
X0459200Y0375311D01*
X0459166Y0375258D01*
X0459129Y0375208D01*
X0459089Y0375160D01*
X0459046Y0375115D01*
X0459000Y0375072D01*
X0458952Y0375033D01*
X0458901Y0374997D01*
X0458848Y0374964D01*
X0458793Y0374934D01*
X0458736Y0374908D01*
X0458678Y0374886D01*
X0458618Y0374868D01*
X0458558Y0374853D01*
X0458496Y0374842D01*
X0458434Y0374835D01*
X0458372Y0374832D01*
X0458309Y0374833D01*
X0458247Y0374838D01*
X0458185Y0374847D01*
X0458124Y0374860D01*
X0458064Y0374876D01*
X0458005Y0374897D01*
X0457947Y0374921D01*
X0457891Y0374949D01*
X0457837Y0374980D01*
X0457785Y0375014D01*
X0457736Y0375052D01*
X0457688Y0375093D01*
X0457644Y0375137D01*
X0457602Y0375183D01*
X0457564Y0375233D01*
X0457528Y0375284D01*
X0457496Y0375338D01*
X0457468Y0375393D01*
X0457442Y0375450D01*
X0457421Y0375509D01*
X0457404Y0375569D01*
X0457390Y0375630D01*
X0457380Y0375691D01*
X0457374Y0375754D01*
X0457372Y0375816D01*
X0457372Y0371879D02*
X0457374Y0371941D01*
X0457380Y0372004D01*
X0457390Y0372065D01*
X0457404Y0372126D01*
X0457421Y0372186D01*
X0457442Y0372245D01*
X0457468Y0372302D01*
X0457496Y0372357D01*
X0457528Y0372411D01*
X0457564Y0372462D01*
X0457602Y0372512D01*
X0457644Y0372558D01*
X0457688Y0372602D01*
X0457736Y0372643D01*
X0457785Y0372681D01*
X0457837Y0372715D01*
X0457891Y0372746D01*
X0457947Y0372774D01*
X0458005Y0372798D01*
X0458064Y0372819D01*
X0458124Y0372835D01*
X0458185Y0372848D01*
X0458247Y0372857D01*
X0458309Y0372862D01*
X0458372Y0372863D01*
X0458434Y0372860D01*
X0458496Y0372853D01*
X0458558Y0372842D01*
X0458618Y0372827D01*
X0458678Y0372809D01*
X0458736Y0372787D01*
X0458793Y0372761D01*
X0458848Y0372731D01*
X0458901Y0372698D01*
X0458952Y0372662D01*
X0459000Y0372623D01*
X0459046Y0372580D01*
X0459089Y0372535D01*
X0459129Y0372487D01*
X0459166Y0372437D01*
X0459200Y0372384D01*
X0459231Y0372330D01*
X0459257Y0372274D01*
X0459281Y0372216D01*
X0459300Y0372156D01*
X0459316Y0372096D01*
X0459328Y0372034D01*
X0459336Y0371973D01*
X0459340Y0371910D01*
X0459340Y0371848D01*
X0459336Y0371785D01*
X0459328Y0371724D01*
X0459316Y0371662D01*
X0459300Y0371602D01*
X0459281Y0371542D01*
X0459257Y0371484D01*
X0459231Y0371428D01*
X0459200Y0371374D01*
X0459166Y0371321D01*
X0459129Y0371271D01*
X0459089Y0371223D01*
X0459046Y0371178D01*
X0459000Y0371135D01*
X0458952Y0371096D01*
X0458901Y0371060D01*
X0458848Y0371027D01*
X0458793Y0370997D01*
X0458736Y0370971D01*
X0458678Y0370949D01*
X0458618Y0370931D01*
X0458558Y0370916D01*
X0458496Y0370905D01*
X0458434Y0370898D01*
X0458372Y0370895D01*
X0458309Y0370896D01*
X0458247Y0370901D01*
X0458185Y0370910D01*
X0458124Y0370923D01*
X0458064Y0370939D01*
X0458005Y0370960D01*
X0457947Y0370984D01*
X0457891Y0371012D01*
X0457837Y0371043D01*
X0457785Y0371077D01*
X0457736Y0371115D01*
X0457688Y0371156D01*
X0457644Y0371200D01*
X0457602Y0371246D01*
X0457564Y0371296D01*
X0457528Y0371347D01*
X0457496Y0371401D01*
X0457468Y0371456D01*
X0457442Y0371513D01*
X0457421Y0371572D01*
X0457404Y0371632D01*
X0457390Y0371693D01*
X0457380Y0371754D01*
X0457374Y0371817D01*
X0457372Y0371879D01*
X0134537Y0371879D02*
X0134539Y0371941D01*
X0134545Y0372004D01*
X0134555Y0372065D01*
X0134569Y0372126D01*
X0134586Y0372186D01*
X0134607Y0372245D01*
X0134633Y0372302D01*
X0134661Y0372357D01*
X0134693Y0372411D01*
X0134729Y0372462D01*
X0134767Y0372512D01*
X0134809Y0372558D01*
X0134853Y0372602D01*
X0134901Y0372643D01*
X0134950Y0372681D01*
X0135002Y0372715D01*
X0135056Y0372746D01*
X0135112Y0372774D01*
X0135170Y0372798D01*
X0135229Y0372819D01*
X0135289Y0372835D01*
X0135350Y0372848D01*
X0135412Y0372857D01*
X0135474Y0372862D01*
X0135537Y0372863D01*
X0135599Y0372860D01*
X0135661Y0372853D01*
X0135723Y0372842D01*
X0135783Y0372827D01*
X0135843Y0372809D01*
X0135901Y0372787D01*
X0135958Y0372761D01*
X0136013Y0372731D01*
X0136066Y0372698D01*
X0136117Y0372662D01*
X0136165Y0372623D01*
X0136211Y0372580D01*
X0136254Y0372535D01*
X0136294Y0372487D01*
X0136331Y0372437D01*
X0136365Y0372384D01*
X0136396Y0372330D01*
X0136422Y0372274D01*
X0136446Y0372216D01*
X0136465Y0372156D01*
X0136481Y0372096D01*
X0136493Y0372034D01*
X0136501Y0371973D01*
X0136505Y0371910D01*
X0136505Y0371848D01*
X0136501Y0371785D01*
X0136493Y0371724D01*
X0136481Y0371662D01*
X0136465Y0371602D01*
X0136446Y0371542D01*
X0136422Y0371484D01*
X0136396Y0371428D01*
X0136365Y0371374D01*
X0136331Y0371321D01*
X0136294Y0371271D01*
X0136254Y0371223D01*
X0136211Y0371178D01*
X0136165Y0371135D01*
X0136117Y0371096D01*
X0136066Y0371060D01*
X0136013Y0371027D01*
X0135958Y0370997D01*
X0135901Y0370971D01*
X0135843Y0370949D01*
X0135783Y0370931D01*
X0135723Y0370916D01*
X0135661Y0370905D01*
X0135599Y0370898D01*
X0135537Y0370895D01*
X0135474Y0370896D01*
X0135412Y0370901D01*
X0135350Y0370910D01*
X0135289Y0370923D01*
X0135229Y0370939D01*
X0135170Y0370960D01*
X0135112Y0370984D01*
X0135056Y0371012D01*
X0135002Y0371043D01*
X0134950Y0371077D01*
X0134901Y0371115D01*
X0134853Y0371156D01*
X0134809Y0371200D01*
X0134767Y0371246D01*
X0134729Y0371296D01*
X0134693Y0371347D01*
X0134661Y0371401D01*
X0134633Y0371456D01*
X0134607Y0371513D01*
X0134586Y0371572D01*
X0134569Y0371632D01*
X0134555Y0371693D01*
X0134545Y0371754D01*
X0134539Y0371817D01*
X0134537Y0371879D01*
X0130600Y0371879D02*
X0130602Y0371941D01*
X0130608Y0372004D01*
X0130618Y0372065D01*
X0130632Y0372126D01*
X0130649Y0372186D01*
X0130670Y0372245D01*
X0130696Y0372302D01*
X0130724Y0372357D01*
X0130756Y0372411D01*
X0130792Y0372462D01*
X0130830Y0372512D01*
X0130872Y0372558D01*
X0130916Y0372602D01*
X0130964Y0372643D01*
X0131013Y0372681D01*
X0131065Y0372715D01*
X0131119Y0372746D01*
X0131175Y0372774D01*
X0131233Y0372798D01*
X0131292Y0372819D01*
X0131352Y0372835D01*
X0131413Y0372848D01*
X0131475Y0372857D01*
X0131537Y0372862D01*
X0131600Y0372863D01*
X0131662Y0372860D01*
X0131724Y0372853D01*
X0131786Y0372842D01*
X0131846Y0372827D01*
X0131906Y0372809D01*
X0131964Y0372787D01*
X0132021Y0372761D01*
X0132076Y0372731D01*
X0132129Y0372698D01*
X0132180Y0372662D01*
X0132228Y0372623D01*
X0132274Y0372580D01*
X0132317Y0372535D01*
X0132357Y0372487D01*
X0132394Y0372437D01*
X0132428Y0372384D01*
X0132459Y0372330D01*
X0132485Y0372274D01*
X0132509Y0372216D01*
X0132528Y0372156D01*
X0132544Y0372096D01*
X0132556Y0372034D01*
X0132564Y0371973D01*
X0132568Y0371910D01*
X0132568Y0371848D01*
X0132564Y0371785D01*
X0132556Y0371724D01*
X0132544Y0371662D01*
X0132528Y0371602D01*
X0132509Y0371542D01*
X0132485Y0371484D01*
X0132459Y0371428D01*
X0132428Y0371374D01*
X0132394Y0371321D01*
X0132357Y0371271D01*
X0132317Y0371223D01*
X0132274Y0371178D01*
X0132228Y0371135D01*
X0132180Y0371096D01*
X0132129Y0371060D01*
X0132076Y0371027D01*
X0132021Y0370997D01*
X0131964Y0370971D01*
X0131906Y0370949D01*
X0131846Y0370931D01*
X0131786Y0370916D01*
X0131724Y0370905D01*
X0131662Y0370898D01*
X0131600Y0370895D01*
X0131537Y0370896D01*
X0131475Y0370901D01*
X0131413Y0370910D01*
X0131352Y0370923D01*
X0131292Y0370939D01*
X0131233Y0370960D01*
X0131175Y0370984D01*
X0131119Y0371012D01*
X0131065Y0371043D01*
X0131013Y0371077D01*
X0130964Y0371115D01*
X0130916Y0371156D01*
X0130872Y0371200D01*
X0130830Y0371246D01*
X0130792Y0371296D01*
X0130756Y0371347D01*
X0130724Y0371401D01*
X0130696Y0371456D01*
X0130670Y0371513D01*
X0130649Y0371572D01*
X0130632Y0371632D01*
X0130618Y0371693D01*
X0130608Y0371754D01*
X0130602Y0371817D01*
X0130600Y0371879D01*
X0126663Y0371879D02*
X0126665Y0371941D01*
X0126671Y0372004D01*
X0126681Y0372065D01*
X0126695Y0372126D01*
X0126712Y0372186D01*
X0126733Y0372245D01*
X0126759Y0372302D01*
X0126787Y0372357D01*
X0126819Y0372411D01*
X0126855Y0372462D01*
X0126893Y0372512D01*
X0126935Y0372558D01*
X0126979Y0372602D01*
X0127027Y0372643D01*
X0127076Y0372681D01*
X0127128Y0372715D01*
X0127182Y0372746D01*
X0127238Y0372774D01*
X0127296Y0372798D01*
X0127355Y0372819D01*
X0127415Y0372835D01*
X0127476Y0372848D01*
X0127538Y0372857D01*
X0127600Y0372862D01*
X0127663Y0372863D01*
X0127725Y0372860D01*
X0127787Y0372853D01*
X0127849Y0372842D01*
X0127909Y0372827D01*
X0127969Y0372809D01*
X0128027Y0372787D01*
X0128084Y0372761D01*
X0128139Y0372731D01*
X0128192Y0372698D01*
X0128243Y0372662D01*
X0128291Y0372623D01*
X0128337Y0372580D01*
X0128380Y0372535D01*
X0128420Y0372487D01*
X0128457Y0372437D01*
X0128491Y0372384D01*
X0128522Y0372330D01*
X0128548Y0372274D01*
X0128572Y0372216D01*
X0128591Y0372156D01*
X0128607Y0372096D01*
X0128619Y0372034D01*
X0128627Y0371973D01*
X0128631Y0371910D01*
X0128631Y0371848D01*
X0128627Y0371785D01*
X0128619Y0371724D01*
X0128607Y0371662D01*
X0128591Y0371602D01*
X0128572Y0371542D01*
X0128548Y0371484D01*
X0128522Y0371428D01*
X0128491Y0371374D01*
X0128457Y0371321D01*
X0128420Y0371271D01*
X0128380Y0371223D01*
X0128337Y0371178D01*
X0128291Y0371135D01*
X0128243Y0371096D01*
X0128192Y0371060D01*
X0128139Y0371027D01*
X0128084Y0370997D01*
X0128027Y0370971D01*
X0127969Y0370949D01*
X0127909Y0370931D01*
X0127849Y0370916D01*
X0127787Y0370905D01*
X0127725Y0370898D01*
X0127663Y0370895D01*
X0127600Y0370896D01*
X0127538Y0370901D01*
X0127476Y0370910D01*
X0127415Y0370923D01*
X0127355Y0370939D01*
X0127296Y0370960D01*
X0127238Y0370984D01*
X0127182Y0371012D01*
X0127128Y0371043D01*
X0127076Y0371077D01*
X0127027Y0371115D01*
X0126979Y0371156D01*
X0126935Y0371200D01*
X0126893Y0371246D01*
X0126855Y0371296D01*
X0126819Y0371347D01*
X0126787Y0371401D01*
X0126759Y0371456D01*
X0126733Y0371513D01*
X0126712Y0371572D01*
X0126695Y0371632D01*
X0126681Y0371693D01*
X0126671Y0371754D01*
X0126665Y0371817D01*
X0126663Y0371879D01*
X0126663Y0375816D02*
X0126665Y0375878D01*
X0126671Y0375941D01*
X0126681Y0376002D01*
X0126695Y0376063D01*
X0126712Y0376123D01*
X0126733Y0376182D01*
X0126759Y0376239D01*
X0126787Y0376294D01*
X0126819Y0376348D01*
X0126855Y0376399D01*
X0126893Y0376449D01*
X0126935Y0376495D01*
X0126979Y0376539D01*
X0127027Y0376580D01*
X0127076Y0376618D01*
X0127128Y0376652D01*
X0127182Y0376683D01*
X0127238Y0376711D01*
X0127296Y0376735D01*
X0127355Y0376756D01*
X0127415Y0376772D01*
X0127476Y0376785D01*
X0127538Y0376794D01*
X0127600Y0376799D01*
X0127663Y0376800D01*
X0127725Y0376797D01*
X0127787Y0376790D01*
X0127849Y0376779D01*
X0127909Y0376764D01*
X0127969Y0376746D01*
X0128027Y0376724D01*
X0128084Y0376698D01*
X0128139Y0376668D01*
X0128192Y0376635D01*
X0128243Y0376599D01*
X0128291Y0376560D01*
X0128337Y0376517D01*
X0128380Y0376472D01*
X0128420Y0376424D01*
X0128457Y0376374D01*
X0128491Y0376321D01*
X0128522Y0376267D01*
X0128548Y0376211D01*
X0128572Y0376153D01*
X0128591Y0376093D01*
X0128607Y0376033D01*
X0128619Y0375971D01*
X0128627Y0375910D01*
X0128631Y0375847D01*
X0128631Y0375785D01*
X0128627Y0375722D01*
X0128619Y0375661D01*
X0128607Y0375599D01*
X0128591Y0375539D01*
X0128572Y0375479D01*
X0128548Y0375421D01*
X0128522Y0375365D01*
X0128491Y0375311D01*
X0128457Y0375258D01*
X0128420Y0375208D01*
X0128380Y0375160D01*
X0128337Y0375115D01*
X0128291Y0375072D01*
X0128243Y0375033D01*
X0128192Y0374997D01*
X0128139Y0374964D01*
X0128084Y0374934D01*
X0128027Y0374908D01*
X0127969Y0374886D01*
X0127909Y0374868D01*
X0127849Y0374853D01*
X0127787Y0374842D01*
X0127725Y0374835D01*
X0127663Y0374832D01*
X0127600Y0374833D01*
X0127538Y0374838D01*
X0127476Y0374847D01*
X0127415Y0374860D01*
X0127355Y0374876D01*
X0127296Y0374897D01*
X0127238Y0374921D01*
X0127182Y0374949D01*
X0127128Y0374980D01*
X0127076Y0375014D01*
X0127027Y0375052D01*
X0126979Y0375093D01*
X0126935Y0375137D01*
X0126893Y0375183D01*
X0126855Y0375233D01*
X0126819Y0375284D01*
X0126787Y0375338D01*
X0126759Y0375393D01*
X0126733Y0375450D01*
X0126712Y0375509D01*
X0126695Y0375569D01*
X0126681Y0375630D01*
X0126671Y0375691D01*
X0126665Y0375754D01*
X0126663Y0375816D01*
X0126663Y0379753D02*
X0126665Y0379815D01*
X0126671Y0379878D01*
X0126681Y0379939D01*
X0126695Y0380000D01*
X0126712Y0380060D01*
X0126733Y0380119D01*
X0126759Y0380176D01*
X0126787Y0380231D01*
X0126819Y0380285D01*
X0126855Y0380336D01*
X0126893Y0380386D01*
X0126935Y0380432D01*
X0126979Y0380476D01*
X0127027Y0380517D01*
X0127076Y0380555D01*
X0127128Y0380589D01*
X0127182Y0380620D01*
X0127238Y0380648D01*
X0127296Y0380672D01*
X0127355Y0380693D01*
X0127415Y0380709D01*
X0127476Y0380722D01*
X0127538Y0380731D01*
X0127600Y0380736D01*
X0127663Y0380737D01*
X0127725Y0380734D01*
X0127787Y0380727D01*
X0127849Y0380716D01*
X0127909Y0380701D01*
X0127969Y0380683D01*
X0128027Y0380661D01*
X0128084Y0380635D01*
X0128139Y0380605D01*
X0128192Y0380572D01*
X0128243Y0380536D01*
X0128291Y0380497D01*
X0128337Y0380454D01*
X0128380Y0380409D01*
X0128420Y0380361D01*
X0128457Y0380311D01*
X0128491Y0380258D01*
X0128522Y0380204D01*
X0128548Y0380148D01*
X0128572Y0380090D01*
X0128591Y0380030D01*
X0128607Y0379970D01*
X0128619Y0379908D01*
X0128627Y0379847D01*
X0128631Y0379784D01*
X0128631Y0379722D01*
X0128627Y0379659D01*
X0128619Y0379598D01*
X0128607Y0379536D01*
X0128591Y0379476D01*
X0128572Y0379416D01*
X0128548Y0379358D01*
X0128522Y0379302D01*
X0128491Y0379248D01*
X0128457Y0379195D01*
X0128420Y0379145D01*
X0128380Y0379097D01*
X0128337Y0379052D01*
X0128291Y0379009D01*
X0128243Y0378970D01*
X0128192Y0378934D01*
X0128139Y0378901D01*
X0128084Y0378871D01*
X0128027Y0378845D01*
X0127969Y0378823D01*
X0127909Y0378805D01*
X0127849Y0378790D01*
X0127787Y0378779D01*
X0127725Y0378772D01*
X0127663Y0378769D01*
X0127600Y0378770D01*
X0127538Y0378775D01*
X0127476Y0378784D01*
X0127415Y0378797D01*
X0127355Y0378813D01*
X0127296Y0378834D01*
X0127238Y0378858D01*
X0127182Y0378886D01*
X0127128Y0378917D01*
X0127076Y0378951D01*
X0127027Y0378989D01*
X0126979Y0379030D01*
X0126935Y0379074D01*
X0126893Y0379120D01*
X0126855Y0379170D01*
X0126819Y0379221D01*
X0126787Y0379275D01*
X0126759Y0379330D01*
X0126733Y0379387D01*
X0126712Y0379446D01*
X0126695Y0379506D01*
X0126681Y0379567D01*
X0126671Y0379628D01*
X0126665Y0379691D01*
X0126663Y0379753D01*
X0130600Y0379753D02*
X0130602Y0379815D01*
X0130608Y0379878D01*
X0130618Y0379939D01*
X0130632Y0380000D01*
X0130649Y0380060D01*
X0130670Y0380119D01*
X0130696Y0380176D01*
X0130724Y0380231D01*
X0130756Y0380285D01*
X0130792Y0380336D01*
X0130830Y0380386D01*
X0130872Y0380432D01*
X0130916Y0380476D01*
X0130964Y0380517D01*
X0131013Y0380555D01*
X0131065Y0380589D01*
X0131119Y0380620D01*
X0131175Y0380648D01*
X0131233Y0380672D01*
X0131292Y0380693D01*
X0131352Y0380709D01*
X0131413Y0380722D01*
X0131475Y0380731D01*
X0131537Y0380736D01*
X0131600Y0380737D01*
X0131662Y0380734D01*
X0131724Y0380727D01*
X0131786Y0380716D01*
X0131846Y0380701D01*
X0131906Y0380683D01*
X0131964Y0380661D01*
X0132021Y0380635D01*
X0132076Y0380605D01*
X0132129Y0380572D01*
X0132180Y0380536D01*
X0132228Y0380497D01*
X0132274Y0380454D01*
X0132317Y0380409D01*
X0132357Y0380361D01*
X0132394Y0380311D01*
X0132428Y0380258D01*
X0132459Y0380204D01*
X0132485Y0380148D01*
X0132509Y0380090D01*
X0132528Y0380030D01*
X0132544Y0379970D01*
X0132556Y0379908D01*
X0132564Y0379847D01*
X0132568Y0379784D01*
X0132568Y0379722D01*
X0132564Y0379659D01*
X0132556Y0379598D01*
X0132544Y0379536D01*
X0132528Y0379476D01*
X0132509Y0379416D01*
X0132485Y0379358D01*
X0132459Y0379302D01*
X0132428Y0379248D01*
X0132394Y0379195D01*
X0132357Y0379145D01*
X0132317Y0379097D01*
X0132274Y0379052D01*
X0132228Y0379009D01*
X0132180Y0378970D01*
X0132129Y0378934D01*
X0132076Y0378901D01*
X0132021Y0378871D01*
X0131964Y0378845D01*
X0131906Y0378823D01*
X0131846Y0378805D01*
X0131786Y0378790D01*
X0131724Y0378779D01*
X0131662Y0378772D01*
X0131600Y0378769D01*
X0131537Y0378770D01*
X0131475Y0378775D01*
X0131413Y0378784D01*
X0131352Y0378797D01*
X0131292Y0378813D01*
X0131233Y0378834D01*
X0131175Y0378858D01*
X0131119Y0378886D01*
X0131065Y0378917D01*
X0131013Y0378951D01*
X0130964Y0378989D01*
X0130916Y0379030D01*
X0130872Y0379074D01*
X0130830Y0379120D01*
X0130792Y0379170D01*
X0130756Y0379221D01*
X0130724Y0379275D01*
X0130696Y0379330D01*
X0130670Y0379387D01*
X0130649Y0379446D01*
X0130632Y0379506D01*
X0130618Y0379567D01*
X0130608Y0379628D01*
X0130602Y0379691D01*
X0130600Y0379753D01*
X0130600Y0375816D02*
X0130602Y0375878D01*
X0130608Y0375941D01*
X0130618Y0376002D01*
X0130632Y0376063D01*
X0130649Y0376123D01*
X0130670Y0376182D01*
X0130696Y0376239D01*
X0130724Y0376294D01*
X0130756Y0376348D01*
X0130792Y0376399D01*
X0130830Y0376449D01*
X0130872Y0376495D01*
X0130916Y0376539D01*
X0130964Y0376580D01*
X0131013Y0376618D01*
X0131065Y0376652D01*
X0131119Y0376683D01*
X0131175Y0376711D01*
X0131233Y0376735D01*
X0131292Y0376756D01*
X0131352Y0376772D01*
X0131413Y0376785D01*
X0131475Y0376794D01*
X0131537Y0376799D01*
X0131600Y0376800D01*
X0131662Y0376797D01*
X0131724Y0376790D01*
X0131786Y0376779D01*
X0131846Y0376764D01*
X0131906Y0376746D01*
X0131964Y0376724D01*
X0132021Y0376698D01*
X0132076Y0376668D01*
X0132129Y0376635D01*
X0132180Y0376599D01*
X0132228Y0376560D01*
X0132274Y0376517D01*
X0132317Y0376472D01*
X0132357Y0376424D01*
X0132394Y0376374D01*
X0132428Y0376321D01*
X0132459Y0376267D01*
X0132485Y0376211D01*
X0132509Y0376153D01*
X0132528Y0376093D01*
X0132544Y0376033D01*
X0132556Y0375971D01*
X0132564Y0375910D01*
X0132568Y0375847D01*
X0132568Y0375785D01*
X0132564Y0375722D01*
X0132556Y0375661D01*
X0132544Y0375599D01*
X0132528Y0375539D01*
X0132509Y0375479D01*
X0132485Y0375421D01*
X0132459Y0375365D01*
X0132428Y0375311D01*
X0132394Y0375258D01*
X0132357Y0375208D01*
X0132317Y0375160D01*
X0132274Y0375115D01*
X0132228Y0375072D01*
X0132180Y0375033D01*
X0132129Y0374997D01*
X0132076Y0374964D01*
X0132021Y0374934D01*
X0131964Y0374908D01*
X0131906Y0374886D01*
X0131846Y0374868D01*
X0131786Y0374853D01*
X0131724Y0374842D01*
X0131662Y0374835D01*
X0131600Y0374832D01*
X0131537Y0374833D01*
X0131475Y0374838D01*
X0131413Y0374847D01*
X0131352Y0374860D01*
X0131292Y0374876D01*
X0131233Y0374897D01*
X0131175Y0374921D01*
X0131119Y0374949D01*
X0131065Y0374980D01*
X0131013Y0375014D01*
X0130964Y0375052D01*
X0130916Y0375093D01*
X0130872Y0375137D01*
X0130830Y0375183D01*
X0130792Y0375233D01*
X0130756Y0375284D01*
X0130724Y0375338D01*
X0130696Y0375393D01*
X0130670Y0375450D01*
X0130649Y0375509D01*
X0130632Y0375569D01*
X0130618Y0375630D01*
X0130608Y0375691D01*
X0130602Y0375754D01*
X0130600Y0375816D01*
X0134537Y0375816D02*
X0134539Y0375878D01*
X0134545Y0375941D01*
X0134555Y0376002D01*
X0134569Y0376063D01*
X0134586Y0376123D01*
X0134607Y0376182D01*
X0134633Y0376239D01*
X0134661Y0376294D01*
X0134693Y0376348D01*
X0134729Y0376399D01*
X0134767Y0376449D01*
X0134809Y0376495D01*
X0134853Y0376539D01*
X0134901Y0376580D01*
X0134950Y0376618D01*
X0135002Y0376652D01*
X0135056Y0376683D01*
X0135112Y0376711D01*
X0135170Y0376735D01*
X0135229Y0376756D01*
X0135289Y0376772D01*
X0135350Y0376785D01*
X0135412Y0376794D01*
X0135474Y0376799D01*
X0135537Y0376800D01*
X0135599Y0376797D01*
X0135661Y0376790D01*
X0135723Y0376779D01*
X0135783Y0376764D01*
X0135843Y0376746D01*
X0135901Y0376724D01*
X0135958Y0376698D01*
X0136013Y0376668D01*
X0136066Y0376635D01*
X0136117Y0376599D01*
X0136165Y0376560D01*
X0136211Y0376517D01*
X0136254Y0376472D01*
X0136294Y0376424D01*
X0136331Y0376374D01*
X0136365Y0376321D01*
X0136396Y0376267D01*
X0136422Y0376211D01*
X0136446Y0376153D01*
X0136465Y0376093D01*
X0136481Y0376033D01*
X0136493Y0375971D01*
X0136501Y0375910D01*
X0136505Y0375847D01*
X0136505Y0375785D01*
X0136501Y0375722D01*
X0136493Y0375661D01*
X0136481Y0375599D01*
X0136465Y0375539D01*
X0136446Y0375479D01*
X0136422Y0375421D01*
X0136396Y0375365D01*
X0136365Y0375311D01*
X0136331Y0375258D01*
X0136294Y0375208D01*
X0136254Y0375160D01*
X0136211Y0375115D01*
X0136165Y0375072D01*
X0136117Y0375033D01*
X0136066Y0374997D01*
X0136013Y0374964D01*
X0135958Y0374934D01*
X0135901Y0374908D01*
X0135843Y0374886D01*
X0135783Y0374868D01*
X0135723Y0374853D01*
X0135661Y0374842D01*
X0135599Y0374835D01*
X0135537Y0374832D01*
X0135474Y0374833D01*
X0135412Y0374838D01*
X0135350Y0374847D01*
X0135289Y0374860D01*
X0135229Y0374876D01*
X0135170Y0374897D01*
X0135112Y0374921D01*
X0135056Y0374949D01*
X0135002Y0374980D01*
X0134950Y0375014D01*
X0134901Y0375052D01*
X0134853Y0375093D01*
X0134809Y0375137D01*
X0134767Y0375183D01*
X0134729Y0375233D01*
X0134693Y0375284D01*
X0134661Y0375338D01*
X0134633Y0375393D01*
X0134607Y0375450D01*
X0134586Y0375509D01*
X0134569Y0375569D01*
X0134555Y0375630D01*
X0134545Y0375691D01*
X0134539Y0375754D01*
X0134537Y0375816D01*
X0134537Y0379753D02*
X0134539Y0379815D01*
X0134545Y0379878D01*
X0134555Y0379939D01*
X0134569Y0380000D01*
X0134586Y0380060D01*
X0134607Y0380119D01*
X0134633Y0380176D01*
X0134661Y0380231D01*
X0134693Y0380285D01*
X0134729Y0380336D01*
X0134767Y0380386D01*
X0134809Y0380432D01*
X0134853Y0380476D01*
X0134901Y0380517D01*
X0134950Y0380555D01*
X0135002Y0380589D01*
X0135056Y0380620D01*
X0135112Y0380648D01*
X0135170Y0380672D01*
X0135229Y0380693D01*
X0135289Y0380709D01*
X0135350Y0380722D01*
X0135412Y0380731D01*
X0135474Y0380736D01*
X0135537Y0380737D01*
X0135599Y0380734D01*
X0135661Y0380727D01*
X0135723Y0380716D01*
X0135783Y0380701D01*
X0135843Y0380683D01*
X0135901Y0380661D01*
X0135958Y0380635D01*
X0136013Y0380605D01*
X0136066Y0380572D01*
X0136117Y0380536D01*
X0136165Y0380497D01*
X0136211Y0380454D01*
X0136254Y0380409D01*
X0136294Y0380361D01*
X0136331Y0380311D01*
X0136365Y0380258D01*
X0136396Y0380204D01*
X0136422Y0380148D01*
X0136446Y0380090D01*
X0136465Y0380030D01*
X0136481Y0379970D01*
X0136493Y0379908D01*
X0136501Y0379847D01*
X0136505Y0379784D01*
X0136505Y0379722D01*
X0136501Y0379659D01*
X0136493Y0379598D01*
X0136481Y0379536D01*
X0136465Y0379476D01*
X0136446Y0379416D01*
X0136422Y0379358D01*
X0136396Y0379302D01*
X0136365Y0379248D01*
X0136331Y0379195D01*
X0136294Y0379145D01*
X0136254Y0379097D01*
X0136211Y0379052D01*
X0136165Y0379009D01*
X0136117Y0378970D01*
X0136066Y0378934D01*
X0136013Y0378901D01*
X0135958Y0378871D01*
X0135901Y0378845D01*
X0135843Y0378823D01*
X0135783Y0378805D01*
X0135723Y0378790D01*
X0135661Y0378779D01*
X0135599Y0378772D01*
X0135537Y0378769D01*
X0135474Y0378770D01*
X0135412Y0378775D01*
X0135350Y0378784D01*
X0135289Y0378797D01*
X0135229Y0378813D01*
X0135170Y0378834D01*
X0135112Y0378858D01*
X0135056Y0378886D01*
X0135002Y0378917D01*
X0134950Y0378951D01*
X0134901Y0378989D01*
X0134853Y0379030D01*
X0134809Y0379074D01*
X0134767Y0379120D01*
X0134729Y0379170D01*
X0134693Y0379221D01*
X0134661Y0379275D01*
X0134633Y0379330D01*
X0134607Y0379387D01*
X0134586Y0379446D01*
X0134569Y0379506D01*
X0134555Y0379567D01*
X0134545Y0379628D01*
X0134539Y0379691D01*
X0134537Y0379753D01*
X0012096Y0388611D02*
X0012098Y0388742D01*
X0012104Y0388874D01*
X0012114Y0389005D01*
X0012128Y0389136D01*
X0012146Y0389266D01*
X0012168Y0389395D01*
X0012193Y0389524D01*
X0012223Y0389652D01*
X0012257Y0389779D01*
X0012294Y0389906D01*
X0012335Y0390030D01*
X0012380Y0390154D01*
X0012429Y0390276D01*
X0012481Y0390397D01*
X0012537Y0390515D01*
X0012597Y0390633D01*
X0012660Y0390748D01*
X0012727Y0390861D01*
X0012797Y0390973D01*
X0012870Y0391082D01*
X0012946Y0391188D01*
X0013026Y0391293D01*
X0013109Y0391395D01*
X0013195Y0391494D01*
X0013284Y0391591D01*
X0013376Y0391685D01*
X0013471Y0391776D01*
X0013568Y0391865D01*
X0013668Y0391950D01*
X0013771Y0392032D01*
X0013876Y0392111D01*
X0013983Y0392187D01*
X0014093Y0392259D01*
X0014205Y0392328D01*
X0014319Y0392394D01*
X0014434Y0392456D01*
X0014552Y0392515D01*
X0014671Y0392570D01*
X0014792Y0392622D01*
X0014915Y0392669D01*
X0015039Y0392713D01*
X0015164Y0392754D01*
X0015290Y0392790D01*
X0015418Y0392823D01*
X0015546Y0392851D01*
X0015675Y0392876D01*
X0015805Y0392897D01*
X0015935Y0392914D01*
X0016066Y0392927D01*
X0016197Y0392936D01*
X0016328Y0392941D01*
X0016460Y0392942D01*
X0016591Y0392939D01*
X0016723Y0392932D01*
X0016854Y0392921D01*
X0016984Y0392906D01*
X0017114Y0392887D01*
X0017244Y0392864D01*
X0017372Y0392838D01*
X0017500Y0392807D01*
X0017627Y0392772D01*
X0017753Y0392734D01*
X0017877Y0392692D01*
X0018001Y0392646D01*
X0018122Y0392596D01*
X0018242Y0392543D01*
X0018361Y0392486D01*
X0018478Y0392426D01*
X0018592Y0392362D01*
X0018705Y0392294D01*
X0018816Y0392223D01*
X0018925Y0392149D01*
X0019031Y0392072D01*
X0019135Y0391991D01*
X0019236Y0391908D01*
X0019335Y0391821D01*
X0019431Y0391731D01*
X0019524Y0391638D01*
X0019615Y0391543D01*
X0019702Y0391445D01*
X0019787Y0391344D01*
X0019868Y0391241D01*
X0019946Y0391135D01*
X0020021Y0391027D01*
X0020093Y0390917D01*
X0020161Y0390805D01*
X0020226Y0390691D01*
X0020287Y0390574D01*
X0020345Y0390456D01*
X0020399Y0390336D01*
X0020450Y0390215D01*
X0020497Y0390092D01*
X0020540Y0389968D01*
X0020579Y0389843D01*
X0020615Y0389716D01*
X0020646Y0389588D01*
X0020674Y0389460D01*
X0020698Y0389331D01*
X0020718Y0389201D01*
X0020734Y0389070D01*
X0020746Y0388939D01*
X0020754Y0388808D01*
X0020758Y0388677D01*
X0020758Y0388545D01*
X0020754Y0388414D01*
X0020746Y0388283D01*
X0020734Y0388152D01*
X0020718Y0388021D01*
X0020698Y0387891D01*
X0020674Y0387762D01*
X0020646Y0387634D01*
X0020615Y0387506D01*
X0020579Y0387379D01*
X0020540Y0387254D01*
X0020497Y0387130D01*
X0020450Y0387007D01*
X0020399Y0386886D01*
X0020345Y0386766D01*
X0020287Y0386648D01*
X0020226Y0386531D01*
X0020161Y0386417D01*
X0020093Y0386305D01*
X0020021Y0386195D01*
X0019946Y0386087D01*
X0019868Y0385981D01*
X0019787Y0385878D01*
X0019702Y0385777D01*
X0019615Y0385679D01*
X0019524Y0385584D01*
X0019431Y0385491D01*
X0019335Y0385401D01*
X0019236Y0385314D01*
X0019135Y0385231D01*
X0019031Y0385150D01*
X0018925Y0385073D01*
X0018816Y0384999D01*
X0018705Y0384928D01*
X0018593Y0384860D01*
X0018478Y0384796D01*
X0018361Y0384736D01*
X0018242Y0384679D01*
X0018122Y0384626D01*
X0018001Y0384576D01*
X0017877Y0384530D01*
X0017753Y0384488D01*
X0017627Y0384450D01*
X0017500Y0384415D01*
X0017372Y0384384D01*
X0017244Y0384358D01*
X0017114Y0384335D01*
X0016984Y0384316D01*
X0016854Y0384301D01*
X0016723Y0384290D01*
X0016591Y0384283D01*
X0016460Y0384280D01*
X0016328Y0384281D01*
X0016197Y0384286D01*
X0016066Y0384295D01*
X0015935Y0384308D01*
X0015805Y0384325D01*
X0015675Y0384346D01*
X0015546Y0384371D01*
X0015418Y0384399D01*
X0015290Y0384432D01*
X0015164Y0384468D01*
X0015039Y0384509D01*
X0014915Y0384553D01*
X0014792Y0384600D01*
X0014671Y0384652D01*
X0014552Y0384707D01*
X0014434Y0384766D01*
X0014319Y0384828D01*
X0014205Y0384894D01*
X0014093Y0384963D01*
X0013983Y0385035D01*
X0013876Y0385111D01*
X0013771Y0385190D01*
X0013668Y0385272D01*
X0013568Y0385357D01*
X0013471Y0385446D01*
X0013376Y0385537D01*
X0013284Y0385631D01*
X0013195Y0385728D01*
X0013109Y0385827D01*
X0013026Y0385929D01*
X0012946Y0386034D01*
X0012870Y0386140D01*
X0012797Y0386249D01*
X0012727Y0386361D01*
X0012660Y0386474D01*
X0012597Y0386589D01*
X0012537Y0386707D01*
X0012481Y0386825D01*
X0012429Y0386946D01*
X0012380Y0387068D01*
X0012335Y0387192D01*
X0012294Y0387316D01*
X0012257Y0387443D01*
X0012223Y0387570D01*
X0012193Y0387698D01*
X0012168Y0387827D01*
X0012146Y0387956D01*
X0012128Y0388086D01*
X0012114Y0388217D01*
X0012104Y0388348D01*
X0012098Y0388480D01*
X0012096Y0388611D01*
X0010128Y0356721D02*
X0010130Y0356879D01*
X0010136Y0357037D01*
X0010146Y0357195D01*
X0010160Y0357353D01*
X0010178Y0357510D01*
X0010199Y0357667D01*
X0010225Y0357823D01*
X0010255Y0357979D01*
X0010288Y0358134D01*
X0010326Y0358287D01*
X0010367Y0358440D01*
X0010412Y0358592D01*
X0010461Y0358743D01*
X0010514Y0358892D01*
X0010570Y0359040D01*
X0010630Y0359186D01*
X0010694Y0359331D01*
X0010762Y0359474D01*
X0010833Y0359616D01*
X0010907Y0359756D01*
X0010985Y0359893D01*
X0011067Y0360029D01*
X0011151Y0360163D01*
X0011240Y0360294D01*
X0011331Y0360423D01*
X0011426Y0360550D01*
X0011523Y0360675D01*
X0011624Y0360797D01*
X0011728Y0360916D01*
X0011835Y0361033D01*
X0011945Y0361147D01*
X0012058Y0361258D01*
X0012173Y0361367D01*
X0012291Y0361472D01*
X0012412Y0361574D01*
X0012535Y0361674D01*
X0012661Y0361770D01*
X0012789Y0361863D01*
X0012919Y0361953D01*
X0013052Y0362039D01*
X0013187Y0362123D01*
X0013323Y0362202D01*
X0013462Y0362279D01*
X0013603Y0362351D01*
X0013745Y0362421D01*
X0013889Y0362486D01*
X0014035Y0362548D01*
X0014182Y0362606D01*
X0014331Y0362661D01*
X0014481Y0362712D01*
X0014632Y0362759D01*
X0014784Y0362802D01*
X0014937Y0362841D01*
X0015092Y0362877D01*
X0015247Y0362908D01*
X0015403Y0362936D01*
X0015559Y0362960D01*
X0015716Y0362980D01*
X0015874Y0362996D01*
X0016031Y0363008D01*
X0016190Y0363016D01*
X0016348Y0363020D01*
X0016506Y0363020D01*
X0016664Y0363016D01*
X0016823Y0363008D01*
X0016980Y0362996D01*
X0017138Y0362980D01*
X0017295Y0362960D01*
X0017451Y0362936D01*
X0017607Y0362908D01*
X0017762Y0362877D01*
X0017917Y0362841D01*
X0018070Y0362802D01*
X0018222Y0362759D01*
X0018373Y0362712D01*
X0018523Y0362661D01*
X0018672Y0362606D01*
X0018819Y0362548D01*
X0018965Y0362486D01*
X0019109Y0362421D01*
X0019251Y0362351D01*
X0019392Y0362279D01*
X0019531Y0362202D01*
X0019667Y0362123D01*
X0019802Y0362039D01*
X0019935Y0361953D01*
X0020065Y0361863D01*
X0020193Y0361770D01*
X0020319Y0361674D01*
X0020442Y0361574D01*
X0020563Y0361472D01*
X0020681Y0361367D01*
X0020796Y0361258D01*
X0020909Y0361147D01*
X0021019Y0361033D01*
X0021126Y0360916D01*
X0021230Y0360797D01*
X0021331Y0360675D01*
X0021428Y0360550D01*
X0021523Y0360423D01*
X0021614Y0360294D01*
X0021703Y0360163D01*
X0021787Y0360029D01*
X0021869Y0359893D01*
X0021947Y0359756D01*
X0022021Y0359616D01*
X0022092Y0359474D01*
X0022160Y0359331D01*
X0022224Y0359186D01*
X0022284Y0359040D01*
X0022340Y0358892D01*
X0022393Y0358743D01*
X0022442Y0358592D01*
X0022487Y0358440D01*
X0022528Y0358287D01*
X0022566Y0358134D01*
X0022599Y0357979D01*
X0022629Y0357823D01*
X0022655Y0357667D01*
X0022676Y0357510D01*
X0022694Y0357353D01*
X0022708Y0357195D01*
X0022718Y0357037D01*
X0022724Y0356879D01*
X0022726Y0356721D01*
X0022724Y0356563D01*
X0022718Y0356405D01*
X0022708Y0356247D01*
X0022694Y0356089D01*
X0022676Y0355932D01*
X0022655Y0355775D01*
X0022629Y0355619D01*
X0022599Y0355463D01*
X0022566Y0355308D01*
X0022528Y0355155D01*
X0022487Y0355002D01*
X0022442Y0354850D01*
X0022393Y0354699D01*
X0022340Y0354550D01*
X0022284Y0354402D01*
X0022224Y0354256D01*
X0022160Y0354111D01*
X0022092Y0353968D01*
X0022021Y0353826D01*
X0021947Y0353686D01*
X0021869Y0353549D01*
X0021787Y0353413D01*
X0021703Y0353279D01*
X0021614Y0353148D01*
X0021523Y0353019D01*
X0021428Y0352892D01*
X0021331Y0352767D01*
X0021230Y0352645D01*
X0021126Y0352526D01*
X0021019Y0352409D01*
X0020909Y0352295D01*
X0020796Y0352184D01*
X0020681Y0352075D01*
X0020563Y0351970D01*
X0020442Y0351868D01*
X0020319Y0351768D01*
X0020193Y0351672D01*
X0020065Y0351579D01*
X0019935Y0351489D01*
X0019802Y0351403D01*
X0019667Y0351319D01*
X0019531Y0351240D01*
X0019392Y0351163D01*
X0019251Y0351091D01*
X0019109Y0351021D01*
X0018965Y0350956D01*
X0018819Y0350894D01*
X0018672Y0350836D01*
X0018523Y0350781D01*
X0018373Y0350730D01*
X0018222Y0350683D01*
X0018070Y0350640D01*
X0017917Y0350601D01*
X0017762Y0350565D01*
X0017607Y0350534D01*
X0017451Y0350506D01*
X0017295Y0350482D01*
X0017138Y0350462D01*
X0016980Y0350446D01*
X0016823Y0350434D01*
X0016664Y0350426D01*
X0016506Y0350422D01*
X0016348Y0350422D01*
X0016190Y0350426D01*
X0016031Y0350434D01*
X0015874Y0350446D01*
X0015716Y0350462D01*
X0015559Y0350482D01*
X0015403Y0350506D01*
X0015247Y0350534D01*
X0015092Y0350565D01*
X0014937Y0350601D01*
X0014784Y0350640D01*
X0014632Y0350683D01*
X0014481Y0350730D01*
X0014331Y0350781D01*
X0014182Y0350836D01*
X0014035Y0350894D01*
X0013889Y0350956D01*
X0013745Y0351021D01*
X0013603Y0351091D01*
X0013462Y0351163D01*
X0013323Y0351240D01*
X0013187Y0351319D01*
X0013052Y0351403D01*
X0012919Y0351489D01*
X0012789Y0351579D01*
X0012661Y0351672D01*
X0012535Y0351768D01*
X0012412Y0351868D01*
X0012291Y0351970D01*
X0012173Y0352075D01*
X0012058Y0352184D01*
X0011945Y0352295D01*
X0011835Y0352409D01*
X0011728Y0352526D01*
X0011624Y0352645D01*
X0011523Y0352767D01*
X0011426Y0352892D01*
X0011331Y0353019D01*
X0011240Y0353148D01*
X0011151Y0353279D01*
X0011067Y0353413D01*
X0010985Y0353549D01*
X0010907Y0353686D01*
X0010833Y0353826D01*
X0010762Y0353968D01*
X0010694Y0354111D01*
X0010630Y0354256D01*
X0010570Y0354402D01*
X0010514Y0354550D01*
X0010461Y0354699D01*
X0010412Y0354850D01*
X0010367Y0355002D01*
X0010326Y0355155D01*
X0010288Y0355308D01*
X0010255Y0355463D01*
X0010225Y0355619D01*
X0010199Y0355775D01*
X0010178Y0355932D01*
X0010160Y0356089D01*
X0010146Y0356247D01*
X0010136Y0356405D01*
X0010130Y0356563D01*
X0010128Y0356721D01*
D11*
X0002647Y0015580D02*
X0002647Y0001800D01*
X0583356Y0001800D01*
X0583356Y0015580D01*
X0462293Y0015580D01*
X0462293Y0027391D01*
X0583356Y0027391D01*
X0583356Y0369910D01*
X0462293Y0369910D01*
X0462293Y0381721D01*
X0583356Y0381721D01*
X0583356Y0395501D01*
X0002647Y0395501D01*
X0002647Y0381721D01*
X0123710Y0381721D01*
X0123710Y0369910D01*
X0002647Y0369910D01*
X0002647Y0027391D01*
X0123710Y0027391D01*
X0123710Y0015580D01*
X0002647Y0015580D01*
X0139458Y0015580D02*
X0139458Y0027391D01*
X0446545Y0027391D01*
X0446545Y0015580D01*
X0139458Y0015580D01*
X0139458Y0369910D02*
X0139458Y0381721D01*
X0446545Y0381721D01*
X0446545Y0369910D01*
X0139458Y0369910D01*
D12*
X0145364Y0375816D02*
X0440639Y0375816D01*
X0440639Y0021485D02*
X0145364Y0021485D01*
M02*
