G75*
%MOIN*%
%OFA0B0*%
%FSLAX25Y25*%
%IPPOS*%
%LPD*%
%AMOC8*
5,1,8,0,0,1.08239X$1,22.5*
%
%ADD10C,0.13198*%
%ADD11C,0.02569*%
%ADD12C,0.09261*%
%ADD13C,0.08000*%
D10*
X0016427Y0040580D03*
X0016427Y0356721D03*
X0569576Y0356721D03*
X0569576Y0040580D03*
D11*
X0458356Y0025422D03*
X0458356Y0021485D03*
X0458356Y0017548D03*
X0454419Y0017548D03*
X0454419Y0021485D03*
X0454419Y0025422D03*
X0450482Y0025422D03*
X0450482Y0021485D03*
X0450482Y0017548D03*
X0135521Y0017548D03*
X0131584Y0017548D03*
X0127647Y0017548D03*
X0127647Y0021485D03*
X0127647Y0025422D03*
X0131584Y0025422D03*
X0131584Y0021485D03*
X0135521Y0021485D03*
X0135521Y0025422D03*
X0135521Y0371879D03*
X0135521Y0375816D03*
X0135521Y0379753D03*
X0131584Y0379753D03*
X0127647Y0379753D03*
X0127647Y0375816D03*
X0131584Y0375816D03*
X0131584Y0371879D03*
X0127647Y0371879D03*
X0450482Y0371879D03*
X0450482Y0375816D03*
X0450482Y0379753D03*
X0454419Y0379753D03*
X0458356Y0379753D03*
X0458356Y0375816D03*
X0454419Y0375816D03*
X0454419Y0371879D03*
X0458356Y0371879D03*
D12*
X0016427Y0008690D03*
X0016427Y0388611D03*
X0569576Y0388611D03*
X0569576Y0008690D03*
D13*
X0568001Y0053650D03*
X0558001Y0053650D03*
X0548001Y0053650D03*
X0538001Y0053650D03*
X0528001Y0053650D03*
X0518001Y0053650D03*
X0508001Y0053650D03*
X0498001Y0053650D03*
X0488001Y0053650D03*
X0478001Y0053650D03*
X0468001Y0053650D03*
X0458001Y0053650D03*
X0448001Y0053650D03*
X0438001Y0053650D03*
X0428001Y0053650D03*
X0418001Y0053650D03*
X0408001Y0053650D03*
X0398001Y0053650D03*
X0388001Y0053650D03*
X0378001Y0053650D03*
X0368001Y0053650D03*
X0358001Y0053650D03*
X0348001Y0053650D03*
X0338001Y0053650D03*
X0328001Y0053650D03*
X0318001Y0053650D03*
X0308001Y0053650D03*
X0298001Y0053650D03*
X0288001Y0053650D03*
X0278001Y0053650D03*
X0268001Y0053650D03*
X0258001Y0053650D03*
X0248001Y0053650D03*
X0238001Y0053650D03*
X0228001Y0053650D03*
X0218001Y0053650D03*
X0208001Y0053650D03*
X0198001Y0053650D03*
X0188001Y0053650D03*
X0178001Y0053650D03*
X0168001Y0053650D03*
X0158001Y0053650D03*
X0148001Y0053650D03*
X0138001Y0053650D03*
X0128001Y0053650D03*
X0118001Y0053650D03*
X0108001Y0053650D03*
X0098001Y0053650D03*
X0088001Y0053650D03*
X0078001Y0053650D03*
X0068001Y0053650D03*
X0058001Y0053650D03*
X0048001Y0053650D03*
X0038001Y0053650D03*
X0028001Y0053650D03*
X0018001Y0053650D03*
X0018001Y0063650D03*
X0028001Y0063650D03*
X0028001Y0073650D03*
X0018001Y0073650D03*
X0018001Y0083650D03*
X0028001Y0083650D03*
X0028001Y0093650D03*
X0018001Y0093650D03*
X0018001Y0103650D03*
X0028001Y0103650D03*
X0028001Y0113650D03*
X0018001Y0113650D03*
X0018001Y0123650D03*
X0028001Y0123650D03*
X0028001Y0133650D03*
X0018001Y0133650D03*
X0018001Y0143650D03*
X0028001Y0143650D03*
X0028001Y0153650D03*
X0018001Y0153650D03*
X0018001Y0163650D03*
X0028001Y0163650D03*
X0028001Y0173650D03*
X0018001Y0173650D03*
X0018001Y0183650D03*
X0028001Y0183650D03*
X0028001Y0193650D03*
X0018001Y0193650D03*
X0018001Y0203650D03*
X0028001Y0203650D03*
X0028001Y0213650D03*
X0018001Y0213650D03*
X0018001Y0223650D03*
X0028001Y0223650D03*
X0028001Y0233650D03*
X0018001Y0233650D03*
X0018001Y0243650D03*
X0028001Y0243650D03*
X0028001Y0253650D03*
X0018001Y0253650D03*
X0018001Y0263650D03*
X0028001Y0263650D03*
X0028001Y0273650D03*
X0018001Y0273650D03*
X0018001Y0283650D03*
X0028001Y0283650D03*
X0028001Y0293650D03*
X0018001Y0293650D03*
X0018001Y0303650D03*
X0028001Y0303650D03*
X0028001Y0313650D03*
X0018001Y0313650D03*
X0018001Y0323650D03*
X0028001Y0323650D03*
X0028001Y0333650D03*
X0018001Y0333650D03*
X0018001Y0343650D03*
X0028001Y0343650D03*
X0038001Y0343650D03*
X0048001Y0343650D03*
X0058001Y0343650D03*
X0068001Y0343650D03*
X0078001Y0343650D03*
X0088001Y0343650D03*
X0098001Y0343650D03*
X0108001Y0343650D03*
X0118001Y0343650D03*
X0128001Y0343650D03*
X0138001Y0343650D03*
X0148001Y0343650D03*
X0158001Y0343650D03*
X0168001Y0343650D03*
X0178001Y0343650D03*
X0188001Y0343650D03*
X0198001Y0343650D03*
X0208001Y0343650D03*
X0218001Y0343650D03*
X0228001Y0343650D03*
X0238001Y0343650D03*
X0248001Y0343650D03*
X0258001Y0343650D03*
X0268001Y0343650D03*
X0278001Y0343650D03*
X0288001Y0343650D03*
X0298001Y0343650D03*
X0308001Y0343650D03*
X0318001Y0343650D03*
X0328001Y0343650D03*
X0338001Y0343650D03*
X0348001Y0343650D03*
X0358001Y0343650D03*
X0368001Y0343650D03*
X0378001Y0343650D03*
X0388001Y0343650D03*
X0398001Y0343650D03*
X0408001Y0343650D03*
X0418001Y0343650D03*
X0428001Y0343650D03*
X0438001Y0343650D03*
X0448001Y0343650D03*
X0458001Y0343650D03*
X0468001Y0343650D03*
X0478001Y0343650D03*
X0488001Y0343650D03*
X0498001Y0343650D03*
X0508001Y0343650D03*
X0518001Y0343650D03*
X0528001Y0343650D03*
X0538001Y0343650D03*
X0548001Y0343650D03*
X0558001Y0343650D03*
X0568001Y0343650D03*
X0568001Y0333650D03*
X0558001Y0333650D03*
X0548001Y0333650D03*
X0538001Y0333650D03*
X0528001Y0333650D03*
X0518001Y0333650D03*
X0508001Y0333650D03*
X0498001Y0333650D03*
X0488001Y0333650D03*
X0478001Y0333650D03*
X0468001Y0333650D03*
X0458001Y0333650D03*
X0448001Y0333650D03*
X0438001Y0333650D03*
X0428001Y0333650D03*
X0418001Y0333650D03*
X0408001Y0333650D03*
X0398001Y0333650D03*
X0388001Y0333650D03*
X0378001Y0333650D03*
X0368001Y0333650D03*
X0358001Y0333650D03*
X0348001Y0333650D03*
X0338001Y0333650D03*
X0328001Y0333650D03*
X0318001Y0333650D03*
X0308001Y0333650D03*
X0298001Y0333650D03*
X0288001Y0333650D03*
X0278001Y0333650D03*
X0268001Y0333650D03*
X0258001Y0333650D03*
X0248001Y0333650D03*
X0238001Y0333650D03*
X0228001Y0333650D03*
X0218001Y0333650D03*
X0208001Y0333650D03*
X0198001Y0333650D03*
X0188001Y0333650D03*
X0178001Y0333650D03*
X0168001Y0333650D03*
X0158001Y0333650D03*
X0148001Y0333650D03*
X0138001Y0333650D03*
X0128001Y0333650D03*
X0118001Y0333650D03*
X0108001Y0333650D03*
X0098001Y0333650D03*
X0088001Y0333650D03*
X0078001Y0333650D03*
X0068001Y0333650D03*
X0058001Y0333650D03*
X0048001Y0333650D03*
X0038001Y0333650D03*
X0038001Y0323650D03*
X0048001Y0323650D03*
X0058001Y0323650D03*
X0068001Y0323650D03*
X0078001Y0323650D03*
X0088001Y0323650D03*
X0098001Y0323650D03*
X0108001Y0323650D03*
X0118001Y0323650D03*
X0128001Y0323650D03*
X0138001Y0323650D03*
X0148001Y0323650D03*
X0158001Y0323650D03*
X0168001Y0323650D03*
X0178001Y0323650D03*
X0188001Y0323650D03*
X0198001Y0323650D03*
X0208001Y0323650D03*
X0218001Y0323650D03*
X0228001Y0323650D03*
X0238001Y0323650D03*
X0248001Y0323650D03*
X0258001Y0323650D03*
X0268001Y0323650D03*
X0278001Y0323650D03*
X0288001Y0323650D03*
X0298001Y0323650D03*
X0308001Y0323650D03*
X0318001Y0323650D03*
X0328001Y0323650D03*
X0338001Y0323650D03*
X0348001Y0323650D03*
X0358001Y0323650D03*
X0368001Y0323650D03*
X0378001Y0323650D03*
X0388001Y0323650D03*
X0398001Y0323650D03*
X0408001Y0323650D03*
X0418001Y0323650D03*
X0428001Y0323650D03*
X0438001Y0323650D03*
X0448001Y0323650D03*
X0458001Y0323650D03*
X0468001Y0323650D03*
X0478001Y0323650D03*
X0488001Y0323650D03*
X0498001Y0323650D03*
X0508001Y0323650D03*
X0518001Y0323650D03*
X0528001Y0323650D03*
X0538001Y0323650D03*
X0548001Y0323650D03*
X0558001Y0323650D03*
X0568001Y0323650D03*
X0568001Y0313650D03*
X0558001Y0313650D03*
X0548001Y0313650D03*
X0538001Y0313650D03*
X0528001Y0313650D03*
X0518001Y0313650D03*
X0508001Y0313650D03*
X0498001Y0313650D03*
X0488001Y0313650D03*
X0478001Y0313650D03*
X0468001Y0313650D03*
X0458001Y0313650D03*
X0448001Y0313650D03*
X0438001Y0313650D03*
X0428001Y0313650D03*
X0418001Y0313650D03*
X0408001Y0313650D03*
X0398001Y0313650D03*
X0388001Y0313650D03*
X0378001Y0313650D03*
X0368001Y0313650D03*
X0358001Y0313650D03*
X0348001Y0313650D03*
X0338001Y0313650D03*
X0328001Y0313650D03*
X0318001Y0313650D03*
X0308001Y0313650D03*
X0298001Y0313650D03*
X0288001Y0313650D03*
X0278001Y0313650D03*
X0268001Y0313650D03*
X0258001Y0313650D03*
X0248001Y0313650D03*
X0238001Y0313650D03*
X0228001Y0313650D03*
X0218001Y0313650D03*
X0208001Y0313650D03*
X0198001Y0313650D03*
X0188001Y0313650D03*
X0178001Y0313650D03*
X0168001Y0313650D03*
X0158001Y0313650D03*
X0148001Y0313650D03*
X0138001Y0313650D03*
X0128001Y0313650D03*
X0118001Y0313650D03*
X0108001Y0313650D03*
X0098001Y0313650D03*
X0088001Y0313650D03*
X0078001Y0313650D03*
X0068001Y0313650D03*
X0058001Y0313650D03*
X0048001Y0313650D03*
X0038001Y0313650D03*
X0038001Y0303650D03*
X0048001Y0303650D03*
X0058001Y0303650D03*
X0068001Y0303650D03*
X0078001Y0303650D03*
X0088001Y0303650D03*
X0098001Y0303650D03*
X0108001Y0303650D03*
X0118001Y0303650D03*
X0128001Y0303650D03*
X0138001Y0303650D03*
X0148001Y0303650D03*
X0158001Y0303650D03*
X0168001Y0303650D03*
X0178001Y0303650D03*
X0188001Y0303650D03*
X0198001Y0303650D03*
X0208001Y0303650D03*
X0218001Y0303650D03*
X0228001Y0303650D03*
X0238001Y0303650D03*
X0248001Y0303650D03*
X0258001Y0303650D03*
X0268001Y0303650D03*
X0278001Y0303650D03*
X0288001Y0303650D03*
X0298001Y0303650D03*
X0308001Y0303650D03*
X0318001Y0303650D03*
X0328001Y0303650D03*
X0338001Y0303650D03*
X0348001Y0303650D03*
X0358001Y0303650D03*
X0368001Y0303650D03*
X0378001Y0303650D03*
X0388001Y0303650D03*
X0398001Y0303650D03*
X0408001Y0303650D03*
X0418001Y0303650D03*
X0428001Y0303650D03*
X0438001Y0303650D03*
X0448001Y0303650D03*
X0458001Y0303650D03*
X0468001Y0303650D03*
X0478001Y0303650D03*
X0488001Y0303650D03*
X0498001Y0303650D03*
X0508001Y0303650D03*
X0518001Y0303650D03*
X0528001Y0303650D03*
X0538001Y0303650D03*
X0548001Y0303650D03*
X0558001Y0303650D03*
X0568001Y0303650D03*
X0568001Y0293650D03*
X0558001Y0293650D03*
X0548001Y0293650D03*
X0538001Y0293650D03*
X0528001Y0293650D03*
X0518001Y0293650D03*
X0508001Y0293650D03*
X0498001Y0293650D03*
X0488001Y0293650D03*
X0478001Y0293650D03*
X0468001Y0293650D03*
X0458001Y0293650D03*
X0448001Y0293650D03*
X0438001Y0293650D03*
X0428001Y0293650D03*
X0418001Y0293650D03*
X0408001Y0293650D03*
X0398001Y0293650D03*
X0388001Y0293650D03*
X0378001Y0293650D03*
X0368001Y0293650D03*
X0358001Y0293650D03*
X0348001Y0293650D03*
X0338001Y0293650D03*
X0328001Y0293650D03*
X0318001Y0293650D03*
X0308001Y0293650D03*
X0298001Y0293650D03*
X0288001Y0293650D03*
X0278001Y0293650D03*
X0268001Y0293650D03*
X0258001Y0293650D03*
X0248001Y0293650D03*
X0238001Y0293650D03*
X0228001Y0293650D03*
X0218001Y0293650D03*
X0208001Y0293650D03*
X0198001Y0293650D03*
X0188001Y0293650D03*
X0178001Y0293650D03*
X0168001Y0293650D03*
X0158001Y0293650D03*
X0148001Y0293650D03*
X0138001Y0293650D03*
X0128001Y0293650D03*
X0118001Y0293650D03*
X0108001Y0293650D03*
X0098001Y0293650D03*
X0088001Y0293650D03*
X0078001Y0293650D03*
X0068001Y0293650D03*
X0058001Y0293650D03*
X0048001Y0293650D03*
X0038001Y0293650D03*
X0038001Y0283650D03*
X0048001Y0283650D03*
X0058001Y0283650D03*
X0068001Y0283650D03*
X0078001Y0283650D03*
X0088001Y0283650D03*
X0098001Y0283650D03*
X0108001Y0283650D03*
X0118001Y0283650D03*
X0128001Y0283650D03*
X0138001Y0283650D03*
X0148001Y0283650D03*
X0158001Y0283650D03*
X0168001Y0283650D03*
X0178001Y0283650D03*
X0188001Y0283650D03*
X0198001Y0283650D03*
X0208001Y0283650D03*
X0218001Y0283650D03*
X0228001Y0283650D03*
X0238001Y0283650D03*
X0248001Y0283650D03*
X0258001Y0283650D03*
X0268001Y0283650D03*
X0278001Y0283650D03*
X0288001Y0283650D03*
X0298001Y0283650D03*
X0308001Y0283650D03*
X0318001Y0283650D03*
X0328001Y0283650D03*
X0338001Y0283650D03*
X0348001Y0283650D03*
X0358001Y0283650D03*
X0368001Y0283650D03*
X0378001Y0283650D03*
X0388001Y0283650D03*
X0398001Y0283650D03*
X0408001Y0283650D03*
X0418001Y0283650D03*
X0428001Y0283650D03*
X0438001Y0283650D03*
X0448001Y0283650D03*
X0458001Y0283650D03*
X0468001Y0283650D03*
X0478001Y0283650D03*
X0488001Y0283650D03*
X0498001Y0283650D03*
X0508001Y0283650D03*
X0518001Y0283650D03*
X0528001Y0283650D03*
X0538001Y0283650D03*
X0548001Y0283650D03*
X0558001Y0283650D03*
X0568001Y0283650D03*
X0568001Y0273650D03*
X0558001Y0273650D03*
X0548001Y0273650D03*
X0538001Y0273650D03*
X0528001Y0273650D03*
X0518001Y0273650D03*
X0508001Y0273650D03*
X0498001Y0273650D03*
X0488001Y0273650D03*
X0478001Y0273650D03*
X0468001Y0273650D03*
X0458001Y0273650D03*
X0448001Y0273650D03*
X0438001Y0273650D03*
X0428001Y0273650D03*
X0418001Y0273650D03*
X0408001Y0273650D03*
X0398001Y0273650D03*
X0388001Y0273650D03*
X0378001Y0273650D03*
X0368001Y0273650D03*
X0358001Y0273650D03*
X0348001Y0273650D03*
X0338001Y0273650D03*
X0328001Y0273650D03*
X0318001Y0273650D03*
X0308001Y0273650D03*
X0298001Y0273650D03*
X0288001Y0273650D03*
X0278001Y0273650D03*
X0268001Y0273650D03*
X0258001Y0273650D03*
X0248001Y0273650D03*
X0238001Y0273650D03*
X0228001Y0273650D03*
X0218001Y0273650D03*
X0208001Y0273650D03*
X0198001Y0273650D03*
X0188001Y0273650D03*
X0178001Y0273650D03*
X0168001Y0273650D03*
X0158001Y0273650D03*
X0148001Y0273650D03*
X0138001Y0273650D03*
X0128001Y0273650D03*
X0118001Y0273650D03*
X0108001Y0273650D03*
X0098001Y0273650D03*
X0088001Y0273650D03*
X0078001Y0273650D03*
X0068001Y0273650D03*
X0058001Y0273650D03*
X0048001Y0273650D03*
X0038001Y0273650D03*
X0038001Y0263650D03*
X0048001Y0263650D03*
X0058001Y0263650D03*
X0068001Y0263650D03*
X0078001Y0263650D03*
X0088001Y0263650D03*
X0098001Y0263650D03*
X0108001Y0263650D03*
X0118001Y0263650D03*
X0128001Y0263650D03*
X0138001Y0263650D03*
X0148001Y0263650D03*
X0158001Y0263650D03*
X0168001Y0263650D03*
X0178001Y0263650D03*
X0188001Y0263650D03*
X0198001Y0263650D03*
X0208001Y0263650D03*
X0218001Y0263650D03*
X0228001Y0263650D03*
X0238001Y0263650D03*
X0248001Y0263650D03*
X0258001Y0263650D03*
X0268001Y0263650D03*
X0278001Y0263650D03*
X0288001Y0263650D03*
X0298001Y0263650D03*
X0308001Y0263650D03*
X0318001Y0263650D03*
X0328001Y0263650D03*
X0338001Y0263650D03*
X0348001Y0263650D03*
X0358001Y0263650D03*
X0368001Y0263650D03*
X0378001Y0263650D03*
X0388001Y0263650D03*
X0398001Y0263650D03*
X0408001Y0263650D03*
X0418001Y0263650D03*
X0428001Y0263650D03*
X0438001Y0263650D03*
X0448001Y0263650D03*
X0458001Y0263650D03*
X0468001Y0263650D03*
X0478001Y0263650D03*
X0488001Y0263650D03*
X0498001Y0263650D03*
X0508001Y0263650D03*
X0518001Y0263650D03*
X0528001Y0263650D03*
X0538001Y0263650D03*
X0548001Y0263650D03*
X0558001Y0263650D03*
X0568001Y0263650D03*
X0568001Y0253650D03*
X0558001Y0253650D03*
X0548001Y0253650D03*
X0538001Y0253650D03*
X0528001Y0253650D03*
X0518001Y0253650D03*
X0508001Y0253650D03*
X0498001Y0253650D03*
X0488001Y0253650D03*
X0478001Y0253650D03*
X0468001Y0253650D03*
X0458001Y0253650D03*
X0448001Y0253650D03*
X0438001Y0253650D03*
X0428001Y0253650D03*
X0418001Y0253650D03*
X0408001Y0253650D03*
X0398001Y0253650D03*
X0388001Y0253650D03*
X0378001Y0253650D03*
X0368001Y0253650D03*
X0358001Y0253650D03*
X0348001Y0253650D03*
X0338001Y0253650D03*
X0328001Y0253650D03*
X0318001Y0253650D03*
X0308001Y0253650D03*
X0298001Y0253650D03*
X0288001Y0253650D03*
X0278001Y0253650D03*
X0268001Y0253650D03*
X0258001Y0253650D03*
X0248001Y0253650D03*
X0238001Y0253650D03*
X0228001Y0253650D03*
X0218001Y0253650D03*
X0208001Y0253650D03*
X0198001Y0253650D03*
X0188001Y0253650D03*
X0178001Y0253650D03*
X0168001Y0253650D03*
X0158001Y0253650D03*
X0148001Y0253650D03*
X0138001Y0253650D03*
X0128001Y0253650D03*
X0118001Y0253650D03*
X0108001Y0253650D03*
X0098001Y0253650D03*
X0088001Y0253650D03*
X0078001Y0253650D03*
X0068001Y0253650D03*
X0058001Y0253650D03*
X0048001Y0253650D03*
X0038001Y0253650D03*
X0038001Y0243650D03*
X0048001Y0243650D03*
X0058001Y0243650D03*
X0068001Y0243650D03*
X0078001Y0243650D03*
X0088001Y0243650D03*
X0098001Y0243650D03*
X0108001Y0243650D03*
X0118001Y0243650D03*
X0128001Y0243650D03*
X0138001Y0243650D03*
X0148001Y0243650D03*
X0158001Y0243650D03*
X0168001Y0243650D03*
X0178001Y0243650D03*
X0188001Y0243650D03*
X0198001Y0243650D03*
X0208001Y0243650D03*
X0218001Y0243650D03*
X0228001Y0243650D03*
X0238001Y0243650D03*
X0248001Y0243650D03*
X0258001Y0243650D03*
X0268001Y0243650D03*
X0278001Y0243650D03*
X0288001Y0243650D03*
X0298001Y0243650D03*
X0308001Y0243650D03*
X0318001Y0243650D03*
X0328001Y0243650D03*
X0338001Y0243650D03*
X0348001Y0243650D03*
X0358001Y0243650D03*
X0368001Y0243650D03*
X0378001Y0243650D03*
X0388001Y0243650D03*
X0398001Y0243650D03*
X0408001Y0243650D03*
X0418001Y0243650D03*
X0428001Y0243650D03*
X0438001Y0243650D03*
X0448001Y0243650D03*
X0458001Y0243650D03*
X0468001Y0243650D03*
X0478001Y0243650D03*
X0488001Y0243650D03*
X0498001Y0243650D03*
X0508001Y0243650D03*
X0518001Y0243650D03*
X0528001Y0243650D03*
X0538001Y0243650D03*
X0548001Y0243650D03*
X0558001Y0243650D03*
X0568001Y0243650D03*
X0568001Y0233650D03*
X0558001Y0233650D03*
X0548001Y0233650D03*
X0538001Y0233650D03*
X0528001Y0233650D03*
X0518001Y0233650D03*
X0508001Y0233650D03*
X0498001Y0233650D03*
X0488001Y0233650D03*
X0478001Y0233650D03*
X0468001Y0233650D03*
X0458001Y0233650D03*
X0448001Y0233650D03*
X0438001Y0233650D03*
X0428001Y0233650D03*
X0418001Y0233650D03*
X0408001Y0233650D03*
X0398001Y0233650D03*
X0388001Y0233650D03*
X0378001Y0233650D03*
X0368001Y0233650D03*
X0358001Y0233650D03*
X0348001Y0233650D03*
X0338001Y0233650D03*
X0328001Y0233650D03*
X0318001Y0233650D03*
X0308001Y0233650D03*
X0298001Y0233650D03*
X0288001Y0233650D03*
X0278001Y0233650D03*
X0268001Y0233650D03*
X0258001Y0233650D03*
X0248001Y0233650D03*
X0238001Y0233650D03*
X0228001Y0233650D03*
X0218001Y0233650D03*
X0208001Y0233650D03*
X0198001Y0233650D03*
X0188001Y0233650D03*
X0178001Y0233650D03*
X0168001Y0233650D03*
X0158001Y0233650D03*
X0148001Y0233650D03*
X0138001Y0233650D03*
X0128001Y0233650D03*
X0118001Y0233650D03*
X0108001Y0233650D03*
X0098001Y0233650D03*
X0088001Y0233650D03*
X0078001Y0233650D03*
X0068001Y0233650D03*
X0058001Y0233650D03*
X0048001Y0233650D03*
X0038001Y0233650D03*
X0038001Y0223650D03*
X0048001Y0223650D03*
X0058001Y0223650D03*
X0068001Y0223650D03*
X0078001Y0223650D03*
X0088001Y0223650D03*
X0098001Y0223650D03*
X0108001Y0223650D03*
X0118001Y0223650D03*
X0128001Y0223650D03*
X0138001Y0223650D03*
X0148001Y0223650D03*
X0158001Y0223650D03*
X0168001Y0223650D03*
X0178001Y0223650D03*
X0188001Y0223650D03*
X0198001Y0223650D03*
X0208001Y0223650D03*
X0218001Y0223650D03*
X0228001Y0223650D03*
X0238001Y0223650D03*
X0248001Y0223650D03*
X0258001Y0223650D03*
X0268001Y0223650D03*
X0278001Y0223650D03*
X0288001Y0223650D03*
X0298001Y0223650D03*
X0308001Y0223650D03*
X0318001Y0223650D03*
X0328001Y0223650D03*
X0338001Y0223650D03*
X0348001Y0223650D03*
X0358001Y0223650D03*
X0368001Y0223650D03*
X0378001Y0223650D03*
X0388001Y0223650D03*
X0398001Y0223650D03*
X0408001Y0223650D03*
X0418001Y0223650D03*
X0428001Y0223650D03*
X0438001Y0223650D03*
X0448001Y0223650D03*
X0458001Y0223650D03*
X0468001Y0223650D03*
X0478001Y0223650D03*
X0488001Y0223650D03*
X0498001Y0223650D03*
X0508001Y0223650D03*
X0518001Y0223650D03*
X0528001Y0223650D03*
X0538001Y0223650D03*
X0548001Y0223650D03*
X0558001Y0223650D03*
X0568001Y0223650D03*
X0568001Y0213650D03*
X0558001Y0213650D03*
X0548001Y0213650D03*
X0538001Y0213650D03*
X0528001Y0213650D03*
X0518001Y0213650D03*
X0508001Y0213650D03*
X0498001Y0213650D03*
X0488001Y0213650D03*
X0478001Y0213650D03*
X0468001Y0213650D03*
X0458001Y0213650D03*
X0448001Y0213650D03*
X0438001Y0213650D03*
X0428001Y0213650D03*
X0418001Y0213650D03*
X0408001Y0213650D03*
X0398001Y0213650D03*
X0388001Y0213650D03*
X0378001Y0213650D03*
X0368001Y0213650D03*
X0358001Y0213650D03*
X0348001Y0213650D03*
X0338001Y0213650D03*
X0328001Y0213650D03*
X0318001Y0213650D03*
X0308001Y0213650D03*
X0298001Y0213650D03*
X0288001Y0213650D03*
X0278001Y0213650D03*
X0268001Y0213650D03*
X0258001Y0213650D03*
X0248001Y0213650D03*
X0238001Y0213650D03*
X0228001Y0213650D03*
X0218001Y0213650D03*
X0208001Y0213650D03*
X0198001Y0213650D03*
X0188001Y0213650D03*
X0178001Y0213650D03*
X0168001Y0213650D03*
X0158001Y0213650D03*
X0148001Y0213650D03*
X0138001Y0213650D03*
X0128001Y0213650D03*
X0118001Y0213650D03*
X0108001Y0213650D03*
X0098001Y0213650D03*
X0088001Y0213650D03*
X0078001Y0213650D03*
X0068001Y0213650D03*
X0058001Y0213650D03*
X0048001Y0213650D03*
X0038001Y0213650D03*
X0038001Y0203650D03*
X0048001Y0203650D03*
X0058001Y0203650D03*
X0068001Y0203650D03*
X0078001Y0203650D03*
X0088001Y0203650D03*
X0098001Y0203650D03*
X0108001Y0203650D03*
X0118001Y0203650D03*
X0128001Y0203650D03*
X0138001Y0203650D03*
X0148001Y0203650D03*
X0158001Y0203650D03*
X0168001Y0203650D03*
X0178001Y0203650D03*
X0188001Y0203650D03*
X0198001Y0203650D03*
X0208001Y0203650D03*
X0218001Y0203650D03*
X0228001Y0203650D03*
X0238001Y0203650D03*
X0248001Y0203650D03*
X0258001Y0203650D03*
X0268001Y0203650D03*
X0278001Y0203650D03*
X0288001Y0203650D03*
X0298001Y0203650D03*
X0308001Y0203650D03*
X0318001Y0203650D03*
X0328001Y0203650D03*
X0338001Y0203650D03*
X0348001Y0203650D03*
X0358001Y0203650D03*
X0368001Y0203650D03*
X0378001Y0203650D03*
X0388001Y0203650D03*
X0398001Y0203650D03*
X0408001Y0203650D03*
X0418001Y0203650D03*
X0428001Y0203650D03*
X0438001Y0203650D03*
X0448001Y0203650D03*
X0458001Y0203650D03*
X0468001Y0203650D03*
X0478001Y0203650D03*
X0488001Y0203650D03*
X0498001Y0203650D03*
X0508001Y0203650D03*
X0518001Y0203650D03*
X0528001Y0203650D03*
X0538001Y0203650D03*
X0548001Y0203650D03*
X0558001Y0203650D03*
X0568001Y0203650D03*
X0568001Y0193650D03*
X0558001Y0193650D03*
X0548001Y0193650D03*
X0538001Y0193650D03*
X0528001Y0193650D03*
X0518001Y0193650D03*
X0508001Y0193650D03*
X0498001Y0193650D03*
X0488001Y0193650D03*
X0478001Y0193650D03*
X0468001Y0193650D03*
X0458001Y0193650D03*
X0448001Y0193650D03*
X0438001Y0193650D03*
X0428001Y0193650D03*
X0418001Y0193650D03*
X0408001Y0193650D03*
X0398001Y0193650D03*
X0388001Y0193650D03*
X0378001Y0193650D03*
X0368001Y0193650D03*
X0358001Y0193650D03*
X0348001Y0193650D03*
X0338001Y0193650D03*
X0328001Y0193650D03*
X0318001Y0193650D03*
X0308001Y0193650D03*
X0298001Y0193650D03*
X0288001Y0193650D03*
X0278001Y0193650D03*
X0268001Y0193650D03*
X0258001Y0193650D03*
X0248001Y0193650D03*
X0238001Y0193650D03*
X0228001Y0193650D03*
X0218001Y0193650D03*
X0208001Y0193650D03*
X0198001Y0193650D03*
X0188001Y0193650D03*
X0178001Y0193650D03*
X0168001Y0193650D03*
X0158001Y0193650D03*
X0148001Y0193650D03*
X0138001Y0193650D03*
X0128001Y0193650D03*
X0118001Y0193650D03*
X0108001Y0193650D03*
X0098001Y0193650D03*
X0088001Y0193650D03*
X0078001Y0193650D03*
X0068001Y0193650D03*
X0058001Y0193650D03*
X0048001Y0193650D03*
X0038001Y0193650D03*
X0038001Y0183650D03*
X0048001Y0183650D03*
X0058001Y0183650D03*
X0068001Y0183650D03*
X0078001Y0183650D03*
X0088001Y0183650D03*
X0098001Y0183650D03*
X0108001Y0183650D03*
X0118001Y0183650D03*
X0128001Y0183650D03*
X0138001Y0183650D03*
X0148001Y0183650D03*
X0158001Y0183650D03*
X0168001Y0183650D03*
X0178001Y0183650D03*
X0188001Y0183650D03*
X0198001Y0183650D03*
X0208001Y0183650D03*
X0218001Y0183650D03*
X0228001Y0183650D03*
X0238001Y0183650D03*
X0248001Y0183650D03*
X0258001Y0183650D03*
X0268001Y0183650D03*
X0278001Y0183650D03*
X0288001Y0183650D03*
X0298001Y0183650D03*
X0308001Y0183650D03*
X0318001Y0183650D03*
X0328001Y0183650D03*
X0338001Y0183650D03*
X0348001Y0183650D03*
X0358001Y0183650D03*
X0368001Y0183650D03*
X0378001Y0183650D03*
X0388001Y0183650D03*
X0398001Y0183650D03*
X0408001Y0183650D03*
X0418001Y0183650D03*
X0428001Y0183650D03*
X0438001Y0183650D03*
X0448001Y0183650D03*
X0458001Y0183650D03*
X0468001Y0183650D03*
X0478001Y0183650D03*
X0488001Y0183650D03*
X0498001Y0183650D03*
X0508001Y0183650D03*
X0518001Y0183650D03*
X0528001Y0183650D03*
X0538001Y0183650D03*
X0548001Y0183650D03*
X0558001Y0183650D03*
X0568001Y0183650D03*
X0568001Y0173650D03*
X0558001Y0173650D03*
X0548001Y0173650D03*
X0538001Y0173650D03*
X0528001Y0173650D03*
X0518001Y0173650D03*
X0508001Y0173650D03*
X0498001Y0173650D03*
X0488001Y0173650D03*
X0478001Y0173650D03*
X0468001Y0173650D03*
X0458001Y0173650D03*
X0448001Y0173650D03*
X0438001Y0173650D03*
X0428001Y0173650D03*
X0418001Y0173650D03*
X0408001Y0173650D03*
X0398001Y0173650D03*
X0388001Y0173650D03*
X0378001Y0173650D03*
X0368001Y0173650D03*
X0358001Y0173650D03*
X0348001Y0173650D03*
X0338001Y0173650D03*
X0328001Y0173650D03*
X0318001Y0173650D03*
X0308001Y0173650D03*
X0298001Y0173650D03*
X0288001Y0173650D03*
X0278001Y0173650D03*
X0268001Y0173650D03*
X0258001Y0173650D03*
X0248001Y0173650D03*
X0238001Y0173650D03*
X0228001Y0173650D03*
X0218001Y0173650D03*
X0208001Y0173650D03*
X0198001Y0173650D03*
X0188001Y0173650D03*
X0178001Y0173650D03*
X0168001Y0173650D03*
X0158001Y0173650D03*
X0148001Y0173650D03*
X0138001Y0173650D03*
X0128001Y0173650D03*
X0118001Y0173650D03*
X0108001Y0173650D03*
X0098001Y0173650D03*
X0088001Y0173650D03*
X0078001Y0173650D03*
X0068001Y0173650D03*
X0058001Y0173650D03*
X0048001Y0173650D03*
X0038001Y0173650D03*
X0038001Y0163650D03*
X0048001Y0163650D03*
X0058001Y0163650D03*
X0068001Y0163650D03*
X0078001Y0163650D03*
X0088001Y0163650D03*
X0098001Y0163650D03*
X0108001Y0163650D03*
X0118001Y0163650D03*
X0128001Y0163650D03*
X0138001Y0163650D03*
X0148001Y0163650D03*
X0158001Y0163650D03*
X0168001Y0163650D03*
X0178001Y0163650D03*
X0188001Y0163650D03*
X0198001Y0163650D03*
X0208001Y0163650D03*
X0218001Y0163650D03*
X0228001Y0163650D03*
X0238001Y0163650D03*
X0248001Y0163650D03*
X0258001Y0163650D03*
X0268001Y0163650D03*
X0278001Y0163650D03*
X0288001Y0163650D03*
X0298001Y0163650D03*
X0308001Y0163650D03*
X0318001Y0163650D03*
X0328001Y0163650D03*
X0338001Y0163650D03*
X0348001Y0163650D03*
X0358001Y0163650D03*
X0368001Y0163650D03*
X0378001Y0163650D03*
X0388001Y0163650D03*
X0398001Y0163650D03*
X0408001Y0163650D03*
X0418001Y0163650D03*
X0428001Y0163650D03*
X0438001Y0163650D03*
X0448001Y0163650D03*
X0458001Y0163650D03*
X0468001Y0163650D03*
X0478001Y0163650D03*
X0488001Y0163650D03*
X0498001Y0163650D03*
X0508001Y0163650D03*
X0518001Y0163650D03*
X0528001Y0163650D03*
X0538001Y0163650D03*
X0548001Y0163650D03*
X0558001Y0163650D03*
X0568001Y0163650D03*
X0568001Y0153650D03*
X0558001Y0153650D03*
X0548001Y0153650D03*
X0538001Y0153650D03*
X0528001Y0153650D03*
X0518001Y0153650D03*
X0508001Y0153650D03*
X0498001Y0153650D03*
X0488001Y0153650D03*
X0478001Y0153650D03*
X0468001Y0153650D03*
X0458001Y0153650D03*
X0448001Y0153650D03*
X0438001Y0153650D03*
X0428001Y0153650D03*
X0418001Y0153650D03*
X0408001Y0153650D03*
X0398001Y0153650D03*
X0388001Y0153650D03*
X0378001Y0153650D03*
X0368001Y0153650D03*
X0358001Y0153650D03*
X0348001Y0153650D03*
X0338001Y0153650D03*
X0328001Y0153650D03*
X0318001Y0153650D03*
X0308001Y0153650D03*
X0298001Y0153650D03*
X0288001Y0153650D03*
X0278001Y0153650D03*
X0268001Y0153650D03*
X0258001Y0153650D03*
X0248001Y0153650D03*
X0238001Y0153650D03*
X0228001Y0153650D03*
X0218001Y0153650D03*
X0208001Y0153650D03*
X0198001Y0153650D03*
X0188001Y0153650D03*
X0178001Y0153650D03*
X0168001Y0153650D03*
X0158001Y0153650D03*
X0148001Y0153650D03*
X0138001Y0153650D03*
X0128001Y0153650D03*
X0118001Y0153650D03*
X0108001Y0153650D03*
X0098001Y0153650D03*
X0088001Y0153650D03*
X0078001Y0153650D03*
X0068001Y0153650D03*
X0058001Y0153650D03*
X0048001Y0153650D03*
X0038001Y0153650D03*
X0038001Y0143650D03*
X0048001Y0143650D03*
X0058001Y0143650D03*
X0068001Y0143650D03*
X0078001Y0143650D03*
X0088001Y0143650D03*
X0098001Y0143650D03*
X0108001Y0143650D03*
X0118001Y0143650D03*
X0128001Y0143650D03*
X0138001Y0143650D03*
X0148001Y0143650D03*
X0158001Y0143650D03*
X0168001Y0143650D03*
X0178001Y0143650D03*
X0188001Y0143650D03*
X0198001Y0143650D03*
X0208001Y0143650D03*
X0218001Y0143650D03*
X0228001Y0143650D03*
X0238001Y0143650D03*
X0248001Y0143650D03*
X0258001Y0143650D03*
X0268001Y0143650D03*
X0278001Y0143650D03*
X0288001Y0143650D03*
X0298001Y0143650D03*
X0308001Y0143650D03*
X0318001Y0143650D03*
X0328001Y0143650D03*
X0338001Y0143650D03*
X0348001Y0143650D03*
X0358001Y0143650D03*
X0368001Y0143650D03*
X0378001Y0143650D03*
X0388001Y0143650D03*
X0398001Y0143650D03*
X0408001Y0143650D03*
X0418001Y0143650D03*
X0428001Y0143650D03*
X0438001Y0143650D03*
X0448001Y0143650D03*
X0458001Y0143650D03*
X0468001Y0143650D03*
X0478001Y0143650D03*
X0488001Y0143650D03*
X0498001Y0143650D03*
X0508001Y0143650D03*
X0518001Y0143650D03*
X0528001Y0143650D03*
X0538001Y0143650D03*
X0548001Y0143650D03*
X0558001Y0143650D03*
X0568001Y0143650D03*
X0568001Y0133650D03*
X0558001Y0133650D03*
X0548001Y0133650D03*
X0538001Y0133650D03*
X0528001Y0133650D03*
X0518001Y0133650D03*
X0508001Y0133650D03*
X0498001Y0133650D03*
X0488001Y0133650D03*
X0478001Y0133650D03*
X0468001Y0133650D03*
X0458001Y0133650D03*
X0448001Y0133650D03*
X0438001Y0133650D03*
X0428001Y0133650D03*
X0418001Y0133650D03*
X0408001Y0133650D03*
X0398001Y0133650D03*
X0388001Y0133650D03*
X0378001Y0133650D03*
X0368001Y0133650D03*
X0358001Y0133650D03*
X0348001Y0133650D03*
X0338001Y0133650D03*
X0328001Y0133650D03*
X0318001Y0133650D03*
X0308001Y0133650D03*
X0298001Y0133650D03*
X0288001Y0133650D03*
X0278001Y0133650D03*
X0268001Y0133650D03*
X0258001Y0133650D03*
X0248001Y0133650D03*
X0238001Y0133650D03*
X0228001Y0133650D03*
X0218001Y0133650D03*
X0208001Y0133650D03*
X0198001Y0133650D03*
X0188001Y0133650D03*
X0178001Y0133650D03*
X0168001Y0133650D03*
X0158001Y0133650D03*
X0148001Y0133650D03*
X0138001Y0133650D03*
X0128001Y0133650D03*
X0118001Y0133650D03*
X0108001Y0133650D03*
X0098001Y0133650D03*
X0088001Y0133650D03*
X0078001Y0133650D03*
X0068001Y0133650D03*
X0058001Y0133650D03*
X0048001Y0133650D03*
X0038001Y0133650D03*
X0038001Y0123650D03*
X0048001Y0123650D03*
X0058001Y0123650D03*
X0068001Y0123650D03*
X0078001Y0123650D03*
X0088001Y0123650D03*
X0098001Y0123650D03*
X0108001Y0123650D03*
X0118001Y0123650D03*
X0128001Y0123650D03*
X0138001Y0123650D03*
X0148001Y0123650D03*
X0158001Y0123650D03*
X0168001Y0123650D03*
X0178001Y0123650D03*
X0188001Y0123650D03*
X0198001Y0123650D03*
X0208001Y0123650D03*
X0218001Y0123650D03*
X0228001Y0123650D03*
X0238001Y0123650D03*
X0248001Y0123650D03*
X0258001Y0123650D03*
X0268001Y0123650D03*
X0278001Y0123650D03*
X0288001Y0123650D03*
X0298001Y0123650D03*
X0308001Y0123650D03*
X0318001Y0123650D03*
X0328001Y0123650D03*
X0338001Y0123650D03*
X0348001Y0123650D03*
X0358001Y0123650D03*
X0368001Y0123650D03*
X0378001Y0123650D03*
X0388001Y0123650D03*
X0398001Y0123650D03*
X0408001Y0123650D03*
X0418001Y0123650D03*
X0428001Y0123650D03*
X0438001Y0123650D03*
X0448001Y0123650D03*
X0458001Y0123650D03*
X0468001Y0123650D03*
X0478001Y0123650D03*
X0488001Y0123650D03*
X0498001Y0123650D03*
X0508001Y0123650D03*
X0518001Y0123650D03*
X0528001Y0123650D03*
X0538001Y0123650D03*
X0548001Y0123650D03*
X0558001Y0123650D03*
X0568001Y0123650D03*
X0568001Y0113650D03*
X0558001Y0113650D03*
X0548001Y0113650D03*
X0538001Y0113650D03*
X0528001Y0113650D03*
X0518001Y0113650D03*
X0508001Y0113650D03*
X0498001Y0113650D03*
X0488001Y0113650D03*
X0478001Y0113650D03*
X0468001Y0113650D03*
X0458001Y0113650D03*
X0448001Y0113650D03*
X0438001Y0113650D03*
X0428001Y0113650D03*
X0418001Y0113650D03*
X0408001Y0113650D03*
X0398001Y0113650D03*
X0388001Y0113650D03*
X0378001Y0113650D03*
X0368001Y0113650D03*
X0358001Y0113650D03*
X0348001Y0113650D03*
X0338001Y0113650D03*
X0328001Y0113650D03*
X0318001Y0113650D03*
X0308001Y0113650D03*
X0298001Y0113650D03*
X0288001Y0113650D03*
X0278001Y0113650D03*
X0268001Y0113650D03*
X0258001Y0113650D03*
X0248001Y0113650D03*
X0238001Y0113650D03*
X0228001Y0113650D03*
X0218001Y0113650D03*
X0208001Y0113650D03*
X0198001Y0113650D03*
X0188001Y0113650D03*
X0178001Y0113650D03*
X0168001Y0113650D03*
X0158001Y0113650D03*
X0148001Y0113650D03*
X0138001Y0113650D03*
X0128001Y0113650D03*
X0118001Y0113650D03*
X0108001Y0113650D03*
X0098001Y0113650D03*
X0088001Y0113650D03*
X0078001Y0113650D03*
X0068001Y0113650D03*
X0058001Y0113650D03*
X0048001Y0113650D03*
X0038001Y0113650D03*
X0038001Y0103650D03*
X0048001Y0103650D03*
X0058001Y0103650D03*
X0068001Y0103650D03*
X0078001Y0103650D03*
X0088001Y0103650D03*
X0098001Y0103650D03*
X0108001Y0103650D03*
X0118001Y0103650D03*
X0128001Y0103650D03*
X0138001Y0103650D03*
X0148001Y0103650D03*
X0158001Y0103650D03*
X0168001Y0103650D03*
X0178001Y0103650D03*
X0188001Y0103650D03*
X0198001Y0103650D03*
X0208001Y0103650D03*
X0218001Y0103650D03*
X0228001Y0103650D03*
X0238001Y0103650D03*
X0248001Y0103650D03*
X0258001Y0103650D03*
X0268001Y0103650D03*
X0278001Y0103650D03*
X0288001Y0103650D03*
X0298001Y0103650D03*
X0308001Y0103650D03*
X0318001Y0103650D03*
X0328001Y0103650D03*
X0338001Y0103650D03*
X0348001Y0103650D03*
X0358001Y0103650D03*
X0368001Y0103650D03*
X0378001Y0103650D03*
X0388001Y0103650D03*
X0398001Y0103650D03*
X0408001Y0103650D03*
X0418001Y0103650D03*
X0428001Y0103650D03*
X0438001Y0103650D03*
X0448001Y0103650D03*
X0458001Y0103650D03*
X0468001Y0103650D03*
X0478001Y0103650D03*
X0488001Y0103650D03*
X0498001Y0103650D03*
X0508001Y0103650D03*
X0518001Y0103650D03*
X0528001Y0103650D03*
X0538001Y0103650D03*
X0548001Y0103650D03*
X0558001Y0103650D03*
X0568001Y0103650D03*
X0568001Y0093650D03*
X0558001Y0093650D03*
X0548001Y0093650D03*
X0538001Y0093650D03*
X0528001Y0093650D03*
X0518001Y0093650D03*
X0508001Y0093650D03*
X0498001Y0093650D03*
X0488001Y0093650D03*
X0478001Y0093650D03*
X0468001Y0093650D03*
X0458001Y0093650D03*
X0448001Y0093650D03*
X0438001Y0093650D03*
X0428001Y0093650D03*
X0418001Y0093650D03*
X0408001Y0093650D03*
X0398001Y0093650D03*
X0388001Y0093650D03*
X0378001Y0093650D03*
X0368001Y0093650D03*
X0358001Y0093650D03*
X0348001Y0093650D03*
X0338001Y0093650D03*
X0328001Y0093650D03*
X0318001Y0093650D03*
X0308001Y0093650D03*
X0298001Y0093650D03*
X0288001Y0093650D03*
X0278001Y0093650D03*
X0268001Y0093650D03*
X0258001Y0093650D03*
X0248001Y0093650D03*
X0238001Y0093650D03*
X0228001Y0093650D03*
X0218001Y0093650D03*
X0208001Y0093650D03*
X0198001Y0093650D03*
X0188001Y0093650D03*
X0178001Y0093650D03*
X0168001Y0093650D03*
X0158001Y0093650D03*
X0148001Y0093650D03*
X0138001Y0093650D03*
X0128001Y0093650D03*
X0118001Y0093650D03*
X0108001Y0093650D03*
X0098001Y0093650D03*
X0088001Y0093650D03*
X0078001Y0093650D03*
X0068001Y0093650D03*
X0058001Y0093650D03*
X0048001Y0093650D03*
X0038001Y0093650D03*
X0038001Y0083650D03*
X0048001Y0083650D03*
X0058001Y0083650D03*
X0068001Y0083650D03*
X0078001Y0083650D03*
X0088001Y0083650D03*
X0098001Y0083650D03*
X0108001Y0083650D03*
X0118001Y0083650D03*
X0128001Y0083650D03*
X0138001Y0083650D03*
X0148001Y0083650D03*
X0158001Y0083650D03*
X0168001Y0083650D03*
X0178001Y0083650D03*
X0188001Y0083650D03*
X0198001Y0083650D03*
X0208001Y0083650D03*
X0218001Y0083650D03*
X0228001Y0083650D03*
X0238001Y0083650D03*
X0248001Y0083650D03*
X0258001Y0083650D03*
X0268001Y0083650D03*
X0278001Y0083650D03*
X0288001Y0083650D03*
X0298001Y0083650D03*
X0308001Y0083650D03*
X0318001Y0083650D03*
X0328001Y0083650D03*
X0338001Y0083650D03*
X0348001Y0083650D03*
X0358001Y0083650D03*
X0368001Y0083650D03*
X0378001Y0083650D03*
X0388001Y0083650D03*
X0398001Y0083650D03*
X0408001Y0083650D03*
X0418001Y0083650D03*
X0428001Y0083650D03*
X0438001Y0083650D03*
X0448001Y0083650D03*
X0458001Y0083650D03*
X0468001Y0083650D03*
X0478001Y0083650D03*
X0488001Y0083650D03*
X0498001Y0083650D03*
X0508001Y0083650D03*
X0518001Y0083650D03*
X0528001Y0083650D03*
X0538001Y0083650D03*
X0548001Y0083650D03*
X0558001Y0083650D03*
X0568001Y0083650D03*
X0568001Y0073650D03*
X0558001Y0073650D03*
X0548001Y0073650D03*
X0538001Y0073650D03*
X0528001Y0073650D03*
X0518001Y0073650D03*
X0508001Y0073650D03*
X0498001Y0073650D03*
X0488001Y0073650D03*
X0478001Y0073650D03*
X0468001Y0073650D03*
X0458001Y0073650D03*
X0448001Y0073650D03*
X0438001Y0073650D03*
X0428001Y0073650D03*
X0418001Y0073650D03*
X0408001Y0073650D03*
X0398001Y0073650D03*
X0388001Y0073650D03*
X0378001Y0073650D03*
X0368001Y0073650D03*
X0358001Y0073650D03*
X0348001Y0073650D03*
X0338001Y0073650D03*
X0328001Y0073650D03*
X0318001Y0073650D03*
X0308001Y0073650D03*
X0298001Y0073650D03*
X0288001Y0073650D03*
X0278001Y0073650D03*
X0268001Y0073650D03*
X0258001Y0073650D03*
X0248001Y0073650D03*
X0238001Y0073650D03*
X0228001Y0073650D03*
X0218001Y0073650D03*
X0208001Y0073650D03*
X0198001Y0073650D03*
X0188001Y0073650D03*
X0178001Y0073650D03*
X0168001Y0073650D03*
X0158001Y0073650D03*
X0148001Y0073650D03*
X0138001Y0073650D03*
X0128001Y0073650D03*
X0118001Y0073650D03*
X0108001Y0073650D03*
X0098001Y0073650D03*
X0088001Y0073650D03*
X0078001Y0073650D03*
X0068001Y0073650D03*
X0058001Y0073650D03*
X0048001Y0073650D03*
X0038001Y0073650D03*
X0038001Y0063650D03*
X0048001Y0063650D03*
X0058001Y0063650D03*
X0068001Y0063650D03*
X0078001Y0063650D03*
X0088001Y0063650D03*
X0098001Y0063650D03*
X0108001Y0063650D03*
X0118001Y0063650D03*
X0128001Y0063650D03*
X0138001Y0063650D03*
X0148001Y0063650D03*
X0158001Y0063650D03*
X0168001Y0063650D03*
X0178001Y0063650D03*
X0188001Y0063650D03*
X0198001Y0063650D03*
X0208001Y0063650D03*
X0218001Y0063650D03*
X0228001Y0063650D03*
X0238001Y0063650D03*
X0248001Y0063650D03*
X0258001Y0063650D03*
X0268001Y0063650D03*
X0278001Y0063650D03*
X0288001Y0063650D03*
X0298001Y0063650D03*
X0308001Y0063650D03*
X0318001Y0063650D03*
X0328001Y0063650D03*
X0338001Y0063650D03*
X0348001Y0063650D03*
X0358001Y0063650D03*
X0368001Y0063650D03*
X0378001Y0063650D03*
X0388001Y0063650D03*
X0398001Y0063650D03*
X0408001Y0063650D03*
X0418001Y0063650D03*
X0428001Y0063650D03*
X0438001Y0063650D03*
X0448001Y0063650D03*
X0458001Y0063650D03*
X0468001Y0063650D03*
X0478001Y0063650D03*
X0488001Y0063650D03*
X0498001Y0063650D03*
X0508001Y0063650D03*
X0518001Y0063650D03*
X0528001Y0063650D03*
X0538001Y0063650D03*
X0548001Y0063650D03*
X0558001Y0063650D03*
X0568001Y0063650D03*
M02*
