%
M48
M72
T01C0.0197
T02C0.0236
T03C0.0256
T04C0.0276
T05C0.0315
T06C0.0400
T07C0.1260
%
T01
X6618Y8805
X6930Y8805
X7243Y8805
X7243Y9243
X7243Y9555
X6930Y9555
X6930Y9243
X6618Y9243
X6618Y9555
X5930Y9930
X5930Y10930
X6305Y10993
X5930Y11930
X6305Y12680
X6618Y13305
X8243Y14680
X8180Y15055
X7993Y15368
X8243Y15680
X8493Y15993
X9555Y16055
X9430Y17055
X9618Y17805
X10055Y17805
X9993Y19211
X10805Y20805
X11180Y21055
X10993Y21430
X11555Y21305
X11930Y21555
X11930Y21930
X11930Y22305
X12305Y22305
X12305Y21930
X12555Y21626
X12305Y21305
X12680Y21126
X11930Y21055
X11555Y21930
X12305Y22680
X12680Y22626
X12680Y23126
X12680Y23626
X12680Y24126
X12680Y24626
X12680Y25126
X12680Y25626
X12680Y26126
X12305Y26430
X12305Y26805
X12305Y27180
X12680Y27180
X12680Y26626
X11930Y26805
X11555Y26805
X11555Y26430
X11930Y26430
X11930Y26055
X11555Y26055
X11555Y25680
X11180Y25680
X11180Y26055
X10805Y26055
X10805Y25680
X10805Y25305
X10805Y24930
X10805Y24555
X10805Y24180
X10805Y23805
X10805Y23430
X10430Y23430
X10430Y23805
X10430Y24180
X10430Y24555
X10430Y24930
X10430Y25305
X10055Y25305
X10055Y25680
X10055Y26055
X10430Y26055
X10430Y25680
X10430Y26430
X10430Y26805
X10055Y26805
X10055Y26430
X9680Y26430
X9680Y26805
X9305Y26805
X9305Y27180
X9680Y27180
X10055Y27180
X10430Y27180
X10805Y27180
X11180Y27180
X11180Y26805
X10805Y26805
X10805Y26430
X11180Y26430
X11555Y27180
X11930Y27180
X12180Y25305
X11461Y24743
X11180Y25305
X9680Y25305
X9305Y25305
X9305Y25680
X9680Y25680
X9680Y26055
X8930Y25680
X8555Y25680
X8555Y25305
X8930Y25305
X7180Y25626
X7180Y26126
X7055Y25126
X7055Y24626
X7055Y24126
X7055Y23626
X7055Y23126
X7055Y22626
X7180Y22126
X7555Y22430
X7555Y22805
X7930Y22055
X7805Y21680
X7680Y21305
X7555Y20930
X7180Y20680
X6993Y21126
X7055Y21626
X5930Y21930
X5930Y22930
X5930Y23930
X5930Y24930
X5930Y25930
X7430Y27180
X7805Y27180
X8180Y27180
X8555Y27180
X8930Y27180
X7243Y30305
X7243Y30618
X6930Y30618
X6618Y30618
X6618Y30305
X6930Y30305
X6930Y31055
X7243Y31055
X6618Y31055
X12618Y31055
X12930Y31055
X13243Y31055
X13243Y30618
X12930Y30618
X12618Y30618
X12618Y30305
X12930Y30305
X13243Y30305
X13930Y29930
X13930Y28930
X13930Y26930
X13930Y25930
X13930Y24930
X13930Y23930
X13930Y22930
X13930Y21930
X13930Y20930
X13930Y19930
X13930Y18930
X13930Y17930
X13930Y16930
X13555Y16930
X13555Y15930
X13930Y15930
X13930Y14930
X13555Y14930
X13930Y13930
X13930Y12930
X13930Y11930
X13930Y10930
X13930Y9930
X13243Y9555
X13243Y9243
X12930Y9243
X12930Y9555
X12618Y9555
X12618Y9243
X12618Y8805
X12930Y8805
X13243Y8805
X11305Y10180
X10930Y10180
X10555Y10180
X10180Y10180
X10180Y10555
X10555Y10555
X10555Y10930
X10180Y10930
X9680Y10930
X9305Y10930
X9305Y10555
X9680Y10555
X9680Y10180
X9305Y10180
X8930Y10180
X8555Y10180
X7055Y10305
X7368Y11243
X9832Y11555
X10430Y11555
X12805Y12503
X11493Y15680
X11493Y16493
X11868Y16805
X10305Y15305
X8055Y18805
X6680Y20180
X9305Y22805
X9680Y22805
X9680Y22430
X10055Y22805
X10430Y23055
X12680Y22126
X5930Y15930
X19930Y15930
X21993Y15368
X22180Y15055
X22243Y14680
X22243Y15680
X22493Y15993
X23555Y16055
X23430Y17055
X23618Y17805
X24055Y17805
X23993Y19211
X24805Y20805
X25180Y21055
X24993Y21430
X25555Y21305
X25930Y21055
X26305Y21305
X26555Y21626
X26305Y21930
X26305Y22305
X25930Y22305
X25930Y21930
X25930Y21555
X25555Y21930
X26305Y22680
X26680Y22626
X26680Y23126
X26680Y23626
X26680Y24126
X26680Y24626
X26680Y25126
X26680Y25626
X26680Y26126
X26305Y26430
X25930Y26430
X25930Y26805
X26305Y26805
X26305Y27180
X25930Y27180
X25555Y27180
X25180Y27180
X25180Y26805
X25555Y26805
X25555Y26430
X25180Y26430
X25180Y26055
X25180Y25680
X25555Y25680
X25555Y26055
X25930Y26055
X26180Y25305
X25461Y24743
X25180Y25305
X24805Y25305
X24430Y25305
X24430Y24930
X24805Y24930
X24805Y24555
X24430Y24555
X24430Y24180
X24805Y24180
X24805Y23805
X24430Y23805
X24430Y23430
X24805Y23430
X24430Y23055
X24055Y22805
X23680Y22805
X23680Y22430
X23305Y22805
X21930Y22055
X21805Y21680
X21680Y21305
X21555Y20930
X21180Y20680
X20993Y21126
X21055Y21626
X21180Y22126
X21555Y22430
X21555Y22805
X21055Y22626
X21055Y23126
X21055Y23626
X21055Y24126
X21055Y24626
X21055Y25126
X21180Y25626
X21180Y26126
X19930Y25930
X19930Y24930
X19930Y23930
X19930Y22930
X19930Y21930
X20680Y20180
X22055Y18805
X25493Y16493
X25868Y16805
X25493Y15680
X24305Y15305
X26805Y12503
X27930Y12930
X27930Y11930
X27930Y10930
X27930Y9930
X27243Y9555
X27243Y9243
X26930Y9243
X26930Y9555
X26618Y9555
X26618Y9243
X26618Y8805
X26930Y8805
X27243Y8805
X25305Y10180
X24930Y10180
X24555Y10180
X24555Y10555
X24555Y10930
X24180Y10930
X24180Y10555
X24180Y10180
X23680Y10180
X23680Y10555
X23680Y10930
X23305Y10930
X23305Y10555
X23305Y10180
X22930Y10180
X22555Y10180
X21243Y9555
X21243Y9243
X20930Y9243
X20930Y9555
X20618Y9555
X20618Y9243
X20618Y8805
X20930Y8805
X21243Y8805
X19930Y9930
X21055Y10305
X21368Y11243
X20305Y10993
X19930Y10930
X19930Y11930
X20305Y12680
X20618Y13305
X23832Y11555
X24430Y11555
X27930Y13930
X27930Y14930
X27555Y14930
X27555Y15930
X27930Y15930
X27930Y16930
X27555Y16930
X27930Y17930
X27930Y18930
X27930Y19930
X27930Y20930
X26680Y21126
X26680Y22126
X27930Y21930
X27930Y22930
X27930Y23930
X27930Y24930
X27930Y25930
X27930Y26930
X26680Y27180
X26680Y26626
X24805Y26805
X24430Y26805
X24430Y26430
X24805Y26430
X24805Y26055
X24430Y26055
X24430Y25680
X24805Y25680
X24055Y25680
X24055Y26055
X23680Y26055
X23680Y25680
X23680Y25305
X24055Y25305
X23305Y25305
X22930Y25305
X22930Y25680
X23305Y25680
X22555Y25680
X22555Y25305
X23680Y26430
X24055Y26430
X24055Y26805
X23680Y26805
X23680Y27180
X24055Y27180
X24430Y27180
X24805Y27180
X23305Y27180
X22930Y27180
X22555Y27180
X22180Y27180
X21805Y27180
X21430Y27180
X23305Y26805
X21243Y30305
X21243Y30618
X20930Y30618
X20618Y30618
X20618Y30305
X20930Y30305
X20930Y31055
X21243Y31055
X20618Y31055
X26618Y31055
X26930Y31055
X27243Y31055
X27243Y30618
X26930Y30618
X26618Y30618
X26618Y30305
X26930Y30305
X27243Y30305
X27930Y29930
X27930Y28930
X33930Y25930
X33930Y24930
X33930Y23930
X33930Y22930
X33930Y21930
X35055Y21626
X34993Y21126
X35180Y20680
X35555Y20930
X35680Y21305
X35805Y21680
X35930Y22055
X35555Y22430
X35555Y22805
X35055Y22626
X35055Y23126
X35055Y23626
X35055Y24126
X35055Y24626
X35055Y25126
X35180Y25626
X35180Y26126
X35430Y27180
X35805Y27180
X36180Y27180
X36555Y27180
X36930Y27180
X37305Y27180
X37680Y27180
X37680Y26805
X37305Y26805
X37680Y26430
X37680Y26055
X37680Y25680
X37305Y25680
X37305Y25305
X37680Y25305
X38055Y25305
X38430Y25305
X38430Y24930
X38430Y24555
X38430Y24180
X38430Y23805
X38430Y23430
X38430Y23055
X38055Y22805
X37680Y22805
X37305Y22805
X37680Y22430
X38805Y23430
X38805Y23805
X38805Y24180
X38805Y24555
X38805Y24930
X38805Y25305
X39180Y25305
X39180Y25680
X39180Y26055
X38805Y26055
X38805Y25680
X38430Y25680
X38430Y26055
X38055Y26055
X38055Y25680
X38055Y26430
X38055Y26805
X38430Y26805
X38430Y26430
X38805Y26430
X38805Y26805
X39180Y26805
X39180Y26430
X39555Y26430
X39555Y26805
X39930Y26805
X39930Y26430
X39930Y26055
X39555Y26055
X39555Y25680
X40180Y25305
X40680Y25126
X40680Y25626
X40680Y26126
X40305Y26430
X40305Y26805
X40305Y27180
X40680Y27180
X40680Y26626
X39930Y27180
X39555Y27180
X39180Y27180
X38805Y27180
X38430Y27180
X38055Y27180
X36930Y25680
X36555Y25680
X36555Y25305
X36930Y25305
X39461Y24743
X40680Y24626
X40680Y24126
X40680Y23626
X40680Y23126
X40680Y22626
X40305Y22680
X40305Y22305
X40305Y21930
X39930Y21930
X39930Y22305
X39555Y21930
X39930Y21555
X39555Y21305
X39180Y21055
X38993Y21430
X38805Y20805
X39930Y21055
X40305Y21305
X40555Y21626
X40680Y22126
X40680Y21126
X41930Y20930
X41930Y19930
X41930Y18930
X41930Y17930
X41930Y16930
X41555Y16930
X41555Y15930
X41930Y15930
X41930Y14930
X41555Y14930
X41930Y13930
X41930Y12930
X41930Y11930
X41930Y10930
X41930Y9930
X41243Y9555
X41243Y9243
X40930Y9243
X40930Y9555
X40618Y9555
X40618Y9243
X40618Y8805
X40930Y8805
X41243Y8805
X39305Y10180
X38930Y10180
X38555Y10180
X38180Y10180
X38180Y10555
X38555Y10555
X38555Y10930
X38180Y10930
X37680Y10930
X37305Y10930
X37305Y10555
X37680Y10555
X37680Y10180
X37305Y10180
X36930Y10180
X36555Y10180
X35243Y9555
X35243Y9243
X34930Y9243
X34930Y9555
X34618Y9555
X34618Y9243
X34618Y8805
X34930Y8805
X35243Y8805
X35055Y10305
X35368Y11243
X34305Y10993
X33930Y10930
X33930Y11930
X34305Y12680
X34618Y13305
X36243Y14680
X36180Y15055
X35993Y15368
X36243Y15680
X36493Y15993
X37555Y16055
X37430Y17055
X37618Y17805
X38055Y17805
X37993Y19211
X36055Y18805
X34680Y20180
X35180Y22126
X39868Y16805
X39493Y16493
X39493Y15680
X38305Y15305
X40805Y12503
X38430Y11555
X37832Y11555
X33930Y9930
X33930Y15930
X41930Y21930
X41930Y22930
X41930Y23930
X41930Y24930
X41930Y25930
X41930Y26930
X41930Y28930
X41930Y29930
X41243Y30305
X41243Y30618
X40930Y30618
X40618Y30618
X40618Y30305
X40930Y30305
X40930Y31055
X40618Y31055
X41243Y31055
X35243Y31055
X34930Y31055
X34618Y31055
X34618Y30618
X34930Y30618
X35243Y30618
X35243Y30305
X34930Y30305
X34618Y30305
X34618Y41805
X34930Y41805
X35243Y41805
X35243Y42243
X35243Y42555
X34930Y42555
X34618Y42555
X34618Y42243
X34930Y42243
X33930Y42930
X33930Y43930
X34305Y43993
X33930Y44930
X34305Y45680
X34618Y46305
X36243Y47680
X36180Y48055
X35993Y48368
X36243Y48680
X36493Y48993
X37555Y49055
X37430Y50055
X37618Y50805
X38055Y50805
X37993Y52211
X38805Y53805
X39180Y54055
X38993Y54430
X39555Y54305
X39930Y54055
X40305Y54305
X40555Y54626
X40305Y54930
X40305Y55305
X40305Y55680
X40680Y55626
X40680Y56126
X40680Y56626
X40680Y57126
X40680Y57626
X40680Y58126
X40680Y58626
X40680Y59126
X40305Y59430
X40305Y59805
X40305Y60180
X40680Y60180
X40680Y59626
X39930Y59805
X39555Y59805
X39555Y60180
X39930Y60180
X39930Y59430
X39555Y59430
X39555Y59055
X39930Y59055
X39555Y58680
X39180Y58680
X38805Y58680
X38805Y58305
X39180Y58305
X38805Y57930
X38805Y57555
X38805Y57180
X38805Y56805
X38805Y56430
X38430Y56430
X38430Y56805
X38430Y57180
X38430Y57555
X38430Y57930
X38430Y58305
X38055Y58305
X38055Y58680
X38430Y58680
X38430Y59055
X38430Y59430
X38055Y59430
X38055Y59055
X37680Y59055
X37680Y59430
X37680Y59805
X37305Y59805
X37305Y60180
X37680Y60180
X38055Y60180
X38055Y59805
X38430Y59805
X38430Y60180
X38805Y60180
X38805Y59805
X39180Y59805
X39180Y60180
X39180Y59430
X39180Y59055
X38805Y59055
X38805Y59430
X40180Y58305
X39461Y57743
X37680Y58305
X37305Y58305
X37305Y58680
X37680Y58680
X36930Y58680
X36930Y58305
X36555Y58305
X36555Y58680
X35180Y58626
X35180Y59126
X35430Y60180
X35805Y60180
X36180Y60180
X36555Y60180
X36930Y60180
X35055Y58126
X35055Y57626
X35055Y57126
X35055Y56626
X35055Y56126
X35055Y55626
X35180Y55126
X35555Y55430
X35555Y55805
X35930Y55055
X35805Y54680
X35680Y54305
X35555Y53930
X35180Y53680
X34993Y54126
X35055Y54626
X33930Y54930
X33930Y55930
X33930Y56930
X33930Y57930
X33930Y58930
X37305Y55805
X37680Y55805
X37680Y55430
X38055Y55805
X38430Y56055
X39555Y54930
X39930Y54930
X39930Y55305
X39930Y54555
X40680Y54126
X40680Y55126
X41930Y54930
X41930Y53930
X41930Y52930
X41930Y51930
X41930Y50930
X41930Y49930
X41555Y49930
X41555Y48930
X41930Y48930
X41930Y47930
X41555Y47930
X41930Y46930
X41930Y45930
X41930Y44930
X41930Y43930
X41930Y42930
X41243Y42555
X41243Y42243
X40930Y42243
X40930Y42555
X40618Y42555
X40618Y42243
X40618Y41805
X40930Y41805
X41243Y41805
X39305Y43180
X38930Y43180
X38555Y43180
X38555Y43555
X38180Y43555
X38180Y43180
X37680Y43180
X37680Y43555
X37305Y43555
X37305Y43180
X36930Y43180
X36555Y43180
X37305Y43930
X37680Y43930
X38180Y43930
X38555Y43930
X38430Y44555
X37832Y44555
X35368Y44243
X35055Y43305
X38305Y48305
X39493Y48680
X39493Y49493
X39868Y49805
X36055Y51805
X34680Y53180
X33930Y48930
X27930Y48930
X27555Y48930
X27555Y49930
X27930Y49930
X27930Y50930
X27930Y51930
X27930Y52930
X27930Y53930
X27930Y54930
X27930Y55930
X26680Y56126
X26680Y56626
X26680Y57126
X26680Y57626
X26680Y58126
X26680Y58626
X26680Y59126
X26305Y59430
X25930Y59430
X25930Y59055
X25555Y59055
X25180Y59055
X25180Y59430
X25555Y59430
X25555Y59805
X25180Y59805
X25180Y60180
X25555Y60180
X25930Y60180
X25930Y59805
X26305Y59805
X26305Y60180
X26680Y60180
X26680Y59626
X27930Y59930
X27930Y58930
X27930Y57930
X27930Y56930
X26680Y55626
X26305Y55680
X26305Y55305
X25930Y55305
X25930Y54930
X26305Y54930
X26555Y54626
X26305Y54305
X26680Y54126
X25930Y54055
X25555Y54305
X25180Y54055
X24993Y54430
X24805Y53805
X25555Y54930
X25930Y54555
X26680Y55126
X24805Y56430
X24430Y56430
X24430Y56805
X24805Y56805
X24805Y57180
X24430Y57180
X24430Y57555
X24805Y57555
X24805Y57930
X24430Y57930
X24430Y58305
X24805Y58305
X24805Y58680
X24430Y58680
X24430Y59055
X24805Y59055
X24805Y59430
X24430Y59430
X24430Y59805
X24805Y59805
X24805Y60180
X24430Y60180
X24055Y60180
X24055Y59805
X23680Y59805
X23680Y60180
X23305Y60180
X23305Y59805
X22930Y60180
X22555Y60180
X22180Y60180
X21805Y60180
X21430Y60180
X21180Y59126
X21180Y58626
X21055Y58126
X21055Y57626
X21055Y57126
X21055Y56626
X21055Y56126
X21055Y55626
X21180Y55126
X21555Y55430
X21555Y55805
X21930Y55055
X21805Y54680
X21680Y54305
X21555Y53930
X21180Y53680
X20993Y54126
X21055Y54626
X19930Y54930
X19930Y55930
X19930Y56930
X19930Y57930
X19930Y58930
X22555Y58680
X22555Y58305
X22930Y58305
X23305Y58305
X23305Y58680
X22930Y58680
X23680Y58680
X23680Y58305
X24055Y58305
X24055Y58680
X24055Y59055
X24055Y59430
X23680Y59430
X23680Y59055
X25180Y58680
X25180Y58305
X25555Y58680
X26180Y58305
X25461Y57743
X24430Y56055
X24055Y55805
X23680Y55805
X23680Y55430
X23305Y55805
X20680Y53180
X22055Y51805
X23618Y50805
X24055Y50805
X23430Y50055
X23555Y49055
X24305Y48305
X25493Y48680
X25493Y49493
X25868Y49805
X27555Y47930
X27930Y47930
X27930Y46930
X27930Y45930
X26805Y45503
X27930Y44930
X27930Y43930
X27930Y42930
X27243Y42555
X27243Y42243
X26930Y42243
X26930Y42555
X26618Y42555
X26618Y42243
X26618Y41805
X26930Y41805
X27243Y41805
X25305Y43180
X24930Y43180
X24555Y43180
X24555Y43555
X24555Y43930
X24180Y43930
X24180Y43555
X24180Y43180
X23680Y43180
X23680Y43555
X23680Y43930
X23305Y43930
X23305Y43555
X23305Y43180
X22930Y43180
X22555Y43180
X21368Y44243
X21055Y43305
X20930Y42555
X21243Y42555
X21243Y42243
X20930Y42243
X20618Y42243
X20618Y42555
X20618Y41805
X20930Y41805
X21243Y41805
X19930Y42930
X19930Y43930
X20305Y43993
X19930Y44930
X20305Y45680
X20618Y46305
X22243Y47680
X22180Y48055
X21993Y48368
X22243Y48680
X22493Y48993
X19930Y48930
X23993Y52211
X23832Y44555
X24430Y44555
X13930Y44930
X13930Y43930
X13930Y42930
X13243Y42555
X13243Y42243
X12930Y42243
X12930Y42555
X12618Y42555
X12618Y42243
X12618Y41805
X12930Y41805
X13243Y41805
X11305Y43180
X10930Y43180
X10555Y43180
X10555Y43555
X10180Y43555
X10180Y43180
X9680Y43180
X9680Y43555
X9305Y43555
X9305Y43180
X8930Y43180
X8555Y43180
X9305Y43930
X9680Y43930
X10180Y43930
X10555Y43930
X10430Y44555
X9832Y44555
X7368Y44243
X7055Y43305
X6930Y42555
X7243Y42555
X7243Y42243
X6930Y42243
X6618Y42243
X6618Y42555
X6618Y41805
X6930Y41805
X7243Y41805
X5930Y42930
X5930Y43930
X6305Y43993
X5930Y44930
X6305Y45680
X6618Y46305
X8243Y47680
X8180Y48055
X7993Y48368
X8243Y48680
X8493Y48993
X9555Y49055
X9430Y50055
X9618Y50805
X10055Y50805
X9993Y52211
X10805Y53805
X11180Y54055
X10993Y54430
X11555Y54305
X11930Y54055
X12305Y54305
X12555Y54626
X12305Y54930
X12305Y55305
X12305Y55680
X12680Y55626
X12680Y56126
X12680Y56626
X12680Y57126
X12680Y57626
X12680Y58126
X12680Y58626
X12680Y59126
X12305Y59430
X12305Y59805
X12305Y60180
X12680Y60180
X12680Y59626
X11930Y59805
X11555Y59805
X11555Y60180
X11930Y60180
X11930Y59430
X11555Y59430
X11555Y59055
X11930Y59055
X11555Y58680
X11180Y58680
X10805Y58680
X10805Y58305
X11180Y58305
X10805Y57930
X10805Y57555
X10805Y57180
X10805Y56805
X10805Y56430
X10430Y56430
X10430Y56805
X10430Y57180
X10430Y57555
X10430Y57930
X10430Y58305
X10055Y58305
X10055Y58680
X10430Y58680
X10430Y59055
X10430Y59430
X10055Y59430
X10055Y59055
X9680Y59055
X9680Y59430
X9680Y59805
X9305Y59805
X9305Y60180
X9680Y60180
X10055Y60180
X10055Y59805
X10430Y59805
X10430Y60180
X10805Y60180
X10805Y59805
X11180Y59805
X11180Y60180
X11180Y59430
X11180Y59055
X10805Y59055
X10805Y59430
X9680Y58680
X9680Y58305
X9305Y58305
X9305Y58680
X8930Y58680
X8930Y58305
X8555Y58305
X8555Y58680
X7180Y58626
X7180Y59126
X7430Y60180
X7805Y60180
X8180Y60180
X8555Y60180
X8930Y60180
X7055Y58126
X7055Y57626
X7055Y57126
X7055Y56626
X7055Y56126
X7055Y55626
X7180Y55126
X7555Y55430
X7555Y55805
X7930Y55055
X7805Y54680
X7680Y54305
X7555Y53930
X7180Y53680
X6993Y54126
X7055Y54626
X5930Y54930
X5930Y55930
X5930Y56930
X5930Y57930
X5930Y58930
X9305Y55805
X9680Y55805
X9680Y55430
X10055Y55805
X10430Y56055
X11555Y54930
X11930Y54930
X11930Y55305
X11930Y54555
X12680Y54126
X12680Y55126
X13930Y54930
X13930Y53930
X13930Y52930
X13930Y51930
X13930Y50930
X13930Y49930
X13555Y49930
X13555Y48930
X13930Y48930
X13930Y47930
X13555Y47930
X13930Y46930
X13930Y45930
X12805Y45503
X11493Y48680
X11493Y49493
X11868Y49805
X10305Y48305
X8055Y51805
X6680Y53180
X5930Y48930
X13930Y55930
X13930Y56930
X13930Y57930
X13930Y58930
X13930Y59930
X13930Y61930
X13930Y62930
X13243Y63305
X13243Y63618
X12930Y63618
X12618Y63618
X12618Y63305
X12930Y63305
X12930Y64055
X13243Y64055
X12618Y64055
X7243Y64055
X6930Y64055
X6618Y64055
X6618Y63618
X6930Y63618
X7243Y63618
X7243Y63305
X6930Y63305
X6618Y63305
X11461Y57743
X12180Y58305
X20618Y63305
X20930Y63305
X21243Y63305
X21243Y63618
X20930Y63618
X20618Y63618
X20618Y64055
X20930Y64055
X21243Y64055
X26618Y64055
X26930Y64055
X27243Y64055
X27243Y63618
X26930Y63618
X26618Y63618
X26618Y63305
X26930Y63305
X27243Y63305
X27930Y62930
X27930Y61930
X34618Y63305
X34930Y63305
X34930Y63618
X34618Y63618
X34618Y64055
X34930Y64055
X35243Y64055
X35243Y63618
X35243Y63305
X40618Y63305
X40930Y63305
X40930Y63618
X40618Y63618
X40618Y64055
X40930Y64055
X41243Y64055
X41243Y63618
X41243Y63305
X41930Y62930
X41930Y61930
X41930Y59930
X41930Y58930
X41930Y57930
X41930Y56930
X41930Y55930
X47930Y55930
X47930Y54930
X49055Y54626
X48993Y54126
X49180Y53680
X49555Y53930
X49680Y54305
X49805Y54680
X49930Y55055
X49555Y55430
X49555Y55805
X49055Y55626
X49055Y56126
X49055Y56626
X49055Y57126
X49055Y57626
X49055Y58126
X49180Y58626
X49180Y59126
X49430Y60180
X49805Y60180
X50180Y60180
X50555Y60180
X50930Y60180
X51305Y60180
X51305Y59805
X51680Y59805
X52055Y59805
X52055Y60180
X51680Y60180
X51680Y59430
X52055Y59430
X52055Y59055
X51680Y59055
X51680Y58680
X51680Y58305
X52055Y58305
X52055Y58680
X52430Y58680
X52430Y58305
X52805Y58305
X52805Y58680
X52805Y59055
X52430Y59055
X52430Y59430
X52805Y59430
X52805Y59805
X52430Y59805
X52430Y60180
X52805Y60180
X53180Y60180
X53180Y59805
X53555Y59805
X53930Y59805
X53930Y60180
X53555Y60180
X53555Y59430
X53180Y59430
X53180Y59055
X53555Y59055
X53930Y59055
X53930Y59430
X54305Y59430
X54305Y59805
X54305Y60180
X54680Y60180
X54680Y59626
X54680Y59126
X54680Y58626
X54680Y58126
X54680Y57626
X54680Y57126
X54680Y56626
X54680Y56126
X54680Y55626
X54305Y55680
X54305Y55305
X54305Y54930
X53930Y54930
X53930Y55305
X53555Y54930
X53930Y54555
X53555Y54305
X53930Y54055
X54305Y54305
X54555Y54626
X54680Y55126
X54680Y54126
X53180Y54055
X52993Y54430
X52805Y53805
X51993Y52211
X52055Y50805
X51618Y50805
X51430Y50055
X51555Y49055
X52305Y48305
X53493Y48680
X53493Y49493
X53868Y49805
X55555Y49930
X55930Y49930
X55930Y48930
X55555Y48930
X55555Y47930
X55930Y47930
X55930Y46930
X55930Y45930
X54805Y45503
X55930Y44930
X55930Y43930
X55930Y42930
X55243Y42555
X55243Y42243
X54930Y42243
X54930Y42555
X54618Y42555
X54618Y42243
X54618Y41805
X54930Y41805
X55243Y41805
X53305Y43180
X52930Y43180
X52555Y43180
X52555Y43555
X52555Y43930
X52180Y43930
X52180Y43555
X52180Y43180
X51680Y43180
X51680Y43555
X51680Y43930
X51305Y43930
X51305Y43555
X51305Y43180
X50930Y43180
X50555Y43180
X49243Y42555
X49243Y42243
X48930Y42243
X48930Y42555
X48618Y42555
X48618Y42243
X48618Y41805
X48930Y41805
X49243Y41805
X47930Y42930
X49055Y43305
X49368Y44243
X48305Y43993
X47930Y43930
X47930Y44930
X48305Y45680
X48618Y46305
X50243Y47680
X50180Y48055
X49993Y48368
X50243Y48680
X50493Y48993
X47930Y48930
X50055Y51805
X48680Y53180
X49180Y55126
X47930Y56930
X47930Y57930
X47930Y58930
X50555Y58680
X50555Y58305
X50930Y58305
X51305Y58305
X51305Y58680
X50930Y58680
X52430Y57930
X52805Y57930
X52805Y57555
X52430Y57555
X52430Y57180
X52805Y57180
X52805Y56805
X52430Y56805
X52430Y56430
X52805Y56430
X52430Y56055
X52055Y55805
X51680Y55805
X51680Y55430
X51305Y55805
X53461Y57743
X53180Y58305
X53180Y58680
X53555Y58680
X54180Y58305
X55930Y57930
X55930Y56930
X55930Y55930
X55930Y54930
X55930Y53930
X55930Y52930
X55930Y51930
X55930Y50930
X61930Y48930
X63993Y48368
X64180Y48055
X64243Y47680
X64243Y48680
X64493Y48993
X65555Y49055
X65430Y50055
X65618Y50805
X66055Y50805
X65993Y52211
X66805Y53805
X67180Y54055
X66993Y54430
X67555Y54305
X67930Y54055
X68305Y54305
X68555Y54626
X68305Y54930
X68305Y55305
X67930Y55305
X67930Y54930
X67930Y54555
X67555Y54930
X68305Y55680
X68680Y55626
X68680Y56126
X68680Y56626
X68680Y57126
X68680Y57626
X68680Y58126
X68680Y58626
X68680Y59126
X68305Y59430
X67930Y59430
X67930Y59055
X67555Y59055
X67180Y59055
X67180Y59430
X67555Y59430
X67555Y59805
X67180Y59805
X67180Y60180
X67555Y60180
X67930Y60180
X67930Y59805
X68305Y59805
X68305Y60180
X68680Y60180
X68680Y59626
X68180Y58305
X67555Y58680
X67180Y58680
X67180Y58305
X66805Y58305
X66430Y58305
X66430Y58680
X66805Y58680
X66805Y59055
X66430Y59055
X66430Y59430
X66805Y59430
X66805Y59805
X66430Y59805
X66430Y60180
X66805Y60180
X66055Y60180
X66055Y59805
X65680Y59805
X65680Y60180
X65305Y60180
X65305Y59805
X64930Y60180
X64555Y60180
X64180Y60180
X63805Y60180
X63430Y60180
X63180Y59126
X63180Y58626
X63055Y58126
X63055Y57626
X63055Y57126
X63055Y56626
X63055Y56126
X63055Y55626
X63180Y55126
X63555Y55430
X63555Y55805
X63930Y55055
X63805Y54680
X63680Y54305
X63555Y53930
X63180Y53680
X62993Y54126
X63055Y54626
X61930Y54930
X61930Y55930
X61930Y56930
X61930Y57930
X61930Y58930
X64555Y58680
X64555Y58305
X64930Y58305
X65305Y58305
X65305Y58680
X64930Y58680
X65680Y58680
X65680Y58305
X66055Y58305
X66055Y58680
X66055Y59055
X66055Y59430
X65680Y59430
X65680Y59055
X66430Y57930
X66805Y57930
X66805Y57555
X66430Y57555
X66430Y57180
X66805Y57180
X66805Y56805
X66430Y56805
X66430Y56430
X66805Y56430
X66430Y56055
X66055Y55805
X65680Y55805
X65680Y55430
X65305Y55805
X67461Y57743
X69930Y57930
X69930Y56930
X69930Y55930
X69930Y54930
X69930Y53930
X69930Y52930
X69930Y51930
X69930Y50930
X69930Y49930
X69555Y49930
X69555Y48930
X69930Y48930
X69930Y47930
X69555Y47930
X69930Y46930
X69930Y45930
X69930Y44930
X69930Y43930
X69930Y42930
X69243Y42555
X69243Y42243
X68930Y42243
X68930Y42555
X68618Y42555
X68618Y42243
X68618Y41805
X68930Y41805
X69243Y41805
X67305Y43180
X66930Y43180
X66555Y43180
X66555Y43555
X66180Y43555
X66180Y43180
X65680Y43180
X65680Y43555
X65680Y43930
X65305Y43930
X65305Y43555
X65305Y43180
X64930Y43180
X64555Y43180
X63243Y42555
X63243Y42243
X62930Y42243
X62930Y42555
X62618Y42555
X62618Y42243
X62618Y41805
X62930Y41805
X63243Y41805
X63055Y43305
X63368Y44243
X62305Y43993
X61930Y43930
X61930Y44930
X62305Y45680
X62618Y46305
X65832Y44555
X66430Y44555
X66555Y43930
X66180Y43930
X68805Y45503
X67493Y48680
X67493Y49493
X67868Y49805
X66305Y48305
X64055Y51805
X62680Y53180
X68680Y54126
X68680Y55126
X69930Y58930
X69930Y59930
X69930Y61930
X69930Y62930
X69243Y63305
X69243Y63618
X68930Y63618
X68618Y63618
X68618Y63305
X68930Y63305
X68930Y64055
X68618Y64055
X69243Y64055
X63243Y64055
X62930Y64055
X62618Y64055
X62618Y63618
X62930Y63618
X63243Y63618
X63243Y63305
X62930Y63305
X62618Y63305
X55930Y62930
X55243Y63305
X55243Y63618
X54930Y63618
X54618Y63618
X54618Y63305
X54930Y63305
X54930Y64055
X55243Y64055
X54618Y64055
X55930Y61930
X55930Y59930
X55930Y58930
X49243Y63305
X49243Y63618
X48930Y63618
X48618Y63618
X48618Y63305
X48930Y63305
X48930Y64055
X49243Y64055
X48618Y64055
X40805Y45503
X51832Y44555
X52430Y44555
X61930Y42930
X62618Y31055
X62930Y31055
X63243Y31055
X63243Y30618
X63243Y30305
X62930Y30305
X62618Y30305
X62618Y30618
X62930Y30618
X63430Y27180
X63805Y27180
X64180Y27180
X64555Y27180
X64930Y27180
X65305Y27180
X65305Y26805
X65680Y26805
X66055Y26805
X66055Y26430
X65680Y26430
X65680Y26055
X66055Y26055
X66055Y25680
X65680Y25680
X65680Y25305
X66055Y25305
X66430Y25305
X66430Y24930
X66805Y24930
X66805Y25305
X66805Y25680
X66805Y26055
X66430Y26055
X66430Y25680
X66430Y26430
X66430Y26805
X66805Y26805
X66805Y26430
X67180Y26430
X67180Y26805
X67555Y26805
X67555Y26430
X67555Y26055
X67180Y26055
X67180Y25680
X67555Y25680
X67180Y25305
X67461Y24743
X66805Y24555
X66430Y24555
X66430Y24180
X66805Y24180
X66805Y23805
X66430Y23805
X66430Y23430
X66805Y23430
X66430Y23055
X66055Y22805
X65680Y22805
X65680Y22430
X65305Y22805
X63930Y22055
X63805Y21680
X63680Y21305
X63555Y20930
X63180Y20680
X62993Y21126
X63055Y21626
X63180Y22126
X63555Y22430
X63555Y22805
X63055Y22626
X63055Y23126
X63055Y23626
X63055Y24126
X63055Y24626
X63055Y25126
X63180Y25626
X63180Y26126
X64555Y25680
X64555Y25305
X64930Y25305
X65305Y25305
X65305Y25680
X64930Y25680
X65680Y27180
X66055Y27180
X66430Y27180
X66805Y27180
X67180Y27180
X67555Y27180
X67930Y27180
X68305Y27180
X68305Y26805
X68305Y26430
X67930Y26430
X67930Y26805
X67930Y26055
X68680Y26126
X68680Y26626
X68680Y27180
X69930Y26930
X69930Y25930
X69930Y24930
X69930Y23930
X69930Y22930
X69930Y21930
X69930Y20930
X69930Y19930
X69930Y18930
X69930Y17930
X69930Y16930
X69555Y16930
X69555Y15930
X69930Y15930
X69930Y14930
X69555Y14930
X69930Y13930
X69930Y12930
X69930Y11930
X69930Y10930
X69930Y9930
X69243Y9555
X69243Y9243
X68930Y9243
X68930Y9555
X68618Y9555
X68618Y9243
X68618Y8805
X68930Y8805
X69243Y8805
X67305Y10180
X66930Y10180
X66555Y10180
X66180Y10180
X66180Y10555
X66555Y10555
X66555Y10930
X66180Y10930
X65680Y10930
X65680Y10555
X65680Y10180
X65305Y10180
X64930Y10180
X64555Y10180
X65305Y10555
X65305Y10930
X65832Y11555
X66430Y11555
X68805Y12503
X67493Y15680
X67493Y16493
X67868Y16805
X66305Y15305
X65555Y16055
X65430Y17055
X65618Y17805
X66055Y17805
X65993Y19211
X66805Y20805
X67180Y21055
X66993Y21430
X67555Y21305
X67930Y21055
X68305Y21305
X68555Y21626
X68305Y21930
X68305Y22305
X67930Y22305
X67930Y21930
X67930Y21555
X67555Y21930
X68305Y22680
X68680Y22626
X68680Y23126
X68680Y23626
X68680Y24126
X68680Y24626
X68680Y25126
X68680Y25626
X68180Y25305
X68680Y22126
X68680Y21126
X64055Y18805
X62680Y20180
X61930Y21930
X61930Y22930
X61930Y23930
X61930Y24930
X61930Y25930
X55930Y25930
X55930Y24930
X55930Y23930
X55930Y22930
X55930Y21930
X55930Y20930
X55930Y19930
X55930Y18930
X55930Y17930
X55930Y16930
X55555Y16930
X55555Y15930
X55930Y15930
X55930Y14930
X55555Y14930
X55930Y13930
X55930Y12930
X55930Y11930
X55930Y10930
X55930Y9930
X55243Y9555
X55243Y9243
X54930Y9243
X54930Y9555
X54618Y9555
X54618Y9243
X54618Y8805
X54930Y8805
X55243Y8805
X53305Y10180
X52930Y10180
X52555Y10180
X52555Y10555
X52555Y10930
X52180Y10930
X52180Y10555
X52180Y10180
X51680Y10180
X51680Y10555
X51680Y10930
X51305Y10930
X51305Y10555
X51305Y10180
X50930Y10180
X50555Y10180
X49243Y9555
X49243Y9243
X48930Y9243
X48930Y9555
X48618Y9555
X48618Y9243
X48618Y8805
X48930Y8805
X49243Y8805
X47930Y9930
X49055Y10305
X49368Y11243
X48305Y10993
X47930Y10930
X47930Y11930
X48305Y12680
X48618Y13305
X50243Y14680
X50180Y15055
X49993Y15368
X50243Y15680
X50493Y15993
X51555Y16055
X51430Y17055
X51618Y17805
X52055Y17805
X51993Y19211
X52805Y20805
X53180Y21055
X52993Y21430
X53555Y21305
X53930Y21555
X53930Y21930
X53930Y22305
X54305Y22305
X54305Y21930
X54555Y21626
X54305Y21305
X54680Y21126
X53930Y21055
X53555Y21930
X54305Y22680
X54680Y22626
X54680Y23126
X54680Y23626
X54680Y24126
X54680Y24626
X54680Y25126
X54680Y25626
X54680Y26126
X54305Y26430
X54305Y26805
X54305Y27180
X54680Y27180
X54680Y26626
X53930Y26805
X53555Y26805
X53180Y26805
X53180Y26430
X53555Y26430
X53930Y26430
X53930Y26055
X53555Y26055
X53180Y26055
X53180Y25680
X53555Y25680
X53180Y25305
X52805Y25305
X52430Y25305
X52430Y24930
X52805Y24930
X52805Y24555
X52430Y24555
X52430Y24180
X52805Y24180
X52805Y23805
X52430Y23805
X52430Y23430
X52805Y23430
X52430Y23055
X52055Y22805
X51680Y22805
X51680Y22430
X51305Y22805
X49930Y22055
X49805Y21680
X49680Y21305
X49555Y20930
X49180Y20680
X48993Y21126
X49055Y21626
X49180Y22126
X49555Y22430
X49555Y22805
X49055Y22626
X49055Y23126
X49055Y23626
X49055Y24126
X49055Y24626
X49055Y25126
X49180Y25626
X49180Y26126
X47930Y25930
X47930Y24930
X47930Y23930
X47930Y22930
X47930Y21930
X48680Y20180
X50055Y18805
X47930Y15930
X52305Y15305
X53493Y15680
X53493Y16493
X53868Y16805
X54805Y12503
X52430Y11555
X51832Y11555
X61930Y11930
X62305Y12680
X62618Y13305
X64243Y14680
X64180Y15055
X63993Y15368
X64243Y15680
X64493Y15993
X61930Y15930
X63368Y11243
X63055Y10305
X62930Y9555
X62618Y9555
X62618Y9243
X62930Y9243
X63243Y9243
X63243Y9555
X63243Y8805
X62930Y8805
X62618Y8805
X61930Y9930
X61930Y10930
X62305Y10993
X54680Y22126
X53461Y24743
X54180Y25305
X52805Y25680
X52805Y26055
X52430Y26055
X52430Y25680
X52055Y25680
X52055Y26055
X51680Y26055
X51680Y25680
X51680Y25305
X52055Y25305
X51305Y25305
X50930Y25305
X50930Y25680
X51305Y25680
X50555Y25680
X50555Y25305
X51680Y26430
X52055Y26430
X52055Y26805
X51680Y26805
X51680Y27180
X52055Y27180
X52430Y27180
X52805Y27180
X52805Y26805
X52430Y26805
X52430Y26430
X52805Y26430
X53180Y27180
X53555Y27180
X53930Y27180
X55930Y26930
X55930Y28930
X55930Y29930
X55243Y30305
X55243Y30618
X54930Y30618
X54618Y30618
X54618Y30305
X54930Y30305
X54930Y31055
X55243Y31055
X54618Y31055
X51305Y27180
X50930Y27180
X50555Y27180
X50180Y27180
X49805Y27180
X49430Y27180
X51305Y26805
X49243Y30305
X49243Y30618
X48930Y30618
X48618Y30618
X48618Y30305
X48930Y30305
X48930Y31055
X49243Y31055
X48618Y31055
X68618Y31055
X68930Y31055
X69243Y31055
X69243Y30618
X69243Y30305
X68930Y30305
X68618Y30305
X68618Y30618
X68930Y30618
X69930Y29930
X69930Y28930
T02
X65993Y17118
X66993Y16680
X64180Y13555
X63118Y12180
X62743Y10930
X52993Y16680
X51993Y17118
X50180Y13555
X49118Y12180
X48743Y10930
X38993Y16680
X37993Y17118
X36180Y13555
X35118Y12180
X34743Y10930
X24993Y16680
X23993Y17118
X22180Y13555
X21118Y12180
X20743Y10930
X10993Y16680
X9993Y17118
X8180Y13555
X7118Y12180
X6743Y10930
X6743Y43930
X7118Y45180
X8180Y46555
X9993Y50118
X10993Y49680
X21118Y45180
X20743Y43930
X22180Y46555
X23993Y50118
X24993Y49680
X34743Y43930
X35118Y45180
X36180Y46555
X37993Y50118
X38993Y49680
X49118Y45180
X48743Y43930
X50180Y46555
X51993Y50118
X52993Y49680
X62743Y43930
X63118Y45180
X64180Y46555
X65993Y50118
X66993Y49680
T03
X67631Y45442
X67631Y43796
X64229Y43796
X64229Y45442
X53631Y45442
X53631Y43796
X50229Y43796
X50229Y45442
X39631Y45442
X39631Y43796
X36229Y43796
X36229Y45442
X25631Y45442
X25631Y43796
X22229Y43796
X22229Y45442
X11631Y45442
X11631Y43796
X8229Y43796
X8229Y45442
X8229Y12442
X8229Y10796
X11631Y10796
X11631Y12442
X22229Y12442
X22229Y10796
X25631Y10796
X25631Y12442
X36229Y12442
X36229Y10796
X39631Y10796
X39631Y12442
X50229Y12442
X50229Y10796
X53631Y10796
X53631Y12442
X64229Y12442
X64229Y10796
X67631Y10796
X67631Y12442
T04
X67068Y12233
X64792Y12233
X53068Y12233
X50792Y12233
X39068Y12233
X36792Y12233
X25068Y12233
X22792Y12233
X11068Y12233
X8792Y12233
X8792Y45233
X11068Y45233
X22792Y45233
X25068Y45233
X36792Y45233
X39068Y45233
X50792Y45233
X53068Y45233
X64792Y45233
X67068Y45233
T05
X67680Y46555
X68305Y46555
X67368Y47805
X63743Y47680
X64243Y51305
X67055Y52118
X63243Y59626
X53055Y52118
X50243Y51305
X49743Y47680
X53368Y47805
X53680Y46555
X54305Y46555
X40305Y46555
X39680Y46555
X39368Y47805
X35743Y47680
X36243Y51305
X39055Y52118
X35243Y59626
X25055Y52118
X22243Y51305
X21743Y47680
X25368Y47805
X25680Y46555
X26305Y46555
X12305Y46555
X11680Y46555
X11368Y47805
X7743Y47680
X8243Y51305
X11055Y52118
X7243Y59626
X21243Y59626
X49243Y59626
X49243Y26626
X53055Y19118
X50243Y18305
X49743Y14680
X53368Y14805
X53680Y13555
X54305Y13555
X63743Y14680
X67368Y14805
X67680Y13555
X68305Y13555
X64243Y18305
X67055Y19118
X63243Y26626
X40305Y13555
X39680Y13555
X39368Y14805
X35743Y14680
X36243Y18305
X39055Y19118
X35243Y26626
X25055Y19118
X22243Y18305
X21743Y14680
X25368Y14805
X25680Y13555
X26305Y13555
X12305Y13555
X11680Y13555
X11368Y14805
X7743Y14680
X8243Y18305
X11055Y19118
X7243Y26626
X21243Y26626
T06
X19430Y26430
X19430Y27430
X18430Y27430
X18430Y26430
X18430Y25430
X18430Y24430
X18430Y23430
X19430Y23430
X19430Y24430
X19430Y25430
X19430Y22430
X19430Y21430
X19430Y20430
X18430Y20430
X18430Y21430
X18430Y22430
X18430Y19430
X18430Y18430
X19430Y18430
X19430Y19430
X19430Y17430
X19430Y16430
X19430Y15430
X18430Y15430
X18430Y16430
X18430Y17430
X18430Y14430
X18430Y13430
X18430Y12430
X19430Y12430
X19430Y13430
X19430Y14430
X19430Y11430
X19430Y10430
X18430Y10430
X18430Y11430
X15430Y11430
X15430Y10430
X14430Y10430
X14430Y11430
X14430Y12430
X14430Y13430
X14430Y14430
X14430Y15430
X14430Y16430
X14430Y17430
X14430Y18430
X14430Y19430
X14430Y20430
X14430Y21430
X14430Y22430
X14430Y23430
X14430Y24430
X14430Y25430
X14430Y26430
X14430Y27430
X14430Y28430
X14430Y29430
X15430Y29430
X15430Y28430
X15430Y27430
X15430Y26430
X15430Y25430
X15430Y24430
X15430Y23430
X15430Y22430
X15430Y21430
X15430Y20430
X15430Y19430
X15430Y18430
X15430Y17430
X15430Y16430
X15430Y15430
X15430Y14430
X15430Y13430
X15430Y12430
X5430Y12430
X5430Y13430
X5430Y14430
X5430Y15430
X5430Y16430
X5430Y17430
X5430Y18430
X5430Y19430
X5430Y20430
X5430Y21430
X5430Y22430
X5430Y23430
X5430Y24430
X5430Y25430
X5430Y26430
X5430Y27430
X5430Y28430
X5430Y29430
X4430Y29430
X4430Y28430
X4430Y27430
X4430Y26430
X4430Y25430
X4430Y24430
X4430Y23430
X4430Y22430
X4430Y21430
X4430Y20430
X4430Y19430
X4430Y18430
X4430Y17430
X4430Y16430
X4430Y15430
X4430Y14430
X4430Y13430
X4430Y12430
X4430Y11430
X4430Y10430
X5430Y10430
X5430Y11430
X18430Y28430
X18430Y29430
X19430Y29430
X19430Y28430
X28430Y28430
X28430Y29430
X29430Y29430
X29430Y28430
X29430Y27430
X29430Y26430
X28430Y26430
X28430Y27430
X28430Y25430
X28430Y24430
X28430Y23430
X29430Y23430
X29430Y24430
X29430Y25430
X29430Y22430
X29430Y21430
X29430Y20430
X28430Y20430
X28430Y21430
X28430Y22430
X28430Y19430
X28430Y18430
X29430Y18430
X29430Y19430
X29430Y17430
X29430Y16430
X29430Y15430
X28430Y15430
X28430Y16430
X28430Y17430
X28430Y14430
X28430Y13430
X28430Y12430
X29430Y12430
X29430Y13430
X29430Y14430
X29430Y11430
X29430Y10430
X28430Y10430
X28430Y11430
X32430Y11430
X32430Y10430
X33430Y10430
X33430Y11430
X33430Y12430
X33430Y13430
X33430Y14430
X33430Y15430
X33430Y16430
X33430Y17430
X33430Y18430
X33430Y19430
X33430Y20430
X33430Y21430
X33430Y22430
X33430Y23430
X33430Y24430
X33430Y25430
X33430Y26430
X33430Y27430
X33430Y28430
X33430Y29430
X32430Y29430
X32430Y28430
X32430Y27430
X32430Y26430
X32430Y25430
X32430Y24430
X32430Y23430
X32430Y22430
X32430Y21430
X32430Y20430
X32430Y19430
X32430Y18430
X32430Y17430
X32430Y16430
X32430Y15430
X32430Y14430
X32430Y13430
X32430Y12430
X42430Y12430
X42430Y13430
X42430Y14430
X42430Y15430
X42430Y16430
X42430Y17430
X42430Y18430
X42430Y19430
X42430Y20430
X42430Y21430
X42430Y22430
X42430Y23430
X42430Y24430
X42430Y25430
X42430Y26430
X42430Y27430
X42430Y28430
X42430Y29430
X43430Y29430
X43430Y28430
X43430Y27430
X43430Y26430
X43430Y25430
X43430Y24430
X43430Y23430
X43430Y22430
X43430Y21430
X43430Y20430
X43430Y19430
X43430Y18430
X43430Y17430
X43430Y16430
X43430Y15430
X43430Y14430
X43430Y13430
X43430Y12430
X43430Y11430
X43430Y10430
X42430Y10430
X42430Y11430
X46430Y11430
X46430Y10430
X47430Y10430
X47430Y11430
X47430Y12430
X47430Y13430
X47430Y14430
X46430Y14430
X46430Y13430
X46430Y12430
X46430Y15430
X46430Y16430
X46430Y17430
X47430Y17430
X47430Y16430
X47430Y15430
X47430Y18430
X47430Y19430
X46430Y19430
X46430Y18430
X46430Y20430
X46430Y21430
X46430Y22430
X47430Y22430
X47430Y21430
X47430Y20430
X47430Y23430
X47430Y24430
X47430Y25430
X46430Y25430
X46430Y24430
X46430Y23430
X46430Y26430
X46430Y27430
X47430Y27430
X47430Y26430
X47430Y28430
X47430Y29430
X46430Y29430
X46430Y28430
X56430Y28430
X56430Y29430
X57430Y29430
X57430Y28430
X57430Y27430
X57430Y26430
X56430Y26430
X56430Y27430
X56430Y25430
X56430Y24430
X56430Y23430
X57430Y23430
X57430Y24430
X57430Y25430
X57430Y22430
X57430Y21430
X57430Y20430
X56430Y20430
X56430Y21430
X56430Y22430
X56430Y19430
X56430Y18430
X57430Y18430
X57430Y19430
X57430Y17430
X57430Y16430
X57430Y15430
X56430Y15430
X56430Y16430
X56430Y17430
X56430Y14430
X56430Y13430
X56430Y12430
X57430Y12430
X57430Y13430
X57430Y14430
X57430Y11430
X57430Y10430
X56430Y10430
X56430Y11430
X60430Y11430
X60430Y10430
X61430Y10430
X61430Y11430
X61430Y12430
X61430Y13430
X61430Y14430
X60430Y14430
X60430Y13430
X60430Y12430
X60430Y15430
X60430Y16430
X60430Y17430
X61430Y17430
X61430Y16430
X61430Y15430
X61430Y18430
X61430Y19430
X60430Y19430
X60430Y18430
X60430Y20430
X60430Y21430
X60430Y22430
X61430Y22430
X61430Y21430
X61430Y20430
X61430Y23430
X61430Y24430
X61430Y25430
X60430Y25430
X60430Y24430
X60430Y23430
X60430Y26430
X60430Y27430
X61430Y27430
X61430Y26430
X61430Y28430
X61430Y29430
X60430Y29430
X60430Y28430
X70430Y28430
X70430Y29430
X71430Y29430
X71430Y28430
X71430Y27430
X71430Y26430
X71430Y25430
X71430Y24430
X71430Y23430
X71430Y22430
X71430Y21430
X71430Y20430
X71430Y19430
X71430Y18430
X71430Y17430
X71430Y16430
X71430Y15430
X71430Y14430
X71430Y13430
X71430Y12430
X71430Y11430
X71430Y10430
X70430Y10430
X70430Y11430
X70430Y12430
X70430Y13430
X70430Y14430
X70430Y15430
X70430Y16430
X70430Y17430
X70430Y18430
X70430Y19430
X70430Y20430
X70430Y21430
X70430Y22430
X70430Y23430
X70430Y24430
X70430Y25430
X70430Y26430
X70430Y27430
X70430Y43430
X70430Y44430
X70430Y45430
X70430Y46430
X70430Y47430
X70430Y48430
X70430Y49430
X70430Y50430
X70430Y51430
X70430Y52430
X70430Y53430
X70430Y54430
X70430Y55430
X70430Y56430
X70430Y57430
X70430Y58430
X70430Y59430
X70430Y60430
X70430Y61430
X70430Y62430
X71430Y62430
X71430Y61430
X71430Y60430
X71430Y59430
X71430Y58430
X71430Y57430
X71430Y56430
X71430Y55430
X71430Y54430
X71430Y53430
X71430Y52430
X71430Y51430
X71430Y50430
X71430Y49430
X71430Y48430
X71430Y47430
X71430Y46430
X71430Y45430
X71430Y44430
X71430Y43430
X61430Y43430
X61430Y44430
X60430Y44430
X60430Y43430
X60430Y45430
X60430Y46430
X61430Y46430
X61430Y45430
X61430Y47430
X61430Y48430
X61430Y49430
X60430Y49430
X60430Y48430
X60430Y47430
X60430Y50430
X60430Y51430
X60430Y52430
X61430Y52430
X61430Y51430
X61430Y50430
X61430Y53430
X61430Y54430
X60430Y54430
X60430Y53430
X60430Y55430
X60430Y56430
X60430Y57430
X61430Y57430
X61430Y56430
X61430Y55430
X61430Y58430
X61430Y59430
X61430Y60430
X60430Y60430
X60430Y59430
X60430Y58430
X60430Y61430
X60430Y62430
X61430Y62430
X61430Y61430
X57430Y61430
X57430Y62430
X56430Y62430
X56430Y61430
X56430Y60430
X56430Y59430
X56430Y58430
X57430Y58430
X57430Y59430
X57430Y60430
X57430Y57430
X57430Y56430
X57430Y55430
X56430Y55430
X56430Y56430
X56430Y57430
X56430Y54430
X56430Y53430
X57430Y53430
X57430Y54430
X57430Y52430
X57430Y51430
X57430Y50430
X56430Y50430
X56430Y51430
X56430Y52430
X56430Y49430
X56430Y48430
X56430Y47430
X57430Y47430
X57430Y48430
X57430Y49430
X57430Y46430
X57430Y45430
X56430Y45430
X56430Y46430
X56430Y44430
X56430Y43430
X57430Y43430
X57430Y44430
X47430Y44430
X47430Y43430
X46430Y43430
X46430Y44430
X46430Y45430
X46430Y46430
X47430Y46430
X47430Y45430
X47430Y47430
X47430Y48430
X47430Y49430
X46430Y49430
X46430Y48430
X46430Y47430
X46430Y50430
X46430Y51430
X46430Y52430
X47430Y52430
X47430Y51430
X47430Y50430
X47430Y53430
X47430Y54430
X46430Y54430
X46430Y53430
X46430Y55430
X46430Y56430
X46430Y57430
X47430Y57430
X47430Y56430
X47430Y55430
X47430Y58430
X47430Y59430
X47430Y60430
X46430Y60430
X46430Y59430
X46430Y58430
X46430Y61430
X46430Y62430
X47430Y62430
X47430Y61430
X43430Y61430
X43430Y62430
X42430Y62430
X42430Y61430
X42430Y60430
X42430Y59430
X42430Y58430
X42430Y57430
X42430Y56430
X42430Y55430
X42430Y54430
X42430Y53430
X42430Y52430
X42430Y51430
X42430Y50430
X42430Y49430
X42430Y48430
X42430Y47430
X42430Y46430
X42430Y45430
X42430Y44430
X42430Y43430
X43430Y43430
X43430Y44430
X43430Y45430
X43430Y46430
X43430Y47430
X43430Y48430
X43430Y49430
X43430Y50430
X43430Y51430
X43430Y52430
X43430Y53430
X43430Y54430
X43430Y55430
X43430Y56430
X43430Y57430
X43430Y58430
X43430Y59430
X43430Y60430
X33430Y60430
X33430Y59430
X33430Y58430
X33430Y57430
X33430Y56430
X33430Y55430
X33430Y54430
X33430Y53430
X33430Y52430
X33430Y51430
X33430Y50430
X33430Y49430
X33430Y48430
X33430Y47430
X33430Y46430
X33430Y45430
X33430Y44430
X33430Y43430
X32430Y43430
X32430Y44430
X32430Y45430
X32430Y46430
X32430Y47430
X32430Y48430
X32430Y49430
X32430Y50430
X32430Y51430
X32430Y52430
X32430Y53430
X32430Y54430
X32430Y55430
X32430Y56430
X32430Y57430
X32430Y58430
X32430Y59430
X32430Y60430
X32430Y61430
X32430Y62430
X33430Y62430
X33430Y61430
X29430Y61430
X29430Y62430
X28430Y62430
X28430Y61430
X28430Y60430
X28430Y59430
X28430Y58430
X29430Y58430
X29430Y59430
X29430Y60430
X29430Y57430
X29430Y56430
X29430Y55430
X28430Y55430
X28430Y56430
X28430Y57430
X28430Y54430
X28430Y53430
X29430Y53430
X29430Y54430
X29430Y52430
X29430Y51430
X29430Y50430
X28430Y50430
X28430Y51430
X28430Y52430
X28430Y49430
X28430Y48430
X28430Y47430
X29430Y47430
X29430Y48430
X29430Y49430
X29430Y46430
X29430Y45430
X28430Y45430
X28430Y46430
X28430Y44430
X28430Y43430
X29430Y43430
X29430Y44430
X19430Y44430
X19430Y43430
X18430Y43430
X18430Y44430
X18430Y45430
X18430Y46430
X19430Y46430
X19430Y45430
X19430Y47430
X19430Y48430
X19430Y49430
X18430Y49430
X18430Y48430
X18430Y47430
X18430Y50430
X18430Y51430
X18430Y52430
X19430Y52430
X19430Y51430
X19430Y50430
X19430Y53430
X19430Y54430
X18430Y54430
X18430Y53430
X18430Y55430
X18430Y56430
X18430Y57430
X19430Y57430
X19430Y56430
X19430Y55430
X19430Y58430
X19430Y59430
X19430Y60430
X18430Y60430
X18430Y59430
X18430Y58430
X18430Y61430
X18430Y62430
X19430Y62430
X19430Y61430
X15430Y61430
X15430Y62430
X14430Y62430
X14430Y61430
X14430Y60430
X14430Y59430
X14430Y58430
X14430Y57430
X14430Y56430
X14430Y55430
X14430Y54430
X14430Y53430
X14430Y52430
X14430Y51430
X14430Y50430
X14430Y49430
X14430Y48430
X14430Y47430
X14430Y46430
X14430Y45430
X14430Y44430
X14430Y43430
X15430Y43430
X15430Y44430
X15430Y45430
X15430Y46430
X15430Y47430
X15430Y48430
X15430Y49430
X15430Y50430
X15430Y51430
X15430Y52430
X15430Y53430
X15430Y54430
X15430Y55430
X15430Y56430
X15430Y57430
X15430Y58430
X15430Y59430
X15430Y60430
X5430Y60430
X5430Y59430
X5430Y58430
X5430Y57430
X5430Y56430
X5430Y55430
X5430Y54430
X5430Y53430
X5430Y52430
X5430Y51430
X5430Y50430
X5430Y49430
X5430Y48430
X5430Y47430
X5430Y46430
X5430Y45430
X5430Y44430
X5430Y43430
X4430Y43430
X4430Y44430
X4430Y45430
X4430Y46430
X4430Y47430
X4430Y48430
X4430Y49430
X4430Y50430
X4430Y51430
X4430Y52430
X4430Y53430
X4430Y54430
X4430Y55430
X4430Y56430
X4430Y57430
X4430Y58430
X4430Y59430
X4430Y60430
X4430Y61430
X4430Y62430
X5430Y62430
X5430Y61430
T07
X1680Y1680
X3680Y1680
X5680Y1680
X7680Y1680
X9680Y1680
X1680Y7680
X1680Y36430
X3680Y36430
X5680Y36430
X7680Y36430
X9680Y36430
X1680Y65180
X1680Y71180
X3680Y71180
X5680Y71180
X7680Y71180
X9680Y71180
X66180Y71180
X68180Y71180
X70180Y71180
X72180Y71180
X74180Y71180
X74180Y65180
X74180Y36430
X72180Y36430
X70180Y36430
X68180Y36430
X66180Y36430
X74180Y7680
X74180Y1680
X72180Y1680
X70180Y1680
X68180Y1680
X66180Y1680
M30
