G75*
%MOIN*%
%OFA0B0*%
%FSLAX25Y25*%
%IPPOS*%
%LPD*%
%AMOC8*
5,1,8,0,0,1.08239X$1,22.5*
%
%ADD10C,0.13198*%
%ADD11C,0.02569*%
%ADD12C,0.09261*%
%ADD13C,0.08000*%
D10*
X0016427Y0041170D03*
X0016427Y0383690D03*
X0654222Y0383690D03*
X0654222Y0041170D03*
D11*
X0500679Y0025422D03*
X0500679Y0021485D03*
X0500679Y0017548D03*
X0496742Y0017548D03*
X0496742Y0021485D03*
X0496742Y0025422D03*
X0492805Y0025422D03*
X0492805Y0021485D03*
X0492805Y0017548D03*
X0177844Y0017548D03*
X0173907Y0017548D03*
X0169970Y0017548D03*
X0169970Y0021485D03*
X0173907Y0021485D03*
X0177844Y0021485D03*
X0177844Y0025422D03*
X0173907Y0025422D03*
X0169970Y0025422D03*
X0169970Y0399438D03*
X0169970Y0403375D03*
X0169970Y0407312D03*
X0173907Y0407312D03*
X0177844Y0407312D03*
X0177844Y0403375D03*
X0173907Y0403375D03*
X0173907Y0399438D03*
X0177844Y0399438D03*
X0492805Y0399438D03*
X0496742Y0399438D03*
X0500679Y0399438D03*
X0500679Y0403375D03*
X0500679Y0407312D03*
X0496742Y0407312D03*
X0496742Y0403375D03*
X0492805Y0403375D03*
X0492805Y0407312D03*
D12*
X0016427Y0008690D03*
X0016427Y0416170D03*
X0654222Y0416170D03*
X0654222Y0008690D03*
D13*
X0650324Y0067430D03*
X0640324Y0067430D03*
X0630324Y0067430D03*
X0620324Y0067430D03*
X0610324Y0067430D03*
X0600324Y0067430D03*
X0590324Y0067430D03*
X0580324Y0067430D03*
X0570324Y0067430D03*
X0560324Y0067430D03*
X0550324Y0067430D03*
X0540324Y0067430D03*
X0530324Y0067430D03*
X0520324Y0067430D03*
X0510324Y0067430D03*
X0500324Y0067430D03*
X0490324Y0067430D03*
X0480324Y0067430D03*
X0470324Y0067430D03*
X0460324Y0067430D03*
X0450324Y0067430D03*
X0440324Y0067430D03*
X0430324Y0067430D03*
X0420324Y0067430D03*
X0410324Y0067430D03*
X0400324Y0067430D03*
X0390324Y0067430D03*
X0380324Y0067430D03*
X0370324Y0067430D03*
X0360324Y0067430D03*
X0350324Y0067430D03*
X0340324Y0067430D03*
X0330324Y0067430D03*
X0320324Y0067430D03*
X0310324Y0067430D03*
X0300324Y0067430D03*
X0290324Y0067430D03*
X0280324Y0067430D03*
X0270324Y0067430D03*
X0260324Y0067430D03*
X0250324Y0067430D03*
X0240324Y0067430D03*
X0230324Y0067430D03*
X0220324Y0067430D03*
X0210324Y0067430D03*
X0200324Y0067430D03*
X0190324Y0067430D03*
X0180324Y0067430D03*
X0170324Y0067430D03*
X0160324Y0067430D03*
X0150324Y0067430D03*
X0140324Y0067430D03*
X0130324Y0067430D03*
X0120324Y0067430D03*
X0110324Y0067430D03*
X0100324Y0067430D03*
X0090324Y0067430D03*
X0080324Y0067430D03*
X0070324Y0067430D03*
X0060324Y0067430D03*
X0050324Y0067430D03*
X0040324Y0067430D03*
X0030324Y0067430D03*
X0020324Y0067430D03*
X0020324Y0077430D03*
X0030324Y0077430D03*
X0030324Y0087430D03*
X0020324Y0087430D03*
X0020324Y0097430D03*
X0030324Y0097430D03*
X0040324Y0097430D03*
X0050324Y0097430D03*
X0050324Y0087430D03*
X0040324Y0087430D03*
X0040324Y0077430D03*
X0050324Y0077430D03*
X0060324Y0077430D03*
X0070324Y0077430D03*
X0080324Y0077430D03*
X0080324Y0087430D03*
X0070324Y0087430D03*
X0060324Y0087430D03*
X0060324Y0097430D03*
X0070324Y0097430D03*
X0080324Y0097430D03*
X0090324Y0097430D03*
X0100324Y0097430D03*
X0100324Y0087430D03*
X0090324Y0087430D03*
X0090324Y0077430D03*
X0100324Y0077430D03*
X0110324Y0077430D03*
X0120324Y0077430D03*
X0120324Y0087430D03*
X0110324Y0087430D03*
X0110324Y0097430D03*
X0120324Y0097430D03*
X0130324Y0097430D03*
X0140324Y0097430D03*
X0140324Y0087430D03*
X0130324Y0087430D03*
X0130324Y0077430D03*
X0140324Y0077430D03*
X0150324Y0077430D03*
X0160324Y0077430D03*
X0160324Y0087430D03*
X0150324Y0087430D03*
X0150324Y0097430D03*
X0160324Y0097430D03*
X0170324Y0097430D03*
X0180324Y0097430D03*
X0180324Y0087430D03*
X0170324Y0087430D03*
X0170324Y0077430D03*
X0180324Y0077430D03*
X0190324Y0077430D03*
X0200324Y0077430D03*
X0200324Y0087430D03*
X0190324Y0087430D03*
X0190324Y0097430D03*
X0200324Y0097430D03*
X0210324Y0097430D03*
X0220324Y0097430D03*
X0220324Y0087430D03*
X0210324Y0087430D03*
X0210324Y0077430D03*
X0220324Y0077430D03*
X0230324Y0077430D03*
X0240324Y0077430D03*
X0240324Y0087430D03*
X0230324Y0087430D03*
X0230324Y0097430D03*
X0240324Y0097430D03*
X0250324Y0097430D03*
X0260324Y0097430D03*
X0260324Y0087430D03*
X0250324Y0087430D03*
X0250324Y0077430D03*
X0260324Y0077430D03*
X0270324Y0077430D03*
X0280324Y0077430D03*
X0280324Y0087430D03*
X0270324Y0087430D03*
X0270324Y0097430D03*
X0280324Y0097430D03*
X0290324Y0097430D03*
X0300324Y0097430D03*
X0300324Y0087430D03*
X0290324Y0087430D03*
X0290324Y0077430D03*
X0300324Y0077430D03*
X0310324Y0077430D03*
X0320324Y0077430D03*
X0320324Y0087430D03*
X0310324Y0087430D03*
X0310324Y0097430D03*
X0320324Y0097430D03*
X0330324Y0097430D03*
X0340324Y0097430D03*
X0340324Y0087430D03*
X0330324Y0087430D03*
X0330324Y0077430D03*
X0340324Y0077430D03*
X0350324Y0077430D03*
X0360324Y0077430D03*
X0360324Y0087430D03*
X0350324Y0087430D03*
X0350324Y0097430D03*
X0360324Y0097430D03*
X0370324Y0097430D03*
X0380324Y0097430D03*
X0380324Y0087430D03*
X0370324Y0087430D03*
X0370324Y0077430D03*
X0380324Y0077430D03*
X0390324Y0077430D03*
X0400324Y0077430D03*
X0400324Y0087430D03*
X0390324Y0087430D03*
X0390324Y0097430D03*
X0400324Y0097430D03*
X0410324Y0097430D03*
X0420324Y0097430D03*
X0420324Y0087430D03*
X0410324Y0087430D03*
X0410324Y0077430D03*
X0420324Y0077430D03*
X0430324Y0077430D03*
X0440324Y0077430D03*
X0440324Y0087430D03*
X0430324Y0087430D03*
X0430324Y0097430D03*
X0440324Y0097430D03*
X0450324Y0097430D03*
X0460324Y0097430D03*
X0460324Y0087430D03*
X0450324Y0087430D03*
X0450324Y0077430D03*
X0460324Y0077430D03*
X0470324Y0077430D03*
X0480324Y0077430D03*
X0480324Y0087430D03*
X0470324Y0087430D03*
X0470324Y0097430D03*
X0480324Y0097430D03*
X0490324Y0097430D03*
X0500324Y0097430D03*
X0500324Y0087430D03*
X0490324Y0087430D03*
X0490324Y0077430D03*
X0500324Y0077430D03*
X0510324Y0077430D03*
X0520324Y0077430D03*
X0520324Y0087430D03*
X0510324Y0087430D03*
X0510324Y0097430D03*
X0520324Y0097430D03*
X0530324Y0097430D03*
X0540324Y0097430D03*
X0540324Y0087430D03*
X0530324Y0087430D03*
X0530324Y0077430D03*
X0540324Y0077430D03*
X0550324Y0077430D03*
X0560324Y0077430D03*
X0560324Y0087430D03*
X0550324Y0087430D03*
X0550324Y0097430D03*
X0560324Y0097430D03*
X0570324Y0097430D03*
X0580324Y0097430D03*
X0580324Y0087430D03*
X0570324Y0087430D03*
X0570324Y0077430D03*
X0580324Y0077430D03*
X0590324Y0077430D03*
X0600324Y0077430D03*
X0600324Y0087430D03*
X0590324Y0087430D03*
X0590324Y0097430D03*
X0600324Y0097430D03*
X0610324Y0097430D03*
X0620324Y0097430D03*
X0620324Y0087430D03*
X0610324Y0087430D03*
X0610324Y0077430D03*
X0620324Y0077430D03*
X0630324Y0077430D03*
X0640324Y0077430D03*
X0640324Y0087430D03*
X0630324Y0087430D03*
X0630324Y0097430D03*
X0640324Y0097430D03*
X0650324Y0097430D03*
X0650324Y0087430D03*
X0650324Y0077430D03*
X0650324Y0107430D03*
X0640324Y0107430D03*
X0630324Y0107430D03*
X0620324Y0107430D03*
X0610324Y0107430D03*
X0600324Y0107430D03*
X0590324Y0107430D03*
X0580324Y0107430D03*
X0570324Y0107430D03*
X0560324Y0107430D03*
X0550324Y0107430D03*
X0540324Y0107430D03*
X0530324Y0107430D03*
X0520324Y0107430D03*
X0510324Y0107430D03*
X0500324Y0107430D03*
X0490324Y0107430D03*
X0480324Y0107430D03*
X0470324Y0107430D03*
X0460324Y0107430D03*
X0450324Y0107430D03*
X0440324Y0107430D03*
X0430324Y0107430D03*
X0420324Y0107430D03*
X0410324Y0107430D03*
X0400324Y0107430D03*
X0390324Y0107430D03*
X0380324Y0107430D03*
X0370324Y0107430D03*
X0360324Y0107430D03*
X0350324Y0107430D03*
X0340324Y0107430D03*
X0330324Y0107430D03*
X0320324Y0107430D03*
X0310324Y0107430D03*
X0300324Y0107430D03*
X0290324Y0107430D03*
X0280324Y0107430D03*
X0270324Y0107430D03*
X0260324Y0107430D03*
X0250324Y0107430D03*
X0240324Y0107430D03*
X0230324Y0107430D03*
X0220324Y0107430D03*
X0210324Y0107430D03*
X0200324Y0107430D03*
X0190324Y0107430D03*
X0180324Y0107430D03*
X0170324Y0107430D03*
X0160324Y0107430D03*
X0150324Y0107430D03*
X0140324Y0107430D03*
X0130324Y0107430D03*
X0120324Y0107430D03*
X0110324Y0107430D03*
X0100324Y0107430D03*
X0090324Y0107430D03*
X0080324Y0107430D03*
X0070324Y0107430D03*
X0060324Y0107430D03*
X0050324Y0107430D03*
X0040324Y0107430D03*
X0030324Y0107430D03*
X0020324Y0107430D03*
X0020324Y0117430D03*
X0030324Y0117430D03*
X0030324Y0127430D03*
X0020324Y0127430D03*
X0020324Y0137430D03*
X0030324Y0137430D03*
X0030324Y0147430D03*
X0020324Y0147430D03*
X0020324Y0157430D03*
X0030324Y0157430D03*
X0030324Y0167430D03*
X0020324Y0167430D03*
X0020324Y0177430D03*
X0030324Y0177430D03*
X0040324Y0177430D03*
X0050324Y0177430D03*
X0050324Y0167430D03*
X0040324Y0167430D03*
X0040324Y0157430D03*
X0050324Y0157430D03*
X0060324Y0157430D03*
X0070324Y0157430D03*
X0080324Y0157430D03*
X0080324Y0167430D03*
X0070324Y0167430D03*
X0060324Y0167430D03*
X0060324Y0177430D03*
X0070324Y0177430D03*
X0080324Y0177430D03*
X0090324Y0177430D03*
X0100324Y0177430D03*
X0100324Y0167430D03*
X0090324Y0167430D03*
X0090324Y0157430D03*
X0100324Y0157430D03*
X0110324Y0157430D03*
X0120324Y0157430D03*
X0120324Y0167430D03*
X0110324Y0167430D03*
X0110324Y0177430D03*
X0120324Y0177430D03*
X0130324Y0177430D03*
X0140324Y0177430D03*
X0140324Y0167430D03*
X0130324Y0167430D03*
X0130324Y0157430D03*
X0140324Y0157430D03*
X0150324Y0157430D03*
X0160324Y0157430D03*
X0160324Y0167430D03*
X0150324Y0167430D03*
X0150324Y0177430D03*
X0160324Y0177430D03*
X0170324Y0177430D03*
X0180324Y0177430D03*
X0180324Y0167430D03*
X0170324Y0167430D03*
X0170324Y0157430D03*
X0180324Y0157430D03*
X0190324Y0157430D03*
X0200324Y0157430D03*
X0200324Y0167430D03*
X0190324Y0167430D03*
X0190324Y0177430D03*
X0200324Y0177430D03*
X0210324Y0177430D03*
X0220324Y0177430D03*
X0220324Y0167430D03*
X0210324Y0167430D03*
X0210324Y0157430D03*
X0220324Y0157430D03*
X0230324Y0157430D03*
X0240324Y0157430D03*
X0240324Y0167430D03*
X0230324Y0167430D03*
X0230324Y0177430D03*
X0240324Y0177430D03*
X0250324Y0177430D03*
X0260324Y0177430D03*
X0260324Y0167430D03*
X0250324Y0167430D03*
X0250324Y0157430D03*
X0260324Y0157430D03*
X0270324Y0157430D03*
X0280324Y0157430D03*
X0280324Y0167430D03*
X0270324Y0167430D03*
X0270324Y0177430D03*
X0280324Y0177430D03*
X0290324Y0177430D03*
X0300324Y0177430D03*
X0300324Y0167430D03*
X0290324Y0167430D03*
X0290324Y0157430D03*
X0300324Y0157430D03*
X0310324Y0157430D03*
X0320324Y0157430D03*
X0320324Y0167430D03*
X0310324Y0167430D03*
X0310324Y0177430D03*
X0320324Y0177430D03*
X0330324Y0177430D03*
X0340324Y0177430D03*
X0340324Y0167430D03*
X0330324Y0167430D03*
X0330324Y0157430D03*
X0340324Y0157430D03*
X0350324Y0157430D03*
X0360324Y0157430D03*
X0360324Y0167430D03*
X0350324Y0167430D03*
X0350324Y0177430D03*
X0360324Y0177430D03*
X0370324Y0177430D03*
X0380324Y0177430D03*
X0380324Y0167430D03*
X0370324Y0167430D03*
X0370324Y0157430D03*
X0380324Y0157430D03*
X0390324Y0157430D03*
X0400324Y0157430D03*
X0400324Y0167430D03*
X0390324Y0167430D03*
X0390324Y0177430D03*
X0400324Y0177430D03*
X0410324Y0177430D03*
X0420324Y0177430D03*
X0420324Y0167430D03*
X0410324Y0167430D03*
X0410324Y0157430D03*
X0420324Y0157430D03*
X0430324Y0157430D03*
X0440324Y0157430D03*
X0440324Y0167430D03*
X0430324Y0167430D03*
X0430324Y0177430D03*
X0440324Y0177430D03*
X0450324Y0177430D03*
X0460324Y0177430D03*
X0460324Y0167430D03*
X0450324Y0167430D03*
X0450324Y0157430D03*
X0460324Y0157430D03*
X0470324Y0157430D03*
X0480324Y0157430D03*
X0480324Y0167430D03*
X0470324Y0167430D03*
X0470324Y0177430D03*
X0480324Y0177430D03*
X0490324Y0177430D03*
X0500324Y0177430D03*
X0500324Y0167430D03*
X0490324Y0167430D03*
X0490324Y0157430D03*
X0500324Y0157430D03*
X0510324Y0157430D03*
X0520324Y0157430D03*
X0520324Y0167430D03*
X0510324Y0167430D03*
X0510324Y0177430D03*
X0520324Y0177430D03*
X0530324Y0177430D03*
X0540324Y0177430D03*
X0540324Y0167430D03*
X0530324Y0167430D03*
X0530324Y0157430D03*
X0540324Y0157430D03*
X0550324Y0157430D03*
X0560324Y0157430D03*
X0560324Y0167430D03*
X0550324Y0167430D03*
X0550324Y0177430D03*
X0560324Y0177430D03*
X0570324Y0177430D03*
X0580324Y0177430D03*
X0580324Y0167430D03*
X0570324Y0167430D03*
X0570324Y0157430D03*
X0580324Y0157430D03*
X0590324Y0157430D03*
X0600324Y0157430D03*
X0600324Y0167430D03*
X0590324Y0167430D03*
X0590324Y0177430D03*
X0600324Y0177430D03*
X0610324Y0177430D03*
X0620324Y0177430D03*
X0620324Y0167430D03*
X0610324Y0167430D03*
X0610324Y0157430D03*
X0620324Y0157430D03*
X0630324Y0157430D03*
X0640324Y0157430D03*
X0640324Y0167430D03*
X0630324Y0167430D03*
X0630324Y0177430D03*
X0640324Y0177430D03*
X0650324Y0177430D03*
X0650324Y0167430D03*
X0650324Y0157430D03*
X0650324Y0147430D03*
X0640324Y0147430D03*
X0630324Y0147430D03*
X0620324Y0147430D03*
X0610324Y0147430D03*
X0600324Y0147430D03*
X0590324Y0147430D03*
X0580324Y0147430D03*
X0570324Y0147430D03*
X0560324Y0147430D03*
X0550324Y0147430D03*
X0540324Y0147430D03*
X0530324Y0147430D03*
X0520324Y0147430D03*
X0510324Y0147430D03*
X0500324Y0147430D03*
X0490324Y0147430D03*
X0480324Y0147430D03*
X0470324Y0147430D03*
X0460324Y0147430D03*
X0450324Y0147430D03*
X0440324Y0147430D03*
X0430324Y0147430D03*
X0420324Y0147430D03*
X0410324Y0147430D03*
X0400324Y0147430D03*
X0390324Y0147430D03*
X0380324Y0147430D03*
X0370324Y0147430D03*
X0360324Y0147430D03*
X0350324Y0147430D03*
X0340324Y0147430D03*
X0330324Y0147430D03*
X0320324Y0147430D03*
X0310324Y0147430D03*
X0300324Y0147430D03*
X0290324Y0147430D03*
X0280324Y0147430D03*
X0270324Y0147430D03*
X0260324Y0147430D03*
X0250324Y0147430D03*
X0240324Y0147430D03*
X0230324Y0147430D03*
X0220324Y0147430D03*
X0210324Y0147430D03*
X0200324Y0147430D03*
X0190324Y0147430D03*
X0180324Y0147430D03*
X0170324Y0147430D03*
X0160324Y0147430D03*
X0150324Y0147430D03*
X0140324Y0147430D03*
X0130324Y0147430D03*
X0120324Y0147430D03*
X0110324Y0147430D03*
X0100324Y0147430D03*
X0090324Y0147430D03*
X0080324Y0147430D03*
X0070324Y0147430D03*
X0060324Y0147430D03*
X0050324Y0147430D03*
X0040324Y0147430D03*
X0040324Y0137430D03*
X0050324Y0137430D03*
X0060324Y0137430D03*
X0070324Y0137430D03*
X0080324Y0137430D03*
X0090324Y0137430D03*
X0100324Y0137430D03*
X0110324Y0137430D03*
X0120324Y0137430D03*
X0130324Y0137430D03*
X0140324Y0137430D03*
X0150324Y0137430D03*
X0160324Y0137430D03*
X0170324Y0137430D03*
X0180324Y0137430D03*
X0190324Y0137430D03*
X0200324Y0137430D03*
X0210324Y0137430D03*
X0220324Y0137430D03*
X0230324Y0137430D03*
X0240324Y0137430D03*
X0250324Y0137430D03*
X0260324Y0137430D03*
X0270324Y0137430D03*
X0280324Y0137430D03*
X0290324Y0137430D03*
X0300324Y0137430D03*
X0310324Y0137430D03*
X0320324Y0137430D03*
X0330324Y0137430D03*
X0340324Y0137430D03*
X0350324Y0137430D03*
X0360324Y0137430D03*
X0370324Y0137430D03*
X0380324Y0137430D03*
X0390324Y0137430D03*
X0400324Y0137430D03*
X0410324Y0137430D03*
X0420324Y0137430D03*
X0430324Y0137430D03*
X0440324Y0137430D03*
X0450324Y0137430D03*
X0460324Y0137430D03*
X0470324Y0137430D03*
X0480324Y0137430D03*
X0490324Y0137430D03*
X0500324Y0137430D03*
X0510324Y0137430D03*
X0520324Y0137430D03*
X0530324Y0137430D03*
X0540324Y0137430D03*
X0550324Y0137430D03*
X0560324Y0137430D03*
X0570324Y0137430D03*
X0580324Y0137430D03*
X0590324Y0137430D03*
X0600324Y0137430D03*
X0610324Y0137430D03*
X0620324Y0137430D03*
X0630324Y0137430D03*
X0640324Y0137430D03*
X0650324Y0137430D03*
X0650324Y0127430D03*
X0640324Y0127430D03*
X0630324Y0127430D03*
X0620324Y0127430D03*
X0610324Y0127430D03*
X0600324Y0127430D03*
X0590324Y0127430D03*
X0580324Y0127430D03*
X0570324Y0127430D03*
X0560324Y0127430D03*
X0550324Y0127430D03*
X0540324Y0127430D03*
X0530324Y0127430D03*
X0520324Y0127430D03*
X0510324Y0127430D03*
X0500324Y0127430D03*
X0490324Y0127430D03*
X0480324Y0127430D03*
X0470324Y0127430D03*
X0460324Y0127430D03*
X0450324Y0127430D03*
X0440324Y0127430D03*
X0430324Y0127430D03*
X0420324Y0127430D03*
X0410324Y0127430D03*
X0400324Y0127430D03*
X0390324Y0127430D03*
X0380324Y0127430D03*
X0370324Y0127430D03*
X0360324Y0127430D03*
X0350324Y0127430D03*
X0340324Y0127430D03*
X0330324Y0127430D03*
X0320324Y0127430D03*
X0310324Y0127430D03*
X0300324Y0127430D03*
X0290324Y0127430D03*
X0280324Y0127430D03*
X0270324Y0127430D03*
X0260324Y0127430D03*
X0250324Y0127430D03*
X0240324Y0127430D03*
X0230324Y0127430D03*
X0220324Y0127430D03*
X0210324Y0127430D03*
X0200324Y0127430D03*
X0190324Y0127430D03*
X0180324Y0127430D03*
X0170324Y0127430D03*
X0160324Y0127430D03*
X0150324Y0127430D03*
X0140324Y0127430D03*
X0130324Y0127430D03*
X0120324Y0127430D03*
X0110324Y0127430D03*
X0100324Y0127430D03*
X0090324Y0127430D03*
X0080324Y0127430D03*
X0070324Y0127430D03*
X0060324Y0127430D03*
X0050324Y0127430D03*
X0040324Y0127430D03*
X0040324Y0117430D03*
X0050324Y0117430D03*
X0060324Y0117430D03*
X0070324Y0117430D03*
X0080324Y0117430D03*
X0090324Y0117430D03*
X0100324Y0117430D03*
X0110324Y0117430D03*
X0120324Y0117430D03*
X0130324Y0117430D03*
X0140324Y0117430D03*
X0150324Y0117430D03*
X0160324Y0117430D03*
X0170324Y0117430D03*
X0180324Y0117430D03*
X0190324Y0117430D03*
X0200324Y0117430D03*
X0210324Y0117430D03*
X0220324Y0117430D03*
X0230324Y0117430D03*
X0240324Y0117430D03*
X0250324Y0117430D03*
X0260324Y0117430D03*
X0270324Y0117430D03*
X0280324Y0117430D03*
X0290324Y0117430D03*
X0300324Y0117430D03*
X0310324Y0117430D03*
X0320324Y0117430D03*
X0330324Y0117430D03*
X0340324Y0117430D03*
X0350324Y0117430D03*
X0360324Y0117430D03*
X0370324Y0117430D03*
X0380324Y0117430D03*
X0390324Y0117430D03*
X0400324Y0117430D03*
X0410324Y0117430D03*
X0420324Y0117430D03*
X0430324Y0117430D03*
X0440324Y0117430D03*
X0450324Y0117430D03*
X0460324Y0117430D03*
X0470324Y0117430D03*
X0480324Y0117430D03*
X0490324Y0117430D03*
X0500324Y0117430D03*
X0510324Y0117430D03*
X0520324Y0117430D03*
X0530324Y0117430D03*
X0540324Y0117430D03*
X0550324Y0117430D03*
X0560324Y0117430D03*
X0570324Y0117430D03*
X0580324Y0117430D03*
X0590324Y0117430D03*
X0600324Y0117430D03*
X0610324Y0117430D03*
X0620324Y0117430D03*
X0630324Y0117430D03*
X0640324Y0117430D03*
X0650324Y0117430D03*
X0650324Y0187430D03*
X0640324Y0187430D03*
X0630324Y0187430D03*
X0620324Y0187430D03*
X0610324Y0187430D03*
X0600324Y0187430D03*
X0590324Y0187430D03*
X0580324Y0187430D03*
X0570324Y0187430D03*
X0560324Y0187430D03*
X0550324Y0187430D03*
X0540324Y0187430D03*
X0530324Y0187430D03*
X0520324Y0187430D03*
X0510324Y0187430D03*
X0500324Y0187430D03*
X0490324Y0187430D03*
X0480324Y0187430D03*
X0470324Y0187430D03*
X0460324Y0187430D03*
X0450324Y0187430D03*
X0440324Y0187430D03*
X0430324Y0187430D03*
X0420324Y0187430D03*
X0410324Y0187430D03*
X0400324Y0187430D03*
X0390324Y0187430D03*
X0380324Y0187430D03*
X0370324Y0187430D03*
X0360324Y0187430D03*
X0350324Y0187430D03*
X0340324Y0187430D03*
X0330324Y0187430D03*
X0320324Y0187430D03*
X0310324Y0187430D03*
X0300324Y0187430D03*
X0290324Y0187430D03*
X0280324Y0187430D03*
X0270324Y0187430D03*
X0260324Y0187430D03*
X0250324Y0187430D03*
X0240324Y0187430D03*
X0230324Y0187430D03*
X0220324Y0187430D03*
X0210324Y0187430D03*
X0200324Y0187430D03*
X0190324Y0187430D03*
X0180324Y0187430D03*
X0170324Y0187430D03*
X0160324Y0187430D03*
X0150324Y0187430D03*
X0140324Y0187430D03*
X0130324Y0187430D03*
X0120324Y0187430D03*
X0110324Y0187430D03*
X0100324Y0187430D03*
X0090324Y0187430D03*
X0080324Y0187430D03*
X0070324Y0187430D03*
X0060324Y0187430D03*
X0050324Y0187430D03*
X0040324Y0187430D03*
X0030324Y0187430D03*
X0020324Y0187430D03*
X0020324Y0197430D03*
X0030324Y0197430D03*
X0030324Y0207430D03*
X0020324Y0207430D03*
X0020324Y0217430D03*
X0030324Y0217430D03*
X0030324Y0227430D03*
X0020324Y0227430D03*
X0020324Y0237430D03*
X0030324Y0237430D03*
X0040324Y0237430D03*
X0050324Y0237430D03*
X0050324Y0227430D03*
X0040324Y0227430D03*
X0040324Y0217430D03*
X0050324Y0217430D03*
X0060324Y0217430D03*
X0070324Y0217430D03*
X0080324Y0217430D03*
X0080324Y0227430D03*
X0070324Y0227430D03*
X0060324Y0227430D03*
X0060324Y0237430D03*
X0070324Y0237430D03*
X0080324Y0237430D03*
X0090324Y0237430D03*
X0100324Y0237430D03*
X0100324Y0227430D03*
X0090324Y0227430D03*
X0090324Y0217430D03*
X0100324Y0217430D03*
X0110324Y0217430D03*
X0120324Y0217430D03*
X0120324Y0227430D03*
X0110324Y0227430D03*
X0110324Y0237430D03*
X0120324Y0237430D03*
X0130324Y0237430D03*
X0140324Y0237430D03*
X0140324Y0227430D03*
X0130324Y0227430D03*
X0130324Y0217430D03*
X0140324Y0217430D03*
X0150324Y0217430D03*
X0160324Y0217430D03*
X0160324Y0227430D03*
X0150324Y0227430D03*
X0150324Y0237430D03*
X0160324Y0237430D03*
X0170324Y0237430D03*
X0180324Y0237430D03*
X0180324Y0227430D03*
X0170324Y0227430D03*
X0170324Y0217430D03*
X0180324Y0217430D03*
X0190324Y0217430D03*
X0200324Y0217430D03*
X0200324Y0227430D03*
X0190324Y0227430D03*
X0190324Y0237430D03*
X0200324Y0237430D03*
X0210324Y0237430D03*
X0220324Y0237430D03*
X0220324Y0227430D03*
X0210324Y0227430D03*
X0210324Y0217430D03*
X0220324Y0217430D03*
X0230324Y0217430D03*
X0240324Y0217430D03*
X0240324Y0227430D03*
X0230324Y0227430D03*
X0230324Y0237430D03*
X0240324Y0237430D03*
X0250324Y0237430D03*
X0260324Y0237430D03*
X0260324Y0227430D03*
X0250324Y0227430D03*
X0250324Y0217430D03*
X0260324Y0217430D03*
X0270324Y0217430D03*
X0280324Y0217430D03*
X0280324Y0227430D03*
X0270324Y0227430D03*
X0270324Y0237430D03*
X0280324Y0237430D03*
X0290324Y0237430D03*
X0300324Y0237430D03*
X0300324Y0227430D03*
X0290324Y0227430D03*
X0290324Y0217430D03*
X0300324Y0217430D03*
X0310324Y0217430D03*
X0320324Y0217430D03*
X0320324Y0227430D03*
X0310324Y0227430D03*
X0310324Y0237430D03*
X0320324Y0237430D03*
X0330324Y0237430D03*
X0340324Y0237430D03*
X0340324Y0227430D03*
X0330324Y0227430D03*
X0330324Y0217430D03*
X0340324Y0217430D03*
X0350324Y0217430D03*
X0360324Y0217430D03*
X0360324Y0227430D03*
X0350324Y0227430D03*
X0350324Y0237430D03*
X0360324Y0237430D03*
X0370324Y0237430D03*
X0380324Y0237430D03*
X0380324Y0227430D03*
X0370324Y0227430D03*
X0370324Y0217430D03*
X0380324Y0217430D03*
X0390324Y0217430D03*
X0400324Y0217430D03*
X0400324Y0227430D03*
X0390324Y0227430D03*
X0390324Y0237430D03*
X0400324Y0237430D03*
X0410324Y0237430D03*
X0420324Y0237430D03*
X0420324Y0227430D03*
X0410324Y0227430D03*
X0410324Y0217430D03*
X0420324Y0217430D03*
X0430324Y0217430D03*
X0440324Y0217430D03*
X0440324Y0227430D03*
X0430324Y0227430D03*
X0430324Y0237430D03*
X0440324Y0237430D03*
X0450324Y0237430D03*
X0460324Y0237430D03*
X0460324Y0227430D03*
X0450324Y0227430D03*
X0450324Y0217430D03*
X0460324Y0217430D03*
X0470324Y0217430D03*
X0480324Y0217430D03*
X0480324Y0227430D03*
X0470324Y0227430D03*
X0470324Y0237430D03*
X0480324Y0237430D03*
X0490324Y0237430D03*
X0500324Y0237430D03*
X0500324Y0227430D03*
X0490324Y0227430D03*
X0490324Y0217430D03*
X0500324Y0217430D03*
X0510324Y0217430D03*
X0520324Y0217430D03*
X0520324Y0227430D03*
X0510324Y0227430D03*
X0510324Y0237430D03*
X0520324Y0237430D03*
X0530324Y0237430D03*
X0540324Y0237430D03*
X0540324Y0227430D03*
X0530324Y0227430D03*
X0530324Y0217430D03*
X0540324Y0217430D03*
X0550324Y0217430D03*
X0560324Y0217430D03*
X0560324Y0227430D03*
X0550324Y0227430D03*
X0550324Y0237430D03*
X0560324Y0237430D03*
X0570324Y0237430D03*
X0580324Y0237430D03*
X0580324Y0227430D03*
X0570324Y0227430D03*
X0570324Y0217430D03*
X0580324Y0217430D03*
X0590324Y0217430D03*
X0600324Y0217430D03*
X0600324Y0227430D03*
X0590324Y0227430D03*
X0590324Y0237430D03*
X0600324Y0237430D03*
X0610324Y0237430D03*
X0620324Y0237430D03*
X0620324Y0227430D03*
X0610324Y0227430D03*
X0610324Y0217430D03*
X0620324Y0217430D03*
X0630324Y0217430D03*
X0640324Y0217430D03*
X0640324Y0227430D03*
X0630324Y0227430D03*
X0630324Y0237430D03*
X0640324Y0237430D03*
X0650324Y0237430D03*
X0650324Y0227430D03*
X0650324Y0217430D03*
X0650324Y0207430D03*
X0640324Y0207430D03*
X0630324Y0207430D03*
X0620324Y0207430D03*
X0610324Y0207430D03*
X0600324Y0207430D03*
X0590324Y0207430D03*
X0580324Y0207430D03*
X0570324Y0207430D03*
X0560324Y0207430D03*
X0550324Y0207430D03*
X0540324Y0207430D03*
X0530324Y0207430D03*
X0520324Y0207430D03*
X0510324Y0207430D03*
X0500324Y0207430D03*
X0490324Y0207430D03*
X0480324Y0207430D03*
X0470324Y0207430D03*
X0460324Y0207430D03*
X0450324Y0207430D03*
X0440324Y0207430D03*
X0430324Y0207430D03*
X0420324Y0207430D03*
X0410324Y0207430D03*
X0400324Y0207430D03*
X0390324Y0207430D03*
X0380324Y0207430D03*
X0370324Y0207430D03*
X0360324Y0207430D03*
X0350324Y0207430D03*
X0340324Y0207430D03*
X0330324Y0207430D03*
X0320324Y0207430D03*
X0310324Y0207430D03*
X0300324Y0207430D03*
X0290324Y0207430D03*
X0280324Y0207430D03*
X0270324Y0207430D03*
X0260324Y0207430D03*
X0250324Y0207430D03*
X0240324Y0207430D03*
X0230324Y0207430D03*
X0220324Y0207430D03*
X0210324Y0207430D03*
X0200324Y0207430D03*
X0190324Y0207430D03*
X0180324Y0207430D03*
X0170324Y0207430D03*
X0160324Y0207430D03*
X0150324Y0207430D03*
X0140324Y0207430D03*
X0130324Y0207430D03*
X0120324Y0207430D03*
X0110324Y0207430D03*
X0100324Y0207430D03*
X0090324Y0207430D03*
X0080324Y0207430D03*
X0070324Y0207430D03*
X0060324Y0207430D03*
X0050324Y0207430D03*
X0040324Y0207430D03*
X0040324Y0197430D03*
X0050324Y0197430D03*
X0060324Y0197430D03*
X0070324Y0197430D03*
X0080324Y0197430D03*
X0090324Y0197430D03*
X0100324Y0197430D03*
X0110324Y0197430D03*
X0120324Y0197430D03*
X0130324Y0197430D03*
X0140324Y0197430D03*
X0150324Y0197430D03*
X0160324Y0197430D03*
X0170324Y0197430D03*
X0180324Y0197430D03*
X0190324Y0197430D03*
X0200324Y0197430D03*
X0210324Y0197430D03*
X0220324Y0197430D03*
X0230324Y0197430D03*
X0240324Y0197430D03*
X0250324Y0197430D03*
X0260324Y0197430D03*
X0270324Y0197430D03*
X0280324Y0197430D03*
X0290324Y0197430D03*
X0300324Y0197430D03*
X0310324Y0197430D03*
X0320324Y0197430D03*
X0330324Y0197430D03*
X0340324Y0197430D03*
X0350324Y0197430D03*
X0360324Y0197430D03*
X0370324Y0197430D03*
X0380324Y0197430D03*
X0390324Y0197430D03*
X0400324Y0197430D03*
X0410324Y0197430D03*
X0420324Y0197430D03*
X0430324Y0197430D03*
X0440324Y0197430D03*
X0450324Y0197430D03*
X0460324Y0197430D03*
X0470324Y0197430D03*
X0480324Y0197430D03*
X0490324Y0197430D03*
X0500324Y0197430D03*
X0510324Y0197430D03*
X0520324Y0197430D03*
X0530324Y0197430D03*
X0540324Y0197430D03*
X0550324Y0197430D03*
X0560324Y0197430D03*
X0570324Y0197430D03*
X0580324Y0197430D03*
X0590324Y0197430D03*
X0600324Y0197430D03*
X0610324Y0197430D03*
X0620324Y0197430D03*
X0630324Y0197430D03*
X0640324Y0197430D03*
X0650324Y0197430D03*
X0650324Y0247430D03*
X0640324Y0247430D03*
X0630324Y0247430D03*
X0620324Y0247430D03*
X0610324Y0247430D03*
X0600324Y0247430D03*
X0590324Y0247430D03*
X0580324Y0247430D03*
X0570324Y0247430D03*
X0560324Y0247430D03*
X0550324Y0247430D03*
X0540324Y0247430D03*
X0530324Y0247430D03*
X0520324Y0247430D03*
X0510324Y0247430D03*
X0500324Y0247430D03*
X0490324Y0247430D03*
X0480324Y0247430D03*
X0470324Y0247430D03*
X0460324Y0247430D03*
X0450324Y0247430D03*
X0440324Y0247430D03*
X0430324Y0247430D03*
X0420324Y0247430D03*
X0410324Y0247430D03*
X0400324Y0247430D03*
X0390324Y0247430D03*
X0380324Y0247430D03*
X0370324Y0247430D03*
X0360324Y0247430D03*
X0350324Y0247430D03*
X0340324Y0247430D03*
X0330324Y0247430D03*
X0320324Y0247430D03*
X0310324Y0247430D03*
X0300324Y0247430D03*
X0290324Y0247430D03*
X0280324Y0247430D03*
X0270324Y0247430D03*
X0260324Y0247430D03*
X0250324Y0247430D03*
X0240324Y0247430D03*
X0230324Y0247430D03*
X0220324Y0247430D03*
X0210324Y0247430D03*
X0200324Y0247430D03*
X0190324Y0247430D03*
X0180324Y0247430D03*
X0170324Y0247430D03*
X0160324Y0247430D03*
X0150324Y0247430D03*
X0140324Y0247430D03*
X0130324Y0247430D03*
X0120324Y0247430D03*
X0110324Y0247430D03*
X0100324Y0247430D03*
X0090324Y0247430D03*
X0080324Y0247430D03*
X0070324Y0247430D03*
X0060324Y0247430D03*
X0050324Y0247430D03*
X0040324Y0247430D03*
X0030324Y0247430D03*
X0020324Y0247430D03*
X0020324Y0257430D03*
X0030324Y0257430D03*
X0030324Y0267430D03*
X0020324Y0267430D03*
X0020324Y0277430D03*
X0030324Y0277430D03*
X0030324Y0287430D03*
X0020324Y0287430D03*
X0020324Y0297430D03*
X0030324Y0297430D03*
X0030324Y0307430D03*
X0020324Y0307430D03*
X0020324Y0317430D03*
X0030324Y0317430D03*
X0040324Y0317430D03*
X0050324Y0317430D03*
X0050324Y0307430D03*
X0040324Y0307430D03*
X0040324Y0297430D03*
X0050324Y0297430D03*
X0060324Y0297430D03*
X0070324Y0297430D03*
X0080324Y0297430D03*
X0080324Y0307430D03*
X0070324Y0307430D03*
X0060324Y0307430D03*
X0060324Y0317430D03*
X0070324Y0317430D03*
X0080324Y0317430D03*
X0090324Y0317430D03*
X0100324Y0317430D03*
X0100324Y0307430D03*
X0090324Y0307430D03*
X0090324Y0297430D03*
X0100324Y0297430D03*
X0110324Y0297430D03*
X0120324Y0297430D03*
X0120324Y0307430D03*
X0110324Y0307430D03*
X0110324Y0317430D03*
X0120324Y0317430D03*
X0130324Y0317430D03*
X0140324Y0317430D03*
X0140324Y0307430D03*
X0130324Y0307430D03*
X0130324Y0297430D03*
X0140324Y0297430D03*
X0150324Y0297430D03*
X0160324Y0297430D03*
X0160324Y0307430D03*
X0150324Y0307430D03*
X0150324Y0317430D03*
X0160324Y0317430D03*
X0170324Y0317430D03*
X0180324Y0317430D03*
X0180324Y0307430D03*
X0170324Y0307430D03*
X0170324Y0297430D03*
X0180324Y0297430D03*
X0190324Y0297430D03*
X0200324Y0297430D03*
X0200324Y0307430D03*
X0190324Y0307430D03*
X0190324Y0317430D03*
X0200324Y0317430D03*
X0210324Y0317430D03*
X0220324Y0317430D03*
X0220324Y0307430D03*
X0210324Y0307430D03*
X0210324Y0297430D03*
X0220324Y0297430D03*
X0230324Y0297430D03*
X0240324Y0297430D03*
X0240324Y0307430D03*
X0230324Y0307430D03*
X0230324Y0317430D03*
X0240324Y0317430D03*
X0250324Y0317430D03*
X0260324Y0317430D03*
X0260324Y0307430D03*
X0250324Y0307430D03*
X0250324Y0297430D03*
X0260324Y0297430D03*
X0270324Y0297430D03*
X0280324Y0297430D03*
X0280324Y0307430D03*
X0270324Y0307430D03*
X0270324Y0317430D03*
X0280324Y0317430D03*
X0290324Y0317430D03*
X0300324Y0317430D03*
X0300324Y0307430D03*
X0290324Y0307430D03*
X0290324Y0297430D03*
X0300324Y0297430D03*
X0310324Y0297430D03*
X0320324Y0297430D03*
X0320324Y0307430D03*
X0310324Y0307430D03*
X0310324Y0317430D03*
X0320324Y0317430D03*
X0330324Y0317430D03*
X0340324Y0317430D03*
X0340324Y0307430D03*
X0330324Y0307430D03*
X0330324Y0297430D03*
X0340324Y0297430D03*
X0350324Y0297430D03*
X0360324Y0297430D03*
X0360324Y0307430D03*
X0350324Y0307430D03*
X0350324Y0317430D03*
X0360324Y0317430D03*
X0370324Y0317430D03*
X0380324Y0317430D03*
X0380324Y0307430D03*
X0370324Y0307430D03*
X0370324Y0297430D03*
X0380324Y0297430D03*
X0390324Y0297430D03*
X0400324Y0297430D03*
X0400324Y0307430D03*
X0390324Y0307430D03*
X0390324Y0317430D03*
X0400324Y0317430D03*
X0410324Y0317430D03*
X0420324Y0317430D03*
X0420324Y0307430D03*
X0410324Y0307430D03*
X0410324Y0297430D03*
X0420324Y0297430D03*
X0430324Y0297430D03*
X0440324Y0297430D03*
X0440324Y0307430D03*
X0430324Y0307430D03*
X0430324Y0317430D03*
X0440324Y0317430D03*
X0450324Y0317430D03*
X0460324Y0317430D03*
X0460324Y0307430D03*
X0450324Y0307430D03*
X0450324Y0297430D03*
X0460324Y0297430D03*
X0470324Y0297430D03*
X0480324Y0297430D03*
X0480324Y0307430D03*
X0470324Y0307430D03*
X0470324Y0317430D03*
X0480324Y0317430D03*
X0490324Y0317430D03*
X0500324Y0317430D03*
X0500324Y0307430D03*
X0490324Y0307430D03*
X0490324Y0297430D03*
X0500324Y0297430D03*
X0510324Y0297430D03*
X0520324Y0297430D03*
X0520324Y0307430D03*
X0510324Y0307430D03*
X0510324Y0317430D03*
X0520324Y0317430D03*
X0530324Y0317430D03*
X0540324Y0317430D03*
X0540324Y0307430D03*
X0530324Y0307430D03*
X0530324Y0297430D03*
X0540324Y0297430D03*
X0550324Y0297430D03*
X0560324Y0297430D03*
X0560324Y0307430D03*
X0550324Y0307430D03*
X0550324Y0317430D03*
X0560324Y0317430D03*
X0570324Y0317430D03*
X0580324Y0317430D03*
X0580324Y0307430D03*
X0570324Y0307430D03*
X0570324Y0297430D03*
X0580324Y0297430D03*
X0590324Y0297430D03*
X0600324Y0297430D03*
X0600324Y0307430D03*
X0590324Y0307430D03*
X0590324Y0317430D03*
X0600324Y0317430D03*
X0610324Y0317430D03*
X0620324Y0317430D03*
X0620324Y0307430D03*
X0610324Y0307430D03*
X0610324Y0297430D03*
X0620324Y0297430D03*
X0630324Y0297430D03*
X0640324Y0297430D03*
X0640324Y0307430D03*
X0630324Y0307430D03*
X0630324Y0317430D03*
X0640324Y0317430D03*
X0650324Y0317430D03*
X0650324Y0307430D03*
X0650324Y0297430D03*
X0650324Y0287430D03*
X0640324Y0287430D03*
X0630324Y0287430D03*
X0620324Y0287430D03*
X0610324Y0287430D03*
X0600324Y0287430D03*
X0590324Y0287430D03*
X0580324Y0287430D03*
X0570324Y0287430D03*
X0560324Y0287430D03*
X0550324Y0287430D03*
X0540324Y0287430D03*
X0530324Y0287430D03*
X0520324Y0287430D03*
X0510324Y0287430D03*
X0500324Y0287430D03*
X0490324Y0287430D03*
X0480324Y0287430D03*
X0470324Y0287430D03*
X0460324Y0287430D03*
X0450324Y0287430D03*
X0440324Y0287430D03*
X0430324Y0287430D03*
X0420324Y0287430D03*
X0410324Y0287430D03*
X0400324Y0287430D03*
X0390324Y0287430D03*
X0380324Y0287430D03*
X0370324Y0287430D03*
X0360324Y0287430D03*
X0350324Y0287430D03*
X0340324Y0287430D03*
X0330324Y0287430D03*
X0320324Y0287430D03*
X0310324Y0287430D03*
X0300324Y0287430D03*
X0290324Y0287430D03*
X0280324Y0287430D03*
X0270324Y0287430D03*
X0260324Y0287430D03*
X0250324Y0287430D03*
X0240324Y0287430D03*
X0230324Y0287430D03*
X0220324Y0287430D03*
X0210324Y0287430D03*
X0200324Y0287430D03*
X0190324Y0287430D03*
X0180324Y0287430D03*
X0170324Y0287430D03*
X0160324Y0287430D03*
X0150324Y0287430D03*
X0140324Y0287430D03*
X0130324Y0287430D03*
X0120324Y0287430D03*
X0110324Y0287430D03*
X0100324Y0287430D03*
X0090324Y0287430D03*
X0080324Y0287430D03*
X0070324Y0287430D03*
X0060324Y0287430D03*
X0050324Y0287430D03*
X0040324Y0287430D03*
X0040324Y0277430D03*
X0050324Y0277430D03*
X0060324Y0277430D03*
X0070324Y0277430D03*
X0080324Y0277430D03*
X0090324Y0277430D03*
X0100324Y0277430D03*
X0110324Y0277430D03*
X0120324Y0277430D03*
X0130324Y0277430D03*
X0140324Y0277430D03*
X0150324Y0277430D03*
X0160324Y0277430D03*
X0170324Y0277430D03*
X0180324Y0277430D03*
X0190324Y0277430D03*
X0200324Y0277430D03*
X0210324Y0277430D03*
X0220324Y0277430D03*
X0230324Y0277430D03*
X0240324Y0277430D03*
X0250324Y0277430D03*
X0260324Y0277430D03*
X0270324Y0277430D03*
X0280324Y0277430D03*
X0290324Y0277430D03*
X0300324Y0277430D03*
X0310324Y0277430D03*
X0320324Y0277430D03*
X0330324Y0277430D03*
X0340324Y0277430D03*
X0350324Y0277430D03*
X0360324Y0277430D03*
X0370324Y0277430D03*
X0380324Y0277430D03*
X0390324Y0277430D03*
X0400324Y0277430D03*
X0410324Y0277430D03*
X0420324Y0277430D03*
X0430324Y0277430D03*
X0440324Y0277430D03*
X0450324Y0277430D03*
X0460324Y0277430D03*
X0470324Y0277430D03*
X0480324Y0277430D03*
X0490324Y0277430D03*
X0500324Y0277430D03*
X0510324Y0277430D03*
X0520324Y0277430D03*
X0530324Y0277430D03*
X0540324Y0277430D03*
X0550324Y0277430D03*
X0560324Y0277430D03*
X0570324Y0277430D03*
X0580324Y0277430D03*
X0590324Y0277430D03*
X0600324Y0277430D03*
X0610324Y0277430D03*
X0620324Y0277430D03*
X0630324Y0277430D03*
X0640324Y0277430D03*
X0650324Y0277430D03*
X0650324Y0267430D03*
X0640324Y0267430D03*
X0630324Y0267430D03*
X0620324Y0267430D03*
X0610324Y0267430D03*
X0600324Y0267430D03*
X0590324Y0267430D03*
X0580324Y0267430D03*
X0570324Y0267430D03*
X0560324Y0267430D03*
X0550324Y0267430D03*
X0540324Y0267430D03*
X0530324Y0267430D03*
X0520324Y0267430D03*
X0510324Y0267430D03*
X0500324Y0267430D03*
X0490324Y0267430D03*
X0480324Y0267430D03*
X0470324Y0267430D03*
X0460324Y0267430D03*
X0450324Y0267430D03*
X0440324Y0267430D03*
X0430324Y0267430D03*
X0420324Y0267430D03*
X0410324Y0267430D03*
X0400324Y0267430D03*
X0390324Y0267430D03*
X0380324Y0267430D03*
X0370324Y0267430D03*
X0360324Y0267430D03*
X0350324Y0267430D03*
X0340324Y0267430D03*
X0330324Y0267430D03*
X0320324Y0267430D03*
X0310324Y0267430D03*
X0300324Y0267430D03*
X0290324Y0267430D03*
X0280324Y0267430D03*
X0270324Y0267430D03*
X0260324Y0267430D03*
X0250324Y0267430D03*
X0240324Y0267430D03*
X0230324Y0267430D03*
X0220324Y0267430D03*
X0210324Y0267430D03*
X0200324Y0267430D03*
X0190324Y0267430D03*
X0180324Y0267430D03*
X0170324Y0267430D03*
X0160324Y0267430D03*
X0150324Y0267430D03*
X0140324Y0267430D03*
X0130324Y0267430D03*
X0120324Y0267430D03*
X0110324Y0267430D03*
X0100324Y0267430D03*
X0090324Y0267430D03*
X0080324Y0267430D03*
X0070324Y0267430D03*
X0060324Y0267430D03*
X0050324Y0267430D03*
X0040324Y0267430D03*
X0040324Y0257430D03*
X0050324Y0257430D03*
X0060324Y0257430D03*
X0070324Y0257430D03*
X0080324Y0257430D03*
X0090324Y0257430D03*
X0100324Y0257430D03*
X0110324Y0257430D03*
X0120324Y0257430D03*
X0130324Y0257430D03*
X0140324Y0257430D03*
X0150324Y0257430D03*
X0160324Y0257430D03*
X0170324Y0257430D03*
X0180324Y0257430D03*
X0190324Y0257430D03*
X0200324Y0257430D03*
X0210324Y0257430D03*
X0220324Y0257430D03*
X0230324Y0257430D03*
X0240324Y0257430D03*
X0250324Y0257430D03*
X0260324Y0257430D03*
X0270324Y0257430D03*
X0280324Y0257430D03*
X0290324Y0257430D03*
X0300324Y0257430D03*
X0310324Y0257430D03*
X0320324Y0257430D03*
X0330324Y0257430D03*
X0340324Y0257430D03*
X0350324Y0257430D03*
X0360324Y0257430D03*
X0370324Y0257430D03*
X0380324Y0257430D03*
X0390324Y0257430D03*
X0400324Y0257430D03*
X0410324Y0257430D03*
X0420324Y0257430D03*
X0430324Y0257430D03*
X0440324Y0257430D03*
X0450324Y0257430D03*
X0460324Y0257430D03*
X0470324Y0257430D03*
X0480324Y0257430D03*
X0490324Y0257430D03*
X0500324Y0257430D03*
X0510324Y0257430D03*
X0520324Y0257430D03*
X0530324Y0257430D03*
X0540324Y0257430D03*
X0550324Y0257430D03*
X0560324Y0257430D03*
X0570324Y0257430D03*
X0580324Y0257430D03*
X0590324Y0257430D03*
X0600324Y0257430D03*
X0610324Y0257430D03*
X0620324Y0257430D03*
X0630324Y0257430D03*
X0640324Y0257430D03*
X0650324Y0257430D03*
X0650324Y0327430D03*
X0640324Y0327430D03*
X0630324Y0327430D03*
X0620324Y0327430D03*
X0610324Y0327430D03*
X0600324Y0327430D03*
X0590324Y0327430D03*
X0580324Y0327430D03*
X0570324Y0327430D03*
X0560324Y0327430D03*
X0550324Y0327430D03*
X0540324Y0327430D03*
X0530324Y0327430D03*
X0520324Y0327430D03*
X0510324Y0327430D03*
X0500324Y0327430D03*
X0490324Y0327430D03*
X0480324Y0327430D03*
X0470324Y0327430D03*
X0460324Y0327430D03*
X0450324Y0327430D03*
X0440324Y0327430D03*
X0430324Y0327430D03*
X0420324Y0327430D03*
X0410324Y0327430D03*
X0400324Y0327430D03*
X0390324Y0327430D03*
X0380324Y0327430D03*
X0370324Y0327430D03*
X0360324Y0327430D03*
X0350324Y0327430D03*
X0340324Y0327430D03*
X0330324Y0327430D03*
X0320324Y0327430D03*
X0310324Y0327430D03*
X0300324Y0327430D03*
X0290324Y0327430D03*
X0280324Y0327430D03*
X0270324Y0327430D03*
X0260324Y0327430D03*
X0250324Y0327430D03*
X0240324Y0327430D03*
X0230324Y0327430D03*
X0220324Y0327430D03*
X0210324Y0327430D03*
X0200324Y0327430D03*
X0190324Y0327430D03*
X0180324Y0327430D03*
X0170324Y0327430D03*
X0160324Y0327430D03*
X0150324Y0327430D03*
X0140324Y0327430D03*
X0130324Y0327430D03*
X0120324Y0327430D03*
X0110324Y0327430D03*
X0100324Y0327430D03*
X0090324Y0327430D03*
X0080324Y0327430D03*
X0070324Y0327430D03*
X0060324Y0327430D03*
X0050324Y0327430D03*
X0040324Y0327430D03*
X0030324Y0327430D03*
X0020324Y0327430D03*
X0020324Y0337430D03*
X0030324Y0337430D03*
X0030324Y0347430D03*
X0020324Y0347430D03*
X0020324Y0357430D03*
X0030324Y0357430D03*
X0040324Y0357430D03*
X0050324Y0357430D03*
X0060324Y0357430D03*
X0070324Y0357430D03*
X0080324Y0357430D03*
X0090324Y0357430D03*
X0100324Y0357430D03*
X0110324Y0357430D03*
X0120324Y0357430D03*
X0130324Y0357430D03*
X0140324Y0357430D03*
X0150324Y0357430D03*
X0160324Y0357430D03*
X0170324Y0357430D03*
X0180324Y0357430D03*
X0190324Y0357430D03*
X0200324Y0357430D03*
X0210324Y0357430D03*
X0220324Y0357430D03*
X0230324Y0357430D03*
X0240324Y0357430D03*
X0250324Y0357430D03*
X0260324Y0357430D03*
X0270324Y0357430D03*
X0280324Y0357430D03*
X0290324Y0357430D03*
X0300324Y0357430D03*
X0310324Y0357430D03*
X0320324Y0357430D03*
X0330324Y0357430D03*
X0340324Y0357430D03*
X0350324Y0357430D03*
X0360324Y0357430D03*
X0370324Y0357430D03*
X0380324Y0357430D03*
X0390324Y0357430D03*
X0400324Y0357430D03*
X0410324Y0357430D03*
X0420324Y0357430D03*
X0430324Y0357430D03*
X0440324Y0357430D03*
X0450324Y0357430D03*
X0460324Y0357430D03*
X0470324Y0357430D03*
X0480324Y0357430D03*
X0490324Y0357430D03*
X0500324Y0357430D03*
X0510324Y0357430D03*
X0520324Y0357430D03*
X0530324Y0357430D03*
X0540324Y0357430D03*
X0550324Y0357430D03*
X0560324Y0357430D03*
X0570324Y0357430D03*
X0580324Y0357430D03*
X0590324Y0357430D03*
X0600324Y0357430D03*
X0610324Y0357430D03*
X0620324Y0357430D03*
X0630324Y0357430D03*
X0640324Y0357430D03*
X0650324Y0357430D03*
X0650324Y0347430D03*
X0640324Y0347430D03*
X0630324Y0347430D03*
X0620324Y0347430D03*
X0610324Y0347430D03*
X0600324Y0347430D03*
X0590324Y0347430D03*
X0580324Y0347430D03*
X0570324Y0347430D03*
X0560324Y0347430D03*
X0550324Y0347430D03*
X0540324Y0347430D03*
X0530324Y0347430D03*
X0520324Y0347430D03*
X0510324Y0347430D03*
X0500324Y0347430D03*
X0490324Y0347430D03*
X0480324Y0347430D03*
X0470324Y0347430D03*
X0460324Y0347430D03*
X0450324Y0347430D03*
X0440324Y0347430D03*
X0430324Y0347430D03*
X0420324Y0347430D03*
X0410324Y0347430D03*
X0400324Y0347430D03*
X0390324Y0347430D03*
X0380324Y0347430D03*
X0370324Y0347430D03*
X0360324Y0347430D03*
X0350324Y0347430D03*
X0340324Y0347430D03*
X0330324Y0347430D03*
X0320324Y0347430D03*
X0310324Y0347430D03*
X0300324Y0347430D03*
X0290324Y0347430D03*
X0280324Y0347430D03*
X0270324Y0347430D03*
X0260324Y0347430D03*
X0250324Y0347430D03*
X0240324Y0347430D03*
X0230324Y0347430D03*
X0220324Y0347430D03*
X0210324Y0347430D03*
X0200324Y0347430D03*
X0190324Y0347430D03*
X0180324Y0347430D03*
X0170324Y0347430D03*
X0160324Y0347430D03*
X0150324Y0347430D03*
X0140324Y0347430D03*
X0130324Y0347430D03*
X0120324Y0347430D03*
X0110324Y0347430D03*
X0100324Y0347430D03*
X0090324Y0347430D03*
X0080324Y0347430D03*
X0070324Y0347430D03*
X0060324Y0347430D03*
X0050324Y0347430D03*
X0040324Y0347430D03*
X0040324Y0337430D03*
X0050324Y0337430D03*
X0060324Y0337430D03*
X0070324Y0337430D03*
X0080324Y0337430D03*
X0090324Y0337430D03*
X0100324Y0337430D03*
X0110324Y0337430D03*
X0120324Y0337430D03*
X0130324Y0337430D03*
X0140324Y0337430D03*
X0150324Y0337430D03*
X0160324Y0337430D03*
X0170324Y0337430D03*
X0180324Y0337430D03*
X0190324Y0337430D03*
X0200324Y0337430D03*
X0210324Y0337430D03*
X0220324Y0337430D03*
X0230324Y0337430D03*
X0240324Y0337430D03*
X0250324Y0337430D03*
X0260324Y0337430D03*
X0270324Y0337430D03*
X0280324Y0337430D03*
X0290324Y0337430D03*
X0300324Y0337430D03*
X0310324Y0337430D03*
X0320324Y0337430D03*
X0330324Y0337430D03*
X0340324Y0337430D03*
X0350324Y0337430D03*
X0360324Y0337430D03*
X0370324Y0337430D03*
X0380324Y0337430D03*
X0390324Y0337430D03*
X0400324Y0337430D03*
X0410324Y0337430D03*
X0420324Y0337430D03*
X0430324Y0337430D03*
X0440324Y0337430D03*
X0450324Y0337430D03*
X0460324Y0337430D03*
X0470324Y0337430D03*
X0480324Y0337430D03*
X0490324Y0337430D03*
X0500324Y0337430D03*
X0510324Y0337430D03*
X0520324Y0337430D03*
X0530324Y0337430D03*
X0540324Y0337430D03*
X0550324Y0337430D03*
X0560324Y0337430D03*
X0570324Y0337430D03*
X0580324Y0337430D03*
X0590324Y0337430D03*
X0600324Y0337430D03*
X0610324Y0337430D03*
X0620324Y0337430D03*
X0630324Y0337430D03*
X0640324Y0337430D03*
X0650324Y0337430D03*
M02*
