G75*
%MOIN*%
%OFA0B0*%
%FSLAX25Y25*%
%IPPOS*%
%LPD*%
%AMOC8*
5,1,8,0,0,1.08239X$1,22.5*
%
%ADD10C,0.00000*%
%ADD11C,0.01600*%
%ADD12C,0.11811*%
D10*
X0012096Y0008690D02*
X0012098Y0008821D01*
X0012104Y0008953D01*
X0012114Y0009084D01*
X0012128Y0009215D01*
X0012146Y0009345D01*
X0012168Y0009474D01*
X0012193Y0009603D01*
X0012223Y0009731D01*
X0012257Y0009858D01*
X0012294Y0009985D01*
X0012335Y0010109D01*
X0012380Y0010233D01*
X0012429Y0010355D01*
X0012481Y0010476D01*
X0012537Y0010594D01*
X0012597Y0010712D01*
X0012660Y0010827D01*
X0012727Y0010940D01*
X0012797Y0011052D01*
X0012870Y0011161D01*
X0012946Y0011267D01*
X0013026Y0011372D01*
X0013109Y0011474D01*
X0013195Y0011573D01*
X0013284Y0011670D01*
X0013376Y0011764D01*
X0013471Y0011855D01*
X0013568Y0011944D01*
X0013668Y0012029D01*
X0013771Y0012111D01*
X0013876Y0012190D01*
X0013983Y0012266D01*
X0014093Y0012338D01*
X0014205Y0012407D01*
X0014319Y0012473D01*
X0014434Y0012535D01*
X0014552Y0012594D01*
X0014671Y0012649D01*
X0014792Y0012701D01*
X0014915Y0012748D01*
X0015039Y0012792D01*
X0015164Y0012833D01*
X0015290Y0012869D01*
X0015418Y0012902D01*
X0015546Y0012930D01*
X0015675Y0012955D01*
X0015805Y0012976D01*
X0015935Y0012993D01*
X0016066Y0013006D01*
X0016197Y0013015D01*
X0016328Y0013020D01*
X0016460Y0013021D01*
X0016591Y0013018D01*
X0016723Y0013011D01*
X0016854Y0013000D01*
X0016984Y0012985D01*
X0017114Y0012966D01*
X0017244Y0012943D01*
X0017372Y0012917D01*
X0017500Y0012886D01*
X0017627Y0012851D01*
X0017753Y0012813D01*
X0017877Y0012771D01*
X0018001Y0012725D01*
X0018122Y0012675D01*
X0018242Y0012622D01*
X0018361Y0012565D01*
X0018478Y0012505D01*
X0018592Y0012441D01*
X0018705Y0012373D01*
X0018816Y0012302D01*
X0018925Y0012228D01*
X0019031Y0012151D01*
X0019135Y0012070D01*
X0019236Y0011987D01*
X0019335Y0011900D01*
X0019431Y0011810D01*
X0019524Y0011717D01*
X0019615Y0011622D01*
X0019702Y0011524D01*
X0019787Y0011423D01*
X0019868Y0011320D01*
X0019946Y0011214D01*
X0020021Y0011106D01*
X0020093Y0010996D01*
X0020161Y0010884D01*
X0020226Y0010770D01*
X0020287Y0010653D01*
X0020345Y0010535D01*
X0020399Y0010415D01*
X0020450Y0010294D01*
X0020497Y0010171D01*
X0020540Y0010047D01*
X0020579Y0009922D01*
X0020615Y0009795D01*
X0020646Y0009667D01*
X0020674Y0009539D01*
X0020698Y0009410D01*
X0020718Y0009280D01*
X0020734Y0009149D01*
X0020746Y0009018D01*
X0020754Y0008887D01*
X0020758Y0008756D01*
X0020758Y0008624D01*
X0020754Y0008493D01*
X0020746Y0008362D01*
X0020734Y0008231D01*
X0020718Y0008100D01*
X0020698Y0007970D01*
X0020674Y0007841D01*
X0020646Y0007713D01*
X0020615Y0007585D01*
X0020579Y0007458D01*
X0020540Y0007333D01*
X0020497Y0007209D01*
X0020450Y0007086D01*
X0020399Y0006965D01*
X0020345Y0006845D01*
X0020287Y0006727D01*
X0020226Y0006610D01*
X0020161Y0006496D01*
X0020093Y0006384D01*
X0020021Y0006274D01*
X0019946Y0006166D01*
X0019868Y0006060D01*
X0019787Y0005957D01*
X0019702Y0005856D01*
X0019615Y0005758D01*
X0019524Y0005663D01*
X0019431Y0005570D01*
X0019335Y0005480D01*
X0019236Y0005393D01*
X0019135Y0005310D01*
X0019031Y0005229D01*
X0018925Y0005152D01*
X0018816Y0005078D01*
X0018705Y0005007D01*
X0018593Y0004939D01*
X0018478Y0004875D01*
X0018361Y0004815D01*
X0018242Y0004758D01*
X0018122Y0004705D01*
X0018001Y0004655D01*
X0017877Y0004609D01*
X0017753Y0004567D01*
X0017627Y0004529D01*
X0017500Y0004494D01*
X0017372Y0004463D01*
X0017244Y0004437D01*
X0017114Y0004414D01*
X0016984Y0004395D01*
X0016854Y0004380D01*
X0016723Y0004369D01*
X0016591Y0004362D01*
X0016460Y0004359D01*
X0016328Y0004360D01*
X0016197Y0004365D01*
X0016066Y0004374D01*
X0015935Y0004387D01*
X0015805Y0004404D01*
X0015675Y0004425D01*
X0015546Y0004450D01*
X0015418Y0004478D01*
X0015290Y0004511D01*
X0015164Y0004547D01*
X0015039Y0004588D01*
X0014915Y0004632D01*
X0014792Y0004679D01*
X0014671Y0004731D01*
X0014552Y0004786D01*
X0014434Y0004845D01*
X0014319Y0004907D01*
X0014205Y0004973D01*
X0014093Y0005042D01*
X0013983Y0005114D01*
X0013876Y0005190D01*
X0013771Y0005269D01*
X0013668Y0005351D01*
X0013568Y0005436D01*
X0013471Y0005525D01*
X0013376Y0005616D01*
X0013284Y0005710D01*
X0013195Y0005807D01*
X0013109Y0005906D01*
X0013026Y0006008D01*
X0012946Y0006113D01*
X0012870Y0006219D01*
X0012797Y0006328D01*
X0012727Y0006440D01*
X0012660Y0006553D01*
X0012597Y0006668D01*
X0012537Y0006786D01*
X0012481Y0006904D01*
X0012429Y0007025D01*
X0012380Y0007147D01*
X0012335Y0007271D01*
X0012294Y0007395D01*
X0012257Y0007522D01*
X0012223Y0007649D01*
X0012193Y0007777D01*
X0012168Y0007906D01*
X0012146Y0008035D01*
X0012128Y0008165D01*
X0012114Y0008296D01*
X0012104Y0008427D01*
X0012098Y0008559D01*
X0012096Y0008690D01*
X0010128Y0041170D02*
X0010130Y0041328D01*
X0010136Y0041486D01*
X0010146Y0041644D01*
X0010160Y0041802D01*
X0010178Y0041959D01*
X0010199Y0042116D01*
X0010225Y0042272D01*
X0010255Y0042428D01*
X0010288Y0042583D01*
X0010326Y0042736D01*
X0010367Y0042889D01*
X0010412Y0043041D01*
X0010461Y0043192D01*
X0010514Y0043341D01*
X0010570Y0043489D01*
X0010630Y0043635D01*
X0010694Y0043780D01*
X0010762Y0043923D01*
X0010833Y0044065D01*
X0010907Y0044205D01*
X0010985Y0044342D01*
X0011067Y0044478D01*
X0011151Y0044612D01*
X0011240Y0044743D01*
X0011331Y0044872D01*
X0011426Y0044999D01*
X0011523Y0045124D01*
X0011624Y0045246D01*
X0011728Y0045365D01*
X0011835Y0045482D01*
X0011945Y0045596D01*
X0012058Y0045707D01*
X0012173Y0045816D01*
X0012291Y0045921D01*
X0012412Y0046023D01*
X0012535Y0046123D01*
X0012661Y0046219D01*
X0012789Y0046312D01*
X0012919Y0046402D01*
X0013052Y0046488D01*
X0013187Y0046572D01*
X0013323Y0046651D01*
X0013462Y0046728D01*
X0013603Y0046800D01*
X0013745Y0046870D01*
X0013889Y0046935D01*
X0014035Y0046997D01*
X0014182Y0047055D01*
X0014331Y0047110D01*
X0014481Y0047161D01*
X0014632Y0047208D01*
X0014784Y0047251D01*
X0014937Y0047290D01*
X0015092Y0047326D01*
X0015247Y0047357D01*
X0015403Y0047385D01*
X0015559Y0047409D01*
X0015716Y0047429D01*
X0015874Y0047445D01*
X0016031Y0047457D01*
X0016190Y0047465D01*
X0016348Y0047469D01*
X0016506Y0047469D01*
X0016664Y0047465D01*
X0016823Y0047457D01*
X0016980Y0047445D01*
X0017138Y0047429D01*
X0017295Y0047409D01*
X0017451Y0047385D01*
X0017607Y0047357D01*
X0017762Y0047326D01*
X0017917Y0047290D01*
X0018070Y0047251D01*
X0018222Y0047208D01*
X0018373Y0047161D01*
X0018523Y0047110D01*
X0018672Y0047055D01*
X0018819Y0046997D01*
X0018965Y0046935D01*
X0019109Y0046870D01*
X0019251Y0046800D01*
X0019392Y0046728D01*
X0019531Y0046651D01*
X0019667Y0046572D01*
X0019802Y0046488D01*
X0019935Y0046402D01*
X0020065Y0046312D01*
X0020193Y0046219D01*
X0020319Y0046123D01*
X0020442Y0046023D01*
X0020563Y0045921D01*
X0020681Y0045816D01*
X0020796Y0045707D01*
X0020909Y0045596D01*
X0021019Y0045482D01*
X0021126Y0045365D01*
X0021230Y0045246D01*
X0021331Y0045124D01*
X0021428Y0044999D01*
X0021523Y0044872D01*
X0021614Y0044743D01*
X0021703Y0044612D01*
X0021787Y0044478D01*
X0021869Y0044342D01*
X0021947Y0044205D01*
X0022021Y0044065D01*
X0022092Y0043923D01*
X0022160Y0043780D01*
X0022224Y0043635D01*
X0022284Y0043489D01*
X0022340Y0043341D01*
X0022393Y0043192D01*
X0022442Y0043041D01*
X0022487Y0042889D01*
X0022528Y0042736D01*
X0022566Y0042583D01*
X0022599Y0042428D01*
X0022629Y0042272D01*
X0022655Y0042116D01*
X0022676Y0041959D01*
X0022694Y0041802D01*
X0022708Y0041644D01*
X0022718Y0041486D01*
X0022724Y0041328D01*
X0022726Y0041170D01*
X0022724Y0041012D01*
X0022718Y0040854D01*
X0022708Y0040696D01*
X0022694Y0040538D01*
X0022676Y0040381D01*
X0022655Y0040224D01*
X0022629Y0040068D01*
X0022599Y0039912D01*
X0022566Y0039757D01*
X0022528Y0039604D01*
X0022487Y0039451D01*
X0022442Y0039299D01*
X0022393Y0039148D01*
X0022340Y0038999D01*
X0022284Y0038851D01*
X0022224Y0038705D01*
X0022160Y0038560D01*
X0022092Y0038417D01*
X0022021Y0038275D01*
X0021947Y0038135D01*
X0021869Y0037998D01*
X0021787Y0037862D01*
X0021703Y0037728D01*
X0021614Y0037597D01*
X0021523Y0037468D01*
X0021428Y0037341D01*
X0021331Y0037216D01*
X0021230Y0037094D01*
X0021126Y0036975D01*
X0021019Y0036858D01*
X0020909Y0036744D01*
X0020796Y0036633D01*
X0020681Y0036524D01*
X0020563Y0036419D01*
X0020442Y0036317D01*
X0020319Y0036217D01*
X0020193Y0036121D01*
X0020065Y0036028D01*
X0019935Y0035938D01*
X0019802Y0035852D01*
X0019667Y0035768D01*
X0019531Y0035689D01*
X0019392Y0035612D01*
X0019251Y0035540D01*
X0019109Y0035470D01*
X0018965Y0035405D01*
X0018819Y0035343D01*
X0018672Y0035285D01*
X0018523Y0035230D01*
X0018373Y0035179D01*
X0018222Y0035132D01*
X0018070Y0035089D01*
X0017917Y0035050D01*
X0017762Y0035014D01*
X0017607Y0034983D01*
X0017451Y0034955D01*
X0017295Y0034931D01*
X0017138Y0034911D01*
X0016980Y0034895D01*
X0016823Y0034883D01*
X0016664Y0034875D01*
X0016506Y0034871D01*
X0016348Y0034871D01*
X0016190Y0034875D01*
X0016031Y0034883D01*
X0015874Y0034895D01*
X0015716Y0034911D01*
X0015559Y0034931D01*
X0015403Y0034955D01*
X0015247Y0034983D01*
X0015092Y0035014D01*
X0014937Y0035050D01*
X0014784Y0035089D01*
X0014632Y0035132D01*
X0014481Y0035179D01*
X0014331Y0035230D01*
X0014182Y0035285D01*
X0014035Y0035343D01*
X0013889Y0035405D01*
X0013745Y0035470D01*
X0013603Y0035540D01*
X0013462Y0035612D01*
X0013323Y0035689D01*
X0013187Y0035768D01*
X0013052Y0035852D01*
X0012919Y0035938D01*
X0012789Y0036028D01*
X0012661Y0036121D01*
X0012535Y0036217D01*
X0012412Y0036317D01*
X0012291Y0036419D01*
X0012173Y0036524D01*
X0012058Y0036633D01*
X0011945Y0036744D01*
X0011835Y0036858D01*
X0011728Y0036975D01*
X0011624Y0037094D01*
X0011523Y0037216D01*
X0011426Y0037341D01*
X0011331Y0037468D01*
X0011240Y0037597D01*
X0011151Y0037728D01*
X0011067Y0037862D01*
X0010985Y0037998D01*
X0010907Y0038135D01*
X0010833Y0038275D01*
X0010762Y0038417D01*
X0010694Y0038560D01*
X0010630Y0038705D01*
X0010570Y0038851D01*
X0010514Y0038999D01*
X0010461Y0039148D01*
X0010412Y0039299D01*
X0010367Y0039451D01*
X0010326Y0039604D01*
X0010288Y0039757D01*
X0010255Y0039912D01*
X0010225Y0040068D01*
X0010199Y0040224D01*
X0010178Y0040381D01*
X0010160Y0040538D01*
X0010146Y0040696D01*
X0010136Y0040854D01*
X0010130Y0041012D01*
X0010128Y0041170D01*
X0168986Y0025422D02*
X0168988Y0025484D01*
X0168994Y0025547D01*
X0169004Y0025608D01*
X0169018Y0025669D01*
X0169035Y0025729D01*
X0169056Y0025788D01*
X0169082Y0025845D01*
X0169110Y0025900D01*
X0169142Y0025954D01*
X0169178Y0026005D01*
X0169216Y0026055D01*
X0169258Y0026101D01*
X0169302Y0026145D01*
X0169350Y0026186D01*
X0169399Y0026224D01*
X0169451Y0026258D01*
X0169505Y0026289D01*
X0169561Y0026317D01*
X0169619Y0026341D01*
X0169678Y0026362D01*
X0169738Y0026378D01*
X0169799Y0026391D01*
X0169861Y0026400D01*
X0169923Y0026405D01*
X0169986Y0026406D01*
X0170048Y0026403D01*
X0170110Y0026396D01*
X0170172Y0026385D01*
X0170232Y0026370D01*
X0170292Y0026352D01*
X0170350Y0026330D01*
X0170407Y0026304D01*
X0170462Y0026274D01*
X0170515Y0026241D01*
X0170566Y0026205D01*
X0170614Y0026166D01*
X0170660Y0026123D01*
X0170703Y0026078D01*
X0170743Y0026030D01*
X0170780Y0025980D01*
X0170814Y0025927D01*
X0170845Y0025873D01*
X0170871Y0025817D01*
X0170895Y0025759D01*
X0170914Y0025699D01*
X0170930Y0025639D01*
X0170942Y0025577D01*
X0170950Y0025516D01*
X0170954Y0025453D01*
X0170954Y0025391D01*
X0170950Y0025328D01*
X0170942Y0025267D01*
X0170930Y0025205D01*
X0170914Y0025145D01*
X0170895Y0025085D01*
X0170871Y0025027D01*
X0170845Y0024971D01*
X0170814Y0024917D01*
X0170780Y0024864D01*
X0170743Y0024814D01*
X0170703Y0024766D01*
X0170660Y0024721D01*
X0170614Y0024678D01*
X0170566Y0024639D01*
X0170515Y0024603D01*
X0170462Y0024570D01*
X0170407Y0024540D01*
X0170350Y0024514D01*
X0170292Y0024492D01*
X0170232Y0024474D01*
X0170172Y0024459D01*
X0170110Y0024448D01*
X0170048Y0024441D01*
X0169986Y0024438D01*
X0169923Y0024439D01*
X0169861Y0024444D01*
X0169799Y0024453D01*
X0169738Y0024466D01*
X0169678Y0024482D01*
X0169619Y0024503D01*
X0169561Y0024527D01*
X0169505Y0024555D01*
X0169451Y0024586D01*
X0169399Y0024620D01*
X0169350Y0024658D01*
X0169302Y0024699D01*
X0169258Y0024743D01*
X0169216Y0024789D01*
X0169178Y0024839D01*
X0169142Y0024890D01*
X0169110Y0024944D01*
X0169082Y0024999D01*
X0169056Y0025056D01*
X0169035Y0025115D01*
X0169018Y0025175D01*
X0169004Y0025236D01*
X0168994Y0025297D01*
X0168988Y0025360D01*
X0168986Y0025422D01*
X0168986Y0021485D02*
X0168988Y0021547D01*
X0168994Y0021610D01*
X0169004Y0021671D01*
X0169018Y0021732D01*
X0169035Y0021792D01*
X0169056Y0021851D01*
X0169082Y0021908D01*
X0169110Y0021963D01*
X0169142Y0022017D01*
X0169178Y0022068D01*
X0169216Y0022118D01*
X0169258Y0022164D01*
X0169302Y0022208D01*
X0169350Y0022249D01*
X0169399Y0022287D01*
X0169451Y0022321D01*
X0169505Y0022352D01*
X0169561Y0022380D01*
X0169619Y0022404D01*
X0169678Y0022425D01*
X0169738Y0022441D01*
X0169799Y0022454D01*
X0169861Y0022463D01*
X0169923Y0022468D01*
X0169986Y0022469D01*
X0170048Y0022466D01*
X0170110Y0022459D01*
X0170172Y0022448D01*
X0170232Y0022433D01*
X0170292Y0022415D01*
X0170350Y0022393D01*
X0170407Y0022367D01*
X0170462Y0022337D01*
X0170515Y0022304D01*
X0170566Y0022268D01*
X0170614Y0022229D01*
X0170660Y0022186D01*
X0170703Y0022141D01*
X0170743Y0022093D01*
X0170780Y0022043D01*
X0170814Y0021990D01*
X0170845Y0021936D01*
X0170871Y0021880D01*
X0170895Y0021822D01*
X0170914Y0021762D01*
X0170930Y0021702D01*
X0170942Y0021640D01*
X0170950Y0021579D01*
X0170954Y0021516D01*
X0170954Y0021454D01*
X0170950Y0021391D01*
X0170942Y0021330D01*
X0170930Y0021268D01*
X0170914Y0021208D01*
X0170895Y0021148D01*
X0170871Y0021090D01*
X0170845Y0021034D01*
X0170814Y0020980D01*
X0170780Y0020927D01*
X0170743Y0020877D01*
X0170703Y0020829D01*
X0170660Y0020784D01*
X0170614Y0020741D01*
X0170566Y0020702D01*
X0170515Y0020666D01*
X0170462Y0020633D01*
X0170407Y0020603D01*
X0170350Y0020577D01*
X0170292Y0020555D01*
X0170232Y0020537D01*
X0170172Y0020522D01*
X0170110Y0020511D01*
X0170048Y0020504D01*
X0169986Y0020501D01*
X0169923Y0020502D01*
X0169861Y0020507D01*
X0169799Y0020516D01*
X0169738Y0020529D01*
X0169678Y0020545D01*
X0169619Y0020566D01*
X0169561Y0020590D01*
X0169505Y0020618D01*
X0169451Y0020649D01*
X0169399Y0020683D01*
X0169350Y0020721D01*
X0169302Y0020762D01*
X0169258Y0020806D01*
X0169216Y0020852D01*
X0169178Y0020902D01*
X0169142Y0020953D01*
X0169110Y0021007D01*
X0169082Y0021062D01*
X0169056Y0021119D01*
X0169035Y0021178D01*
X0169018Y0021238D01*
X0169004Y0021299D01*
X0168994Y0021360D01*
X0168988Y0021423D01*
X0168986Y0021485D01*
X0168986Y0017548D02*
X0168988Y0017610D01*
X0168994Y0017673D01*
X0169004Y0017734D01*
X0169018Y0017795D01*
X0169035Y0017855D01*
X0169056Y0017914D01*
X0169082Y0017971D01*
X0169110Y0018026D01*
X0169142Y0018080D01*
X0169178Y0018131D01*
X0169216Y0018181D01*
X0169258Y0018227D01*
X0169302Y0018271D01*
X0169350Y0018312D01*
X0169399Y0018350D01*
X0169451Y0018384D01*
X0169505Y0018415D01*
X0169561Y0018443D01*
X0169619Y0018467D01*
X0169678Y0018488D01*
X0169738Y0018504D01*
X0169799Y0018517D01*
X0169861Y0018526D01*
X0169923Y0018531D01*
X0169986Y0018532D01*
X0170048Y0018529D01*
X0170110Y0018522D01*
X0170172Y0018511D01*
X0170232Y0018496D01*
X0170292Y0018478D01*
X0170350Y0018456D01*
X0170407Y0018430D01*
X0170462Y0018400D01*
X0170515Y0018367D01*
X0170566Y0018331D01*
X0170614Y0018292D01*
X0170660Y0018249D01*
X0170703Y0018204D01*
X0170743Y0018156D01*
X0170780Y0018106D01*
X0170814Y0018053D01*
X0170845Y0017999D01*
X0170871Y0017943D01*
X0170895Y0017885D01*
X0170914Y0017825D01*
X0170930Y0017765D01*
X0170942Y0017703D01*
X0170950Y0017642D01*
X0170954Y0017579D01*
X0170954Y0017517D01*
X0170950Y0017454D01*
X0170942Y0017393D01*
X0170930Y0017331D01*
X0170914Y0017271D01*
X0170895Y0017211D01*
X0170871Y0017153D01*
X0170845Y0017097D01*
X0170814Y0017043D01*
X0170780Y0016990D01*
X0170743Y0016940D01*
X0170703Y0016892D01*
X0170660Y0016847D01*
X0170614Y0016804D01*
X0170566Y0016765D01*
X0170515Y0016729D01*
X0170462Y0016696D01*
X0170407Y0016666D01*
X0170350Y0016640D01*
X0170292Y0016618D01*
X0170232Y0016600D01*
X0170172Y0016585D01*
X0170110Y0016574D01*
X0170048Y0016567D01*
X0169986Y0016564D01*
X0169923Y0016565D01*
X0169861Y0016570D01*
X0169799Y0016579D01*
X0169738Y0016592D01*
X0169678Y0016608D01*
X0169619Y0016629D01*
X0169561Y0016653D01*
X0169505Y0016681D01*
X0169451Y0016712D01*
X0169399Y0016746D01*
X0169350Y0016784D01*
X0169302Y0016825D01*
X0169258Y0016869D01*
X0169216Y0016915D01*
X0169178Y0016965D01*
X0169142Y0017016D01*
X0169110Y0017070D01*
X0169082Y0017125D01*
X0169056Y0017182D01*
X0169035Y0017241D01*
X0169018Y0017301D01*
X0169004Y0017362D01*
X0168994Y0017423D01*
X0168988Y0017486D01*
X0168986Y0017548D01*
X0172923Y0017548D02*
X0172925Y0017610D01*
X0172931Y0017673D01*
X0172941Y0017734D01*
X0172955Y0017795D01*
X0172972Y0017855D01*
X0172993Y0017914D01*
X0173019Y0017971D01*
X0173047Y0018026D01*
X0173079Y0018080D01*
X0173115Y0018131D01*
X0173153Y0018181D01*
X0173195Y0018227D01*
X0173239Y0018271D01*
X0173287Y0018312D01*
X0173336Y0018350D01*
X0173388Y0018384D01*
X0173442Y0018415D01*
X0173498Y0018443D01*
X0173556Y0018467D01*
X0173615Y0018488D01*
X0173675Y0018504D01*
X0173736Y0018517D01*
X0173798Y0018526D01*
X0173860Y0018531D01*
X0173923Y0018532D01*
X0173985Y0018529D01*
X0174047Y0018522D01*
X0174109Y0018511D01*
X0174169Y0018496D01*
X0174229Y0018478D01*
X0174287Y0018456D01*
X0174344Y0018430D01*
X0174399Y0018400D01*
X0174452Y0018367D01*
X0174503Y0018331D01*
X0174551Y0018292D01*
X0174597Y0018249D01*
X0174640Y0018204D01*
X0174680Y0018156D01*
X0174717Y0018106D01*
X0174751Y0018053D01*
X0174782Y0017999D01*
X0174808Y0017943D01*
X0174832Y0017885D01*
X0174851Y0017825D01*
X0174867Y0017765D01*
X0174879Y0017703D01*
X0174887Y0017642D01*
X0174891Y0017579D01*
X0174891Y0017517D01*
X0174887Y0017454D01*
X0174879Y0017393D01*
X0174867Y0017331D01*
X0174851Y0017271D01*
X0174832Y0017211D01*
X0174808Y0017153D01*
X0174782Y0017097D01*
X0174751Y0017043D01*
X0174717Y0016990D01*
X0174680Y0016940D01*
X0174640Y0016892D01*
X0174597Y0016847D01*
X0174551Y0016804D01*
X0174503Y0016765D01*
X0174452Y0016729D01*
X0174399Y0016696D01*
X0174344Y0016666D01*
X0174287Y0016640D01*
X0174229Y0016618D01*
X0174169Y0016600D01*
X0174109Y0016585D01*
X0174047Y0016574D01*
X0173985Y0016567D01*
X0173923Y0016564D01*
X0173860Y0016565D01*
X0173798Y0016570D01*
X0173736Y0016579D01*
X0173675Y0016592D01*
X0173615Y0016608D01*
X0173556Y0016629D01*
X0173498Y0016653D01*
X0173442Y0016681D01*
X0173388Y0016712D01*
X0173336Y0016746D01*
X0173287Y0016784D01*
X0173239Y0016825D01*
X0173195Y0016869D01*
X0173153Y0016915D01*
X0173115Y0016965D01*
X0173079Y0017016D01*
X0173047Y0017070D01*
X0173019Y0017125D01*
X0172993Y0017182D01*
X0172972Y0017241D01*
X0172955Y0017301D01*
X0172941Y0017362D01*
X0172931Y0017423D01*
X0172925Y0017486D01*
X0172923Y0017548D01*
X0172923Y0021485D02*
X0172925Y0021547D01*
X0172931Y0021610D01*
X0172941Y0021671D01*
X0172955Y0021732D01*
X0172972Y0021792D01*
X0172993Y0021851D01*
X0173019Y0021908D01*
X0173047Y0021963D01*
X0173079Y0022017D01*
X0173115Y0022068D01*
X0173153Y0022118D01*
X0173195Y0022164D01*
X0173239Y0022208D01*
X0173287Y0022249D01*
X0173336Y0022287D01*
X0173388Y0022321D01*
X0173442Y0022352D01*
X0173498Y0022380D01*
X0173556Y0022404D01*
X0173615Y0022425D01*
X0173675Y0022441D01*
X0173736Y0022454D01*
X0173798Y0022463D01*
X0173860Y0022468D01*
X0173923Y0022469D01*
X0173985Y0022466D01*
X0174047Y0022459D01*
X0174109Y0022448D01*
X0174169Y0022433D01*
X0174229Y0022415D01*
X0174287Y0022393D01*
X0174344Y0022367D01*
X0174399Y0022337D01*
X0174452Y0022304D01*
X0174503Y0022268D01*
X0174551Y0022229D01*
X0174597Y0022186D01*
X0174640Y0022141D01*
X0174680Y0022093D01*
X0174717Y0022043D01*
X0174751Y0021990D01*
X0174782Y0021936D01*
X0174808Y0021880D01*
X0174832Y0021822D01*
X0174851Y0021762D01*
X0174867Y0021702D01*
X0174879Y0021640D01*
X0174887Y0021579D01*
X0174891Y0021516D01*
X0174891Y0021454D01*
X0174887Y0021391D01*
X0174879Y0021330D01*
X0174867Y0021268D01*
X0174851Y0021208D01*
X0174832Y0021148D01*
X0174808Y0021090D01*
X0174782Y0021034D01*
X0174751Y0020980D01*
X0174717Y0020927D01*
X0174680Y0020877D01*
X0174640Y0020829D01*
X0174597Y0020784D01*
X0174551Y0020741D01*
X0174503Y0020702D01*
X0174452Y0020666D01*
X0174399Y0020633D01*
X0174344Y0020603D01*
X0174287Y0020577D01*
X0174229Y0020555D01*
X0174169Y0020537D01*
X0174109Y0020522D01*
X0174047Y0020511D01*
X0173985Y0020504D01*
X0173923Y0020501D01*
X0173860Y0020502D01*
X0173798Y0020507D01*
X0173736Y0020516D01*
X0173675Y0020529D01*
X0173615Y0020545D01*
X0173556Y0020566D01*
X0173498Y0020590D01*
X0173442Y0020618D01*
X0173388Y0020649D01*
X0173336Y0020683D01*
X0173287Y0020721D01*
X0173239Y0020762D01*
X0173195Y0020806D01*
X0173153Y0020852D01*
X0173115Y0020902D01*
X0173079Y0020953D01*
X0173047Y0021007D01*
X0173019Y0021062D01*
X0172993Y0021119D01*
X0172972Y0021178D01*
X0172955Y0021238D01*
X0172941Y0021299D01*
X0172931Y0021360D01*
X0172925Y0021423D01*
X0172923Y0021485D01*
X0172923Y0025422D02*
X0172925Y0025484D01*
X0172931Y0025547D01*
X0172941Y0025608D01*
X0172955Y0025669D01*
X0172972Y0025729D01*
X0172993Y0025788D01*
X0173019Y0025845D01*
X0173047Y0025900D01*
X0173079Y0025954D01*
X0173115Y0026005D01*
X0173153Y0026055D01*
X0173195Y0026101D01*
X0173239Y0026145D01*
X0173287Y0026186D01*
X0173336Y0026224D01*
X0173388Y0026258D01*
X0173442Y0026289D01*
X0173498Y0026317D01*
X0173556Y0026341D01*
X0173615Y0026362D01*
X0173675Y0026378D01*
X0173736Y0026391D01*
X0173798Y0026400D01*
X0173860Y0026405D01*
X0173923Y0026406D01*
X0173985Y0026403D01*
X0174047Y0026396D01*
X0174109Y0026385D01*
X0174169Y0026370D01*
X0174229Y0026352D01*
X0174287Y0026330D01*
X0174344Y0026304D01*
X0174399Y0026274D01*
X0174452Y0026241D01*
X0174503Y0026205D01*
X0174551Y0026166D01*
X0174597Y0026123D01*
X0174640Y0026078D01*
X0174680Y0026030D01*
X0174717Y0025980D01*
X0174751Y0025927D01*
X0174782Y0025873D01*
X0174808Y0025817D01*
X0174832Y0025759D01*
X0174851Y0025699D01*
X0174867Y0025639D01*
X0174879Y0025577D01*
X0174887Y0025516D01*
X0174891Y0025453D01*
X0174891Y0025391D01*
X0174887Y0025328D01*
X0174879Y0025267D01*
X0174867Y0025205D01*
X0174851Y0025145D01*
X0174832Y0025085D01*
X0174808Y0025027D01*
X0174782Y0024971D01*
X0174751Y0024917D01*
X0174717Y0024864D01*
X0174680Y0024814D01*
X0174640Y0024766D01*
X0174597Y0024721D01*
X0174551Y0024678D01*
X0174503Y0024639D01*
X0174452Y0024603D01*
X0174399Y0024570D01*
X0174344Y0024540D01*
X0174287Y0024514D01*
X0174229Y0024492D01*
X0174169Y0024474D01*
X0174109Y0024459D01*
X0174047Y0024448D01*
X0173985Y0024441D01*
X0173923Y0024438D01*
X0173860Y0024439D01*
X0173798Y0024444D01*
X0173736Y0024453D01*
X0173675Y0024466D01*
X0173615Y0024482D01*
X0173556Y0024503D01*
X0173498Y0024527D01*
X0173442Y0024555D01*
X0173388Y0024586D01*
X0173336Y0024620D01*
X0173287Y0024658D01*
X0173239Y0024699D01*
X0173195Y0024743D01*
X0173153Y0024789D01*
X0173115Y0024839D01*
X0173079Y0024890D01*
X0173047Y0024944D01*
X0173019Y0024999D01*
X0172993Y0025056D01*
X0172972Y0025115D01*
X0172955Y0025175D01*
X0172941Y0025236D01*
X0172931Y0025297D01*
X0172925Y0025360D01*
X0172923Y0025422D01*
X0176860Y0025422D02*
X0176862Y0025484D01*
X0176868Y0025547D01*
X0176878Y0025608D01*
X0176892Y0025669D01*
X0176909Y0025729D01*
X0176930Y0025788D01*
X0176956Y0025845D01*
X0176984Y0025900D01*
X0177016Y0025954D01*
X0177052Y0026005D01*
X0177090Y0026055D01*
X0177132Y0026101D01*
X0177176Y0026145D01*
X0177224Y0026186D01*
X0177273Y0026224D01*
X0177325Y0026258D01*
X0177379Y0026289D01*
X0177435Y0026317D01*
X0177493Y0026341D01*
X0177552Y0026362D01*
X0177612Y0026378D01*
X0177673Y0026391D01*
X0177735Y0026400D01*
X0177797Y0026405D01*
X0177860Y0026406D01*
X0177922Y0026403D01*
X0177984Y0026396D01*
X0178046Y0026385D01*
X0178106Y0026370D01*
X0178166Y0026352D01*
X0178224Y0026330D01*
X0178281Y0026304D01*
X0178336Y0026274D01*
X0178389Y0026241D01*
X0178440Y0026205D01*
X0178488Y0026166D01*
X0178534Y0026123D01*
X0178577Y0026078D01*
X0178617Y0026030D01*
X0178654Y0025980D01*
X0178688Y0025927D01*
X0178719Y0025873D01*
X0178745Y0025817D01*
X0178769Y0025759D01*
X0178788Y0025699D01*
X0178804Y0025639D01*
X0178816Y0025577D01*
X0178824Y0025516D01*
X0178828Y0025453D01*
X0178828Y0025391D01*
X0178824Y0025328D01*
X0178816Y0025267D01*
X0178804Y0025205D01*
X0178788Y0025145D01*
X0178769Y0025085D01*
X0178745Y0025027D01*
X0178719Y0024971D01*
X0178688Y0024917D01*
X0178654Y0024864D01*
X0178617Y0024814D01*
X0178577Y0024766D01*
X0178534Y0024721D01*
X0178488Y0024678D01*
X0178440Y0024639D01*
X0178389Y0024603D01*
X0178336Y0024570D01*
X0178281Y0024540D01*
X0178224Y0024514D01*
X0178166Y0024492D01*
X0178106Y0024474D01*
X0178046Y0024459D01*
X0177984Y0024448D01*
X0177922Y0024441D01*
X0177860Y0024438D01*
X0177797Y0024439D01*
X0177735Y0024444D01*
X0177673Y0024453D01*
X0177612Y0024466D01*
X0177552Y0024482D01*
X0177493Y0024503D01*
X0177435Y0024527D01*
X0177379Y0024555D01*
X0177325Y0024586D01*
X0177273Y0024620D01*
X0177224Y0024658D01*
X0177176Y0024699D01*
X0177132Y0024743D01*
X0177090Y0024789D01*
X0177052Y0024839D01*
X0177016Y0024890D01*
X0176984Y0024944D01*
X0176956Y0024999D01*
X0176930Y0025056D01*
X0176909Y0025115D01*
X0176892Y0025175D01*
X0176878Y0025236D01*
X0176868Y0025297D01*
X0176862Y0025360D01*
X0176860Y0025422D01*
X0176860Y0021485D02*
X0176862Y0021547D01*
X0176868Y0021610D01*
X0176878Y0021671D01*
X0176892Y0021732D01*
X0176909Y0021792D01*
X0176930Y0021851D01*
X0176956Y0021908D01*
X0176984Y0021963D01*
X0177016Y0022017D01*
X0177052Y0022068D01*
X0177090Y0022118D01*
X0177132Y0022164D01*
X0177176Y0022208D01*
X0177224Y0022249D01*
X0177273Y0022287D01*
X0177325Y0022321D01*
X0177379Y0022352D01*
X0177435Y0022380D01*
X0177493Y0022404D01*
X0177552Y0022425D01*
X0177612Y0022441D01*
X0177673Y0022454D01*
X0177735Y0022463D01*
X0177797Y0022468D01*
X0177860Y0022469D01*
X0177922Y0022466D01*
X0177984Y0022459D01*
X0178046Y0022448D01*
X0178106Y0022433D01*
X0178166Y0022415D01*
X0178224Y0022393D01*
X0178281Y0022367D01*
X0178336Y0022337D01*
X0178389Y0022304D01*
X0178440Y0022268D01*
X0178488Y0022229D01*
X0178534Y0022186D01*
X0178577Y0022141D01*
X0178617Y0022093D01*
X0178654Y0022043D01*
X0178688Y0021990D01*
X0178719Y0021936D01*
X0178745Y0021880D01*
X0178769Y0021822D01*
X0178788Y0021762D01*
X0178804Y0021702D01*
X0178816Y0021640D01*
X0178824Y0021579D01*
X0178828Y0021516D01*
X0178828Y0021454D01*
X0178824Y0021391D01*
X0178816Y0021330D01*
X0178804Y0021268D01*
X0178788Y0021208D01*
X0178769Y0021148D01*
X0178745Y0021090D01*
X0178719Y0021034D01*
X0178688Y0020980D01*
X0178654Y0020927D01*
X0178617Y0020877D01*
X0178577Y0020829D01*
X0178534Y0020784D01*
X0178488Y0020741D01*
X0178440Y0020702D01*
X0178389Y0020666D01*
X0178336Y0020633D01*
X0178281Y0020603D01*
X0178224Y0020577D01*
X0178166Y0020555D01*
X0178106Y0020537D01*
X0178046Y0020522D01*
X0177984Y0020511D01*
X0177922Y0020504D01*
X0177860Y0020501D01*
X0177797Y0020502D01*
X0177735Y0020507D01*
X0177673Y0020516D01*
X0177612Y0020529D01*
X0177552Y0020545D01*
X0177493Y0020566D01*
X0177435Y0020590D01*
X0177379Y0020618D01*
X0177325Y0020649D01*
X0177273Y0020683D01*
X0177224Y0020721D01*
X0177176Y0020762D01*
X0177132Y0020806D01*
X0177090Y0020852D01*
X0177052Y0020902D01*
X0177016Y0020953D01*
X0176984Y0021007D01*
X0176956Y0021062D01*
X0176930Y0021119D01*
X0176909Y0021178D01*
X0176892Y0021238D01*
X0176878Y0021299D01*
X0176868Y0021360D01*
X0176862Y0021423D01*
X0176860Y0021485D01*
X0176860Y0017548D02*
X0176862Y0017610D01*
X0176868Y0017673D01*
X0176878Y0017734D01*
X0176892Y0017795D01*
X0176909Y0017855D01*
X0176930Y0017914D01*
X0176956Y0017971D01*
X0176984Y0018026D01*
X0177016Y0018080D01*
X0177052Y0018131D01*
X0177090Y0018181D01*
X0177132Y0018227D01*
X0177176Y0018271D01*
X0177224Y0018312D01*
X0177273Y0018350D01*
X0177325Y0018384D01*
X0177379Y0018415D01*
X0177435Y0018443D01*
X0177493Y0018467D01*
X0177552Y0018488D01*
X0177612Y0018504D01*
X0177673Y0018517D01*
X0177735Y0018526D01*
X0177797Y0018531D01*
X0177860Y0018532D01*
X0177922Y0018529D01*
X0177984Y0018522D01*
X0178046Y0018511D01*
X0178106Y0018496D01*
X0178166Y0018478D01*
X0178224Y0018456D01*
X0178281Y0018430D01*
X0178336Y0018400D01*
X0178389Y0018367D01*
X0178440Y0018331D01*
X0178488Y0018292D01*
X0178534Y0018249D01*
X0178577Y0018204D01*
X0178617Y0018156D01*
X0178654Y0018106D01*
X0178688Y0018053D01*
X0178719Y0017999D01*
X0178745Y0017943D01*
X0178769Y0017885D01*
X0178788Y0017825D01*
X0178804Y0017765D01*
X0178816Y0017703D01*
X0178824Y0017642D01*
X0178828Y0017579D01*
X0178828Y0017517D01*
X0178824Y0017454D01*
X0178816Y0017393D01*
X0178804Y0017331D01*
X0178788Y0017271D01*
X0178769Y0017211D01*
X0178745Y0017153D01*
X0178719Y0017097D01*
X0178688Y0017043D01*
X0178654Y0016990D01*
X0178617Y0016940D01*
X0178577Y0016892D01*
X0178534Y0016847D01*
X0178488Y0016804D01*
X0178440Y0016765D01*
X0178389Y0016729D01*
X0178336Y0016696D01*
X0178281Y0016666D01*
X0178224Y0016640D01*
X0178166Y0016618D01*
X0178106Y0016600D01*
X0178046Y0016585D01*
X0177984Y0016574D01*
X0177922Y0016567D01*
X0177860Y0016564D01*
X0177797Y0016565D01*
X0177735Y0016570D01*
X0177673Y0016579D01*
X0177612Y0016592D01*
X0177552Y0016608D01*
X0177493Y0016629D01*
X0177435Y0016653D01*
X0177379Y0016681D01*
X0177325Y0016712D01*
X0177273Y0016746D01*
X0177224Y0016784D01*
X0177176Y0016825D01*
X0177132Y0016869D01*
X0177090Y0016915D01*
X0177052Y0016965D01*
X0177016Y0017016D01*
X0176984Y0017070D01*
X0176956Y0017125D01*
X0176930Y0017182D01*
X0176909Y0017241D01*
X0176892Y0017301D01*
X0176878Y0017362D01*
X0176868Y0017423D01*
X0176862Y0017486D01*
X0176860Y0017548D01*
X0491821Y0017548D02*
X0491823Y0017610D01*
X0491829Y0017673D01*
X0491839Y0017734D01*
X0491853Y0017795D01*
X0491870Y0017855D01*
X0491891Y0017914D01*
X0491917Y0017971D01*
X0491945Y0018026D01*
X0491977Y0018080D01*
X0492013Y0018131D01*
X0492051Y0018181D01*
X0492093Y0018227D01*
X0492137Y0018271D01*
X0492185Y0018312D01*
X0492234Y0018350D01*
X0492286Y0018384D01*
X0492340Y0018415D01*
X0492396Y0018443D01*
X0492454Y0018467D01*
X0492513Y0018488D01*
X0492573Y0018504D01*
X0492634Y0018517D01*
X0492696Y0018526D01*
X0492758Y0018531D01*
X0492821Y0018532D01*
X0492883Y0018529D01*
X0492945Y0018522D01*
X0493007Y0018511D01*
X0493067Y0018496D01*
X0493127Y0018478D01*
X0493185Y0018456D01*
X0493242Y0018430D01*
X0493297Y0018400D01*
X0493350Y0018367D01*
X0493401Y0018331D01*
X0493449Y0018292D01*
X0493495Y0018249D01*
X0493538Y0018204D01*
X0493578Y0018156D01*
X0493615Y0018106D01*
X0493649Y0018053D01*
X0493680Y0017999D01*
X0493706Y0017943D01*
X0493730Y0017885D01*
X0493749Y0017825D01*
X0493765Y0017765D01*
X0493777Y0017703D01*
X0493785Y0017642D01*
X0493789Y0017579D01*
X0493789Y0017517D01*
X0493785Y0017454D01*
X0493777Y0017393D01*
X0493765Y0017331D01*
X0493749Y0017271D01*
X0493730Y0017211D01*
X0493706Y0017153D01*
X0493680Y0017097D01*
X0493649Y0017043D01*
X0493615Y0016990D01*
X0493578Y0016940D01*
X0493538Y0016892D01*
X0493495Y0016847D01*
X0493449Y0016804D01*
X0493401Y0016765D01*
X0493350Y0016729D01*
X0493297Y0016696D01*
X0493242Y0016666D01*
X0493185Y0016640D01*
X0493127Y0016618D01*
X0493067Y0016600D01*
X0493007Y0016585D01*
X0492945Y0016574D01*
X0492883Y0016567D01*
X0492821Y0016564D01*
X0492758Y0016565D01*
X0492696Y0016570D01*
X0492634Y0016579D01*
X0492573Y0016592D01*
X0492513Y0016608D01*
X0492454Y0016629D01*
X0492396Y0016653D01*
X0492340Y0016681D01*
X0492286Y0016712D01*
X0492234Y0016746D01*
X0492185Y0016784D01*
X0492137Y0016825D01*
X0492093Y0016869D01*
X0492051Y0016915D01*
X0492013Y0016965D01*
X0491977Y0017016D01*
X0491945Y0017070D01*
X0491917Y0017125D01*
X0491891Y0017182D01*
X0491870Y0017241D01*
X0491853Y0017301D01*
X0491839Y0017362D01*
X0491829Y0017423D01*
X0491823Y0017486D01*
X0491821Y0017548D01*
X0491821Y0021485D02*
X0491823Y0021547D01*
X0491829Y0021610D01*
X0491839Y0021671D01*
X0491853Y0021732D01*
X0491870Y0021792D01*
X0491891Y0021851D01*
X0491917Y0021908D01*
X0491945Y0021963D01*
X0491977Y0022017D01*
X0492013Y0022068D01*
X0492051Y0022118D01*
X0492093Y0022164D01*
X0492137Y0022208D01*
X0492185Y0022249D01*
X0492234Y0022287D01*
X0492286Y0022321D01*
X0492340Y0022352D01*
X0492396Y0022380D01*
X0492454Y0022404D01*
X0492513Y0022425D01*
X0492573Y0022441D01*
X0492634Y0022454D01*
X0492696Y0022463D01*
X0492758Y0022468D01*
X0492821Y0022469D01*
X0492883Y0022466D01*
X0492945Y0022459D01*
X0493007Y0022448D01*
X0493067Y0022433D01*
X0493127Y0022415D01*
X0493185Y0022393D01*
X0493242Y0022367D01*
X0493297Y0022337D01*
X0493350Y0022304D01*
X0493401Y0022268D01*
X0493449Y0022229D01*
X0493495Y0022186D01*
X0493538Y0022141D01*
X0493578Y0022093D01*
X0493615Y0022043D01*
X0493649Y0021990D01*
X0493680Y0021936D01*
X0493706Y0021880D01*
X0493730Y0021822D01*
X0493749Y0021762D01*
X0493765Y0021702D01*
X0493777Y0021640D01*
X0493785Y0021579D01*
X0493789Y0021516D01*
X0493789Y0021454D01*
X0493785Y0021391D01*
X0493777Y0021330D01*
X0493765Y0021268D01*
X0493749Y0021208D01*
X0493730Y0021148D01*
X0493706Y0021090D01*
X0493680Y0021034D01*
X0493649Y0020980D01*
X0493615Y0020927D01*
X0493578Y0020877D01*
X0493538Y0020829D01*
X0493495Y0020784D01*
X0493449Y0020741D01*
X0493401Y0020702D01*
X0493350Y0020666D01*
X0493297Y0020633D01*
X0493242Y0020603D01*
X0493185Y0020577D01*
X0493127Y0020555D01*
X0493067Y0020537D01*
X0493007Y0020522D01*
X0492945Y0020511D01*
X0492883Y0020504D01*
X0492821Y0020501D01*
X0492758Y0020502D01*
X0492696Y0020507D01*
X0492634Y0020516D01*
X0492573Y0020529D01*
X0492513Y0020545D01*
X0492454Y0020566D01*
X0492396Y0020590D01*
X0492340Y0020618D01*
X0492286Y0020649D01*
X0492234Y0020683D01*
X0492185Y0020721D01*
X0492137Y0020762D01*
X0492093Y0020806D01*
X0492051Y0020852D01*
X0492013Y0020902D01*
X0491977Y0020953D01*
X0491945Y0021007D01*
X0491917Y0021062D01*
X0491891Y0021119D01*
X0491870Y0021178D01*
X0491853Y0021238D01*
X0491839Y0021299D01*
X0491829Y0021360D01*
X0491823Y0021423D01*
X0491821Y0021485D01*
X0491821Y0025422D02*
X0491823Y0025484D01*
X0491829Y0025547D01*
X0491839Y0025608D01*
X0491853Y0025669D01*
X0491870Y0025729D01*
X0491891Y0025788D01*
X0491917Y0025845D01*
X0491945Y0025900D01*
X0491977Y0025954D01*
X0492013Y0026005D01*
X0492051Y0026055D01*
X0492093Y0026101D01*
X0492137Y0026145D01*
X0492185Y0026186D01*
X0492234Y0026224D01*
X0492286Y0026258D01*
X0492340Y0026289D01*
X0492396Y0026317D01*
X0492454Y0026341D01*
X0492513Y0026362D01*
X0492573Y0026378D01*
X0492634Y0026391D01*
X0492696Y0026400D01*
X0492758Y0026405D01*
X0492821Y0026406D01*
X0492883Y0026403D01*
X0492945Y0026396D01*
X0493007Y0026385D01*
X0493067Y0026370D01*
X0493127Y0026352D01*
X0493185Y0026330D01*
X0493242Y0026304D01*
X0493297Y0026274D01*
X0493350Y0026241D01*
X0493401Y0026205D01*
X0493449Y0026166D01*
X0493495Y0026123D01*
X0493538Y0026078D01*
X0493578Y0026030D01*
X0493615Y0025980D01*
X0493649Y0025927D01*
X0493680Y0025873D01*
X0493706Y0025817D01*
X0493730Y0025759D01*
X0493749Y0025699D01*
X0493765Y0025639D01*
X0493777Y0025577D01*
X0493785Y0025516D01*
X0493789Y0025453D01*
X0493789Y0025391D01*
X0493785Y0025328D01*
X0493777Y0025267D01*
X0493765Y0025205D01*
X0493749Y0025145D01*
X0493730Y0025085D01*
X0493706Y0025027D01*
X0493680Y0024971D01*
X0493649Y0024917D01*
X0493615Y0024864D01*
X0493578Y0024814D01*
X0493538Y0024766D01*
X0493495Y0024721D01*
X0493449Y0024678D01*
X0493401Y0024639D01*
X0493350Y0024603D01*
X0493297Y0024570D01*
X0493242Y0024540D01*
X0493185Y0024514D01*
X0493127Y0024492D01*
X0493067Y0024474D01*
X0493007Y0024459D01*
X0492945Y0024448D01*
X0492883Y0024441D01*
X0492821Y0024438D01*
X0492758Y0024439D01*
X0492696Y0024444D01*
X0492634Y0024453D01*
X0492573Y0024466D01*
X0492513Y0024482D01*
X0492454Y0024503D01*
X0492396Y0024527D01*
X0492340Y0024555D01*
X0492286Y0024586D01*
X0492234Y0024620D01*
X0492185Y0024658D01*
X0492137Y0024699D01*
X0492093Y0024743D01*
X0492051Y0024789D01*
X0492013Y0024839D01*
X0491977Y0024890D01*
X0491945Y0024944D01*
X0491917Y0024999D01*
X0491891Y0025056D01*
X0491870Y0025115D01*
X0491853Y0025175D01*
X0491839Y0025236D01*
X0491829Y0025297D01*
X0491823Y0025360D01*
X0491821Y0025422D01*
X0495758Y0025422D02*
X0495760Y0025484D01*
X0495766Y0025547D01*
X0495776Y0025608D01*
X0495790Y0025669D01*
X0495807Y0025729D01*
X0495828Y0025788D01*
X0495854Y0025845D01*
X0495882Y0025900D01*
X0495914Y0025954D01*
X0495950Y0026005D01*
X0495988Y0026055D01*
X0496030Y0026101D01*
X0496074Y0026145D01*
X0496122Y0026186D01*
X0496171Y0026224D01*
X0496223Y0026258D01*
X0496277Y0026289D01*
X0496333Y0026317D01*
X0496391Y0026341D01*
X0496450Y0026362D01*
X0496510Y0026378D01*
X0496571Y0026391D01*
X0496633Y0026400D01*
X0496695Y0026405D01*
X0496758Y0026406D01*
X0496820Y0026403D01*
X0496882Y0026396D01*
X0496944Y0026385D01*
X0497004Y0026370D01*
X0497064Y0026352D01*
X0497122Y0026330D01*
X0497179Y0026304D01*
X0497234Y0026274D01*
X0497287Y0026241D01*
X0497338Y0026205D01*
X0497386Y0026166D01*
X0497432Y0026123D01*
X0497475Y0026078D01*
X0497515Y0026030D01*
X0497552Y0025980D01*
X0497586Y0025927D01*
X0497617Y0025873D01*
X0497643Y0025817D01*
X0497667Y0025759D01*
X0497686Y0025699D01*
X0497702Y0025639D01*
X0497714Y0025577D01*
X0497722Y0025516D01*
X0497726Y0025453D01*
X0497726Y0025391D01*
X0497722Y0025328D01*
X0497714Y0025267D01*
X0497702Y0025205D01*
X0497686Y0025145D01*
X0497667Y0025085D01*
X0497643Y0025027D01*
X0497617Y0024971D01*
X0497586Y0024917D01*
X0497552Y0024864D01*
X0497515Y0024814D01*
X0497475Y0024766D01*
X0497432Y0024721D01*
X0497386Y0024678D01*
X0497338Y0024639D01*
X0497287Y0024603D01*
X0497234Y0024570D01*
X0497179Y0024540D01*
X0497122Y0024514D01*
X0497064Y0024492D01*
X0497004Y0024474D01*
X0496944Y0024459D01*
X0496882Y0024448D01*
X0496820Y0024441D01*
X0496758Y0024438D01*
X0496695Y0024439D01*
X0496633Y0024444D01*
X0496571Y0024453D01*
X0496510Y0024466D01*
X0496450Y0024482D01*
X0496391Y0024503D01*
X0496333Y0024527D01*
X0496277Y0024555D01*
X0496223Y0024586D01*
X0496171Y0024620D01*
X0496122Y0024658D01*
X0496074Y0024699D01*
X0496030Y0024743D01*
X0495988Y0024789D01*
X0495950Y0024839D01*
X0495914Y0024890D01*
X0495882Y0024944D01*
X0495854Y0024999D01*
X0495828Y0025056D01*
X0495807Y0025115D01*
X0495790Y0025175D01*
X0495776Y0025236D01*
X0495766Y0025297D01*
X0495760Y0025360D01*
X0495758Y0025422D01*
X0495758Y0021485D02*
X0495760Y0021547D01*
X0495766Y0021610D01*
X0495776Y0021671D01*
X0495790Y0021732D01*
X0495807Y0021792D01*
X0495828Y0021851D01*
X0495854Y0021908D01*
X0495882Y0021963D01*
X0495914Y0022017D01*
X0495950Y0022068D01*
X0495988Y0022118D01*
X0496030Y0022164D01*
X0496074Y0022208D01*
X0496122Y0022249D01*
X0496171Y0022287D01*
X0496223Y0022321D01*
X0496277Y0022352D01*
X0496333Y0022380D01*
X0496391Y0022404D01*
X0496450Y0022425D01*
X0496510Y0022441D01*
X0496571Y0022454D01*
X0496633Y0022463D01*
X0496695Y0022468D01*
X0496758Y0022469D01*
X0496820Y0022466D01*
X0496882Y0022459D01*
X0496944Y0022448D01*
X0497004Y0022433D01*
X0497064Y0022415D01*
X0497122Y0022393D01*
X0497179Y0022367D01*
X0497234Y0022337D01*
X0497287Y0022304D01*
X0497338Y0022268D01*
X0497386Y0022229D01*
X0497432Y0022186D01*
X0497475Y0022141D01*
X0497515Y0022093D01*
X0497552Y0022043D01*
X0497586Y0021990D01*
X0497617Y0021936D01*
X0497643Y0021880D01*
X0497667Y0021822D01*
X0497686Y0021762D01*
X0497702Y0021702D01*
X0497714Y0021640D01*
X0497722Y0021579D01*
X0497726Y0021516D01*
X0497726Y0021454D01*
X0497722Y0021391D01*
X0497714Y0021330D01*
X0497702Y0021268D01*
X0497686Y0021208D01*
X0497667Y0021148D01*
X0497643Y0021090D01*
X0497617Y0021034D01*
X0497586Y0020980D01*
X0497552Y0020927D01*
X0497515Y0020877D01*
X0497475Y0020829D01*
X0497432Y0020784D01*
X0497386Y0020741D01*
X0497338Y0020702D01*
X0497287Y0020666D01*
X0497234Y0020633D01*
X0497179Y0020603D01*
X0497122Y0020577D01*
X0497064Y0020555D01*
X0497004Y0020537D01*
X0496944Y0020522D01*
X0496882Y0020511D01*
X0496820Y0020504D01*
X0496758Y0020501D01*
X0496695Y0020502D01*
X0496633Y0020507D01*
X0496571Y0020516D01*
X0496510Y0020529D01*
X0496450Y0020545D01*
X0496391Y0020566D01*
X0496333Y0020590D01*
X0496277Y0020618D01*
X0496223Y0020649D01*
X0496171Y0020683D01*
X0496122Y0020721D01*
X0496074Y0020762D01*
X0496030Y0020806D01*
X0495988Y0020852D01*
X0495950Y0020902D01*
X0495914Y0020953D01*
X0495882Y0021007D01*
X0495854Y0021062D01*
X0495828Y0021119D01*
X0495807Y0021178D01*
X0495790Y0021238D01*
X0495776Y0021299D01*
X0495766Y0021360D01*
X0495760Y0021423D01*
X0495758Y0021485D01*
X0495758Y0017548D02*
X0495760Y0017610D01*
X0495766Y0017673D01*
X0495776Y0017734D01*
X0495790Y0017795D01*
X0495807Y0017855D01*
X0495828Y0017914D01*
X0495854Y0017971D01*
X0495882Y0018026D01*
X0495914Y0018080D01*
X0495950Y0018131D01*
X0495988Y0018181D01*
X0496030Y0018227D01*
X0496074Y0018271D01*
X0496122Y0018312D01*
X0496171Y0018350D01*
X0496223Y0018384D01*
X0496277Y0018415D01*
X0496333Y0018443D01*
X0496391Y0018467D01*
X0496450Y0018488D01*
X0496510Y0018504D01*
X0496571Y0018517D01*
X0496633Y0018526D01*
X0496695Y0018531D01*
X0496758Y0018532D01*
X0496820Y0018529D01*
X0496882Y0018522D01*
X0496944Y0018511D01*
X0497004Y0018496D01*
X0497064Y0018478D01*
X0497122Y0018456D01*
X0497179Y0018430D01*
X0497234Y0018400D01*
X0497287Y0018367D01*
X0497338Y0018331D01*
X0497386Y0018292D01*
X0497432Y0018249D01*
X0497475Y0018204D01*
X0497515Y0018156D01*
X0497552Y0018106D01*
X0497586Y0018053D01*
X0497617Y0017999D01*
X0497643Y0017943D01*
X0497667Y0017885D01*
X0497686Y0017825D01*
X0497702Y0017765D01*
X0497714Y0017703D01*
X0497722Y0017642D01*
X0497726Y0017579D01*
X0497726Y0017517D01*
X0497722Y0017454D01*
X0497714Y0017393D01*
X0497702Y0017331D01*
X0497686Y0017271D01*
X0497667Y0017211D01*
X0497643Y0017153D01*
X0497617Y0017097D01*
X0497586Y0017043D01*
X0497552Y0016990D01*
X0497515Y0016940D01*
X0497475Y0016892D01*
X0497432Y0016847D01*
X0497386Y0016804D01*
X0497338Y0016765D01*
X0497287Y0016729D01*
X0497234Y0016696D01*
X0497179Y0016666D01*
X0497122Y0016640D01*
X0497064Y0016618D01*
X0497004Y0016600D01*
X0496944Y0016585D01*
X0496882Y0016574D01*
X0496820Y0016567D01*
X0496758Y0016564D01*
X0496695Y0016565D01*
X0496633Y0016570D01*
X0496571Y0016579D01*
X0496510Y0016592D01*
X0496450Y0016608D01*
X0496391Y0016629D01*
X0496333Y0016653D01*
X0496277Y0016681D01*
X0496223Y0016712D01*
X0496171Y0016746D01*
X0496122Y0016784D01*
X0496074Y0016825D01*
X0496030Y0016869D01*
X0495988Y0016915D01*
X0495950Y0016965D01*
X0495914Y0017016D01*
X0495882Y0017070D01*
X0495854Y0017125D01*
X0495828Y0017182D01*
X0495807Y0017241D01*
X0495790Y0017301D01*
X0495776Y0017362D01*
X0495766Y0017423D01*
X0495760Y0017486D01*
X0495758Y0017548D01*
X0499695Y0017548D02*
X0499697Y0017610D01*
X0499703Y0017673D01*
X0499713Y0017734D01*
X0499727Y0017795D01*
X0499744Y0017855D01*
X0499765Y0017914D01*
X0499791Y0017971D01*
X0499819Y0018026D01*
X0499851Y0018080D01*
X0499887Y0018131D01*
X0499925Y0018181D01*
X0499967Y0018227D01*
X0500011Y0018271D01*
X0500059Y0018312D01*
X0500108Y0018350D01*
X0500160Y0018384D01*
X0500214Y0018415D01*
X0500270Y0018443D01*
X0500328Y0018467D01*
X0500387Y0018488D01*
X0500447Y0018504D01*
X0500508Y0018517D01*
X0500570Y0018526D01*
X0500632Y0018531D01*
X0500695Y0018532D01*
X0500757Y0018529D01*
X0500819Y0018522D01*
X0500881Y0018511D01*
X0500941Y0018496D01*
X0501001Y0018478D01*
X0501059Y0018456D01*
X0501116Y0018430D01*
X0501171Y0018400D01*
X0501224Y0018367D01*
X0501275Y0018331D01*
X0501323Y0018292D01*
X0501369Y0018249D01*
X0501412Y0018204D01*
X0501452Y0018156D01*
X0501489Y0018106D01*
X0501523Y0018053D01*
X0501554Y0017999D01*
X0501580Y0017943D01*
X0501604Y0017885D01*
X0501623Y0017825D01*
X0501639Y0017765D01*
X0501651Y0017703D01*
X0501659Y0017642D01*
X0501663Y0017579D01*
X0501663Y0017517D01*
X0501659Y0017454D01*
X0501651Y0017393D01*
X0501639Y0017331D01*
X0501623Y0017271D01*
X0501604Y0017211D01*
X0501580Y0017153D01*
X0501554Y0017097D01*
X0501523Y0017043D01*
X0501489Y0016990D01*
X0501452Y0016940D01*
X0501412Y0016892D01*
X0501369Y0016847D01*
X0501323Y0016804D01*
X0501275Y0016765D01*
X0501224Y0016729D01*
X0501171Y0016696D01*
X0501116Y0016666D01*
X0501059Y0016640D01*
X0501001Y0016618D01*
X0500941Y0016600D01*
X0500881Y0016585D01*
X0500819Y0016574D01*
X0500757Y0016567D01*
X0500695Y0016564D01*
X0500632Y0016565D01*
X0500570Y0016570D01*
X0500508Y0016579D01*
X0500447Y0016592D01*
X0500387Y0016608D01*
X0500328Y0016629D01*
X0500270Y0016653D01*
X0500214Y0016681D01*
X0500160Y0016712D01*
X0500108Y0016746D01*
X0500059Y0016784D01*
X0500011Y0016825D01*
X0499967Y0016869D01*
X0499925Y0016915D01*
X0499887Y0016965D01*
X0499851Y0017016D01*
X0499819Y0017070D01*
X0499791Y0017125D01*
X0499765Y0017182D01*
X0499744Y0017241D01*
X0499727Y0017301D01*
X0499713Y0017362D01*
X0499703Y0017423D01*
X0499697Y0017486D01*
X0499695Y0017548D01*
X0499695Y0021485D02*
X0499697Y0021547D01*
X0499703Y0021610D01*
X0499713Y0021671D01*
X0499727Y0021732D01*
X0499744Y0021792D01*
X0499765Y0021851D01*
X0499791Y0021908D01*
X0499819Y0021963D01*
X0499851Y0022017D01*
X0499887Y0022068D01*
X0499925Y0022118D01*
X0499967Y0022164D01*
X0500011Y0022208D01*
X0500059Y0022249D01*
X0500108Y0022287D01*
X0500160Y0022321D01*
X0500214Y0022352D01*
X0500270Y0022380D01*
X0500328Y0022404D01*
X0500387Y0022425D01*
X0500447Y0022441D01*
X0500508Y0022454D01*
X0500570Y0022463D01*
X0500632Y0022468D01*
X0500695Y0022469D01*
X0500757Y0022466D01*
X0500819Y0022459D01*
X0500881Y0022448D01*
X0500941Y0022433D01*
X0501001Y0022415D01*
X0501059Y0022393D01*
X0501116Y0022367D01*
X0501171Y0022337D01*
X0501224Y0022304D01*
X0501275Y0022268D01*
X0501323Y0022229D01*
X0501369Y0022186D01*
X0501412Y0022141D01*
X0501452Y0022093D01*
X0501489Y0022043D01*
X0501523Y0021990D01*
X0501554Y0021936D01*
X0501580Y0021880D01*
X0501604Y0021822D01*
X0501623Y0021762D01*
X0501639Y0021702D01*
X0501651Y0021640D01*
X0501659Y0021579D01*
X0501663Y0021516D01*
X0501663Y0021454D01*
X0501659Y0021391D01*
X0501651Y0021330D01*
X0501639Y0021268D01*
X0501623Y0021208D01*
X0501604Y0021148D01*
X0501580Y0021090D01*
X0501554Y0021034D01*
X0501523Y0020980D01*
X0501489Y0020927D01*
X0501452Y0020877D01*
X0501412Y0020829D01*
X0501369Y0020784D01*
X0501323Y0020741D01*
X0501275Y0020702D01*
X0501224Y0020666D01*
X0501171Y0020633D01*
X0501116Y0020603D01*
X0501059Y0020577D01*
X0501001Y0020555D01*
X0500941Y0020537D01*
X0500881Y0020522D01*
X0500819Y0020511D01*
X0500757Y0020504D01*
X0500695Y0020501D01*
X0500632Y0020502D01*
X0500570Y0020507D01*
X0500508Y0020516D01*
X0500447Y0020529D01*
X0500387Y0020545D01*
X0500328Y0020566D01*
X0500270Y0020590D01*
X0500214Y0020618D01*
X0500160Y0020649D01*
X0500108Y0020683D01*
X0500059Y0020721D01*
X0500011Y0020762D01*
X0499967Y0020806D01*
X0499925Y0020852D01*
X0499887Y0020902D01*
X0499851Y0020953D01*
X0499819Y0021007D01*
X0499791Y0021062D01*
X0499765Y0021119D01*
X0499744Y0021178D01*
X0499727Y0021238D01*
X0499713Y0021299D01*
X0499703Y0021360D01*
X0499697Y0021423D01*
X0499695Y0021485D01*
X0499695Y0025422D02*
X0499697Y0025484D01*
X0499703Y0025547D01*
X0499713Y0025608D01*
X0499727Y0025669D01*
X0499744Y0025729D01*
X0499765Y0025788D01*
X0499791Y0025845D01*
X0499819Y0025900D01*
X0499851Y0025954D01*
X0499887Y0026005D01*
X0499925Y0026055D01*
X0499967Y0026101D01*
X0500011Y0026145D01*
X0500059Y0026186D01*
X0500108Y0026224D01*
X0500160Y0026258D01*
X0500214Y0026289D01*
X0500270Y0026317D01*
X0500328Y0026341D01*
X0500387Y0026362D01*
X0500447Y0026378D01*
X0500508Y0026391D01*
X0500570Y0026400D01*
X0500632Y0026405D01*
X0500695Y0026406D01*
X0500757Y0026403D01*
X0500819Y0026396D01*
X0500881Y0026385D01*
X0500941Y0026370D01*
X0501001Y0026352D01*
X0501059Y0026330D01*
X0501116Y0026304D01*
X0501171Y0026274D01*
X0501224Y0026241D01*
X0501275Y0026205D01*
X0501323Y0026166D01*
X0501369Y0026123D01*
X0501412Y0026078D01*
X0501452Y0026030D01*
X0501489Y0025980D01*
X0501523Y0025927D01*
X0501554Y0025873D01*
X0501580Y0025817D01*
X0501604Y0025759D01*
X0501623Y0025699D01*
X0501639Y0025639D01*
X0501651Y0025577D01*
X0501659Y0025516D01*
X0501663Y0025453D01*
X0501663Y0025391D01*
X0501659Y0025328D01*
X0501651Y0025267D01*
X0501639Y0025205D01*
X0501623Y0025145D01*
X0501604Y0025085D01*
X0501580Y0025027D01*
X0501554Y0024971D01*
X0501523Y0024917D01*
X0501489Y0024864D01*
X0501452Y0024814D01*
X0501412Y0024766D01*
X0501369Y0024721D01*
X0501323Y0024678D01*
X0501275Y0024639D01*
X0501224Y0024603D01*
X0501171Y0024570D01*
X0501116Y0024540D01*
X0501059Y0024514D01*
X0501001Y0024492D01*
X0500941Y0024474D01*
X0500881Y0024459D01*
X0500819Y0024448D01*
X0500757Y0024441D01*
X0500695Y0024438D01*
X0500632Y0024439D01*
X0500570Y0024444D01*
X0500508Y0024453D01*
X0500447Y0024466D01*
X0500387Y0024482D01*
X0500328Y0024503D01*
X0500270Y0024527D01*
X0500214Y0024555D01*
X0500160Y0024586D01*
X0500108Y0024620D01*
X0500059Y0024658D01*
X0500011Y0024699D01*
X0499967Y0024743D01*
X0499925Y0024789D01*
X0499887Y0024839D01*
X0499851Y0024890D01*
X0499819Y0024944D01*
X0499791Y0024999D01*
X0499765Y0025056D01*
X0499744Y0025115D01*
X0499727Y0025175D01*
X0499713Y0025236D01*
X0499703Y0025297D01*
X0499697Y0025360D01*
X0499695Y0025422D01*
X0647923Y0041170D02*
X0647925Y0041328D01*
X0647931Y0041486D01*
X0647941Y0041644D01*
X0647955Y0041802D01*
X0647973Y0041959D01*
X0647994Y0042116D01*
X0648020Y0042272D01*
X0648050Y0042428D01*
X0648083Y0042583D01*
X0648121Y0042736D01*
X0648162Y0042889D01*
X0648207Y0043041D01*
X0648256Y0043192D01*
X0648309Y0043341D01*
X0648365Y0043489D01*
X0648425Y0043635D01*
X0648489Y0043780D01*
X0648557Y0043923D01*
X0648628Y0044065D01*
X0648702Y0044205D01*
X0648780Y0044342D01*
X0648862Y0044478D01*
X0648946Y0044612D01*
X0649035Y0044743D01*
X0649126Y0044872D01*
X0649221Y0044999D01*
X0649318Y0045124D01*
X0649419Y0045246D01*
X0649523Y0045365D01*
X0649630Y0045482D01*
X0649740Y0045596D01*
X0649853Y0045707D01*
X0649968Y0045816D01*
X0650086Y0045921D01*
X0650207Y0046023D01*
X0650330Y0046123D01*
X0650456Y0046219D01*
X0650584Y0046312D01*
X0650714Y0046402D01*
X0650847Y0046488D01*
X0650982Y0046572D01*
X0651118Y0046651D01*
X0651257Y0046728D01*
X0651398Y0046800D01*
X0651540Y0046870D01*
X0651684Y0046935D01*
X0651830Y0046997D01*
X0651977Y0047055D01*
X0652126Y0047110D01*
X0652276Y0047161D01*
X0652427Y0047208D01*
X0652579Y0047251D01*
X0652732Y0047290D01*
X0652887Y0047326D01*
X0653042Y0047357D01*
X0653198Y0047385D01*
X0653354Y0047409D01*
X0653511Y0047429D01*
X0653669Y0047445D01*
X0653826Y0047457D01*
X0653985Y0047465D01*
X0654143Y0047469D01*
X0654301Y0047469D01*
X0654459Y0047465D01*
X0654618Y0047457D01*
X0654775Y0047445D01*
X0654933Y0047429D01*
X0655090Y0047409D01*
X0655246Y0047385D01*
X0655402Y0047357D01*
X0655557Y0047326D01*
X0655712Y0047290D01*
X0655865Y0047251D01*
X0656017Y0047208D01*
X0656168Y0047161D01*
X0656318Y0047110D01*
X0656467Y0047055D01*
X0656614Y0046997D01*
X0656760Y0046935D01*
X0656904Y0046870D01*
X0657046Y0046800D01*
X0657187Y0046728D01*
X0657326Y0046651D01*
X0657462Y0046572D01*
X0657597Y0046488D01*
X0657730Y0046402D01*
X0657860Y0046312D01*
X0657988Y0046219D01*
X0658114Y0046123D01*
X0658237Y0046023D01*
X0658358Y0045921D01*
X0658476Y0045816D01*
X0658591Y0045707D01*
X0658704Y0045596D01*
X0658814Y0045482D01*
X0658921Y0045365D01*
X0659025Y0045246D01*
X0659126Y0045124D01*
X0659223Y0044999D01*
X0659318Y0044872D01*
X0659409Y0044743D01*
X0659498Y0044612D01*
X0659582Y0044478D01*
X0659664Y0044342D01*
X0659742Y0044205D01*
X0659816Y0044065D01*
X0659887Y0043923D01*
X0659955Y0043780D01*
X0660019Y0043635D01*
X0660079Y0043489D01*
X0660135Y0043341D01*
X0660188Y0043192D01*
X0660237Y0043041D01*
X0660282Y0042889D01*
X0660323Y0042736D01*
X0660361Y0042583D01*
X0660394Y0042428D01*
X0660424Y0042272D01*
X0660450Y0042116D01*
X0660471Y0041959D01*
X0660489Y0041802D01*
X0660503Y0041644D01*
X0660513Y0041486D01*
X0660519Y0041328D01*
X0660521Y0041170D01*
X0660519Y0041012D01*
X0660513Y0040854D01*
X0660503Y0040696D01*
X0660489Y0040538D01*
X0660471Y0040381D01*
X0660450Y0040224D01*
X0660424Y0040068D01*
X0660394Y0039912D01*
X0660361Y0039757D01*
X0660323Y0039604D01*
X0660282Y0039451D01*
X0660237Y0039299D01*
X0660188Y0039148D01*
X0660135Y0038999D01*
X0660079Y0038851D01*
X0660019Y0038705D01*
X0659955Y0038560D01*
X0659887Y0038417D01*
X0659816Y0038275D01*
X0659742Y0038135D01*
X0659664Y0037998D01*
X0659582Y0037862D01*
X0659498Y0037728D01*
X0659409Y0037597D01*
X0659318Y0037468D01*
X0659223Y0037341D01*
X0659126Y0037216D01*
X0659025Y0037094D01*
X0658921Y0036975D01*
X0658814Y0036858D01*
X0658704Y0036744D01*
X0658591Y0036633D01*
X0658476Y0036524D01*
X0658358Y0036419D01*
X0658237Y0036317D01*
X0658114Y0036217D01*
X0657988Y0036121D01*
X0657860Y0036028D01*
X0657730Y0035938D01*
X0657597Y0035852D01*
X0657462Y0035768D01*
X0657326Y0035689D01*
X0657187Y0035612D01*
X0657046Y0035540D01*
X0656904Y0035470D01*
X0656760Y0035405D01*
X0656614Y0035343D01*
X0656467Y0035285D01*
X0656318Y0035230D01*
X0656168Y0035179D01*
X0656017Y0035132D01*
X0655865Y0035089D01*
X0655712Y0035050D01*
X0655557Y0035014D01*
X0655402Y0034983D01*
X0655246Y0034955D01*
X0655090Y0034931D01*
X0654933Y0034911D01*
X0654775Y0034895D01*
X0654618Y0034883D01*
X0654459Y0034875D01*
X0654301Y0034871D01*
X0654143Y0034871D01*
X0653985Y0034875D01*
X0653826Y0034883D01*
X0653669Y0034895D01*
X0653511Y0034911D01*
X0653354Y0034931D01*
X0653198Y0034955D01*
X0653042Y0034983D01*
X0652887Y0035014D01*
X0652732Y0035050D01*
X0652579Y0035089D01*
X0652427Y0035132D01*
X0652276Y0035179D01*
X0652126Y0035230D01*
X0651977Y0035285D01*
X0651830Y0035343D01*
X0651684Y0035405D01*
X0651540Y0035470D01*
X0651398Y0035540D01*
X0651257Y0035612D01*
X0651118Y0035689D01*
X0650982Y0035768D01*
X0650847Y0035852D01*
X0650714Y0035938D01*
X0650584Y0036028D01*
X0650456Y0036121D01*
X0650330Y0036217D01*
X0650207Y0036317D01*
X0650086Y0036419D01*
X0649968Y0036524D01*
X0649853Y0036633D01*
X0649740Y0036744D01*
X0649630Y0036858D01*
X0649523Y0036975D01*
X0649419Y0037094D01*
X0649318Y0037216D01*
X0649221Y0037341D01*
X0649126Y0037468D01*
X0649035Y0037597D01*
X0648946Y0037728D01*
X0648862Y0037862D01*
X0648780Y0037998D01*
X0648702Y0038135D01*
X0648628Y0038275D01*
X0648557Y0038417D01*
X0648489Y0038560D01*
X0648425Y0038705D01*
X0648365Y0038851D01*
X0648309Y0038999D01*
X0648256Y0039148D01*
X0648207Y0039299D01*
X0648162Y0039451D01*
X0648121Y0039604D01*
X0648083Y0039757D01*
X0648050Y0039912D01*
X0648020Y0040068D01*
X0647994Y0040224D01*
X0647973Y0040381D01*
X0647955Y0040538D01*
X0647941Y0040696D01*
X0647931Y0040854D01*
X0647925Y0041012D01*
X0647923Y0041170D01*
X0649891Y0008690D02*
X0649893Y0008821D01*
X0649899Y0008953D01*
X0649909Y0009084D01*
X0649923Y0009215D01*
X0649941Y0009345D01*
X0649963Y0009474D01*
X0649988Y0009603D01*
X0650018Y0009731D01*
X0650052Y0009858D01*
X0650089Y0009985D01*
X0650130Y0010109D01*
X0650175Y0010233D01*
X0650224Y0010355D01*
X0650276Y0010476D01*
X0650332Y0010594D01*
X0650392Y0010712D01*
X0650455Y0010827D01*
X0650522Y0010940D01*
X0650592Y0011052D01*
X0650665Y0011161D01*
X0650741Y0011267D01*
X0650821Y0011372D01*
X0650904Y0011474D01*
X0650990Y0011573D01*
X0651079Y0011670D01*
X0651171Y0011764D01*
X0651266Y0011855D01*
X0651363Y0011944D01*
X0651463Y0012029D01*
X0651566Y0012111D01*
X0651671Y0012190D01*
X0651778Y0012266D01*
X0651888Y0012338D01*
X0652000Y0012407D01*
X0652114Y0012473D01*
X0652229Y0012535D01*
X0652347Y0012594D01*
X0652466Y0012649D01*
X0652587Y0012701D01*
X0652710Y0012748D01*
X0652834Y0012792D01*
X0652959Y0012833D01*
X0653085Y0012869D01*
X0653213Y0012902D01*
X0653341Y0012930D01*
X0653470Y0012955D01*
X0653600Y0012976D01*
X0653730Y0012993D01*
X0653861Y0013006D01*
X0653992Y0013015D01*
X0654123Y0013020D01*
X0654255Y0013021D01*
X0654386Y0013018D01*
X0654518Y0013011D01*
X0654649Y0013000D01*
X0654779Y0012985D01*
X0654909Y0012966D01*
X0655039Y0012943D01*
X0655167Y0012917D01*
X0655295Y0012886D01*
X0655422Y0012851D01*
X0655548Y0012813D01*
X0655672Y0012771D01*
X0655796Y0012725D01*
X0655917Y0012675D01*
X0656037Y0012622D01*
X0656156Y0012565D01*
X0656273Y0012505D01*
X0656387Y0012441D01*
X0656500Y0012373D01*
X0656611Y0012302D01*
X0656720Y0012228D01*
X0656826Y0012151D01*
X0656930Y0012070D01*
X0657031Y0011987D01*
X0657130Y0011900D01*
X0657226Y0011810D01*
X0657319Y0011717D01*
X0657410Y0011622D01*
X0657497Y0011524D01*
X0657582Y0011423D01*
X0657663Y0011320D01*
X0657741Y0011214D01*
X0657816Y0011106D01*
X0657888Y0010996D01*
X0657956Y0010884D01*
X0658021Y0010770D01*
X0658082Y0010653D01*
X0658140Y0010535D01*
X0658194Y0010415D01*
X0658245Y0010294D01*
X0658292Y0010171D01*
X0658335Y0010047D01*
X0658374Y0009922D01*
X0658410Y0009795D01*
X0658441Y0009667D01*
X0658469Y0009539D01*
X0658493Y0009410D01*
X0658513Y0009280D01*
X0658529Y0009149D01*
X0658541Y0009018D01*
X0658549Y0008887D01*
X0658553Y0008756D01*
X0658553Y0008624D01*
X0658549Y0008493D01*
X0658541Y0008362D01*
X0658529Y0008231D01*
X0658513Y0008100D01*
X0658493Y0007970D01*
X0658469Y0007841D01*
X0658441Y0007713D01*
X0658410Y0007585D01*
X0658374Y0007458D01*
X0658335Y0007333D01*
X0658292Y0007209D01*
X0658245Y0007086D01*
X0658194Y0006965D01*
X0658140Y0006845D01*
X0658082Y0006727D01*
X0658021Y0006610D01*
X0657956Y0006496D01*
X0657888Y0006384D01*
X0657816Y0006274D01*
X0657741Y0006166D01*
X0657663Y0006060D01*
X0657582Y0005957D01*
X0657497Y0005856D01*
X0657410Y0005758D01*
X0657319Y0005663D01*
X0657226Y0005570D01*
X0657130Y0005480D01*
X0657031Y0005393D01*
X0656930Y0005310D01*
X0656826Y0005229D01*
X0656720Y0005152D01*
X0656611Y0005078D01*
X0656500Y0005007D01*
X0656388Y0004939D01*
X0656273Y0004875D01*
X0656156Y0004815D01*
X0656037Y0004758D01*
X0655917Y0004705D01*
X0655796Y0004655D01*
X0655672Y0004609D01*
X0655548Y0004567D01*
X0655422Y0004529D01*
X0655295Y0004494D01*
X0655167Y0004463D01*
X0655039Y0004437D01*
X0654909Y0004414D01*
X0654779Y0004395D01*
X0654649Y0004380D01*
X0654518Y0004369D01*
X0654386Y0004362D01*
X0654255Y0004359D01*
X0654123Y0004360D01*
X0653992Y0004365D01*
X0653861Y0004374D01*
X0653730Y0004387D01*
X0653600Y0004404D01*
X0653470Y0004425D01*
X0653341Y0004450D01*
X0653213Y0004478D01*
X0653085Y0004511D01*
X0652959Y0004547D01*
X0652834Y0004588D01*
X0652710Y0004632D01*
X0652587Y0004679D01*
X0652466Y0004731D01*
X0652347Y0004786D01*
X0652229Y0004845D01*
X0652114Y0004907D01*
X0652000Y0004973D01*
X0651888Y0005042D01*
X0651778Y0005114D01*
X0651671Y0005190D01*
X0651566Y0005269D01*
X0651463Y0005351D01*
X0651363Y0005436D01*
X0651266Y0005525D01*
X0651171Y0005616D01*
X0651079Y0005710D01*
X0650990Y0005807D01*
X0650904Y0005906D01*
X0650821Y0006008D01*
X0650741Y0006113D01*
X0650665Y0006219D01*
X0650592Y0006328D01*
X0650522Y0006440D01*
X0650455Y0006553D01*
X0650392Y0006668D01*
X0650332Y0006786D01*
X0650276Y0006904D01*
X0650224Y0007025D01*
X0650175Y0007147D01*
X0650130Y0007271D01*
X0650089Y0007395D01*
X0650052Y0007522D01*
X0650018Y0007649D01*
X0649988Y0007777D01*
X0649963Y0007906D01*
X0649941Y0008035D01*
X0649923Y0008165D01*
X0649909Y0008296D01*
X0649899Y0008427D01*
X0649893Y0008559D01*
X0649891Y0008690D01*
X0647923Y0383690D02*
X0647925Y0383848D01*
X0647931Y0384006D01*
X0647941Y0384164D01*
X0647955Y0384322D01*
X0647973Y0384479D01*
X0647994Y0384636D01*
X0648020Y0384792D01*
X0648050Y0384948D01*
X0648083Y0385103D01*
X0648121Y0385256D01*
X0648162Y0385409D01*
X0648207Y0385561D01*
X0648256Y0385712D01*
X0648309Y0385861D01*
X0648365Y0386009D01*
X0648425Y0386155D01*
X0648489Y0386300D01*
X0648557Y0386443D01*
X0648628Y0386585D01*
X0648702Y0386725D01*
X0648780Y0386862D01*
X0648862Y0386998D01*
X0648946Y0387132D01*
X0649035Y0387263D01*
X0649126Y0387392D01*
X0649221Y0387519D01*
X0649318Y0387644D01*
X0649419Y0387766D01*
X0649523Y0387885D01*
X0649630Y0388002D01*
X0649740Y0388116D01*
X0649853Y0388227D01*
X0649968Y0388336D01*
X0650086Y0388441D01*
X0650207Y0388543D01*
X0650330Y0388643D01*
X0650456Y0388739D01*
X0650584Y0388832D01*
X0650714Y0388922D01*
X0650847Y0389008D01*
X0650982Y0389092D01*
X0651118Y0389171D01*
X0651257Y0389248D01*
X0651398Y0389320D01*
X0651540Y0389390D01*
X0651684Y0389455D01*
X0651830Y0389517D01*
X0651977Y0389575D01*
X0652126Y0389630D01*
X0652276Y0389681D01*
X0652427Y0389728D01*
X0652579Y0389771D01*
X0652732Y0389810D01*
X0652887Y0389846D01*
X0653042Y0389877D01*
X0653198Y0389905D01*
X0653354Y0389929D01*
X0653511Y0389949D01*
X0653669Y0389965D01*
X0653826Y0389977D01*
X0653985Y0389985D01*
X0654143Y0389989D01*
X0654301Y0389989D01*
X0654459Y0389985D01*
X0654618Y0389977D01*
X0654775Y0389965D01*
X0654933Y0389949D01*
X0655090Y0389929D01*
X0655246Y0389905D01*
X0655402Y0389877D01*
X0655557Y0389846D01*
X0655712Y0389810D01*
X0655865Y0389771D01*
X0656017Y0389728D01*
X0656168Y0389681D01*
X0656318Y0389630D01*
X0656467Y0389575D01*
X0656614Y0389517D01*
X0656760Y0389455D01*
X0656904Y0389390D01*
X0657046Y0389320D01*
X0657187Y0389248D01*
X0657326Y0389171D01*
X0657462Y0389092D01*
X0657597Y0389008D01*
X0657730Y0388922D01*
X0657860Y0388832D01*
X0657988Y0388739D01*
X0658114Y0388643D01*
X0658237Y0388543D01*
X0658358Y0388441D01*
X0658476Y0388336D01*
X0658591Y0388227D01*
X0658704Y0388116D01*
X0658814Y0388002D01*
X0658921Y0387885D01*
X0659025Y0387766D01*
X0659126Y0387644D01*
X0659223Y0387519D01*
X0659318Y0387392D01*
X0659409Y0387263D01*
X0659498Y0387132D01*
X0659582Y0386998D01*
X0659664Y0386862D01*
X0659742Y0386725D01*
X0659816Y0386585D01*
X0659887Y0386443D01*
X0659955Y0386300D01*
X0660019Y0386155D01*
X0660079Y0386009D01*
X0660135Y0385861D01*
X0660188Y0385712D01*
X0660237Y0385561D01*
X0660282Y0385409D01*
X0660323Y0385256D01*
X0660361Y0385103D01*
X0660394Y0384948D01*
X0660424Y0384792D01*
X0660450Y0384636D01*
X0660471Y0384479D01*
X0660489Y0384322D01*
X0660503Y0384164D01*
X0660513Y0384006D01*
X0660519Y0383848D01*
X0660521Y0383690D01*
X0660519Y0383532D01*
X0660513Y0383374D01*
X0660503Y0383216D01*
X0660489Y0383058D01*
X0660471Y0382901D01*
X0660450Y0382744D01*
X0660424Y0382588D01*
X0660394Y0382432D01*
X0660361Y0382277D01*
X0660323Y0382124D01*
X0660282Y0381971D01*
X0660237Y0381819D01*
X0660188Y0381668D01*
X0660135Y0381519D01*
X0660079Y0381371D01*
X0660019Y0381225D01*
X0659955Y0381080D01*
X0659887Y0380937D01*
X0659816Y0380795D01*
X0659742Y0380655D01*
X0659664Y0380518D01*
X0659582Y0380382D01*
X0659498Y0380248D01*
X0659409Y0380117D01*
X0659318Y0379988D01*
X0659223Y0379861D01*
X0659126Y0379736D01*
X0659025Y0379614D01*
X0658921Y0379495D01*
X0658814Y0379378D01*
X0658704Y0379264D01*
X0658591Y0379153D01*
X0658476Y0379044D01*
X0658358Y0378939D01*
X0658237Y0378837D01*
X0658114Y0378737D01*
X0657988Y0378641D01*
X0657860Y0378548D01*
X0657730Y0378458D01*
X0657597Y0378372D01*
X0657462Y0378288D01*
X0657326Y0378209D01*
X0657187Y0378132D01*
X0657046Y0378060D01*
X0656904Y0377990D01*
X0656760Y0377925D01*
X0656614Y0377863D01*
X0656467Y0377805D01*
X0656318Y0377750D01*
X0656168Y0377699D01*
X0656017Y0377652D01*
X0655865Y0377609D01*
X0655712Y0377570D01*
X0655557Y0377534D01*
X0655402Y0377503D01*
X0655246Y0377475D01*
X0655090Y0377451D01*
X0654933Y0377431D01*
X0654775Y0377415D01*
X0654618Y0377403D01*
X0654459Y0377395D01*
X0654301Y0377391D01*
X0654143Y0377391D01*
X0653985Y0377395D01*
X0653826Y0377403D01*
X0653669Y0377415D01*
X0653511Y0377431D01*
X0653354Y0377451D01*
X0653198Y0377475D01*
X0653042Y0377503D01*
X0652887Y0377534D01*
X0652732Y0377570D01*
X0652579Y0377609D01*
X0652427Y0377652D01*
X0652276Y0377699D01*
X0652126Y0377750D01*
X0651977Y0377805D01*
X0651830Y0377863D01*
X0651684Y0377925D01*
X0651540Y0377990D01*
X0651398Y0378060D01*
X0651257Y0378132D01*
X0651118Y0378209D01*
X0650982Y0378288D01*
X0650847Y0378372D01*
X0650714Y0378458D01*
X0650584Y0378548D01*
X0650456Y0378641D01*
X0650330Y0378737D01*
X0650207Y0378837D01*
X0650086Y0378939D01*
X0649968Y0379044D01*
X0649853Y0379153D01*
X0649740Y0379264D01*
X0649630Y0379378D01*
X0649523Y0379495D01*
X0649419Y0379614D01*
X0649318Y0379736D01*
X0649221Y0379861D01*
X0649126Y0379988D01*
X0649035Y0380117D01*
X0648946Y0380248D01*
X0648862Y0380382D01*
X0648780Y0380518D01*
X0648702Y0380655D01*
X0648628Y0380795D01*
X0648557Y0380937D01*
X0648489Y0381080D01*
X0648425Y0381225D01*
X0648365Y0381371D01*
X0648309Y0381519D01*
X0648256Y0381668D01*
X0648207Y0381819D01*
X0648162Y0381971D01*
X0648121Y0382124D01*
X0648083Y0382277D01*
X0648050Y0382432D01*
X0648020Y0382588D01*
X0647994Y0382744D01*
X0647973Y0382901D01*
X0647955Y0383058D01*
X0647941Y0383216D01*
X0647931Y0383374D01*
X0647925Y0383532D01*
X0647923Y0383690D01*
X0649891Y0416170D02*
X0649893Y0416301D01*
X0649899Y0416433D01*
X0649909Y0416564D01*
X0649923Y0416695D01*
X0649941Y0416825D01*
X0649963Y0416954D01*
X0649988Y0417083D01*
X0650018Y0417211D01*
X0650052Y0417338D01*
X0650089Y0417465D01*
X0650130Y0417589D01*
X0650175Y0417713D01*
X0650224Y0417835D01*
X0650276Y0417956D01*
X0650332Y0418074D01*
X0650392Y0418192D01*
X0650455Y0418307D01*
X0650522Y0418420D01*
X0650592Y0418532D01*
X0650665Y0418641D01*
X0650741Y0418747D01*
X0650821Y0418852D01*
X0650904Y0418954D01*
X0650990Y0419053D01*
X0651079Y0419150D01*
X0651171Y0419244D01*
X0651266Y0419335D01*
X0651363Y0419424D01*
X0651463Y0419509D01*
X0651566Y0419591D01*
X0651671Y0419670D01*
X0651778Y0419746D01*
X0651888Y0419818D01*
X0652000Y0419887D01*
X0652114Y0419953D01*
X0652229Y0420015D01*
X0652347Y0420074D01*
X0652466Y0420129D01*
X0652587Y0420181D01*
X0652710Y0420228D01*
X0652834Y0420272D01*
X0652959Y0420313D01*
X0653085Y0420349D01*
X0653213Y0420382D01*
X0653341Y0420410D01*
X0653470Y0420435D01*
X0653600Y0420456D01*
X0653730Y0420473D01*
X0653861Y0420486D01*
X0653992Y0420495D01*
X0654123Y0420500D01*
X0654255Y0420501D01*
X0654386Y0420498D01*
X0654518Y0420491D01*
X0654649Y0420480D01*
X0654779Y0420465D01*
X0654909Y0420446D01*
X0655039Y0420423D01*
X0655167Y0420397D01*
X0655295Y0420366D01*
X0655422Y0420331D01*
X0655548Y0420293D01*
X0655672Y0420251D01*
X0655796Y0420205D01*
X0655917Y0420155D01*
X0656037Y0420102D01*
X0656156Y0420045D01*
X0656273Y0419985D01*
X0656387Y0419921D01*
X0656500Y0419853D01*
X0656611Y0419782D01*
X0656720Y0419708D01*
X0656826Y0419631D01*
X0656930Y0419550D01*
X0657031Y0419467D01*
X0657130Y0419380D01*
X0657226Y0419290D01*
X0657319Y0419197D01*
X0657410Y0419102D01*
X0657497Y0419004D01*
X0657582Y0418903D01*
X0657663Y0418800D01*
X0657741Y0418694D01*
X0657816Y0418586D01*
X0657888Y0418476D01*
X0657956Y0418364D01*
X0658021Y0418250D01*
X0658082Y0418133D01*
X0658140Y0418015D01*
X0658194Y0417895D01*
X0658245Y0417774D01*
X0658292Y0417651D01*
X0658335Y0417527D01*
X0658374Y0417402D01*
X0658410Y0417275D01*
X0658441Y0417147D01*
X0658469Y0417019D01*
X0658493Y0416890D01*
X0658513Y0416760D01*
X0658529Y0416629D01*
X0658541Y0416498D01*
X0658549Y0416367D01*
X0658553Y0416236D01*
X0658553Y0416104D01*
X0658549Y0415973D01*
X0658541Y0415842D01*
X0658529Y0415711D01*
X0658513Y0415580D01*
X0658493Y0415450D01*
X0658469Y0415321D01*
X0658441Y0415193D01*
X0658410Y0415065D01*
X0658374Y0414938D01*
X0658335Y0414813D01*
X0658292Y0414689D01*
X0658245Y0414566D01*
X0658194Y0414445D01*
X0658140Y0414325D01*
X0658082Y0414207D01*
X0658021Y0414090D01*
X0657956Y0413976D01*
X0657888Y0413864D01*
X0657816Y0413754D01*
X0657741Y0413646D01*
X0657663Y0413540D01*
X0657582Y0413437D01*
X0657497Y0413336D01*
X0657410Y0413238D01*
X0657319Y0413143D01*
X0657226Y0413050D01*
X0657130Y0412960D01*
X0657031Y0412873D01*
X0656930Y0412790D01*
X0656826Y0412709D01*
X0656720Y0412632D01*
X0656611Y0412558D01*
X0656500Y0412487D01*
X0656388Y0412419D01*
X0656273Y0412355D01*
X0656156Y0412295D01*
X0656037Y0412238D01*
X0655917Y0412185D01*
X0655796Y0412135D01*
X0655672Y0412089D01*
X0655548Y0412047D01*
X0655422Y0412009D01*
X0655295Y0411974D01*
X0655167Y0411943D01*
X0655039Y0411917D01*
X0654909Y0411894D01*
X0654779Y0411875D01*
X0654649Y0411860D01*
X0654518Y0411849D01*
X0654386Y0411842D01*
X0654255Y0411839D01*
X0654123Y0411840D01*
X0653992Y0411845D01*
X0653861Y0411854D01*
X0653730Y0411867D01*
X0653600Y0411884D01*
X0653470Y0411905D01*
X0653341Y0411930D01*
X0653213Y0411958D01*
X0653085Y0411991D01*
X0652959Y0412027D01*
X0652834Y0412068D01*
X0652710Y0412112D01*
X0652587Y0412159D01*
X0652466Y0412211D01*
X0652347Y0412266D01*
X0652229Y0412325D01*
X0652114Y0412387D01*
X0652000Y0412453D01*
X0651888Y0412522D01*
X0651778Y0412594D01*
X0651671Y0412670D01*
X0651566Y0412749D01*
X0651463Y0412831D01*
X0651363Y0412916D01*
X0651266Y0413005D01*
X0651171Y0413096D01*
X0651079Y0413190D01*
X0650990Y0413287D01*
X0650904Y0413386D01*
X0650821Y0413488D01*
X0650741Y0413593D01*
X0650665Y0413699D01*
X0650592Y0413808D01*
X0650522Y0413920D01*
X0650455Y0414033D01*
X0650392Y0414148D01*
X0650332Y0414266D01*
X0650276Y0414384D01*
X0650224Y0414505D01*
X0650175Y0414627D01*
X0650130Y0414751D01*
X0650089Y0414875D01*
X0650052Y0415002D01*
X0650018Y0415129D01*
X0649988Y0415257D01*
X0649963Y0415386D01*
X0649941Y0415515D01*
X0649923Y0415645D01*
X0649909Y0415776D01*
X0649899Y0415907D01*
X0649893Y0416039D01*
X0649891Y0416170D01*
X0499695Y0407312D02*
X0499697Y0407374D01*
X0499703Y0407437D01*
X0499713Y0407498D01*
X0499727Y0407559D01*
X0499744Y0407619D01*
X0499765Y0407678D01*
X0499791Y0407735D01*
X0499819Y0407790D01*
X0499851Y0407844D01*
X0499887Y0407895D01*
X0499925Y0407945D01*
X0499967Y0407991D01*
X0500011Y0408035D01*
X0500059Y0408076D01*
X0500108Y0408114D01*
X0500160Y0408148D01*
X0500214Y0408179D01*
X0500270Y0408207D01*
X0500328Y0408231D01*
X0500387Y0408252D01*
X0500447Y0408268D01*
X0500508Y0408281D01*
X0500570Y0408290D01*
X0500632Y0408295D01*
X0500695Y0408296D01*
X0500757Y0408293D01*
X0500819Y0408286D01*
X0500881Y0408275D01*
X0500941Y0408260D01*
X0501001Y0408242D01*
X0501059Y0408220D01*
X0501116Y0408194D01*
X0501171Y0408164D01*
X0501224Y0408131D01*
X0501275Y0408095D01*
X0501323Y0408056D01*
X0501369Y0408013D01*
X0501412Y0407968D01*
X0501452Y0407920D01*
X0501489Y0407870D01*
X0501523Y0407817D01*
X0501554Y0407763D01*
X0501580Y0407707D01*
X0501604Y0407649D01*
X0501623Y0407589D01*
X0501639Y0407529D01*
X0501651Y0407467D01*
X0501659Y0407406D01*
X0501663Y0407343D01*
X0501663Y0407281D01*
X0501659Y0407218D01*
X0501651Y0407157D01*
X0501639Y0407095D01*
X0501623Y0407035D01*
X0501604Y0406975D01*
X0501580Y0406917D01*
X0501554Y0406861D01*
X0501523Y0406807D01*
X0501489Y0406754D01*
X0501452Y0406704D01*
X0501412Y0406656D01*
X0501369Y0406611D01*
X0501323Y0406568D01*
X0501275Y0406529D01*
X0501224Y0406493D01*
X0501171Y0406460D01*
X0501116Y0406430D01*
X0501059Y0406404D01*
X0501001Y0406382D01*
X0500941Y0406364D01*
X0500881Y0406349D01*
X0500819Y0406338D01*
X0500757Y0406331D01*
X0500695Y0406328D01*
X0500632Y0406329D01*
X0500570Y0406334D01*
X0500508Y0406343D01*
X0500447Y0406356D01*
X0500387Y0406372D01*
X0500328Y0406393D01*
X0500270Y0406417D01*
X0500214Y0406445D01*
X0500160Y0406476D01*
X0500108Y0406510D01*
X0500059Y0406548D01*
X0500011Y0406589D01*
X0499967Y0406633D01*
X0499925Y0406679D01*
X0499887Y0406729D01*
X0499851Y0406780D01*
X0499819Y0406834D01*
X0499791Y0406889D01*
X0499765Y0406946D01*
X0499744Y0407005D01*
X0499727Y0407065D01*
X0499713Y0407126D01*
X0499703Y0407187D01*
X0499697Y0407250D01*
X0499695Y0407312D01*
X0495758Y0407312D02*
X0495760Y0407374D01*
X0495766Y0407437D01*
X0495776Y0407498D01*
X0495790Y0407559D01*
X0495807Y0407619D01*
X0495828Y0407678D01*
X0495854Y0407735D01*
X0495882Y0407790D01*
X0495914Y0407844D01*
X0495950Y0407895D01*
X0495988Y0407945D01*
X0496030Y0407991D01*
X0496074Y0408035D01*
X0496122Y0408076D01*
X0496171Y0408114D01*
X0496223Y0408148D01*
X0496277Y0408179D01*
X0496333Y0408207D01*
X0496391Y0408231D01*
X0496450Y0408252D01*
X0496510Y0408268D01*
X0496571Y0408281D01*
X0496633Y0408290D01*
X0496695Y0408295D01*
X0496758Y0408296D01*
X0496820Y0408293D01*
X0496882Y0408286D01*
X0496944Y0408275D01*
X0497004Y0408260D01*
X0497064Y0408242D01*
X0497122Y0408220D01*
X0497179Y0408194D01*
X0497234Y0408164D01*
X0497287Y0408131D01*
X0497338Y0408095D01*
X0497386Y0408056D01*
X0497432Y0408013D01*
X0497475Y0407968D01*
X0497515Y0407920D01*
X0497552Y0407870D01*
X0497586Y0407817D01*
X0497617Y0407763D01*
X0497643Y0407707D01*
X0497667Y0407649D01*
X0497686Y0407589D01*
X0497702Y0407529D01*
X0497714Y0407467D01*
X0497722Y0407406D01*
X0497726Y0407343D01*
X0497726Y0407281D01*
X0497722Y0407218D01*
X0497714Y0407157D01*
X0497702Y0407095D01*
X0497686Y0407035D01*
X0497667Y0406975D01*
X0497643Y0406917D01*
X0497617Y0406861D01*
X0497586Y0406807D01*
X0497552Y0406754D01*
X0497515Y0406704D01*
X0497475Y0406656D01*
X0497432Y0406611D01*
X0497386Y0406568D01*
X0497338Y0406529D01*
X0497287Y0406493D01*
X0497234Y0406460D01*
X0497179Y0406430D01*
X0497122Y0406404D01*
X0497064Y0406382D01*
X0497004Y0406364D01*
X0496944Y0406349D01*
X0496882Y0406338D01*
X0496820Y0406331D01*
X0496758Y0406328D01*
X0496695Y0406329D01*
X0496633Y0406334D01*
X0496571Y0406343D01*
X0496510Y0406356D01*
X0496450Y0406372D01*
X0496391Y0406393D01*
X0496333Y0406417D01*
X0496277Y0406445D01*
X0496223Y0406476D01*
X0496171Y0406510D01*
X0496122Y0406548D01*
X0496074Y0406589D01*
X0496030Y0406633D01*
X0495988Y0406679D01*
X0495950Y0406729D01*
X0495914Y0406780D01*
X0495882Y0406834D01*
X0495854Y0406889D01*
X0495828Y0406946D01*
X0495807Y0407005D01*
X0495790Y0407065D01*
X0495776Y0407126D01*
X0495766Y0407187D01*
X0495760Y0407250D01*
X0495758Y0407312D01*
X0491821Y0407312D02*
X0491823Y0407374D01*
X0491829Y0407437D01*
X0491839Y0407498D01*
X0491853Y0407559D01*
X0491870Y0407619D01*
X0491891Y0407678D01*
X0491917Y0407735D01*
X0491945Y0407790D01*
X0491977Y0407844D01*
X0492013Y0407895D01*
X0492051Y0407945D01*
X0492093Y0407991D01*
X0492137Y0408035D01*
X0492185Y0408076D01*
X0492234Y0408114D01*
X0492286Y0408148D01*
X0492340Y0408179D01*
X0492396Y0408207D01*
X0492454Y0408231D01*
X0492513Y0408252D01*
X0492573Y0408268D01*
X0492634Y0408281D01*
X0492696Y0408290D01*
X0492758Y0408295D01*
X0492821Y0408296D01*
X0492883Y0408293D01*
X0492945Y0408286D01*
X0493007Y0408275D01*
X0493067Y0408260D01*
X0493127Y0408242D01*
X0493185Y0408220D01*
X0493242Y0408194D01*
X0493297Y0408164D01*
X0493350Y0408131D01*
X0493401Y0408095D01*
X0493449Y0408056D01*
X0493495Y0408013D01*
X0493538Y0407968D01*
X0493578Y0407920D01*
X0493615Y0407870D01*
X0493649Y0407817D01*
X0493680Y0407763D01*
X0493706Y0407707D01*
X0493730Y0407649D01*
X0493749Y0407589D01*
X0493765Y0407529D01*
X0493777Y0407467D01*
X0493785Y0407406D01*
X0493789Y0407343D01*
X0493789Y0407281D01*
X0493785Y0407218D01*
X0493777Y0407157D01*
X0493765Y0407095D01*
X0493749Y0407035D01*
X0493730Y0406975D01*
X0493706Y0406917D01*
X0493680Y0406861D01*
X0493649Y0406807D01*
X0493615Y0406754D01*
X0493578Y0406704D01*
X0493538Y0406656D01*
X0493495Y0406611D01*
X0493449Y0406568D01*
X0493401Y0406529D01*
X0493350Y0406493D01*
X0493297Y0406460D01*
X0493242Y0406430D01*
X0493185Y0406404D01*
X0493127Y0406382D01*
X0493067Y0406364D01*
X0493007Y0406349D01*
X0492945Y0406338D01*
X0492883Y0406331D01*
X0492821Y0406328D01*
X0492758Y0406329D01*
X0492696Y0406334D01*
X0492634Y0406343D01*
X0492573Y0406356D01*
X0492513Y0406372D01*
X0492454Y0406393D01*
X0492396Y0406417D01*
X0492340Y0406445D01*
X0492286Y0406476D01*
X0492234Y0406510D01*
X0492185Y0406548D01*
X0492137Y0406589D01*
X0492093Y0406633D01*
X0492051Y0406679D01*
X0492013Y0406729D01*
X0491977Y0406780D01*
X0491945Y0406834D01*
X0491917Y0406889D01*
X0491891Y0406946D01*
X0491870Y0407005D01*
X0491853Y0407065D01*
X0491839Y0407126D01*
X0491829Y0407187D01*
X0491823Y0407250D01*
X0491821Y0407312D01*
X0491821Y0403375D02*
X0491823Y0403437D01*
X0491829Y0403500D01*
X0491839Y0403561D01*
X0491853Y0403622D01*
X0491870Y0403682D01*
X0491891Y0403741D01*
X0491917Y0403798D01*
X0491945Y0403853D01*
X0491977Y0403907D01*
X0492013Y0403958D01*
X0492051Y0404008D01*
X0492093Y0404054D01*
X0492137Y0404098D01*
X0492185Y0404139D01*
X0492234Y0404177D01*
X0492286Y0404211D01*
X0492340Y0404242D01*
X0492396Y0404270D01*
X0492454Y0404294D01*
X0492513Y0404315D01*
X0492573Y0404331D01*
X0492634Y0404344D01*
X0492696Y0404353D01*
X0492758Y0404358D01*
X0492821Y0404359D01*
X0492883Y0404356D01*
X0492945Y0404349D01*
X0493007Y0404338D01*
X0493067Y0404323D01*
X0493127Y0404305D01*
X0493185Y0404283D01*
X0493242Y0404257D01*
X0493297Y0404227D01*
X0493350Y0404194D01*
X0493401Y0404158D01*
X0493449Y0404119D01*
X0493495Y0404076D01*
X0493538Y0404031D01*
X0493578Y0403983D01*
X0493615Y0403933D01*
X0493649Y0403880D01*
X0493680Y0403826D01*
X0493706Y0403770D01*
X0493730Y0403712D01*
X0493749Y0403652D01*
X0493765Y0403592D01*
X0493777Y0403530D01*
X0493785Y0403469D01*
X0493789Y0403406D01*
X0493789Y0403344D01*
X0493785Y0403281D01*
X0493777Y0403220D01*
X0493765Y0403158D01*
X0493749Y0403098D01*
X0493730Y0403038D01*
X0493706Y0402980D01*
X0493680Y0402924D01*
X0493649Y0402870D01*
X0493615Y0402817D01*
X0493578Y0402767D01*
X0493538Y0402719D01*
X0493495Y0402674D01*
X0493449Y0402631D01*
X0493401Y0402592D01*
X0493350Y0402556D01*
X0493297Y0402523D01*
X0493242Y0402493D01*
X0493185Y0402467D01*
X0493127Y0402445D01*
X0493067Y0402427D01*
X0493007Y0402412D01*
X0492945Y0402401D01*
X0492883Y0402394D01*
X0492821Y0402391D01*
X0492758Y0402392D01*
X0492696Y0402397D01*
X0492634Y0402406D01*
X0492573Y0402419D01*
X0492513Y0402435D01*
X0492454Y0402456D01*
X0492396Y0402480D01*
X0492340Y0402508D01*
X0492286Y0402539D01*
X0492234Y0402573D01*
X0492185Y0402611D01*
X0492137Y0402652D01*
X0492093Y0402696D01*
X0492051Y0402742D01*
X0492013Y0402792D01*
X0491977Y0402843D01*
X0491945Y0402897D01*
X0491917Y0402952D01*
X0491891Y0403009D01*
X0491870Y0403068D01*
X0491853Y0403128D01*
X0491839Y0403189D01*
X0491829Y0403250D01*
X0491823Y0403313D01*
X0491821Y0403375D01*
X0491821Y0399438D02*
X0491823Y0399500D01*
X0491829Y0399563D01*
X0491839Y0399624D01*
X0491853Y0399685D01*
X0491870Y0399745D01*
X0491891Y0399804D01*
X0491917Y0399861D01*
X0491945Y0399916D01*
X0491977Y0399970D01*
X0492013Y0400021D01*
X0492051Y0400071D01*
X0492093Y0400117D01*
X0492137Y0400161D01*
X0492185Y0400202D01*
X0492234Y0400240D01*
X0492286Y0400274D01*
X0492340Y0400305D01*
X0492396Y0400333D01*
X0492454Y0400357D01*
X0492513Y0400378D01*
X0492573Y0400394D01*
X0492634Y0400407D01*
X0492696Y0400416D01*
X0492758Y0400421D01*
X0492821Y0400422D01*
X0492883Y0400419D01*
X0492945Y0400412D01*
X0493007Y0400401D01*
X0493067Y0400386D01*
X0493127Y0400368D01*
X0493185Y0400346D01*
X0493242Y0400320D01*
X0493297Y0400290D01*
X0493350Y0400257D01*
X0493401Y0400221D01*
X0493449Y0400182D01*
X0493495Y0400139D01*
X0493538Y0400094D01*
X0493578Y0400046D01*
X0493615Y0399996D01*
X0493649Y0399943D01*
X0493680Y0399889D01*
X0493706Y0399833D01*
X0493730Y0399775D01*
X0493749Y0399715D01*
X0493765Y0399655D01*
X0493777Y0399593D01*
X0493785Y0399532D01*
X0493789Y0399469D01*
X0493789Y0399407D01*
X0493785Y0399344D01*
X0493777Y0399283D01*
X0493765Y0399221D01*
X0493749Y0399161D01*
X0493730Y0399101D01*
X0493706Y0399043D01*
X0493680Y0398987D01*
X0493649Y0398933D01*
X0493615Y0398880D01*
X0493578Y0398830D01*
X0493538Y0398782D01*
X0493495Y0398737D01*
X0493449Y0398694D01*
X0493401Y0398655D01*
X0493350Y0398619D01*
X0493297Y0398586D01*
X0493242Y0398556D01*
X0493185Y0398530D01*
X0493127Y0398508D01*
X0493067Y0398490D01*
X0493007Y0398475D01*
X0492945Y0398464D01*
X0492883Y0398457D01*
X0492821Y0398454D01*
X0492758Y0398455D01*
X0492696Y0398460D01*
X0492634Y0398469D01*
X0492573Y0398482D01*
X0492513Y0398498D01*
X0492454Y0398519D01*
X0492396Y0398543D01*
X0492340Y0398571D01*
X0492286Y0398602D01*
X0492234Y0398636D01*
X0492185Y0398674D01*
X0492137Y0398715D01*
X0492093Y0398759D01*
X0492051Y0398805D01*
X0492013Y0398855D01*
X0491977Y0398906D01*
X0491945Y0398960D01*
X0491917Y0399015D01*
X0491891Y0399072D01*
X0491870Y0399131D01*
X0491853Y0399191D01*
X0491839Y0399252D01*
X0491829Y0399313D01*
X0491823Y0399376D01*
X0491821Y0399438D01*
X0495758Y0399438D02*
X0495760Y0399500D01*
X0495766Y0399563D01*
X0495776Y0399624D01*
X0495790Y0399685D01*
X0495807Y0399745D01*
X0495828Y0399804D01*
X0495854Y0399861D01*
X0495882Y0399916D01*
X0495914Y0399970D01*
X0495950Y0400021D01*
X0495988Y0400071D01*
X0496030Y0400117D01*
X0496074Y0400161D01*
X0496122Y0400202D01*
X0496171Y0400240D01*
X0496223Y0400274D01*
X0496277Y0400305D01*
X0496333Y0400333D01*
X0496391Y0400357D01*
X0496450Y0400378D01*
X0496510Y0400394D01*
X0496571Y0400407D01*
X0496633Y0400416D01*
X0496695Y0400421D01*
X0496758Y0400422D01*
X0496820Y0400419D01*
X0496882Y0400412D01*
X0496944Y0400401D01*
X0497004Y0400386D01*
X0497064Y0400368D01*
X0497122Y0400346D01*
X0497179Y0400320D01*
X0497234Y0400290D01*
X0497287Y0400257D01*
X0497338Y0400221D01*
X0497386Y0400182D01*
X0497432Y0400139D01*
X0497475Y0400094D01*
X0497515Y0400046D01*
X0497552Y0399996D01*
X0497586Y0399943D01*
X0497617Y0399889D01*
X0497643Y0399833D01*
X0497667Y0399775D01*
X0497686Y0399715D01*
X0497702Y0399655D01*
X0497714Y0399593D01*
X0497722Y0399532D01*
X0497726Y0399469D01*
X0497726Y0399407D01*
X0497722Y0399344D01*
X0497714Y0399283D01*
X0497702Y0399221D01*
X0497686Y0399161D01*
X0497667Y0399101D01*
X0497643Y0399043D01*
X0497617Y0398987D01*
X0497586Y0398933D01*
X0497552Y0398880D01*
X0497515Y0398830D01*
X0497475Y0398782D01*
X0497432Y0398737D01*
X0497386Y0398694D01*
X0497338Y0398655D01*
X0497287Y0398619D01*
X0497234Y0398586D01*
X0497179Y0398556D01*
X0497122Y0398530D01*
X0497064Y0398508D01*
X0497004Y0398490D01*
X0496944Y0398475D01*
X0496882Y0398464D01*
X0496820Y0398457D01*
X0496758Y0398454D01*
X0496695Y0398455D01*
X0496633Y0398460D01*
X0496571Y0398469D01*
X0496510Y0398482D01*
X0496450Y0398498D01*
X0496391Y0398519D01*
X0496333Y0398543D01*
X0496277Y0398571D01*
X0496223Y0398602D01*
X0496171Y0398636D01*
X0496122Y0398674D01*
X0496074Y0398715D01*
X0496030Y0398759D01*
X0495988Y0398805D01*
X0495950Y0398855D01*
X0495914Y0398906D01*
X0495882Y0398960D01*
X0495854Y0399015D01*
X0495828Y0399072D01*
X0495807Y0399131D01*
X0495790Y0399191D01*
X0495776Y0399252D01*
X0495766Y0399313D01*
X0495760Y0399376D01*
X0495758Y0399438D01*
X0495758Y0403375D02*
X0495760Y0403437D01*
X0495766Y0403500D01*
X0495776Y0403561D01*
X0495790Y0403622D01*
X0495807Y0403682D01*
X0495828Y0403741D01*
X0495854Y0403798D01*
X0495882Y0403853D01*
X0495914Y0403907D01*
X0495950Y0403958D01*
X0495988Y0404008D01*
X0496030Y0404054D01*
X0496074Y0404098D01*
X0496122Y0404139D01*
X0496171Y0404177D01*
X0496223Y0404211D01*
X0496277Y0404242D01*
X0496333Y0404270D01*
X0496391Y0404294D01*
X0496450Y0404315D01*
X0496510Y0404331D01*
X0496571Y0404344D01*
X0496633Y0404353D01*
X0496695Y0404358D01*
X0496758Y0404359D01*
X0496820Y0404356D01*
X0496882Y0404349D01*
X0496944Y0404338D01*
X0497004Y0404323D01*
X0497064Y0404305D01*
X0497122Y0404283D01*
X0497179Y0404257D01*
X0497234Y0404227D01*
X0497287Y0404194D01*
X0497338Y0404158D01*
X0497386Y0404119D01*
X0497432Y0404076D01*
X0497475Y0404031D01*
X0497515Y0403983D01*
X0497552Y0403933D01*
X0497586Y0403880D01*
X0497617Y0403826D01*
X0497643Y0403770D01*
X0497667Y0403712D01*
X0497686Y0403652D01*
X0497702Y0403592D01*
X0497714Y0403530D01*
X0497722Y0403469D01*
X0497726Y0403406D01*
X0497726Y0403344D01*
X0497722Y0403281D01*
X0497714Y0403220D01*
X0497702Y0403158D01*
X0497686Y0403098D01*
X0497667Y0403038D01*
X0497643Y0402980D01*
X0497617Y0402924D01*
X0497586Y0402870D01*
X0497552Y0402817D01*
X0497515Y0402767D01*
X0497475Y0402719D01*
X0497432Y0402674D01*
X0497386Y0402631D01*
X0497338Y0402592D01*
X0497287Y0402556D01*
X0497234Y0402523D01*
X0497179Y0402493D01*
X0497122Y0402467D01*
X0497064Y0402445D01*
X0497004Y0402427D01*
X0496944Y0402412D01*
X0496882Y0402401D01*
X0496820Y0402394D01*
X0496758Y0402391D01*
X0496695Y0402392D01*
X0496633Y0402397D01*
X0496571Y0402406D01*
X0496510Y0402419D01*
X0496450Y0402435D01*
X0496391Y0402456D01*
X0496333Y0402480D01*
X0496277Y0402508D01*
X0496223Y0402539D01*
X0496171Y0402573D01*
X0496122Y0402611D01*
X0496074Y0402652D01*
X0496030Y0402696D01*
X0495988Y0402742D01*
X0495950Y0402792D01*
X0495914Y0402843D01*
X0495882Y0402897D01*
X0495854Y0402952D01*
X0495828Y0403009D01*
X0495807Y0403068D01*
X0495790Y0403128D01*
X0495776Y0403189D01*
X0495766Y0403250D01*
X0495760Y0403313D01*
X0495758Y0403375D01*
X0499695Y0403375D02*
X0499697Y0403437D01*
X0499703Y0403500D01*
X0499713Y0403561D01*
X0499727Y0403622D01*
X0499744Y0403682D01*
X0499765Y0403741D01*
X0499791Y0403798D01*
X0499819Y0403853D01*
X0499851Y0403907D01*
X0499887Y0403958D01*
X0499925Y0404008D01*
X0499967Y0404054D01*
X0500011Y0404098D01*
X0500059Y0404139D01*
X0500108Y0404177D01*
X0500160Y0404211D01*
X0500214Y0404242D01*
X0500270Y0404270D01*
X0500328Y0404294D01*
X0500387Y0404315D01*
X0500447Y0404331D01*
X0500508Y0404344D01*
X0500570Y0404353D01*
X0500632Y0404358D01*
X0500695Y0404359D01*
X0500757Y0404356D01*
X0500819Y0404349D01*
X0500881Y0404338D01*
X0500941Y0404323D01*
X0501001Y0404305D01*
X0501059Y0404283D01*
X0501116Y0404257D01*
X0501171Y0404227D01*
X0501224Y0404194D01*
X0501275Y0404158D01*
X0501323Y0404119D01*
X0501369Y0404076D01*
X0501412Y0404031D01*
X0501452Y0403983D01*
X0501489Y0403933D01*
X0501523Y0403880D01*
X0501554Y0403826D01*
X0501580Y0403770D01*
X0501604Y0403712D01*
X0501623Y0403652D01*
X0501639Y0403592D01*
X0501651Y0403530D01*
X0501659Y0403469D01*
X0501663Y0403406D01*
X0501663Y0403344D01*
X0501659Y0403281D01*
X0501651Y0403220D01*
X0501639Y0403158D01*
X0501623Y0403098D01*
X0501604Y0403038D01*
X0501580Y0402980D01*
X0501554Y0402924D01*
X0501523Y0402870D01*
X0501489Y0402817D01*
X0501452Y0402767D01*
X0501412Y0402719D01*
X0501369Y0402674D01*
X0501323Y0402631D01*
X0501275Y0402592D01*
X0501224Y0402556D01*
X0501171Y0402523D01*
X0501116Y0402493D01*
X0501059Y0402467D01*
X0501001Y0402445D01*
X0500941Y0402427D01*
X0500881Y0402412D01*
X0500819Y0402401D01*
X0500757Y0402394D01*
X0500695Y0402391D01*
X0500632Y0402392D01*
X0500570Y0402397D01*
X0500508Y0402406D01*
X0500447Y0402419D01*
X0500387Y0402435D01*
X0500328Y0402456D01*
X0500270Y0402480D01*
X0500214Y0402508D01*
X0500160Y0402539D01*
X0500108Y0402573D01*
X0500059Y0402611D01*
X0500011Y0402652D01*
X0499967Y0402696D01*
X0499925Y0402742D01*
X0499887Y0402792D01*
X0499851Y0402843D01*
X0499819Y0402897D01*
X0499791Y0402952D01*
X0499765Y0403009D01*
X0499744Y0403068D01*
X0499727Y0403128D01*
X0499713Y0403189D01*
X0499703Y0403250D01*
X0499697Y0403313D01*
X0499695Y0403375D01*
X0499695Y0399438D02*
X0499697Y0399500D01*
X0499703Y0399563D01*
X0499713Y0399624D01*
X0499727Y0399685D01*
X0499744Y0399745D01*
X0499765Y0399804D01*
X0499791Y0399861D01*
X0499819Y0399916D01*
X0499851Y0399970D01*
X0499887Y0400021D01*
X0499925Y0400071D01*
X0499967Y0400117D01*
X0500011Y0400161D01*
X0500059Y0400202D01*
X0500108Y0400240D01*
X0500160Y0400274D01*
X0500214Y0400305D01*
X0500270Y0400333D01*
X0500328Y0400357D01*
X0500387Y0400378D01*
X0500447Y0400394D01*
X0500508Y0400407D01*
X0500570Y0400416D01*
X0500632Y0400421D01*
X0500695Y0400422D01*
X0500757Y0400419D01*
X0500819Y0400412D01*
X0500881Y0400401D01*
X0500941Y0400386D01*
X0501001Y0400368D01*
X0501059Y0400346D01*
X0501116Y0400320D01*
X0501171Y0400290D01*
X0501224Y0400257D01*
X0501275Y0400221D01*
X0501323Y0400182D01*
X0501369Y0400139D01*
X0501412Y0400094D01*
X0501452Y0400046D01*
X0501489Y0399996D01*
X0501523Y0399943D01*
X0501554Y0399889D01*
X0501580Y0399833D01*
X0501604Y0399775D01*
X0501623Y0399715D01*
X0501639Y0399655D01*
X0501651Y0399593D01*
X0501659Y0399532D01*
X0501663Y0399469D01*
X0501663Y0399407D01*
X0501659Y0399344D01*
X0501651Y0399283D01*
X0501639Y0399221D01*
X0501623Y0399161D01*
X0501604Y0399101D01*
X0501580Y0399043D01*
X0501554Y0398987D01*
X0501523Y0398933D01*
X0501489Y0398880D01*
X0501452Y0398830D01*
X0501412Y0398782D01*
X0501369Y0398737D01*
X0501323Y0398694D01*
X0501275Y0398655D01*
X0501224Y0398619D01*
X0501171Y0398586D01*
X0501116Y0398556D01*
X0501059Y0398530D01*
X0501001Y0398508D01*
X0500941Y0398490D01*
X0500881Y0398475D01*
X0500819Y0398464D01*
X0500757Y0398457D01*
X0500695Y0398454D01*
X0500632Y0398455D01*
X0500570Y0398460D01*
X0500508Y0398469D01*
X0500447Y0398482D01*
X0500387Y0398498D01*
X0500328Y0398519D01*
X0500270Y0398543D01*
X0500214Y0398571D01*
X0500160Y0398602D01*
X0500108Y0398636D01*
X0500059Y0398674D01*
X0500011Y0398715D01*
X0499967Y0398759D01*
X0499925Y0398805D01*
X0499887Y0398855D01*
X0499851Y0398906D01*
X0499819Y0398960D01*
X0499791Y0399015D01*
X0499765Y0399072D01*
X0499744Y0399131D01*
X0499727Y0399191D01*
X0499713Y0399252D01*
X0499703Y0399313D01*
X0499697Y0399376D01*
X0499695Y0399438D01*
X0176860Y0399438D02*
X0176862Y0399500D01*
X0176868Y0399563D01*
X0176878Y0399624D01*
X0176892Y0399685D01*
X0176909Y0399745D01*
X0176930Y0399804D01*
X0176956Y0399861D01*
X0176984Y0399916D01*
X0177016Y0399970D01*
X0177052Y0400021D01*
X0177090Y0400071D01*
X0177132Y0400117D01*
X0177176Y0400161D01*
X0177224Y0400202D01*
X0177273Y0400240D01*
X0177325Y0400274D01*
X0177379Y0400305D01*
X0177435Y0400333D01*
X0177493Y0400357D01*
X0177552Y0400378D01*
X0177612Y0400394D01*
X0177673Y0400407D01*
X0177735Y0400416D01*
X0177797Y0400421D01*
X0177860Y0400422D01*
X0177922Y0400419D01*
X0177984Y0400412D01*
X0178046Y0400401D01*
X0178106Y0400386D01*
X0178166Y0400368D01*
X0178224Y0400346D01*
X0178281Y0400320D01*
X0178336Y0400290D01*
X0178389Y0400257D01*
X0178440Y0400221D01*
X0178488Y0400182D01*
X0178534Y0400139D01*
X0178577Y0400094D01*
X0178617Y0400046D01*
X0178654Y0399996D01*
X0178688Y0399943D01*
X0178719Y0399889D01*
X0178745Y0399833D01*
X0178769Y0399775D01*
X0178788Y0399715D01*
X0178804Y0399655D01*
X0178816Y0399593D01*
X0178824Y0399532D01*
X0178828Y0399469D01*
X0178828Y0399407D01*
X0178824Y0399344D01*
X0178816Y0399283D01*
X0178804Y0399221D01*
X0178788Y0399161D01*
X0178769Y0399101D01*
X0178745Y0399043D01*
X0178719Y0398987D01*
X0178688Y0398933D01*
X0178654Y0398880D01*
X0178617Y0398830D01*
X0178577Y0398782D01*
X0178534Y0398737D01*
X0178488Y0398694D01*
X0178440Y0398655D01*
X0178389Y0398619D01*
X0178336Y0398586D01*
X0178281Y0398556D01*
X0178224Y0398530D01*
X0178166Y0398508D01*
X0178106Y0398490D01*
X0178046Y0398475D01*
X0177984Y0398464D01*
X0177922Y0398457D01*
X0177860Y0398454D01*
X0177797Y0398455D01*
X0177735Y0398460D01*
X0177673Y0398469D01*
X0177612Y0398482D01*
X0177552Y0398498D01*
X0177493Y0398519D01*
X0177435Y0398543D01*
X0177379Y0398571D01*
X0177325Y0398602D01*
X0177273Y0398636D01*
X0177224Y0398674D01*
X0177176Y0398715D01*
X0177132Y0398759D01*
X0177090Y0398805D01*
X0177052Y0398855D01*
X0177016Y0398906D01*
X0176984Y0398960D01*
X0176956Y0399015D01*
X0176930Y0399072D01*
X0176909Y0399131D01*
X0176892Y0399191D01*
X0176878Y0399252D01*
X0176868Y0399313D01*
X0176862Y0399376D01*
X0176860Y0399438D01*
X0172923Y0399438D02*
X0172925Y0399500D01*
X0172931Y0399563D01*
X0172941Y0399624D01*
X0172955Y0399685D01*
X0172972Y0399745D01*
X0172993Y0399804D01*
X0173019Y0399861D01*
X0173047Y0399916D01*
X0173079Y0399970D01*
X0173115Y0400021D01*
X0173153Y0400071D01*
X0173195Y0400117D01*
X0173239Y0400161D01*
X0173287Y0400202D01*
X0173336Y0400240D01*
X0173388Y0400274D01*
X0173442Y0400305D01*
X0173498Y0400333D01*
X0173556Y0400357D01*
X0173615Y0400378D01*
X0173675Y0400394D01*
X0173736Y0400407D01*
X0173798Y0400416D01*
X0173860Y0400421D01*
X0173923Y0400422D01*
X0173985Y0400419D01*
X0174047Y0400412D01*
X0174109Y0400401D01*
X0174169Y0400386D01*
X0174229Y0400368D01*
X0174287Y0400346D01*
X0174344Y0400320D01*
X0174399Y0400290D01*
X0174452Y0400257D01*
X0174503Y0400221D01*
X0174551Y0400182D01*
X0174597Y0400139D01*
X0174640Y0400094D01*
X0174680Y0400046D01*
X0174717Y0399996D01*
X0174751Y0399943D01*
X0174782Y0399889D01*
X0174808Y0399833D01*
X0174832Y0399775D01*
X0174851Y0399715D01*
X0174867Y0399655D01*
X0174879Y0399593D01*
X0174887Y0399532D01*
X0174891Y0399469D01*
X0174891Y0399407D01*
X0174887Y0399344D01*
X0174879Y0399283D01*
X0174867Y0399221D01*
X0174851Y0399161D01*
X0174832Y0399101D01*
X0174808Y0399043D01*
X0174782Y0398987D01*
X0174751Y0398933D01*
X0174717Y0398880D01*
X0174680Y0398830D01*
X0174640Y0398782D01*
X0174597Y0398737D01*
X0174551Y0398694D01*
X0174503Y0398655D01*
X0174452Y0398619D01*
X0174399Y0398586D01*
X0174344Y0398556D01*
X0174287Y0398530D01*
X0174229Y0398508D01*
X0174169Y0398490D01*
X0174109Y0398475D01*
X0174047Y0398464D01*
X0173985Y0398457D01*
X0173923Y0398454D01*
X0173860Y0398455D01*
X0173798Y0398460D01*
X0173736Y0398469D01*
X0173675Y0398482D01*
X0173615Y0398498D01*
X0173556Y0398519D01*
X0173498Y0398543D01*
X0173442Y0398571D01*
X0173388Y0398602D01*
X0173336Y0398636D01*
X0173287Y0398674D01*
X0173239Y0398715D01*
X0173195Y0398759D01*
X0173153Y0398805D01*
X0173115Y0398855D01*
X0173079Y0398906D01*
X0173047Y0398960D01*
X0173019Y0399015D01*
X0172993Y0399072D01*
X0172972Y0399131D01*
X0172955Y0399191D01*
X0172941Y0399252D01*
X0172931Y0399313D01*
X0172925Y0399376D01*
X0172923Y0399438D01*
X0168986Y0399438D02*
X0168988Y0399500D01*
X0168994Y0399563D01*
X0169004Y0399624D01*
X0169018Y0399685D01*
X0169035Y0399745D01*
X0169056Y0399804D01*
X0169082Y0399861D01*
X0169110Y0399916D01*
X0169142Y0399970D01*
X0169178Y0400021D01*
X0169216Y0400071D01*
X0169258Y0400117D01*
X0169302Y0400161D01*
X0169350Y0400202D01*
X0169399Y0400240D01*
X0169451Y0400274D01*
X0169505Y0400305D01*
X0169561Y0400333D01*
X0169619Y0400357D01*
X0169678Y0400378D01*
X0169738Y0400394D01*
X0169799Y0400407D01*
X0169861Y0400416D01*
X0169923Y0400421D01*
X0169986Y0400422D01*
X0170048Y0400419D01*
X0170110Y0400412D01*
X0170172Y0400401D01*
X0170232Y0400386D01*
X0170292Y0400368D01*
X0170350Y0400346D01*
X0170407Y0400320D01*
X0170462Y0400290D01*
X0170515Y0400257D01*
X0170566Y0400221D01*
X0170614Y0400182D01*
X0170660Y0400139D01*
X0170703Y0400094D01*
X0170743Y0400046D01*
X0170780Y0399996D01*
X0170814Y0399943D01*
X0170845Y0399889D01*
X0170871Y0399833D01*
X0170895Y0399775D01*
X0170914Y0399715D01*
X0170930Y0399655D01*
X0170942Y0399593D01*
X0170950Y0399532D01*
X0170954Y0399469D01*
X0170954Y0399407D01*
X0170950Y0399344D01*
X0170942Y0399283D01*
X0170930Y0399221D01*
X0170914Y0399161D01*
X0170895Y0399101D01*
X0170871Y0399043D01*
X0170845Y0398987D01*
X0170814Y0398933D01*
X0170780Y0398880D01*
X0170743Y0398830D01*
X0170703Y0398782D01*
X0170660Y0398737D01*
X0170614Y0398694D01*
X0170566Y0398655D01*
X0170515Y0398619D01*
X0170462Y0398586D01*
X0170407Y0398556D01*
X0170350Y0398530D01*
X0170292Y0398508D01*
X0170232Y0398490D01*
X0170172Y0398475D01*
X0170110Y0398464D01*
X0170048Y0398457D01*
X0169986Y0398454D01*
X0169923Y0398455D01*
X0169861Y0398460D01*
X0169799Y0398469D01*
X0169738Y0398482D01*
X0169678Y0398498D01*
X0169619Y0398519D01*
X0169561Y0398543D01*
X0169505Y0398571D01*
X0169451Y0398602D01*
X0169399Y0398636D01*
X0169350Y0398674D01*
X0169302Y0398715D01*
X0169258Y0398759D01*
X0169216Y0398805D01*
X0169178Y0398855D01*
X0169142Y0398906D01*
X0169110Y0398960D01*
X0169082Y0399015D01*
X0169056Y0399072D01*
X0169035Y0399131D01*
X0169018Y0399191D01*
X0169004Y0399252D01*
X0168994Y0399313D01*
X0168988Y0399376D01*
X0168986Y0399438D01*
X0168986Y0403375D02*
X0168988Y0403437D01*
X0168994Y0403500D01*
X0169004Y0403561D01*
X0169018Y0403622D01*
X0169035Y0403682D01*
X0169056Y0403741D01*
X0169082Y0403798D01*
X0169110Y0403853D01*
X0169142Y0403907D01*
X0169178Y0403958D01*
X0169216Y0404008D01*
X0169258Y0404054D01*
X0169302Y0404098D01*
X0169350Y0404139D01*
X0169399Y0404177D01*
X0169451Y0404211D01*
X0169505Y0404242D01*
X0169561Y0404270D01*
X0169619Y0404294D01*
X0169678Y0404315D01*
X0169738Y0404331D01*
X0169799Y0404344D01*
X0169861Y0404353D01*
X0169923Y0404358D01*
X0169986Y0404359D01*
X0170048Y0404356D01*
X0170110Y0404349D01*
X0170172Y0404338D01*
X0170232Y0404323D01*
X0170292Y0404305D01*
X0170350Y0404283D01*
X0170407Y0404257D01*
X0170462Y0404227D01*
X0170515Y0404194D01*
X0170566Y0404158D01*
X0170614Y0404119D01*
X0170660Y0404076D01*
X0170703Y0404031D01*
X0170743Y0403983D01*
X0170780Y0403933D01*
X0170814Y0403880D01*
X0170845Y0403826D01*
X0170871Y0403770D01*
X0170895Y0403712D01*
X0170914Y0403652D01*
X0170930Y0403592D01*
X0170942Y0403530D01*
X0170950Y0403469D01*
X0170954Y0403406D01*
X0170954Y0403344D01*
X0170950Y0403281D01*
X0170942Y0403220D01*
X0170930Y0403158D01*
X0170914Y0403098D01*
X0170895Y0403038D01*
X0170871Y0402980D01*
X0170845Y0402924D01*
X0170814Y0402870D01*
X0170780Y0402817D01*
X0170743Y0402767D01*
X0170703Y0402719D01*
X0170660Y0402674D01*
X0170614Y0402631D01*
X0170566Y0402592D01*
X0170515Y0402556D01*
X0170462Y0402523D01*
X0170407Y0402493D01*
X0170350Y0402467D01*
X0170292Y0402445D01*
X0170232Y0402427D01*
X0170172Y0402412D01*
X0170110Y0402401D01*
X0170048Y0402394D01*
X0169986Y0402391D01*
X0169923Y0402392D01*
X0169861Y0402397D01*
X0169799Y0402406D01*
X0169738Y0402419D01*
X0169678Y0402435D01*
X0169619Y0402456D01*
X0169561Y0402480D01*
X0169505Y0402508D01*
X0169451Y0402539D01*
X0169399Y0402573D01*
X0169350Y0402611D01*
X0169302Y0402652D01*
X0169258Y0402696D01*
X0169216Y0402742D01*
X0169178Y0402792D01*
X0169142Y0402843D01*
X0169110Y0402897D01*
X0169082Y0402952D01*
X0169056Y0403009D01*
X0169035Y0403068D01*
X0169018Y0403128D01*
X0169004Y0403189D01*
X0168994Y0403250D01*
X0168988Y0403313D01*
X0168986Y0403375D01*
X0168986Y0407312D02*
X0168988Y0407374D01*
X0168994Y0407437D01*
X0169004Y0407498D01*
X0169018Y0407559D01*
X0169035Y0407619D01*
X0169056Y0407678D01*
X0169082Y0407735D01*
X0169110Y0407790D01*
X0169142Y0407844D01*
X0169178Y0407895D01*
X0169216Y0407945D01*
X0169258Y0407991D01*
X0169302Y0408035D01*
X0169350Y0408076D01*
X0169399Y0408114D01*
X0169451Y0408148D01*
X0169505Y0408179D01*
X0169561Y0408207D01*
X0169619Y0408231D01*
X0169678Y0408252D01*
X0169738Y0408268D01*
X0169799Y0408281D01*
X0169861Y0408290D01*
X0169923Y0408295D01*
X0169986Y0408296D01*
X0170048Y0408293D01*
X0170110Y0408286D01*
X0170172Y0408275D01*
X0170232Y0408260D01*
X0170292Y0408242D01*
X0170350Y0408220D01*
X0170407Y0408194D01*
X0170462Y0408164D01*
X0170515Y0408131D01*
X0170566Y0408095D01*
X0170614Y0408056D01*
X0170660Y0408013D01*
X0170703Y0407968D01*
X0170743Y0407920D01*
X0170780Y0407870D01*
X0170814Y0407817D01*
X0170845Y0407763D01*
X0170871Y0407707D01*
X0170895Y0407649D01*
X0170914Y0407589D01*
X0170930Y0407529D01*
X0170942Y0407467D01*
X0170950Y0407406D01*
X0170954Y0407343D01*
X0170954Y0407281D01*
X0170950Y0407218D01*
X0170942Y0407157D01*
X0170930Y0407095D01*
X0170914Y0407035D01*
X0170895Y0406975D01*
X0170871Y0406917D01*
X0170845Y0406861D01*
X0170814Y0406807D01*
X0170780Y0406754D01*
X0170743Y0406704D01*
X0170703Y0406656D01*
X0170660Y0406611D01*
X0170614Y0406568D01*
X0170566Y0406529D01*
X0170515Y0406493D01*
X0170462Y0406460D01*
X0170407Y0406430D01*
X0170350Y0406404D01*
X0170292Y0406382D01*
X0170232Y0406364D01*
X0170172Y0406349D01*
X0170110Y0406338D01*
X0170048Y0406331D01*
X0169986Y0406328D01*
X0169923Y0406329D01*
X0169861Y0406334D01*
X0169799Y0406343D01*
X0169738Y0406356D01*
X0169678Y0406372D01*
X0169619Y0406393D01*
X0169561Y0406417D01*
X0169505Y0406445D01*
X0169451Y0406476D01*
X0169399Y0406510D01*
X0169350Y0406548D01*
X0169302Y0406589D01*
X0169258Y0406633D01*
X0169216Y0406679D01*
X0169178Y0406729D01*
X0169142Y0406780D01*
X0169110Y0406834D01*
X0169082Y0406889D01*
X0169056Y0406946D01*
X0169035Y0407005D01*
X0169018Y0407065D01*
X0169004Y0407126D01*
X0168994Y0407187D01*
X0168988Y0407250D01*
X0168986Y0407312D01*
X0172923Y0407312D02*
X0172925Y0407374D01*
X0172931Y0407437D01*
X0172941Y0407498D01*
X0172955Y0407559D01*
X0172972Y0407619D01*
X0172993Y0407678D01*
X0173019Y0407735D01*
X0173047Y0407790D01*
X0173079Y0407844D01*
X0173115Y0407895D01*
X0173153Y0407945D01*
X0173195Y0407991D01*
X0173239Y0408035D01*
X0173287Y0408076D01*
X0173336Y0408114D01*
X0173388Y0408148D01*
X0173442Y0408179D01*
X0173498Y0408207D01*
X0173556Y0408231D01*
X0173615Y0408252D01*
X0173675Y0408268D01*
X0173736Y0408281D01*
X0173798Y0408290D01*
X0173860Y0408295D01*
X0173923Y0408296D01*
X0173985Y0408293D01*
X0174047Y0408286D01*
X0174109Y0408275D01*
X0174169Y0408260D01*
X0174229Y0408242D01*
X0174287Y0408220D01*
X0174344Y0408194D01*
X0174399Y0408164D01*
X0174452Y0408131D01*
X0174503Y0408095D01*
X0174551Y0408056D01*
X0174597Y0408013D01*
X0174640Y0407968D01*
X0174680Y0407920D01*
X0174717Y0407870D01*
X0174751Y0407817D01*
X0174782Y0407763D01*
X0174808Y0407707D01*
X0174832Y0407649D01*
X0174851Y0407589D01*
X0174867Y0407529D01*
X0174879Y0407467D01*
X0174887Y0407406D01*
X0174891Y0407343D01*
X0174891Y0407281D01*
X0174887Y0407218D01*
X0174879Y0407157D01*
X0174867Y0407095D01*
X0174851Y0407035D01*
X0174832Y0406975D01*
X0174808Y0406917D01*
X0174782Y0406861D01*
X0174751Y0406807D01*
X0174717Y0406754D01*
X0174680Y0406704D01*
X0174640Y0406656D01*
X0174597Y0406611D01*
X0174551Y0406568D01*
X0174503Y0406529D01*
X0174452Y0406493D01*
X0174399Y0406460D01*
X0174344Y0406430D01*
X0174287Y0406404D01*
X0174229Y0406382D01*
X0174169Y0406364D01*
X0174109Y0406349D01*
X0174047Y0406338D01*
X0173985Y0406331D01*
X0173923Y0406328D01*
X0173860Y0406329D01*
X0173798Y0406334D01*
X0173736Y0406343D01*
X0173675Y0406356D01*
X0173615Y0406372D01*
X0173556Y0406393D01*
X0173498Y0406417D01*
X0173442Y0406445D01*
X0173388Y0406476D01*
X0173336Y0406510D01*
X0173287Y0406548D01*
X0173239Y0406589D01*
X0173195Y0406633D01*
X0173153Y0406679D01*
X0173115Y0406729D01*
X0173079Y0406780D01*
X0173047Y0406834D01*
X0173019Y0406889D01*
X0172993Y0406946D01*
X0172972Y0407005D01*
X0172955Y0407065D01*
X0172941Y0407126D01*
X0172931Y0407187D01*
X0172925Y0407250D01*
X0172923Y0407312D01*
X0172923Y0403375D02*
X0172925Y0403437D01*
X0172931Y0403500D01*
X0172941Y0403561D01*
X0172955Y0403622D01*
X0172972Y0403682D01*
X0172993Y0403741D01*
X0173019Y0403798D01*
X0173047Y0403853D01*
X0173079Y0403907D01*
X0173115Y0403958D01*
X0173153Y0404008D01*
X0173195Y0404054D01*
X0173239Y0404098D01*
X0173287Y0404139D01*
X0173336Y0404177D01*
X0173388Y0404211D01*
X0173442Y0404242D01*
X0173498Y0404270D01*
X0173556Y0404294D01*
X0173615Y0404315D01*
X0173675Y0404331D01*
X0173736Y0404344D01*
X0173798Y0404353D01*
X0173860Y0404358D01*
X0173923Y0404359D01*
X0173985Y0404356D01*
X0174047Y0404349D01*
X0174109Y0404338D01*
X0174169Y0404323D01*
X0174229Y0404305D01*
X0174287Y0404283D01*
X0174344Y0404257D01*
X0174399Y0404227D01*
X0174452Y0404194D01*
X0174503Y0404158D01*
X0174551Y0404119D01*
X0174597Y0404076D01*
X0174640Y0404031D01*
X0174680Y0403983D01*
X0174717Y0403933D01*
X0174751Y0403880D01*
X0174782Y0403826D01*
X0174808Y0403770D01*
X0174832Y0403712D01*
X0174851Y0403652D01*
X0174867Y0403592D01*
X0174879Y0403530D01*
X0174887Y0403469D01*
X0174891Y0403406D01*
X0174891Y0403344D01*
X0174887Y0403281D01*
X0174879Y0403220D01*
X0174867Y0403158D01*
X0174851Y0403098D01*
X0174832Y0403038D01*
X0174808Y0402980D01*
X0174782Y0402924D01*
X0174751Y0402870D01*
X0174717Y0402817D01*
X0174680Y0402767D01*
X0174640Y0402719D01*
X0174597Y0402674D01*
X0174551Y0402631D01*
X0174503Y0402592D01*
X0174452Y0402556D01*
X0174399Y0402523D01*
X0174344Y0402493D01*
X0174287Y0402467D01*
X0174229Y0402445D01*
X0174169Y0402427D01*
X0174109Y0402412D01*
X0174047Y0402401D01*
X0173985Y0402394D01*
X0173923Y0402391D01*
X0173860Y0402392D01*
X0173798Y0402397D01*
X0173736Y0402406D01*
X0173675Y0402419D01*
X0173615Y0402435D01*
X0173556Y0402456D01*
X0173498Y0402480D01*
X0173442Y0402508D01*
X0173388Y0402539D01*
X0173336Y0402573D01*
X0173287Y0402611D01*
X0173239Y0402652D01*
X0173195Y0402696D01*
X0173153Y0402742D01*
X0173115Y0402792D01*
X0173079Y0402843D01*
X0173047Y0402897D01*
X0173019Y0402952D01*
X0172993Y0403009D01*
X0172972Y0403068D01*
X0172955Y0403128D01*
X0172941Y0403189D01*
X0172931Y0403250D01*
X0172925Y0403313D01*
X0172923Y0403375D01*
X0176860Y0403375D02*
X0176862Y0403437D01*
X0176868Y0403500D01*
X0176878Y0403561D01*
X0176892Y0403622D01*
X0176909Y0403682D01*
X0176930Y0403741D01*
X0176956Y0403798D01*
X0176984Y0403853D01*
X0177016Y0403907D01*
X0177052Y0403958D01*
X0177090Y0404008D01*
X0177132Y0404054D01*
X0177176Y0404098D01*
X0177224Y0404139D01*
X0177273Y0404177D01*
X0177325Y0404211D01*
X0177379Y0404242D01*
X0177435Y0404270D01*
X0177493Y0404294D01*
X0177552Y0404315D01*
X0177612Y0404331D01*
X0177673Y0404344D01*
X0177735Y0404353D01*
X0177797Y0404358D01*
X0177860Y0404359D01*
X0177922Y0404356D01*
X0177984Y0404349D01*
X0178046Y0404338D01*
X0178106Y0404323D01*
X0178166Y0404305D01*
X0178224Y0404283D01*
X0178281Y0404257D01*
X0178336Y0404227D01*
X0178389Y0404194D01*
X0178440Y0404158D01*
X0178488Y0404119D01*
X0178534Y0404076D01*
X0178577Y0404031D01*
X0178617Y0403983D01*
X0178654Y0403933D01*
X0178688Y0403880D01*
X0178719Y0403826D01*
X0178745Y0403770D01*
X0178769Y0403712D01*
X0178788Y0403652D01*
X0178804Y0403592D01*
X0178816Y0403530D01*
X0178824Y0403469D01*
X0178828Y0403406D01*
X0178828Y0403344D01*
X0178824Y0403281D01*
X0178816Y0403220D01*
X0178804Y0403158D01*
X0178788Y0403098D01*
X0178769Y0403038D01*
X0178745Y0402980D01*
X0178719Y0402924D01*
X0178688Y0402870D01*
X0178654Y0402817D01*
X0178617Y0402767D01*
X0178577Y0402719D01*
X0178534Y0402674D01*
X0178488Y0402631D01*
X0178440Y0402592D01*
X0178389Y0402556D01*
X0178336Y0402523D01*
X0178281Y0402493D01*
X0178224Y0402467D01*
X0178166Y0402445D01*
X0178106Y0402427D01*
X0178046Y0402412D01*
X0177984Y0402401D01*
X0177922Y0402394D01*
X0177860Y0402391D01*
X0177797Y0402392D01*
X0177735Y0402397D01*
X0177673Y0402406D01*
X0177612Y0402419D01*
X0177552Y0402435D01*
X0177493Y0402456D01*
X0177435Y0402480D01*
X0177379Y0402508D01*
X0177325Y0402539D01*
X0177273Y0402573D01*
X0177224Y0402611D01*
X0177176Y0402652D01*
X0177132Y0402696D01*
X0177090Y0402742D01*
X0177052Y0402792D01*
X0177016Y0402843D01*
X0176984Y0402897D01*
X0176956Y0402952D01*
X0176930Y0403009D01*
X0176909Y0403068D01*
X0176892Y0403128D01*
X0176878Y0403189D01*
X0176868Y0403250D01*
X0176862Y0403313D01*
X0176860Y0403375D01*
X0176860Y0407312D02*
X0176862Y0407374D01*
X0176868Y0407437D01*
X0176878Y0407498D01*
X0176892Y0407559D01*
X0176909Y0407619D01*
X0176930Y0407678D01*
X0176956Y0407735D01*
X0176984Y0407790D01*
X0177016Y0407844D01*
X0177052Y0407895D01*
X0177090Y0407945D01*
X0177132Y0407991D01*
X0177176Y0408035D01*
X0177224Y0408076D01*
X0177273Y0408114D01*
X0177325Y0408148D01*
X0177379Y0408179D01*
X0177435Y0408207D01*
X0177493Y0408231D01*
X0177552Y0408252D01*
X0177612Y0408268D01*
X0177673Y0408281D01*
X0177735Y0408290D01*
X0177797Y0408295D01*
X0177860Y0408296D01*
X0177922Y0408293D01*
X0177984Y0408286D01*
X0178046Y0408275D01*
X0178106Y0408260D01*
X0178166Y0408242D01*
X0178224Y0408220D01*
X0178281Y0408194D01*
X0178336Y0408164D01*
X0178389Y0408131D01*
X0178440Y0408095D01*
X0178488Y0408056D01*
X0178534Y0408013D01*
X0178577Y0407968D01*
X0178617Y0407920D01*
X0178654Y0407870D01*
X0178688Y0407817D01*
X0178719Y0407763D01*
X0178745Y0407707D01*
X0178769Y0407649D01*
X0178788Y0407589D01*
X0178804Y0407529D01*
X0178816Y0407467D01*
X0178824Y0407406D01*
X0178828Y0407343D01*
X0178828Y0407281D01*
X0178824Y0407218D01*
X0178816Y0407157D01*
X0178804Y0407095D01*
X0178788Y0407035D01*
X0178769Y0406975D01*
X0178745Y0406917D01*
X0178719Y0406861D01*
X0178688Y0406807D01*
X0178654Y0406754D01*
X0178617Y0406704D01*
X0178577Y0406656D01*
X0178534Y0406611D01*
X0178488Y0406568D01*
X0178440Y0406529D01*
X0178389Y0406493D01*
X0178336Y0406460D01*
X0178281Y0406430D01*
X0178224Y0406404D01*
X0178166Y0406382D01*
X0178106Y0406364D01*
X0178046Y0406349D01*
X0177984Y0406338D01*
X0177922Y0406331D01*
X0177860Y0406328D01*
X0177797Y0406329D01*
X0177735Y0406334D01*
X0177673Y0406343D01*
X0177612Y0406356D01*
X0177552Y0406372D01*
X0177493Y0406393D01*
X0177435Y0406417D01*
X0177379Y0406445D01*
X0177325Y0406476D01*
X0177273Y0406510D01*
X0177224Y0406548D01*
X0177176Y0406589D01*
X0177132Y0406633D01*
X0177090Y0406679D01*
X0177052Y0406729D01*
X0177016Y0406780D01*
X0176984Y0406834D01*
X0176956Y0406889D01*
X0176930Y0406946D01*
X0176909Y0407005D01*
X0176892Y0407065D01*
X0176878Y0407126D01*
X0176868Y0407187D01*
X0176862Y0407250D01*
X0176860Y0407312D01*
X0012096Y0416170D02*
X0012098Y0416301D01*
X0012104Y0416433D01*
X0012114Y0416564D01*
X0012128Y0416695D01*
X0012146Y0416825D01*
X0012168Y0416954D01*
X0012193Y0417083D01*
X0012223Y0417211D01*
X0012257Y0417338D01*
X0012294Y0417465D01*
X0012335Y0417589D01*
X0012380Y0417713D01*
X0012429Y0417835D01*
X0012481Y0417956D01*
X0012537Y0418074D01*
X0012597Y0418192D01*
X0012660Y0418307D01*
X0012727Y0418420D01*
X0012797Y0418532D01*
X0012870Y0418641D01*
X0012946Y0418747D01*
X0013026Y0418852D01*
X0013109Y0418954D01*
X0013195Y0419053D01*
X0013284Y0419150D01*
X0013376Y0419244D01*
X0013471Y0419335D01*
X0013568Y0419424D01*
X0013668Y0419509D01*
X0013771Y0419591D01*
X0013876Y0419670D01*
X0013983Y0419746D01*
X0014093Y0419818D01*
X0014205Y0419887D01*
X0014319Y0419953D01*
X0014434Y0420015D01*
X0014552Y0420074D01*
X0014671Y0420129D01*
X0014792Y0420181D01*
X0014915Y0420228D01*
X0015039Y0420272D01*
X0015164Y0420313D01*
X0015290Y0420349D01*
X0015418Y0420382D01*
X0015546Y0420410D01*
X0015675Y0420435D01*
X0015805Y0420456D01*
X0015935Y0420473D01*
X0016066Y0420486D01*
X0016197Y0420495D01*
X0016328Y0420500D01*
X0016460Y0420501D01*
X0016591Y0420498D01*
X0016723Y0420491D01*
X0016854Y0420480D01*
X0016984Y0420465D01*
X0017114Y0420446D01*
X0017244Y0420423D01*
X0017372Y0420397D01*
X0017500Y0420366D01*
X0017627Y0420331D01*
X0017753Y0420293D01*
X0017877Y0420251D01*
X0018001Y0420205D01*
X0018122Y0420155D01*
X0018242Y0420102D01*
X0018361Y0420045D01*
X0018478Y0419985D01*
X0018592Y0419921D01*
X0018705Y0419853D01*
X0018816Y0419782D01*
X0018925Y0419708D01*
X0019031Y0419631D01*
X0019135Y0419550D01*
X0019236Y0419467D01*
X0019335Y0419380D01*
X0019431Y0419290D01*
X0019524Y0419197D01*
X0019615Y0419102D01*
X0019702Y0419004D01*
X0019787Y0418903D01*
X0019868Y0418800D01*
X0019946Y0418694D01*
X0020021Y0418586D01*
X0020093Y0418476D01*
X0020161Y0418364D01*
X0020226Y0418250D01*
X0020287Y0418133D01*
X0020345Y0418015D01*
X0020399Y0417895D01*
X0020450Y0417774D01*
X0020497Y0417651D01*
X0020540Y0417527D01*
X0020579Y0417402D01*
X0020615Y0417275D01*
X0020646Y0417147D01*
X0020674Y0417019D01*
X0020698Y0416890D01*
X0020718Y0416760D01*
X0020734Y0416629D01*
X0020746Y0416498D01*
X0020754Y0416367D01*
X0020758Y0416236D01*
X0020758Y0416104D01*
X0020754Y0415973D01*
X0020746Y0415842D01*
X0020734Y0415711D01*
X0020718Y0415580D01*
X0020698Y0415450D01*
X0020674Y0415321D01*
X0020646Y0415193D01*
X0020615Y0415065D01*
X0020579Y0414938D01*
X0020540Y0414813D01*
X0020497Y0414689D01*
X0020450Y0414566D01*
X0020399Y0414445D01*
X0020345Y0414325D01*
X0020287Y0414207D01*
X0020226Y0414090D01*
X0020161Y0413976D01*
X0020093Y0413864D01*
X0020021Y0413754D01*
X0019946Y0413646D01*
X0019868Y0413540D01*
X0019787Y0413437D01*
X0019702Y0413336D01*
X0019615Y0413238D01*
X0019524Y0413143D01*
X0019431Y0413050D01*
X0019335Y0412960D01*
X0019236Y0412873D01*
X0019135Y0412790D01*
X0019031Y0412709D01*
X0018925Y0412632D01*
X0018816Y0412558D01*
X0018705Y0412487D01*
X0018593Y0412419D01*
X0018478Y0412355D01*
X0018361Y0412295D01*
X0018242Y0412238D01*
X0018122Y0412185D01*
X0018001Y0412135D01*
X0017877Y0412089D01*
X0017753Y0412047D01*
X0017627Y0412009D01*
X0017500Y0411974D01*
X0017372Y0411943D01*
X0017244Y0411917D01*
X0017114Y0411894D01*
X0016984Y0411875D01*
X0016854Y0411860D01*
X0016723Y0411849D01*
X0016591Y0411842D01*
X0016460Y0411839D01*
X0016328Y0411840D01*
X0016197Y0411845D01*
X0016066Y0411854D01*
X0015935Y0411867D01*
X0015805Y0411884D01*
X0015675Y0411905D01*
X0015546Y0411930D01*
X0015418Y0411958D01*
X0015290Y0411991D01*
X0015164Y0412027D01*
X0015039Y0412068D01*
X0014915Y0412112D01*
X0014792Y0412159D01*
X0014671Y0412211D01*
X0014552Y0412266D01*
X0014434Y0412325D01*
X0014319Y0412387D01*
X0014205Y0412453D01*
X0014093Y0412522D01*
X0013983Y0412594D01*
X0013876Y0412670D01*
X0013771Y0412749D01*
X0013668Y0412831D01*
X0013568Y0412916D01*
X0013471Y0413005D01*
X0013376Y0413096D01*
X0013284Y0413190D01*
X0013195Y0413287D01*
X0013109Y0413386D01*
X0013026Y0413488D01*
X0012946Y0413593D01*
X0012870Y0413699D01*
X0012797Y0413808D01*
X0012727Y0413920D01*
X0012660Y0414033D01*
X0012597Y0414148D01*
X0012537Y0414266D01*
X0012481Y0414384D01*
X0012429Y0414505D01*
X0012380Y0414627D01*
X0012335Y0414751D01*
X0012294Y0414875D01*
X0012257Y0415002D01*
X0012223Y0415129D01*
X0012193Y0415257D01*
X0012168Y0415386D01*
X0012146Y0415515D01*
X0012128Y0415645D01*
X0012114Y0415776D01*
X0012104Y0415907D01*
X0012098Y0416039D01*
X0012096Y0416170D01*
X0010128Y0383690D02*
X0010130Y0383848D01*
X0010136Y0384006D01*
X0010146Y0384164D01*
X0010160Y0384322D01*
X0010178Y0384479D01*
X0010199Y0384636D01*
X0010225Y0384792D01*
X0010255Y0384948D01*
X0010288Y0385103D01*
X0010326Y0385256D01*
X0010367Y0385409D01*
X0010412Y0385561D01*
X0010461Y0385712D01*
X0010514Y0385861D01*
X0010570Y0386009D01*
X0010630Y0386155D01*
X0010694Y0386300D01*
X0010762Y0386443D01*
X0010833Y0386585D01*
X0010907Y0386725D01*
X0010985Y0386862D01*
X0011067Y0386998D01*
X0011151Y0387132D01*
X0011240Y0387263D01*
X0011331Y0387392D01*
X0011426Y0387519D01*
X0011523Y0387644D01*
X0011624Y0387766D01*
X0011728Y0387885D01*
X0011835Y0388002D01*
X0011945Y0388116D01*
X0012058Y0388227D01*
X0012173Y0388336D01*
X0012291Y0388441D01*
X0012412Y0388543D01*
X0012535Y0388643D01*
X0012661Y0388739D01*
X0012789Y0388832D01*
X0012919Y0388922D01*
X0013052Y0389008D01*
X0013187Y0389092D01*
X0013323Y0389171D01*
X0013462Y0389248D01*
X0013603Y0389320D01*
X0013745Y0389390D01*
X0013889Y0389455D01*
X0014035Y0389517D01*
X0014182Y0389575D01*
X0014331Y0389630D01*
X0014481Y0389681D01*
X0014632Y0389728D01*
X0014784Y0389771D01*
X0014937Y0389810D01*
X0015092Y0389846D01*
X0015247Y0389877D01*
X0015403Y0389905D01*
X0015559Y0389929D01*
X0015716Y0389949D01*
X0015874Y0389965D01*
X0016031Y0389977D01*
X0016190Y0389985D01*
X0016348Y0389989D01*
X0016506Y0389989D01*
X0016664Y0389985D01*
X0016823Y0389977D01*
X0016980Y0389965D01*
X0017138Y0389949D01*
X0017295Y0389929D01*
X0017451Y0389905D01*
X0017607Y0389877D01*
X0017762Y0389846D01*
X0017917Y0389810D01*
X0018070Y0389771D01*
X0018222Y0389728D01*
X0018373Y0389681D01*
X0018523Y0389630D01*
X0018672Y0389575D01*
X0018819Y0389517D01*
X0018965Y0389455D01*
X0019109Y0389390D01*
X0019251Y0389320D01*
X0019392Y0389248D01*
X0019531Y0389171D01*
X0019667Y0389092D01*
X0019802Y0389008D01*
X0019935Y0388922D01*
X0020065Y0388832D01*
X0020193Y0388739D01*
X0020319Y0388643D01*
X0020442Y0388543D01*
X0020563Y0388441D01*
X0020681Y0388336D01*
X0020796Y0388227D01*
X0020909Y0388116D01*
X0021019Y0388002D01*
X0021126Y0387885D01*
X0021230Y0387766D01*
X0021331Y0387644D01*
X0021428Y0387519D01*
X0021523Y0387392D01*
X0021614Y0387263D01*
X0021703Y0387132D01*
X0021787Y0386998D01*
X0021869Y0386862D01*
X0021947Y0386725D01*
X0022021Y0386585D01*
X0022092Y0386443D01*
X0022160Y0386300D01*
X0022224Y0386155D01*
X0022284Y0386009D01*
X0022340Y0385861D01*
X0022393Y0385712D01*
X0022442Y0385561D01*
X0022487Y0385409D01*
X0022528Y0385256D01*
X0022566Y0385103D01*
X0022599Y0384948D01*
X0022629Y0384792D01*
X0022655Y0384636D01*
X0022676Y0384479D01*
X0022694Y0384322D01*
X0022708Y0384164D01*
X0022718Y0384006D01*
X0022724Y0383848D01*
X0022726Y0383690D01*
X0022724Y0383532D01*
X0022718Y0383374D01*
X0022708Y0383216D01*
X0022694Y0383058D01*
X0022676Y0382901D01*
X0022655Y0382744D01*
X0022629Y0382588D01*
X0022599Y0382432D01*
X0022566Y0382277D01*
X0022528Y0382124D01*
X0022487Y0381971D01*
X0022442Y0381819D01*
X0022393Y0381668D01*
X0022340Y0381519D01*
X0022284Y0381371D01*
X0022224Y0381225D01*
X0022160Y0381080D01*
X0022092Y0380937D01*
X0022021Y0380795D01*
X0021947Y0380655D01*
X0021869Y0380518D01*
X0021787Y0380382D01*
X0021703Y0380248D01*
X0021614Y0380117D01*
X0021523Y0379988D01*
X0021428Y0379861D01*
X0021331Y0379736D01*
X0021230Y0379614D01*
X0021126Y0379495D01*
X0021019Y0379378D01*
X0020909Y0379264D01*
X0020796Y0379153D01*
X0020681Y0379044D01*
X0020563Y0378939D01*
X0020442Y0378837D01*
X0020319Y0378737D01*
X0020193Y0378641D01*
X0020065Y0378548D01*
X0019935Y0378458D01*
X0019802Y0378372D01*
X0019667Y0378288D01*
X0019531Y0378209D01*
X0019392Y0378132D01*
X0019251Y0378060D01*
X0019109Y0377990D01*
X0018965Y0377925D01*
X0018819Y0377863D01*
X0018672Y0377805D01*
X0018523Y0377750D01*
X0018373Y0377699D01*
X0018222Y0377652D01*
X0018070Y0377609D01*
X0017917Y0377570D01*
X0017762Y0377534D01*
X0017607Y0377503D01*
X0017451Y0377475D01*
X0017295Y0377451D01*
X0017138Y0377431D01*
X0016980Y0377415D01*
X0016823Y0377403D01*
X0016664Y0377395D01*
X0016506Y0377391D01*
X0016348Y0377391D01*
X0016190Y0377395D01*
X0016031Y0377403D01*
X0015874Y0377415D01*
X0015716Y0377431D01*
X0015559Y0377451D01*
X0015403Y0377475D01*
X0015247Y0377503D01*
X0015092Y0377534D01*
X0014937Y0377570D01*
X0014784Y0377609D01*
X0014632Y0377652D01*
X0014481Y0377699D01*
X0014331Y0377750D01*
X0014182Y0377805D01*
X0014035Y0377863D01*
X0013889Y0377925D01*
X0013745Y0377990D01*
X0013603Y0378060D01*
X0013462Y0378132D01*
X0013323Y0378209D01*
X0013187Y0378288D01*
X0013052Y0378372D01*
X0012919Y0378458D01*
X0012789Y0378548D01*
X0012661Y0378641D01*
X0012535Y0378737D01*
X0012412Y0378837D01*
X0012291Y0378939D01*
X0012173Y0379044D01*
X0012058Y0379153D01*
X0011945Y0379264D01*
X0011835Y0379378D01*
X0011728Y0379495D01*
X0011624Y0379614D01*
X0011523Y0379736D01*
X0011426Y0379861D01*
X0011331Y0379988D01*
X0011240Y0380117D01*
X0011151Y0380248D01*
X0011067Y0380382D01*
X0010985Y0380518D01*
X0010907Y0380655D01*
X0010833Y0380795D01*
X0010762Y0380937D01*
X0010694Y0381080D01*
X0010630Y0381225D01*
X0010570Y0381371D01*
X0010514Y0381519D01*
X0010461Y0381668D01*
X0010412Y0381819D01*
X0010367Y0381971D01*
X0010326Y0382124D01*
X0010288Y0382277D01*
X0010255Y0382432D01*
X0010225Y0382588D01*
X0010199Y0382744D01*
X0010178Y0382901D01*
X0010160Y0383058D01*
X0010146Y0383216D01*
X0010136Y0383374D01*
X0010130Y0383532D01*
X0010128Y0383690D01*
D11*
X0002647Y0015580D02*
X0002647Y0001800D01*
X0668001Y0001800D01*
X0668001Y0015580D01*
X0504616Y0015580D01*
X0504616Y0027391D01*
X0668001Y0027391D01*
X0668001Y0397469D01*
X0504616Y0397469D01*
X0504616Y0409280D01*
X0668001Y0409280D01*
X0668001Y0423060D01*
X0002647Y0423060D01*
X0002647Y0409280D01*
X0166033Y0409280D01*
X0166033Y0397469D01*
X0002647Y0397469D01*
X0002647Y0027391D01*
X0166033Y0027391D01*
X0166033Y0015580D01*
X0002647Y0015580D01*
X0181781Y0015580D02*
X0181781Y0027391D01*
X0488868Y0027391D01*
X0488868Y0015580D01*
X0181781Y0015580D01*
X0181781Y0397469D02*
X0181781Y0409280D01*
X0488868Y0409280D01*
X0488868Y0397469D01*
X0181781Y0397469D01*
D12*
X0187687Y0403375D02*
X0482962Y0403375D01*
X0482962Y0021485D02*
X0187687Y0021485D01*
M02*
