%
M48
M72
T01C0.0197
T02C0.0400
T03C0.0866
T04C0.1260
%
T01
X16997Y1755
X16997Y2149
X16997Y2542
X17391Y2542
X17784Y2542
X17784Y2149
X17391Y2149
X17391Y1755
X17784Y1755
X49280Y1755
X49280Y2149
X49280Y2542
X49674Y2542
X49674Y2149
X50068Y2149
X50068Y2542
X50068Y1755
X49674Y1755
X49674Y39944
X49674Y40337
X49280Y40337
X49280Y39944
X49280Y40731
X49674Y40731
X50068Y40731
X50068Y40337
X50068Y39944
X17784Y39944
X17391Y39944
X17391Y40337
X17784Y40337
X17784Y40731
X17391Y40731
X16997Y40731
X16997Y40337
X16997Y39944
T02
X17032Y35743
X18032Y35743
X19032Y35743
X20032Y35743
X21032Y35743
X22032Y35743
X23032Y35743
X24032Y35743
X25032Y35743
X26032Y35743
X27032Y35743
X28032Y35743
X29032Y35743
X30032Y35743
X31032Y35743
X32032Y35743
X33032Y35743
X34032Y35743
X35032Y35743
X36032Y35743
X37032Y35743
X38032Y35743
X39032Y35743
X40032Y35743
X41032Y35743
X42032Y35743
X43032Y35743
X44032Y35743
X45032Y35743
X46032Y35743
X47032Y35743
X48032Y35743
X49032Y35743
X50032Y35743
X51032Y35743
X52032Y35743
X53032Y35743
X54032Y35743
X55032Y35743
X56032Y35743
X57032Y35743
X58032Y35743
X59032Y35743
X60032Y35743
X61032Y35743
X62032Y35743
X63032Y35743
X64032Y35743
X65032Y35743
X65032Y34743
X64032Y34743
X63032Y34743
X62032Y34743
X61032Y34743
X60032Y34743
X59032Y34743
X58032Y34743
X57032Y34743
X56032Y34743
X55032Y34743
X54032Y34743
X53032Y34743
X52032Y34743
X51032Y34743
X50032Y34743
X49032Y34743
X48032Y34743
X47032Y34743
X46032Y34743
X45032Y34743
X44032Y34743
X43032Y34743
X42032Y34743
X41032Y34743
X40032Y34743
X39032Y34743
X38032Y34743
X37032Y34743
X36032Y34743
X35032Y34743
X34032Y34743
X33032Y34743
X32032Y34743
X31032Y34743
X30032Y34743
X29032Y34743
X28032Y34743
X27032Y34743
X26032Y34743
X25032Y34743
X24032Y34743
X23032Y34743
X22032Y34743
X21032Y34743
X20032Y34743
X19032Y34743
X18032Y34743
X17032Y34743
X16032Y34743
X15032Y34743
X14032Y34743
X13032Y34743
X12032Y34743
X11032Y34743
X10032Y34743
X9032Y34743
X8032Y34743
X7032Y34743
X6032Y34743
X5032Y34743
X4032Y34743
X3032Y34743
X2032Y34743
X2032Y33743
X3032Y33743
X3032Y32743
X2032Y32743
X2032Y31743
X3032Y31743
X3032Y30743
X2032Y30743
X2032Y29743
X3032Y29743
X4032Y29743
X5032Y29743
X5032Y30743
X4032Y30743
X4032Y31743
X5032Y31743
X6032Y31743
X7032Y31743
X8032Y31743
X8032Y30743
X7032Y30743
X6032Y30743
X6032Y29743
X7032Y29743
X8032Y29743
X9032Y29743
X10032Y29743
X10032Y30743
X9032Y30743
X9032Y31743
X10032Y31743
X11032Y31743
X12032Y31743
X12032Y30743
X11032Y30743
X11032Y29743
X12032Y29743
X13032Y29743
X14032Y29743
X14032Y30743
X13032Y30743
X13032Y31743
X14032Y31743
X15032Y31743
X16032Y31743
X16032Y30743
X15032Y30743
X15032Y29743
X16032Y29743
X17032Y29743
X18032Y29743
X18032Y30743
X17032Y30743
X17032Y31743
X18032Y31743
X19032Y31743
X20032Y31743
X20032Y30743
X19032Y30743
X19032Y29743
X20032Y29743
X21032Y29743
X22032Y29743
X22032Y30743
X21032Y30743
X21032Y31743
X22032Y31743
X23032Y31743
X24032Y31743
X24032Y30743
X23032Y30743
X23032Y29743
X24032Y29743
X25032Y29743
X26032Y29743
X26032Y30743
X25032Y30743
X25032Y31743
X26032Y31743
X27032Y31743
X28032Y31743
X28032Y30743
X27032Y30743
X27032Y29743
X28032Y29743
X29032Y29743
X30032Y29743
X30032Y30743
X29032Y30743
X29032Y31743
X30032Y31743
X31032Y31743
X32032Y31743
X32032Y30743
X31032Y30743
X31032Y29743
X32032Y29743
X33032Y29743
X34032Y29743
X34032Y30743
X33032Y30743
X33032Y31743
X34032Y31743
X35032Y31743
X36032Y31743
X36032Y30743
X35032Y30743
X35032Y29743
X36032Y29743
X37032Y29743
X38032Y29743
X38032Y30743
X37032Y30743
X37032Y31743
X38032Y31743
X39032Y31743
X40032Y31743
X40032Y30743
X39032Y30743
X39032Y29743
X40032Y29743
X41032Y29743
X42032Y29743
X42032Y30743
X41032Y30743
X41032Y31743
X42032Y31743
X43032Y31743
X44032Y31743
X44032Y30743
X43032Y30743
X43032Y29743
X44032Y29743
X45032Y29743
X46032Y29743
X46032Y30743
X45032Y30743
X45032Y31743
X46032Y31743
X47032Y31743
X48032Y31743
X48032Y30743
X47032Y30743
X47032Y29743
X48032Y29743
X49032Y29743
X50032Y29743
X50032Y30743
X49032Y30743
X49032Y31743
X50032Y31743
X51032Y31743
X52032Y31743
X52032Y30743
X51032Y30743
X51032Y29743
X52032Y29743
X53032Y29743
X54032Y29743
X54032Y30743
X53032Y30743
X53032Y31743
X54032Y31743
X55032Y31743
X56032Y31743
X56032Y30743
X55032Y30743
X55032Y29743
X56032Y29743
X57032Y29743
X58032Y29743
X58032Y30743
X57032Y30743
X57032Y31743
X58032Y31743
X59032Y31743
X60032Y31743
X60032Y30743
X59032Y30743
X59032Y29743
X60032Y29743
X61032Y29743
X62032Y29743
X62032Y30743
X61032Y30743
X61032Y31743
X62032Y31743
X63032Y31743
X64032Y31743
X64032Y30743
X63032Y30743
X63032Y29743
X64032Y29743
X65032Y29743
X65032Y30743
X65032Y31743
X65032Y32743
X64032Y32743
X63032Y32743
X62032Y32743
X61032Y32743
X60032Y32743
X59032Y32743
X58032Y32743
X57032Y32743
X56032Y32743
X55032Y32743
X54032Y32743
X53032Y32743
X52032Y32743
X51032Y32743
X50032Y32743
X49032Y32743
X48032Y32743
X47032Y32743
X46032Y32743
X45032Y32743
X44032Y32743
X43032Y32743
X42032Y32743
X41032Y32743
X40032Y32743
X39032Y32743
X38032Y32743
X37032Y32743
X36032Y32743
X35032Y32743
X34032Y32743
X33032Y32743
X32032Y32743
X31032Y32743
X30032Y32743
X29032Y32743
X28032Y32743
X27032Y32743
X26032Y32743
X25032Y32743
X24032Y32743
X23032Y32743
X22032Y32743
X21032Y32743
X20032Y32743
X19032Y32743
X18032Y32743
X17032Y32743
X16032Y32743
X15032Y32743
X14032Y32743
X13032Y32743
X12032Y32743
X11032Y32743
X10032Y32743
X9032Y32743
X8032Y32743
X7032Y32743
X6032Y32743
X5032Y32743
X4032Y32743
X4032Y33743
X5032Y33743
X6032Y33743
X7032Y33743
X8032Y33743
X9032Y33743
X10032Y33743
X11032Y33743
X12032Y33743
X13032Y33743
X14032Y33743
X15032Y33743
X16032Y33743
X17032Y33743
X18032Y33743
X19032Y33743
X20032Y33743
X21032Y33743
X22032Y33743
X23032Y33743
X24032Y33743
X25032Y33743
X26032Y33743
X27032Y33743
X28032Y33743
X29032Y33743
X30032Y33743
X31032Y33743
X32032Y33743
X33032Y33743
X34032Y33743
X35032Y33743
X36032Y33743
X37032Y33743
X38032Y33743
X39032Y33743
X40032Y33743
X41032Y33743
X42032Y33743
X43032Y33743
X44032Y33743
X45032Y33743
X46032Y33743
X47032Y33743
X48032Y33743
X49032Y33743
X50032Y33743
X51032Y33743
X52032Y33743
X53032Y33743
X54032Y33743
X55032Y33743
X56032Y33743
X57032Y33743
X58032Y33743
X59032Y33743
X60032Y33743
X61032Y33743
X62032Y33743
X63032Y33743
X64032Y33743
X65032Y33743
X65032Y28743
X64032Y28743
X63032Y28743
X62032Y28743
X61032Y28743
X60032Y28743
X59032Y28743
X58032Y28743
X57032Y28743
X56032Y28743
X55032Y28743
X54032Y28743
X53032Y28743
X52032Y28743
X51032Y28743
X50032Y28743
X49032Y28743
X48032Y28743
X47032Y28743
X46032Y28743
X45032Y28743
X44032Y28743
X43032Y28743
X42032Y28743
X41032Y28743
X40032Y28743
X39032Y28743
X38032Y28743
X37032Y28743
X36032Y28743
X35032Y28743
X34032Y28743
X33032Y28743
X32032Y28743
X31032Y28743
X30032Y28743
X29032Y28743
X28032Y28743
X27032Y28743
X26032Y28743
X25032Y28743
X24032Y28743
X23032Y28743
X22032Y28743
X21032Y28743
X20032Y28743
X19032Y28743
X18032Y28743
X17032Y28743
X16032Y28743
X15032Y28743
X14032Y28743
X13032Y28743
X12032Y28743
X11032Y28743
X10032Y28743
X9032Y28743
X8032Y28743
X7032Y28743
X6032Y28743
X5032Y28743
X4032Y28743
X3032Y28743
X2032Y28743
X2032Y27743
X3032Y27743
X4032Y27743
X5032Y27743
X6032Y27743
X7032Y27743
X8032Y27743
X9032Y27743
X10032Y27743
X11032Y27743
X12032Y27743
X13032Y27743
X14032Y27743
X15032Y27743
X16032Y27743
X17032Y27743
X18032Y27743
X19032Y27743
X20032Y27743
X21032Y27743
X22032Y27743
X23032Y27743
X24032Y27743
X25032Y27743
X26032Y27743
X27032Y27743
X28032Y27743
X29032Y27743
X30032Y27743
X31032Y27743
X32032Y27743
X33032Y27743
X34032Y27743
X35032Y27743
X36032Y27743
X37032Y27743
X38032Y27743
X39032Y27743
X40032Y27743
X41032Y27743
X42032Y27743
X43032Y27743
X44032Y27743
X45032Y27743
X46032Y27743
X47032Y27743
X48032Y27743
X49032Y27743
X50032Y27743
X51032Y27743
X52032Y27743
X53032Y27743
X54032Y27743
X55032Y27743
X56032Y27743
X57032Y27743
X58032Y27743
X59032Y27743
X60032Y27743
X61032Y27743
X62032Y27743
X63032Y27743
X64032Y27743
X65032Y27743
X65032Y26743
X64032Y26743
X63032Y26743
X62032Y26743
X61032Y26743
X60032Y26743
X59032Y26743
X58032Y26743
X57032Y26743
X56032Y26743
X55032Y26743
X54032Y26743
X53032Y26743
X52032Y26743
X51032Y26743
X50032Y26743
X49032Y26743
X48032Y26743
X47032Y26743
X46032Y26743
X45032Y26743
X44032Y26743
X43032Y26743
X42032Y26743
X41032Y26743
X40032Y26743
X39032Y26743
X38032Y26743
X37032Y26743
X36032Y26743
X35032Y26743
X34032Y26743
X33032Y26743
X32032Y26743
X31032Y26743
X30032Y26743
X29032Y26743
X28032Y26743
X27032Y26743
X26032Y26743
X25032Y26743
X24032Y26743
X23032Y26743
X22032Y26743
X21032Y26743
X20032Y26743
X19032Y26743
X18032Y26743
X17032Y26743
X16032Y26743
X15032Y26743
X14032Y26743
X13032Y26743
X12032Y26743
X11032Y26743
X10032Y26743
X9032Y26743
X8032Y26743
X7032Y26743
X6032Y26743
X5032Y26743
X4032Y26743
X3032Y26743
X2032Y26743
X2032Y25743
X3032Y25743
X3032Y24743
X2032Y24743
X2032Y23743
X3032Y23743
X3032Y22743
X2032Y22743
X2032Y21743
X3032Y21743
X4032Y21743
X5032Y21743
X5032Y22743
X4032Y22743
X4032Y23743
X5032Y23743
X6032Y23743
X7032Y23743
X8032Y23743
X8032Y22743
X7032Y22743
X6032Y22743
X6032Y21743
X7032Y21743
X8032Y21743
X9032Y21743
X10032Y21743
X10032Y22743
X9032Y22743
X9032Y23743
X10032Y23743
X11032Y23743
X12032Y23743
X12032Y22743
X11032Y22743
X11032Y21743
X12032Y21743
X13032Y21743
X14032Y21743
X14032Y22743
X13032Y22743
X13032Y23743
X14032Y23743
X15032Y23743
X16032Y23743
X16032Y22743
X15032Y22743
X15032Y21743
X16032Y21743
X17032Y21743
X18032Y21743
X18032Y22743
X17032Y22743
X17032Y23743
X18032Y23743
X19032Y23743
X20032Y23743
X20032Y22743
X19032Y22743
X19032Y21743
X20032Y21743
X21032Y21743
X22032Y21743
X22032Y22743
X21032Y22743
X21032Y23743
X22032Y23743
X23032Y23743
X24032Y23743
X24032Y22743
X23032Y22743
X23032Y21743
X24032Y21743
X25032Y21743
X26032Y21743
X26032Y22743
X25032Y22743
X25032Y23743
X26032Y23743
X27032Y23743
X28032Y23743
X28032Y22743
X27032Y22743
X27032Y21743
X28032Y21743
X29032Y21743
X30032Y21743
X30032Y22743
X29032Y22743
X29032Y23743
X30032Y23743
X31032Y23743
X32032Y23743
X32032Y22743
X31032Y22743
X31032Y21743
X32032Y21743
X33032Y21743
X34032Y21743
X34032Y22743
X33032Y22743
X33032Y23743
X34032Y23743
X35032Y23743
X36032Y23743
X36032Y22743
X35032Y22743
X35032Y21743
X36032Y21743
X37032Y21743
X38032Y21743
X38032Y22743
X37032Y22743
X37032Y23743
X38032Y23743
X39032Y23743
X40032Y23743
X40032Y22743
X39032Y22743
X39032Y21743
X40032Y21743
X41032Y21743
X42032Y21743
X42032Y22743
X41032Y22743
X41032Y23743
X42032Y23743
X43032Y23743
X44032Y23743
X44032Y22743
X43032Y22743
X43032Y21743
X44032Y21743
X45032Y21743
X46032Y21743
X46032Y22743
X45032Y22743
X45032Y23743
X46032Y23743
X47032Y23743
X48032Y23743
X48032Y22743
X47032Y22743
X47032Y21743
X48032Y21743
X49032Y21743
X50032Y21743
X50032Y22743
X49032Y22743
X49032Y23743
X50032Y23743
X51032Y23743
X52032Y23743
X52032Y22743
X51032Y22743
X51032Y21743
X52032Y21743
X53032Y21743
X54032Y21743
X54032Y22743
X53032Y22743
X53032Y23743
X54032Y23743
X55032Y23743
X56032Y23743
X56032Y22743
X55032Y22743
X55032Y21743
X56032Y21743
X57032Y21743
X58032Y21743
X58032Y22743
X57032Y22743
X57032Y23743
X58032Y23743
X59032Y23743
X60032Y23743
X60032Y22743
X59032Y22743
X59032Y21743
X60032Y21743
X61032Y21743
X62032Y21743
X62032Y22743
X61032Y22743
X61032Y23743
X62032Y23743
X63032Y23743
X64032Y23743
X64032Y22743
X63032Y22743
X63032Y21743
X64032Y21743
X65032Y21743
X65032Y22743
X65032Y23743
X65032Y24743
X64032Y24743
X63032Y24743
X62032Y24743
X61032Y24743
X60032Y24743
X59032Y24743
X58032Y24743
X57032Y24743
X56032Y24743
X55032Y24743
X54032Y24743
X53032Y24743
X52032Y24743
X51032Y24743
X50032Y24743
X49032Y24743
X48032Y24743
X47032Y24743
X46032Y24743
X45032Y24743
X44032Y24743
X43032Y24743
X42032Y24743
X41032Y24743
X40032Y24743
X39032Y24743
X38032Y24743
X37032Y24743
X36032Y24743
X35032Y24743
X34032Y24743
X33032Y24743
X32032Y24743
X31032Y24743
X30032Y24743
X29032Y24743
X28032Y24743
X27032Y24743
X26032Y24743
X25032Y24743
X24032Y24743
X23032Y24743
X22032Y24743
X21032Y24743
X20032Y24743
X19032Y24743
X18032Y24743
X17032Y24743
X16032Y24743
X15032Y24743
X14032Y24743
X13032Y24743
X12032Y24743
X11032Y24743
X10032Y24743
X9032Y24743
X8032Y24743
X7032Y24743
X6032Y24743
X5032Y24743
X4032Y24743
X4032Y25743
X5032Y25743
X6032Y25743
X7032Y25743
X8032Y25743
X9032Y25743
X10032Y25743
X11032Y25743
X12032Y25743
X13032Y25743
X14032Y25743
X15032Y25743
X16032Y25743
X17032Y25743
X18032Y25743
X19032Y25743
X20032Y25743
X21032Y25743
X22032Y25743
X23032Y25743
X24032Y25743
X25032Y25743
X26032Y25743
X27032Y25743
X28032Y25743
X29032Y25743
X30032Y25743
X31032Y25743
X32032Y25743
X33032Y25743
X34032Y25743
X35032Y25743
X36032Y25743
X37032Y25743
X38032Y25743
X39032Y25743
X40032Y25743
X41032Y25743
X42032Y25743
X43032Y25743
X44032Y25743
X45032Y25743
X46032Y25743
X47032Y25743
X48032Y25743
X49032Y25743
X50032Y25743
X51032Y25743
X52032Y25743
X53032Y25743
X54032Y25743
X55032Y25743
X56032Y25743
X57032Y25743
X58032Y25743
X59032Y25743
X60032Y25743
X61032Y25743
X62032Y25743
X63032Y25743
X64032Y25743
X65032Y25743
X65032Y20743
X64032Y20743
X63032Y20743
X62032Y20743
X61032Y20743
X60032Y20743
X59032Y20743
X58032Y20743
X57032Y20743
X56032Y20743
X55032Y20743
X54032Y20743
X53032Y20743
X52032Y20743
X51032Y20743
X50032Y20743
X49032Y20743
X48032Y20743
X47032Y20743
X46032Y20743
X45032Y20743
X44032Y20743
X43032Y20743
X42032Y20743
X41032Y20743
X40032Y20743
X39032Y20743
X38032Y20743
X37032Y20743
X36032Y20743
X35032Y20743
X34032Y20743
X33032Y20743
X32032Y20743
X31032Y20743
X30032Y20743
X29032Y20743
X28032Y20743
X27032Y20743
X26032Y20743
X25032Y20743
X24032Y20743
X23032Y20743
X22032Y20743
X21032Y20743
X20032Y20743
X19032Y20743
X18032Y20743
X17032Y20743
X16032Y20743
X15032Y20743
X14032Y20743
X13032Y20743
X12032Y20743
X11032Y20743
X10032Y20743
X9032Y20743
X8032Y20743
X7032Y20743
X6032Y20743
X5032Y20743
X4032Y20743
X3032Y20743
X2032Y20743
X2032Y19743
X3032Y19743
X3032Y18743
X2032Y18743
X2032Y17743
X3032Y17743
X3032Y16743
X2032Y16743
X2032Y15743
X3032Y15743
X4032Y15743
X5032Y15743
X5032Y16743
X4032Y16743
X4032Y17743
X5032Y17743
X6032Y17743
X7032Y17743
X8032Y17743
X8032Y16743
X7032Y16743
X6032Y16743
X6032Y15743
X7032Y15743
X8032Y15743
X9032Y15743
X10032Y15743
X10032Y16743
X9032Y16743
X9032Y17743
X10032Y17743
X11032Y17743
X12032Y17743
X12032Y16743
X11032Y16743
X11032Y15743
X12032Y15743
X13032Y15743
X14032Y15743
X14032Y16743
X13032Y16743
X13032Y17743
X14032Y17743
X15032Y17743
X16032Y17743
X16032Y16743
X15032Y16743
X15032Y15743
X16032Y15743
X17032Y15743
X18032Y15743
X18032Y16743
X17032Y16743
X17032Y17743
X18032Y17743
X19032Y17743
X20032Y17743
X20032Y16743
X19032Y16743
X19032Y15743
X20032Y15743
X21032Y15743
X22032Y15743
X22032Y16743
X21032Y16743
X21032Y17743
X22032Y17743
X23032Y17743
X24032Y17743
X24032Y16743
X23032Y16743
X23032Y15743
X24032Y15743
X25032Y15743
X26032Y15743
X26032Y16743
X25032Y16743
X25032Y17743
X26032Y17743
X27032Y17743
X28032Y17743
X28032Y16743
X27032Y16743
X27032Y15743
X28032Y15743
X29032Y15743
X30032Y15743
X30032Y16743
X29032Y16743
X29032Y17743
X30032Y17743
X31032Y17743
X32032Y17743
X32032Y16743
X31032Y16743
X31032Y15743
X32032Y15743
X33032Y15743
X34032Y15743
X34032Y16743
X33032Y16743
X33032Y17743
X34032Y17743
X35032Y17743
X36032Y17743
X36032Y16743
X35032Y16743
X35032Y15743
X36032Y15743
X37032Y15743
X38032Y15743
X38032Y16743
X37032Y16743
X37032Y17743
X38032Y17743
X39032Y17743
X40032Y17743
X40032Y16743
X39032Y16743
X39032Y15743
X40032Y15743
X41032Y15743
X42032Y15743
X42032Y16743
X41032Y16743
X41032Y17743
X42032Y17743
X43032Y17743
X44032Y17743
X44032Y16743
X43032Y16743
X43032Y15743
X44032Y15743
X45032Y15743
X46032Y15743
X46032Y16743
X45032Y16743
X45032Y17743
X46032Y17743
X47032Y17743
X48032Y17743
X48032Y16743
X47032Y16743
X47032Y15743
X48032Y15743
X49032Y15743
X50032Y15743
X50032Y16743
X49032Y16743
X49032Y17743
X50032Y17743
X51032Y17743
X52032Y17743
X52032Y16743
X51032Y16743
X51032Y15743
X52032Y15743
X53032Y15743
X54032Y15743
X54032Y16743
X53032Y16743
X53032Y17743
X54032Y17743
X55032Y17743
X56032Y17743
X56032Y16743
X55032Y16743
X55032Y15743
X56032Y15743
X57032Y15743
X58032Y15743
X58032Y16743
X57032Y16743
X57032Y17743
X58032Y17743
X59032Y17743
X60032Y17743
X60032Y16743
X59032Y16743
X59032Y15743
X60032Y15743
X61032Y15743
X62032Y15743
X62032Y16743
X61032Y16743
X61032Y17743
X62032Y17743
X63032Y17743
X64032Y17743
X64032Y16743
X63032Y16743
X63032Y15743
X64032Y15743
X65032Y15743
X65032Y16743
X65032Y17743
X65032Y18743
X64032Y18743
X63032Y18743
X62032Y18743
X61032Y18743
X60032Y18743
X59032Y18743
X58032Y18743
X57032Y18743
X56032Y18743
X55032Y18743
X54032Y18743
X53032Y18743
X52032Y18743
X51032Y18743
X50032Y18743
X49032Y18743
X48032Y18743
X47032Y18743
X46032Y18743
X45032Y18743
X44032Y18743
X43032Y18743
X42032Y18743
X41032Y18743
X40032Y18743
X39032Y18743
X38032Y18743
X37032Y18743
X36032Y18743
X35032Y18743
X34032Y18743
X33032Y18743
X32032Y18743
X31032Y18743
X30032Y18743
X29032Y18743
X28032Y18743
X27032Y18743
X26032Y18743
X25032Y18743
X24032Y18743
X23032Y18743
X22032Y18743
X21032Y18743
X20032Y18743
X19032Y18743
X18032Y18743
X17032Y18743
X16032Y18743
X15032Y18743
X14032Y18743
X13032Y18743
X12032Y18743
X11032Y18743
X10032Y18743
X9032Y18743
X8032Y18743
X7032Y18743
X6032Y18743
X5032Y18743
X4032Y18743
X4032Y19743
X5032Y19743
X6032Y19743
X7032Y19743
X8032Y19743
X9032Y19743
X10032Y19743
X11032Y19743
X12032Y19743
X13032Y19743
X14032Y19743
X15032Y19743
X16032Y19743
X17032Y19743
X18032Y19743
X19032Y19743
X20032Y19743
X21032Y19743
X22032Y19743
X23032Y19743
X24032Y19743
X25032Y19743
X26032Y19743
X27032Y19743
X28032Y19743
X29032Y19743
X30032Y19743
X31032Y19743
X32032Y19743
X33032Y19743
X34032Y19743
X35032Y19743
X36032Y19743
X37032Y19743
X38032Y19743
X39032Y19743
X40032Y19743
X41032Y19743
X42032Y19743
X43032Y19743
X44032Y19743
X45032Y19743
X46032Y19743
X47032Y19743
X48032Y19743
X49032Y19743
X50032Y19743
X51032Y19743
X52032Y19743
X53032Y19743
X54032Y19743
X55032Y19743
X56032Y19743
X57032Y19743
X58032Y19743
X59032Y19743
X60032Y19743
X61032Y19743
X62032Y19743
X63032Y19743
X64032Y19743
X65032Y19743
X65032Y14743
X64032Y14743
X63032Y14743
X62032Y14743
X61032Y14743
X60032Y14743
X59032Y14743
X58032Y14743
X57032Y14743
X56032Y14743
X55032Y14743
X54032Y14743
X53032Y14743
X52032Y14743
X51032Y14743
X50032Y14743
X49032Y14743
X48032Y14743
X47032Y14743
X46032Y14743
X45032Y14743
X44032Y14743
X43032Y14743
X42032Y14743
X41032Y14743
X40032Y14743
X39032Y14743
X38032Y14743
X37032Y14743
X36032Y14743
X35032Y14743
X34032Y14743
X33032Y14743
X32032Y14743
X31032Y14743
X30032Y14743
X29032Y14743
X28032Y14743
X27032Y14743
X26032Y14743
X25032Y14743
X24032Y14743
X23032Y14743
X22032Y14743
X21032Y14743
X20032Y14743
X19032Y14743
X18032Y14743
X17032Y14743
X16032Y14743
X15032Y14743
X14032Y14743
X13032Y14743
X12032Y14743
X11032Y14743
X10032Y14743
X9032Y14743
X8032Y14743
X7032Y14743
X6032Y14743
X5032Y14743
X4032Y14743
X3032Y14743
X2032Y14743
X2032Y13743
X3032Y13743
X4032Y13743
X5032Y13743
X6032Y13743
X7032Y13743
X8032Y13743
X9032Y13743
X10032Y13743
X11032Y13743
X12032Y13743
X13032Y13743
X14032Y13743
X15032Y13743
X16032Y13743
X17032Y13743
X18032Y13743
X19032Y13743
X20032Y13743
X21032Y13743
X22032Y13743
X23032Y13743
X24032Y13743
X25032Y13743
X26032Y13743
X27032Y13743
X28032Y13743
X29032Y13743
X30032Y13743
X31032Y13743
X32032Y13743
X33032Y13743
X34032Y13743
X35032Y13743
X36032Y13743
X37032Y13743
X38032Y13743
X39032Y13743
X40032Y13743
X41032Y13743
X42032Y13743
X43032Y13743
X44032Y13743
X45032Y13743
X46032Y13743
X47032Y13743
X48032Y13743
X49032Y13743
X50032Y13743
X51032Y13743
X52032Y13743
X53032Y13743
X54032Y13743
X55032Y13743
X56032Y13743
X57032Y13743
X58032Y13743
X59032Y13743
X60032Y13743
X61032Y13743
X62032Y13743
X63032Y13743
X64032Y13743
X65032Y13743
X65032Y12743
X64032Y12743
X63032Y12743
X62032Y12743
X61032Y12743
X60032Y12743
X59032Y12743
X58032Y12743
X57032Y12743
X56032Y12743
X55032Y12743
X54032Y12743
X53032Y12743
X52032Y12743
X51032Y12743
X50032Y12743
X49032Y12743
X48032Y12743
X47032Y12743
X46032Y12743
X45032Y12743
X44032Y12743
X43032Y12743
X42032Y12743
X41032Y12743
X40032Y12743
X39032Y12743
X38032Y12743
X37032Y12743
X36032Y12743
X35032Y12743
X34032Y12743
X33032Y12743
X32032Y12743
X31032Y12743
X30032Y12743
X29032Y12743
X28032Y12743
X27032Y12743
X26032Y12743
X25032Y12743
X24032Y12743
X23032Y12743
X22032Y12743
X21032Y12743
X20032Y12743
X19032Y12743
X18032Y12743
X17032Y12743
X16032Y12743
X15032Y12743
X14032Y12743
X13032Y12743
X12032Y12743
X11032Y12743
X10032Y12743
X9032Y12743
X8032Y12743
X7032Y12743
X6032Y12743
X5032Y12743
X4032Y12743
X3032Y12743
X2032Y12743
X2032Y11743
X3032Y11743
X3032Y10743
X2032Y10743
X2032Y9743
X3032Y9743
X3032Y8743
X2032Y8743
X2032Y7743
X3032Y7743
X4032Y7743
X5032Y7743
X5032Y8743
X4032Y8743
X4032Y9743
X5032Y9743
X6032Y9743
X7032Y9743
X8032Y9743
X8032Y8743
X7032Y8743
X6032Y8743
X6032Y7743
X7032Y7743
X8032Y7743
X9032Y7743
X10032Y7743
X10032Y8743
X9032Y8743
X9032Y9743
X10032Y9743
X11032Y9743
X12032Y9743
X12032Y8743
X11032Y8743
X11032Y7743
X12032Y7743
X13032Y7743
X14032Y7743
X14032Y8743
X13032Y8743
X13032Y9743
X14032Y9743
X15032Y9743
X16032Y9743
X16032Y8743
X15032Y8743
X15032Y7743
X16032Y7743
X17032Y7743
X18032Y7743
X18032Y8743
X17032Y8743
X17032Y9743
X18032Y9743
X19032Y9743
X20032Y9743
X20032Y8743
X19032Y8743
X19032Y7743
X20032Y7743
X21032Y7743
X22032Y7743
X22032Y8743
X21032Y8743
X21032Y9743
X22032Y9743
X23032Y9743
X24032Y9743
X24032Y8743
X23032Y8743
X23032Y7743
X24032Y7743
X25032Y7743
X26032Y7743
X26032Y8743
X25032Y8743
X25032Y9743
X26032Y9743
X27032Y9743
X28032Y9743
X28032Y8743
X27032Y8743
X27032Y7743
X28032Y7743
X29032Y7743
X30032Y7743
X30032Y8743
X29032Y8743
X29032Y9743
X30032Y9743
X31032Y9743
X32032Y9743
X32032Y8743
X31032Y8743
X31032Y7743
X32032Y7743
X33032Y7743
X34032Y7743
X34032Y8743
X33032Y8743
X33032Y9743
X34032Y9743
X35032Y9743
X36032Y9743
X36032Y8743
X35032Y8743
X35032Y7743
X36032Y7743
X37032Y7743
X38032Y7743
X38032Y8743
X37032Y8743
X37032Y9743
X38032Y9743
X39032Y9743
X40032Y9743
X40032Y8743
X39032Y8743
X39032Y7743
X40032Y7743
X41032Y7743
X42032Y7743
X42032Y8743
X41032Y8743
X41032Y9743
X42032Y9743
X43032Y9743
X44032Y9743
X44032Y8743
X43032Y8743
X43032Y7743
X44032Y7743
X45032Y7743
X46032Y7743
X46032Y8743
X45032Y8743
X45032Y9743
X46032Y9743
X47032Y9743
X48032Y9743
X48032Y8743
X47032Y8743
X47032Y7743
X48032Y7743
X49032Y7743
X50032Y7743
X50032Y8743
X49032Y8743
X49032Y9743
X50032Y9743
X51032Y9743
X52032Y9743
X52032Y8743
X51032Y8743
X51032Y7743
X52032Y7743
X53032Y7743
X54032Y7743
X54032Y8743
X53032Y8743
X53032Y9743
X54032Y9743
X55032Y9743
X56032Y9743
X56032Y8743
X55032Y8743
X55032Y7743
X56032Y7743
X57032Y7743
X58032Y7743
X58032Y8743
X57032Y8743
X57032Y9743
X58032Y9743
X59032Y9743
X60032Y9743
X60032Y8743
X59032Y8743
X59032Y7743
X60032Y7743
X61032Y7743
X62032Y7743
X62032Y8743
X61032Y8743
X61032Y9743
X62032Y9743
X63032Y9743
X64032Y9743
X64032Y8743
X63032Y8743
X63032Y7743
X64032Y7743
X65032Y7743
X65032Y8743
X65032Y9743
X65032Y10743
X64032Y10743
X63032Y10743
X62032Y10743
X61032Y10743
X60032Y10743
X59032Y10743
X58032Y10743
X57032Y10743
X56032Y10743
X55032Y10743
X54032Y10743
X53032Y10743
X52032Y10743
X51032Y10743
X50032Y10743
X49032Y10743
X48032Y10743
X47032Y10743
X46032Y10743
X45032Y10743
X44032Y10743
X43032Y10743
X42032Y10743
X41032Y10743
X40032Y10743
X39032Y10743
X38032Y10743
X37032Y10743
X36032Y10743
X35032Y10743
X34032Y10743
X33032Y10743
X32032Y10743
X31032Y10743
X30032Y10743
X29032Y10743
X28032Y10743
X27032Y10743
X26032Y10743
X25032Y10743
X24032Y10743
X23032Y10743
X22032Y10743
X21032Y10743
X20032Y10743
X19032Y10743
X18032Y10743
X17032Y10743
X16032Y10743
X15032Y10743
X14032Y10743
X13032Y10743
X12032Y10743
X11032Y10743
X10032Y10743
X9032Y10743
X8032Y10743
X7032Y10743
X6032Y10743
X5032Y10743
X4032Y10743
X4032Y11743
X5032Y11743
X6032Y11743
X7032Y11743
X8032Y11743
X9032Y11743
X10032Y11743
X11032Y11743
X12032Y11743
X13032Y11743
X14032Y11743
X15032Y11743
X16032Y11743
X17032Y11743
X18032Y11743
X19032Y11743
X20032Y11743
X21032Y11743
X22032Y11743
X23032Y11743
X24032Y11743
X25032Y11743
X26032Y11743
X27032Y11743
X28032Y11743
X29032Y11743
X30032Y11743
X31032Y11743
X32032Y11743
X33032Y11743
X34032Y11743
X35032Y11743
X36032Y11743
X37032Y11743
X38032Y11743
X39032Y11743
X40032Y11743
X41032Y11743
X42032Y11743
X43032Y11743
X44032Y11743
X45032Y11743
X46032Y11743
X47032Y11743
X48032Y11743
X49032Y11743
X50032Y11743
X51032Y11743
X52032Y11743
X53032Y11743
X54032Y11743
X55032Y11743
X56032Y11743
X57032Y11743
X58032Y11743
X59032Y11743
X60032Y11743
X61032Y11743
X62032Y11743
X63032Y11743
X64032Y11743
X65032Y11743
X65032Y6743
X64032Y6743
X63032Y6743
X62032Y6743
X61032Y6743
X60032Y6743
X59032Y6743
X58032Y6743
X57032Y6743
X56032Y6743
X55032Y6743
X54032Y6743
X53032Y6743
X52032Y6743
X51032Y6743
X50032Y6743
X49032Y6743
X48032Y6743
X47032Y6743
X46032Y6743
X45032Y6743
X44032Y6743
X43032Y6743
X42032Y6743
X41032Y6743
X40032Y6743
X39032Y6743
X38032Y6743
X37032Y6743
X36032Y6743
X35032Y6743
X34032Y6743
X33032Y6743
X32032Y6743
X31032Y6743
X30032Y6743
X29032Y6743
X28032Y6743
X27032Y6743
X26032Y6743
X25032Y6743
X24032Y6743
X23032Y6743
X22032Y6743
X21032Y6743
X20032Y6743
X19032Y6743
X18032Y6743
X17032Y6743
X16032Y6743
X15032Y6743
X14032Y6743
X13032Y6743
X12032Y6743
X11032Y6743
X10032Y6743
X9032Y6743
X8032Y6743
X7032Y6743
X6032Y6743
X5032Y6743
X4032Y6743
X3032Y6743
X2032Y6743
X2032Y35743
X3032Y35743
X4032Y35743
X5032Y35743
X6032Y35743
X7032Y35743
X8032Y35743
X9032Y35743
X10032Y35743
X11032Y35743
X12032Y35743
X13032Y35743
X14032Y35743
X15032Y35743
X16032Y35743
T03
X1643Y869
X1643Y41617
X65422Y41617
X65422Y869
T04
X65422Y4117
X65422Y38369
X1643Y38369
X1643Y4117
M30
