G75*
%MOIN*%
%OFA0B0*%
%FSLAX25Y25*%
%IPPOS*%
%LPD*%
%AMOC8*
5,1,8,0,0,1.08239X$1,22.5*
%
%ADD10R,0.08000X0.08000*%
%ADD11C,0.08000*%
%ADD12R,0.02962X0.05718*%
%ADD13R,0.01781X0.06309*%
%ADD14C,0.04734*%
%ADD15C,0.03356*%
%ADD16R,0.03159X0.05324*%
%ADD17R,0.09065X0.04340*%
%ADD18R,0.09065X0.13395*%
%ADD19R,0.03041X0.03041*%
%ADD20R,0.08080X0.05324*%
%ADD21R,0.06112X0.04143*%
%ADD22R,0.04143X0.06112*%
%ADD23R,0.03750X0.03750*%
%ADD24R,0.02569X0.02175*%
%ADD25R,0.02569X0.02962*%
%ADD26C,0.04537*%
%ADD27C,0.00912*%
%ADD28R,0.04143X0.04143*%
%ADD29R,0.05324X0.05324*%
%ADD30C,0.00122*%
%ADD31R,0.11624X0.11624*%
%ADD32R,0.06899X0.04537*%
D10*
X0009300Y0200050D03*
D11*
X0009300Y0010050D03*
X0009300Y0020050D03*
X0009300Y0030050D03*
X0009300Y0040050D03*
X0009300Y0050050D03*
X0009300Y0060050D03*
X0009300Y0070050D03*
X0009300Y0080050D03*
X0009300Y0090050D03*
X0009300Y0100050D03*
X0009300Y0110050D03*
X0009300Y0120050D03*
X0009300Y0130050D03*
X0009300Y0140050D03*
X0009300Y0150050D03*
X0009300Y0160050D03*
X0009300Y0170050D03*
X0009300Y0180050D03*
X0009300Y0190050D03*
X0099300Y0190050D03*
X0099300Y0180050D03*
X0099300Y0170050D03*
X0099300Y0160050D03*
X0099300Y0150050D03*
X0099300Y0140050D03*
X0099300Y0130050D03*
X0099300Y0120050D03*
X0099300Y0110050D03*
X0099300Y0100050D03*
X0099300Y0090050D03*
X0099300Y0080050D03*
X0099300Y0070050D03*
X0099300Y0060050D03*
X0099300Y0050050D03*
X0099300Y0040050D03*
X0099300Y0030050D03*
X0099300Y0020050D03*
X0099300Y0010050D03*
X0099300Y0200050D03*
D12*
X0067095Y0034066D03*
X0063946Y0034066D03*
X0044654Y0034066D03*
X0041505Y0034066D03*
D13*
X0047410Y0033770D03*
X0049379Y0033770D03*
X0051347Y0033770D03*
X0053316Y0033770D03*
X0055284Y0033770D03*
X0057253Y0033770D03*
X0059221Y0033770D03*
X0061190Y0033770D03*
D14*
X0071308Y0032235D02*
X0071308Y0028101D01*
X0071308Y0015778D02*
X0071308Y0011644D01*
X0037292Y0011644D02*
X0037292Y0015778D01*
X0037292Y0028101D02*
X0037292Y0032235D01*
D15*
X0042922Y0028081D03*
X0065678Y0028081D03*
D16*
X0078818Y0024765D03*
X0087282Y0024765D03*
X0087282Y0007835D03*
X0078818Y0007835D03*
X0029782Y0007835D03*
X0021318Y0007835D03*
X0021318Y0024765D03*
X0029782Y0024765D03*
D17*
X0042883Y0079745D03*
X0042883Y0088800D03*
X0042883Y0097855D03*
D18*
X0065717Y0088800D03*
D19*
X0073050Y0087028D03*
X0073050Y0090572D03*
X0078050Y0086822D03*
X0078050Y0083278D03*
X0085550Y0083278D03*
X0085550Y0086822D03*
X0076072Y0067550D03*
X0076072Y0062550D03*
X0076072Y0057550D03*
X0076072Y0053175D03*
X0072528Y0053175D03*
X0072528Y0057550D03*
X0072528Y0062550D03*
X0072528Y0067550D03*
X0081800Y0060572D03*
X0081800Y0057028D03*
X0086800Y0057028D03*
X0086800Y0060572D03*
X0081800Y0048072D03*
X0081800Y0044528D03*
X0079300Y0034322D03*
X0079300Y0030778D03*
X0086800Y0030778D03*
X0086800Y0034322D03*
X0071800Y0044528D03*
X0071800Y0048072D03*
X0066800Y0048072D03*
X0066800Y0044528D03*
X0061800Y0044528D03*
X0061800Y0048072D03*
X0056800Y0048072D03*
X0056800Y0044528D03*
X0051800Y0044528D03*
X0051800Y0048072D03*
X0046800Y0048072D03*
X0046800Y0044528D03*
X0041800Y0044528D03*
X0041800Y0048072D03*
X0036800Y0048072D03*
X0036800Y0044528D03*
X0029300Y0034322D03*
X0029300Y0030778D03*
X0021800Y0030778D03*
X0021800Y0034322D03*
X0019300Y0054528D03*
X0019300Y0058072D03*
X0025028Y0095050D03*
X0028572Y0095050D03*
X0039300Y0075572D03*
X0039300Y0072028D03*
D20*
X0028050Y0058711D03*
X0028050Y0041389D03*
D21*
X0033050Y0067757D03*
X0033050Y0074843D03*
D22*
X0030343Y0088800D03*
X0023257Y0088800D03*
D23*
X0019300Y0049253D03*
X0019300Y0043347D03*
X0086800Y0043347D03*
X0086800Y0049253D03*
D24*
X0076800Y0047875D03*
X0076800Y0044725D03*
D25*
X0081800Y0071113D03*
X0078060Y0078987D03*
X0078060Y0091113D03*
X0081800Y0098987D03*
X0085540Y0091113D03*
X0085540Y0078987D03*
D26*
X0065550Y0013800D03*
X0043050Y0013800D03*
X0016644Y0200050D03*
D27*
X0017054Y0175394D02*
X0022648Y0175394D01*
X0017054Y0175394D02*
X0017054Y0178624D01*
X0022648Y0178624D01*
X0022648Y0175394D01*
X0022648Y0176305D02*
X0017054Y0176305D01*
X0017054Y0177216D02*
X0022648Y0177216D01*
X0022648Y0178127D02*
X0017054Y0178127D01*
X0017054Y0170394D02*
X0022648Y0170394D01*
X0017054Y0170394D02*
X0017054Y0173624D01*
X0022648Y0173624D01*
X0022648Y0170394D01*
X0022648Y0171305D02*
X0017054Y0171305D01*
X0017054Y0172216D02*
X0022648Y0172216D01*
X0022648Y0173127D02*
X0017054Y0173127D01*
X0017054Y0165394D02*
X0022648Y0165394D01*
X0017054Y0165394D02*
X0017054Y0168624D01*
X0022648Y0168624D01*
X0022648Y0165394D01*
X0022648Y0166305D02*
X0017054Y0166305D01*
X0017054Y0167216D02*
X0022648Y0167216D01*
X0022648Y0168127D02*
X0017054Y0168127D01*
X0017054Y0160394D02*
X0022648Y0160394D01*
X0017054Y0160394D02*
X0017054Y0163624D01*
X0022648Y0163624D01*
X0022648Y0160394D01*
X0022648Y0161305D02*
X0017054Y0161305D01*
X0017054Y0162216D02*
X0022648Y0162216D01*
X0022648Y0163127D02*
X0017054Y0163127D01*
X0017054Y0155394D02*
X0022648Y0155394D01*
X0017054Y0155394D02*
X0017054Y0158624D01*
X0022648Y0158624D01*
X0022648Y0155394D01*
X0022648Y0156305D02*
X0017054Y0156305D01*
X0017054Y0157216D02*
X0022648Y0157216D01*
X0022648Y0158127D02*
X0017054Y0158127D01*
X0017054Y0150394D02*
X0022648Y0150394D01*
X0017054Y0150394D02*
X0017054Y0153624D01*
X0022648Y0153624D01*
X0022648Y0150394D01*
X0022648Y0151305D02*
X0017054Y0151305D01*
X0017054Y0152216D02*
X0022648Y0152216D01*
X0022648Y0153127D02*
X0017054Y0153127D01*
X0017054Y0145394D02*
X0022648Y0145394D01*
X0017054Y0145394D02*
X0017054Y0148624D01*
X0022648Y0148624D01*
X0022648Y0145394D01*
X0022648Y0146305D02*
X0017054Y0146305D01*
X0017054Y0147216D02*
X0022648Y0147216D01*
X0022648Y0148127D02*
X0017054Y0148127D01*
X0017054Y0140394D02*
X0022648Y0140394D01*
X0017054Y0140394D02*
X0017054Y0143624D01*
X0022648Y0143624D01*
X0022648Y0140394D01*
X0022648Y0141305D02*
X0017054Y0141305D01*
X0017054Y0142216D02*
X0022648Y0142216D01*
X0022648Y0143127D02*
X0017054Y0143127D01*
X0017054Y0135394D02*
X0022648Y0135394D01*
X0017054Y0135394D02*
X0017054Y0138624D01*
X0022648Y0138624D01*
X0022648Y0135394D01*
X0022648Y0136305D02*
X0017054Y0136305D01*
X0017054Y0137216D02*
X0022648Y0137216D01*
X0022648Y0138127D02*
X0017054Y0138127D01*
X0017054Y0130394D02*
X0022648Y0130394D01*
X0017054Y0130394D02*
X0017054Y0133624D01*
X0022648Y0133624D01*
X0022648Y0130394D01*
X0022648Y0131305D02*
X0017054Y0131305D01*
X0017054Y0132216D02*
X0022648Y0132216D01*
X0022648Y0133127D02*
X0017054Y0133127D01*
X0017054Y0125394D02*
X0022648Y0125394D01*
X0017054Y0125394D02*
X0017054Y0128624D01*
X0022648Y0128624D01*
X0022648Y0125394D01*
X0022648Y0126305D02*
X0017054Y0126305D01*
X0017054Y0127216D02*
X0022648Y0127216D01*
X0022648Y0128127D02*
X0017054Y0128127D01*
X0017054Y0120394D02*
X0022648Y0120394D01*
X0017054Y0120394D02*
X0017054Y0123624D01*
X0022648Y0123624D01*
X0022648Y0120394D01*
X0022648Y0121305D02*
X0017054Y0121305D01*
X0017054Y0122216D02*
X0022648Y0122216D01*
X0022648Y0123127D02*
X0017054Y0123127D01*
X0017054Y0115394D02*
X0022648Y0115394D01*
X0017054Y0115394D02*
X0017054Y0118624D01*
X0022648Y0118624D01*
X0022648Y0115394D01*
X0022648Y0116305D02*
X0017054Y0116305D01*
X0017054Y0117216D02*
X0022648Y0117216D01*
X0022648Y0118127D02*
X0017054Y0118127D01*
X0017054Y0110394D02*
X0022648Y0110394D01*
X0017054Y0110394D02*
X0017054Y0113624D01*
X0022648Y0113624D01*
X0022648Y0110394D01*
X0022648Y0111305D02*
X0017054Y0111305D01*
X0017054Y0112216D02*
X0022648Y0112216D01*
X0022648Y0113127D02*
X0017054Y0113127D01*
X0028415Y0109884D02*
X0028415Y0104290D01*
X0025185Y0104290D01*
X0025185Y0109884D01*
X0028415Y0109884D01*
X0028415Y0105201D02*
X0025185Y0105201D01*
X0025185Y0106112D02*
X0028415Y0106112D01*
X0028415Y0107023D02*
X0025185Y0107023D01*
X0025185Y0107934D02*
X0028415Y0107934D01*
X0028415Y0108845D02*
X0025185Y0108845D01*
X0025185Y0109756D02*
X0028415Y0109756D01*
X0033415Y0109884D02*
X0033415Y0104290D01*
X0030185Y0104290D01*
X0030185Y0109884D01*
X0033415Y0109884D01*
X0033415Y0105201D02*
X0030185Y0105201D01*
X0030185Y0106112D02*
X0033415Y0106112D01*
X0033415Y0107023D02*
X0030185Y0107023D01*
X0030185Y0107934D02*
X0033415Y0107934D01*
X0033415Y0108845D02*
X0030185Y0108845D01*
X0030185Y0109756D02*
X0033415Y0109756D01*
X0038415Y0109884D02*
X0038415Y0104290D01*
X0035185Y0104290D01*
X0035185Y0109884D01*
X0038415Y0109884D01*
X0038415Y0105201D02*
X0035185Y0105201D01*
X0035185Y0106112D02*
X0038415Y0106112D01*
X0038415Y0107023D02*
X0035185Y0107023D01*
X0035185Y0107934D02*
X0038415Y0107934D01*
X0038415Y0108845D02*
X0035185Y0108845D01*
X0035185Y0109756D02*
X0038415Y0109756D01*
X0043415Y0109884D02*
X0043415Y0104290D01*
X0040185Y0104290D01*
X0040185Y0109884D01*
X0043415Y0109884D01*
X0043415Y0105201D02*
X0040185Y0105201D01*
X0040185Y0106112D02*
X0043415Y0106112D01*
X0043415Y0107023D02*
X0040185Y0107023D01*
X0040185Y0107934D02*
X0043415Y0107934D01*
X0043415Y0108845D02*
X0040185Y0108845D01*
X0040185Y0109756D02*
X0043415Y0109756D01*
X0048415Y0109884D02*
X0048415Y0104290D01*
X0045185Y0104290D01*
X0045185Y0109884D01*
X0048415Y0109884D01*
X0048415Y0105201D02*
X0045185Y0105201D01*
X0045185Y0106112D02*
X0048415Y0106112D01*
X0048415Y0107023D02*
X0045185Y0107023D01*
X0045185Y0107934D02*
X0048415Y0107934D01*
X0048415Y0108845D02*
X0045185Y0108845D01*
X0045185Y0109756D02*
X0048415Y0109756D01*
X0053415Y0109884D02*
X0053415Y0104290D01*
X0050185Y0104290D01*
X0050185Y0109884D01*
X0053415Y0109884D01*
X0053415Y0105201D02*
X0050185Y0105201D01*
X0050185Y0106112D02*
X0053415Y0106112D01*
X0053415Y0107023D02*
X0050185Y0107023D01*
X0050185Y0107934D02*
X0053415Y0107934D01*
X0053415Y0108845D02*
X0050185Y0108845D01*
X0050185Y0109756D02*
X0053415Y0109756D01*
X0058415Y0109884D02*
X0058415Y0104290D01*
X0055185Y0104290D01*
X0055185Y0109884D01*
X0058415Y0109884D01*
X0058415Y0105201D02*
X0055185Y0105201D01*
X0055185Y0106112D02*
X0058415Y0106112D01*
X0058415Y0107023D02*
X0055185Y0107023D01*
X0055185Y0107934D02*
X0058415Y0107934D01*
X0058415Y0108845D02*
X0055185Y0108845D01*
X0055185Y0109756D02*
X0058415Y0109756D01*
X0063415Y0109884D02*
X0063415Y0104290D01*
X0060185Y0104290D01*
X0060185Y0109884D01*
X0063415Y0109884D01*
X0063415Y0105201D02*
X0060185Y0105201D01*
X0060185Y0106112D02*
X0063415Y0106112D01*
X0063415Y0107023D02*
X0060185Y0107023D01*
X0060185Y0107934D02*
X0063415Y0107934D01*
X0063415Y0108845D02*
X0060185Y0108845D01*
X0060185Y0109756D02*
X0063415Y0109756D01*
X0068415Y0109884D02*
X0068415Y0104290D01*
X0065185Y0104290D01*
X0065185Y0109884D01*
X0068415Y0109884D01*
X0068415Y0105201D02*
X0065185Y0105201D01*
X0065185Y0106112D02*
X0068415Y0106112D01*
X0068415Y0107023D02*
X0065185Y0107023D01*
X0065185Y0107934D02*
X0068415Y0107934D01*
X0068415Y0108845D02*
X0065185Y0108845D01*
X0065185Y0109756D02*
X0068415Y0109756D01*
X0073415Y0109884D02*
X0073415Y0104290D01*
X0070185Y0104290D01*
X0070185Y0109884D01*
X0073415Y0109884D01*
X0073415Y0105201D02*
X0070185Y0105201D01*
X0070185Y0106112D02*
X0073415Y0106112D01*
X0073415Y0107023D02*
X0070185Y0107023D01*
X0070185Y0107934D02*
X0073415Y0107934D01*
X0073415Y0108845D02*
X0070185Y0108845D01*
X0070185Y0109756D02*
X0073415Y0109756D01*
X0078415Y0109884D02*
X0078415Y0104290D01*
X0075185Y0104290D01*
X0075185Y0109884D01*
X0078415Y0109884D01*
X0078415Y0105201D02*
X0075185Y0105201D01*
X0075185Y0106112D02*
X0078415Y0106112D01*
X0078415Y0107023D02*
X0075185Y0107023D01*
X0075185Y0107934D02*
X0078415Y0107934D01*
X0078415Y0108845D02*
X0075185Y0108845D01*
X0075185Y0109756D02*
X0078415Y0109756D01*
X0083415Y0109884D02*
X0083415Y0104290D01*
X0080185Y0104290D01*
X0080185Y0109884D01*
X0083415Y0109884D01*
X0083415Y0105201D02*
X0080185Y0105201D01*
X0080185Y0106112D02*
X0083415Y0106112D01*
X0083415Y0107023D02*
X0080185Y0107023D01*
X0080185Y0107934D02*
X0083415Y0107934D01*
X0083415Y0108845D02*
X0080185Y0108845D01*
X0080185Y0109756D02*
X0083415Y0109756D01*
X0085952Y0113624D02*
X0091546Y0113624D01*
X0091546Y0110394D01*
X0085952Y0110394D01*
X0085952Y0113624D01*
X0085952Y0111305D02*
X0091546Y0111305D01*
X0091546Y0112216D02*
X0085952Y0112216D01*
X0085952Y0113127D02*
X0091546Y0113127D01*
X0091546Y0118624D02*
X0085952Y0118624D01*
X0091546Y0118624D02*
X0091546Y0115394D01*
X0085952Y0115394D01*
X0085952Y0118624D01*
X0085952Y0116305D02*
X0091546Y0116305D01*
X0091546Y0117216D02*
X0085952Y0117216D01*
X0085952Y0118127D02*
X0091546Y0118127D01*
X0091546Y0123624D02*
X0085952Y0123624D01*
X0091546Y0123624D02*
X0091546Y0120394D01*
X0085952Y0120394D01*
X0085952Y0123624D01*
X0085952Y0121305D02*
X0091546Y0121305D01*
X0091546Y0122216D02*
X0085952Y0122216D01*
X0085952Y0123127D02*
X0091546Y0123127D01*
X0091546Y0128624D02*
X0085952Y0128624D01*
X0091546Y0128624D02*
X0091546Y0125394D01*
X0085952Y0125394D01*
X0085952Y0128624D01*
X0085952Y0126305D02*
X0091546Y0126305D01*
X0091546Y0127216D02*
X0085952Y0127216D01*
X0085952Y0128127D02*
X0091546Y0128127D01*
X0091546Y0133624D02*
X0085952Y0133624D01*
X0091546Y0133624D02*
X0091546Y0130394D01*
X0085952Y0130394D01*
X0085952Y0133624D01*
X0085952Y0131305D02*
X0091546Y0131305D01*
X0091546Y0132216D02*
X0085952Y0132216D01*
X0085952Y0133127D02*
X0091546Y0133127D01*
X0091546Y0138624D02*
X0085952Y0138624D01*
X0091546Y0138624D02*
X0091546Y0135394D01*
X0085952Y0135394D01*
X0085952Y0138624D01*
X0085952Y0136305D02*
X0091546Y0136305D01*
X0091546Y0137216D02*
X0085952Y0137216D01*
X0085952Y0138127D02*
X0091546Y0138127D01*
X0091546Y0143624D02*
X0085952Y0143624D01*
X0091546Y0143624D02*
X0091546Y0140394D01*
X0085952Y0140394D01*
X0085952Y0143624D01*
X0085952Y0141305D02*
X0091546Y0141305D01*
X0091546Y0142216D02*
X0085952Y0142216D01*
X0085952Y0143127D02*
X0091546Y0143127D01*
X0091546Y0148624D02*
X0085952Y0148624D01*
X0091546Y0148624D02*
X0091546Y0145394D01*
X0085952Y0145394D01*
X0085952Y0148624D01*
X0085952Y0146305D02*
X0091546Y0146305D01*
X0091546Y0147216D02*
X0085952Y0147216D01*
X0085952Y0148127D02*
X0091546Y0148127D01*
X0091546Y0153624D02*
X0085952Y0153624D01*
X0091546Y0153624D02*
X0091546Y0150394D01*
X0085952Y0150394D01*
X0085952Y0153624D01*
X0085952Y0151305D02*
X0091546Y0151305D01*
X0091546Y0152216D02*
X0085952Y0152216D01*
X0085952Y0153127D02*
X0091546Y0153127D01*
X0091546Y0158624D02*
X0085952Y0158624D01*
X0091546Y0158624D02*
X0091546Y0155394D01*
X0085952Y0155394D01*
X0085952Y0158624D01*
X0085952Y0156305D02*
X0091546Y0156305D01*
X0091546Y0157216D02*
X0085952Y0157216D01*
X0085952Y0158127D02*
X0091546Y0158127D01*
X0091546Y0163624D02*
X0085952Y0163624D01*
X0091546Y0163624D02*
X0091546Y0160394D01*
X0085952Y0160394D01*
X0085952Y0163624D01*
X0085952Y0161305D02*
X0091546Y0161305D01*
X0091546Y0162216D02*
X0085952Y0162216D01*
X0085952Y0163127D02*
X0091546Y0163127D01*
X0091546Y0168624D02*
X0085952Y0168624D01*
X0091546Y0168624D02*
X0091546Y0165394D01*
X0085952Y0165394D01*
X0085952Y0168624D01*
X0085952Y0166305D02*
X0091546Y0166305D01*
X0091546Y0167216D02*
X0085952Y0167216D01*
X0085952Y0168127D02*
X0091546Y0168127D01*
X0091546Y0173624D02*
X0085952Y0173624D01*
X0091546Y0173624D02*
X0091546Y0170394D01*
X0085952Y0170394D01*
X0085952Y0173624D01*
X0085952Y0171305D02*
X0091546Y0171305D01*
X0091546Y0172216D02*
X0085952Y0172216D01*
X0085952Y0173127D02*
X0091546Y0173127D01*
X0091546Y0178624D02*
X0085952Y0178624D01*
X0091546Y0178624D02*
X0091546Y0175394D01*
X0085952Y0175394D01*
X0085952Y0178624D01*
X0085952Y0176305D02*
X0091546Y0176305D01*
X0091546Y0177216D02*
X0085952Y0177216D01*
X0085952Y0178127D02*
X0091546Y0178127D01*
D28*
X0053906Y0152127D03*
X0053906Y0146615D03*
X0053906Y0141103D03*
X0048394Y0141103D03*
X0048394Y0146615D03*
X0048394Y0152127D03*
X0042883Y0152127D03*
X0042883Y0146615D03*
X0042883Y0141103D03*
D29*
X0019300Y0100050D03*
X0089300Y0100050D03*
D30*
X0065858Y0069266D02*
X0061640Y0069266D01*
X0065858Y0069266D02*
X0065858Y0067646D01*
X0061640Y0067646D01*
X0061640Y0069266D01*
X0061640Y0067767D02*
X0065858Y0067767D01*
X0065858Y0067888D02*
X0061640Y0067888D01*
X0061640Y0068009D02*
X0065858Y0068009D01*
X0065858Y0068130D02*
X0061640Y0068130D01*
X0061640Y0068251D02*
X0065858Y0068251D01*
X0065858Y0068372D02*
X0061640Y0068372D01*
X0061640Y0068493D02*
X0065858Y0068493D01*
X0065858Y0068614D02*
X0061640Y0068614D01*
X0061640Y0068735D02*
X0065858Y0068735D01*
X0065858Y0068856D02*
X0061640Y0068856D01*
X0061640Y0068977D02*
X0065858Y0068977D01*
X0065858Y0069098D02*
X0061640Y0069098D01*
X0061640Y0069219D02*
X0065858Y0069219D01*
X0065858Y0067297D02*
X0061640Y0067297D01*
X0065858Y0067297D02*
X0065858Y0065677D01*
X0061640Y0065677D01*
X0061640Y0067297D01*
X0061640Y0065798D02*
X0065858Y0065798D01*
X0065858Y0065919D02*
X0061640Y0065919D01*
X0061640Y0066040D02*
X0065858Y0066040D01*
X0065858Y0066161D02*
X0061640Y0066161D01*
X0061640Y0066282D02*
X0065858Y0066282D01*
X0065858Y0066403D02*
X0061640Y0066403D01*
X0061640Y0066524D02*
X0065858Y0066524D01*
X0065858Y0066645D02*
X0061640Y0066645D01*
X0061640Y0066766D02*
X0065858Y0066766D01*
X0065858Y0066887D02*
X0061640Y0066887D01*
X0061640Y0067008D02*
X0065858Y0067008D01*
X0065858Y0067129D02*
X0061640Y0067129D01*
X0061640Y0067250D02*
X0065858Y0067250D01*
X0065858Y0065329D02*
X0061640Y0065329D01*
X0065858Y0065329D02*
X0065858Y0063709D01*
X0061640Y0063709D01*
X0061640Y0065329D01*
X0061640Y0063830D02*
X0065858Y0063830D01*
X0065858Y0063951D02*
X0061640Y0063951D01*
X0061640Y0064072D02*
X0065858Y0064072D01*
X0065858Y0064193D02*
X0061640Y0064193D01*
X0061640Y0064314D02*
X0065858Y0064314D01*
X0065858Y0064435D02*
X0061640Y0064435D01*
X0061640Y0064556D02*
X0065858Y0064556D01*
X0065858Y0064677D02*
X0061640Y0064677D01*
X0061640Y0064798D02*
X0065858Y0064798D01*
X0065858Y0064919D02*
X0061640Y0064919D01*
X0061640Y0065040D02*
X0065858Y0065040D01*
X0065858Y0065161D02*
X0061640Y0065161D01*
X0061640Y0065282D02*
X0065858Y0065282D01*
X0065858Y0063360D02*
X0061640Y0063360D01*
X0065858Y0063360D02*
X0065858Y0061740D01*
X0061640Y0061740D01*
X0061640Y0063360D01*
X0061640Y0061861D02*
X0065858Y0061861D01*
X0065858Y0061982D02*
X0061640Y0061982D01*
X0061640Y0062103D02*
X0065858Y0062103D01*
X0065858Y0062224D02*
X0061640Y0062224D01*
X0061640Y0062345D02*
X0065858Y0062345D01*
X0065858Y0062466D02*
X0061640Y0062466D01*
X0061640Y0062587D02*
X0065858Y0062587D01*
X0065858Y0062708D02*
X0061640Y0062708D01*
X0061640Y0062829D02*
X0065858Y0062829D01*
X0065858Y0062950D02*
X0061640Y0062950D01*
X0061640Y0063071D02*
X0065858Y0063071D01*
X0065858Y0063192D02*
X0061640Y0063192D01*
X0061640Y0063313D02*
X0065858Y0063313D01*
X0065858Y0061391D02*
X0061640Y0061391D01*
X0065858Y0061391D02*
X0065858Y0059771D01*
X0061640Y0059771D01*
X0061640Y0061391D01*
X0061640Y0059892D02*
X0065858Y0059892D01*
X0065858Y0060013D02*
X0061640Y0060013D01*
X0061640Y0060134D02*
X0065858Y0060134D01*
X0065858Y0060255D02*
X0061640Y0060255D01*
X0061640Y0060376D02*
X0065858Y0060376D01*
X0065858Y0060497D02*
X0061640Y0060497D01*
X0061640Y0060618D02*
X0065858Y0060618D01*
X0065858Y0060739D02*
X0061640Y0060739D01*
X0061640Y0060860D02*
X0065858Y0060860D01*
X0065858Y0060981D02*
X0061640Y0060981D01*
X0061640Y0061102D02*
X0065858Y0061102D01*
X0065858Y0061223D02*
X0061640Y0061223D01*
X0061640Y0061344D02*
X0065858Y0061344D01*
X0065858Y0059423D02*
X0061640Y0059423D01*
X0065858Y0059423D02*
X0065858Y0057803D01*
X0061640Y0057803D01*
X0061640Y0059423D01*
X0061640Y0057924D02*
X0065858Y0057924D01*
X0065858Y0058045D02*
X0061640Y0058045D01*
X0061640Y0058166D02*
X0065858Y0058166D01*
X0065858Y0058287D02*
X0061640Y0058287D01*
X0061640Y0058408D02*
X0065858Y0058408D01*
X0065858Y0058529D02*
X0061640Y0058529D01*
X0061640Y0058650D02*
X0065858Y0058650D01*
X0065858Y0058771D02*
X0061640Y0058771D01*
X0061640Y0058892D02*
X0065858Y0058892D01*
X0065858Y0059013D02*
X0061640Y0059013D01*
X0061640Y0059134D02*
X0065858Y0059134D01*
X0065858Y0059255D02*
X0061640Y0059255D01*
X0061640Y0059376D02*
X0065858Y0059376D01*
X0065858Y0057454D02*
X0061640Y0057454D01*
X0065858Y0057454D02*
X0065858Y0055834D01*
X0061640Y0055834D01*
X0061640Y0057454D01*
X0061640Y0055955D02*
X0065858Y0055955D01*
X0065858Y0056076D02*
X0061640Y0056076D01*
X0061640Y0056197D02*
X0065858Y0056197D01*
X0065858Y0056318D02*
X0061640Y0056318D01*
X0061640Y0056439D02*
X0065858Y0056439D01*
X0065858Y0056560D02*
X0061640Y0056560D01*
X0061640Y0056681D02*
X0065858Y0056681D01*
X0065858Y0056802D02*
X0061640Y0056802D01*
X0061640Y0056923D02*
X0065858Y0056923D01*
X0065858Y0057044D02*
X0061640Y0057044D01*
X0061640Y0057165D02*
X0065858Y0057165D01*
X0065858Y0057286D02*
X0061640Y0057286D01*
X0061640Y0057407D02*
X0065858Y0057407D01*
X0061016Y0055210D02*
X0061016Y0050992D01*
X0059396Y0050992D01*
X0059396Y0055210D01*
X0061016Y0055210D01*
X0061016Y0051113D02*
X0059396Y0051113D01*
X0059396Y0051234D02*
X0061016Y0051234D01*
X0061016Y0051355D02*
X0059396Y0051355D01*
X0059396Y0051476D02*
X0061016Y0051476D01*
X0061016Y0051597D02*
X0059396Y0051597D01*
X0059396Y0051718D02*
X0061016Y0051718D01*
X0061016Y0051839D02*
X0059396Y0051839D01*
X0059396Y0051960D02*
X0061016Y0051960D01*
X0061016Y0052081D02*
X0059396Y0052081D01*
X0059396Y0052202D02*
X0061016Y0052202D01*
X0061016Y0052323D02*
X0059396Y0052323D01*
X0059396Y0052444D02*
X0061016Y0052444D01*
X0061016Y0052565D02*
X0059396Y0052565D01*
X0059396Y0052686D02*
X0061016Y0052686D01*
X0061016Y0052807D02*
X0059396Y0052807D01*
X0059396Y0052928D02*
X0061016Y0052928D01*
X0061016Y0053049D02*
X0059396Y0053049D01*
X0059396Y0053170D02*
X0061016Y0053170D01*
X0061016Y0053291D02*
X0059396Y0053291D01*
X0059396Y0053412D02*
X0061016Y0053412D01*
X0061016Y0053533D02*
X0059396Y0053533D01*
X0059396Y0053654D02*
X0061016Y0053654D01*
X0061016Y0053775D02*
X0059396Y0053775D01*
X0059396Y0053896D02*
X0061016Y0053896D01*
X0061016Y0054017D02*
X0059396Y0054017D01*
X0059396Y0054138D02*
X0061016Y0054138D01*
X0061016Y0054259D02*
X0059396Y0054259D01*
X0059396Y0054380D02*
X0061016Y0054380D01*
X0061016Y0054501D02*
X0059396Y0054501D01*
X0059396Y0054622D02*
X0061016Y0054622D01*
X0061016Y0054743D02*
X0059396Y0054743D01*
X0059396Y0054864D02*
X0061016Y0054864D01*
X0061016Y0054985D02*
X0059396Y0054985D01*
X0059396Y0055106D02*
X0061016Y0055106D01*
X0059047Y0055210D02*
X0059047Y0050992D01*
X0057427Y0050992D01*
X0057427Y0055210D01*
X0059047Y0055210D01*
X0059047Y0051113D02*
X0057427Y0051113D01*
X0057427Y0051234D02*
X0059047Y0051234D01*
X0059047Y0051355D02*
X0057427Y0051355D01*
X0057427Y0051476D02*
X0059047Y0051476D01*
X0059047Y0051597D02*
X0057427Y0051597D01*
X0057427Y0051718D02*
X0059047Y0051718D01*
X0059047Y0051839D02*
X0057427Y0051839D01*
X0057427Y0051960D02*
X0059047Y0051960D01*
X0059047Y0052081D02*
X0057427Y0052081D01*
X0057427Y0052202D02*
X0059047Y0052202D01*
X0059047Y0052323D02*
X0057427Y0052323D01*
X0057427Y0052444D02*
X0059047Y0052444D01*
X0059047Y0052565D02*
X0057427Y0052565D01*
X0057427Y0052686D02*
X0059047Y0052686D01*
X0059047Y0052807D02*
X0057427Y0052807D01*
X0057427Y0052928D02*
X0059047Y0052928D01*
X0059047Y0053049D02*
X0057427Y0053049D01*
X0057427Y0053170D02*
X0059047Y0053170D01*
X0059047Y0053291D02*
X0057427Y0053291D01*
X0057427Y0053412D02*
X0059047Y0053412D01*
X0059047Y0053533D02*
X0057427Y0053533D01*
X0057427Y0053654D02*
X0059047Y0053654D01*
X0059047Y0053775D02*
X0057427Y0053775D01*
X0057427Y0053896D02*
X0059047Y0053896D01*
X0059047Y0054017D02*
X0057427Y0054017D01*
X0057427Y0054138D02*
X0059047Y0054138D01*
X0059047Y0054259D02*
X0057427Y0054259D01*
X0057427Y0054380D02*
X0059047Y0054380D01*
X0059047Y0054501D02*
X0057427Y0054501D01*
X0057427Y0054622D02*
X0059047Y0054622D01*
X0059047Y0054743D02*
X0057427Y0054743D01*
X0057427Y0054864D02*
X0059047Y0054864D01*
X0059047Y0054985D02*
X0057427Y0054985D01*
X0057427Y0055106D02*
X0059047Y0055106D01*
X0057079Y0055210D02*
X0057079Y0050992D01*
X0055459Y0050992D01*
X0055459Y0055210D01*
X0057079Y0055210D01*
X0057079Y0051113D02*
X0055459Y0051113D01*
X0055459Y0051234D02*
X0057079Y0051234D01*
X0057079Y0051355D02*
X0055459Y0051355D01*
X0055459Y0051476D02*
X0057079Y0051476D01*
X0057079Y0051597D02*
X0055459Y0051597D01*
X0055459Y0051718D02*
X0057079Y0051718D01*
X0057079Y0051839D02*
X0055459Y0051839D01*
X0055459Y0051960D02*
X0057079Y0051960D01*
X0057079Y0052081D02*
X0055459Y0052081D01*
X0055459Y0052202D02*
X0057079Y0052202D01*
X0057079Y0052323D02*
X0055459Y0052323D01*
X0055459Y0052444D02*
X0057079Y0052444D01*
X0057079Y0052565D02*
X0055459Y0052565D01*
X0055459Y0052686D02*
X0057079Y0052686D01*
X0057079Y0052807D02*
X0055459Y0052807D01*
X0055459Y0052928D02*
X0057079Y0052928D01*
X0057079Y0053049D02*
X0055459Y0053049D01*
X0055459Y0053170D02*
X0057079Y0053170D01*
X0057079Y0053291D02*
X0055459Y0053291D01*
X0055459Y0053412D02*
X0057079Y0053412D01*
X0057079Y0053533D02*
X0055459Y0053533D01*
X0055459Y0053654D02*
X0057079Y0053654D01*
X0057079Y0053775D02*
X0055459Y0053775D01*
X0055459Y0053896D02*
X0057079Y0053896D01*
X0057079Y0054017D02*
X0055459Y0054017D01*
X0055459Y0054138D02*
X0057079Y0054138D01*
X0057079Y0054259D02*
X0055459Y0054259D01*
X0055459Y0054380D02*
X0057079Y0054380D01*
X0057079Y0054501D02*
X0055459Y0054501D01*
X0055459Y0054622D02*
X0057079Y0054622D01*
X0057079Y0054743D02*
X0055459Y0054743D01*
X0055459Y0054864D02*
X0057079Y0054864D01*
X0057079Y0054985D02*
X0055459Y0054985D01*
X0055459Y0055106D02*
X0057079Y0055106D01*
X0055110Y0055210D02*
X0055110Y0050992D01*
X0053490Y0050992D01*
X0053490Y0055210D01*
X0055110Y0055210D01*
X0055110Y0051113D02*
X0053490Y0051113D01*
X0053490Y0051234D02*
X0055110Y0051234D01*
X0055110Y0051355D02*
X0053490Y0051355D01*
X0053490Y0051476D02*
X0055110Y0051476D01*
X0055110Y0051597D02*
X0053490Y0051597D01*
X0053490Y0051718D02*
X0055110Y0051718D01*
X0055110Y0051839D02*
X0053490Y0051839D01*
X0053490Y0051960D02*
X0055110Y0051960D01*
X0055110Y0052081D02*
X0053490Y0052081D01*
X0053490Y0052202D02*
X0055110Y0052202D01*
X0055110Y0052323D02*
X0053490Y0052323D01*
X0053490Y0052444D02*
X0055110Y0052444D01*
X0055110Y0052565D02*
X0053490Y0052565D01*
X0053490Y0052686D02*
X0055110Y0052686D01*
X0055110Y0052807D02*
X0053490Y0052807D01*
X0053490Y0052928D02*
X0055110Y0052928D01*
X0055110Y0053049D02*
X0053490Y0053049D01*
X0053490Y0053170D02*
X0055110Y0053170D01*
X0055110Y0053291D02*
X0053490Y0053291D01*
X0053490Y0053412D02*
X0055110Y0053412D01*
X0055110Y0053533D02*
X0053490Y0053533D01*
X0053490Y0053654D02*
X0055110Y0053654D01*
X0055110Y0053775D02*
X0053490Y0053775D01*
X0053490Y0053896D02*
X0055110Y0053896D01*
X0055110Y0054017D02*
X0053490Y0054017D01*
X0053490Y0054138D02*
X0055110Y0054138D01*
X0055110Y0054259D02*
X0053490Y0054259D01*
X0053490Y0054380D02*
X0055110Y0054380D01*
X0055110Y0054501D02*
X0053490Y0054501D01*
X0053490Y0054622D02*
X0055110Y0054622D01*
X0055110Y0054743D02*
X0053490Y0054743D01*
X0053490Y0054864D02*
X0055110Y0054864D01*
X0055110Y0054985D02*
X0053490Y0054985D01*
X0053490Y0055106D02*
X0055110Y0055106D01*
X0053141Y0055210D02*
X0053141Y0050992D01*
X0051521Y0050992D01*
X0051521Y0055210D01*
X0053141Y0055210D01*
X0053141Y0051113D02*
X0051521Y0051113D01*
X0051521Y0051234D02*
X0053141Y0051234D01*
X0053141Y0051355D02*
X0051521Y0051355D01*
X0051521Y0051476D02*
X0053141Y0051476D01*
X0053141Y0051597D02*
X0051521Y0051597D01*
X0051521Y0051718D02*
X0053141Y0051718D01*
X0053141Y0051839D02*
X0051521Y0051839D01*
X0051521Y0051960D02*
X0053141Y0051960D01*
X0053141Y0052081D02*
X0051521Y0052081D01*
X0051521Y0052202D02*
X0053141Y0052202D01*
X0053141Y0052323D02*
X0051521Y0052323D01*
X0051521Y0052444D02*
X0053141Y0052444D01*
X0053141Y0052565D02*
X0051521Y0052565D01*
X0051521Y0052686D02*
X0053141Y0052686D01*
X0053141Y0052807D02*
X0051521Y0052807D01*
X0051521Y0052928D02*
X0053141Y0052928D01*
X0053141Y0053049D02*
X0051521Y0053049D01*
X0051521Y0053170D02*
X0053141Y0053170D01*
X0053141Y0053291D02*
X0051521Y0053291D01*
X0051521Y0053412D02*
X0053141Y0053412D01*
X0053141Y0053533D02*
X0051521Y0053533D01*
X0051521Y0053654D02*
X0053141Y0053654D01*
X0053141Y0053775D02*
X0051521Y0053775D01*
X0051521Y0053896D02*
X0053141Y0053896D01*
X0053141Y0054017D02*
X0051521Y0054017D01*
X0051521Y0054138D02*
X0053141Y0054138D01*
X0053141Y0054259D02*
X0051521Y0054259D01*
X0051521Y0054380D02*
X0053141Y0054380D01*
X0053141Y0054501D02*
X0051521Y0054501D01*
X0051521Y0054622D02*
X0053141Y0054622D01*
X0053141Y0054743D02*
X0051521Y0054743D01*
X0051521Y0054864D02*
X0053141Y0054864D01*
X0053141Y0054985D02*
X0051521Y0054985D01*
X0051521Y0055106D02*
X0053141Y0055106D01*
X0051173Y0055210D02*
X0051173Y0050992D01*
X0049553Y0050992D01*
X0049553Y0055210D01*
X0051173Y0055210D01*
X0051173Y0051113D02*
X0049553Y0051113D01*
X0049553Y0051234D02*
X0051173Y0051234D01*
X0051173Y0051355D02*
X0049553Y0051355D01*
X0049553Y0051476D02*
X0051173Y0051476D01*
X0051173Y0051597D02*
X0049553Y0051597D01*
X0049553Y0051718D02*
X0051173Y0051718D01*
X0051173Y0051839D02*
X0049553Y0051839D01*
X0049553Y0051960D02*
X0051173Y0051960D01*
X0051173Y0052081D02*
X0049553Y0052081D01*
X0049553Y0052202D02*
X0051173Y0052202D01*
X0051173Y0052323D02*
X0049553Y0052323D01*
X0049553Y0052444D02*
X0051173Y0052444D01*
X0051173Y0052565D02*
X0049553Y0052565D01*
X0049553Y0052686D02*
X0051173Y0052686D01*
X0051173Y0052807D02*
X0049553Y0052807D01*
X0049553Y0052928D02*
X0051173Y0052928D01*
X0051173Y0053049D02*
X0049553Y0053049D01*
X0049553Y0053170D02*
X0051173Y0053170D01*
X0051173Y0053291D02*
X0049553Y0053291D01*
X0049553Y0053412D02*
X0051173Y0053412D01*
X0051173Y0053533D02*
X0049553Y0053533D01*
X0049553Y0053654D02*
X0051173Y0053654D01*
X0051173Y0053775D02*
X0049553Y0053775D01*
X0049553Y0053896D02*
X0051173Y0053896D01*
X0051173Y0054017D02*
X0049553Y0054017D01*
X0049553Y0054138D02*
X0051173Y0054138D01*
X0051173Y0054259D02*
X0049553Y0054259D01*
X0049553Y0054380D02*
X0051173Y0054380D01*
X0051173Y0054501D02*
X0049553Y0054501D01*
X0049553Y0054622D02*
X0051173Y0054622D01*
X0051173Y0054743D02*
X0049553Y0054743D01*
X0049553Y0054864D02*
X0051173Y0054864D01*
X0051173Y0054985D02*
X0049553Y0054985D01*
X0049553Y0055106D02*
X0051173Y0055106D01*
X0049204Y0055210D02*
X0049204Y0050992D01*
X0047584Y0050992D01*
X0047584Y0055210D01*
X0049204Y0055210D01*
X0049204Y0051113D02*
X0047584Y0051113D01*
X0047584Y0051234D02*
X0049204Y0051234D01*
X0049204Y0051355D02*
X0047584Y0051355D01*
X0047584Y0051476D02*
X0049204Y0051476D01*
X0049204Y0051597D02*
X0047584Y0051597D01*
X0047584Y0051718D02*
X0049204Y0051718D01*
X0049204Y0051839D02*
X0047584Y0051839D01*
X0047584Y0051960D02*
X0049204Y0051960D01*
X0049204Y0052081D02*
X0047584Y0052081D01*
X0047584Y0052202D02*
X0049204Y0052202D01*
X0049204Y0052323D02*
X0047584Y0052323D01*
X0047584Y0052444D02*
X0049204Y0052444D01*
X0049204Y0052565D02*
X0047584Y0052565D01*
X0047584Y0052686D02*
X0049204Y0052686D01*
X0049204Y0052807D02*
X0047584Y0052807D01*
X0047584Y0052928D02*
X0049204Y0052928D01*
X0049204Y0053049D02*
X0047584Y0053049D01*
X0047584Y0053170D02*
X0049204Y0053170D01*
X0049204Y0053291D02*
X0047584Y0053291D01*
X0047584Y0053412D02*
X0049204Y0053412D01*
X0049204Y0053533D02*
X0047584Y0053533D01*
X0047584Y0053654D02*
X0049204Y0053654D01*
X0049204Y0053775D02*
X0047584Y0053775D01*
X0047584Y0053896D02*
X0049204Y0053896D01*
X0049204Y0054017D02*
X0047584Y0054017D01*
X0047584Y0054138D02*
X0049204Y0054138D01*
X0049204Y0054259D02*
X0047584Y0054259D01*
X0047584Y0054380D02*
X0049204Y0054380D01*
X0049204Y0054501D02*
X0047584Y0054501D01*
X0047584Y0054622D02*
X0049204Y0054622D01*
X0049204Y0054743D02*
X0047584Y0054743D01*
X0047584Y0054864D02*
X0049204Y0054864D01*
X0049204Y0054985D02*
X0047584Y0054985D01*
X0047584Y0055106D02*
X0049204Y0055106D01*
X0046960Y0055834D02*
X0042742Y0055834D01*
X0042742Y0057454D01*
X0046960Y0057454D01*
X0046960Y0055834D01*
X0046960Y0055955D02*
X0042742Y0055955D01*
X0042742Y0056076D02*
X0046960Y0056076D01*
X0046960Y0056197D02*
X0042742Y0056197D01*
X0042742Y0056318D02*
X0046960Y0056318D01*
X0046960Y0056439D02*
X0042742Y0056439D01*
X0042742Y0056560D02*
X0046960Y0056560D01*
X0046960Y0056681D02*
X0042742Y0056681D01*
X0042742Y0056802D02*
X0046960Y0056802D01*
X0046960Y0056923D02*
X0042742Y0056923D01*
X0042742Y0057044D02*
X0046960Y0057044D01*
X0046960Y0057165D02*
X0042742Y0057165D01*
X0042742Y0057286D02*
X0046960Y0057286D01*
X0046960Y0057407D02*
X0042742Y0057407D01*
X0042742Y0057803D02*
X0046960Y0057803D01*
X0042742Y0057803D02*
X0042742Y0059423D01*
X0046960Y0059423D01*
X0046960Y0057803D01*
X0046960Y0057924D02*
X0042742Y0057924D01*
X0042742Y0058045D02*
X0046960Y0058045D01*
X0046960Y0058166D02*
X0042742Y0058166D01*
X0042742Y0058287D02*
X0046960Y0058287D01*
X0046960Y0058408D02*
X0042742Y0058408D01*
X0042742Y0058529D02*
X0046960Y0058529D01*
X0046960Y0058650D02*
X0042742Y0058650D01*
X0042742Y0058771D02*
X0046960Y0058771D01*
X0046960Y0058892D02*
X0042742Y0058892D01*
X0042742Y0059013D02*
X0046960Y0059013D01*
X0046960Y0059134D02*
X0042742Y0059134D01*
X0042742Y0059255D02*
X0046960Y0059255D01*
X0046960Y0059376D02*
X0042742Y0059376D01*
X0042742Y0059771D02*
X0046960Y0059771D01*
X0042742Y0059771D02*
X0042742Y0061391D01*
X0046960Y0061391D01*
X0046960Y0059771D01*
X0046960Y0059892D02*
X0042742Y0059892D01*
X0042742Y0060013D02*
X0046960Y0060013D01*
X0046960Y0060134D02*
X0042742Y0060134D01*
X0042742Y0060255D02*
X0046960Y0060255D01*
X0046960Y0060376D02*
X0042742Y0060376D01*
X0042742Y0060497D02*
X0046960Y0060497D01*
X0046960Y0060618D02*
X0042742Y0060618D01*
X0042742Y0060739D02*
X0046960Y0060739D01*
X0046960Y0060860D02*
X0042742Y0060860D01*
X0042742Y0060981D02*
X0046960Y0060981D01*
X0046960Y0061102D02*
X0042742Y0061102D01*
X0042742Y0061223D02*
X0046960Y0061223D01*
X0046960Y0061344D02*
X0042742Y0061344D01*
X0042742Y0061740D02*
X0046960Y0061740D01*
X0042742Y0061740D02*
X0042742Y0063360D01*
X0046960Y0063360D01*
X0046960Y0061740D01*
X0046960Y0061861D02*
X0042742Y0061861D01*
X0042742Y0061982D02*
X0046960Y0061982D01*
X0046960Y0062103D02*
X0042742Y0062103D01*
X0042742Y0062224D02*
X0046960Y0062224D01*
X0046960Y0062345D02*
X0042742Y0062345D01*
X0042742Y0062466D02*
X0046960Y0062466D01*
X0046960Y0062587D02*
X0042742Y0062587D01*
X0042742Y0062708D02*
X0046960Y0062708D01*
X0046960Y0062829D02*
X0042742Y0062829D01*
X0042742Y0062950D02*
X0046960Y0062950D01*
X0046960Y0063071D02*
X0042742Y0063071D01*
X0042742Y0063192D02*
X0046960Y0063192D01*
X0046960Y0063313D02*
X0042742Y0063313D01*
X0042742Y0063709D02*
X0046960Y0063709D01*
X0042742Y0063709D02*
X0042742Y0065329D01*
X0046960Y0065329D01*
X0046960Y0063709D01*
X0046960Y0063830D02*
X0042742Y0063830D01*
X0042742Y0063951D02*
X0046960Y0063951D01*
X0046960Y0064072D02*
X0042742Y0064072D01*
X0042742Y0064193D02*
X0046960Y0064193D01*
X0046960Y0064314D02*
X0042742Y0064314D01*
X0042742Y0064435D02*
X0046960Y0064435D01*
X0046960Y0064556D02*
X0042742Y0064556D01*
X0042742Y0064677D02*
X0046960Y0064677D01*
X0046960Y0064798D02*
X0042742Y0064798D01*
X0042742Y0064919D02*
X0046960Y0064919D01*
X0046960Y0065040D02*
X0042742Y0065040D01*
X0042742Y0065161D02*
X0046960Y0065161D01*
X0046960Y0065282D02*
X0042742Y0065282D01*
X0042742Y0065677D02*
X0046960Y0065677D01*
X0042742Y0065677D02*
X0042742Y0067297D01*
X0046960Y0067297D01*
X0046960Y0065677D01*
X0046960Y0065798D02*
X0042742Y0065798D01*
X0042742Y0065919D02*
X0046960Y0065919D01*
X0046960Y0066040D02*
X0042742Y0066040D01*
X0042742Y0066161D02*
X0046960Y0066161D01*
X0046960Y0066282D02*
X0042742Y0066282D01*
X0042742Y0066403D02*
X0046960Y0066403D01*
X0046960Y0066524D02*
X0042742Y0066524D01*
X0042742Y0066645D02*
X0046960Y0066645D01*
X0046960Y0066766D02*
X0042742Y0066766D01*
X0042742Y0066887D02*
X0046960Y0066887D01*
X0046960Y0067008D02*
X0042742Y0067008D01*
X0042742Y0067129D02*
X0046960Y0067129D01*
X0046960Y0067250D02*
X0042742Y0067250D01*
X0042742Y0067646D02*
X0046960Y0067646D01*
X0042742Y0067646D02*
X0042742Y0069266D01*
X0046960Y0069266D01*
X0046960Y0067646D01*
X0046960Y0067767D02*
X0042742Y0067767D01*
X0042742Y0067888D02*
X0046960Y0067888D01*
X0046960Y0068009D02*
X0042742Y0068009D01*
X0042742Y0068130D02*
X0046960Y0068130D01*
X0046960Y0068251D02*
X0042742Y0068251D01*
X0042742Y0068372D02*
X0046960Y0068372D01*
X0046960Y0068493D02*
X0042742Y0068493D01*
X0042742Y0068614D02*
X0046960Y0068614D01*
X0046960Y0068735D02*
X0042742Y0068735D01*
X0042742Y0068856D02*
X0046960Y0068856D01*
X0046960Y0068977D02*
X0042742Y0068977D01*
X0042742Y0069098D02*
X0046960Y0069098D01*
X0046960Y0069219D02*
X0042742Y0069219D01*
X0047584Y0069890D02*
X0047584Y0074108D01*
X0049204Y0074108D01*
X0049204Y0069890D01*
X0047584Y0069890D01*
X0047584Y0070011D02*
X0049204Y0070011D01*
X0049204Y0070132D02*
X0047584Y0070132D01*
X0047584Y0070253D02*
X0049204Y0070253D01*
X0049204Y0070374D02*
X0047584Y0070374D01*
X0047584Y0070495D02*
X0049204Y0070495D01*
X0049204Y0070616D02*
X0047584Y0070616D01*
X0047584Y0070737D02*
X0049204Y0070737D01*
X0049204Y0070858D02*
X0047584Y0070858D01*
X0047584Y0070979D02*
X0049204Y0070979D01*
X0049204Y0071100D02*
X0047584Y0071100D01*
X0047584Y0071221D02*
X0049204Y0071221D01*
X0049204Y0071342D02*
X0047584Y0071342D01*
X0047584Y0071463D02*
X0049204Y0071463D01*
X0049204Y0071584D02*
X0047584Y0071584D01*
X0047584Y0071705D02*
X0049204Y0071705D01*
X0049204Y0071826D02*
X0047584Y0071826D01*
X0047584Y0071947D02*
X0049204Y0071947D01*
X0049204Y0072068D02*
X0047584Y0072068D01*
X0047584Y0072189D02*
X0049204Y0072189D01*
X0049204Y0072310D02*
X0047584Y0072310D01*
X0047584Y0072431D02*
X0049204Y0072431D01*
X0049204Y0072552D02*
X0047584Y0072552D01*
X0047584Y0072673D02*
X0049204Y0072673D01*
X0049204Y0072794D02*
X0047584Y0072794D01*
X0047584Y0072915D02*
X0049204Y0072915D01*
X0049204Y0073036D02*
X0047584Y0073036D01*
X0047584Y0073157D02*
X0049204Y0073157D01*
X0049204Y0073278D02*
X0047584Y0073278D01*
X0047584Y0073399D02*
X0049204Y0073399D01*
X0049204Y0073520D02*
X0047584Y0073520D01*
X0047584Y0073641D02*
X0049204Y0073641D01*
X0049204Y0073762D02*
X0047584Y0073762D01*
X0047584Y0073883D02*
X0049204Y0073883D01*
X0049204Y0074004D02*
X0047584Y0074004D01*
X0049553Y0074108D02*
X0049553Y0069890D01*
X0049553Y0074108D02*
X0051173Y0074108D01*
X0051173Y0069890D01*
X0049553Y0069890D01*
X0049553Y0070011D02*
X0051173Y0070011D01*
X0051173Y0070132D02*
X0049553Y0070132D01*
X0049553Y0070253D02*
X0051173Y0070253D01*
X0051173Y0070374D02*
X0049553Y0070374D01*
X0049553Y0070495D02*
X0051173Y0070495D01*
X0051173Y0070616D02*
X0049553Y0070616D01*
X0049553Y0070737D02*
X0051173Y0070737D01*
X0051173Y0070858D02*
X0049553Y0070858D01*
X0049553Y0070979D02*
X0051173Y0070979D01*
X0051173Y0071100D02*
X0049553Y0071100D01*
X0049553Y0071221D02*
X0051173Y0071221D01*
X0051173Y0071342D02*
X0049553Y0071342D01*
X0049553Y0071463D02*
X0051173Y0071463D01*
X0051173Y0071584D02*
X0049553Y0071584D01*
X0049553Y0071705D02*
X0051173Y0071705D01*
X0051173Y0071826D02*
X0049553Y0071826D01*
X0049553Y0071947D02*
X0051173Y0071947D01*
X0051173Y0072068D02*
X0049553Y0072068D01*
X0049553Y0072189D02*
X0051173Y0072189D01*
X0051173Y0072310D02*
X0049553Y0072310D01*
X0049553Y0072431D02*
X0051173Y0072431D01*
X0051173Y0072552D02*
X0049553Y0072552D01*
X0049553Y0072673D02*
X0051173Y0072673D01*
X0051173Y0072794D02*
X0049553Y0072794D01*
X0049553Y0072915D02*
X0051173Y0072915D01*
X0051173Y0073036D02*
X0049553Y0073036D01*
X0049553Y0073157D02*
X0051173Y0073157D01*
X0051173Y0073278D02*
X0049553Y0073278D01*
X0049553Y0073399D02*
X0051173Y0073399D01*
X0051173Y0073520D02*
X0049553Y0073520D01*
X0049553Y0073641D02*
X0051173Y0073641D01*
X0051173Y0073762D02*
X0049553Y0073762D01*
X0049553Y0073883D02*
X0051173Y0073883D01*
X0051173Y0074004D02*
X0049553Y0074004D01*
X0051521Y0074108D02*
X0051521Y0069890D01*
X0051521Y0074108D02*
X0053141Y0074108D01*
X0053141Y0069890D01*
X0051521Y0069890D01*
X0051521Y0070011D02*
X0053141Y0070011D01*
X0053141Y0070132D02*
X0051521Y0070132D01*
X0051521Y0070253D02*
X0053141Y0070253D01*
X0053141Y0070374D02*
X0051521Y0070374D01*
X0051521Y0070495D02*
X0053141Y0070495D01*
X0053141Y0070616D02*
X0051521Y0070616D01*
X0051521Y0070737D02*
X0053141Y0070737D01*
X0053141Y0070858D02*
X0051521Y0070858D01*
X0051521Y0070979D02*
X0053141Y0070979D01*
X0053141Y0071100D02*
X0051521Y0071100D01*
X0051521Y0071221D02*
X0053141Y0071221D01*
X0053141Y0071342D02*
X0051521Y0071342D01*
X0051521Y0071463D02*
X0053141Y0071463D01*
X0053141Y0071584D02*
X0051521Y0071584D01*
X0051521Y0071705D02*
X0053141Y0071705D01*
X0053141Y0071826D02*
X0051521Y0071826D01*
X0051521Y0071947D02*
X0053141Y0071947D01*
X0053141Y0072068D02*
X0051521Y0072068D01*
X0051521Y0072189D02*
X0053141Y0072189D01*
X0053141Y0072310D02*
X0051521Y0072310D01*
X0051521Y0072431D02*
X0053141Y0072431D01*
X0053141Y0072552D02*
X0051521Y0072552D01*
X0051521Y0072673D02*
X0053141Y0072673D01*
X0053141Y0072794D02*
X0051521Y0072794D01*
X0051521Y0072915D02*
X0053141Y0072915D01*
X0053141Y0073036D02*
X0051521Y0073036D01*
X0051521Y0073157D02*
X0053141Y0073157D01*
X0053141Y0073278D02*
X0051521Y0073278D01*
X0051521Y0073399D02*
X0053141Y0073399D01*
X0053141Y0073520D02*
X0051521Y0073520D01*
X0051521Y0073641D02*
X0053141Y0073641D01*
X0053141Y0073762D02*
X0051521Y0073762D01*
X0051521Y0073883D02*
X0053141Y0073883D01*
X0053141Y0074004D02*
X0051521Y0074004D01*
X0053490Y0074108D02*
X0053490Y0069890D01*
X0053490Y0074108D02*
X0055110Y0074108D01*
X0055110Y0069890D01*
X0053490Y0069890D01*
X0053490Y0070011D02*
X0055110Y0070011D01*
X0055110Y0070132D02*
X0053490Y0070132D01*
X0053490Y0070253D02*
X0055110Y0070253D01*
X0055110Y0070374D02*
X0053490Y0070374D01*
X0053490Y0070495D02*
X0055110Y0070495D01*
X0055110Y0070616D02*
X0053490Y0070616D01*
X0053490Y0070737D02*
X0055110Y0070737D01*
X0055110Y0070858D02*
X0053490Y0070858D01*
X0053490Y0070979D02*
X0055110Y0070979D01*
X0055110Y0071100D02*
X0053490Y0071100D01*
X0053490Y0071221D02*
X0055110Y0071221D01*
X0055110Y0071342D02*
X0053490Y0071342D01*
X0053490Y0071463D02*
X0055110Y0071463D01*
X0055110Y0071584D02*
X0053490Y0071584D01*
X0053490Y0071705D02*
X0055110Y0071705D01*
X0055110Y0071826D02*
X0053490Y0071826D01*
X0053490Y0071947D02*
X0055110Y0071947D01*
X0055110Y0072068D02*
X0053490Y0072068D01*
X0053490Y0072189D02*
X0055110Y0072189D01*
X0055110Y0072310D02*
X0053490Y0072310D01*
X0053490Y0072431D02*
X0055110Y0072431D01*
X0055110Y0072552D02*
X0053490Y0072552D01*
X0053490Y0072673D02*
X0055110Y0072673D01*
X0055110Y0072794D02*
X0053490Y0072794D01*
X0053490Y0072915D02*
X0055110Y0072915D01*
X0055110Y0073036D02*
X0053490Y0073036D01*
X0053490Y0073157D02*
X0055110Y0073157D01*
X0055110Y0073278D02*
X0053490Y0073278D01*
X0053490Y0073399D02*
X0055110Y0073399D01*
X0055110Y0073520D02*
X0053490Y0073520D01*
X0053490Y0073641D02*
X0055110Y0073641D01*
X0055110Y0073762D02*
X0053490Y0073762D01*
X0053490Y0073883D02*
X0055110Y0073883D01*
X0055110Y0074004D02*
X0053490Y0074004D01*
X0055459Y0074108D02*
X0055459Y0069890D01*
X0055459Y0074108D02*
X0057079Y0074108D01*
X0057079Y0069890D01*
X0055459Y0069890D01*
X0055459Y0070011D02*
X0057079Y0070011D01*
X0057079Y0070132D02*
X0055459Y0070132D01*
X0055459Y0070253D02*
X0057079Y0070253D01*
X0057079Y0070374D02*
X0055459Y0070374D01*
X0055459Y0070495D02*
X0057079Y0070495D01*
X0057079Y0070616D02*
X0055459Y0070616D01*
X0055459Y0070737D02*
X0057079Y0070737D01*
X0057079Y0070858D02*
X0055459Y0070858D01*
X0055459Y0070979D02*
X0057079Y0070979D01*
X0057079Y0071100D02*
X0055459Y0071100D01*
X0055459Y0071221D02*
X0057079Y0071221D01*
X0057079Y0071342D02*
X0055459Y0071342D01*
X0055459Y0071463D02*
X0057079Y0071463D01*
X0057079Y0071584D02*
X0055459Y0071584D01*
X0055459Y0071705D02*
X0057079Y0071705D01*
X0057079Y0071826D02*
X0055459Y0071826D01*
X0055459Y0071947D02*
X0057079Y0071947D01*
X0057079Y0072068D02*
X0055459Y0072068D01*
X0055459Y0072189D02*
X0057079Y0072189D01*
X0057079Y0072310D02*
X0055459Y0072310D01*
X0055459Y0072431D02*
X0057079Y0072431D01*
X0057079Y0072552D02*
X0055459Y0072552D01*
X0055459Y0072673D02*
X0057079Y0072673D01*
X0057079Y0072794D02*
X0055459Y0072794D01*
X0055459Y0072915D02*
X0057079Y0072915D01*
X0057079Y0073036D02*
X0055459Y0073036D01*
X0055459Y0073157D02*
X0057079Y0073157D01*
X0057079Y0073278D02*
X0055459Y0073278D01*
X0055459Y0073399D02*
X0057079Y0073399D01*
X0057079Y0073520D02*
X0055459Y0073520D01*
X0055459Y0073641D02*
X0057079Y0073641D01*
X0057079Y0073762D02*
X0055459Y0073762D01*
X0055459Y0073883D02*
X0057079Y0073883D01*
X0057079Y0074004D02*
X0055459Y0074004D01*
X0057427Y0074108D02*
X0057427Y0069890D01*
X0057427Y0074108D02*
X0059047Y0074108D01*
X0059047Y0069890D01*
X0057427Y0069890D01*
X0057427Y0070011D02*
X0059047Y0070011D01*
X0059047Y0070132D02*
X0057427Y0070132D01*
X0057427Y0070253D02*
X0059047Y0070253D01*
X0059047Y0070374D02*
X0057427Y0070374D01*
X0057427Y0070495D02*
X0059047Y0070495D01*
X0059047Y0070616D02*
X0057427Y0070616D01*
X0057427Y0070737D02*
X0059047Y0070737D01*
X0059047Y0070858D02*
X0057427Y0070858D01*
X0057427Y0070979D02*
X0059047Y0070979D01*
X0059047Y0071100D02*
X0057427Y0071100D01*
X0057427Y0071221D02*
X0059047Y0071221D01*
X0059047Y0071342D02*
X0057427Y0071342D01*
X0057427Y0071463D02*
X0059047Y0071463D01*
X0059047Y0071584D02*
X0057427Y0071584D01*
X0057427Y0071705D02*
X0059047Y0071705D01*
X0059047Y0071826D02*
X0057427Y0071826D01*
X0057427Y0071947D02*
X0059047Y0071947D01*
X0059047Y0072068D02*
X0057427Y0072068D01*
X0057427Y0072189D02*
X0059047Y0072189D01*
X0059047Y0072310D02*
X0057427Y0072310D01*
X0057427Y0072431D02*
X0059047Y0072431D01*
X0059047Y0072552D02*
X0057427Y0072552D01*
X0057427Y0072673D02*
X0059047Y0072673D01*
X0059047Y0072794D02*
X0057427Y0072794D01*
X0057427Y0072915D02*
X0059047Y0072915D01*
X0059047Y0073036D02*
X0057427Y0073036D01*
X0057427Y0073157D02*
X0059047Y0073157D01*
X0059047Y0073278D02*
X0057427Y0073278D01*
X0057427Y0073399D02*
X0059047Y0073399D01*
X0059047Y0073520D02*
X0057427Y0073520D01*
X0057427Y0073641D02*
X0059047Y0073641D01*
X0059047Y0073762D02*
X0057427Y0073762D01*
X0057427Y0073883D02*
X0059047Y0073883D01*
X0059047Y0074004D02*
X0057427Y0074004D01*
X0059396Y0074108D02*
X0059396Y0069890D01*
X0059396Y0074108D02*
X0061016Y0074108D01*
X0061016Y0069890D01*
X0059396Y0069890D01*
X0059396Y0070011D02*
X0061016Y0070011D01*
X0061016Y0070132D02*
X0059396Y0070132D01*
X0059396Y0070253D02*
X0061016Y0070253D01*
X0061016Y0070374D02*
X0059396Y0070374D01*
X0059396Y0070495D02*
X0061016Y0070495D01*
X0061016Y0070616D02*
X0059396Y0070616D01*
X0059396Y0070737D02*
X0061016Y0070737D01*
X0061016Y0070858D02*
X0059396Y0070858D01*
X0059396Y0070979D02*
X0061016Y0070979D01*
X0061016Y0071100D02*
X0059396Y0071100D01*
X0059396Y0071221D02*
X0061016Y0071221D01*
X0061016Y0071342D02*
X0059396Y0071342D01*
X0059396Y0071463D02*
X0061016Y0071463D01*
X0061016Y0071584D02*
X0059396Y0071584D01*
X0059396Y0071705D02*
X0061016Y0071705D01*
X0061016Y0071826D02*
X0059396Y0071826D01*
X0059396Y0071947D02*
X0061016Y0071947D01*
X0061016Y0072068D02*
X0059396Y0072068D01*
X0059396Y0072189D02*
X0061016Y0072189D01*
X0061016Y0072310D02*
X0059396Y0072310D01*
X0059396Y0072431D02*
X0061016Y0072431D01*
X0061016Y0072552D02*
X0059396Y0072552D01*
X0059396Y0072673D02*
X0061016Y0072673D01*
X0061016Y0072794D02*
X0059396Y0072794D01*
X0059396Y0072915D02*
X0061016Y0072915D01*
X0061016Y0073036D02*
X0059396Y0073036D01*
X0059396Y0073157D02*
X0061016Y0073157D01*
X0061016Y0073278D02*
X0059396Y0073278D01*
X0059396Y0073399D02*
X0061016Y0073399D01*
X0061016Y0073520D02*
X0059396Y0073520D01*
X0059396Y0073641D02*
X0061016Y0073641D01*
X0061016Y0073762D02*
X0059396Y0073762D01*
X0059396Y0073883D02*
X0061016Y0073883D01*
X0061016Y0074004D02*
X0059396Y0074004D01*
D31*
X0054300Y0062550D03*
D32*
X0024300Y0067894D03*
X0024300Y0079706D03*
M02*
