G75*
%MOIN*%
%OFA0B0*%
%FSLAX25Y25*%
%IPPOS*%
%LPD*%
%AMOC8*
5,1,8,0,0,1.08239X$1,22.5*
%
%ADD10R,0.07400X0.07400*%
%ADD11C,0.07400*%
%ADD12C,0.04134*%
%ADD13R,0.03543X0.05512*%
%ADD14R,0.02441X0.02441*%
%ADD15R,0.03937X0.13386*%
%ADD16R,0.05906X0.14173*%
%ADD17R,0.05906X0.11811*%
%ADD18R,0.03543X0.03543*%
%ADD19R,0.04724X0.04724*%
%ADD20C,0.02953*%
%ADD21C,0.01200*%
%ADD22C,0.01600*%
%ADD23C,0.02400*%
%ADD24C,0.04000*%
%ADD25C,0.03200*%
%ADD26C,0.04724*%
%ADD27C,0.03543*%
D10*
X0009300Y0200050D03*
D11*
X0009300Y0190050D03*
X0009300Y0180050D03*
X0009300Y0170050D03*
X0009300Y0160050D03*
X0009300Y0150050D03*
X0009300Y0140050D03*
X0009300Y0130050D03*
X0009300Y0120050D03*
X0009300Y0110050D03*
X0009300Y0100050D03*
X0009300Y0090050D03*
X0009300Y0080050D03*
X0009300Y0070050D03*
X0009300Y0060050D03*
X0009300Y0050050D03*
X0009300Y0040050D03*
X0009300Y0030050D03*
X0009300Y0020050D03*
X0009300Y0010050D03*
X0099300Y0010050D03*
X0099300Y0020050D03*
X0099300Y0030050D03*
X0099300Y0040050D03*
X0099300Y0050050D03*
X0099300Y0060050D03*
X0099300Y0070050D03*
X0099300Y0080050D03*
X0099300Y0090050D03*
X0099300Y0100050D03*
X0099300Y0110050D03*
X0099300Y0120050D03*
X0099300Y0130050D03*
X0099300Y0140050D03*
X0099300Y0150050D03*
X0099300Y0160050D03*
X0099300Y0170050D03*
X0099300Y0180050D03*
X0099300Y0190050D03*
X0099300Y0200050D03*
D12*
X0071308Y0032235D02*
X0071308Y0028101D01*
X0071308Y0015778D02*
X0071308Y0011644D01*
X0037292Y0011644D02*
X0037292Y0015778D01*
X0037292Y0028101D02*
X0037292Y0032235D01*
D13*
X0039507Y0167550D03*
X0046593Y0167550D03*
D14*
X0044822Y0173800D03*
X0041278Y0173800D03*
D15*
X0042489Y0040867D03*
X0050363Y0040867D03*
X0058237Y0040867D03*
X0066111Y0040867D03*
D16*
X0075166Y0011339D03*
X0033434Y0011339D03*
D17*
X0033434Y0032206D03*
X0075166Y0032206D03*
D18*
X0053906Y0141103D03*
X0053906Y0146615D03*
X0053906Y0152127D03*
X0048394Y0152127D03*
X0048394Y0146615D03*
X0048394Y0141103D03*
X0042883Y0141103D03*
X0042883Y0146615D03*
X0042883Y0152127D03*
D19*
X0019300Y0010050D03*
D20*
X0018050Y0015675D03*
X0014300Y0015050D03*
X0014300Y0025050D03*
X0018050Y0032550D03*
X0021175Y0038800D03*
X0028675Y0018175D03*
X0025550Y0008800D03*
X0014300Y0005050D03*
X0037425Y0052550D03*
X0036800Y0056300D03*
X0034925Y0059425D03*
X0037425Y0062550D03*
X0039925Y0065675D03*
X0049300Y0076300D03*
X0051175Y0083800D03*
X0055550Y0083800D03*
X0054925Y0097855D03*
X0063050Y0113800D03*
X0066800Y0116300D03*
X0064925Y0120050D03*
X0070550Y0118800D03*
X0070550Y0125050D03*
X0074300Y0125050D03*
X0074300Y0121300D03*
X0074300Y0116300D03*
X0078050Y0118800D03*
X0080550Y0122009D03*
X0081800Y0127009D03*
X0081800Y0132009D03*
X0081800Y0137009D03*
X0081800Y0142009D03*
X0081800Y0147009D03*
X0081800Y0152009D03*
X0081800Y0157009D03*
X0081800Y0162009D03*
X0081800Y0167009D03*
X0081800Y0172009D03*
X0081800Y0177550D03*
X0078050Y0177550D03*
X0078050Y0173800D03*
X0078050Y0170050D03*
X0074300Y0170050D03*
X0074300Y0166300D03*
X0074300Y0173800D03*
X0074300Y0177550D03*
X0070550Y0177550D03*
X0070550Y0173800D03*
X0070550Y0170050D03*
X0070550Y0166300D03*
X0070550Y0162550D03*
X0066800Y0162550D03*
X0066800Y0158800D03*
X0063050Y0158800D03*
X0063050Y0155050D03*
X0063050Y0151300D03*
X0063050Y0147550D03*
X0063050Y0143800D03*
X0063050Y0140050D03*
X0059300Y0140050D03*
X0059300Y0136300D03*
X0055550Y0133800D03*
X0051800Y0133800D03*
X0051800Y0130050D03*
X0048050Y0133800D03*
X0059300Y0143800D03*
X0059300Y0147550D03*
X0059300Y0151300D03*
X0059300Y0155050D03*
X0059300Y0158800D03*
X0059300Y0162550D03*
X0059300Y0166300D03*
X0059300Y0170050D03*
X0059300Y0173800D03*
X0059300Y0177550D03*
X0055550Y0177550D03*
X0055550Y0173800D03*
X0055550Y0170050D03*
X0055550Y0166300D03*
X0055550Y0162550D03*
X0055550Y0158800D03*
X0051800Y0158800D03*
X0051800Y0162550D03*
X0051800Y0166300D03*
X0051800Y0170050D03*
X0051800Y0173800D03*
X0051800Y0177550D03*
X0048050Y0177550D03*
X0048050Y0173800D03*
X0044300Y0177550D03*
X0040550Y0177550D03*
X0036800Y0177550D03*
X0033050Y0177550D03*
X0029300Y0177550D03*
X0026800Y0167009D03*
X0026800Y0162009D03*
X0025550Y0157009D03*
X0025550Y0152009D03*
X0025550Y0147009D03*
X0025550Y0142009D03*
X0025550Y0137009D03*
X0025550Y0132009D03*
X0026800Y0127009D03*
X0025550Y0122009D03*
X0024925Y0117009D03*
X0026800Y0112550D03*
X0030550Y0115050D03*
X0031800Y0118800D03*
X0033050Y0122550D03*
X0034300Y0126300D03*
X0030550Y0130050D03*
X0030550Y0133800D03*
X0040550Y0158800D03*
X0040550Y0162550D03*
X0044300Y0162550D03*
X0044300Y0158800D03*
X0048050Y0158800D03*
X0048050Y0162550D03*
X0063050Y0162550D03*
X0063050Y0166300D03*
X0063050Y0170050D03*
X0063050Y0173800D03*
X0063050Y0177550D03*
X0066800Y0177550D03*
X0066800Y0173800D03*
X0066800Y0170050D03*
X0066800Y0166300D03*
X0069613Y0153175D03*
X0076800Y0158800D03*
X0078050Y0132550D03*
X0078050Y0128800D03*
X0078050Y0125050D03*
X0074300Y0128800D03*
X0081800Y0117009D03*
X0094300Y0115050D03*
X0094300Y0105050D03*
X0094300Y0095050D03*
X0094300Y0085050D03*
X0094300Y0075050D03*
X0090550Y0075050D03*
X0090550Y0065050D03*
X0094300Y0065050D03*
X0094300Y0055050D03*
X0090550Y0055050D03*
X0094300Y0045050D03*
X0094300Y0035050D03*
X0094300Y0025050D03*
X0094300Y0015050D03*
X0094300Y0005050D03*
X0083050Y0030778D03*
X0068050Y0007550D03*
X0064300Y0007550D03*
X0060550Y0007550D03*
X0060550Y0011300D03*
X0060550Y0015050D03*
X0056800Y0015050D03*
X0056800Y0011300D03*
X0056800Y0007550D03*
X0051800Y0007550D03*
X0051800Y0011300D03*
X0051800Y0015050D03*
X0048050Y0015050D03*
X0048050Y0011300D03*
X0048050Y0007550D03*
X0044300Y0007550D03*
X0040550Y0007550D03*
X0053316Y0021300D03*
X0059300Y0021300D03*
X0058050Y0058800D03*
X0050550Y0066300D03*
X0035550Y0093800D03*
X0021800Y0107550D03*
X0014300Y0125050D03*
X0014300Y0135050D03*
X0014300Y0145050D03*
X0014300Y0155050D03*
X0014300Y0165050D03*
X0014300Y0065050D03*
X0069925Y0062550D03*
X0069925Y0070675D03*
X0073675Y0073800D03*
X0094300Y0125050D03*
X0094300Y0135050D03*
X0094300Y0145050D03*
X0094300Y0155050D03*
X0094300Y0165050D03*
X0094300Y0175050D03*
X0094300Y0195050D03*
X0094300Y0205050D03*
D21*
X0081800Y0177550D02*
X0078050Y0177550D01*
X0074300Y0177550D01*
X0070550Y0177550D01*
X0066800Y0177550D01*
X0063050Y0177550D01*
X0059300Y0177550D01*
X0055550Y0177550D01*
X0051800Y0177550D01*
X0051800Y0173800D01*
X0055550Y0173800D01*
X0059300Y0173800D01*
X0063050Y0173800D01*
X0066800Y0173800D01*
X0070550Y0173800D01*
X0074300Y0173800D01*
X0078050Y0173800D01*
X0078050Y0170050D02*
X0074300Y0170050D01*
X0070550Y0170050D01*
X0066800Y0170050D01*
X0063050Y0170050D01*
X0059300Y0170050D01*
X0055550Y0170050D01*
X0051800Y0170050D01*
X0051800Y0173800D01*
X0048050Y0173800D01*
X0044822Y0173800D01*
X0044300Y0177550D02*
X0048050Y0177550D01*
X0051800Y0177550D01*
X0051800Y0170050D02*
X0051800Y0166300D01*
X0055550Y0166300D01*
X0059300Y0166300D01*
X0063050Y0166300D01*
X0066800Y0166300D01*
X0070550Y0166300D01*
X0074300Y0166300D01*
X0070550Y0162550D02*
X0066800Y0162550D01*
X0063050Y0162550D01*
X0059300Y0162550D01*
X0055550Y0162550D01*
X0051800Y0162550D01*
X0051800Y0158800D01*
X0055550Y0158800D01*
X0059300Y0158800D01*
X0059300Y0155050D01*
X0059300Y0151300D01*
X0059300Y0147550D01*
X0059300Y0143800D01*
X0059300Y0140050D01*
X0059300Y0136300D01*
X0055550Y0133800D02*
X0051800Y0133800D01*
X0051800Y0130050D01*
X0051800Y0133800D02*
X0048050Y0133800D01*
X0053906Y0141103D02*
X0053906Y0146615D01*
X0048394Y0146615D01*
X0048050Y0158800D02*
X0044300Y0158800D01*
X0040550Y0158800D01*
X0040550Y0162550D02*
X0044300Y0162550D01*
X0048050Y0162550D01*
X0051800Y0162550D01*
X0051800Y0166300D01*
X0051800Y0167550D01*
X0046593Y0167550D01*
X0048050Y0158800D02*
X0051800Y0158800D01*
X0059300Y0158800D02*
X0063050Y0158800D01*
X0066800Y0158800D01*
X0063050Y0158800D02*
X0063050Y0155050D01*
X0063050Y0151300D01*
X0063050Y0147550D01*
X0063050Y0143800D01*
X0063050Y0140050D01*
X0070550Y0125050D02*
X0074300Y0125050D01*
X0074300Y0121300D01*
X0074300Y0125050D02*
X0074300Y0128800D01*
X0078050Y0128800D01*
X0078050Y0125050D01*
X0078050Y0128800D02*
X0078050Y0132550D01*
X0044300Y0177550D02*
X0040550Y0177550D01*
X0036800Y0177550D01*
X0033050Y0177550D01*
X0029300Y0177550D01*
X0030550Y0133800D02*
X0030550Y0130050D01*
X0053316Y0021300D02*
X0053316Y0019784D01*
X0053987Y0019113D01*
X0055237Y0019113D01*
X0057425Y0021300D01*
X0059300Y0021300D01*
X0076800Y0021300D01*
X0089925Y0008175D01*
X0092425Y0008175D01*
X0094300Y0010050D01*
X0099300Y0010050D01*
X0075166Y0011339D02*
X0075166Y0007550D01*
X0068050Y0007550D01*
X0064300Y0007550D01*
X0060550Y0007550D01*
X0060550Y0011300D01*
X0060550Y0015050D01*
X0056800Y0015050D02*
X0056800Y0011300D01*
X0056800Y0007550D01*
X0060550Y0007550D01*
X0056800Y0007550D02*
X0051800Y0007550D01*
X0051800Y0011300D01*
X0051800Y0015050D01*
X0048050Y0015050D02*
X0048050Y0011300D01*
X0048050Y0007550D01*
X0051800Y0007550D01*
X0048050Y0007550D02*
X0044300Y0007550D01*
X0040550Y0007550D01*
X0034300Y0007550D01*
X0034300Y0005050D01*
X0014300Y0005050D01*
X0033040Y0007550D02*
X0034300Y0007550D01*
X0033040Y0007550D02*
X0033040Y0010946D01*
D22*
X0003376Y0004126D02*
X0003038Y0004712D01*
X0002994Y0005050D01*
X0002994Y0205050D01*
X0003038Y0205388D01*
X0003376Y0205974D01*
X0003962Y0206312D01*
X0004300Y0206356D01*
X0014300Y0206356D01*
X0014300Y0199148D01*
X0014298Y0199150D01*
X0014298Y0204288D01*
X0013538Y0205048D01*
X0005062Y0205048D01*
X0004302Y0204288D01*
X0004302Y0195812D01*
X0005062Y0195052D01*
X0010200Y0195052D01*
X0010204Y0195048D01*
X0008306Y0195048D01*
X0006469Y0194287D01*
X0005063Y0192881D01*
X0004302Y0191044D01*
X0004302Y0189056D01*
X0005063Y0187219D01*
X0006469Y0185813D01*
X0008306Y0185052D01*
X0010081Y0185052D01*
X0010085Y0185048D01*
X0008306Y0185048D01*
X0006469Y0184287D01*
X0005063Y0182881D01*
X0004302Y0181044D01*
X0004302Y0179056D01*
X0005063Y0177219D01*
X0006469Y0175813D01*
X0008306Y0175052D01*
X0010081Y0175052D01*
X0010085Y0175048D01*
X0008306Y0175048D01*
X0006469Y0174287D01*
X0005063Y0172881D01*
X0004302Y0171044D01*
X0004302Y0169056D01*
X0005063Y0167219D01*
X0006469Y0165813D01*
X0008306Y0165052D01*
X0010294Y0165052D01*
X0012131Y0165813D01*
X0013537Y0167219D01*
X0013721Y0167662D01*
X0020952Y0160431D01*
X0020952Y0157931D01*
X0022181Y0156702D01*
X0023023Y0155860D01*
X0023198Y0155437D01*
X0023978Y0154657D01*
X0024336Y0154509D01*
X0023978Y0154361D01*
X0023724Y0154107D01*
X0023210Y0154107D01*
X0016398Y0160919D01*
X0015169Y0162148D01*
X0013841Y0162148D01*
X0013537Y0162881D01*
X0012131Y0164287D01*
X0010294Y0165048D01*
X0008306Y0165048D01*
X0006469Y0164287D01*
X0005063Y0162881D01*
X0004302Y0161044D01*
X0004302Y0159056D01*
X0005063Y0157219D01*
X0006469Y0155813D01*
X0008306Y0155052D01*
X0010294Y0155052D01*
X0012131Y0155813D01*
X0013537Y0157219D01*
X0013721Y0157662D01*
X0021472Y0149911D01*
X0023724Y0149911D01*
X0023978Y0149657D01*
X0024336Y0149509D01*
X0023978Y0149361D01*
X0023724Y0149107D01*
X0018210Y0149107D01*
X0016398Y0150919D01*
X0015169Y0152148D01*
X0013841Y0152148D01*
X0013537Y0152881D01*
X0012131Y0154287D01*
X0010294Y0155048D01*
X0008306Y0155048D01*
X0006469Y0154287D01*
X0005063Y0152881D01*
X0004302Y0151044D01*
X0004302Y0149056D01*
X0005063Y0147219D01*
X0006469Y0145813D01*
X0008306Y0145052D01*
X0010294Y0145052D01*
X0012131Y0145813D01*
X0013537Y0147219D01*
X0013721Y0147662D01*
X0016472Y0144911D01*
X0023724Y0144911D01*
X0023978Y0144657D01*
X0024336Y0144509D01*
X0023978Y0144361D01*
X0023724Y0144107D01*
X0015390Y0144107D01*
X0013721Y0142438D01*
X0013537Y0142881D01*
X0012131Y0144287D01*
X0010294Y0145048D01*
X0008306Y0145048D01*
X0006469Y0144287D01*
X0005063Y0142881D01*
X0004302Y0141044D01*
X0004302Y0139056D01*
X0005063Y0137219D01*
X0006469Y0135813D01*
X0008306Y0135052D01*
X0010294Y0135052D01*
X0012131Y0135813D01*
X0013537Y0137219D01*
X0013841Y0137952D01*
X0015169Y0137952D01*
X0016398Y0139181D01*
X0017128Y0139911D01*
X0023724Y0139911D01*
X0023978Y0139657D01*
X0024336Y0139509D01*
X0023978Y0139361D01*
X0023724Y0139107D01*
X0020390Y0139107D01*
X0013721Y0132438D01*
X0013537Y0132881D01*
X0012131Y0134287D01*
X0010294Y0135048D01*
X0008306Y0135048D01*
X0006469Y0134287D01*
X0005063Y0132881D01*
X0004302Y0131044D01*
X0004302Y0129056D01*
X0005063Y0127219D01*
X0006469Y0125813D01*
X0008306Y0125052D01*
X0010294Y0125052D01*
X0012131Y0125813D01*
X0013537Y0127219D01*
X0013841Y0127952D01*
X0015169Y0127952D01*
X0016398Y0129181D01*
X0022128Y0134911D01*
X0023724Y0134911D01*
X0023978Y0134657D01*
X0024336Y0134509D01*
X0023978Y0134361D01*
X0023198Y0133580D01*
X0022776Y0132561D01*
X0022776Y0131493D01*
X0013721Y0122438D01*
X0013537Y0122881D01*
X0012131Y0124287D01*
X0010294Y0125048D01*
X0008306Y0125048D01*
X0006469Y0124287D01*
X0005063Y0122881D01*
X0004302Y0121044D01*
X0004302Y0119056D01*
X0005063Y0117219D01*
X0006469Y0115813D01*
X0008306Y0115052D01*
X0010085Y0115052D01*
X0010081Y0115048D01*
X0008306Y0115048D01*
X0006469Y0114287D01*
X0005063Y0112881D01*
X0004302Y0111044D01*
X0004302Y0109056D01*
X0005063Y0107219D01*
X0006469Y0105813D01*
X0008306Y0105052D01*
X0010085Y0105052D01*
X0010081Y0105048D01*
X0008306Y0105048D01*
X0006469Y0104287D01*
X0005063Y0102881D01*
X0004302Y0101044D01*
X0004302Y0099056D01*
X0005063Y0097219D01*
X0006469Y0095813D01*
X0008306Y0095052D01*
X0010085Y0095052D01*
X0010081Y0095048D01*
X0008306Y0095048D01*
X0006469Y0094287D01*
X0005063Y0092881D01*
X0004302Y0091044D01*
X0004302Y0089056D01*
X0005063Y0087219D01*
X0006469Y0085813D01*
X0008306Y0085052D01*
X0010085Y0085052D01*
X0010081Y0085048D01*
X0008306Y0085048D01*
X0006469Y0084287D01*
X0005063Y0082881D01*
X0004302Y0081044D01*
X0004302Y0079056D01*
X0005063Y0077219D01*
X0006469Y0075813D01*
X0008306Y0075052D01*
X0010085Y0075052D01*
X0010081Y0075048D01*
X0008306Y0075048D01*
X0006469Y0074287D01*
X0005063Y0072881D01*
X0004302Y0071044D01*
X0004302Y0069056D01*
X0005063Y0067219D01*
X0006469Y0065813D01*
X0008306Y0065052D01*
X0010294Y0065052D01*
X0012131Y0065813D01*
X0013537Y0067219D01*
X0014298Y0069056D01*
X0014298Y0071044D01*
X0013628Y0072661D01*
X0015952Y0074985D01*
X0015952Y0064669D01*
X0013721Y0062438D01*
X0013537Y0062881D01*
X0012131Y0064287D01*
X0010294Y0065048D01*
X0008306Y0065048D01*
X0006469Y0064287D01*
X0005063Y0062881D01*
X0004302Y0061044D01*
X0004302Y0059056D01*
X0005063Y0057219D01*
X0006469Y0055813D01*
X0008306Y0055052D01*
X0010085Y0055052D01*
X0010081Y0055048D01*
X0008306Y0055048D01*
X0006469Y0054287D01*
X0005063Y0052881D01*
X0004302Y0051044D01*
X0004302Y0049056D01*
X0005063Y0047219D01*
X0006469Y0045813D01*
X0008306Y0045052D01*
X0010085Y0045052D01*
X0010081Y0045048D01*
X0008306Y0045048D01*
X0006469Y0044287D01*
X0005063Y0042881D01*
X0004302Y0041044D01*
X0004302Y0039056D01*
X0005063Y0037219D01*
X0006469Y0035813D01*
X0008306Y0035052D01*
X0010085Y0035052D01*
X0010081Y0035048D01*
X0008306Y0035048D01*
X0006469Y0034287D01*
X0005063Y0032881D01*
X0004302Y0031044D01*
X0004302Y0029056D01*
X0005063Y0027219D01*
X0006469Y0025813D01*
X0008306Y0025052D01*
X0010294Y0025052D01*
X0012131Y0025813D01*
X0013537Y0027219D01*
X0014298Y0029056D01*
X0014298Y0031044D01*
X0013628Y0032661D01*
X0015952Y0034985D01*
X0015952Y0034376D01*
X0015698Y0034122D01*
X0015276Y0033102D01*
X0015276Y0031998D01*
X0015698Y0030978D01*
X0016478Y0030198D01*
X0017498Y0029776D01*
X0018602Y0029776D01*
X0018902Y0029900D01*
X0018902Y0025848D01*
X0017394Y0025848D01*
X0016182Y0025346D01*
X0015254Y0024418D01*
X0014184Y0023348D01*
X0013070Y0023348D01*
X0012131Y0024287D01*
X0010294Y0025048D01*
X0008306Y0025048D01*
X0006469Y0024287D01*
X0005063Y0022881D01*
X0004302Y0021044D01*
X0004302Y0019056D01*
X0005063Y0017219D01*
X0006469Y0015813D01*
X0008306Y0015052D01*
X0010294Y0015052D01*
X0012131Y0015813D01*
X0013070Y0016752D01*
X0015493Y0016752D01*
X0015276Y0016227D01*
X0015276Y0015123D01*
X0015698Y0014103D01*
X0016246Y0013556D01*
X0015640Y0012950D01*
X0015640Y0007150D01*
X0016400Y0006390D01*
X0022200Y0006390D01*
X0022960Y0007150D01*
X0022960Y0007803D01*
X0023198Y0007228D01*
X0023978Y0006448D01*
X0024998Y0006026D01*
X0026102Y0006026D01*
X0027122Y0006448D01*
X0027376Y0006702D01*
X0028294Y0006702D01*
X0028681Y0007089D01*
X0028681Y0004016D01*
X0028754Y0003744D01*
X0004300Y0003744D01*
X0003962Y0003788D01*
X0003376Y0004126D01*
X0003363Y0004149D02*
X0028681Y0004149D01*
X0028681Y0005747D02*
X0011972Y0005747D01*
X0012131Y0005813D02*
X0013537Y0007219D01*
X0014298Y0009056D01*
X0014298Y0011044D01*
X0013537Y0012881D01*
X0012131Y0014287D01*
X0010294Y0015048D01*
X0008306Y0015048D01*
X0006469Y0014287D01*
X0005063Y0012881D01*
X0004302Y0011044D01*
X0004302Y0009056D01*
X0005063Y0007219D01*
X0006469Y0005813D01*
X0008306Y0005052D01*
X0010294Y0005052D01*
X0012131Y0005813D01*
X0013590Y0007346D02*
X0015640Y0007346D01*
X0015640Y0008944D02*
X0014252Y0008944D01*
X0014298Y0010543D02*
X0015640Y0010543D01*
X0015640Y0012141D02*
X0013844Y0012141D01*
X0012679Y0013740D02*
X0016062Y0013740D01*
X0015276Y0015338D02*
X0010985Y0015338D01*
X0007615Y0015338D02*
X0002994Y0015338D01*
X0002994Y0013740D02*
X0005921Y0013740D01*
X0004756Y0012141D02*
X0002994Y0012141D01*
X0002994Y0010543D02*
X0004302Y0010543D01*
X0004348Y0008944D02*
X0002994Y0008944D01*
X0002994Y0007346D02*
X0005010Y0007346D01*
X0006628Y0005747D02*
X0002994Y0005747D01*
X0002994Y0016937D02*
X0005345Y0016937D01*
X0004518Y0018535D02*
X0002994Y0018535D01*
X0002994Y0020134D02*
X0004302Y0020134D01*
X0004587Y0021732D02*
X0002994Y0021732D01*
X0002994Y0023331D02*
X0005512Y0023331D01*
X0005754Y0026528D02*
X0002994Y0026528D01*
X0002994Y0028126D02*
X0004687Y0028126D01*
X0004302Y0029725D02*
X0002994Y0029725D01*
X0002994Y0031323D02*
X0004418Y0031323D01*
X0005103Y0032922D02*
X0002994Y0032922D01*
X0002994Y0034520D02*
X0007032Y0034520D01*
X0006163Y0036119D02*
X0002994Y0036119D01*
X0002994Y0037717D02*
X0004856Y0037717D01*
X0004302Y0039316D02*
X0002994Y0039316D01*
X0002994Y0040914D02*
X0004302Y0040914D01*
X0004910Y0042513D02*
X0002994Y0042513D01*
X0002994Y0044111D02*
X0006293Y0044111D01*
X0006718Y0045710D02*
X0002994Y0045710D01*
X0002994Y0047308D02*
X0005026Y0047308D01*
X0004364Y0048907D02*
X0002994Y0048907D01*
X0002994Y0050505D02*
X0004302Y0050505D01*
X0004741Y0052104D02*
X0002994Y0052104D01*
X0002994Y0053702D02*
X0005884Y0053702D01*
X0007705Y0055301D02*
X0002994Y0055301D01*
X0002994Y0056899D02*
X0005382Y0056899D01*
X0004533Y0058498D02*
X0002994Y0058498D01*
X0002994Y0060096D02*
X0004302Y0060096D01*
X0004572Y0061695D02*
X0002994Y0061695D01*
X0002994Y0063293D02*
X0005475Y0063293D01*
X0005791Y0066490D02*
X0002994Y0066490D01*
X0002994Y0064892D02*
X0007929Y0064892D01*
X0010671Y0064892D02*
X0015952Y0064892D01*
X0015952Y0066490D02*
X0012809Y0066490D01*
X0013897Y0068089D02*
X0015952Y0068089D01*
X0015952Y0069687D02*
X0014298Y0069687D01*
X0014198Y0071286D02*
X0015952Y0071286D01*
X0015952Y0072884D02*
X0013851Y0072884D01*
X0015450Y0074483D02*
X0015952Y0074483D01*
X0015550Y0077550D02*
X0009300Y0071300D01*
X0009300Y0070050D01*
X0006942Y0074483D02*
X0002994Y0074483D01*
X0002994Y0072884D02*
X0005066Y0072884D01*
X0004402Y0071286D02*
X0002994Y0071286D01*
X0002994Y0069687D02*
X0004302Y0069687D01*
X0004702Y0068089D02*
X0002994Y0068089D01*
X0002994Y0076082D02*
X0006200Y0076082D01*
X0004872Y0077680D02*
X0002994Y0077680D01*
X0002994Y0079279D02*
X0004302Y0079279D01*
X0004302Y0080877D02*
X0002994Y0080877D01*
X0002994Y0082476D02*
X0004895Y0082476D01*
X0006256Y0084074D02*
X0002994Y0084074D01*
X0002994Y0085673D02*
X0006808Y0085673D01*
X0005041Y0087271D02*
X0002994Y0087271D01*
X0002994Y0088870D02*
X0004379Y0088870D01*
X0004302Y0090468D02*
X0002994Y0090468D01*
X0002994Y0092067D02*
X0004726Y0092067D01*
X0005847Y0093665D02*
X0002994Y0093665D01*
X0002994Y0095264D02*
X0007795Y0095264D01*
X0009300Y0091300D02*
X0009300Y0090050D01*
X0009300Y0091300D02*
X0015550Y0097550D01*
X0015550Y0103800D01*
X0018050Y0106300D01*
X0018050Y0112550D01*
X0022509Y0117009D01*
X0024925Y0117009D01*
X0026616Y0119241D02*
X0029026Y0119241D01*
X0029026Y0119352D02*
X0029026Y0118248D01*
X0029318Y0117543D01*
X0028978Y0117402D01*
X0028198Y0116622D01*
X0027776Y0115602D01*
X0027776Y0115149D01*
X0027352Y0115324D01*
X0027164Y0115324D01*
X0027277Y0115437D01*
X0027699Y0116457D01*
X0027699Y0117561D01*
X0027277Y0118580D01*
X0026497Y0119361D01*
X0026452Y0119379D01*
X0027122Y0119657D01*
X0027902Y0120437D01*
X0028324Y0121457D01*
X0028324Y0122561D01*
X0027902Y0123580D01*
X0027248Y0124234D01*
X0027352Y0124234D01*
X0028372Y0124657D01*
X0029152Y0125437D01*
X0029574Y0126457D01*
X0029574Y0127561D01*
X0029152Y0128580D01*
X0028372Y0129361D01*
X0027352Y0129783D01*
X0027248Y0129783D01*
X0027902Y0130437D01*
X0028324Y0131457D01*
X0028324Y0132561D01*
X0027902Y0133580D01*
X0027122Y0134361D01*
X0026764Y0134509D01*
X0027122Y0134657D01*
X0027902Y0135437D01*
X0028324Y0136457D01*
X0028324Y0137561D01*
X0027902Y0138580D01*
X0027122Y0139361D01*
X0026764Y0139509D01*
X0027122Y0139657D01*
X0027902Y0140437D01*
X0028324Y0141457D01*
X0028324Y0142561D01*
X0027902Y0143580D01*
X0027122Y0144361D01*
X0026764Y0144509D01*
X0027122Y0144657D01*
X0027902Y0145437D01*
X0028324Y0146457D01*
X0028324Y0147561D01*
X0027902Y0148580D01*
X0027122Y0149361D01*
X0026764Y0149509D01*
X0027122Y0149657D01*
X0027902Y0150437D01*
X0028324Y0151457D01*
X0028324Y0152561D01*
X0027902Y0153580D01*
X0027122Y0154361D01*
X0026764Y0154509D01*
X0027122Y0154657D01*
X0027902Y0155437D01*
X0028324Y0156457D01*
X0028324Y0157561D01*
X0027902Y0158580D01*
X0027248Y0159234D01*
X0027352Y0159234D01*
X0028372Y0159657D01*
X0028452Y0159737D01*
X0028452Y0137931D01*
X0029681Y0136702D01*
X0039702Y0126681D01*
X0039702Y0126365D01*
X0037669Y0128398D01*
X0036126Y0128398D01*
X0035872Y0128652D01*
X0034852Y0129074D01*
X0033748Y0129074D01*
X0032728Y0128652D01*
X0031948Y0127872D01*
X0031526Y0126852D01*
X0031526Y0125748D01*
X0031818Y0125043D01*
X0031478Y0124902D01*
X0030698Y0124122D01*
X0030276Y0123102D01*
X0030276Y0121998D01*
X0030568Y0121293D01*
X0030228Y0121152D01*
X0029448Y0120372D01*
X0029026Y0119352D01*
X0029276Y0117643D02*
X0027665Y0117643D01*
X0027528Y0116044D02*
X0027959Y0116044D01*
X0026800Y0112550D02*
X0026800Y0107550D01*
X0020550Y0101300D01*
X0020550Y0095050D01*
X0018050Y0092550D01*
X0018050Y0086300D01*
X0015550Y0083800D01*
X0015550Y0077550D01*
X0018050Y0082550D02*
X0018050Y0063800D01*
X0014300Y0060050D01*
X0009300Y0060050D01*
X0013125Y0063293D02*
X0014576Y0063293D01*
X0020550Y0062550D02*
X0009300Y0051300D01*
X0009300Y0050050D01*
X0015550Y0047550D02*
X0009300Y0041300D01*
X0009300Y0040050D01*
X0013889Y0032922D02*
X0015276Y0032922D01*
X0015487Y0034520D02*
X0015952Y0034520D01*
X0015550Y0037550D02*
X0015550Y0043800D01*
X0018050Y0046300D01*
X0018050Y0052550D01*
X0025550Y0060050D01*
X0025550Y0078800D01*
X0028050Y0081300D01*
X0028050Y0087550D01*
X0030550Y0090050D01*
X0030550Y0096300D01*
X0039300Y0105050D01*
X0039300Y0123800D01*
X0036800Y0126300D01*
X0034300Y0126300D01*
X0033164Y0128832D02*
X0028900Y0128832D01*
X0029574Y0127234D02*
X0031684Y0127234D01*
X0031572Y0125635D02*
X0029234Y0125635D01*
X0030663Y0124037D02*
X0027445Y0124037D01*
X0028324Y0122438D02*
X0030276Y0122438D01*
X0029916Y0120840D02*
X0028069Y0120840D01*
X0025550Y0122009D02*
X0023759Y0122009D01*
X0015550Y0113800D01*
X0015550Y0107550D01*
X0009300Y0101300D01*
X0009300Y0100050D01*
X0007839Y0104855D02*
X0002994Y0104855D01*
X0002994Y0106453D02*
X0005829Y0106453D01*
X0004718Y0108052D02*
X0002994Y0108052D01*
X0002994Y0109650D02*
X0004302Y0109650D01*
X0004387Y0111249D02*
X0002994Y0111249D01*
X0002994Y0112847D02*
X0005049Y0112847D01*
X0006852Y0114446D02*
X0002994Y0114446D01*
X0002994Y0116044D02*
X0006237Y0116044D01*
X0004887Y0117643D02*
X0002994Y0117643D01*
X0002994Y0119241D02*
X0004302Y0119241D01*
X0004302Y0120840D02*
X0002994Y0120840D01*
X0002994Y0122438D02*
X0004880Y0122438D01*
X0006219Y0124037D02*
X0002994Y0124037D01*
X0002994Y0125635D02*
X0006897Y0125635D01*
X0005057Y0127234D02*
X0002994Y0127234D01*
X0002994Y0128832D02*
X0004395Y0128832D01*
X0004302Y0130431D02*
X0002994Y0130431D01*
X0002994Y0132029D02*
X0004710Y0132029D01*
X0005810Y0133628D02*
X0002994Y0133628D01*
X0002994Y0135226D02*
X0007885Y0135226D01*
X0010715Y0135226D02*
X0016509Y0135226D01*
X0018108Y0136825D02*
X0013143Y0136825D01*
X0014300Y0140050D02*
X0009300Y0140050D01*
X0007749Y0144818D02*
X0002994Y0144818D01*
X0002994Y0146416D02*
X0005866Y0146416D01*
X0004733Y0148015D02*
X0002994Y0148015D01*
X0002994Y0149613D02*
X0004302Y0149613D01*
X0004371Y0151212D02*
X0002994Y0151212D01*
X0002994Y0152810D02*
X0005033Y0152810D01*
X0006762Y0154409D02*
X0002994Y0154409D01*
X0002994Y0156007D02*
X0006275Y0156007D01*
X0004903Y0157606D02*
X0002994Y0157606D01*
X0002994Y0159204D02*
X0004302Y0159204D01*
X0004302Y0160803D02*
X0002994Y0160803D01*
X0002994Y0162401D02*
X0004864Y0162401D01*
X0006181Y0164000D02*
X0002994Y0164000D01*
X0002994Y0165598D02*
X0006987Y0165598D01*
X0005085Y0167197D02*
X0002994Y0167197D01*
X0002994Y0168795D02*
X0004410Y0168795D01*
X0004302Y0170394D02*
X0002994Y0170394D01*
X0002994Y0171992D02*
X0004695Y0171992D01*
X0005772Y0173591D02*
X0002994Y0173591D01*
X0002994Y0175189D02*
X0007975Y0175189D01*
X0005494Y0176788D02*
X0002994Y0176788D01*
X0002994Y0178386D02*
X0004579Y0178386D01*
X0004302Y0179985D02*
X0002994Y0179985D01*
X0002994Y0181583D02*
X0004525Y0181583D01*
X0005364Y0183182D02*
X0002994Y0183182D01*
X0002994Y0184780D02*
X0007660Y0184780D01*
X0005903Y0186379D02*
X0002994Y0186379D01*
X0002994Y0187977D02*
X0004749Y0187977D01*
X0004302Y0189576D02*
X0002994Y0189576D01*
X0002994Y0191174D02*
X0004356Y0191174D01*
X0005018Y0192773D02*
X0002994Y0192773D01*
X0002994Y0194371D02*
X0006672Y0194371D01*
X0009300Y0190050D02*
X0009300Y0188800D01*
X0015550Y0182550D01*
X0015550Y0176300D01*
X0024841Y0167009D01*
X0026800Y0167009D01*
X0028591Y0167009D01*
X0029300Y0166300D01*
X0030550Y0165050D01*
X0030550Y0138800D01*
X0041800Y0127550D01*
X0041800Y0103800D01*
X0035550Y0097550D01*
X0035550Y0093800D01*
X0034300Y0093800D01*
X0033050Y0092550D01*
X0033050Y0088800D01*
X0030550Y0086300D01*
X0030550Y0080050D01*
X0028050Y0077550D01*
X0028050Y0058800D01*
X0020550Y0051300D01*
X0020550Y0045050D01*
X0018050Y0042550D01*
X0018050Y0032550D01*
X0018902Y0029725D02*
X0014298Y0029725D01*
X0014182Y0031323D02*
X0015555Y0031323D01*
X0013913Y0028126D02*
X0018902Y0028126D01*
X0018902Y0026528D02*
X0012846Y0026528D01*
X0010581Y0024929D02*
X0015765Y0024929D01*
X0019925Y0018800D02*
X0018050Y0016925D01*
X0018050Y0015675D01*
X0019925Y0018800D02*
X0023675Y0018800D01*
X0028050Y0014425D01*
X0028675Y0013800D01*
X0028675Y0010050D01*
X0027425Y0008800D01*
X0025550Y0008800D01*
X0023149Y0007346D02*
X0022960Y0007346D01*
X0028681Y0016761D02*
X0028681Y0018663D01*
X0028804Y0019121D01*
X0028880Y0019252D01*
X0026190Y0019252D01*
X0028681Y0016761D01*
X0028681Y0016937D02*
X0028505Y0016937D01*
X0028675Y0018175D02*
X0030550Y0018175D01*
X0033040Y0015685D01*
X0033040Y0013711D01*
X0032757Y0013740D02*
X0033425Y0013740D01*
X0033425Y0013711D02*
X0034110Y0013711D01*
X0033425Y0013711D01*
X0033425Y0012016D01*
X0032757Y0012016D01*
X0032757Y0019252D01*
X0034110Y0019252D01*
X0034110Y0017977D01*
X0033865Y0017610D01*
X0033574Y0016906D01*
X0033425Y0016159D01*
X0033425Y0013711D01*
X0034110Y0013711D02*
X0034110Y0013711D01*
X0033425Y0012141D02*
X0032757Y0012141D01*
X0032757Y0010663D02*
X0033545Y0010663D01*
X0033574Y0010517D01*
X0033865Y0009813D01*
X0034110Y0009446D01*
X0034110Y0003744D01*
X0032757Y0003744D01*
X0032757Y0010663D01*
X0032757Y0010543D02*
X0033569Y0010543D01*
X0034110Y0008944D02*
X0032757Y0008944D01*
X0032757Y0007346D02*
X0034110Y0007346D01*
X0034110Y0005747D02*
X0032757Y0005747D01*
X0032757Y0004149D02*
X0034110Y0004149D01*
X0038114Y0003744D02*
X0038187Y0004016D01*
X0038187Y0007880D01*
X0038420Y0007926D01*
X0039124Y0008218D01*
X0039757Y0008641D01*
X0040296Y0009179D01*
X0040719Y0009813D01*
X0041010Y0010517D01*
X0041159Y0011264D01*
X0041159Y0013711D01*
X0038187Y0013711D01*
X0038187Y0013711D01*
X0041159Y0013711D01*
X0041159Y0016159D01*
X0041010Y0016906D01*
X0040719Y0017610D01*
X0040296Y0018243D01*
X0039757Y0018782D01*
X0039124Y0019205D01*
X0039011Y0019252D01*
X0048706Y0019252D01*
X0049918Y0019754D01*
X0050650Y0020486D01*
X0050964Y0019728D01*
X0051418Y0019274D01*
X0051418Y0018998D01*
X0052090Y0018326D01*
X0053201Y0017215D01*
X0056024Y0017215D01*
X0057749Y0018940D01*
X0058748Y0018526D01*
X0059852Y0018526D01*
X0060872Y0018948D01*
X0061326Y0019402D01*
X0069951Y0019402D01*
X0069476Y0019205D01*
X0068843Y0018782D01*
X0068304Y0018243D01*
X0067881Y0017610D01*
X0067590Y0016906D01*
X0067441Y0016159D01*
X0067441Y0013711D01*
X0067441Y0011264D01*
X0067590Y0010517D01*
X0067881Y0009813D01*
X0068304Y0009179D01*
X0068843Y0008641D01*
X0069476Y0008218D01*
X0070180Y0007926D01*
X0070413Y0007880D01*
X0070413Y0004016D01*
X0070486Y0003744D01*
X0038114Y0003744D01*
X0038187Y0004149D02*
X0070413Y0004149D01*
X0070413Y0005747D02*
X0038187Y0005747D01*
X0038187Y0007346D02*
X0070413Y0007346D01*
X0068540Y0008944D02*
X0040060Y0008944D01*
X0041016Y0010543D02*
X0067584Y0010543D01*
X0067441Y0012141D02*
X0041159Y0012141D01*
X0041159Y0013740D02*
X0067441Y0013740D01*
X0067441Y0013711D02*
X0070413Y0013711D01*
X0067441Y0013711D01*
X0067441Y0015338D02*
X0041159Y0015338D01*
X0040998Y0016937D02*
X0067602Y0016937D01*
X0068596Y0018535D02*
X0059875Y0018535D01*
X0058725Y0018535D02*
X0057344Y0018535D01*
X0055857Y0022416D02*
X0055668Y0022872D01*
X0054887Y0023652D01*
X0054130Y0023966D01*
X0060105Y0029941D01*
X0061033Y0030869D01*
X0061535Y0032081D01*
X0061535Y0041523D01*
X0061503Y0041599D01*
X0061503Y0048036D01*
X0062044Y0048577D01*
X0062767Y0049300D01*
X0062885Y0049182D01*
X0063056Y0049011D01*
X0063037Y0049000D01*
X0062702Y0048665D01*
X0062465Y0048255D01*
X0062343Y0047797D01*
X0062343Y0041051D01*
X0065927Y0041051D01*
X0065927Y0040683D01*
X0062343Y0040683D01*
X0062343Y0033937D01*
X0062465Y0033479D01*
X0062702Y0033069D01*
X0063037Y0032734D01*
X0063448Y0032497D01*
X0063906Y0032374D01*
X0065927Y0032374D01*
X0065927Y0040683D01*
X0066295Y0040683D01*
X0066295Y0032374D01*
X0067441Y0032374D01*
X0067441Y0030168D01*
X0067441Y0029955D01*
X0067135Y0030262D01*
X0066189Y0030653D01*
X0065166Y0030653D01*
X0064221Y0030262D01*
X0063498Y0029538D01*
X0063106Y0028593D01*
X0063106Y0027570D01*
X0063498Y0026625D01*
X0064221Y0025901D01*
X0065166Y0025510D01*
X0066189Y0025510D01*
X0067135Y0025901D01*
X0067770Y0026537D01*
X0067881Y0026270D01*
X0068304Y0025636D01*
X0068843Y0025098D01*
X0069476Y0024674D01*
X0070180Y0024383D01*
X0070927Y0024234D01*
X0071308Y0024234D01*
X0071689Y0024234D01*
X0072436Y0024383D01*
X0072719Y0024500D01*
X0074490Y0024500D01*
X0074490Y0025903D01*
X0074735Y0026270D01*
X0075026Y0026973D01*
X0075175Y0027720D01*
X0075175Y0030168D01*
X0074490Y0030168D01*
X0074490Y0030168D01*
X0075175Y0030168D01*
X0075175Y0031529D01*
X0075843Y0031529D01*
X0075843Y0032882D01*
X0079919Y0032882D01*
X0079919Y0038112D01*
X0080123Y0038197D01*
X0080952Y0039026D01*
X0080952Y0032604D01*
X0080698Y0032350D01*
X0080276Y0031330D01*
X0080276Y0030226D01*
X0080698Y0029207D01*
X0081478Y0028426D01*
X0082498Y0028004D01*
X0083602Y0028004D01*
X0084622Y0028426D01*
X0085402Y0029207D01*
X0085824Y0030226D01*
X0085824Y0031330D01*
X0085402Y0032350D01*
X0085148Y0032604D01*
X0085148Y0038735D01*
X0085952Y0037931D01*
X0085952Y0031681D01*
X0088452Y0029181D01*
X0088452Y0022931D01*
X0092202Y0019181D01*
X0093431Y0017952D01*
X0094759Y0017952D01*
X0095063Y0017219D01*
X0096469Y0015813D01*
X0098306Y0015052D01*
X0100294Y0015052D01*
X0102131Y0015813D01*
X0103537Y0017219D01*
X0104298Y0019056D01*
X0104298Y0021044D01*
X0103537Y0022881D01*
X0102131Y0024287D01*
X0100294Y0025048D01*
X0098306Y0025048D01*
X0096469Y0024287D01*
X0095063Y0022881D01*
X0094879Y0022438D01*
X0092648Y0024669D01*
X0092648Y0028735D01*
X0093431Y0027952D01*
X0094759Y0027952D01*
X0095063Y0027219D01*
X0096469Y0025813D01*
X0098306Y0025052D01*
X0100294Y0025052D01*
X0102131Y0025813D01*
X0103537Y0027219D01*
X0104298Y0029056D01*
X0104298Y0031044D01*
X0103537Y0032881D01*
X0102131Y0034287D01*
X0100294Y0035048D01*
X0098306Y0035048D01*
X0096469Y0034287D01*
X0095063Y0032881D01*
X0094879Y0032438D01*
X0092648Y0034669D01*
X0092648Y0038735D01*
X0093431Y0037952D01*
X0094759Y0037952D01*
X0095063Y0037219D01*
X0096469Y0035813D01*
X0098306Y0035052D01*
X0100294Y0035052D01*
X0102131Y0035813D01*
X0103537Y0037219D01*
X0104298Y0039056D01*
X0104298Y0041044D01*
X0103537Y0042881D01*
X0102131Y0044287D01*
X0100294Y0045048D01*
X0098306Y0045048D01*
X0096469Y0044287D01*
X0095063Y0042881D01*
X0094879Y0042438D01*
X0092648Y0044669D01*
X0092648Y0048735D01*
X0093431Y0047952D01*
X0094759Y0047952D01*
X0095063Y0047219D01*
X0096469Y0045813D01*
X0098306Y0045052D01*
X0100294Y0045052D01*
X0102131Y0045813D01*
X0103537Y0047219D01*
X0104298Y0049056D01*
X0104298Y0051044D01*
X0103537Y0052881D01*
X0102131Y0054287D01*
X0100294Y0055048D01*
X0098306Y0055048D01*
X0096469Y0054287D01*
X0095063Y0052881D01*
X0094879Y0052438D01*
X0093176Y0054141D01*
X0093324Y0054498D01*
X0093324Y0055602D01*
X0092902Y0056622D01*
X0092122Y0057402D01*
X0091102Y0057824D01*
X0089998Y0057824D01*
X0088978Y0057402D01*
X0088898Y0057322D01*
X0088898Y0062485D01*
X0093431Y0057952D01*
X0094759Y0057952D01*
X0095063Y0057219D01*
X0096469Y0055813D01*
X0098306Y0055052D01*
X0100294Y0055052D01*
X0102131Y0055813D01*
X0103537Y0057219D01*
X0104298Y0059056D01*
X0104298Y0061044D01*
X0103537Y0062881D01*
X0102131Y0064287D01*
X0100294Y0065048D01*
X0098306Y0065048D01*
X0096469Y0064287D01*
X0095063Y0062881D01*
X0094879Y0062438D01*
X0093176Y0064141D01*
X0093324Y0064498D01*
X0093324Y0065602D01*
X0092902Y0066622D01*
X0092648Y0066876D01*
X0092648Y0068735D01*
X0093431Y0067952D01*
X0094759Y0067952D01*
X0095063Y0067219D01*
X0096469Y0065813D01*
X0098306Y0065052D01*
X0100294Y0065052D01*
X0102131Y0065813D01*
X0103537Y0067219D01*
X0104298Y0069056D01*
X0104298Y0071044D01*
X0103537Y0072881D01*
X0102131Y0074287D01*
X0100294Y0075048D01*
X0098306Y0075048D01*
X0096469Y0074287D01*
X0095063Y0072881D01*
X0094879Y0072438D01*
X0093176Y0074141D01*
X0093324Y0074498D01*
X0093324Y0075602D01*
X0092902Y0076622D01*
X0092648Y0076876D01*
X0092648Y0078735D01*
X0093431Y0077952D01*
X0094759Y0077952D01*
X0095063Y0077219D01*
X0096469Y0075813D01*
X0098306Y0075052D01*
X0100294Y0075052D01*
X0102131Y0075813D01*
X0103537Y0077219D01*
X0104298Y0079056D01*
X0104298Y0081044D01*
X0103537Y0082881D01*
X0102131Y0084287D01*
X0100294Y0085048D01*
X0098306Y0085048D01*
X0096469Y0084287D01*
X0095063Y0082881D01*
X0094879Y0082438D01*
X0092648Y0084669D01*
X0092648Y0088735D01*
X0093431Y0087952D01*
X0094759Y0087952D01*
X0095063Y0087219D01*
X0096469Y0085813D01*
X0098306Y0085052D01*
X0100294Y0085052D01*
X0102131Y0085813D01*
X0103537Y0087219D01*
X0104298Y0089056D01*
X0104298Y0091044D01*
X0103537Y0092881D01*
X0102131Y0094287D01*
X0100294Y0095048D01*
X0098306Y0095048D01*
X0096469Y0094287D01*
X0095063Y0092881D01*
X0094879Y0092438D01*
X0092648Y0094669D01*
X0092648Y0098735D01*
X0093431Y0097952D01*
X0094759Y0097952D01*
X0095063Y0097219D01*
X0096469Y0095813D01*
X0098306Y0095052D01*
X0100294Y0095052D01*
X0102131Y0095813D01*
X0103537Y0097219D01*
X0104298Y0099056D01*
X0104298Y0101044D01*
X0103537Y0102881D01*
X0102131Y0104287D01*
X0100294Y0105048D01*
X0098306Y0105048D01*
X0096469Y0104287D01*
X0095063Y0102881D01*
X0094879Y0102438D01*
X0092648Y0104669D01*
X0092648Y0108735D01*
X0093431Y0107952D01*
X0094759Y0107952D01*
X0095063Y0107219D01*
X0096469Y0105813D01*
X0098306Y0105052D01*
X0100294Y0105052D01*
X0102131Y0105813D01*
X0103537Y0107219D01*
X0104298Y0109056D01*
X0104298Y0111044D01*
X0103537Y0112881D01*
X0102131Y0114287D01*
X0100294Y0115048D01*
X0098306Y0115048D01*
X0096469Y0114287D01*
X0095063Y0112881D01*
X0094879Y0112438D01*
X0092648Y0114669D01*
X0092648Y0118735D01*
X0093431Y0117952D01*
X0094759Y0117952D01*
X0095063Y0117219D01*
X0096469Y0115813D01*
X0098306Y0115052D01*
X0100294Y0115052D01*
X0102131Y0115813D01*
X0103537Y0117219D01*
X0104298Y0119056D01*
X0104298Y0121044D01*
X0103537Y0122881D01*
X0102131Y0124287D01*
X0100294Y0125048D01*
X0098306Y0125048D01*
X0096469Y0124287D01*
X0095063Y0122881D01*
X0094879Y0122438D01*
X0092648Y0124669D01*
X0092648Y0128735D01*
X0093431Y0127952D01*
X0094759Y0127952D01*
X0095063Y0127219D01*
X0096469Y0125813D01*
X0098306Y0125052D01*
X0100294Y0125052D01*
X0102131Y0125813D01*
X0103537Y0127219D01*
X0104298Y0129056D01*
X0104298Y0131044D01*
X0103537Y0132881D01*
X0102131Y0134287D01*
X0100294Y0135048D01*
X0098306Y0135048D01*
X0096469Y0134287D01*
X0095063Y0132881D01*
X0094879Y0132438D01*
X0089365Y0137952D01*
X0094759Y0137952D01*
X0095063Y0137219D01*
X0096469Y0135813D01*
X0098306Y0135052D01*
X0100294Y0135052D01*
X0102131Y0135813D01*
X0103537Y0137219D01*
X0104298Y0139056D01*
X0104298Y0141044D01*
X0103537Y0142881D01*
X0102131Y0144287D01*
X0100294Y0145048D01*
X0098306Y0145048D01*
X0096469Y0144287D01*
X0095063Y0142881D01*
X0094759Y0142148D01*
X0090169Y0142148D01*
X0086865Y0145452D01*
X0087669Y0145452D01*
X0088294Y0146077D01*
X0089523Y0147306D01*
X0089523Y0150452D01*
X0090931Y0150452D01*
X0092202Y0149181D01*
X0093431Y0147952D01*
X0094759Y0147952D01*
X0095063Y0147219D01*
X0096469Y0145813D01*
X0098306Y0145052D01*
X0100294Y0145052D01*
X0102131Y0145813D01*
X0103537Y0147219D01*
X0104298Y0149056D01*
X0104298Y0151044D01*
X0103537Y0152881D01*
X0102131Y0154287D01*
X0100294Y0155048D01*
X0098306Y0155048D01*
X0096469Y0154287D01*
X0095063Y0152881D01*
X0094879Y0152438D01*
X0092669Y0154648D01*
X0091865Y0154648D01*
X0092023Y0154806D01*
X0092648Y0155431D01*
X0092648Y0156993D01*
X0093607Y0157952D01*
X0094759Y0157952D01*
X0095063Y0157219D01*
X0096469Y0155813D01*
X0098306Y0155052D01*
X0100294Y0155052D01*
X0102131Y0155813D01*
X0103537Y0157219D01*
X0104298Y0159056D01*
X0104298Y0161044D01*
X0103537Y0162881D01*
X0102131Y0164287D01*
X0100294Y0165048D01*
X0098306Y0165048D01*
X0096469Y0164287D01*
X0095063Y0162881D01*
X0094759Y0162148D01*
X0091868Y0162148D01*
X0089681Y0159960D01*
X0088452Y0158732D01*
X0088452Y0157773D01*
X0087753Y0157773D01*
X0086419Y0159107D01*
X0083626Y0159107D01*
X0083372Y0159361D01*
X0083014Y0159509D01*
X0083372Y0159657D01*
X0083626Y0159911D01*
X0087128Y0159911D01*
X0094879Y0167662D01*
X0095063Y0167219D01*
X0096469Y0165813D01*
X0098306Y0165052D01*
X0100294Y0165052D01*
X0102131Y0165813D01*
X0103537Y0167219D01*
X0104298Y0169056D01*
X0104298Y0171044D01*
X0103537Y0172881D01*
X0102131Y0174287D01*
X0100294Y0175048D01*
X0098306Y0175048D01*
X0096469Y0174287D01*
X0095063Y0172881D01*
X0094759Y0172148D01*
X0093431Y0172148D01*
X0092648Y0171365D01*
X0092648Y0175431D01*
X0094879Y0177662D01*
X0095063Y0177219D01*
X0096469Y0175813D01*
X0098306Y0175052D01*
X0100294Y0175052D01*
X0102131Y0175813D01*
X0103537Y0177219D01*
X0104298Y0179056D01*
X0104298Y0181044D01*
X0103537Y0182881D01*
X0102131Y0184287D01*
X0100294Y0185048D01*
X0098515Y0185048D01*
X0098519Y0185052D01*
X0100294Y0185052D01*
X0102131Y0185813D01*
X0103537Y0187219D01*
X0104298Y0189056D01*
X0104298Y0191044D01*
X0103537Y0192881D01*
X0102131Y0194287D01*
X0100914Y0194791D01*
X0101411Y0194953D01*
X0102183Y0195346D01*
X0102883Y0195855D01*
X0103495Y0196467D01*
X0104004Y0197167D01*
X0104397Y0197939D01*
X0104665Y0198762D01*
X0104800Y0199617D01*
X0104800Y0199850D01*
X0099500Y0199850D01*
X0099500Y0200250D01*
X0099100Y0200250D01*
X0099100Y0205550D01*
X0098867Y0205550D01*
X0098012Y0205415D01*
X0097189Y0205147D01*
X0096417Y0204754D01*
X0095717Y0204245D01*
X0095105Y0203633D01*
X0094596Y0202933D01*
X0094300Y0202352D01*
X0094300Y0206356D01*
X0104300Y0206356D01*
X0104638Y0206312D01*
X0105224Y0205974D01*
X0105562Y0205388D01*
X0105606Y0205050D01*
X0105606Y0005050D01*
X0105562Y0004712D01*
X0105224Y0004126D01*
X0104638Y0003788D01*
X0104300Y0003744D01*
X0079846Y0003744D01*
X0079919Y0004016D01*
X0079919Y0010663D01*
X0075843Y0010663D01*
X0075843Y0012016D01*
X0079919Y0012016D01*
X0079919Y0015497D01*
X0089139Y0006277D01*
X0093211Y0006277D01*
X0094323Y0007389D01*
X0094796Y0007862D01*
X0095063Y0007219D01*
X0096469Y0005813D01*
X0098306Y0005052D01*
X0100294Y0005052D01*
X0102131Y0005813D01*
X0103537Y0007219D01*
X0104298Y0009056D01*
X0104298Y0011044D01*
X0103537Y0012881D01*
X0102131Y0014287D01*
X0100294Y0015048D01*
X0098306Y0015048D01*
X0096469Y0014287D01*
X0095063Y0012881D01*
X0094676Y0011948D01*
X0093514Y0011948D01*
X0091639Y0010073D01*
X0090711Y0010073D01*
X0078698Y0022086D01*
X0077586Y0023198D01*
X0061326Y0023198D01*
X0060872Y0023652D01*
X0059852Y0024074D01*
X0058748Y0024074D01*
X0057728Y0023652D01*
X0057274Y0023198D01*
X0056639Y0023198D01*
X0055857Y0022416D01*
X0055209Y0023331D02*
X0057407Y0023331D01*
X0056692Y0026528D02*
X0063595Y0026528D01*
X0063106Y0028126D02*
X0058290Y0028126D01*
X0059889Y0029725D02*
X0063684Y0029725D01*
X0062849Y0032922D02*
X0061535Y0032922D01*
X0061535Y0034520D02*
X0062343Y0034520D01*
X0062343Y0036119D02*
X0061535Y0036119D01*
X0061535Y0037717D02*
X0062343Y0037717D01*
X0062343Y0039316D02*
X0061535Y0039316D01*
X0061535Y0040914D02*
X0065927Y0040914D01*
X0065927Y0039316D02*
X0066295Y0039316D01*
X0066295Y0037717D02*
X0065927Y0037717D01*
X0065927Y0036119D02*
X0066295Y0036119D01*
X0066295Y0034520D02*
X0065927Y0034520D01*
X0065927Y0032922D02*
X0066295Y0032922D01*
X0067441Y0031323D02*
X0061221Y0031323D01*
X0061193Y0023331D02*
X0088452Y0023331D01*
X0088452Y0024929D02*
X0079294Y0024929D01*
X0079224Y0024860D02*
X0079559Y0025195D01*
X0079796Y0025605D01*
X0079919Y0026063D01*
X0079919Y0031529D01*
X0075843Y0031529D01*
X0075843Y0024500D01*
X0078356Y0024500D01*
X0078814Y0024623D01*
X0079224Y0024860D01*
X0079919Y0026528D02*
X0088452Y0026528D01*
X0088452Y0028126D02*
X0083897Y0028126D01*
X0085617Y0029725D02*
X0087908Y0029725D01*
X0086310Y0031323D02*
X0085824Y0031323D01*
X0085952Y0032922D02*
X0085148Y0032922D01*
X0085148Y0034520D02*
X0085952Y0034520D01*
X0085952Y0036119D02*
X0085148Y0036119D01*
X0085148Y0037717D02*
X0085952Y0037717D01*
X0088050Y0038800D02*
X0085550Y0041300D01*
X0085550Y0046300D01*
X0079300Y0052550D01*
X0079300Y0066300D01*
X0076800Y0068800D01*
X0076800Y0075050D01*
X0075550Y0076300D01*
X0075550Y0082550D01*
X0073050Y0085050D01*
X0073050Y0091300D01*
X0070550Y0093800D01*
X0070550Y0100050D01*
X0059300Y0111300D01*
X0059300Y0116300D01*
X0063050Y0120050D01*
X0064925Y0120050D01*
X0066053Y0122586D02*
X0066398Y0122931D01*
X0066398Y0123577D01*
X0067044Y0123577D01*
X0067669Y0124202D01*
X0068898Y0125431D01*
X0068898Y0126077D01*
X0069544Y0126077D01*
X0070773Y0127306D01*
X0071398Y0127931D01*
X0071398Y0128577D01*
X0072044Y0128577D01*
X0072669Y0129202D01*
X0073898Y0130431D01*
X0073898Y0131077D01*
X0074544Y0131077D01*
X0075169Y0131702D01*
X0076398Y0132931D01*
X0076398Y0133577D01*
X0077044Y0133577D01*
X0077669Y0134202D01*
X0078898Y0135431D01*
X0078898Y0136681D01*
X0078919Y0136702D01*
X0079026Y0136809D01*
X0079026Y0136457D01*
X0079448Y0135437D01*
X0080228Y0134657D01*
X0080586Y0134509D01*
X0080228Y0134361D01*
X0079448Y0133580D01*
X0079026Y0132561D01*
X0079026Y0131457D01*
X0079448Y0130437D01*
X0080228Y0129657D01*
X0080586Y0129509D01*
X0080228Y0129361D01*
X0079448Y0128580D01*
X0079026Y0127561D01*
X0079026Y0126457D01*
X0079448Y0125437D01*
X0080102Y0124783D01*
X0079998Y0124783D01*
X0078978Y0124361D01*
X0078198Y0123580D01*
X0077776Y0122561D01*
X0077776Y0121574D01*
X0077498Y0121574D01*
X0076478Y0121152D01*
X0075698Y0120372D01*
X0075276Y0119352D01*
X0075276Y0118899D01*
X0074852Y0119074D01*
X0073748Y0119074D01*
X0073324Y0118899D01*
X0073324Y0119352D01*
X0072902Y0120372D01*
X0072122Y0121152D01*
X0071102Y0121574D01*
X0069998Y0121574D01*
X0068978Y0121152D01*
X0068198Y0120372D01*
X0067776Y0119352D01*
X0067776Y0118899D01*
X0067499Y0119014D01*
X0067699Y0119498D01*
X0067699Y0120602D01*
X0067277Y0121622D01*
X0066497Y0122402D01*
X0066053Y0122586D01*
X0066409Y0122438D02*
X0077776Y0122438D01*
X0078655Y0124037D02*
X0067504Y0124037D01*
X0066175Y0125675D02*
X0066800Y0126300D01*
X0066800Y0127550D01*
X0067425Y0128175D01*
X0068675Y0128175D01*
X0069300Y0128800D01*
X0069300Y0130050D01*
X0069925Y0130675D01*
X0071175Y0130675D01*
X0071800Y0131300D01*
X0071800Y0132550D01*
X0072425Y0133175D01*
X0073675Y0133175D01*
X0074300Y0133800D01*
X0074300Y0135050D01*
X0074925Y0135675D01*
X0076175Y0135675D01*
X0076800Y0136300D01*
X0076800Y0137550D01*
X0078050Y0138800D01*
X0078050Y0150050D01*
X0080009Y0152009D01*
X0081800Y0152009D01*
X0084216Y0152009D01*
X0084925Y0151300D01*
X0084925Y0148175D01*
X0085550Y0147550D01*
X0086800Y0147550D01*
X0087425Y0148175D01*
X0087425Y0151769D01*
X0088206Y0152550D01*
X0091800Y0152550D01*
X0094300Y0150050D01*
X0099300Y0150050D01*
X0096762Y0154409D02*
X0092908Y0154409D01*
X0092648Y0156007D02*
X0096275Y0156007D01*
X0094903Y0157606D02*
X0093260Y0157606D01*
X0092737Y0160050D02*
X0090550Y0157863D01*
X0090550Y0156300D01*
X0089925Y0155675D01*
X0086884Y0155675D01*
X0085550Y0157009D01*
X0081800Y0157009D01*
X0083528Y0159204D02*
X0088925Y0159204D01*
X0088020Y0160803D02*
X0090523Y0160803D01*
X0089618Y0162401D02*
X0094864Y0162401D01*
X0096181Y0164000D02*
X0091217Y0164000D01*
X0092815Y0165598D02*
X0096987Y0165598D01*
X0095085Y0167197D02*
X0094414Y0167197D01*
X0094300Y0170050D02*
X0086259Y0162009D01*
X0081800Y0162009D01*
X0074384Y0162009D01*
X0073050Y0160675D01*
X0073050Y0141300D01*
X0051800Y0120050D01*
X0051800Y0098800D01*
X0046800Y0093800D01*
X0046800Y0091925D01*
X0047425Y0091300D01*
X0048050Y0091300D01*
X0048675Y0090675D01*
X0048675Y0088175D01*
X0048050Y0087550D01*
X0046800Y0087550D01*
X0038050Y0078800D01*
X0038050Y0076300D01*
X0035550Y0073800D01*
X0035550Y0064425D01*
X0037425Y0062550D01*
X0039925Y0065675D02*
X0038050Y0067550D01*
X0038050Y0072550D01*
X0040550Y0075050D01*
X0040550Y0077550D01*
X0046800Y0083800D01*
X0051175Y0083800D01*
X0052425Y0080675D02*
X0055550Y0083800D01*
X0055743Y0081026D02*
X0054712Y0079995D01*
X0055536Y0079995D01*
X0056664Y0079527D01*
X0057527Y0078664D01*
X0057995Y0077536D01*
X0057995Y0077337D01*
X0062202Y0081544D01*
X0062202Y0086056D01*
X0056577Y0091681D01*
X0056577Y0103556D01*
X0053898Y0106235D01*
X0053898Y0097931D01*
X0049142Y0093175D01*
X0050148Y0092169D01*
X0050773Y0091544D01*
X0050773Y0087306D01*
X0049630Y0086163D01*
X0050623Y0086574D01*
X0051727Y0086574D01*
X0052747Y0086152D01*
X0053362Y0085536D01*
X0053978Y0086152D01*
X0054998Y0086574D01*
X0056102Y0086574D01*
X0057122Y0086152D01*
X0057902Y0085372D01*
X0058324Y0084352D01*
X0058324Y0083248D01*
X0057902Y0082228D01*
X0057122Y0081448D01*
X0056102Y0081026D01*
X0055743Y0081026D01*
X0055594Y0080877D02*
X0061535Y0080877D01*
X0062202Y0082476D02*
X0058004Y0082476D01*
X0058324Y0084074D02*
X0062202Y0084074D01*
X0062202Y0085673D02*
X0057601Y0085673D01*
X0059388Y0088870D02*
X0050773Y0088870D01*
X0050773Y0090468D02*
X0057790Y0090468D01*
X0056577Y0092067D02*
X0050250Y0092067D01*
X0049632Y0093665D02*
X0056577Y0093665D01*
X0056577Y0095264D02*
X0051231Y0095264D01*
X0052829Y0096862D02*
X0056577Y0096862D01*
X0056577Y0098461D02*
X0053898Y0098461D01*
X0053898Y0100059D02*
X0056577Y0100059D01*
X0056577Y0101658D02*
X0053898Y0101658D01*
X0053898Y0103256D02*
X0056577Y0103256D01*
X0055278Y0104855D02*
X0053898Y0104855D01*
X0054300Y0108800D02*
X0058675Y0104425D01*
X0058675Y0092550D01*
X0064300Y0086925D01*
X0064300Y0080675D01*
X0058675Y0075050D01*
X0058675Y0064425D01*
X0042489Y0048239D01*
X0042489Y0040867D01*
X0045755Y0040914D02*
X0047096Y0040914D01*
X0047096Y0039316D02*
X0045755Y0039316D01*
X0045755Y0037717D02*
X0047096Y0037717D01*
X0047096Y0036119D02*
X0045755Y0036119D01*
X0045755Y0034520D02*
X0047096Y0034520D01*
X0047096Y0033636D02*
X0047857Y0032876D01*
X0052869Y0032876D01*
X0053629Y0033636D01*
X0053629Y0047952D01*
X0054971Y0047952D01*
X0054971Y0041599D01*
X0054939Y0041523D01*
X0054939Y0034103D01*
X0046684Y0025848D01*
X0044250Y0025848D01*
X0044379Y0025901D01*
X0045102Y0026625D01*
X0045494Y0027570D01*
X0045494Y0028593D01*
X0045102Y0029538D01*
X0044379Y0030262D01*
X0043434Y0030653D01*
X0042411Y0030653D01*
X0041465Y0030262D01*
X0041159Y0029955D01*
X0041159Y0030168D01*
X0038187Y0030168D01*
X0038187Y0030168D01*
X0041159Y0030168D01*
X0041159Y0032616D01*
X0041107Y0032876D01*
X0044995Y0032876D01*
X0045755Y0033636D01*
X0045755Y0048097D01*
X0045535Y0048318D01*
X0048265Y0051048D01*
X0048265Y0048858D01*
X0047857Y0048858D01*
X0047096Y0048097D01*
X0047096Y0033636D01*
X0047811Y0032922D02*
X0045041Y0032922D01*
X0044916Y0029725D02*
X0050561Y0029725D01*
X0048962Y0028126D02*
X0045494Y0028126D01*
X0045005Y0026528D02*
X0047364Y0026528D01*
X0050298Y0020134D02*
X0050796Y0020134D01*
X0051881Y0018535D02*
X0040004Y0018535D01*
X0037292Y0012016D02*
X0037292Y0010663D01*
X0037292Y0012016D01*
X0037292Y0012016D01*
X0037292Y0010663D02*
X0037292Y0010663D01*
X0034110Y0018535D02*
X0032757Y0018535D01*
X0032757Y0016937D02*
X0033586Y0016937D01*
X0033425Y0015338D02*
X0032757Y0015338D01*
X0028681Y0018535D02*
X0026907Y0018535D01*
X0037292Y0031529D02*
X0037292Y0032882D01*
X0037292Y0032882D01*
X0037292Y0031529D01*
X0037292Y0031529D01*
X0041159Y0031323D02*
X0052159Y0031323D01*
X0052915Y0032922D02*
X0053758Y0032922D01*
X0053629Y0034520D02*
X0054939Y0034520D01*
X0054939Y0036119D02*
X0053629Y0036119D01*
X0053629Y0037717D02*
X0054939Y0037717D01*
X0054939Y0039316D02*
X0053629Y0039316D01*
X0053629Y0040914D02*
X0054939Y0040914D01*
X0054971Y0042513D02*
X0053629Y0042513D01*
X0053629Y0044111D02*
X0054971Y0044111D01*
X0054971Y0045710D02*
X0053629Y0045710D01*
X0053629Y0047308D02*
X0054971Y0047308D01*
X0054925Y0050050D02*
X0053675Y0050050D01*
X0053050Y0050675D01*
X0053050Y0051925D01*
X0052425Y0052550D01*
X0051175Y0052550D01*
X0050363Y0051738D01*
X0050363Y0040867D01*
X0047096Y0042513D02*
X0045755Y0042513D01*
X0045755Y0044111D02*
X0047096Y0044111D01*
X0047096Y0045710D02*
X0045755Y0045710D01*
X0045755Y0047308D02*
X0047096Y0047308D01*
X0046124Y0048907D02*
X0048265Y0048907D01*
X0048265Y0050505D02*
X0047722Y0050505D01*
X0044840Y0058498D02*
X0041965Y0058498D01*
X0043242Y0056899D02*
X0040366Y0056899D01*
X0039574Y0056107D02*
X0043919Y0060452D01*
X0045148Y0061681D01*
X0045148Y0068419D01*
X0042892Y0070675D01*
X0043919Y0071702D01*
X0045148Y0072931D01*
X0045148Y0075431D01*
X0048294Y0078577D01*
X0052287Y0078577D01*
X0051855Y0077536D01*
X0051855Y0076314D01*
X0052323Y0075186D01*
X0052427Y0075082D01*
X0052427Y0066085D01*
X0034682Y0048340D01*
X0034302Y0047422D01*
X0034302Y0043798D01*
X0030678Y0043798D01*
X0029760Y0043418D01*
X0029073Y0042731D01*
X0029073Y0046975D01*
X0031196Y0049097D01*
X0031697Y0048890D01*
X0033153Y0048890D01*
X0034498Y0049447D01*
X0035528Y0050477D01*
X0036085Y0051822D01*
X0036085Y0053278D01*
X0035928Y0053658D01*
X0036248Y0053526D01*
X0037352Y0053526D01*
X0038372Y0053948D01*
X0039152Y0054728D01*
X0039574Y0055748D01*
X0039574Y0056107D01*
X0039389Y0055301D02*
X0041643Y0055301D01*
X0040045Y0053702D02*
X0037779Y0053702D01*
X0038050Y0052550D02*
X0037425Y0052550D01*
X0038050Y0052550D02*
X0050550Y0065050D01*
X0050550Y0066300D01*
X0050550Y0072550D01*
X0049300Y0073800D01*
X0049300Y0076300D01*
X0047397Y0077680D02*
X0051915Y0077680D01*
X0051952Y0076082D02*
X0045799Y0076082D01*
X0045148Y0074483D02*
X0052427Y0074483D01*
X0052427Y0072884D02*
X0045102Y0072884D01*
X0043503Y0071286D02*
X0052427Y0071286D01*
X0052427Y0069687D02*
X0043880Y0069687D01*
X0045148Y0068089D02*
X0052427Y0068089D01*
X0052427Y0066490D02*
X0045148Y0066490D01*
X0045148Y0064892D02*
X0051234Y0064892D01*
X0049636Y0063293D02*
X0045148Y0063293D01*
X0045148Y0061695D02*
X0048037Y0061695D01*
X0046439Y0060096D02*
X0043563Y0060096D01*
X0043050Y0062550D02*
X0043050Y0067550D01*
X0040550Y0070050D01*
X0040550Y0071300D01*
X0043050Y0073800D01*
X0043050Y0076300D01*
X0047425Y0080675D01*
X0052425Y0080675D01*
X0053226Y0085673D02*
X0053499Y0085673D01*
X0050738Y0087271D02*
X0060987Y0087271D01*
X0066800Y0088175D02*
X0061175Y0093800D01*
X0061175Y0100675D01*
X0061800Y0101300D01*
X0063050Y0101300D01*
X0063675Y0101925D01*
X0063675Y0103175D01*
X0063050Y0103800D01*
X0061800Y0103800D01*
X0061175Y0104425D01*
X0061175Y0105675D01*
X0056800Y0110050D01*
X0056800Y0117550D01*
X0062425Y0123175D01*
X0063675Y0123175D01*
X0064300Y0123800D01*
X0064300Y0125050D01*
X0064925Y0125675D01*
X0066175Y0125675D01*
X0067601Y0120840D02*
X0068666Y0120840D01*
X0067776Y0119241D02*
X0067593Y0119241D01*
X0066800Y0116300D02*
X0066800Y0111300D01*
X0075550Y0102550D01*
X0075550Y0096300D01*
X0078050Y0093800D01*
X0078050Y0087550D01*
X0080550Y0085050D01*
X0080550Y0078800D01*
X0081800Y0077550D01*
X0081800Y0071300D01*
X0084300Y0068800D01*
X0084300Y0055050D01*
X0090550Y0048800D01*
X0090550Y0043800D01*
X0094300Y0040050D01*
X0099300Y0040050D01*
X0101882Y0045710D02*
X0105606Y0045710D01*
X0105606Y0047308D02*
X0103574Y0047308D01*
X0104236Y0048907D02*
X0105606Y0048907D01*
X0105606Y0050505D02*
X0104298Y0050505D01*
X0103859Y0052104D02*
X0105606Y0052104D01*
X0105606Y0053702D02*
X0102716Y0053702D01*
X0100895Y0055301D02*
X0105606Y0055301D01*
X0105606Y0056899D02*
X0103218Y0056899D01*
X0104067Y0058498D02*
X0105606Y0058498D01*
X0105606Y0060096D02*
X0104298Y0060096D01*
X0104028Y0061695D02*
X0105606Y0061695D01*
X0105606Y0063293D02*
X0103125Y0063293D01*
X0102809Y0066490D02*
X0105606Y0066490D01*
X0105606Y0064892D02*
X0100671Y0064892D01*
X0097929Y0064892D02*
X0093324Y0064892D01*
X0092956Y0066490D02*
X0095791Y0066490D01*
X0095475Y0063293D02*
X0094024Y0063293D01*
X0094300Y0060050D02*
X0099300Y0060050D01*
X0097705Y0055301D02*
X0093324Y0055301D01*
X0093615Y0053702D02*
X0095884Y0053702D01*
X0095382Y0056899D02*
X0092624Y0056899D01*
X0092885Y0058498D02*
X0088898Y0058498D01*
X0088898Y0060096D02*
X0091287Y0060096D01*
X0089688Y0061695D02*
X0088898Y0061695D01*
X0090550Y0063800D02*
X0094300Y0060050D01*
X0090550Y0063800D02*
X0090550Y0065050D01*
X0090550Y0067550D01*
X0090550Y0065050D01*
X0090550Y0067550D02*
X0090550Y0070050D01*
X0086800Y0073800D01*
X0086800Y0080050D01*
X0085550Y0081300D01*
X0085550Y0087550D01*
X0083050Y0090050D01*
X0083050Y0096300D01*
X0080550Y0098800D01*
X0080550Y0105050D01*
X0074300Y0111300D01*
X0074300Y0116300D01*
X0073324Y0119241D02*
X0075276Y0119241D01*
X0076166Y0120840D02*
X0072434Y0120840D01*
X0070550Y0118800D02*
X0070550Y0111300D01*
X0078050Y0103800D01*
X0078050Y0097550D01*
X0080550Y0095050D01*
X0080550Y0088800D01*
X0083050Y0086300D01*
X0083050Y0080050D01*
X0084300Y0078800D01*
X0084300Y0072550D01*
X0086800Y0070050D01*
X0086800Y0056300D01*
X0088050Y0055050D01*
X0090550Y0055050D01*
X0090550Y0053800D01*
X0094300Y0050050D01*
X0099300Y0050050D01*
X0096718Y0045710D02*
X0092648Y0045710D01*
X0092648Y0047308D02*
X0095026Y0047308D01*
X0096293Y0044111D02*
X0093206Y0044111D01*
X0094804Y0042513D02*
X0094910Y0042513D01*
X0094856Y0037717D02*
X0092648Y0037717D01*
X0092648Y0036119D02*
X0096163Y0036119D01*
X0097032Y0034520D02*
X0092797Y0034520D01*
X0094395Y0032922D02*
X0095103Y0032922D01*
X0094300Y0030050D02*
X0099300Y0030050D01*
X0101568Y0034520D02*
X0105606Y0034520D01*
X0105606Y0032922D02*
X0103496Y0032922D01*
X0104182Y0031323D02*
X0105606Y0031323D01*
X0105606Y0029725D02*
X0104298Y0029725D01*
X0103913Y0028126D02*
X0105606Y0028126D01*
X0105606Y0026528D02*
X0102846Y0026528D01*
X0103088Y0023331D02*
X0105606Y0023331D01*
X0105606Y0024929D02*
X0100581Y0024929D01*
X0098019Y0024929D02*
X0092648Y0024929D01*
X0092648Y0026528D02*
X0095754Y0026528D01*
X0095512Y0023331D02*
X0093986Y0023331D01*
X0094300Y0020050D02*
X0099300Y0020050D01*
X0100985Y0015338D02*
X0105606Y0015338D01*
X0105606Y0013740D02*
X0102679Y0013740D01*
X0103844Y0012141D02*
X0105606Y0012141D01*
X0105606Y0010543D02*
X0104298Y0010543D01*
X0104252Y0008944D02*
X0105606Y0008944D01*
X0105606Y0007346D02*
X0103590Y0007346D01*
X0101972Y0005747D02*
X0105606Y0005747D01*
X0105237Y0004149D02*
X0079919Y0004149D01*
X0079919Y0005747D02*
X0096628Y0005747D01*
X0095010Y0007346D02*
X0094280Y0007346D01*
X0094300Y0005050D02*
X0089300Y0005050D01*
X0083011Y0011339D01*
X0075166Y0011339D01*
X0075175Y0012016D02*
X0075175Y0013711D01*
X0074490Y0013711D01*
X0074490Y0013711D01*
X0075175Y0013711D01*
X0075175Y0016159D01*
X0075026Y0016906D01*
X0074735Y0017610D01*
X0074490Y0017977D01*
X0074490Y0019402D01*
X0075843Y0019402D01*
X0075843Y0012016D01*
X0075175Y0012016D01*
X0075175Y0012141D02*
X0075843Y0012141D01*
X0075843Y0010663D02*
X0075843Y0003744D01*
X0074490Y0003744D01*
X0074490Y0009446D01*
X0074735Y0009813D01*
X0075026Y0010517D01*
X0075055Y0010663D01*
X0075843Y0010663D01*
X0075843Y0010543D02*
X0075031Y0010543D01*
X0074490Y0008944D02*
X0075843Y0008944D01*
X0075843Y0007346D02*
X0074490Y0007346D01*
X0074490Y0005747D02*
X0075843Y0005747D01*
X0075843Y0004149D02*
X0074490Y0004149D01*
X0079919Y0007346D02*
X0088070Y0007346D01*
X0086472Y0008944D02*
X0079919Y0008944D01*
X0079919Y0010543D02*
X0084873Y0010543D01*
X0083275Y0012141D02*
X0079919Y0012141D01*
X0079919Y0013740D02*
X0081676Y0013740D01*
X0080078Y0015338D02*
X0079919Y0015338D01*
X0082249Y0018535D02*
X0092848Y0018535D01*
X0094300Y0020050D02*
X0090550Y0023800D01*
X0090550Y0030050D01*
X0088050Y0032550D01*
X0088050Y0038800D01*
X0090550Y0040050D02*
X0088050Y0042550D01*
X0088050Y0047550D01*
X0081800Y0053800D01*
X0081800Y0067550D01*
X0079300Y0070050D01*
X0079300Y0076300D01*
X0078050Y0077550D01*
X0078050Y0083800D01*
X0075550Y0086300D01*
X0075550Y0092550D01*
X0073050Y0095050D01*
X0073050Y0101300D01*
X0063050Y0111300D01*
X0063050Y0113800D01*
X0068898Y0125635D02*
X0079366Y0125635D01*
X0079026Y0127234D02*
X0070701Y0127234D01*
X0070773Y0127306D02*
X0070773Y0127306D01*
X0072299Y0128832D02*
X0079700Y0128832D01*
X0079454Y0130431D02*
X0073898Y0130431D01*
X0075496Y0132029D02*
X0079026Y0132029D01*
X0079496Y0133628D02*
X0077095Y0133628D01*
X0078693Y0135226D02*
X0079659Y0135226D01*
X0081800Y0137009D02*
X0083591Y0137009D01*
X0090550Y0130050D01*
X0090550Y0123800D01*
X0094300Y0120050D01*
X0099300Y0120050D01*
X0101703Y0125635D02*
X0105606Y0125635D01*
X0105606Y0124037D02*
X0102381Y0124037D01*
X0103720Y0122438D02*
X0105606Y0122438D01*
X0105606Y0120840D02*
X0104298Y0120840D01*
X0104298Y0119241D02*
X0105606Y0119241D01*
X0105606Y0117643D02*
X0103713Y0117643D01*
X0102363Y0116044D02*
X0105606Y0116044D01*
X0105606Y0114446D02*
X0101748Y0114446D01*
X0103551Y0112847D02*
X0105606Y0112847D01*
X0105606Y0111249D02*
X0104213Y0111249D01*
X0104298Y0109650D02*
X0105606Y0109650D01*
X0105606Y0108052D02*
X0103882Y0108052D01*
X0102771Y0106453D02*
X0105606Y0106453D01*
X0105606Y0104855D02*
X0100761Y0104855D01*
X0103162Y0103256D02*
X0105606Y0103256D01*
X0105606Y0101658D02*
X0104044Y0101658D01*
X0104298Y0100059D02*
X0105606Y0100059D01*
X0105606Y0098461D02*
X0104051Y0098461D01*
X0103180Y0096862D02*
X0105606Y0096862D01*
X0105606Y0095264D02*
X0100805Y0095264D01*
X0102753Y0093665D02*
X0105606Y0093665D01*
X0105606Y0092067D02*
X0103874Y0092067D01*
X0104298Y0090468D02*
X0105606Y0090468D01*
X0105606Y0088870D02*
X0104221Y0088870D01*
X0103559Y0087271D02*
X0105606Y0087271D01*
X0105606Y0085673D02*
X0101792Y0085673D01*
X0102344Y0084074D02*
X0105606Y0084074D01*
X0105606Y0082476D02*
X0103705Y0082476D01*
X0104298Y0080877D02*
X0105606Y0080877D01*
X0105606Y0079279D02*
X0104298Y0079279D01*
X0103728Y0077680D02*
X0105606Y0077680D01*
X0105606Y0076082D02*
X0102400Y0076082D01*
X0101658Y0074483D02*
X0105606Y0074483D01*
X0105606Y0072884D02*
X0103534Y0072884D01*
X0104198Y0071286D02*
X0105606Y0071286D01*
X0105606Y0069687D02*
X0104298Y0069687D01*
X0103897Y0068089D02*
X0105606Y0068089D01*
X0099300Y0070050D02*
X0094300Y0070050D01*
X0090550Y0073800D01*
X0090550Y0075050D01*
X0090550Y0080050D01*
X0088050Y0082550D01*
X0088050Y0088800D01*
X0085550Y0091300D01*
X0085550Y0097550D01*
X0083050Y0100050D01*
X0083050Y0106300D01*
X0078050Y0111300D01*
X0078050Y0118800D01*
X0080550Y0122009D02*
X0081091Y0122009D01*
X0085550Y0117550D01*
X0085550Y0111300D01*
X0088050Y0108800D01*
X0088050Y0102550D01*
X0090550Y0100050D01*
X0090550Y0093800D01*
X0094300Y0090050D01*
X0099300Y0090050D01*
X0096808Y0085673D02*
X0092648Y0085673D01*
X0092648Y0087271D02*
X0095041Y0087271D01*
X0096256Y0084074D02*
X0093243Y0084074D01*
X0094841Y0082476D02*
X0094895Y0082476D01*
X0094300Y0080050D02*
X0099300Y0080050D01*
X0096200Y0076082D02*
X0093126Y0076082D01*
X0093318Y0074483D02*
X0096942Y0074483D01*
X0095066Y0072884D02*
X0094432Y0072884D01*
X0094872Y0077680D02*
X0092648Y0077680D01*
X0094300Y0080050D02*
X0090550Y0083800D01*
X0090550Y0090050D01*
X0088050Y0092550D01*
X0088050Y0098800D01*
X0085550Y0101300D01*
X0085550Y0107550D01*
X0081800Y0111300D01*
X0081800Y0117009D01*
X0085550Y0121300D02*
X0088050Y0118800D01*
X0088050Y0112550D01*
X0090550Y0110050D01*
X0090550Y0103800D01*
X0094300Y0100050D01*
X0099300Y0100050D01*
X0097795Y0095264D02*
X0092648Y0095264D01*
X0092648Y0096862D02*
X0095420Y0096862D01*
X0092922Y0098461D02*
X0092648Y0098461D01*
X0093652Y0093665D02*
X0095847Y0093665D01*
X0095438Y0103256D02*
X0094061Y0103256D01*
X0092648Y0104855D02*
X0097839Y0104855D01*
X0095829Y0106453D02*
X0092648Y0106453D01*
X0092648Y0108052D02*
X0093331Y0108052D01*
X0094300Y0110050D02*
X0099300Y0110050D01*
X0096852Y0114446D02*
X0092871Y0114446D01*
X0092648Y0116044D02*
X0096237Y0116044D01*
X0094887Y0117643D02*
X0092648Y0117643D01*
X0090550Y0120050D02*
X0090550Y0113800D01*
X0094300Y0110050D01*
X0094470Y0112847D02*
X0095049Y0112847D01*
X0090550Y0120050D02*
X0088050Y0122550D01*
X0088050Y0128800D01*
X0084841Y0132009D01*
X0081800Y0132009D01*
X0081800Y0127009D02*
X0083591Y0127009D01*
X0085550Y0125050D01*
X0085550Y0121300D01*
X0093280Y0124037D02*
X0096219Y0124037D01*
X0096897Y0125635D02*
X0092648Y0125635D01*
X0092648Y0127234D02*
X0095057Y0127234D01*
X0094300Y0130050D02*
X0082341Y0142009D01*
X0081800Y0142009D01*
X0081800Y0147009D02*
X0082341Y0147009D01*
X0089300Y0140050D01*
X0099300Y0140050D01*
X0097749Y0144818D02*
X0087499Y0144818D01*
X0088633Y0146416D02*
X0095866Y0146416D01*
X0095401Y0143219D02*
X0089098Y0143219D01*
X0089523Y0148015D02*
X0093368Y0148015D01*
X0091770Y0149613D02*
X0089523Y0149613D01*
X0094507Y0152810D02*
X0095033Y0152810D01*
X0092737Y0160050D02*
X0099300Y0160050D01*
X0101613Y0165598D02*
X0105606Y0165598D01*
X0105606Y0164000D02*
X0102419Y0164000D01*
X0103736Y0162401D02*
X0105606Y0162401D01*
X0105606Y0160803D02*
X0104298Y0160803D01*
X0104298Y0159204D02*
X0105606Y0159204D01*
X0105606Y0157606D02*
X0103697Y0157606D01*
X0102325Y0156007D02*
X0105606Y0156007D01*
X0105606Y0154409D02*
X0101838Y0154409D01*
X0103567Y0152810D02*
X0105606Y0152810D01*
X0105606Y0151212D02*
X0104229Y0151212D01*
X0104298Y0149613D02*
X0105606Y0149613D01*
X0105606Y0148015D02*
X0103867Y0148015D01*
X0102734Y0146416D02*
X0105606Y0146416D01*
X0105606Y0144818D02*
X0100851Y0144818D01*
X0103199Y0143219D02*
X0105606Y0143219D01*
X0105606Y0141620D02*
X0104059Y0141620D01*
X0104298Y0140022D02*
X0105606Y0140022D01*
X0105606Y0138423D02*
X0104036Y0138423D01*
X0103143Y0136825D02*
X0105606Y0136825D01*
X0105606Y0135226D02*
X0100715Y0135226D01*
X0102790Y0133628D02*
X0105606Y0133628D01*
X0105606Y0132029D02*
X0103890Y0132029D01*
X0104298Y0130431D02*
X0105606Y0130431D01*
X0105606Y0128832D02*
X0104205Y0128832D01*
X0103543Y0127234D02*
X0105606Y0127234D01*
X0099300Y0130050D02*
X0094300Y0130050D01*
X0093689Y0133628D02*
X0095810Y0133628D01*
X0097885Y0135226D02*
X0092091Y0135226D01*
X0090492Y0136825D02*
X0095457Y0136825D01*
X0094879Y0122438D02*
X0094880Y0122438D01*
X0075550Y0157550D02*
X0076800Y0158800D01*
X0075550Y0157550D02*
X0075550Y0140050D01*
X0054300Y0118800D01*
X0054300Y0108800D01*
X0049300Y0100050D02*
X0044300Y0095050D01*
X0044300Y0088800D01*
X0035550Y0080050D01*
X0035550Y0077550D01*
X0033050Y0075050D01*
X0033050Y0061300D01*
X0034925Y0059425D01*
X0036800Y0056300D02*
X0043050Y0062550D01*
X0038446Y0052104D02*
X0036085Y0052104D01*
X0035540Y0050505D02*
X0036848Y0050505D01*
X0035249Y0048907D02*
X0033194Y0048907D01*
X0031656Y0048907D02*
X0031005Y0048907D01*
X0029407Y0047308D02*
X0034302Y0047308D01*
X0034302Y0045710D02*
X0029073Y0045710D01*
X0029073Y0044111D02*
X0034302Y0044111D01*
X0023050Y0050050D02*
X0030550Y0057550D01*
X0030550Y0076300D01*
X0033050Y0078800D01*
X0033050Y0083175D01*
X0034925Y0085050D01*
X0037425Y0087550D02*
X0037425Y0088800D01*
X0028050Y0097550D02*
X0036800Y0106300D01*
X0036800Y0121300D01*
X0035550Y0122550D01*
X0033050Y0122550D01*
X0031800Y0118800D02*
X0034300Y0116300D01*
X0034300Y0107550D01*
X0025550Y0098800D01*
X0025550Y0092550D01*
X0023050Y0090050D01*
X0023050Y0083800D01*
X0020550Y0081300D01*
X0020550Y0062550D01*
X0023050Y0061300D02*
X0015550Y0053800D01*
X0015550Y0047550D01*
X0021175Y0041925D02*
X0021175Y0038800D01*
X0021175Y0041925D02*
X0023050Y0043800D01*
X0023050Y0050050D01*
X0023050Y0061300D02*
X0023050Y0080050D01*
X0025550Y0082550D01*
X0025550Y0088800D01*
X0028050Y0091300D01*
X0028050Y0097550D01*
X0023050Y0100050D02*
X0023050Y0093800D01*
X0020550Y0091300D01*
X0020550Y0085050D01*
X0018050Y0082550D01*
X0015550Y0087550D02*
X0009300Y0081300D01*
X0009300Y0080050D01*
X0015550Y0087550D02*
X0015550Y0093800D01*
X0018050Y0096300D01*
X0018050Y0102550D01*
X0021800Y0106300D01*
X0021800Y0107550D01*
X0023050Y0100050D02*
X0031800Y0108800D01*
X0031800Y0113800D01*
X0030550Y0115050D01*
X0026800Y0127009D02*
X0025009Y0127009D01*
X0009300Y0111300D01*
X0009300Y0110050D01*
X0005438Y0103256D02*
X0002994Y0103256D01*
X0002994Y0101658D02*
X0004556Y0101658D01*
X0004302Y0100059D02*
X0002994Y0100059D01*
X0002994Y0098461D02*
X0004549Y0098461D01*
X0005420Y0096862D02*
X0002994Y0096862D01*
X0009300Y0120050D02*
X0014300Y0120050D01*
X0025550Y0131300D01*
X0025550Y0132009D01*
X0027854Y0133628D02*
X0032755Y0133628D01*
X0034354Y0132029D02*
X0028324Y0132029D01*
X0027896Y0130431D02*
X0035952Y0130431D01*
X0035436Y0128832D02*
X0037551Y0128832D01*
X0038833Y0127234D02*
X0039149Y0127234D01*
X0043788Y0135226D02*
X0060259Y0135226D01*
X0058661Y0133628D02*
X0045386Y0133628D01*
X0046985Y0132029D02*
X0057062Y0132029D01*
X0055464Y0130431D02*
X0048444Y0130431D01*
X0048346Y0130668D02*
X0047418Y0131596D01*
X0041483Y0137531D01*
X0042797Y0137531D01*
X0042797Y0141017D01*
X0042969Y0141017D01*
X0042969Y0141189D01*
X0048309Y0141189D01*
X0048309Y0143043D01*
X0048309Y0146529D01*
X0048480Y0146529D01*
X0048480Y0141189D01*
X0048309Y0141189D01*
X0048309Y0141017D01*
X0048480Y0141017D01*
X0048480Y0137531D01*
X0050403Y0137531D01*
X0050861Y0137654D01*
X0051150Y0137821D01*
X0051440Y0137654D01*
X0051898Y0137531D01*
X0053820Y0137531D01*
X0053820Y0141017D01*
X0050335Y0141017D01*
X0048480Y0141017D01*
X0048480Y0141189D01*
X0053820Y0141189D01*
X0053820Y0141017D01*
X0053992Y0141017D01*
X0053992Y0137531D01*
X0055915Y0137531D01*
X0056373Y0137654D01*
X0056783Y0137891D01*
X0057118Y0138226D01*
X0057355Y0138637D01*
X0057478Y0139095D01*
X0057478Y0141017D01*
X0053992Y0141017D01*
X0053992Y0141189D01*
X0053820Y0141189D01*
X0053820Y0144675D01*
X0053820Y0146529D01*
X0051966Y0146529D01*
X0048480Y0146529D01*
X0048480Y0146701D01*
X0048309Y0146701D01*
X0048309Y0152041D01*
X0048480Y0152041D01*
X0048480Y0150187D01*
X0048480Y0146701D01*
X0053820Y0146701D01*
X0053820Y0146529D01*
X0053992Y0146529D01*
X0053992Y0141189D01*
X0057478Y0141189D01*
X0057478Y0143112D01*
X0057355Y0143570D01*
X0057188Y0143859D01*
X0057355Y0144149D01*
X0057478Y0144606D01*
X0057478Y0146529D01*
X0053992Y0146529D01*
X0053992Y0146701D01*
X0053820Y0146701D01*
X0053820Y0152041D01*
X0050335Y0152041D01*
X0048480Y0152041D01*
X0048480Y0152213D01*
X0048309Y0152213D01*
X0048309Y0155698D01*
X0046386Y0155698D01*
X0045928Y0155576D01*
X0045639Y0155409D01*
X0045349Y0155576D01*
X0044891Y0155698D01*
X0042969Y0155698D01*
X0042969Y0152213D01*
X0048309Y0152213D01*
X0048309Y0152041D01*
X0044823Y0152041D01*
X0042969Y0152041D01*
X0042969Y0152213D01*
X0042797Y0152213D01*
X0042797Y0155698D01*
X0040874Y0155698D01*
X0040416Y0155576D01*
X0040006Y0155339D01*
X0039671Y0155004D01*
X0039434Y0154593D01*
X0039311Y0154135D01*
X0039311Y0152213D01*
X0042797Y0152213D01*
X0042797Y0152041D01*
X0042969Y0152041D01*
X0042969Y0150187D01*
X0042969Y0146701D01*
X0046454Y0146701D01*
X0048309Y0146701D01*
X0048309Y0146529D01*
X0042969Y0146529D01*
X0042969Y0146701D01*
X0042797Y0146701D01*
X0042797Y0152041D01*
X0039311Y0152041D01*
X0039311Y0150118D01*
X0039434Y0149660D01*
X0039601Y0149371D01*
X0039434Y0149081D01*
X0039311Y0148624D01*
X0039311Y0146701D01*
X0042797Y0146701D01*
X0042797Y0146529D01*
X0042969Y0146529D01*
X0042969Y0141189D01*
X0042797Y0141189D01*
X0042797Y0143043D01*
X0042797Y0146529D01*
X0039311Y0146529D01*
X0039311Y0144606D01*
X0039434Y0144149D01*
X0039601Y0143859D01*
X0039434Y0143570D01*
X0039311Y0143112D01*
X0039311Y0141189D01*
X0042797Y0141189D01*
X0042797Y0141017D01*
X0039311Y0141017D01*
X0039311Y0139703D01*
X0037598Y0141416D01*
X0037598Y0163496D01*
X0041816Y0163496D01*
X0042576Y0164256D01*
X0042576Y0165188D01*
X0043022Y0165188D01*
X0043022Y0164557D01*
X0043144Y0164099D01*
X0043381Y0163689D01*
X0043716Y0163354D01*
X0044127Y0163117D01*
X0044585Y0162994D01*
X0046507Y0162994D01*
X0046507Y0167464D01*
X0046679Y0167464D01*
X0046679Y0162994D01*
X0048602Y0162994D01*
X0049060Y0163117D01*
X0049470Y0163354D01*
X0049805Y0163689D01*
X0050042Y0164099D01*
X0050165Y0164557D01*
X0050165Y0167464D01*
X0046679Y0167464D01*
X0046679Y0167636D01*
X0050165Y0167636D01*
X0050165Y0170543D01*
X0050042Y0171001D01*
X0049805Y0171411D01*
X0049470Y0171746D01*
X0049060Y0171983D01*
X0048602Y0172106D01*
X0047779Y0172106D01*
X0047842Y0172343D01*
X0047842Y0173800D01*
X0047842Y0175257D01*
X0047719Y0175715D01*
X0047482Y0176126D01*
X0047147Y0176461D01*
X0046737Y0176698D01*
X0046279Y0176820D01*
X0044822Y0176820D01*
X0044822Y0173800D01*
X0047842Y0173800D01*
X0044822Y0173800D01*
X0044822Y0173800D01*
X0044822Y0173800D01*
X0044822Y0176820D01*
X0043364Y0176820D01*
X0042906Y0176698D01*
X0042496Y0176461D01*
X0042354Y0176318D01*
X0039520Y0176318D01*
X0038760Y0175558D01*
X0038760Y0174814D01*
X0037389Y0173443D01*
X0037009Y0172525D01*
X0037009Y0172005D01*
X0036168Y0172846D01*
X0034209Y0174805D01*
X0032997Y0175307D01*
X0029027Y0175307D01*
X0028153Y0175669D01*
X0026697Y0175669D01*
X0025695Y0175254D01*
X0022198Y0178750D01*
X0022198Y0178800D01*
X0086333Y0178800D01*
X0085952Y0178419D01*
X0085952Y0173419D01*
X0084681Y0172148D01*
X0084574Y0172148D01*
X0084574Y0172561D01*
X0084152Y0173580D01*
X0083372Y0174361D01*
X0082352Y0174783D01*
X0081248Y0174783D01*
X0080228Y0174361D01*
X0079448Y0173580D01*
X0079026Y0172561D01*
X0079026Y0171457D01*
X0079448Y0170437D01*
X0080228Y0169657D01*
X0080586Y0169509D01*
X0080228Y0169361D01*
X0079448Y0168580D01*
X0079026Y0167561D01*
X0079026Y0166457D01*
X0079448Y0165437D01*
X0080228Y0164657D01*
X0080586Y0164509D01*
X0080228Y0164361D01*
X0079974Y0164107D01*
X0073515Y0164107D01*
X0070952Y0161544D01*
X0070952Y0155623D01*
X0070164Y0155949D01*
X0069061Y0155949D01*
X0068041Y0155527D01*
X0067260Y0154747D01*
X0066838Y0153727D01*
X0066838Y0152623D01*
X0067260Y0151603D01*
X0067515Y0151349D01*
X0067515Y0142482D01*
X0048848Y0123815D01*
X0048848Y0129456D01*
X0048346Y0130668D01*
X0047418Y0131596D02*
X0047418Y0131596D01*
X0048848Y0128832D02*
X0053865Y0128832D01*
X0052267Y0127234D02*
X0048848Y0127234D01*
X0048848Y0125635D02*
X0050668Y0125635D01*
X0049070Y0124037D02*
X0048848Y0124037D01*
X0049300Y0121300D02*
X0049300Y0100050D01*
X0049300Y0121300D02*
X0069613Y0141613D01*
X0069613Y0153175D01*
X0067515Y0151212D02*
X0057478Y0151212D01*
X0057478Y0152041D02*
X0057478Y0150118D01*
X0057355Y0149660D01*
X0057188Y0149371D01*
X0057355Y0149081D01*
X0057478Y0148624D01*
X0057478Y0146701D01*
X0053992Y0146701D01*
X0053992Y0148555D01*
X0053992Y0152041D01*
X0053820Y0152041D01*
X0053820Y0152213D01*
X0053820Y0155698D01*
X0051898Y0155698D01*
X0051440Y0155576D01*
X0051150Y0155409D01*
X0050861Y0155576D01*
X0050403Y0155698D01*
X0048480Y0155698D01*
X0048480Y0152213D01*
X0053820Y0152213D01*
X0053992Y0152213D01*
X0053992Y0155698D01*
X0055915Y0155698D01*
X0056373Y0155576D01*
X0056783Y0155339D01*
X0057118Y0155004D01*
X0057355Y0154593D01*
X0057478Y0154135D01*
X0057478Y0152213D01*
X0053992Y0152213D01*
X0053992Y0152041D01*
X0057478Y0152041D01*
X0057478Y0152810D02*
X0066838Y0152810D01*
X0067121Y0154409D02*
X0057405Y0154409D01*
X0057328Y0149613D02*
X0067515Y0149613D01*
X0067515Y0148015D02*
X0057478Y0148015D01*
X0057478Y0146416D02*
X0067515Y0146416D01*
X0067515Y0144818D02*
X0057478Y0144818D01*
X0057449Y0143219D02*
X0067515Y0143219D01*
X0066653Y0141620D02*
X0057478Y0141620D01*
X0057478Y0140022D02*
X0065055Y0140022D01*
X0063456Y0138423D02*
X0057232Y0138423D01*
X0053992Y0138423D02*
X0053820Y0138423D01*
X0053820Y0140022D02*
X0053992Y0140022D01*
X0053992Y0141620D02*
X0053820Y0141620D01*
X0053820Y0143219D02*
X0053992Y0143219D01*
X0053992Y0144818D02*
X0053820Y0144818D01*
X0053820Y0146416D02*
X0053992Y0146416D01*
X0053992Y0148015D02*
X0053820Y0148015D01*
X0053820Y0149613D02*
X0053992Y0149613D01*
X0053992Y0151212D02*
X0053820Y0151212D01*
X0053820Y0152810D02*
X0053992Y0152810D01*
X0053992Y0154409D02*
X0053820Y0154409D01*
X0048480Y0154409D02*
X0048309Y0154409D01*
X0048309Y0152810D02*
X0048480Y0152810D01*
X0048480Y0151212D02*
X0048309Y0151212D01*
X0048309Y0149613D02*
X0048480Y0149613D01*
X0048480Y0148015D02*
X0048309Y0148015D01*
X0048309Y0146416D02*
X0048480Y0146416D01*
X0048480Y0144818D02*
X0048309Y0144818D01*
X0048309Y0143219D02*
X0048480Y0143219D01*
X0048480Y0141620D02*
X0048309Y0141620D01*
X0048309Y0141017D02*
X0044823Y0141017D01*
X0042969Y0141017D01*
X0042969Y0137531D01*
X0044891Y0137531D01*
X0045349Y0137654D01*
X0045639Y0137821D01*
X0045928Y0137654D01*
X0046386Y0137531D01*
X0048309Y0137531D01*
X0048309Y0141017D01*
X0048309Y0140022D02*
X0048480Y0140022D01*
X0048480Y0138423D02*
X0048309Y0138423D01*
X0042969Y0138423D02*
X0042797Y0138423D01*
X0042797Y0140022D02*
X0042969Y0140022D01*
X0042969Y0141620D02*
X0042797Y0141620D01*
X0042797Y0143219D02*
X0042969Y0143219D01*
X0042969Y0144818D02*
X0042797Y0144818D01*
X0042797Y0146416D02*
X0042969Y0146416D01*
X0042969Y0148015D02*
X0042797Y0148015D01*
X0042797Y0149613D02*
X0042969Y0149613D01*
X0042969Y0151212D02*
X0042797Y0151212D01*
X0042797Y0152810D02*
X0042969Y0152810D01*
X0042969Y0154409D02*
X0042797Y0154409D01*
X0039384Y0154409D02*
X0037598Y0154409D01*
X0037598Y0156007D02*
X0070952Y0156007D01*
X0070952Y0157606D02*
X0037598Y0157606D01*
X0037598Y0159204D02*
X0070952Y0159204D01*
X0070952Y0160803D02*
X0037598Y0160803D01*
X0037598Y0162401D02*
X0071809Y0162401D01*
X0073408Y0164000D02*
X0049985Y0164000D01*
X0050165Y0165598D02*
X0079381Y0165598D01*
X0079026Y0167197D02*
X0050165Y0167197D01*
X0050165Y0168795D02*
X0079663Y0168795D01*
X0079491Y0170394D02*
X0050165Y0170394D01*
X0049026Y0171992D02*
X0079026Y0171992D01*
X0079459Y0173591D02*
X0047842Y0173591D01*
X0047842Y0175189D02*
X0085952Y0175189D01*
X0085952Y0173591D02*
X0084141Y0173591D01*
X0081800Y0172009D02*
X0081800Y0171300D01*
X0083050Y0170050D01*
X0085550Y0170050D01*
X0088050Y0172550D01*
X0088050Y0177550D01*
X0099300Y0188800D01*
X0099300Y0190050D01*
X0097686Y0194791D02*
X0096469Y0194287D01*
X0095063Y0192881D01*
X0094302Y0191044D01*
X0094302Y0189056D01*
X0094972Y0187439D01*
X0094300Y0186767D01*
X0094300Y0197748D01*
X0094596Y0197167D01*
X0095105Y0196467D01*
X0095717Y0195855D01*
X0096417Y0195346D01*
X0097189Y0194953D01*
X0097686Y0194791D01*
X0096672Y0194371D02*
X0094300Y0194371D01*
X0094300Y0192773D02*
X0095018Y0192773D01*
X0094356Y0191174D02*
X0094300Y0191174D01*
X0094300Y0189576D02*
X0094302Y0189576D01*
X0094300Y0187977D02*
X0094749Y0187977D01*
X0094300Y0180050D02*
X0099300Y0180050D01*
X0100940Y0184780D02*
X0105606Y0184780D01*
X0105606Y0183182D02*
X0103236Y0183182D01*
X0104075Y0181583D02*
X0105606Y0181583D01*
X0105606Y0179985D02*
X0104298Y0179985D01*
X0104021Y0178386D02*
X0105606Y0178386D01*
X0105606Y0176788D02*
X0103106Y0176788D01*
X0100625Y0175189D02*
X0105606Y0175189D01*
X0105606Y0173591D02*
X0102827Y0173591D01*
X0103905Y0171992D02*
X0105606Y0171992D01*
X0105606Y0170394D02*
X0104298Y0170394D01*
X0104190Y0168795D02*
X0105606Y0168795D01*
X0105606Y0167197D02*
X0103515Y0167197D01*
X0099300Y0170050D02*
X0094300Y0170050D01*
X0093275Y0171992D02*
X0092648Y0171992D01*
X0092648Y0173591D02*
X0095772Y0173591D01*
X0097975Y0175189D02*
X0092648Y0175189D01*
X0094005Y0176788D02*
X0095494Y0176788D01*
X0094300Y0180050D02*
X0090550Y0176300D01*
X0090550Y0170363D01*
X0087196Y0167009D01*
X0081800Y0167009D01*
X0085952Y0176788D02*
X0046401Y0176788D01*
X0044822Y0176788D02*
X0044822Y0176788D01*
X0044822Y0175189D02*
X0044822Y0175189D01*
X0043242Y0176788D02*
X0024161Y0176788D01*
X0022562Y0178386D02*
X0085952Y0178386D01*
X0094300Y0195970D02*
X0095602Y0195970D01*
X0094392Y0197568D02*
X0094300Y0197568D01*
X0094300Y0202364D02*
X0094306Y0202364D01*
X0094300Y0203962D02*
X0095434Y0203962D01*
X0094300Y0205561D02*
X0105462Y0205561D01*
X0105606Y0203962D02*
X0103166Y0203962D01*
X0102883Y0204245D02*
X0102183Y0204754D01*
X0101411Y0205147D01*
X0100588Y0205415D01*
X0099733Y0205550D01*
X0099500Y0205550D01*
X0099500Y0200250D01*
X0104800Y0200250D01*
X0104800Y0200483D01*
X0104665Y0201338D01*
X0104397Y0202161D01*
X0104004Y0202933D01*
X0103495Y0203633D01*
X0102883Y0204245D01*
X0104294Y0202364D02*
X0105606Y0202364D01*
X0105606Y0200765D02*
X0104755Y0200765D01*
X0104729Y0199167D02*
X0105606Y0199167D01*
X0105606Y0197568D02*
X0104208Y0197568D01*
X0102998Y0195970D02*
X0105606Y0195970D01*
X0105606Y0194371D02*
X0101928Y0194371D01*
X0103582Y0192773D02*
X0105606Y0192773D01*
X0105606Y0191174D02*
X0104244Y0191174D01*
X0104298Y0189576D02*
X0105606Y0189576D01*
X0105606Y0187977D02*
X0103851Y0187977D01*
X0102697Y0186379D02*
X0105606Y0186379D01*
X0099500Y0200765D02*
X0099100Y0200765D01*
X0099100Y0202364D02*
X0099500Y0202364D01*
X0099500Y0203962D02*
X0099100Y0203962D01*
X0061858Y0136825D02*
X0042189Y0136825D01*
X0039311Y0140022D02*
X0038992Y0140022D01*
X0039311Y0141620D02*
X0037598Y0141620D01*
X0037598Y0143219D02*
X0039340Y0143219D01*
X0039311Y0144818D02*
X0037598Y0144818D01*
X0037598Y0146416D02*
X0039311Y0146416D01*
X0039311Y0148015D02*
X0037598Y0148015D01*
X0037598Y0149613D02*
X0039461Y0149613D01*
X0039311Y0151212D02*
X0037598Y0151212D01*
X0037598Y0152810D02*
X0039311Y0152810D01*
X0042320Y0164000D02*
X0043202Y0164000D01*
X0046507Y0164000D02*
X0046679Y0164000D01*
X0046679Y0165598D02*
X0046507Y0165598D01*
X0046507Y0167197D02*
X0046679Y0167197D01*
X0038760Y0175189D02*
X0033281Y0175189D01*
X0035423Y0173591D02*
X0037536Y0173591D01*
X0028452Y0159204D02*
X0027278Y0159204D01*
X0028306Y0157606D02*
X0028452Y0157606D01*
X0028452Y0156007D02*
X0028138Y0156007D01*
X0028452Y0154409D02*
X0027006Y0154409D01*
X0028221Y0152810D02*
X0028452Y0152810D01*
X0028452Y0151212D02*
X0028223Y0151212D01*
X0028452Y0149613D02*
X0027016Y0149613D01*
X0028136Y0148015D02*
X0028452Y0148015D01*
X0028452Y0146416D02*
X0028307Y0146416D01*
X0028452Y0144818D02*
X0027282Y0144818D01*
X0028052Y0143219D02*
X0028452Y0143219D01*
X0028452Y0141620D02*
X0028324Y0141620D01*
X0028452Y0140022D02*
X0027487Y0140022D01*
X0027967Y0138423D02*
X0028452Y0138423D01*
X0028324Y0136825D02*
X0029558Y0136825D01*
X0031157Y0135226D02*
X0027691Y0135226D01*
X0025550Y0137009D02*
X0021259Y0137009D01*
X0014300Y0130050D01*
X0009300Y0130050D01*
X0011703Y0125635D02*
X0016918Y0125635D01*
X0015320Y0124037D02*
X0012381Y0124037D01*
X0013720Y0122438D02*
X0013721Y0122438D01*
X0013543Y0127234D02*
X0018517Y0127234D01*
X0020115Y0128832D02*
X0016049Y0128832D01*
X0017648Y0130431D02*
X0021714Y0130431D01*
X0022776Y0132029D02*
X0019246Y0132029D01*
X0020845Y0133628D02*
X0023246Y0133628D01*
X0019706Y0138423D02*
X0015640Y0138423D01*
X0014300Y0140050D02*
X0016259Y0142009D01*
X0025550Y0142009D01*
X0023818Y0144818D02*
X0010851Y0144818D01*
X0012734Y0146416D02*
X0014967Y0146416D01*
X0014502Y0143219D02*
X0013199Y0143219D01*
X0017341Y0147009D02*
X0014300Y0150050D01*
X0009300Y0150050D01*
X0011838Y0154409D02*
X0016974Y0154409D01*
X0015376Y0156007D02*
X0012325Y0156007D01*
X0013697Y0157606D02*
X0013777Y0157606D01*
X0014300Y0160050D02*
X0009300Y0160050D01*
X0011613Y0165598D02*
X0015785Y0165598D01*
X0014186Y0167197D02*
X0013515Y0167197D01*
X0014300Y0170050D02*
X0009300Y0170050D01*
X0012419Y0164000D02*
X0017383Y0164000D01*
X0018982Y0162401D02*
X0013736Y0162401D01*
X0014300Y0160050D02*
X0022341Y0152009D01*
X0025550Y0152009D01*
X0024094Y0154409D02*
X0022908Y0154409D01*
X0022876Y0156007D02*
X0021310Y0156007D01*
X0021277Y0157606D02*
X0019711Y0157606D01*
X0020952Y0159204D02*
X0018113Y0159204D01*
X0016514Y0160803D02*
X0020580Y0160803D01*
X0023050Y0161300D02*
X0023050Y0158800D01*
X0024841Y0157009D01*
X0025550Y0157009D01*
X0023050Y0161300D02*
X0014300Y0170050D01*
X0009300Y0178800D02*
X0026091Y0162009D01*
X0026800Y0162009D01*
X0020171Y0151212D02*
X0016105Y0151212D01*
X0017704Y0149613D02*
X0024084Y0149613D01*
X0025550Y0147009D02*
X0017341Y0147009D01*
X0018573Y0152810D02*
X0013567Y0152810D01*
X0005457Y0136825D02*
X0002994Y0136825D01*
X0002994Y0138423D02*
X0004564Y0138423D01*
X0004302Y0140022D02*
X0002994Y0140022D01*
X0002994Y0141620D02*
X0004541Y0141620D01*
X0005401Y0143219D02*
X0002994Y0143219D01*
X0012790Y0133628D02*
X0014911Y0133628D01*
X0009300Y0178800D02*
X0009300Y0180050D01*
X0004302Y0195970D02*
X0002994Y0195970D01*
X0002994Y0197568D02*
X0004302Y0197568D01*
X0004302Y0199167D02*
X0002994Y0199167D01*
X0002994Y0200765D02*
X0004302Y0200765D01*
X0004302Y0202364D02*
X0002994Y0202364D01*
X0002994Y0203962D02*
X0004302Y0203962D01*
X0003138Y0205561D02*
X0014300Y0205561D01*
X0014298Y0203962D02*
X0014300Y0203962D01*
X0014298Y0202364D02*
X0014300Y0202364D01*
X0014298Y0200765D02*
X0014300Y0200765D01*
X0014298Y0199167D02*
X0014300Y0199167D01*
X0066800Y0088175D02*
X0066800Y0079425D01*
X0061175Y0073800D01*
X0061175Y0050675D01*
X0060550Y0050050D01*
X0059300Y0050050D01*
X0058675Y0050675D01*
X0055550Y0050675D01*
X0054925Y0050050D01*
X0055148Y0052773D02*
X0055148Y0052794D01*
X0054523Y0053419D01*
X0053294Y0054648D01*
X0051865Y0054648D01*
X0059077Y0061860D01*
X0059077Y0052773D01*
X0055148Y0052773D01*
X0054240Y0053702D02*
X0059077Y0053702D01*
X0059077Y0055301D02*
X0052518Y0055301D01*
X0054116Y0056899D02*
X0059077Y0056899D01*
X0059077Y0058498D02*
X0055715Y0058498D01*
X0057313Y0060096D02*
X0059077Y0060096D01*
X0059077Y0061695D02*
X0058912Y0061695D01*
X0062374Y0048907D02*
X0062944Y0048907D01*
X0062343Y0047308D02*
X0061503Y0047308D01*
X0061503Y0045710D02*
X0062343Y0045710D01*
X0062343Y0044111D02*
X0061503Y0044111D01*
X0061503Y0042513D02*
X0062343Y0042513D01*
X0067441Y0030168D02*
X0070413Y0030168D01*
X0067441Y0030168D01*
X0070413Y0030168D02*
X0070413Y0030168D01*
X0071308Y0031529D02*
X0071308Y0032882D01*
X0071308Y0031529D01*
X0071308Y0031529D01*
X0071308Y0032882D02*
X0071308Y0032882D01*
X0074842Y0026528D02*
X0075843Y0026528D01*
X0075843Y0028126D02*
X0075175Y0028126D01*
X0075175Y0029725D02*
X0075843Y0029725D01*
X0075843Y0031323D02*
X0075175Y0031323D01*
X0075843Y0024929D02*
X0074490Y0024929D01*
X0071308Y0024744D02*
X0071308Y0024234D01*
X0071308Y0024744D01*
X0071308Y0024744D01*
X0069095Y0024929D02*
X0055093Y0024929D01*
X0067761Y0026528D02*
X0067774Y0026528D01*
X0074490Y0018535D02*
X0075843Y0018535D01*
X0075843Y0016937D02*
X0075014Y0016937D01*
X0075175Y0015338D02*
X0075843Y0015338D01*
X0075843Y0013740D02*
X0075175Y0013740D01*
X0079052Y0021732D02*
X0089651Y0021732D01*
X0091249Y0020134D02*
X0080651Y0020134D01*
X0083848Y0016937D02*
X0095345Y0016937D01*
X0097615Y0015338D02*
X0085446Y0015338D01*
X0087045Y0013740D02*
X0095921Y0013740D01*
X0094756Y0012141D02*
X0088643Y0012141D01*
X0090242Y0010543D02*
X0092108Y0010543D01*
X0092648Y0028126D02*
X0093257Y0028126D01*
X0094300Y0030050D02*
X0090550Y0033800D01*
X0090550Y0040050D01*
X0083050Y0045050D02*
X0083050Y0030778D01*
X0082203Y0028126D02*
X0079919Y0028126D01*
X0079919Y0029725D02*
X0080483Y0029725D01*
X0080276Y0031323D02*
X0079919Y0031323D01*
X0079919Y0032922D02*
X0080952Y0032922D01*
X0080952Y0034520D02*
X0079919Y0034520D01*
X0079919Y0036119D02*
X0080952Y0036119D01*
X0080952Y0037717D02*
X0079919Y0037717D01*
X0083050Y0045050D02*
X0076800Y0051300D01*
X0076800Y0065050D01*
X0073675Y0068175D01*
X0073675Y0073800D01*
X0059937Y0079279D02*
X0056913Y0079279D01*
X0057935Y0077680D02*
X0058338Y0077680D01*
X0070413Y0013711D02*
X0070413Y0013711D01*
X0092648Y0068089D02*
X0093294Y0068089D01*
X0102307Y0044111D02*
X0105606Y0044111D01*
X0105606Y0042513D02*
X0103690Y0042513D01*
X0104298Y0040914D02*
X0105606Y0040914D01*
X0105606Y0039316D02*
X0104298Y0039316D01*
X0103744Y0037717D02*
X0105606Y0037717D01*
X0105606Y0036119D02*
X0102437Y0036119D01*
X0104013Y0021732D02*
X0105606Y0021732D01*
X0105606Y0020134D02*
X0104298Y0020134D01*
X0104082Y0018535D02*
X0105606Y0018535D01*
X0105606Y0016937D02*
X0103255Y0016937D01*
X0015550Y0037550D02*
X0009300Y0031300D01*
X0009300Y0030050D01*
X0008019Y0024929D02*
X0002994Y0024929D01*
D23*
X0019300Y0010050D02*
X0022425Y0013175D01*
X0022425Y0015050D01*
X0026175Y0027550D02*
X0026175Y0028175D01*
X0028675Y0030675D01*
X0028675Y0038800D01*
X0031175Y0041300D01*
X0036800Y0041300D01*
X0036800Y0046925D01*
X0054925Y0065050D01*
X0054925Y0076925D01*
X0064925Y0072550D02*
X0064925Y0067550D01*
X0069925Y0062550D01*
X0069925Y0059425D01*
X0068675Y0058175D01*
X0066175Y0058175D01*
X0064300Y0056300D01*
X0064300Y0051300D01*
X0066175Y0049425D01*
X0069300Y0049425D01*
X0071800Y0046925D01*
X0071800Y0041300D01*
X0074300Y0036300D02*
X0074300Y0032206D01*
X0075166Y0032206D01*
X0075166Y0030168D01*
X0071308Y0030168D01*
X0071308Y0032417D01*
X0074300Y0036300D02*
X0066111Y0036300D01*
X0066111Y0037614D01*
X0078050Y0045675D02*
X0073675Y0050050D01*
X0073675Y0053800D01*
X0073675Y0063800D01*
X0069925Y0067550D01*
X0069925Y0070675D01*
X0069925Y0089425D01*
X0065550Y0093800D01*
X0065550Y0096925D01*
X0068675Y0053800D02*
X0073675Y0053800D01*
X0078050Y0045675D02*
X0078050Y0041300D01*
X0075166Y0013711D02*
X0071308Y0013711D01*
X0075166Y0013711D02*
X0075166Y0011339D01*
X0037292Y0011339D02*
X0037292Y0013711D01*
X0033040Y0013711D01*
X0033434Y0011339D02*
X0033040Y0010946D01*
X0033434Y0011339D02*
X0037292Y0011339D01*
X0037292Y0030168D02*
X0037292Y0032206D01*
X0033434Y0032206D01*
X0039507Y0167550D02*
X0039507Y0172028D01*
X0041278Y0173800D01*
D24*
X0034300Y0170050D02*
X0034300Y0167550D01*
X0034300Y0140050D01*
X0045550Y0128800D01*
X0045550Y0101925D01*
X0040550Y0096925D01*
X0040550Y0091300D01*
X0038050Y0088800D01*
X0037425Y0088800D01*
X0058237Y0040867D02*
X0058237Y0032737D01*
X0048050Y0022550D01*
X0021800Y0022550D01*
X0018050Y0022550D01*
X0015550Y0020050D01*
X0009300Y0020050D01*
X0066111Y0037614D02*
X0066111Y0040867D01*
X0034300Y0170050D02*
X0032341Y0172009D01*
X0027425Y0172009D01*
D25*
X0024841Y0172009D01*
X0019300Y0177550D01*
X0019300Y0183800D01*
X0016800Y0186300D01*
X0016800Y0192550D01*
X0009300Y0200050D01*
X0034300Y0167550D02*
X0039507Y0167550D01*
X0042883Y0152127D02*
X0048394Y0152127D01*
X0048394Y0146615D01*
X0053906Y0146615D01*
X0053906Y0141103D01*
X0048394Y0141103D01*
X0048394Y0146615D01*
X0042883Y0146615D01*
X0042883Y0152127D01*
X0042883Y0146615D02*
X0042883Y0141103D01*
X0048394Y0141103D01*
X0048394Y0136644D01*
X0048050Y0136300D01*
X0048050Y0133800D01*
X0053906Y0146615D02*
X0053906Y0152127D01*
X0048394Y0152127D01*
X0037425Y0087550D02*
X0034925Y0085050D01*
X0032425Y0052550D02*
X0030550Y0052550D01*
X0026175Y0048175D01*
X0026175Y0041925D01*
X0024925Y0040675D01*
X0024925Y0032550D01*
X0021800Y0029425D01*
X0021800Y0023175D01*
X0021800Y0022550D01*
D26*
X0032425Y0052550D03*
X0037425Y0088800D03*
X0065550Y0096925D03*
X0068675Y0053800D03*
X0071800Y0041300D03*
X0078050Y0041300D03*
X0027425Y0172009D03*
D27*
X0054925Y0076925D03*
X0064925Y0072550D03*
X0036800Y0041300D03*
X0026175Y0027550D03*
X0022425Y0015050D03*
M02*
